<?xml version="1.0" encoding="utf-8"?>
<svg xmlns="http://www.w3.org/2000/svg" xmlns:xlink="http://www.w3.org/1999/xlink" width="600" height="400" viewBox="0 0 2400 1600">
<defs>
  <clipPath id="clip820">
    <rect x="0" y="0" width="2400" height="1600"/>
  </clipPath>
</defs>
<path clip-path="url(#clip820)" d="M0 1600 L2400 1600 L2400 0 L0 0  Z" fill="#ffffff" fill-rule="evenodd" fill-opacity="1"/>
<defs>
  <clipPath id="clip821">
    <rect x="250" y="47" width="2104" height="1377"/>
  </clipPath>
</defs>
<path clip-path="url(#clip820)" d="M250.028 1423.18 L2352.76 1423.18 L2352.76 47.2441 L250.028 47.2441  Z" fill="#ffffff" fill-rule="evenodd" fill-opacity="1"/>
<polyline clip-path="url(#clip821)" style="stroke:#000000; stroke-linecap:round; stroke-linejoin:round; stroke-width:2; stroke-opacity:0.1; fill:none" points="316.434,1423.18 316.434,47.2441 "/>
<polyline clip-path="url(#clip821)" style="stroke:#000000; stroke-linecap:round; stroke-linejoin:round; stroke-width:2; stroke-opacity:0.1; fill:none" points="808.913,1423.18 808.913,47.2441 "/>
<polyline clip-path="url(#clip821)" style="stroke:#000000; stroke-linecap:round; stroke-linejoin:round; stroke-width:2; stroke-opacity:0.1; fill:none" points="1301.39,1423.18 1301.39,47.2441 "/>
<polyline clip-path="url(#clip821)" style="stroke:#000000; stroke-linecap:round; stroke-linejoin:round; stroke-width:2; stroke-opacity:0.1; fill:none" points="1793.87,1423.18 1793.87,47.2441 "/>
<polyline clip-path="url(#clip821)" style="stroke:#000000; stroke-linecap:round; stroke-linejoin:round; stroke-width:2; stroke-opacity:0.1; fill:none" points="2286.35,1423.18 2286.35,47.2441 "/>
<polyline clip-path="url(#clip821)" style="stroke:#000000; stroke-linecap:round; stroke-linejoin:round; stroke-width:2; stroke-opacity:0.1; fill:none" points="250.028,1423.18 2352.76,1423.18 "/>
<polyline clip-path="url(#clip821)" style="stroke:#000000; stroke-linecap:round; stroke-linejoin:round; stroke-width:2; stroke-opacity:0.1; fill:none" points="250.028,1116.39 2352.76,1116.39 "/>
<polyline clip-path="url(#clip821)" style="stroke:#000000; stroke-linecap:round; stroke-linejoin:round; stroke-width:2; stroke-opacity:0.1; fill:none" points="250.028,809.608 2352.76,809.608 "/>
<polyline clip-path="url(#clip821)" style="stroke:#000000; stroke-linecap:round; stroke-linejoin:round; stroke-width:2; stroke-opacity:0.1; fill:none" points="250.028,502.821 2352.76,502.821 "/>
<polyline clip-path="url(#clip821)" style="stroke:#000000; stroke-linecap:round; stroke-linejoin:round; stroke-width:2; stroke-opacity:0.1; fill:none" points="250.028,196.035 2352.76,196.035 "/>
<polyline clip-path="url(#clip820)" style="stroke:#000000; stroke-linecap:round; stroke-linejoin:round; stroke-width:4; stroke-opacity:1; fill:none" points="250.028,1423.18 2352.76,1423.18 "/>
<polyline clip-path="url(#clip820)" style="stroke:#000000; stroke-linecap:round; stroke-linejoin:round; stroke-width:4; stroke-opacity:1; fill:none" points="316.434,1423.18 316.434,1404.28 "/>
<polyline clip-path="url(#clip820)" style="stroke:#000000; stroke-linecap:round; stroke-linejoin:round; stroke-width:4; stroke-opacity:1; fill:none" points="808.913,1423.18 808.913,1404.28 "/>
<polyline clip-path="url(#clip820)" style="stroke:#000000; stroke-linecap:round; stroke-linejoin:round; stroke-width:4; stroke-opacity:1; fill:none" points="1301.39,1423.18 1301.39,1404.28 "/>
<polyline clip-path="url(#clip820)" style="stroke:#000000; stroke-linecap:round; stroke-linejoin:round; stroke-width:4; stroke-opacity:1; fill:none" points="1793.87,1423.18 1793.87,1404.28 "/>
<polyline clip-path="url(#clip820)" style="stroke:#000000; stroke-linecap:round; stroke-linejoin:round; stroke-width:4; stroke-opacity:1; fill:none" points="2286.35,1423.18 2286.35,1404.28 "/>
<path clip-path="url(#clip820)" d="M316.434 1454.1 Q312.823 1454.1 310.994 1457.66 Q309.189 1461.2 309.189 1468.33 Q309.189 1475.44 310.994 1479.01 Q312.823 1482.55 316.434 1482.55 Q320.068 1482.55 321.874 1479.01 Q323.702 1475.44 323.702 1468.33 Q323.702 1461.2 321.874 1457.66 Q320.068 1454.1 316.434 1454.1 M316.434 1450.39 Q322.244 1450.39 325.3 1455 Q328.378 1459.58 328.378 1468.33 Q328.378 1477.06 325.3 1481.67 Q322.244 1486.25 316.434 1486.25 Q310.624 1486.25 307.545 1481.67 Q304.49 1477.06 304.49 1468.33 Q304.49 1459.58 307.545 1455 Q310.624 1450.39 316.434 1450.39 Z" fill="#000000" fill-rule="nonzero" fill-opacity="1" /><path clip-path="url(#clip820)" d="M783.601 1481.64 L791.24 1481.64 L791.24 1455.28 L782.929 1456.95 L782.929 1452.69 L791.193 1451.02 L795.869 1451.02 L795.869 1481.64 L803.508 1481.64 L803.508 1485.58 L783.601 1485.58 L783.601 1481.64 Z" fill="#000000" fill-rule="nonzero" fill-opacity="1" /><path clip-path="url(#clip820)" d="M822.952 1454.1 Q819.341 1454.1 817.513 1457.66 Q815.707 1461.2 815.707 1468.33 Q815.707 1475.44 817.513 1479.01 Q819.341 1482.55 822.952 1482.55 Q826.587 1482.55 828.392 1479.01 Q830.221 1475.44 830.221 1468.33 Q830.221 1461.2 828.392 1457.66 Q826.587 1454.1 822.952 1454.1 M822.952 1450.39 Q828.762 1450.39 831.818 1455 Q834.897 1459.58 834.897 1468.33 Q834.897 1477.06 831.818 1481.67 Q828.762 1486.25 822.952 1486.25 Q817.142 1486.25 814.063 1481.67 Q811.008 1477.06 811.008 1468.33 Q811.008 1459.58 814.063 1455 Q817.142 1450.39 822.952 1450.39 Z" fill="#000000" fill-rule="nonzero" fill-opacity="1" /><path clip-path="url(#clip820)" d="M1280.17 1481.64 L1296.48 1481.64 L1296.48 1485.58 L1274.54 1485.58 L1274.54 1481.64 Q1277.2 1478.89 1281.79 1474.26 Q1286.39 1469.61 1287.57 1468.27 Q1289.82 1465.74 1290.7 1464.01 Q1291.6 1462.25 1291.6 1460.56 Q1291.6 1457.8 1289.66 1456.07 Q1287.73 1454.33 1284.63 1454.33 Q1282.43 1454.33 1279.98 1455.09 Q1277.55 1455.86 1274.77 1457.41 L1274.77 1452.69 Q1277.6 1451.55 1280.05 1450.97 Q1282.5 1450.39 1284.54 1450.39 Q1289.91 1450.39 1293.11 1453.08 Q1296.3 1455.77 1296.3 1460.26 Q1296.3 1462.39 1295.49 1464.31 Q1294.7 1466.2 1292.6 1468.8 Q1292.02 1469.47 1288.92 1472.69 Q1285.81 1475.88 1280.17 1481.64 Z" fill="#000000" fill-rule="nonzero" fill-opacity="1" /><path clip-path="url(#clip820)" d="M1316.3 1454.1 Q1312.69 1454.1 1310.86 1457.66 Q1309.05 1461.2 1309.05 1468.33 Q1309.05 1475.44 1310.86 1479.01 Q1312.69 1482.55 1316.3 1482.55 Q1319.93 1482.55 1321.74 1479.01 Q1323.57 1475.44 1323.57 1468.33 Q1323.57 1461.2 1321.74 1457.66 Q1319.93 1454.1 1316.3 1454.1 M1316.3 1450.39 Q1322.11 1450.39 1325.17 1455 Q1328.24 1459.58 1328.24 1468.33 Q1328.24 1477.06 1325.17 1481.67 Q1322.11 1486.25 1316.3 1486.25 Q1310.49 1486.25 1307.41 1481.67 Q1304.35 1477.06 1304.35 1468.33 Q1304.35 1459.58 1307.41 1455 Q1310.49 1450.39 1316.3 1450.39 Z" fill="#000000" fill-rule="nonzero" fill-opacity="1" /><path clip-path="url(#clip820)" d="M1782.71 1466.95 Q1786.07 1467.66 1787.95 1469.93 Q1789.84 1472.2 1789.84 1475.53 Q1789.84 1480.65 1786.32 1483.45 Q1782.81 1486.25 1776.32 1486.25 Q1774.15 1486.25 1771.83 1485.81 Q1769.54 1485.39 1767.09 1484.54 L1767.09 1480.02 Q1769.03 1481.16 1771.35 1481.74 Q1773.66 1482.32 1776.19 1482.32 Q1780.58 1482.32 1782.88 1480.58 Q1785.19 1478.84 1785.19 1475.53 Q1785.19 1472.48 1783.04 1470.77 Q1780.91 1469.03 1777.09 1469.03 L1773.06 1469.03 L1773.06 1465.19 L1777.27 1465.19 Q1780.72 1465.19 1782.55 1463.82 Q1784.38 1462.43 1784.38 1459.84 Q1784.38 1457.18 1782.48 1455.77 Q1780.61 1454.33 1777.09 1454.33 Q1775.17 1454.33 1772.97 1454.75 Q1770.77 1455.16 1768.13 1456.04 L1768.13 1451.88 Q1770.79 1451.14 1773.11 1450.77 Q1775.45 1450.39 1777.51 1450.39 Q1782.83 1450.39 1785.93 1452.83 Q1789.03 1455.23 1789.03 1459.35 Q1789.03 1462.22 1787.39 1464.21 Q1785.75 1466.18 1782.71 1466.95 Z" fill="#000000" fill-rule="nonzero" fill-opacity="1" /><path clip-path="url(#clip820)" d="M1808.71 1454.1 Q1805.1 1454.1 1803.27 1457.66 Q1801.46 1461.2 1801.46 1468.33 Q1801.46 1475.44 1803.27 1479.01 Q1805.1 1482.55 1808.71 1482.55 Q1812.34 1482.55 1814.15 1479.01 Q1815.98 1475.44 1815.98 1468.33 Q1815.98 1461.2 1814.15 1457.66 Q1812.34 1454.1 1808.71 1454.1 M1808.71 1450.39 Q1814.52 1450.39 1817.57 1455 Q1820.65 1459.58 1820.65 1468.33 Q1820.65 1477.06 1817.57 1481.67 Q1814.52 1486.25 1808.71 1486.25 Q1802.9 1486.25 1799.82 1481.67 Q1796.76 1477.06 1796.76 1468.33 Q1796.76 1459.58 1799.82 1455 Q1802.9 1450.39 1808.71 1450.39 Z" fill="#000000" fill-rule="nonzero" fill-opacity="1" /><path clip-path="url(#clip820)" d="M2274.52 1455.09 L2262.72 1473.54 L2274.52 1473.54 L2274.52 1455.09 M2273.29 1451.02 L2279.17 1451.02 L2279.17 1473.54 L2284.1 1473.54 L2284.1 1477.43 L2279.17 1477.43 L2279.17 1485.58 L2274.52 1485.58 L2274.52 1477.43 L2258.92 1477.43 L2258.92 1472.92 L2273.29 1451.02 Z" fill="#000000" fill-rule="nonzero" fill-opacity="1" /><path clip-path="url(#clip820)" d="M2301.84 1454.1 Q2298.22 1454.1 2296.4 1457.66 Q2294.59 1461.2 2294.59 1468.33 Q2294.59 1475.44 2296.4 1479.01 Q2298.22 1482.55 2301.84 1482.55 Q2305.47 1482.55 2307.28 1479.01 Q2309.1 1475.44 2309.1 1468.33 Q2309.1 1461.2 2307.28 1457.66 Q2305.47 1454.1 2301.84 1454.1 M2301.84 1450.39 Q2307.65 1450.39 2310.7 1455 Q2313.78 1459.58 2313.78 1468.33 Q2313.78 1477.06 2310.7 1481.67 Q2307.65 1486.25 2301.84 1486.25 Q2296.03 1486.25 2292.95 1481.67 Q2289.89 1477.06 2289.89 1468.33 Q2289.89 1459.58 2292.95 1455 Q2296.03 1450.39 2301.84 1450.39 Z" fill="#000000" fill-rule="nonzero" fill-opacity="1" /><path clip-path="url(#clip820)" d="M1300.45 1522.27 L1300.45 1532.4 L1312.52 1532.4 L1312.52 1536.95 L1300.45 1536.95 L1300.45 1556.3 Q1300.45 1560.66 1301.63 1561.9 Q1302.84 1563.14 1306.5 1563.14 L1312.52 1563.14 L1312.52 1568.04 L1306.5 1568.04 Q1299.72 1568.04 1297.14 1565.53 Q1294.56 1562.98 1294.56 1556.3 L1294.56 1536.95 L1290.27 1536.95 L1290.27 1532.4 L1294.56 1532.4 L1294.56 1522.27 L1300.45 1522.27 Z" fill="#000000" fill-rule="nonzero" fill-opacity="1" /><polyline clip-path="url(#clip820)" style="stroke:#000000; stroke-linecap:round; stroke-linejoin:round; stroke-width:4; stroke-opacity:1; fill:none" points="250.028,1423.18 250.028,47.2441 "/>
<polyline clip-path="url(#clip820)" style="stroke:#000000; stroke-linecap:round; stroke-linejoin:round; stroke-width:4; stroke-opacity:1; fill:none" points="250.028,1423.18 268.926,1423.18 "/>
<polyline clip-path="url(#clip820)" style="stroke:#000000; stroke-linecap:round; stroke-linejoin:round; stroke-width:4; stroke-opacity:1; fill:none" points="250.028,1116.39 268.926,1116.39 "/>
<polyline clip-path="url(#clip820)" style="stroke:#000000; stroke-linecap:round; stroke-linejoin:round; stroke-width:4; stroke-opacity:1; fill:none" points="250.028,809.608 268.926,809.608 "/>
<polyline clip-path="url(#clip820)" style="stroke:#000000; stroke-linecap:round; stroke-linejoin:round; stroke-width:4; stroke-opacity:1; fill:none" points="250.028,502.821 268.926,502.821 "/>
<polyline clip-path="url(#clip820)" style="stroke:#000000; stroke-linecap:round; stroke-linejoin:round; stroke-width:4; stroke-opacity:1; fill:none" points="250.028,196.035 268.926,196.035 "/>
<path clip-path="url(#clip820)" d="M126.691 1408.98 Q123.08 1408.98 121.251 1412.54 Q119.445 1416.08 119.445 1423.21 Q119.445 1430.32 121.251 1433.89 Q123.08 1437.43 126.691 1437.43 Q130.325 1437.43 132.13 1433.89 Q133.959 1430.32 133.959 1423.21 Q133.959 1416.08 132.13 1412.54 Q130.325 1408.98 126.691 1408.98 M126.691 1405.27 Q132.501 1405.27 135.556 1409.88 Q138.635 1414.46 138.635 1423.21 Q138.635 1431.94 135.556 1436.55 Q132.501 1441.13 126.691 1441.13 Q120.88 1441.13 117.802 1436.55 Q114.746 1431.94 114.746 1423.21 Q114.746 1414.46 117.802 1409.88 Q120.88 1405.27 126.691 1405.27 Z" fill="#000000" fill-rule="nonzero" fill-opacity="1" /><path clip-path="url(#clip820)" d="M146.853 1434.58 L151.737 1434.58 L151.737 1440.46 L146.853 1440.46 L146.853 1434.58 Z" fill="#000000" fill-rule="nonzero" fill-opacity="1" /><path clip-path="url(#clip820)" d="M171.922 1408.98 Q168.311 1408.98 166.482 1412.54 Q164.677 1416.08 164.677 1423.21 Q164.677 1430.32 166.482 1433.89 Q168.311 1437.43 171.922 1437.43 Q175.556 1437.43 177.362 1433.89 Q179.19 1430.32 179.19 1423.21 Q179.19 1416.08 177.362 1412.54 Q175.556 1408.98 171.922 1408.98 M171.922 1405.27 Q177.732 1405.27 180.788 1409.88 Q183.866 1414.46 183.866 1423.21 Q183.866 1431.94 180.788 1436.55 Q177.732 1441.13 171.922 1441.13 Q166.112 1441.13 163.033 1436.55 Q159.978 1431.94 159.978 1423.21 Q159.978 1414.46 163.033 1409.88 Q166.112 1405.27 171.922 1405.27 Z" fill="#000000" fill-rule="nonzero" fill-opacity="1" /><path clip-path="url(#clip820)" d="M202.084 1408.98 Q198.473 1408.98 196.644 1412.54 Q194.838 1416.08 194.838 1423.21 Q194.838 1430.32 196.644 1433.89 Q198.473 1437.43 202.084 1437.43 Q205.718 1437.43 207.524 1433.89 Q209.352 1430.32 209.352 1423.21 Q209.352 1416.08 207.524 1412.54 Q205.718 1408.98 202.084 1408.98 M202.084 1405.27 Q207.894 1405.27 210.949 1409.88 Q214.028 1414.46 214.028 1423.21 Q214.028 1431.94 210.949 1436.55 Q207.894 1441.13 202.084 1441.13 Q196.274 1441.13 193.195 1436.55 Q190.139 1431.94 190.139 1423.21 Q190.139 1414.46 193.195 1409.88 Q196.274 1405.27 202.084 1405.27 Z" fill="#000000" fill-rule="nonzero" fill-opacity="1" /><path clip-path="url(#clip820)" d="M128.288 1102.19 Q124.677 1102.19 122.848 1105.76 Q121.043 1109.3 121.043 1116.43 Q121.043 1123.53 122.848 1127.1 Q124.677 1130.64 128.288 1130.64 Q131.922 1130.64 133.728 1127.1 Q135.556 1123.53 135.556 1116.43 Q135.556 1109.3 133.728 1105.76 Q131.922 1102.19 128.288 1102.19 M128.288 1098.49 Q134.098 1098.49 137.154 1103.1 Q140.232 1107.68 140.232 1116.43 Q140.232 1125.16 137.154 1129.76 Q134.098 1134.35 128.288 1134.35 Q122.478 1134.35 119.399 1129.76 Q116.343 1125.16 116.343 1116.43 Q116.343 1107.68 119.399 1103.1 Q122.478 1098.49 128.288 1098.49 Z" fill="#000000" fill-rule="nonzero" fill-opacity="1" /><path clip-path="url(#clip820)" d="M148.45 1127.79 L153.334 1127.79 L153.334 1133.67 L148.45 1133.67 L148.45 1127.79 Z" fill="#000000" fill-rule="nonzero" fill-opacity="1" /><path clip-path="url(#clip820)" d="M173.519 1102.19 Q169.908 1102.19 168.079 1105.76 Q166.274 1109.3 166.274 1116.43 Q166.274 1123.53 168.079 1127.1 Q169.908 1130.64 173.519 1130.64 Q177.153 1130.64 178.959 1127.1 Q180.788 1123.53 180.788 1116.43 Q180.788 1109.3 178.959 1105.76 Q177.153 1102.19 173.519 1102.19 M173.519 1098.49 Q179.329 1098.49 182.385 1103.1 Q185.463 1107.68 185.463 1116.43 Q185.463 1125.16 182.385 1129.76 Q179.329 1134.35 173.519 1134.35 Q167.709 1134.35 164.63 1129.76 Q161.575 1125.16 161.575 1116.43 Q161.575 1107.68 164.63 1103.1 Q167.709 1098.49 173.519 1098.49 Z" fill="#000000" fill-rule="nonzero" fill-opacity="1" /><path clip-path="url(#clip820)" d="M197.709 1129.74 L214.028 1129.74 L214.028 1133.67 L192.084 1133.67 L192.084 1129.74 Q194.746 1126.98 199.329 1122.35 Q203.936 1117.7 205.116 1116.36 Q207.362 1113.84 208.241 1112.1 Q209.144 1110.34 209.144 1108.65 Q209.144 1105.9 207.199 1104.16 Q205.278 1102.42 202.176 1102.42 Q199.977 1102.42 197.524 1103.19 Q195.093 1103.95 192.315 1105.5 L192.315 1100.78 Q195.139 1099.65 197.593 1099.07 Q200.047 1098.49 202.084 1098.49 Q207.454 1098.49 210.649 1101.17 Q213.843 1103.86 213.843 1108.35 Q213.843 1110.48 213.033 1112.4 Q212.246 1114.3 210.139 1116.89 Q209.561 1117.56 206.459 1120.78 Q203.357 1123.97 197.709 1129.74 Z" fill="#000000" fill-rule="nonzero" fill-opacity="1" /><path clip-path="url(#clip820)" d="M126.205 795.406 Q122.593 795.406 120.765 798.971 Q118.959 802.513 118.959 809.642 Q118.959 816.749 120.765 820.314 Q122.593 823.855 126.205 823.855 Q129.839 823.855 131.644 820.314 Q133.473 816.749 133.473 809.642 Q133.473 802.513 131.644 798.971 Q129.839 795.406 126.205 795.406 M126.205 791.703 Q132.015 791.703 135.07 796.309 Q138.149 800.892 138.149 809.642 Q138.149 818.369 135.07 822.976 Q132.015 827.559 126.205 827.559 Q120.394 827.559 117.316 822.976 Q114.26 818.369 114.26 809.642 Q114.26 800.892 117.316 796.309 Q120.394 791.703 126.205 791.703 Z" fill="#000000" fill-rule="nonzero" fill-opacity="1" /><path clip-path="url(#clip820)" d="M146.366 821.008 L151.251 821.008 L151.251 826.888 L146.366 826.888 L146.366 821.008 Z" fill="#000000" fill-rule="nonzero" fill-opacity="1" /><path clip-path="url(#clip820)" d="M171.436 795.406 Q167.825 795.406 165.996 798.971 Q164.19 802.513 164.19 809.642 Q164.19 816.749 165.996 820.314 Q167.825 823.855 171.436 823.855 Q175.07 823.855 176.876 820.314 Q178.704 816.749 178.704 809.642 Q178.704 802.513 176.876 798.971 Q175.07 795.406 171.436 795.406 M171.436 791.703 Q177.246 791.703 180.301 796.309 Q183.38 800.892 183.38 809.642 Q183.38 818.369 180.301 822.976 Q177.246 827.559 171.436 827.559 Q165.626 827.559 162.547 822.976 Q159.491 818.369 159.491 809.642 Q159.491 800.892 162.547 796.309 Q165.626 791.703 171.436 791.703 Z" fill="#000000" fill-rule="nonzero" fill-opacity="1" /><path clip-path="url(#clip820)" d="M204.445 796.402 L192.639 814.851 L204.445 814.851 L204.445 796.402 M203.218 792.328 L209.098 792.328 L209.098 814.851 L214.028 814.851 L214.028 818.739 L209.098 818.739 L209.098 826.888 L204.445 826.888 L204.445 818.739 L188.843 818.739 L188.843 814.226 L203.218 792.328 Z" fill="#000000" fill-rule="nonzero" fill-opacity="1" /><path clip-path="url(#clip820)" d="M126.529 488.62 Q122.918 488.62 121.089 492.185 Q119.283 495.727 119.283 502.856 Q119.283 509.963 121.089 513.527 Q122.918 517.069 126.529 517.069 Q130.163 517.069 131.968 513.527 Q133.797 509.963 133.797 502.856 Q133.797 495.727 131.968 492.185 Q130.163 488.62 126.529 488.62 M126.529 484.916 Q132.339 484.916 135.394 489.523 Q138.473 494.106 138.473 502.856 Q138.473 511.583 135.394 516.189 Q132.339 520.773 126.529 520.773 Q120.718 520.773 117.64 516.189 Q114.584 511.583 114.584 502.856 Q114.584 494.106 117.64 489.523 Q120.718 484.916 126.529 484.916 Z" fill="#000000" fill-rule="nonzero" fill-opacity="1" /><path clip-path="url(#clip820)" d="M146.691 514.222 L151.575 514.222 L151.575 520.101 L146.691 520.101 L146.691 514.222 Z" fill="#000000" fill-rule="nonzero" fill-opacity="1" /><path clip-path="url(#clip820)" d="M171.76 488.62 Q168.149 488.62 166.32 492.185 Q164.515 495.727 164.515 502.856 Q164.515 509.963 166.32 513.527 Q168.149 517.069 171.76 517.069 Q175.394 517.069 177.2 513.527 Q179.028 509.963 179.028 502.856 Q179.028 495.727 177.2 492.185 Q175.394 488.62 171.76 488.62 M171.76 484.916 Q177.57 484.916 180.626 489.523 Q183.704 494.106 183.704 502.856 Q183.704 511.583 180.626 516.189 Q177.57 520.773 171.76 520.773 Q165.95 520.773 162.871 516.189 Q159.815 511.583 159.815 502.856 Q159.815 494.106 162.871 489.523 Q165.95 484.916 171.76 484.916 Z" fill="#000000" fill-rule="nonzero" fill-opacity="1" /><path clip-path="url(#clip820)" d="M202.5 500.958 Q199.352 500.958 197.5 503.111 Q195.672 505.264 195.672 509.014 Q195.672 512.74 197.5 514.916 Q199.352 517.069 202.5 517.069 Q205.649 517.069 207.477 514.916 Q209.329 512.74 209.329 509.014 Q209.329 505.264 207.477 503.111 Q205.649 500.958 202.5 500.958 M211.783 486.305 L211.783 490.565 Q210.024 489.731 208.218 489.291 Q206.436 488.852 204.676 488.852 Q200.047 488.852 197.593 491.977 Q195.163 495.102 194.815 501.421 Q196.181 499.407 198.241 498.342 Q200.301 497.254 202.778 497.254 Q207.987 497.254 210.996 500.426 Q214.028 503.574 214.028 509.014 Q214.028 514.338 210.88 517.555 Q207.732 520.773 202.5 520.773 Q196.505 520.773 193.334 516.189 Q190.163 511.583 190.163 502.856 Q190.163 494.662 194.051 489.801 Q197.94 484.916 204.491 484.916 Q206.25 484.916 208.033 485.264 Q209.838 485.611 211.783 486.305 Z" fill="#000000" fill-rule="nonzero" fill-opacity="1" /><path clip-path="url(#clip820)" d="M126.783 181.834 Q123.172 181.834 121.343 185.399 Q119.538 188.94 119.538 196.07 Q119.538 203.177 121.343 206.741 Q123.172 210.283 126.783 210.283 Q130.417 210.283 132.223 206.741 Q134.052 203.177 134.052 196.07 Q134.052 188.94 132.223 185.399 Q130.417 181.834 126.783 181.834 M126.783 178.13 Q132.593 178.13 135.649 182.737 Q138.728 187.32 138.728 196.07 Q138.728 204.797 135.649 209.403 Q132.593 213.987 126.783 213.987 Q120.973 213.987 117.894 209.403 Q114.839 204.797 114.839 196.07 Q114.839 187.32 117.894 182.737 Q120.973 178.13 126.783 178.13 Z" fill="#000000" fill-rule="nonzero" fill-opacity="1" /><path clip-path="url(#clip820)" d="M146.945 207.436 L151.829 207.436 L151.829 213.315 L146.945 213.315 L146.945 207.436 Z" fill="#000000" fill-rule="nonzero" fill-opacity="1" /><path clip-path="url(#clip820)" d="M172.014 181.834 Q168.403 181.834 166.575 185.399 Q164.769 188.94 164.769 196.07 Q164.769 203.177 166.575 206.741 Q168.403 210.283 172.014 210.283 Q175.649 210.283 177.454 206.741 Q179.283 203.177 179.283 196.07 Q179.283 188.94 177.454 185.399 Q175.649 181.834 172.014 181.834 M172.014 178.13 Q177.825 178.13 180.88 182.737 Q183.959 187.32 183.959 196.07 Q183.959 204.797 180.88 209.403 Q177.825 213.987 172.014 213.987 Q166.204 213.987 163.126 209.403 Q160.07 204.797 160.07 196.07 Q160.07 187.32 163.126 182.737 Q166.204 178.13 172.014 178.13 Z" fill="#000000" fill-rule="nonzero" fill-opacity="1" /><path clip-path="url(#clip820)" d="M202.176 196.903 Q198.843 196.903 196.922 198.686 Q195.024 200.468 195.024 203.593 Q195.024 206.718 196.922 208.501 Q198.843 210.283 202.176 210.283 Q205.51 210.283 207.431 208.501 Q209.352 206.695 209.352 203.593 Q209.352 200.468 207.431 198.686 Q205.533 196.903 202.176 196.903 M197.5 194.913 Q194.491 194.172 192.801 192.112 Q191.135 190.052 191.135 187.089 Q191.135 182.945 194.075 180.538 Q197.037 178.13 202.176 178.13 Q207.338 178.13 210.278 180.538 Q213.218 182.945 213.218 187.089 Q213.218 190.052 211.528 192.112 Q209.861 194.172 206.875 194.913 Q210.255 195.7 212.13 197.991 Q214.028 200.283 214.028 203.593 Q214.028 208.616 210.949 211.301 Q207.894 213.987 202.176 213.987 Q196.459 213.987 193.38 211.301 Q190.325 208.616 190.325 203.593 Q190.325 200.283 192.223 197.991 Q194.121 195.7 197.5 194.913 M195.787 187.528 Q195.787 190.214 197.454 191.718 Q199.144 193.223 202.176 193.223 Q205.186 193.223 206.875 191.718 Q208.588 190.214 208.588 187.528 Q208.588 184.843 206.875 183.339 Q205.186 181.834 202.176 181.834 Q199.144 181.834 197.454 183.339 Q195.787 184.843 195.787 187.528 Z" fill="#000000" fill-rule="nonzero" fill-opacity="1" /><path clip-path="url(#clip820)" d="M33.8307 800.206 Q33.2578 801.193 33.0032 802.37 Q32.7167 803.516 32.7167 804.916 Q32.7167 809.882 35.9632 812.555 Q39.1779 815.197 45.2253 815.197 L64.0042 815.197 L64.0042 821.085 L28.3562 821.085 L28.3562 815.197 L33.8944 815.197 Q30.6479 813.351 29.0883 810.391 Q27.4968 807.431 27.4968 803.198 Q27.4968 802.593 27.5923 801.861 Q27.656 801.129 27.8151 800.238 L33.8307 800.206 Z" fill="#000000" fill-rule="nonzero" fill-opacity="1" /><path clip-path="url(#clip820)" d="M42.4881 765.576 L64.0042 765.576 L64.0042 771.433 L42.679 771.433 Q37.6183 771.433 35.1038 773.406 Q32.5894 775.38 32.5894 779.326 Q32.5894 784.069 35.6131 786.806 Q38.6368 789.543 43.8567 789.543 L64.0042 789.543 L64.0042 795.432 L14.479 795.432 L14.479 789.543 L33.8944 789.543 Q30.6797 787.443 29.0883 784.61 Q27.4968 781.745 27.4968 778.021 Q27.4968 771.878 31.3163 768.727 Q35.1038 765.576 42.4881 765.576 Z" fill="#000000" fill-rule="nonzero" fill-opacity="1" /><path clip-path="url(#clip820)" d="M32.4621 740.082 Q32.4621 744.792 36.1542 747.53 Q39.8145 750.267 46.212 750.267 Q52.6095 750.267 56.3017 747.561 Q59.9619 744.824 59.9619 740.082 Q59.9619 735.403 56.2698 732.666 Q52.5777 729.928 46.212 729.928 Q39.8781 729.928 36.186 732.666 Q32.4621 735.403 32.4621 740.082 M27.4968 740.082 Q27.4968 732.443 32.4621 728.082 Q37.4273 723.722 46.212 723.722 Q54.9649 723.722 59.9619 728.082 Q64.9272 732.443 64.9272 740.082 Q64.9272 747.752 59.9619 752.113 Q54.9649 756.442 46.212 756.442 Q37.4273 756.442 32.4621 752.113 Q27.4968 747.752 27.4968 740.082 Z" fill="#000000" fill-rule="nonzero" fill-opacity="1" /><path clip-path="url(#clip820)" d="M14.5426 699.946 Q21.8632 704.211 29.0246 706.28 Q36.186 708.349 43.5384 708.349 Q50.8908 708.349 58.1159 706.28 Q65.3091 704.179 72.5979 699.946 L72.5979 705.039 Q65.1182 709.813 57.8931 712.2 Q50.668 714.555 43.5384 714.555 Q36.4406 714.555 29.2474 712.2 Q22.0542 709.845 14.5426 705.039 L14.5426 699.946 Z" fill="#000000" fill-rule="nonzero" fill-opacity="1" /><path clip-path="url(#clip820)" d="M18.2347 682.79 L28.3562 682.79 L28.3562 670.727 L32.9077 670.727 L32.9077 682.79 L52.2594 682.79 Q56.6199 682.79 57.8613 681.613 Q59.1026 680.403 59.1026 676.743 L59.1026 670.727 L64.0042 670.727 L64.0042 676.743 Q64.0042 683.522 61.4897 686.101 Q58.9434 688.679 52.2594 688.679 L32.9077 688.679 L32.9077 692.976 L28.3562 692.976 L28.3562 688.679 L18.2347 688.679 L18.2347 682.79 Z" fill="#000000" fill-rule="nonzero" fill-opacity="1" /><path clip-path="url(#clip820)" d="M14.5426 663.948 L14.5426 658.855 Q22.0542 654.081 29.2474 651.726 Q36.4406 649.339 43.5384 649.339 Q50.668 649.339 57.8931 651.726 Q65.1182 654.081 72.5979 658.855 L72.5979 663.948 Q65.3091 659.715 58.1159 657.646 Q50.8908 655.545 43.5384 655.545 Q36.186 655.545 29.0246 657.646 Q21.8632 659.715 14.5426 663.948 Z" fill="#000000" fill-rule="nonzero" fill-opacity="1" /><path clip-path="url(#clip821)" d="M365.682 1406.31 L365.682 1423.18 L414.93 1423.18 L414.93 1406.31 L365.682 1406.31 L365.682 1406.31  Z" fill="#009af9" fill-rule="evenodd" fill-opacity="1"/>
<polyline clip-path="url(#clip821)" style="stroke:#000000; stroke-linecap:round; stroke-linejoin:round; stroke-width:4; stroke-opacity:1; fill:none" points="365.682,1406.31 365.682,1423.18 414.93,1423.18 414.93,1406.31 365.682,1406.31 "/>
<path clip-path="url(#clip821)" d="M414.93 1363.36 L414.93 1423.18 L464.178 1423.18 L464.178 1363.36 L414.93 1363.36 L414.93 1363.36  Z" fill="#009af9" fill-rule="evenodd" fill-opacity="1"/>
<polyline clip-path="url(#clip821)" style="stroke:#000000; stroke-linecap:round; stroke-linejoin:round; stroke-width:4; stroke-opacity:1; fill:none" points="414.93,1363.36 414.93,1423.18 464.178,1423.18 464.178,1363.36 414.93,1363.36 "/>
<path clip-path="url(#clip821)" d="M464.178 1219.17 L464.178 1423.18 L513.426 1423.18 L513.426 1219.17 L464.178 1219.17 L464.178 1219.17  Z" fill="#009af9" fill-rule="evenodd" fill-opacity="1"/>
<polyline clip-path="url(#clip821)" style="stroke:#000000; stroke-linecap:round; stroke-linejoin:round; stroke-width:4; stroke-opacity:1; fill:none" points="464.178,1219.17 464.178,1423.18 513.426,1423.18 513.426,1219.17 464.178,1219.17 "/>
<path clip-path="url(#clip821)" d="M513.426 982.942 L513.426 1423.18 L562.674 1423.18 L562.674 982.942 L513.426 982.942 L513.426 982.942  Z" fill="#009af9" fill-rule="evenodd" fill-opacity="1"/>
<polyline clip-path="url(#clip821)" style="stroke:#000000; stroke-linecap:round; stroke-linejoin:round; stroke-width:4; stroke-opacity:1; fill:none" points="513.426,982.942 513.426,1423.18 562.674,1423.18 562.674,982.942 513.426,982.942 "/>
<path clip-path="url(#clip821)" d="M562.674 803.472 L562.674 1423.18 L611.921 1423.18 L611.921 803.472 L562.674 803.472 L562.674 803.472  Z" fill="#009af9" fill-rule="evenodd" fill-opacity="1"/>
<polyline clip-path="url(#clip821)" style="stroke:#000000; stroke-linecap:round; stroke-linejoin:round; stroke-width:4; stroke-opacity:1; fill:none" points="562.674,803.472 562.674,1423.18 611.921,1423.18 611.921,803.472 562.674,803.472 "/>
<path clip-path="url(#clip821)" d="M611.921 522.763 L611.921 1423.18 L661.169 1423.18 L661.169 522.763 L611.921 522.763 L611.921 522.763  Z" fill="#009af9" fill-rule="evenodd" fill-opacity="1"/>
<polyline clip-path="url(#clip821)" style="stroke:#000000; stroke-linecap:round; stroke-linejoin:round; stroke-width:4; stroke-opacity:1; fill:none" points="611.921,522.763 611.921,1423.18 661.169,1423.18 661.169,522.763 611.921,522.763 "/>
<path clip-path="url(#clip821)" d="M661.169 332.555 L661.169 1423.18 L710.417 1423.18 L710.417 332.555 L661.169 332.555 L661.169 332.555  Z" fill="#009af9" fill-rule="evenodd" fill-opacity="1"/>
<polyline clip-path="url(#clip821)" style="stroke:#000000; stroke-linecap:round; stroke-linejoin:round; stroke-width:4; stroke-opacity:1; fill:none" points="661.169,332.555 661.169,1423.18 710.417,1423.18 710.417,332.555 661.169,332.555 "/>
<path clip-path="url(#clip821)" d="M710.417 194.501 L710.417 1423.18 L759.665 1423.18 L759.665 194.501 L710.417 194.501 L710.417 194.501  Z" fill="#009af9" fill-rule="evenodd" fill-opacity="1"/>
<polyline clip-path="url(#clip821)" style="stroke:#000000; stroke-linecap:round; stroke-linejoin:round; stroke-width:4; stroke-opacity:1; fill:none" points="710.417,194.501 710.417,1423.18 759.665,1423.18 759.665,194.501 710.417,194.501 "/>
<path clip-path="url(#clip821)" d="M759.665 51.8459 L759.665 1423.18 L808.913 1423.18 L808.913 51.8459 L759.665 51.8459 L759.665 51.8459  Z" fill="#009af9" fill-rule="evenodd" fill-opacity="1"/>
<polyline clip-path="url(#clip821)" style="stroke:#000000; stroke-linecap:round; stroke-linejoin:round; stroke-width:4; stroke-opacity:1; fill:none" points="759.665,51.8459 759.665,1423.18 808.913,1423.18 808.913,51.8459 759.665,51.8459 "/>
<path clip-path="url(#clip821)" d="M808.913 47.2441 L808.913 1423.18 L858.161 1423.18 L858.161 47.2441 L808.913 47.2441 L808.913 47.2441  Z" fill="#009af9" fill-rule="evenodd" fill-opacity="1"/>
<polyline clip-path="url(#clip821)" style="stroke:#000000; stroke-linecap:round; stroke-linejoin:round; stroke-width:4; stroke-opacity:1; fill:none" points="808.913,47.2441 808.913,1423.18 858.161,1423.18 858.161,47.2441 808.913,47.2441 "/>
<path clip-path="url(#clip821)" d="M858.161 120.873 L858.161 1423.18 L907.409 1423.18 L907.409 120.873 L858.161 120.873 L858.161 120.873  Z" fill="#009af9" fill-rule="evenodd" fill-opacity="1"/>
<polyline clip-path="url(#clip821)" style="stroke:#000000; stroke-linecap:round; stroke-linejoin:round; stroke-width:4; stroke-opacity:1; fill:none" points="858.161,120.873 858.161,1423.18 907.409,1423.18 907.409,120.873 858.161,120.873 "/>
<path clip-path="url(#clip821)" d="M907.409 308.012 L907.409 1423.18 L956.657 1423.18 L956.657 308.012 L907.409 308.012 L907.409 308.012  Z" fill="#009af9" fill-rule="evenodd" fill-opacity="1"/>
<polyline clip-path="url(#clip821)" style="stroke:#000000; stroke-linecap:round; stroke-linejoin:round; stroke-width:4; stroke-opacity:1; fill:none" points="907.409,308.012 907.409,1423.18 956.657,1423.18 956.657,308.012 907.409,308.012 "/>
<path clip-path="url(#clip821)" d="M956.657 352.496 L956.657 1423.18 L1005.9 1423.18 L1005.9 352.496 L956.657 352.496 L956.657 352.496  Z" fill="#009af9" fill-rule="evenodd" fill-opacity="1"/>
<polyline clip-path="url(#clip821)" style="stroke:#000000; stroke-linecap:round; stroke-linejoin:round; stroke-width:4; stroke-opacity:1; fill:none" points="956.657,352.496 956.657,1423.18 1005.9,1423.18 1005.9,352.496 956.657,352.496 "/>
<path clip-path="url(#clip821)" d="M1005.9 531.966 L1005.9 1423.18 L1055.15 1423.18 L1055.15 531.966 L1005.9 531.966 L1005.9 531.966  Z" fill="#009af9" fill-rule="evenodd" fill-opacity="1"/>
<polyline clip-path="url(#clip821)" style="stroke:#000000; stroke-linecap:round; stroke-linejoin:round; stroke-width:4; stroke-opacity:1; fill:none" points="1005.9,531.966 1005.9,1423.18 1055.15,1423.18 1055.15,531.966 1005.9,531.966 "/>
<path clip-path="url(#clip821)" d="M1055.15 656.215 L1055.15 1423.18 L1104.4 1423.18 L1104.4 656.215 L1055.15 656.215 L1055.15 656.215  Z" fill="#009af9" fill-rule="evenodd" fill-opacity="1"/>
<polyline clip-path="url(#clip821)" style="stroke:#000000; stroke-linecap:round; stroke-linejoin:round; stroke-width:4; stroke-opacity:1; fill:none" points="1055.15,656.215 1055.15,1423.18 1104.4,1423.18 1104.4,656.215 1055.15,656.215 "/>
<path clip-path="url(#clip821)" d="M1104.4 838.752 L1104.4 1423.18 L1153.65 1423.18 L1153.65 838.752 L1104.4 838.752 L1104.4 838.752  Z" fill="#009af9" fill-rule="evenodd" fill-opacity="1"/>
<polyline clip-path="url(#clip821)" style="stroke:#000000; stroke-linecap:round; stroke-linejoin:round; stroke-width:4; stroke-opacity:1; fill:none" points="1104.4,838.752 1104.4,1423.18 1153.65,1423.18 1153.65,838.752 1104.4,838.752 "/>
<path clip-path="url(#clip821)" d="M1153.65 901.643 L1153.65 1423.18 L1202.9 1423.18 L1202.9 901.643 L1153.65 901.643 L1153.65 901.643  Z" fill="#009af9" fill-rule="evenodd" fill-opacity="1"/>
<polyline clip-path="url(#clip821)" style="stroke:#000000; stroke-linecap:round; stroke-linejoin:round; stroke-width:4; stroke-opacity:1; fill:none" points="1153.65,901.643 1153.65,1423.18 1202.9,1423.18 1202.9,901.643 1153.65,901.643 "/>
<path clip-path="url(#clip821)" d="M1202.9 1001.35 L1202.9 1423.18 L1252.14 1423.18 L1252.14 1001.35 L1202.9 1001.35 L1202.9 1001.35  Z" fill="#009af9" fill-rule="evenodd" fill-opacity="1"/>
<polyline clip-path="url(#clip821)" style="stroke:#000000; stroke-linecap:round; stroke-linejoin:round; stroke-width:4; stroke-opacity:1; fill:none" points="1202.9,1001.35 1202.9,1423.18 1252.14,1423.18 1252.14,1001.35 1202.9,1001.35 "/>
<path clip-path="url(#clip821)" d="M1252.14 1099.52 L1252.14 1423.18 L1301.39 1423.18 L1301.39 1099.52 L1252.14 1099.52 L1252.14 1099.52  Z" fill="#009af9" fill-rule="evenodd" fill-opacity="1"/>
<polyline clip-path="url(#clip821)" style="stroke:#000000; stroke-linecap:round; stroke-linejoin:round; stroke-width:4; stroke-opacity:1; fill:none" points="1252.14,1099.52 1252.14,1423.18 1301.39,1423.18 1301.39,1099.52 1252.14,1099.52 "/>
<path clip-path="url(#clip821)" d="M1301.39 1167.01 L1301.39 1423.18 L1350.64 1423.18 L1350.64 1167.01 L1301.39 1167.01 L1301.39 1167.01  Z" fill="#009af9" fill-rule="evenodd" fill-opacity="1"/>
<polyline clip-path="url(#clip821)" style="stroke:#000000; stroke-linecap:round; stroke-linejoin:round; stroke-width:4; stroke-opacity:1; fill:none" points="1301.39,1167.01 1301.39,1423.18 1350.64,1423.18 1350.64,1167.01 1301.39,1167.01 "/>
<path clip-path="url(#clip821)" d="M1350.64 1203.83 L1350.64 1423.18 L1399.89 1423.18 L1399.89 1203.83 L1350.64 1203.83 L1350.64 1203.83  Z" fill="#009af9" fill-rule="evenodd" fill-opacity="1"/>
<polyline clip-path="url(#clip821)" style="stroke:#000000; stroke-linecap:round; stroke-linejoin:round; stroke-width:4; stroke-opacity:1; fill:none" points="1350.64,1203.83 1350.64,1423.18 1399.89,1423.18 1399.89,1203.83 1350.64,1203.83 "/>
<path clip-path="url(#clip821)" d="M1399.89 1263.65 L1399.89 1423.18 L1449.14 1423.18 L1449.14 1263.65 L1399.89 1263.65 L1399.89 1263.65  Z" fill="#009af9" fill-rule="evenodd" fill-opacity="1"/>
<polyline clip-path="url(#clip821)" style="stroke:#000000; stroke-linecap:round; stroke-linejoin:round; stroke-width:4; stroke-opacity:1; fill:none" points="1399.89,1263.65 1399.89,1423.18 1449.14,1423.18 1449.14,1263.65 1399.89,1263.65 "/>
<path clip-path="url(#clip821)" d="M1449.14 1291.26 L1449.14 1423.18 L1498.38 1423.18 L1498.38 1291.26 L1449.14 1291.26 L1449.14 1291.26  Z" fill="#009af9" fill-rule="evenodd" fill-opacity="1"/>
<polyline clip-path="url(#clip821)" style="stroke:#000000; stroke-linecap:round; stroke-linejoin:round; stroke-width:4; stroke-opacity:1; fill:none" points="1449.14,1291.26 1449.14,1423.18 1498.38,1423.18 1498.38,1291.26 1449.14,1291.26 "/>
<path clip-path="url(#clip821)" d="M1498.38 1357.22 L1498.38 1423.18 L1547.63 1423.18 L1547.63 1357.22 L1498.38 1357.22 L1498.38 1357.22  Z" fill="#009af9" fill-rule="evenodd" fill-opacity="1"/>
<polyline clip-path="url(#clip821)" style="stroke:#000000; stroke-linecap:round; stroke-linejoin:round; stroke-width:4; stroke-opacity:1; fill:none" points="1498.38,1357.22 1498.38,1423.18 1547.63,1423.18 1547.63,1357.22 1498.38,1357.22 "/>
<path clip-path="url(#clip821)" d="M1547.63 1371.03 L1547.63 1423.18 L1596.88 1423.18 L1596.88 1371.03 L1547.63 1371.03 L1547.63 1371.03  Z" fill="#009af9" fill-rule="evenodd" fill-opacity="1"/>
<polyline clip-path="url(#clip821)" style="stroke:#000000; stroke-linecap:round; stroke-linejoin:round; stroke-width:4; stroke-opacity:1; fill:none" points="1547.63,1371.03 1547.63,1423.18 1596.88,1423.18 1596.88,1371.03 1547.63,1371.03 "/>
<path clip-path="url(#clip821)" d="M1596.88 1371.03 L1596.88 1423.18 L1646.13 1423.18 L1646.13 1371.03 L1596.88 1371.03 L1596.88 1371.03  Z" fill="#009af9" fill-rule="evenodd" fill-opacity="1"/>
<polyline clip-path="url(#clip821)" style="stroke:#000000; stroke-linecap:round; stroke-linejoin:round; stroke-width:4; stroke-opacity:1; fill:none" points="1596.88,1371.03 1596.88,1423.18 1646.13,1423.18 1646.13,1371.03 1596.88,1371.03 "/>
<path clip-path="url(#clip821)" d="M1646.13 1398.64 L1646.13 1423.18 L1695.38 1423.18 L1695.38 1398.64 L1646.13 1398.64 L1646.13 1398.64  Z" fill="#009af9" fill-rule="evenodd" fill-opacity="1"/>
<polyline clip-path="url(#clip821)" style="stroke:#000000; stroke-linecap:round; stroke-linejoin:round; stroke-width:4; stroke-opacity:1; fill:none" points="1646.13,1398.64 1646.13,1423.18 1695.38,1423.18 1695.38,1398.64 1646.13,1398.64 "/>
<path clip-path="url(#clip821)" d="M1695.38 1398.64 L1695.38 1423.18 L1744.62 1423.18 L1744.62 1398.64 L1695.38 1398.64 L1695.38 1398.64  Z" fill="#009af9" fill-rule="evenodd" fill-opacity="1"/>
<polyline clip-path="url(#clip821)" style="stroke:#000000; stroke-linecap:round; stroke-linejoin:round; stroke-width:4; stroke-opacity:1; fill:none" points="1695.38,1398.64 1695.38,1423.18 1744.62,1423.18 1744.62,1398.64 1695.38,1398.64 "/>
<path clip-path="url(#clip821)" d="M1744.62 1400.17 L1744.62 1423.18 L1793.87 1423.18 L1793.87 1400.17 L1744.62 1400.17 L1744.62 1400.17  Z" fill="#009af9" fill-rule="evenodd" fill-opacity="1"/>
<polyline clip-path="url(#clip821)" style="stroke:#000000; stroke-linecap:round; stroke-linejoin:round; stroke-width:4; stroke-opacity:1; fill:none" points="1744.62,1400.17 1744.62,1423.18 1793.87,1423.18 1793.87,1400.17 1744.62,1400.17 "/>
<path clip-path="url(#clip821)" d="M1793.87 1420.11 L1793.87 1423.18 L1843.12 1423.18 L1843.12 1420.11 L1793.87 1420.11 L1793.87 1420.11  Z" fill="#009af9" fill-rule="evenodd" fill-opacity="1"/>
<polyline clip-path="url(#clip821)" style="stroke:#000000; stroke-linecap:round; stroke-linejoin:round; stroke-width:4; stroke-opacity:1; fill:none" points="1793.87,1420.11 1793.87,1423.18 1843.12,1423.18 1843.12,1420.11 1793.87,1420.11 "/>
<path clip-path="url(#clip821)" d="M1843.12 1417.04 L1843.12 1423.18 L1892.37 1423.18 L1892.37 1417.04 L1843.12 1417.04 L1843.12 1417.04  Z" fill="#009af9" fill-rule="evenodd" fill-opacity="1"/>
<polyline clip-path="url(#clip821)" style="stroke:#000000; stroke-linecap:round; stroke-linejoin:round; stroke-width:4; stroke-opacity:1; fill:none" points="1843.12,1417.04 1843.12,1423.18 1892.37,1423.18 1892.37,1417.04 1843.12,1417.04 "/>
<path clip-path="url(#clip821)" d="M1892.37 1413.98 L1892.37 1423.18 L1941.61 1423.18 L1941.61 1413.98 L1892.37 1413.98 L1892.37 1413.98  Z" fill="#009af9" fill-rule="evenodd" fill-opacity="1"/>
<polyline clip-path="url(#clip821)" style="stroke:#000000; stroke-linecap:round; stroke-linejoin:round; stroke-width:4; stroke-opacity:1; fill:none" points="1892.37,1413.98 1892.37,1423.18 1941.61,1423.18 1941.61,1413.98 1892.37,1413.98 "/>
<path clip-path="url(#clip821)" d="M1941.61 1423.18 L1941.61 1423.18 L1990.86 1423.18 L1990.86 1423.18 L1941.61 1423.18 L1941.61 1423.18  Z" fill="#009af9" fill-rule="evenodd" fill-opacity="1"/>
<polyline clip-path="url(#clip821)" style="stroke:#000000; stroke-linecap:round; stroke-linejoin:round; stroke-width:4; stroke-opacity:1; fill:none" points="1941.61,1423.18 1941.61,1423.18 1990.86,1423.18 1941.61,1423.18 "/>
<path clip-path="url(#clip821)" d="M1990.86 1420.11 L1990.86 1423.18 L2040.11 1423.18 L2040.11 1420.11 L1990.86 1420.11 L1990.86 1420.11  Z" fill="#009af9" fill-rule="evenodd" fill-opacity="1"/>
<polyline clip-path="url(#clip821)" style="stroke:#000000; stroke-linecap:round; stroke-linejoin:round; stroke-width:4; stroke-opacity:1; fill:none" points="1990.86,1420.11 1990.86,1423.18 2040.11,1423.18 2040.11,1420.11 1990.86,1420.11 "/>
<path clip-path="url(#clip821)" d="M2040.11 1423.18 L2040.11 1423.18 L2089.36 1423.18 L2089.36 1423.18 L2040.11 1423.18 L2040.11 1423.18  Z" fill="#009af9" fill-rule="evenodd" fill-opacity="1"/>
<polyline clip-path="url(#clip821)" style="stroke:#000000; stroke-linecap:round; stroke-linejoin:round; stroke-width:4; stroke-opacity:1; fill:none" points="2040.11,1423.18 2040.11,1423.18 2089.36,1423.18 2040.11,1423.18 "/>
<path clip-path="url(#clip821)" d="M2089.36 1423.18 L2089.36 1423.18 L2138.61 1423.18 L2138.61 1423.18 L2089.36 1423.18 L2089.36 1423.18  Z" fill="#009af9" fill-rule="evenodd" fill-opacity="1"/>
<polyline clip-path="url(#clip821)" style="stroke:#000000; stroke-linecap:round; stroke-linejoin:round; stroke-width:4; stroke-opacity:1; fill:none" points="2089.36,1423.18 2089.36,1423.18 2138.61,1423.18 2089.36,1423.18 "/>
<path clip-path="url(#clip821)" d="M2138.61 1421.65 L2138.61 1423.18 L2187.85 1423.18 L2187.85 1421.65 L2138.61 1421.65 L2138.61 1421.65  Z" fill="#009af9" fill-rule="evenodd" fill-opacity="1"/>
<polyline clip-path="url(#clip821)" style="stroke:#000000; stroke-linecap:round; stroke-linejoin:round; stroke-width:4; stroke-opacity:1; fill:none" points="2138.61,1421.65 2138.61,1423.18 2187.85,1423.18 2187.85,1421.65 2138.61,1421.65 "/>
<path clip-path="url(#clip821)" d="M2187.85 1421.65 L2187.85 1423.18 L2237.1 1423.18 L2237.1 1421.65 L2187.85 1421.65 L2187.85 1421.65  Z" fill="#009af9" fill-rule="evenodd" fill-opacity="1"/>
<polyline clip-path="url(#clip821)" style="stroke:#000000; stroke-linecap:round; stroke-linejoin:round; stroke-width:4; stroke-opacity:1; fill:none" points="2187.85,1421.65 2187.85,1423.18 2237.1,1423.18 2237.1,1421.65 2187.85,1421.65 "/>
<circle clip-path="url(#clip821)" style="fill:#009af9; stroke:none; fill-opacity:0" cx="390.306" cy="1406.31" r="2"/>
<circle clip-path="url(#clip821)" style="fill:#009af9; stroke:none; fill-opacity:0" cx="439.554" cy="1363.36" r="2"/>
<circle clip-path="url(#clip821)" style="fill:#009af9; stroke:none; fill-opacity:0" cx="488.802" cy="1219.17" r="2"/>
<circle clip-path="url(#clip821)" style="fill:#009af9; stroke:none; fill-opacity:0" cx="538.05" cy="982.942" r="2"/>
<circle clip-path="url(#clip821)" style="fill:#009af9; stroke:none; fill-opacity:0" cx="587.297" cy="803.472" r="2"/>
<circle clip-path="url(#clip821)" style="fill:#009af9; stroke:none; fill-opacity:0" cx="636.545" cy="522.763" r="2"/>
<circle clip-path="url(#clip821)" style="fill:#009af9; stroke:none; fill-opacity:0" cx="685.793" cy="332.555" r="2"/>
<circle clip-path="url(#clip821)" style="fill:#009af9; stroke:none; fill-opacity:0" cx="735.041" cy="194.501" r="2"/>
<circle clip-path="url(#clip821)" style="fill:#009af9; stroke:none; fill-opacity:0" cx="784.289" cy="51.8459" r="2"/>
<circle clip-path="url(#clip821)" style="fill:#009af9; stroke:none; fill-opacity:0" cx="833.537" cy="47.2441" r="2"/>
<circle clip-path="url(#clip821)" style="fill:#009af9; stroke:none; fill-opacity:0" cx="882.785" cy="120.873" r="2"/>
<circle clip-path="url(#clip821)" style="fill:#009af9; stroke:none; fill-opacity:0" cx="932.033" cy="308.012" r="2"/>
<circle clip-path="url(#clip821)" style="fill:#009af9; stroke:none; fill-opacity:0" cx="981.281" cy="352.496" r="2"/>
<circle clip-path="url(#clip821)" style="fill:#009af9; stroke:none; fill-opacity:0" cx="1030.53" cy="531.966" r="2"/>
<circle clip-path="url(#clip821)" style="fill:#009af9; stroke:none; fill-opacity:0" cx="1079.78" cy="656.215" r="2"/>
<circle clip-path="url(#clip821)" style="fill:#009af9; stroke:none; fill-opacity:0" cx="1129.02" cy="838.752" r="2"/>
<circle clip-path="url(#clip821)" style="fill:#009af9; stroke:none; fill-opacity:0" cx="1178.27" cy="901.643" r="2"/>
<circle clip-path="url(#clip821)" style="fill:#009af9; stroke:none; fill-opacity:0" cx="1227.52" cy="1001.35" r="2"/>
<circle clip-path="url(#clip821)" style="fill:#009af9; stroke:none; fill-opacity:0" cx="1276.77" cy="1099.52" r="2"/>
<circle clip-path="url(#clip821)" style="fill:#009af9; stroke:none; fill-opacity:0" cx="1326.02" cy="1167.01" r="2"/>
<circle clip-path="url(#clip821)" style="fill:#009af9; stroke:none; fill-opacity:0" cx="1375.26" cy="1203.83" r="2"/>
<circle clip-path="url(#clip821)" style="fill:#009af9; stroke:none; fill-opacity:0" cx="1424.51" cy="1263.65" r="2"/>
<circle clip-path="url(#clip821)" style="fill:#009af9; stroke:none; fill-opacity:0" cx="1473.76" cy="1291.26" r="2"/>
<circle clip-path="url(#clip821)" style="fill:#009af9; stroke:none; fill-opacity:0" cx="1523.01" cy="1357.22" r="2"/>
<circle clip-path="url(#clip821)" style="fill:#009af9; stroke:none; fill-opacity:0" cx="1572.26" cy="1371.03" r="2"/>
<circle clip-path="url(#clip821)" style="fill:#009af9; stroke:none; fill-opacity:0" cx="1621.5" cy="1371.03" r="2"/>
<circle clip-path="url(#clip821)" style="fill:#009af9; stroke:none; fill-opacity:0" cx="1670.75" cy="1398.64" r="2"/>
<circle clip-path="url(#clip821)" style="fill:#009af9; stroke:none; fill-opacity:0" cx="1720" cy="1398.64" r="2"/>
<circle clip-path="url(#clip821)" style="fill:#009af9; stroke:none; fill-opacity:0" cx="1769.25" cy="1400.17" r="2"/>
<circle clip-path="url(#clip821)" style="fill:#009af9; stroke:none; fill-opacity:0" cx="1818.49" cy="1420.11" r="2"/>
<circle clip-path="url(#clip821)" style="fill:#009af9; stroke:none; fill-opacity:0" cx="1867.74" cy="1417.04" r="2"/>
<circle clip-path="url(#clip821)" style="fill:#009af9; stroke:none; fill-opacity:0" cx="1916.99" cy="1413.98" r="2"/>
<circle clip-path="url(#clip821)" style="fill:#009af9; stroke:none; fill-opacity:0" cx="1966.24" cy="1423.18" r="2"/>
<circle clip-path="url(#clip821)" style="fill:#009af9; stroke:none; fill-opacity:0" cx="2015.49" cy="1420.11" r="2"/>
<circle clip-path="url(#clip821)" style="fill:#009af9; stroke:none; fill-opacity:0" cx="2064.73" cy="1423.18" r="2"/>
<circle clip-path="url(#clip821)" style="fill:#009af9; stroke:none; fill-opacity:0" cx="2113.98" cy="1423.18" r="2"/>
<circle clip-path="url(#clip821)" style="fill:#009af9; stroke:none; fill-opacity:0" cx="2163.23" cy="1421.65" r="2"/>
<circle clip-path="url(#clip821)" style="fill:#009af9; stroke:none; fill-opacity:0" cx="2212.48" cy="1421.65" r="2"/>
<polyline clip-path="url(#clip821)" style="stroke:#e26f46; stroke-linecap:round; stroke-linejoin:round; stroke-width:16; stroke-opacity:1; fill:none" points="321.359,1423.18 340.224,1423.14 359.089,1422.55 377.954,1419.93 396.819,1412.95 415.684,1398.94 434.549,1375.4 453.414,1340.42 472.279,1292.92 491.144,1232.74 510.009,1160.62 528.874,1078.05 547.739,987.122 566.604,890.319 585.469,790.329 604.334,689.875 623.199,591.56 642.064,497.764 660.929,410.555 679.794,331.642 698.659,262.351 717.524,203.626 736.389,156.039 755.254,119.826 774.119,94.9205 792.984,80.9989 811.849,77.5251 830.714,83.7953 849.579,98.9816 868.444,122.171 887.309,152.401 906.174,188.692 925.039,230.069 943.904,275.589 962.769,324.352 981.634,375.516 1000.5,428.309 1019.36,482.029 1038.23,536.049 1057.09,589.821 1075.96,642.87 1094.82,694.793 1113.69,745.256 1132.55,793.986 1151.42,840.773 1170.28,885.455 1189.15,927.919 1208.01,968.095 1226.88,1005.95 1245.74,1041.47 1264.61,1074.69 1283.47,1105.65 1302.34,1134.4 1321.2,1161.04 1340.07,1185.63 1358.93,1208.29 1377.8,1229.1 1396.66,1248.17 1415.53,1265.61 1434.39,1281.52 1453.26,1296 1472.12,1309.16 1490.99,1321.1 1509.85,1331.9 1528.72,1341.66 1547.58,1350.47 1566.45,1358.4 1585.31,1365.53 1604.18,1371.94 1623.04,1377.68 1641.91,1382.82 1660.77,1387.41 1679.64,1391.52 1698.5,1395.17 1717.37,1398.43 1736.23,1401.33 1755.1,1403.91 1773.96,1406.2 1792.83,1408.23 1811.69,1410.02 1830.56,1411.62 1849.42,1413.02 1868.29,1414.26 1887.15,1415.36 1906.02,1416.32 1924.88,1417.18 1943.75,1417.92 1962.61,1418.58 1981.48,1419.16 2000.34,1419.67 2019.21,1420.12 2038.07,1420.51 2056.94,1420.85 2075.8,1421.15 2094.67,1421.41 2113.53,1421.64 2132.4,1421.84 2151.26,1422.02 2170.13,1422.17 2188.99,1422.3 "/>
<path clip-path="url(#clip820)" d="M2019.96 248.629 L2282.66 248.629 L2282.66 93.1086 L2019.96 93.1086  Z" fill="#ffffff" fill-rule="evenodd" fill-opacity="1"/>
<polyline clip-path="url(#clip820)" style="stroke:#000000; stroke-linecap:round; stroke-linejoin:round; stroke-width:4; stroke-opacity:1; fill:none" points="2019.96,248.629 2282.66,248.629 2282.66,93.1086 2019.96,93.1086 2019.96,248.629 "/>
<path clip-path="url(#clip820)" d="M2043.33 165.685 L2183.51 165.685 L2183.51 124.213 L2043.33 124.213 L2043.33 165.685  Z" fill="#009af9" fill-rule="evenodd" fill-opacity="1"/>
<polyline clip-path="url(#clip820)" style="stroke:#000000; stroke-linecap:round; stroke-linejoin:round; stroke-width:4; stroke-opacity:1; fill:none" points="2043.33,165.685 2183.51,165.685 2183.51,124.213 2043.33,124.213 2043.33,165.685 "/>
<path clip-path="url(#clip820)" d="M2220.71 164.636 Q2218.91 169.266 2217.2 170.678 Q2215.48 172.09 2212.61 172.09 L2209.21 172.09 L2209.21 168.525 L2211.71 168.525 Q2213.47 168.525 2214.44 167.692 Q2215.41 166.858 2216.59 163.756 L2217.36 161.812 L2206.87 136.303 L2211.38 136.303 L2219.49 156.581 L2227.59 136.303 L2232.1 136.303 L2220.71 164.636 Z" fill="#000000" fill-rule="nonzero" fill-opacity="1" /><path clip-path="url(#clip820)" d="M2239.39 158.293 L2247.03 158.293 L2247.03 131.928 L2238.72 133.595 L2238.72 129.335 L2246.99 127.669 L2251.66 127.669 L2251.66 158.293 L2259.3 158.293 L2259.3 162.229 L2239.39 162.229 L2239.39 158.293 Z" fill="#000000" fill-rule="nonzero" fill-opacity="1" /><polyline clip-path="url(#clip820)" style="stroke:#e26f46; stroke-linecap:round; stroke-linejoin:round; stroke-width:16; stroke-opacity:1; fill:none" points="2043.33,196.789 2183.51,196.789 "/>
<path clip-path="url(#clip820)" d="M2220.71 216.476 Q2218.91 221.106 2217.2 222.518 Q2215.48 223.93 2212.61 223.93 L2209.21 223.93 L2209.21 220.365 L2211.71 220.365 Q2213.47 220.365 2214.44 219.532 Q2215.41 218.698 2216.59 215.596 L2217.36 213.652 L2206.87 188.143 L2211.38 188.143 L2219.49 208.421 L2227.59 188.143 L2232.1 188.143 L2220.71 216.476 Z" fill="#000000" fill-rule="nonzero" fill-opacity="1" /><path clip-path="url(#clip820)" d="M2242.61 210.133 L2258.93 210.133 L2258.93 214.069 L2236.99 214.069 L2236.99 210.133 Q2239.65 207.379 2244.23 202.749 Q2248.84 198.096 2250.02 196.754 Q2252.26 194.231 2253.14 192.495 Q2254.05 190.735 2254.05 189.046 Q2254.05 186.291 2252.1 184.555 Q2250.18 182.819 2247.08 182.819 Q2244.88 182.819 2242.43 183.583 Q2240 184.347 2237.22 185.897 L2237.22 181.175 Q2240.04 180.041 2242.5 179.462 Q2244.95 178.884 2246.99 178.884 Q2252.36 178.884 2255.55 181.569 Q2258.75 184.254 2258.75 188.745 Q2258.75 190.874 2257.94 192.796 Q2257.15 194.694 2255.04 197.286 Q2254.46 197.958 2251.36 201.175 Q2248.26 204.37 2242.61 210.133 Z" fill="#000000" fill-rule="nonzero" fill-opacity="1" /></svg>
