<?xml version="1.0" encoding="utf-8"?>
<svg xmlns="http://www.w3.org/2000/svg" xmlns:xlink="http://www.w3.org/1999/xlink" width="600" height="400" viewBox="0 0 2400 1600">
<defs>
  <clipPath id="clip460">
    <rect x="0" y="0" width="2400" height="1600"/>
  </clipPath>
</defs>
<path clip-path="url(#clip460)" d="M0 1600 L2400 1600 L2400 0 L0 0  Z" fill="#ffffff" fill-rule="evenodd" fill-opacity="1"/>
<defs>
  <clipPath id="clip461">
    <rect x="250" y="47" width="2104" height="1377"/>
  </clipPath>
</defs>
<path clip-path="url(#clip460)" d="M250.028 1423.18 L2352.76 1423.18 L2352.76 47.2441 L250.028 47.2441  Z" fill="#ffffff" fill-rule="evenodd" fill-opacity="1"/>
<polyline clip-path="url(#clip461)" style="stroke:#000000; stroke-linecap:round; stroke-linejoin:round; stroke-width:2; stroke-opacity:0.1; fill:none" points="317.697,1423.18 317.697,47.2441 "/>
<polyline clip-path="url(#clip461)" style="stroke:#000000; stroke-linecap:round; stroke-linejoin:round; stroke-width:2; stroke-opacity:0.1; fill:none" points="797.548,1423.18 797.548,47.2441 "/>
<polyline clip-path="url(#clip461)" style="stroke:#000000; stroke-linecap:round; stroke-linejoin:round; stroke-width:2; stroke-opacity:0.1; fill:none" points="1277.4,1423.18 1277.4,47.2441 "/>
<polyline clip-path="url(#clip461)" style="stroke:#000000; stroke-linecap:round; stroke-linejoin:round; stroke-width:2; stroke-opacity:0.1; fill:none" points="1757.25,1423.18 1757.25,47.2441 "/>
<polyline clip-path="url(#clip461)" style="stroke:#000000; stroke-linecap:round; stroke-linejoin:round; stroke-width:2; stroke-opacity:0.1; fill:none" points="2237.1,1423.18 2237.1,47.2441 "/>
<polyline clip-path="url(#clip461)" style="stroke:#000000; stroke-linecap:round; stroke-linejoin:round; stroke-width:2; stroke-opacity:0.1; fill:none" points="250.028,1423.18 2352.76,1423.18 "/>
<polyline clip-path="url(#clip461)" style="stroke:#000000; stroke-linecap:round; stroke-linejoin:round; stroke-width:2; stroke-opacity:0.1; fill:none" points="250.028,1110.47 2352.76,1110.47 "/>
<polyline clip-path="url(#clip461)" style="stroke:#000000; stroke-linecap:round; stroke-linejoin:round; stroke-width:2; stroke-opacity:0.1; fill:none" points="250.028,797.755 2352.76,797.755 "/>
<polyline clip-path="url(#clip461)" style="stroke:#000000; stroke-linecap:round; stroke-linejoin:round; stroke-width:2; stroke-opacity:0.1; fill:none" points="250.028,485.042 2352.76,485.042 "/>
<polyline clip-path="url(#clip461)" style="stroke:#000000; stroke-linecap:round; stroke-linejoin:round; stroke-width:2; stroke-opacity:0.1; fill:none" points="250.028,172.329 2352.76,172.329 "/>
<polyline clip-path="url(#clip460)" style="stroke:#000000; stroke-linecap:round; stroke-linejoin:round; stroke-width:4; stroke-opacity:1; fill:none" points="250.028,1423.18 2352.76,1423.18 "/>
<polyline clip-path="url(#clip460)" style="stroke:#000000; stroke-linecap:round; stroke-linejoin:round; stroke-width:4; stroke-opacity:1; fill:none" points="317.697,1423.18 317.697,1404.28 "/>
<polyline clip-path="url(#clip460)" style="stroke:#000000; stroke-linecap:round; stroke-linejoin:round; stroke-width:4; stroke-opacity:1; fill:none" points="797.548,1423.18 797.548,1404.28 "/>
<polyline clip-path="url(#clip460)" style="stroke:#000000; stroke-linecap:round; stroke-linejoin:round; stroke-width:4; stroke-opacity:1; fill:none" points="1277.4,1423.18 1277.4,1404.28 "/>
<polyline clip-path="url(#clip460)" style="stroke:#000000; stroke-linecap:round; stroke-linejoin:round; stroke-width:4; stroke-opacity:1; fill:none" points="1757.25,1423.18 1757.25,1404.28 "/>
<polyline clip-path="url(#clip460)" style="stroke:#000000; stroke-linecap:round; stroke-linejoin:round; stroke-width:4; stroke-opacity:1; fill:none" points="2237.1,1423.18 2237.1,1404.28 "/>
<path clip-path="url(#clip460)" d="M317.697 1454.1 Q314.086 1454.1 312.257 1457.66 Q310.451 1461.2 310.451 1468.33 Q310.451 1475.44 312.257 1479.01 Q314.086 1482.55 317.697 1482.55 Q321.331 1482.55 323.137 1479.01 Q324.965 1475.44 324.965 1468.33 Q324.965 1461.2 323.137 1457.66 Q321.331 1454.1 317.697 1454.1 M317.697 1450.39 Q323.507 1450.39 326.562 1455 Q329.641 1459.58 329.641 1468.33 Q329.641 1477.06 326.562 1481.67 Q323.507 1486.25 317.697 1486.25 Q311.887 1486.25 308.808 1481.67 Q305.752 1477.06 305.752 1468.33 Q305.752 1459.58 308.808 1455 Q311.887 1450.39 317.697 1450.39 Z" fill="#000000" fill-rule="nonzero" fill-opacity="1" /><path clip-path="url(#clip460)" d="M772.236 1481.64 L779.875 1481.64 L779.875 1455.28 L771.564 1456.95 L771.564 1452.69 L779.828 1451.02 L784.504 1451.02 L784.504 1481.64 L792.143 1481.64 L792.143 1485.58 L772.236 1485.58 L772.236 1481.64 Z" fill="#000000" fill-rule="nonzero" fill-opacity="1" /><path clip-path="url(#clip460)" d="M811.587 1454.1 Q807.976 1454.1 806.148 1457.66 Q804.342 1461.2 804.342 1468.33 Q804.342 1475.44 806.148 1479.01 Q807.976 1482.55 811.587 1482.55 Q815.222 1482.55 817.027 1479.01 Q818.856 1475.44 818.856 1468.33 Q818.856 1461.2 817.027 1457.66 Q815.222 1454.1 811.587 1454.1 M811.587 1450.39 Q817.398 1450.39 820.453 1455 Q823.532 1459.58 823.532 1468.33 Q823.532 1477.06 820.453 1481.67 Q817.398 1486.25 811.587 1486.25 Q805.777 1486.25 802.699 1481.67 Q799.643 1477.06 799.643 1468.33 Q799.643 1459.58 802.699 1455 Q805.777 1450.39 811.587 1450.39 Z" fill="#000000" fill-rule="nonzero" fill-opacity="1" /><path clip-path="url(#clip460)" d="M1256.17 1481.64 L1272.49 1481.64 L1272.49 1485.58 L1250.55 1485.58 L1250.55 1481.64 Q1253.21 1478.89 1257.79 1474.26 Q1262.4 1469.61 1263.58 1468.27 Q1265.83 1465.74 1266.71 1464.01 Q1267.61 1462.25 1267.61 1460.56 Q1267.61 1457.8 1265.66 1456.07 Q1263.74 1454.33 1260.64 1454.33 Q1258.44 1454.33 1255.99 1455.09 Q1253.56 1455.86 1250.78 1457.41 L1250.78 1452.69 Q1253.6 1451.55 1256.06 1450.97 Q1258.51 1450.39 1260.55 1450.39 Q1265.92 1450.39 1269.11 1453.08 Q1272.31 1455.77 1272.31 1460.26 Q1272.31 1462.39 1271.5 1464.31 Q1270.71 1466.2 1268.6 1468.8 Q1268.02 1469.47 1264.92 1472.69 Q1261.82 1475.88 1256.17 1481.64 Z" fill="#000000" fill-rule="nonzero" fill-opacity="1" /><path clip-path="url(#clip460)" d="M1292.31 1454.1 Q1288.7 1454.1 1286.87 1457.66 Q1285.06 1461.2 1285.06 1468.33 Q1285.06 1475.44 1286.87 1479.01 Q1288.7 1482.55 1292.31 1482.55 Q1295.94 1482.55 1297.75 1479.01 Q1299.58 1475.44 1299.58 1468.33 Q1299.58 1461.2 1297.75 1457.66 Q1295.94 1454.1 1292.31 1454.1 M1292.31 1450.39 Q1298.12 1450.39 1301.17 1455 Q1304.25 1459.58 1304.25 1468.33 Q1304.25 1477.06 1301.17 1481.67 Q1298.12 1486.25 1292.31 1486.25 Q1286.5 1486.25 1283.42 1481.67 Q1280.36 1477.06 1280.36 1468.33 Q1280.36 1459.58 1283.42 1455 Q1286.5 1450.39 1292.31 1450.39 Z" fill="#000000" fill-rule="nonzero" fill-opacity="1" /><path clip-path="url(#clip460)" d="M1746.09 1466.95 Q1749.45 1467.66 1751.32 1469.93 Q1753.22 1472.2 1753.22 1475.53 Q1753.22 1480.65 1749.7 1483.45 Q1746.19 1486.25 1739.7 1486.25 Q1737.53 1486.25 1735.21 1485.81 Q1732.92 1485.39 1730.47 1484.54 L1730.47 1480.02 Q1732.41 1481.16 1734.73 1481.74 Q1737.04 1482.32 1739.57 1482.32 Q1743.96 1482.32 1746.26 1480.58 Q1748.57 1478.84 1748.57 1475.53 Q1748.57 1472.48 1746.42 1470.77 Q1744.29 1469.03 1740.47 1469.03 L1736.44 1469.03 L1736.44 1465.19 L1740.65 1465.19 Q1744.1 1465.19 1745.93 1463.82 Q1747.76 1462.43 1747.76 1459.84 Q1747.76 1457.18 1745.86 1455.77 Q1743.99 1454.33 1740.47 1454.33 Q1738.55 1454.33 1736.35 1454.75 Q1734.15 1455.16 1731.51 1456.04 L1731.51 1451.88 Q1734.17 1451.14 1736.49 1450.77 Q1738.82 1450.39 1740.89 1450.39 Q1746.21 1450.39 1749.31 1452.83 Q1752.41 1455.23 1752.41 1459.35 Q1752.41 1462.22 1750.77 1464.21 Q1749.13 1466.18 1746.09 1466.95 Z" fill="#000000" fill-rule="nonzero" fill-opacity="1" /><path clip-path="url(#clip460)" d="M1772.09 1454.1 Q1768.48 1454.1 1766.65 1457.66 Q1764.84 1461.2 1764.84 1468.33 Q1764.84 1475.44 1766.65 1479.01 Q1768.48 1482.55 1772.09 1482.55 Q1775.72 1482.55 1777.53 1479.01 Q1779.36 1475.44 1779.36 1468.33 Q1779.36 1461.2 1777.53 1457.66 Q1775.72 1454.1 1772.09 1454.1 M1772.09 1450.39 Q1777.9 1450.39 1780.95 1455 Q1784.03 1459.58 1784.03 1468.33 Q1784.03 1477.06 1780.95 1481.67 Q1777.9 1486.25 1772.09 1486.25 Q1766.28 1486.25 1763.2 1481.67 Q1760.14 1477.06 1760.14 1468.33 Q1760.14 1459.58 1763.2 1455 Q1766.28 1450.39 1772.09 1450.39 Z" fill="#000000" fill-rule="nonzero" fill-opacity="1" /><path clip-path="url(#clip460)" d="M2225.27 1455.09 L2213.47 1473.54 L2225.27 1473.54 L2225.27 1455.09 M2224.05 1451.02 L2229.93 1451.02 L2229.93 1473.54 L2234.86 1473.54 L2234.86 1477.43 L2229.93 1477.43 L2229.93 1485.58 L2225.27 1485.58 L2225.27 1477.43 L2209.67 1477.43 L2209.67 1472.92 L2224.05 1451.02 Z" fill="#000000" fill-rule="nonzero" fill-opacity="1" /><path clip-path="url(#clip460)" d="M2252.59 1454.1 Q2248.98 1454.1 2247.15 1457.66 Q2245.34 1461.2 2245.34 1468.33 Q2245.34 1475.44 2247.15 1479.01 Q2248.98 1482.55 2252.59 1482.55 Q2256.22 1482.55 2258.03 1479.01 Q2259.86 1475.44 2259.86 1468.33 Q2259.86 1461.2 2258.03 1457.66 Q2256.22 1454.1 2252.59 1454.1 M2252.59 1450.39 Q2258.4 1450.39 2261.45 1455 Q2264.53 1459.58 2264.53 1468.33 Q2264.53 1477.06 2261.45 1481.67 Q2258.4 1486.25 2252.59 1486.25 Q2246.78 1486.25 2243.7 1481.67 Q2240.64 1477.06 2240.64 1468.33 Q2240.64 1459.58 2243.7 1455 Q2246.78 1450.39 2252.59 1450.39 Z" fill="#000000" fill-rule="nonzero" fill-opacity="1" /><path clip-path="url(#clip460)" d="M1300.45 1522.27 L1300.45 1532.4 L1312.52 1532.4 L1312.52 1536.95 L1300.45 1536.95 L1300.45 1556.3 Q1300.45 1560.66 1301.63 1561.9 Q1302.84 1563.14 1306.5 1563.14 L1312.52 1563.14 L1312.52 1568.04 L1306.5 1568.04 Q1299.72 1568.04 1297.14 1565.53 Q1294.56 1562.98 1294.56 1556.3 L1294.56 1536.95 L1290.27 1536.95 L1290.27 1532.4 L1294.56 1532.4 L1294.56 1522.27 L1300.45 1522.27 Z" fill="#000000" fill-rule="nonzero" fill-opacity="1" /><polyline clip-path="url(#clip460)" style="stroke:#000000; stroke-linecap:round; stroke-linejoin:round; stroke-width:4; stroke-opacity:1; fill:none" points="250.028,1423.18 250.028,47.2441 "/>
<polyline clip-path="url(#clip460)" style="stroke:#000000; stroke-linecap:round; stroke-linejoin:round; stroke-width:4; stroke-opacity:1; fill:none" points="250.028,1423.18 268.926,1423.18 "/>
<polyline clip-path="url(#clip460)" style="stroke:#000000; stroke-linecap:round; stroke-linejoin:round; stroke-width:4; stroke-opacity:1; fill:none" points="250.028,1110.47 268.926,1110.47 "/>
<polyline clip-path="url(#clip460)" style="stroke:#000000; stroke-linecap:round; stroke-linejoin:round; stroke-width:4; stroke-opacity:1; fill:none" points="250.028,797.755 268.926,797.755 "/>
<polyline clip-path="url(#clip460)" style="stroke:#000000; stroke-linecap:round; stroke-linejoin:round; stroke-width:4; stroke-opacity:1; fill:none" points="250.028,485.042 268.926,485.042 "/>
<polyline clip-path="url(#clip460)" style="stroke:#000000; stroke-linecap:round; stroke-linejoin:round; stroke-width:4; stroke-opacity:1; fill:none" points="250.028,172.329 268.926,172.329 "/>
<path clip-path="url(#clip460)" d="M126.691 1408.98 Q123.08 1408.98 121.251 1412.54 Q119.445 1416.08 119.445 1423.21 Q119.445 1430.32 121.251 1433.89 Q123.08 1437.43 126.691 1437.43 Q130.325 1437.43 132.13 1433.89 Q133.959 1430.32 133.959 1423.21 Q133.959 1416.08 132.13 1412.54 Q130.325 1408.98 126.691 1408.98 M126.691 1405.27 Q132.501 1405.27 135.556 1409.88 Q138.635 1414.46 138.635 1423.21 Q138.635 1431.94 135.556 1436.55 Q132.501 1441.13 126.691 1441.13 Q120.88 1441.13 117.802 1436.55 Q114.746 1431.94 114.746 1423.21 Q114.746 1414.46 117.802 1409.88 Q120.88 1405.27 126.691 1405.27 Z" fill="#000000" fill-rule="nonzero" fill-opacity="1" /><path clip-path="url(#clip460)" d="M146.853 1434.58 L151.737 1434.58 L151.737 1440.46 L146.853 1440.46 L146.853 1434.58 Z" fill="#000000" fill-rule="nonzero" fill-opacity="1" /><path clip-path="url(#clip460)" d="M171.922 1408.98 Q168.311 1408.98 166.482 1412.54 Q164.677 1416.08 164.677 1423.21 Q164.677 1430.32 166.482 1433.89 Q168.311 1437.43 171.922 1437.43 Q175.556 1437.43 177.362 1433.89 Q179.19 1430.32 179.19 1423.21 Q179.19 1416.08 177.362 1412.54 Q175.556 1408.98 171.922 1408.98 M171.922 1405.27 Q177.732 1405.27 180.788 1409.88 Q183.866 1414.46 183.866 1423.21 Q183.866 1431.94 180.788 1436.55 Q177.732 1441.13 171.922 1441.13 Q166.112 1441.13 163.033 1436.55 Q159.978 1431.94 159.978 1423.21 Q159.978 1414.46 163.033 1409.88 Q166.112 1405.27 171.922 1405.27 Z" fill="#000000" fill-rule="nonzero" fill-opacity="1" /><path clip-path="url(#clip460)" d="M202.084 1408.98 Q198.473 1408.98 196.644 1412.54 Q194.838 1416.08 194.838 1423.21 Q194.838 1430.32 196.644 1433.89 Q198.473 1437.43 202.084 1437.43 Q205.718 1437.43 207.524 1433.89 Q209.352 1430.32 209.352 1423.21 Q209.352 1416.08 207.524 1412.54 Q205.718 1408.98 202.084 1408.98 M202.084 1405.27 Q207.894 1405.27 210.949 1409.88 Q214.028 1414.46 214.028 1423.21 Q214.028 1431.94 210.949 1436.55 Q207.894 1441.13 202.084 1441.13 Q196.274 1441.13 193.195 1436.55 Q190.139 1431.94 190.139 1423.21 Q190.139 1414.46 193.195 1409.88 Q196.274 1405.27 202.084 1405.27 Z" fill="#000000" fill-rule="nonzero" fill-opacity="1" /><path clip-path="url(#clip460)" d="M128.288 1096.27 Q124.677 1096.27 122.848 1099.83 Q121.043 1103.37 121.043 1110.5 Q121.043 1117.61 122.848 1121.17 Q124.677 1124.71 128.288 1124.71 Q131.922 1124.71 133.728 1121.17 Q135.556 1117.61 135.556 1110.5 Q135.556 1103.37 133.728 1099.83 Q131.922 1096.27 128.288 1096.27 M128.288 1092.56 Q134.098 1092.56 137.154 1097.17 Q140.232 1101.75 140.232 1110.5 Q140.232 1119.23 137.154 1123.84 Q134.098 1128.42 128.288 1128.42 Q122.478 1128.42 119.399 1123.84 Q116.343 1119.23 116.343 1110.5 Q116.343 1101.75 119.399 1097.17 Q122.478 1092.56 128.288 1092.56 Z" fill="#000000" fill-rule="nonzero" fill-opacity="1" /><path clip-path="url(#clip460)" d="M148.45 1121.87 L153.334 1121.87 L153.334 1127.75 L148.45 1127.75 L148.45 1121.87 Z" fill="#000000" fill-rule="nonzero" fill-opacity="1" /><path clip-path="url(#clip460)" d="M173.519 1096.27 Q169.908 1096.27 168.079 1099.83 Q166.274 1103.37 166.274 1110.5 Q166.274 1117.61 168.079 1121.17 Q169.908 1124.71 173.519 1124.71 Q177.153 1124.71 178.959 1121.17 Q180.788 1117.61 180.788 1110.5 Q180.788 1103.37 178.959 1099.83 Q177.153 1096.27 173.519 1096.27 M173.519 1092.56 Q179.329 1092.56 182.385 1097.17 Q185.463 1101.75 185.463 1110.5 Q185.463 1119.23 182.385 1123.84 Q179.329 1128.42 173.519 1128.42 Q167.709 1128.42 164.63 1123.84 Q161.575 1119.23 161.575 1110.5 Q161.575 1101.75 164.63 1097.17 Q167.709 1092.56 173.519 1092.56 Z" fill="#000000" fill-rule="nonzero" fill-opacity="1" /><path clip-path="url(#clip460)" d="M197.709 1123.81 L214.028 1123.81 L214.028 1127.75 L192.084 1127.75 L192.084 1123.81 Q194.746 1121.06 199.329 1116.43 Q203.936 1111.78 205.116 1110.43 Q207.362 1107.91 208.241 1106.17 Q209.144 1104.41 209.144 1102.72 Q209.144 1099.97 207.199 1098.23 Q205.278 1096.5 202.176 1096.5 Q199.977 1096.5 197.524 1097.26 Q195.093 1098.03 192.315 1099.58 L192.315 1094.85 Q195.139 1093.72 197.593 1093.14 Q200.047 1092.56 202.084 1092.56 Q207.454 1092.56 210.649 1095.25 Q213.843 1097.93 213.843 1102.42 Q213.843 1104.55 213.033 1106.47 Q212.246 1108.37 210.139 1110.96 Q209.561 1111.64 206.459 1114.85 Q203.357 1118.05 197.709 1123.81 Z" fill="#000000" fill-rule="nonzero" fill-opacity="1" /><path clip-path="url(#clip460)" d="M126.205 783.553 Q122.593 783.553 120.765 787.118 Q118.959 790.66 118.959 797.789 Q118.959 804.896 120.765 808.46 Q122.593 812.002 126.205 812.002 Q129.839 812.002 131.644 808.46 Q133.473 804.896 133.473 797.789 Q133.473 790.66 131.644 787.118 Q129.839 783.553 126.205 783.553 M126.205 779.85 Q132.015 779.85 135.07 784.456 Q138.149 789.039 138.149 797.789 Q138.149 806.516 135.07 811.122 Q132.015 815.706 126.205 815.706 Q120.394 815.706 117.316 811.122 Q114.26 806.516 114.26 797.789 Q114.26 789.039 117.316 784.456 Q120.394 779.85 126.205 779.85 Z" fill="#000000" fill-rule="nonzero" fill-opacity="1" /><path clip-path="url(#clip460)" d="M146.366 809.155 L151.251 809.155 L151.251 815.035 L146.366 815.035 L146.366 809.155 Z" fill="#000000" fill-rule="nonzero" fill-opacity="1" /><path clip-path="url(#clip460)" d="M171.436 783.553 Q167.825 783.553 165.996 787.118 Q164.19 790.66 164.19 797.789 Q164.19 804.896 165.996 808.46 Q167.825 812.002 171.436 812.002 Q175.07 812.002 176.876 808.46 Q178.704 804.896 178.704 797.789 Q178.704 790.66 176.876 787.118 Q175.07 783.553 171.436 783.553 M171.436 779.85 Q177.246 779.85 180.301 784.456 Q183.38 789.039 183.38 797.789 Q183.38 806.516 180.301 811.122 Q177.246 815.706 171.436 815.706 Q165.626 815.706 162.547 811.122 Q159.491 806.516 159.491 797.789 Q159.491 789.039 162.547 784.456 Q165.626 779.85 171.436 779.85 Z" fill="#000000" fill-rule="nonzero" fill-opacity="1" /><path clip-path="url(#clip460)" d="M204.445 784.549 L192.639 802.998 L204.445 802.998 L204.445 784.549 M203.218 780.475 L209.098 780.475 L209.098 802.998 L214.028 802.998 L214.028 806.886 L209.098 806.886 L209.098 815.035 L204.445 815.035 L204.445 806.886 L188.843 806.886 L188.843 802.373 L203.218 780.475 Z" fill="#000000" fill-rule="nonzero" fill-opacity="1" /><path clip-path="url(#clip460)" d="M126.529 470.841 Q122.918 470.841 121.089 474.405 Q119.283 477.947 119.283 485.077 Q119.283 492.183 121.089 495.748 Q122.918 499.289 126.529 499.289 Q130.163 499.289 131.968 495.748 Q133.797 492.183 133.797 485.077 Q133.797 477.947 131.968 474.405 Q130.163 470.841 126.529 470.841 M126.529 467.137 Q132.339 467.137 135.394 471.743 Q138.473 476.327 138.473 485.077 Q138.473 493.803 135.394 498.41 Q132.339 502.993 126.529 502.993 Q120.718 502.993 117.64 498.41 Q114.584 493.803 114.584 485.077 Q114.584 476.327 117.64 471.743 Q120.718 467.137 126.529 467.137 Z" fill="#000000" fill-rule="nonzero" fill-opacity="1" /><path clip-path="url(#clip460)" d="M146.691 496.442 L151.575 496.442 L151.575 502.322 L146.691 502.322 L146.691 496.442 Z" fill="#000000" fill-rule="nonzero" fill-opacity="1" /><path clip-path="url(#clip460)" d="M171.76 470.841 Q168.149 470.841 166.32 474.405 Q164.515 477.947 164.515 485.077 Q164.515 492.183 166.32 495.748 Q168.149 499.289 171.76 499.289 Q175.394 499.289 177.2 495.748 Q179.028 492.183 179.028 485.077 Q179.028 477.947 177.2 474.405 Q175.394 470.841 171.76 470.841 M171.76 467.137 Q177.57 467.137 180.626 471.743 Q183.704 476.327 183.704 485.077 Q183.704 493.803 180.626 498.41 Q177.57 502.993 171.76 502.993 Q165.95 502.993 162.871 498.41 Q159.815 493.803 159.815 485.077 Q159.815 476.327 162.871 471.743 Q165.95 467.137 171.76 467.137 Z" fill="#000000" fill-rule="nonzero" fill-opacity="1" /><path clip-path="url(#clip460)" d="M202.5 483.178 Q199.352 483.178 197.5 485.331 Q195.672 487.484 195.672 491.234 Q195.672 494.961 197.5 497.137 Q199.352 499.289 202.5 499.289 Q205.649 499.289 207.477 497.137 Q209.329 494.961 209.329 491.234 Q209.329 487.484 207.477 485.331 Q205.649 483.178 202.5 483.178 M211.783 468.526 L211.783 472.785 Q210.024 471.952 208.218 471.512 Q206.436 471.072 204.676 471.072 Q200.047 471.072 197.593 474.197 Q195.163 477.322 194.815 483.641 Q196.181 481.627 198.241 480.563 Q200.301 479.475 202.778 479.475 Q207.987 479.475 210.996 482.646 Q214.028 485.794 214.028 491.234 Q214.028 496.558 210.88 499.776 Q207.732 502.993 202.5 502.993 Q196.505 502.993 193.334 498.41 Q190.163 493.803 190.163 485.077 Q190.163 476.882 194.051 472.021 Q197.94 467.137 204.491 467.137 Q206.25 467.137 208.033 467.484 Q209.838 467.831 211.783 468.526 Z" fill="#000000" fill-rule="nonzero" fill-opacity="1" /><path clip-path="url(#clip460)" d="M126.783 158.128 Q123.172 158.128 121.343 161.693 Q119.538 165.234 119.538 172.364 Q119.538 179.47 121.343 183.035 Q123.172 186.577 126.783 186.577 Q130.417 186.577 132.223 183.035 Q134.052 179.47 134.052 172.364 Q134.052 165.234 132.223 161.693 Q130.417 158.128 126.783 158.128 M126.783 154.424 Q132.593 154.424 135.649 159.031 Q138.728 163.614 138.728 172.364 Q138.728 181.091 135.649 185.697 Q132.593 190.28 126.783 190.28 Q120.973 190.28 117.894 185.697 Q114.839 181.091 114.839 172.364 Q114.839 163.614 117.894 159.031 Q120.973 154.424 126.783 154.424 Z" fill="#000000" fill-rule="nonzero" fill-opacity="1" /><path clip-path="url(#clip460)" d="M146.945 183.73 L151.829 183.73 L151.829 189.609 L146.945 189.609 L146.945 183.73 Z" fill="#000000" fill-rule="nonzero" fill-opacity="1" /><path clip-path="url(#clip460)" d="M172.014 158.128 Q168.403 158.128 166.575 161.693 Q164.769 165.234 164.769 172.364 Q164.769 179.47 166.575 183.035 Q168.403 186.577 172.014 186.577 Q175.649 186.577 177.454 183.035 Q179.283 179.47 179.283 172.364 Q179.283 165.234 177.454 161.693 Q175.649 158.128 172.014 158.128 M172.014 154.424 Q177.825 154.424 180.88 159.031 Q183.959 163.614 183.959 172.364 Q183.959 181.091 180.88 185.697 Q177.825 190.28 172.014 190.28 Q166.204 190.28 163.126 185.697 Q160.07 181.091 160.07 172.364 Q160.07 163.614 163.126 159.031 Q166.204 154.424 172.014 154.424 Z" fill="#000000" fill-rule="nonzero" fill-opacity="1" /><path clip-path="url(#clip460)" d="M202.176 173.197 Q198.843 173.197 196.922 174.98 Q195.024 176.762 195.024 179.887 Q195.024 183.012 196.922 184.794 Q198.843 186.577 202.176 186.577 Q205.51 186.577 207.431 184.794 Q209.352 182.989 209.352 179.887 Q209.352 176.762 207.431 174.98 Q205.533 173.197 202.176 173.197 M197.5 171.206 Q194.491 170.466 192.801 168.406 Q191.135 166.345 191.135 163.382 Q191.135 159.239 194.075 156.832 Q197.037 154.424 202.176 154.424 Q207.338 154.424 210.278 156.832 Q213.218 159.239 213.218 163.382 Q213.218 166.345 211.528 168.406 Q209.861 170.466 206.875 171.206 Q210.255 171.994 212.13 174.285 Q214.028 176.577 214.028 179.887 Q214.028 184.91 210.949 187.595 Q207.894 190.28 202.176 190.28 Q196.459 190.28 193.38 187.595 Q190.325 184.91 190.325 179.887 Q190.325 176.577 192.223 174.285 Q194.121 171.994 197.5 171.206 M195.787 163.822 Q195.787 166.507 197.454 168.012 Q199.144 169.517 202.176 169.517 Q205.186 169.517 206.875 168.012 Q208.588 166.507 208.588 163.822 Q208.588 161.137 206.875 159.632 Q205.186 158.128 202.176 158.128 Q199.144 158.128 197.454 159.632 Q195.787 161.137 195.787 163.822 Z" fill="#000000" fill-rule="nonzero" fill-opacity="1" /><path clip-path="url(#clip460)" d="M33.8307 800.206 Q33.2578 801.193 33.0032 802.37 Q32.7167 803.516 32.7167 804.916 Q32.7167 809.882 35.9632 812.555 Q39.1779 815.197 45.2253 815.197 L64.0042 815.197 L64.0042 821.085 L28.3562 821.085 L28.3562 815.197 L33.8944 815.197 Q30.6479 813.351 29.0883 810.391 Q27.4968 807.431 27.4968 803.198 Q27.4968 802.593 27.5923 801.861 Q27.656 801.129 27.8151 800.238 L33.8307 800.206 Z" fill="#000000" fill-rule="nonzero" fill-opacity="1" /><path clip-path="url(#clip460)" d="M42.4881 765.576 L64.0042 765.576 L64.0042 771.433 L42.679 771.433 Q37.6183 771.433 35.1038 773.406 Q32.5894 775.38 32.5894 779.326 Q32.5894 784.069 35.6131 786.806 Q38.6368 789.543 43.8567 789.543 L64.0042 789.543 L64.0042 795.432 L14.479 795.432 L14.479 789.543 L33.8944 789.543 Q30.6797 787.443 29.0883 784.61 Q27.4968 781.745 27.4968 778.021 Q27.4968 771.878 31.3163 768.727 Q35.1038 765.576 42.4881 765.576 Z" fill="#000000" fill-rule="nonzero" fill-opacity="1" /><path clip-path="url(#clip460)" d="M32.4621 740.082 Q32.4621 744.792 36.1542 747.53 Q39.8145 750.267 46.212 750.267 Q52.6095 750.267 56.3017 747.561 Q59.9619 744.824 59.9619 740.082 Q59.9619 735.403 56.2698 732.666 Q52.5777 729.928 46.212 729.928 Q39.8781 729.928 36.186 732.666 Q32.4621 735.403 32.4621 740.082 M27.4968 740.082 Q27.4968 732.443 32.4621 728.082 Q37.4273 723.722 46.212 723.722 Q54.9649 723.722 59.9619 728.082 Q64.9272 732.443 64.9272 740.082 Q64.9272 747.752 59.9619 752.113 Q54.9649 756.442 46.212 756.442 Q37.4273 756.442 32.4621 752.113 Q27.4968 747.752 27.4968 740.082 Z" fill="#000000" fill-rule="nonzero" fill-opacity="1" /><path clip-path="url(#clip460)" d="M14.5426 699.946 Q21.8632 704.211 29.0246 706.28 Q36.186 708.349 43.5384 708.349 Q50.8908 708.349 58.1159 706.28 Q65.3091 704.179 72.5979 699.946 L72.5979 705.039 Q65.1182 709.813 57.8931 712.2 Q50.668 714.555 43.5384 714.555 Q36.4406 714.555 29.2474 712.2 Q22.0542 709.845 14.5426 705.039 L14.5426 699.946 Z" fill="#000000" fill-rule="nonzero" fill-opacity="1" /><path clip-path="url(#clip460)" d="M18.2347 682.79 L28.3562 682.79 L28.3562 670.727 L32.9077 670.727 L32.9077 682.79 L52.2594 682.79 Q56.6199 682.79 57.8613 681.613 Q59.1026 680.403 59.1026 676.743 L59.1026 670.727 L64.0042 670.727 L64.0042 676.743 Q64.0042 683.522 61.4897 686.101 Q58.9434 688.679 52.2594 688.679 L32.9077 688.679 L32.9077 692.976 L28.3562 692.976 L28.3562 688.679 L18.2347 688.679 L18.2347 682.79 Z" fill="#000000" fill-rule="nonzero" fill-opacity="1" /><path clip-path="url(#clip460)" d="M14.5426 663.948 L14.5426 658.855 Q22.0542 654.081 29.2474 651.726 Q36.4406 649.339 43.5384 649.339 Q50.668 649.339 57.8931 651.726 Q65.1182 654.081 72.5979 658.855 L72.5979 663.948 Q65.3091 659.715 58.1159 657.646 Q50.8908 655.545 43.5384 655.545 Q36.186 655.545 29.0246 657.646 Q21.8632 659.715 14.5426 663.948 Z" fill="#000000" fill-rule="nonzero" fill-opacity="1" /><path clip-path="url(#clip461)" d="M365.682 1415.36 L365.682 1423.18 L413.667 1423.18 L413.667 1415.36 L365.682 1415.36 L365.682 1415.36  Z" fill="#009af9" fill-rule="evenodd" fill-opacity="1"/>
<polyline clip-path="url(#clip461)" style="stroke:#000000; stroke-linecap:round; stroke-linejoin:round; stroke-width:4; stroke-opacity:1; fill:none" points="365.682,1415.36 365.682,1423.18 413.667,1423.18 413.667,1415.36 365.682,1415.36 "/>
<path clip-path="url(#clip461)" d="M413.667 1352.82 L413.667 1423.18 L461.652 1423.18 L461.652 1352.82 L413.667 1352.82 L413.667 1352.82  Z" fill="#009af9" fill-rule="evenodd" fill-opacity="1"/>
<polyline clip-path="url(#clip461)" style="stroke:#000000; stroke-linecap:round; stroke-linejoin:round; stroke-width:4; stroke-opacity:1; fill:none" points="413.667,1352.82 413.667,1423.18 461.652,1423.18 461.652,1352.82 413.667,1352.82 "/>
<path clip-path="url(#clip461)" d="M461.652 1232.43 L461.652 1423.18 L509.637 1423.18 L509.637 1232.43 L461.652 1232.43 L461.652 1232.43  Z" fill="#009af9" fill-rule="evenodd" fill-opacity="1"/>
<polyline clip-path="url(#clip461)" style="stroke:#000000; stroke-linecap:round; stroke-linejoin:round; stroke-width:4; stroke-opacity:1; fill:none" points="461.652,1232.43 461.652,1423.18 509.637,1423.18 509.637,1232.43 461.652,1232.43 "/>
<path clip-path="url(#clip461)" d="M509.637 997.891 L509.637 1423.18 L557.622 1423.18 L557.622 997.891 L509.637 997.891 L509.637 997.891  Z" fill="#009af9" fill-rule="evenodd" fill-opacity="1"/>
<polyline clip-path="url(#clip461)" style="stroke:#000000; stroke-linecap:round; stroke-linejoin:round; stroke-width:4; stroke-opacity:1; fill:none" points="509.637,997.891 509.637,1423.18 557.622,1423.18 557.622,997.891 509.637,997.891 "/>
<path clip-path="url(#clip461)" d="M557.622 793.064 L557.622 1423.18 L605.608 1423.18 L605.608 793.064 L557.622 793.064 L557.622 793.064  Z" fill="#009af9" fill-rule="evenodd" fill-opacity="1"/>
<polyline clip-path="url(#clip461)" style="stroke:#000000; stroke-linecap:round; stroke-linejoin:round; stroke-width:4; stroke-opacity:1; fill:none" points="557.622,793.064 557.622,1423.18 605.608,1423.18 605.608,793.064 557.622,793.064 "/>
<path clip-path="url(#clip461)" d="M605.608 525.694 L605.608 1423.18 L653.593 1423.18 L653.593 525.694 L605.608 525.694 L605.608 525.694  Z" fill="#009af9" fill-rule="evenodd" fill-opacity="1"/>
<polyline clip-path="url(#clip461)" style="stroke:#000000; stroke-linecap:round; stroke-linejoin:round; stroke-width:4; stroke-opacity:1; fill:none" points="605.608,525.694 605.608,1423.18 653.593,1423.18 653.593,525.694 605.608,525.694 "/>
<path clip-path="url(#clip461)" d="M653.593 286.469 L653.593 1423.18 L701.578 1423.18 L701.578 286.469 L653.593 286.469 L653.593 286.469  Z" fill="#009af9" fill-rule="evenodd" fill-opacity="1"/>
<polyline clip-path="url(#clip461)" style="stroke:#000000; stroke-linecap:round; stroke-linejoin:round; stroke-width:4; stroke-opacity:1; fill:none" points="653.593,286.469 653.593,1423.18 701.578,1423.18 701.578,286.469 653.593,286.469 "/>
<path clip-path="url(#clip461)" d="M701.578 105.096 L701.578 1423.18 L749.563 1423.18 L749.563 105.096 L701.578 105.096 L701.578 105.096  Z" fill="#009af9" fill-rule="evenodd" fill-opacity="1"/>
<polyline clip-path="url(#clip461)" style="stroke:#000000; stroke-linecap:round; stroke-linejoin:round; stroke-width:4; stroke-opacity:1; fill:none" points="701.578,105.096 701.578,1423.18 749.563,1423.18 749.563,105.096 701.578,105.096 "/>
<path clip-path="url(#clip461)" d="M749.563 47.2441 L749.563 1423.18 L797.548 1423.18 L797.548 47.2441 L749.563 47.2441 L749.563 47.2441  Z" fill="#009af9" fill-rule="evenodd" fill-opacity="1"/>
<polyline clip-path="url(#clip461)" style="stroke:#000000; stroke-linecap:round; stroke-linejoin:round; stroke-width:4; stroke-opacity:1; fill:none" points="749.563,47.2441 749.563,1423.18 797.548,1423.18 797.548,47.2441 749.563,47.2441 "/>
<path clip-path="url(#clip461)" d="M797.548 103.532 L797.548 1423.18 L845.533 1423.18 L845.533 103.532 L797.548 103.532 L797.548 103.532  Z" fill="#009af9" fill-rule="evenodd" fill-opacity="1"/>
<polyline clip-path="url(#clip461)" style="stroke:#000000; stroke-linecap:round; stroke-linejoin:round; stroke-width:4; stroke-opacity:1; fill:none" points="797.548,103.532 797.548,1423.18 845.533,1423.18 845.533,103.532 797.548,103.532 "/>
<path clip-path="url(#clip461)" d="M845.533 100.405 L845.533 1423.18 L893.518 1423.18 L893.518 100.405 L845.533 100.405 L845.533 100.405  Z" fill="#009af9" fill-rule="evenodd" fill-opacity="1"/>
<polyline clip-path="url(#clip461)" style="stroke:#000000; stroke-linecap:round; stroke-linejoin:round; stroke-width:4; stroke-opacity:1; fill:none" points="845.533,100.405 845.533,1423.18 893.518,1423.18 893.518,100.405 845.533,100.405 "/>
<path clip-path="url(#clip461)" d="M893.518 233.308 L893.518 1423.18 L941.504 1423.18 L941.504 233.308 L893.518 233.308 L893.518 233.308  Z" fill="#009af9" fill-rule="evenodd" fill-opacity="1"/>
<polyline clip-path="url(#clip461)" style="stroke:#000000; stroke-linecap:round; stroke-linejoin:round; stroke-width:4; stroke-opacity:1; fill:none" points="893.518,233.308 893.518,1423.18 941.504,1423.18 941.504,233.308 893.518,233.308 "/>
<path clip-path="url(#clip461)" d="M941.504 377.156 L941.504 1423.18 L989.489 1423.18 L989.489 377.156 L941.504 377.156 L941.504 377.156  Z" fill="#009af9" fill-rule="evenodd" fill-opacity="1"/>
<polyline clip-path="url(#clip461)" style="stroke:#000000; stroke-linecap:round; stroke-linejoin:round; stroke-width:4; stroke-opacity:1; fill:none" points="941.504,377.156 941.504,1423.18 989.489,1423.18 989.489,377.156 941.504,377.156 "/>
<path clip-path="url(#clip461)" d="M989.489 500.677 L989.489 1423.18 L1037.47 1423.18 L1037.47 500.677 L989.489 500.677 L989.489 500.677  Z" fill="#009af9" fill-rule="evenodd" fill-opacity="1"/>
<polyline clip-path="url(#clip461)" style="stroke:#000000; stroke-linecap:round; stroke-linejoin:round; stroke-width:4; stroke-opacity:1; fill:none" points="989.489,500.677 989.489,1423.18 1037.47,1423.18 1037.47,500.677 989.489,500.677 "/>
<path clip-path="url(#clip461)" d="M1037.47 646.089 L1037.47 1423.18 L1085.46 1423.18 L1085.46 646.089 L1037.47 646.089 L1037.47 646.089  Z" fill="#009af9" fill-rule="evenodd" fill-opacity="1"/>
<polyline clip-path="url(#clip461)" style="stroke:#000000; stroke-linecap:round; stroke-linejoin:round; stroke-width:4; stroke-opacity:1; fill:none" points="1037.47,646.089 1037.47,1423.18 1085.46,1423.18 1085.46,646.089 1037.47,646.089 "/>
<path clip-path="url(#clip461)" d="M1085.46 774.301 L1085.46 1423.18 L1133.44 1423.18 L1133.44 774.301 L1085.46 774.301 L1085.46 774.301  Z" fill="#009af9" fill-rule="evenodd" fill-opacity="1"/>
<polyline clip-path="url(#clip461)" style="stroke:#000000; stroke-linecap:round; stroke-linejoin:round; stroke-width:4; stroke-opacity:1; fill:none" points="1085.46,774.301 1085.46,1423.18 1133.44,1423.18 1133.44,774.301 1085.46,774.301 "/>
<path clip-path="url(#clip461)" d="M1133.44 871.242 L1133.44 1423.18 L1181.43 1423.18 L1181.43 871.242 L1133.44 871.242 L1133.44 871.242  Z" fill="#009af9" fill-rule="evenodd" fill-opacity="1"/>
<polyline clip-path="url(#clip461)" style="stroke:#000000; stroke-linecap:round; stroke-linejoin:round; stroke-width:4; stroke-opacity:1; fill:none" points="1133.44,871.242 1133.44,1423.18 1181.43,1423.18 1181.43,871.242 1133.44,871.242 "/>
<path clip-path="url(#clip461)" d="M1181.43 974.437 L1181.43 1423.18 L1229.41 1423.18 L1229.41 974.437 L1181.43 974.437 L1181.43 974.437  Z" fill="#009af9" fill-rule="evenodd" fill-opacity="1"/>
<polyline clip-path="url(#clip461)" style="stroke:#000000; stroke-linecap:round; stroke-linejoin:round; stroke-width:4; stroke-opacity:1; fill:none" points="1181.43,974.437 1181.43,1423.18 1229.41,1423.18 1229.41,974.437 1181.43,974.437 "/>
<path clip-path="url(#clip461)" d="M1229.41 1076.07 L1229.41 1423.18 L1277.4 1423.18 L1277.4 1076.07 L1229.41 1076.07 L1229.41 1076.07  Z" fill="#009af9" fill-rule="evenodd" fill-opacity="1"/>
<polyline clip-path="url(#clip461)" style="stroke:#000000; stroke-linecap:round; stroke-linejoin:round; stroke-width:4; stroke-opacity:1; fill:none" points="1229.41,1076.07 1229.41,1423.18 1277.4,1423.18 1277.4,1076.07 1229.41,1076.07 "/>
<path clip-path="url(#clip461)" d="M1277.4 1169.88 L1277.4 1423.18 L1325.38 1423.18 L1325.38 1169.88 L1277.4 1169.88 L1277.4 1169.88  Z" fill="#009af9" fill-rule="evenodd" fill-opacity="1"/>
<polyline clip-path="url(#clip461)" style="stroke:#000000; stroke-linecap:round; stroke-linejoin:round; stroke-width:4; stroke-opacity:1; fill:none" points="1277.4,1169.88 1277.4,1423.18 1325.38,1423.18 1325.38,1169.88 1277.4,1169.88 "/>
<path clip-path="url(#clip461)" d="M1325.38 1244.93 L1325.38 1423.18 L1373.37 1423.18 L1373.37 1244.93 L1325.38 1244.93 L1325.38 1244.93  Z" fill="#009af9" fill-rule="evenodd" fill-opacity="1"/>
<polyline clip-path="url(#clip461)" style="stroke:#000000; stroke-linecap:round; stroke-linejoin:round; stroke-width:4; stroke-opacity:1; fill:none" points="1325.38,1244.93 1325.38,1423.18 1373.37,1423.18 1373.37,1244.93 1325.38,1244.93 "/>
<path clip-path="url(#clip461)" d="M1373.37 1274.64 L1373.37 1423.18 L1421.35 1423.18 L1421.35 1274.64 L1373.37 1274.64 L1373.37 1274.64  Z" fill="#009af9" fill-rule="evenodd" fill-opacity="1"/>
<polyline clip-path="url(#clip461)" style="stroke:#000000; stroke-linecap:round; stroke-linejoin:round; stroke-width:4; stroke-opacity:1; fill:none" points="1373.37,1274.64 1373.37,1423.18 1421.35,1423.18 1421.35,1274.64 1373.37,1274.64 "/>
<path clip-path="url(#clip461)" d="M1421.35 1316.86 L1421.35 1423.18 L1469.34 1423.18 L1469.34 1316.86 L1421.35 1316.86 L1421.35 1316.86  Z" fill="#009af9" fill-rule="evenodd" fill-opacity="1"/>
<polyline clip-path="url(#clip461)" style="stroke:#000000; stroke-linecap:round; stroke-linejoin:round; stroke-width:4; stroke-opacity:1; fill:none" points="1421.35,1316.86 1421.35,1423.18 1469.34,1423.18 1469.34,1316.86 1421.35,1316.86 "/>
<path clip-path="url(#clip461)" d="M1469.34 1326.24 L1469.34 1423.18 L1517.33 1423.18 L1517.33 1326.24 L1469.34 1326.24 L1469.34 1326.24  Z" fill="#009af9" fill-rule="evenodd" fill-opacity="1"/>
<polyline clip-path="url(#clip461)" style="stroke:#000000; stroke-linecap:round; stroke-linejoin:round; stroke-width:4; stroke-opacity:1; fill:none" points="1469.34,1326.24 1469.34,1423.18 1517.33,1423.18 1517.33,1326.24 1469.34,1326.24 "/>
<path clip-path="url(#clip461)" d="M1517.33 1340.31 L1517.33 1423.18 L1565.31 1423.18 L1565.31 1340.31 L1517.33 1340.31 L1517.33 1340.31  Z" fill="#009af9" fill-rule="evenodd" fill-opacity="1"/>
<polyline clip-path="url(#clip461)" style="stroke:#000000; stroke-linecap:round; stroke-linejoin:round; stroke-width:4; stroke-opacity:1; fill:none" points="1517.33,1340.31 1517.33,1423.18 1565.31,1423.18 1565.31,1340.31 1517.33,1340.31 "/>
<path clip-path="url(#clip461)" d="M1565.31 1380.96 L1565.31 1423.18 L1613.3 1423.18 L1613.3 1380.96 L1565.31 1380.96 L1565.31 1380.96  Z" fill="#009af9" fill-rule="evenodd" fill-opacity="1"/>
<polyline clip-path="url(#clip461)" style="stroke:#000000; stroke-linecap:round; stroke-linejoin:round; stroke-width:4; stroke-opacity:1; fill:none" points="1565.31,1380.96 1565.31,1423.18 1613.3,1423.18 1613.3,1380.96 1565.31,1380.96 "/>
<path clip-path="url(#clip461)" d="M1613.3 1390.35 L1613.3 1423.18 L1661.28 1423.18 L1661.28 1390.35 L1613.3 1390.35 L1613.3 1390.35  Z" fill="#009af9" fill-rule="evenodd" fill-opacity="1"/>
<polyline clip-path="url(#clip461)" style="stroke:#000000; stroke-linecap:round; stroke-linejoin:round; stroke-width:4; stroke-opacity:1; fill:none" points="1613.3,1390.35 1613.3,1423.18 1661.28,1423.18 1661.28,1390.35 1613.3,1390.35 "/>
<path clip-path="url(#clip461)" d="M1661.28 1396.6 L1661.28 1423.18 L1709.27 1423.18 L1709.27 1396.6 L1661.28 1396.6 L1661.28 1396.6  Z" fill="#009af9" fill-rule="evenodd" fill-opacity="1"/>
<polyline clip-path="url(#clip461)" style="stroke:#000000; stroke-linecap:round; stroke-linejoin:round; stroke-width:4; stroke-opacity:1; fill:none" points="1661.28,1396.6 1661.28,1423.18 1709.27,1423.18 1709.27,1396.6 1661.28,1396.6 "/>
<path clip-path="url(#clip461)" d="M1709.27 1415.36 L1709.27 1423.18 L1757.25 1423.18 L1757.25 1415.36 L1709.27 1415.36 L1709.27 1415.36  Z" fill="#009af9" fill-rule="evenodd" fill-opacity="1"/>
<polyline clip-path="url(#clip461)" style="stroke:#000000; stroke-linecap:round; stroke-linejoin:round; stroke-width:4; stroke-opacity:1; fill:none" points="1709.27,1415.36 1709.27,1423.18 1757.25,1423.18 1757.25,1415.36 1709.27,1415.36 "/>
<path clip-path="url(#clip461)" d="M1757.25 1412.23 L1757.25 1423.18 L1805.24 1423.18 L1805.24 1412.23 L1757.25 1412.23 L1757.25 1412.23  Z" fill="#009af9" fill-rule="evenodd" fill-opacity="1"/>
<polyline clip-path="url(#clip461)" style="stroke:#000000; stroke-linecap:round; stroke-linejoin:round; stroke-width:4; stroke-opacity:1; fill:none" points="1757.25,1412.23 1757.25,1423.18 1805.24,1423.18 1805.24,1412.23 1757.25,1412.23 "/>
<path clip-path="url(#clip461)" d="M1805.24 1416.93 L1805.24 1423.18 L1853.22 1423.18 L1853.22 1416.93 L1805.24 1416.93 L1805.24 1416.93  Z" fill="#009af9" fill-rule="evenodd" fill-opacity="1"/>
<polyline clip-path="url(#clip461)" style="stroke:#000000; stroke-linecap:round; stroke-linejoin:round; stroke-width:4; stroke-opacity:1; fill:none" points="1805.24,1416.93 1805.24,1423.18 1853.22,1423.18 1853.22,1416.93 1805.24,1416.93 "/>
<path clip-path="url(#clip461)" d="M1853.22 1420.05 L1853.22 1423.18 L1901.21 1423.18 L1901.21 1420.05 L1853.22 1420.05 L1853.22 1420.05  Z" fill="#009af9" fill-rule="evenodd" fill-opacity="1"/>
<polyline clip-path="url(#clip461)" style="stroke:#000000; stroke-linecap:round; stroke-linejoin:round; stroke-width:4; stroke-opacity:1; fill:none" points="1853.22,1420.05 1853.22,1423.18 1901.21,1423.18 1901.21,1420.05 1853.22,1420.05 "/>
<path clip-path="url(#clip461)" d="M1901.21 1420.05 L1901.21 1423.18 L1949.19 1423.18 L1949.19 1420.05 L1901.21 1420.05 L1901.21 1420.05  Z" fill="#009af9" fill-rule="evenodd" fill-opacity="1"/>
<polyline clip-path="url(#clip461)" style="stroke:#000000; stroke-linecap:round; stroke-linejoin:round; stroke-width:4; stroke-opacity:1; fill:none" points="1901.21,1420.05 1901.21,1423.18 1949.19,1423.18 1949.19,1420.05 1901.21,1420.05 "/>
<path clip-path="url(#clip461)" d="M1949.19 1418.49 L1949.19 1423.18 L1997.18 1423.18 L1997.18 1418.49 L1949.19 1418.49 L1949.19 1418.49  Z" fill="#009af9" fill-rule="evenodd" fill-opacity="1"/>
<polyline clip-path="url(#clip461)" style="stroke:#000000; stroke-linecap:round; stroke-linejoin:round; stroke-width:4; stroke-opacity:1; fill:none" points="1949.19,1418.49 1949.19,1423.18 1997.18,1423.18 1997.18,1418.49 1949.19,1418.49 "/>
<path clip-path="url(#clip461)" d="M1997.18 1421.62 L1997.18 1423.18 L2045.16 1423.18 L2045.16 1421.62 L1997.18 1421.62 L1997.18 1421.62  Z" fill="#009af9" fill-rule="evenodd" fill-opacity="1"/>
<polyline clip-path="url(#clip461)" style="stroke:#000000; stroke-linecap:round; stroke-linejoin:round; stroke-width:4; stroke-opacity:1; fill:none" points="1997.18,1421.62 1997.18,1423.18 2045.16,1423.18 2045.16,1421.62 1997.18,1421.62 "/>
<path clip-path="url(#clip461)" d="M2045.16 1423.18 L2045.16 1423.18 L2093.15 1423.18 L2093.15 1423.18 L2045.16 1423.18 L2045.16 1423.18  Z" fill="#009af9" fill-rule="evenodd" fill-opacity="1"/>
<polyline clip-path="url(#clip461)" style="stroke:#000000; stroke-linecap:round; stroke-linejoin:round; stroke-width:4; stroke-opacity:1; fill:none" points="2045.16,1423.18 2045.16,1423.18 2093.15,1423.18 2045.16,1423.18 "/>
<path clip-path="url(#clip461)" d="M2093.15 1423.18 L2093.15 1423.18 L2141.13 1423.18 L2141.13 1423.18 L2093.15 1423.18 L2093.15 1423.18  Z" fill="#009af9" fill-rule="evenodd" fill-opacity="1"/>
<polyline clip-path="url(#clip461)" style="stroke:#000000; stroke-linecap:round; stroke-linejoin:round; stroke-width:4; stroke-opacity:1; fill:none" points="2093.15,1423.18 2093.15,1423.18 2141.13,1423.18 2093.15,1423.18 "/>
<path clip-path="url(#clip461)" d="M2141.13 1421.62 L2141.13 1423.18 L2189.12 1423.18 L2189.12 1421.62 L2141.13 1421.62 L2141.13 1421.62  Z" fill="#009af9" fill-rule="evenodd" fill-opacity="1"/>
<polyline clip-path="url(#clip461)" style="stroke:#000000; stroke-linecap:round; stroke-linejoin:round; stroke-width:4; stroke-opacity:1; fill:none" points="2141.13,1421.62 2141.13,1423.18 2189.12,1423.18 2189.12,1421.62 2141.13,1421.62 "/>
<path clip-path="url(#clip461)" d="M2189.12 1421.62 L2189.12 1423.18 L2237.1 1423.18 L2237.1 1421.62 L2189.12 1421.62 L2189.12 1421.62  Z" fill="#009af9" fill-rule="evenodd" fill-opacity="1"/>
<polyline clip-path="url(#clip461)" style="stroke:#000000; stroke-linecap:round; stroke-linejoin:round; stroke-width:4; stroke-opacity:1; fill:none" points="2189.12,1421.62 2189.12,1423.18 2237.1,1423.18 2237.1,1421.62 2189.12,1421.62 "/>
<circle clip-path="url(#clip461)" style="fill:#009af9; stroke:none; fill-opacity:0" cx="389.674" cy="1415.36" r="2"/>
<circle clip-path="url(#clip461)" style="fill:#009af9; stroke:none; fill-opacity:0" cx="437.66" cy="1352.82" r="2"/>
<circle clip-path="url(#clip461)" style="fill:#009af9; stroke:none; fill-opacity:0" cx="485.645" cy="1232.43" r="2"/>
<circle clip-path="url(#clip461)" style="fill:#009af9; stroke:none; fill-opacity:0" cx="533.63" cy="997.891" r="2"/>
<circle clip-path="url(#clip461)" style="fill:#009af9; stroke:none; fill-opacity:0" cx="581.615" cy="793.064" r="2"/>
<circle clip-path="url(#clip461)" style="fill:#009af9; stroke:none; fill-opacity:0" cx="629.6" cy="525.694" r="2"/>
<circle clip-path="url(#clip461)" style="fill:#009af9; stroke:none; fill-opacity:0" cx="677.585" cy="286.469" r="2"/>
<circle clip-path="url(#clip461)" style="fill:#009af9; stroke:none; fill-opacity:0" cx="725.57" cy="105.096" r="2"/>
<circle clip-path="url(#clip461)" style="fill:#009af9; stroke:none; fill-opacity:0" cx="773.556" cy="47.2441" r="2"/>
<circle clip-path="url(#clip461)" style="fill:#009af9; stroke:none; fill-opacity:0" cx="821.541" cy="103.532" r="2"/>
<circle clip-path="url(#clip461)" style="fill:#009af9; stroke:none; fill-opacity:0" cx="869.526" cy="100.405" r="2"/>
<circle clip-path="url(#clip461)" style="fill:#009af9; stroke:none; fill-opacity:0" cx="917.511" cy="233.308" r="2"/>
<circle clip-path="url(#clip461)" style="fill:#009af9; stroke:none; fill-opacity:0" cx="965.496" cy="377.156" r="2"/>
<circle clip-path="url(#clip461)" style="fill:#009af9; stroke:none; fill-opacity:0" cx="1013.48" cy="500.677" r="2"/>
<circle clip-path="url(#clip461)" style="fill:#009af9; stroke:none; fill-opacity:0" cx="1061.47" cy="646.089" r="2"/>
<circle clip-path="url(#clip461)" style="fill:#009af9; stroke:none; fill-opacity:0" cx="1109.45" cy="774.301" r="2"/>
<circle clip-path="url(#clip461)" style="fill:#009af9; stroke:none; fill-opacity:0" cx="1157.44" cy="871.242" r="2"/>
<circle clip-path="url(#clip461)" style="fill:#009af9; stroke:none; fill-opacity:0" cx="1205.42" cy="974.437" r="2"/>
<circle clip-path="url(#clip461)" style="fill:#009af9; stroke:none; fill-opacity:0" cx="1253.41" cy="1076.07" r="2"/>
<circle clip-path="url(#clip461)" style="fill:#009af9; stroke:none; fill-opacity:0" cx="1301.39" cy="1169.88" r="2"/>
<circle clip-path="url(#clip461)" style="fill:#009af9; stroke:none; fill-opacity:0" cx="1349.38" cy="1244.93" r="2"/>
<circle clip-path="url(#clip461)" style="fill:#009af9; stroke:none; fill-opacity:0" cx="1397.36" cy="1274.64" r="2"/>
<circle clip-path="url(#clip461)" style="fill:#009af9; stroke:none; fill-opacity:0" cx="1445.35" cy="1316.86" r="2"/>
<circle clip-path="url(#clip461)" style="fill:#009af9; stroke:none; fill-opacity:0" cx="1493.33" cy="1326.24" r="2"/>
<circle clip-path="url(#clip461)" style="fill:#009af9; stroke:none; fill-opacity:0" cx="1541.32" cy="1340.31" r="2"/>
<circle clip-path="url(#clip461)" style="fill:#009af9; stroke:none; fill-opacity:0" cx="1589.3" cy="1380.96" r="2"/>
<circle clip-path="url(#clip461)" style="fill:#009af9; stroke:none; fill-opacity:0" cx="1637.29" cy="1390.35" r="2"/>
<circle clip-path="url(#clip461)" style="fill:#009af9; stroke:none; fill-opacity:0" cx="1685.27" cy="1396.6" r="2"/>
<circle clip-path="url(#clip461)" style="fill:#009af9; stroke:none; fill-opacity:0" cx="1733.26" cy="1415.36" r="2"/>
<circle clip-path="url(#clip461)" style="fill:#009af9; stroke:none; fill-opacity:0" cx="1781.24" cy="1412.23" r="2"/>
<circle clip-path="url(#clip461)" style="fill:#009af9; stroke:none; fill-opacity:0" cx="1829.23" cy="1416.93" r="2"/>
<circle clip-path="url(#clip461)" style="fill:#009af9; stroke:none; fill-opacity:0" cx="1877.21" cy="1420.05" r="2"/>
<circle clip-path="url(#clip461)" style="fill:#009af9; stroke:none; fill-opacity:0" cx="1925.2" cy="1420.05" r="2"/>
<circle clip-path="url(#clip461)" style="fill:#009af9; stroke:none; fill-opacity:0" cx="1973.18" cy="1418.49" r="2"/>
<circle clip-path="url(#clip461)" style="fill:#009af9; stroke:none; fill-opacity:0" cx="2021.17" cy="1421.62" r="2"/>
<circle clip-path="url(#clip461)" style="fill:#009af9; stroke:none; fill-opacity:0" cx="2069.15" cy="1423.18" r="2"/>
<circle clip-path="url(#clip461)" style="fill:#009af9; stroke:none; fill-opacity:0" cx="2117.14" cy="1423.18" r="2"/>
<circle clip-path="url(#clip461)" style="fill:#009af9; stroke:none; fill-opacity:0" cx="2165.12" cy="1421.62" r="2"/>
<circle clip-path="url(#clip461)" style="fill:#009af9; stroke:none; fill-opacity:0" cx="2213.11" cy="1421.62" r="2"/>
<polyline clip-path="url(#clip461)" style="stroke:#e26f46; stroke-linecap:round; stroke-linejoin:round; stroke-width:16; stroke-opacity:1; fill:none" points="322.495,1423.18 341.63,1423.13 360.764,1422.42 379.899,1419.28 399.033,1410.97 418.167,1394.42 437.302,1366.85 456.436,1326.27 475.571,1271.7 494.705,1203.31 513.84,1122.24 532.974,1030.52 552.108,930.763 571.243,825.963 590.377,719.25 609.512,613.698 628.646,512.158 647.78,417.146 666.915,330.767 686.049,254.67 705.184,190.045 724.318,137.636 743.453,97.7711 762.587,70.4153 781.721,55.2176 800.856,51.5703 819.99,58.6642 839.125,75.5422 858.259,101.149 877.394,134.374 896.528,174.089 915.662,219.18 934.797,268.572 953.931,321.251 973.066,376.274 992.2,432.782 1011.33,490.003 1030.47,547.259 1049.6,603.96 1068.74,659.605 1087.87,713.778 1107.01,766.139 1126.14,816.42 1145.28,864.422 1164.41,910 1183.54,953.063 1202.68,993.562 1221.81,1031.49 1240.95,1066.87 1260.08,1099.75 1279.22,1130.2 1298.35,1158.3 1317.49,1184.17 1336.62,1207.91 1355.75,1229.62 1374.89,1249.45 1394.02,1267.5 1413.16,1283.89 1432.29,1298.75 1451.43,1312.19 1470.56,1324.31 1489.69,1335.24 1508.83,1345.06 1527.96,1353.87 1547.1,1361.76 1566.23,1368.83 1585.37,1375.13 1604.5,1380.76 1623.64,1385.76 1642.77,1390.21 1661.9,1394.17 1681.04,1397.67 1700.17,1400.77 1719.31,1403.52 1738.44,1405.94 1757.58,1408.08 1776.71,1409.97 1795.85,1411.63 1814.98,1413.09 1834.11,1414.37 1853.25,1415.49 1872.38,1416.48 1891.52,1417.35 1910.65,1418.1 1929.79,1418.76 1948.92,1419.34 1968.06,1419.85 1987.19,1420.29 2006.32,1420.67 2025.46,1421.01 2044.59,1421.3 2063.73,1421.55 2082.86,1421.77 2102,1421.96 2121.13,1422.13 2140.27,1422.27 2159.4,1422.39 2178.53,1422.5 2197.67,1422.6 2216.8,1422.68 "/>
<path clip-path="url(#clip460)" d="M2019.96 248.629 L2282.66 248.629 L2282.66 93.1086 L2019.96 93.1086  Z" fill="#ffffff" fill-rule="evenodd" fill-opacity="1"/>
<polyline clip-path="url(#clip460)" style="stroke:#000000; stroke-linecap:round; stroke-linejoin:round; stroke-width:4; stroke-opacity:1; fill:none" points="2019.96,248.629 2282.66,248.629 2282.66,93.1086 2019.96,93.1086 2019.96,248.629 "/>
<path clip-path="url(#clip460)" d="M2043.33 165.685 L2183.51 165.685 L2183.51 124.213 L2043.33 124.213 L2043.33 165.685  Z" fill="#009af9" fill-rule="evenodd" fill-opacity="1"/>
<polyline clip-path="url(#clip460)" style="stroke:#000000; stroke-linecap:round; stroke-linejoin:round; stroke-width:4; stroke-opacity:1; fill:none" points="2043.33,165.685 2183.51,165.685 2183.51,124.213 2043.33,124.213 2043.33,165.685 "/>
<path clip-path="url(#clip460)" d="M2220.71 164.636 Q2218.91 169.266 2217.2 170.678 Q2215.48 172.09 2212.61 172.09 L2209.21 172.09 L2209.21 168.525 L2211.71 168.525 Q2213.47 168.525 2214.44 167.692 Q2215.41 166.858 2216.59 163.756 L2217.36 161.812 L2206.87 136.303 L2211.38 136.303 L2219.49 156.581 L2227.59 136.303 L2232.1 136.303 L2220.71 164.636 Z" fill="#000000" fill-rule="nonzero" fill-opacity="1" /><path clip-path="url(#clip460)" d="M2239.39 158.293 L2247.03 158.293 L2247.03 131.928 L2238.72 133.595 L2238.72 129.335 L2246.99 127.669 L2251.66 127.669 L2251.66 158.293 L2259.3 158.293 L2259.3 162.229 L2239.39 162.229 L2239.39 158.293 Z" fill="#000000" fill-rule="nonzero" fill-opacity="1" /><polyline clip-path="url(#clip460)" style="stroke:#e26f46; stroke-linecap:round; stroke-linejoin:round; stroke-width:16; stroke-opacity:1; fill:none" points="2043.33,196.789 2183.51,196.789 "/>
<path clip-path="url(#clip460)" d="M2220.71 216.476 Q2218.91 221.106 2217.2 222.518 Q2215.48 223.93 2212.61 223.93 L2209.21 223.93 L2209.21 220.365 L2211.71 220.365 Q2213.47 220.365 2214.44 219.532 Q2215.41 218.698 2216.59 215.596 L2217.36 213.652 L2206.87 188.143 L2211.38 188.143 L2219.49 208.421 L2227.59 188.143 L2232.1 188.143 L2220.71 216.476 Z" fill="#000000" fill-rule="nonzero" fill-opacity="1" /><path clip-path="url(#clip460)" d="M2242.61 210.133 L2258.93 210.133 L2258.93 214.069 L2236.99 214.069 L2236.99 210.133 Q2239.65 207.379 2244.23 202.749 Q2248.84 198.096 2250.02 196.754 Q2252.26 194.231 2253.14 192.495 Q2254.05 190.735 2254.05 189.046 Q2254.05 186.291 2252.1 184.555 Q2250.18 182.819 2247.08 182.819 Q2244.88 182.819 2242.43 183.583 Q2240 184.347 2237.22 185.897 L2237.22 181.175 Q2240.04 180.041 2242.5 179.462 Q2244.95 178.884 2246.99 178.884 Q2252.36 178.884 2255.55 181.569 Q2258.75 184.254 2258.75 188.745 Q2258.75 190.874 2257.94 192.796 Q2257.15 194.694 2255.04 197.286 Q2254.46 197.958 2251.36 201.175 Q2248.26 204.37 2242.61 210.133 Z" fill="#000000" fill-rule="nonzero" fill-opacity="1" /></svg>
