<?xml version="1.0" encoding="utf-8"?>
<svg xmlns="http://www.w3.org/2000/svg" xmlns:xlink="http://www.w3.org/1999/xlink" width="600" height="400" viewBox="0 0 2400 1600">
<defs>
  <clipPath id="clip620">
    <rect x="0" y="0" width="2400" height="1600"/>
  </clipPath>
</defs>
<path clip-path="url(#clip620)" d="M0 1600 L2400 1600 L2400 0 L0 0  Z" fill="#ffffff" fill-rule="evenodd" fill-opacity="1"/>
<defs>
  <clipPath id="clip621">
    <rect x="250" y="47" width="2104" height="1377"/>
  </clipPath>
</defs>
<path clip-path="url(#clip620)" d="M250.028 1423.18 L2352.76 1423.18 L2352.76 47.2441 L250.028 47.2441  Z" fill="#ffffff" fill-rule="evenodd" fill-opacity="1"/>
<polyline clip-path="url(#clip621)" style="stroke:#000000; stroke-linecap:round; stroke-linejoin:round; stroke-width:2; stroke-opacity:0.1; fill:none" points="331.656,1423.18 331.656,47.2441 "/>
<polyline clip-path="url(#clip621)" style="stroke:#000000; stroke-linecap:round; stroke-linejoin:round; stroke-width:2; stroke-opacity:0.1; fill:none" points="671.914,1423.18 671.914,47.2441 "/>
<polyline clip-path="url(#clip621)" style="stroke:#000000; stroke-linecap:round; stroke-linejoin:round; stroke-width:2; stroke-opacity:0.1; fill:none" points="1012.17,1423.18 1012.17,47.2441 "/>
<polyline clip-path="url(#clip621)" style="stroke:#000000; stroke-linecap:round; stroke-linejoin:round; stroke-width:2; stroke-opacity:0.1; fill:none" points="1352.43,1423.18 1352.43,47.2441 "/>
<polyline clip-path="url(#clip621)" style="stroke:#000000; stroke-linecap:round; stroke-linejoin:round; stroke-width:2; stroke-opacity:0.1; fill:none" points="1692.69,1423.18 1692.69,47.2441 "/>
<polyline clip-path="url(#clip621)" style="stroke:#000000; stroke-linecap:round; stroke-linejoin:round; stroke-width:2; stroke-opacity:0.1; fill:none" points="2032.95,1423.18 2032.95,47.2441 "/>
<polyline clip-path="url(#clip621)" style="stroke:#000000; stroke-linecap:round; stroke-linejoin:round; stroke-width:2; stroke-opacity:0.1; fill:none" points="250.028,1423.18 2352.76,1423.18 "/>
<polyline clip-path="url(#clip621)" style="stroke:#000000; stroke-linecap:round; stroke-linejoin:round; stroke-width:2; stroke-opacity:0.1; fill:none" points="250.028,1131.98 2352.76,1131.98 "/>
<polyline clip-path="url(#clip621)" style="stroke:#000000; stroke-linecap:round; stroke-linejoin:round; stroke-width:2; stroke-opacity:0.1; fill:none" points="250.028,840.773 2352.76,840.773 "/>
<polyline clip-path="url(#clip621)" style="stroke:#000000; stroke-linecap:round; stroke-linejoin:round; stroke-width:2; stroke-opacity:0.1; fill:none" points="250.028,549.57 2352.76,549.57 "/>
<polyline clip-path="url(#clip621)" style="stroke:#000000; stroke-linecap:round; stroke-linejoin:round; stroke-width:2; stroke-opacity:0.1; fill:none" points="250.028,258.367 2352.76,258.367 "/>
<polyline clip-path="url(#clip620)" style="stroke:#000000; stroke-linecap:round; stroke-linejoin:round; stroke-width:4; stroke-opacity:1; fill:none" points="250.028,1423.18 2352.76,1423.18 "/>
<polyline clip-path="url(#clip620)" style="stroke:#000000; stroke-linecap:round; stroke-linejoin:round; stroke-width:4; stroke-opacity:1; fill:none" points="331.656,1423.18 331.656,1404.28 "/>
<polyline clip-path="url(#clip620)" style="stroke:#000000; stroke-linecap:round; stroke-linejoin:round; stroke-width:4; stroke-opacity:1; fill:none" points="671.914,1423.18 671.914,1404.28 "/>
<polyline clip-path="url(#clip620)" style="stroke:#000000; stroke-linecap:round; stroke-linejoin:round; stroke-width:4; stroke-opacity:1; fill:none" points="1012.17,1423.18 1012.17,1404.28 "/>
<polyline clip-path="url(#clip620)" style="stroke:#000000; stroke-linecap:round; stroke-linejoin:round; stroke-width:4; stroke-opacity:1; fill:none" points="1352.43,1423.18 1352.43,1404.28 "/>
<polyline clip-path="url(#clip620)" style="stroke:#000000; stroke-linecap:round; stroke-linejoin:round; stroke-width:4; stroke-opacity:1; fill:none" points="1692.69,1423.18 1692.69,1404.28 "/>
<polyline clip-path="url(#clip620)" style="stroke:#000000; stroke-linecap:round; stroke-linejoin:round; stroke-width:4; stroke-opacity:1; fill:none" points="2032.95,1423.18 2032.95,1404.28 "/>
<path clip-path="url(#clip620)" d="M331.656 1454.1 Q328.045 1454.1 326.216 1457.66 Q324.411 1461.2 324.411 1468.33 Q324.411 1475.44 326.216 1479.01 Q328.045 1482.55 331.656 1482.55 Q335.29 1482.55 337.096 1479.01 Q338.925 1475.44 338.925 1468.33 Q338.925 1461.2 337.096 1457.66 Q335.29 1454.1 331.656 1454.1 M331.656 1450.39 Q337.466 1450.39 340.522 1455 Q343.6 1459.58 343.6 1468.33 Q343.6 1477.06 340.522 1481.67 Q337.466 1486.25 331.656 1486.25 Q325.846 1486.25 322.767 1481.67 Q319.712 1477.06 319.712 1468.33 Q319.712 1459.58 322.767 1455 Q325.846 1450.39 331.656 1450.39 Z" fill="#000000" fill-rule="nonzero" fill-opacity="1" /><path clip-path="url(#clip620)" d="M646.602 1481.64 L654.241 1481.64 L654.241 1455.28 L645.931 1456.95 L645.931 1452.69 L654.194 1451.02 L658.87 1451.02 L658.87 1481.64 L666.509 1481.64 L666.509 1485.58 L646.602 1485.58 L646.602 1481.64 Z" fill="#000000" fill-rule="nonzero" fill-opacity="1" /><path clip-path="url(#clip620)" d="M685.954 1454.1 Q682.342 1454.1 680.514 1457.66 Q678.708 1461.2 678.708 1468.33 Q678.708 1475.44 680.514 1479.01 Q682.342 1482.55 685.954 1482.55 Q689.588 1482.55 691.393 1479.01 Q693.222 1475.44 693.222 1468.33 Q693.222 1461.2 691.393 1457.66 Q689.588 1454.1 685.954 1454.1 M685.954 1450.39 Q691.764 1450.39 694.819 1455 Q697.898 1459.58 697.898 1468.33 Q697.898 1477.06 694.819 1481.67 Q691.764 1486.25 685.954 1486.25 Q680.143 1486.25 677.065 1481.67 Q674.009 1477.06 674.009 1468.33 Q674.009 1459.58 677.065 1455 Q680.143 1450.39 685.954 1450.39 Z" fill="#000000" fill-rule="nonzero" fill-opacity="1" /><path clip-path="url(#clip620)" d="M990.946 1481.64 L1007.27 1481.64 L1007.27 1485.58 L985.321 1485.58 L985.321 1481.64 Q987.983 1478.89 992.566 1474.26 Q997.173 1469.61 998.353 1468.27 Q1000.6 1465.74 1001.48 1464.01 Q1002.38 1462.25 1002.38 1460.56 Q1002.38 1457.8 1000.44 1456.07 Q998.515 1454.33 995.413 1454.33 Q993.214 1454.33 990.761 1455.09 Q988.33 1455.86 985.552 1457.41 L985.552 1452.69 Q988.376 1451.55 990.83 1450.97 Q993.284 1450.39 995.321 1450.39 Q1000.69 1450.39 1003.89 1453.08 Q1007.08 1455.77 1007.08 1460.26 Q1007.08 1462.39 1006.27 1464.31 Q1005.48 1466.2 1003.38 1468.8 Q1002.8 1469.47 999.696 1472.69 Q996.594 1475.88 990.946 1481.64 Z" fill="#000000" fill-rule="nonzero" fill-opacity="1" /><path clip-path="url(#clip620)" d="M1027.08 1454.1 Q1023.47 1454.1 1021.64 1457.66 Q1019.83 1461.2 1019.83 1468.33 Q1019.83 1475.44 1021.64 1479.01 Q1023.47 1482.55 1027.08 1482.55 Q1030.71 1482.55 1032.52 1479.01 Q1034.35 1475.44 1034.35 1468.33 Q1034.35 1461.2 1032.52 1457.66 Q1030.71 1454.1 1027.08 1454.1 M1027.08 1450.39 Q1032.89 1450.39 1035.95 1455 Q1039.02 1459.58 1039.02 1468.33 Q1039.02 1477.06 1035.95 1481.67 Q1032.89 1486.25 1027.08 1486.25 Q1021.27 1486.25 1018.19 1481.67 Q1015.14 1477.06 1015.14 1468.33 Q1015.14 1459.58 1018.19 1455 Q1021.27 1450.39 1027.08 1450.39 Z" fill="#000000" fill-rule="nonzero" fill-opacity="1" /><path clip-path="url(#clip620)" d="M1341.27 1466.95 Q1344.63 1467.66 1346.5 1469.93 Q1348.4 1472.2 1348.4 1475.53 Q1348.4 1480.65 1344.88 1483.45 Q1341.37 1486.25 1334.88 1486.25 Q1332.71 1486.25 1330.39 1485.81 Q1328.1 1485.39 1325.65 1484.54 L1325.65 1480.02 Q1327.59 1481.16 1329.91 1481.74 Q1332.22 1482.32 1334.75 1482.32 Q1339.14 1482.32 1341.44 1480.58 Q1343.75 1478.84 1343.75 1475.53 Q1343.75 1472.48 1341.6 1470.77 Q1339.47 1469.03 1335.65 1469.03 L1331.62 1469.03 L1331.62 1465.19 L1335.83 1465.19 Q1339.28 1465.19 1341.11 1463.82 Q1342.94 1462.43 1342.94 1459.84 Q1342.94 1457.18 1341.04 1455.77 Q1339.17 1454.33 1335.65 1454.33 Q1333.73 1454.33 1331.53 1454.75 Q1329.33 1455.16 1326.69 1456.04 L1326.69 1451.88 Q1329.35 1451.14 1331.67 1450.77 Q1334 1450.39 1336.07 1450.39 Q1341.39 1450.39 1344.49 1452.83 Q1347.59 1455.23 1347.59 1459.35 Q1347.59 1462.22 1345.95 1464.21 Q1344.31 1466.18 1341.27 1466.95 Z" fill="#000000" fill-rule="nonzero" fill-opacity="1" /><path clip-path="url(#clip620)" d="M1367.27 1454.1 Q1363.66 1454.1 1361.83 1457.66 Q1360.02 1461.2 1360.02 1468.33 Q1360.02 1475.44 1361.83 1479.01 Q1363.66 1482.55 1367.27 1482.55 Q1370.9 1482.55 1372.71 1479.01 Q1374.54 1475.44 1374.54 1468.33 Q1374.54 1461.2 1372.71 1457.66 Q1370.9 1454.1 1367.27 1454.1 M1367.27 1450.39 Q1373.08 1450.39 1376.13 1455 Q1379.21 1459.58 1379.21 1468.33 Q1379.21 1477.06 1376.13 1481.67 Q1373.08 1486.25 1367.27 1486.25 Q1361.46 1486.25 1358.38 1481.67 Q1355.32 1477.06 1355.32 1468.33 Q1355.32 1459.58 1358.38 1455 Q1361.46 1450.39 1367.27 1450.39 Z" fill="#000000" fill-rule="nonzero" fill-opacity="1" /><path clip-path="url(#clip620)" d="M1680.86 1455.09 L1669.05 1473.54 L1680.86 1473.54 L1680.86 1455.09 M1679.63 1451.02 L1685.51 1451.02 L1685.51 1473.54 L1690.44 1473.54 L1690.44 1477.43 L1685.51 1477.43 L1685.51 1485.58 L1680.86 1485.58 L1680.86 1477.43 L1665.26 1477.43 L1665.26 1472.92 L1679.63 1451.02 Z" fill="#000000" fill-rule="nonzero" fill-opacity="1" /><path clip-path="url(#clip620)" d="M1708.18 1454.1 Q1704.56 1454.1 1702.74 1457.66 Q1700.93 1461.2 1700.93 1468.33 Q1700.93 1475.44 1702.74 1479.01 Q1704.56 1482.55 1708.18 1482.55 Q1711.81 1482.55 1713.61 1479.01 Q1715.44 1475.44 1715.44 1468.33 Q1715.44 1461.2 1713.61 1457.66 Q1711.81 1454.1 1708.18 1454.1 M1708.18 1450.39 Q1713.99 1450.39 1717.04 1455 Q1720.12 1459.58 1720.12 1468.33 Q1720.12 1477.06 1717.04 1481.67 Q1713.99 1486.25 1708.18 1486.25 Q1702.36 1486.25 1699.29 1481.67 Q1696.23 1477.06 1696.23 1468.33 Q1696.23 1459.58 1699.29 1455 Q1702.36 1450.39 1708.18 1450.39 Z" fill="#000000" fill-rule="nonzero" fill-opacity="1" /><path clip-path="url(#clip620)" d="M2007.65 1451.02 L2026 1451.02 L2026 1454.96 L2011.93 1454.96 L2011.93 1463.43 Q2012.95 1463.08 2013.97 1462.92 Q2014.98 1462.73 2016 1462.73 Q2021.79 1462.73 2025.17 1465.9 Q2028.55 1469.08 2028.55 1474.49 Q2028.55 1480.07 2025.08 1483.17 Q2021.6 1486.25 2015.29 1486.25 Q2013.11 1486.25 2010.84 1485.88 Q2008.6 1485.51 2006.19 1484.77 L2006.19 1480.07 Q2008.27 1481.2 2010.49 1481.76 Q2012.72 1482.32 2015.19 1482.32 Q2019.2 1482.32 2021.54 1480.21 Q2023.87 1478.1 2023.87 1474.49 Q2023.87 1470.88 2021.54 1468.77 Q2019.2 1466.67 2015.19 1466.67 Q2013.32 1466.67 2011.44 1467.08 Q2009.59 1467.5 2007.65 1468.38 L2007.65 1451.02 Z" fill="#000000" fill-rule="nonzero" fill-opacity="1" /><path clip-path="url(#clip620)" d="M2047.76 1454.1 Q2044.15 1454.1 2042.32 1457.66 Q2040.52 1461.2 2040.52 1468.33 Q2040.52 1475.44 2042.32 1479.01 Q2044.15 1482.55 2047.76 1482.55 Q2051.4 1482.55 2053.2 1479.01 Q2055.03 1475.44 2055.03 1468.33 Q2055.03 1461.2 2053.2 1457.66 Q2051.4 1454.1 2047.76 1454.1 M2047.76 1450.39 Q2053.57 1450.39 2056.63 1455 Q2059.71 1459.58 2059.71 1468.33 Q2059.71 1477.06 2056.63 1481.67 Q2053.57 1486.25 2047.76 1486.25 Q2041.95 1486.25 2038.87 1481.67 Q2035.82 1477.06 2035.82 1468.33 Q2035.82 1459.58 2038.87 1455 Q2041.95 1450.39 2047.76 1450.39 Z" fill="#000000" fill-rule="nonzero" fill-opacity="1" /><path clip-path="url(#clip620)" d="M1300.45 1522.27 L1300.45 1532.4 L1312.52 1532.4 L1312.52 1536.95 L1300.45 1536.95 L1300.45 1556.3 Q1300.45 1560.66 1301.63 1561.9 Q1302.84 1563.14 1306.5 1563.14 L1312.52 1563.14 L1312.52 1568.04 L1306.5 1568.04 Q1299.72 1568.04 1297.14 1565.53 Q1294.56 1562.98 1294.56 1556.3 L1294.56 1536.95 L1290.27 1536.95 L1290.27 1532.4 L1294.56 1532.4 L1294.56 1522.27 L1300.45 1522.27 Z" fill="#000000" fill-rule="nonzero" fill-opacity="1" /><polyline clip-path="url(#clip620)" style="stroke:#000000; stroke-linecap:round; stroke-linejoin:round; stroke-width:4; stroke-opacity:1; fill:none" points="250.028,1423.18 250.028,47.2441 "/>
<polyline clip-path="url(#clip620)" style="stroke:#000000; stroke-linecap:round; stroke-linejoin:round; stroke-width:4; stroke-opacity:1; fill:none" points="250.028,1423.18 268.926,1423.18 "/>
<polyline clip-path="url(#clip620)" style="stroke:#000000; stroke-linecap:round; stroke-linejoin:round; stroke-width:4; stroke-opacity:1; fill:none" points="250.028,1131.98 268.926,1131.98 "/>
<polyline clip-path="url(#clip620)" style="stroke:#000000; stroke-linecap:round; stroke-linejoin:round; stroke-width:4; stroke-opacity:1; fill:none" points="250.028,840.773 268.926,840.773 "/>
<polyline clip-path="url(#clip620)" style="stroke:#000000; stroke-linecap:round; stroke-linejoin:round; stroke-width:4; stroke-opacity:1; fill:none" points="250.028,549.57 268.926,549.57 "/>
<polyline clip-path="url(#clip620)" style="stroke:#000000; stroke-linecap:round; stroke-linejoin:round; stroke-width:4; stroke-opacity:1; fill:none" points="250.028,258.367 268.926,258.367 "/>
<path clip-path="url(#clip620)" d="M126.691 1408.98 Q123.08 1408.98 121.251 1412.54 Q119.445 1416.08 119.445 1423.21 Q119.445 1430.32 121.251 1433.89 Q123.08 1437.43 126.691 1437.43 Q130.325 1437.43 132.13 1433.89 Q133.959 1430.32 133.959 1423.21 Q133.959 1416.08 132.13 1412.54 Q130.325 1408.98 126.691 1408.98 M126.691 1405.27 Q132.501 1405.27 135.556 1409.88 Q138.635 1414.46 138.635 1423.21 Q138.635 1431.94 135.556 1436.55 Q132.501 1441.13 126.691 1441.13 Q120.88 1441.13 117.802 1436.55 Q114.746 1431.94 114.746 1423.21 Q114.746 1414.46 117.802 1409.88 Q120.88 1405.27 126.691 1405.27 Z" fill="#000000" fill-rule="nonzero" fill-opacity="1" /><path clip-path="url(#clip620)" d="M146.853 1434.58 L151.737 1434.58 L151.737 1440.46 L146.853 1440.46 L146.853 1434.58 Z" fill="#000000" fill-rule="nonzero" fill-opacity="1" /><path clip-path="url(#clip620)" d="M171.922 1408.98 Q168.311 1408.98 166.482 1412.54 Q164.677 1416.08 164.677 1423.21 Q164.677 1430.32 166.482 1433.89 Q168.311 1437.43 171.922 1437.43 Q175.556 1437.43 177.362 1433.89 Q179.19 1430.32 179.19 1423.21 Q179.19 1416.08 177.362 1412.54 Q175.556 1408.98 171.922 1408.98 M171.922 1405.27 Q177.732 1405.27 180.788 1409.88 Q183.866 1414.46 183.866 1423.21 Q183.866 1431.94 180.788 1436.55 Q177.732 1441.13 171.922 1441.13 Q166.112 1441.13 163.033 1436.55 Q159.978 1431.94 159.978 1423.21 Q159.978 1414.46 163.033 1409.88 Q166.112 1405.27 171.922 1405.27 Z" fill="#000000" fill-rule="nonzero" fill-opacity="1" /><path clip-path="url(#clip620)" d="M202.084 1408.98 Q198.473 1408.98 196.644 1412.54 Q194.838 1416.08 194.838 1423.21 Q194.838 1430.32 196.644 1433.89 Q198.473 1437.43 202.084 1437.43 Q205.718 1437.43 207.524 1433.89 Q209.352 1430.32 209.352 1423.21 Q209.352 1416.08 207.524 1412.54 Q205.718 1408.98 202.084 1408.98 M202.084 1405.27 Q207.894 1405.27 210.949 1409.88 Q214.028 1414.46 214.028 1423.21 Q214.028 1431.94 210.949 1436.55 Q207.894 1441.13 202.084 1441.13 Q196.274 1441.13 193.195 1436.55 Q190.139 1431.94 190.139 1423.21 Q190.139 1414.46 193.195 1409.88 Q196.274 1405.27 202.084 1405.27 Z" fill="#000000" fill-rule="nonzero" fill-opacity="1" /><path clip-path="url(#clip620)" d="M128.288 1117.78 Q124.677 1117.78 122.848 1121.34 Q121.043 1124.88 121.043 1132.01 Q121.043 1139.12 122.848 1142.68 Q124.677 1146.22 128.288 1146.22 Q131.922 1146.22 133.728 1142.68 Q135.556 1139.12 135.556 1132.01 Q135.556 1124.88 133.728 1121.34 Q131.922 1117.78 128.288 1117.78 M128.288 1114.07 Q134.098 1114.07 137.154 1118.68 Q140.232 1123.26 140.232 1132.01 Q140.232 1140.74 137.154 1145.34 Q134.098 1149.93 128.288 1149.93 Q122.478 1149.93 119.399 1145.34 Q116.343 1140.74 116.343 1132.01 Q116.343 1123.26 119.399 1118.68 Q122.478 1114.07 128.288 1114.07 Z" fill="#000000" fill-rule="nonzero" fill-opacity="1" /><path clip-path="url(#clip620)" d="M148.45 1143.38 L153.334 1143.38 L153.334 1149.26 L148.45 1149.26 L148.45 1143.38 Z" fill="#000000" fill-rule="nonzero" fill-opacity="1" /><path clip-path="url(#clip620)" d="M173.519 1117.78 Q169.908 1117.78 168.079 1121.34 Q166.274 1124.88 166.274 1132.01 Q166.274 1139.12 168.079 1142.68 Q169.908 1146.22 173.519 1146.22 Q177.153 1146.22 178.959 1142.68 Q180.788 1139.12 180.788 1132.01 Q180.788 1124.88 178.959 1121.34 Q177.153 1117.78 173.519 1117.78 M173.519 1114.07 Q179.329 1114.07 182.385 1118.68 Q185.463 1123.26 185.463 1132.01 Q185.463 1140.74 182.385 1145.34 Q179.329 1149.93 173.519 1149.93 Q167.709 1149.93 164.63 1145.34 Q161.575 1140.74 161.575 1132.01 Q161.575 1123.26 164.63 1118.68 Q167.709 1114.07 173.519 1114.07 Z" fill="#000000" fill-rule="nonzero" fill-opacity="1" /><path clip-path="url(#clip620)" d="M197.709 1145.32 L214.028 1145.32 L214.028 1149.26 L192.084 1149.26 L192.084 1145.32 Q194.746 1142.57 199.329 1137.94 Q203.936 1133.28 205.116 1131.94 Q207.362 1129.42 208.241 1127.68 Q209.144 1125.92 209.144 1124.23 Q209.144 1121.48 207.199 1119.74 Q205.278 1118.01 202.176 1118.01 Q199.977 1118.01 197.524 1118.77 Q195.093 1119.53 192.315 1121.09 L192.315 1116.36 Q195.139 1115.23 197.593 1114.65 Q200.047 1114.07 202.084 1114.07 Q207.454 1114.07 210.649 1116.76 Q213.843 1119.44 213.843 1123.93 Q213.843 1126.06 213.033 1127.98 Q212.246 1129.88 210.139 1132.47 Q209.561 1133.15 206.459 1136.36 Q203.357 1139.56 197.709 1145.32 Z" fill="#000000" fill-rule="nonzero" fill-opacity="1" /><path clip-path="url(#clip620)" d="M126.205 826.572 Q122.593 826.572 120.765 830.137 Q118.959 833.678 118.959 840.808 Q118.959 847.914 120.765 851.479 Q122.593 855.021 126.205 855.021 Q129.839 855.021 131.644 851.479 Q133.473 847.914 133.473 840.808 Q133.473 833.678 131.644 830.137 Q129.839 826.572 126.205 826.572 M126.205 822.868 Q132.015 822.868 135.07 827.475 Q138.149 832.058 138.149 840.808 Q138.149 849.535 135.07 854.141 Q132.015 858.724 126.205 858.724 Q120.394 858.724 117.316 854.141 Q114.26 849.535 114.26 840.808 Q114.26 832.058 117.316 827.475 Q120.394 822.868 126.205 822.868 Z" fill="#000000" fill-rule="nonzero" fill-opacity="1" /><path clip-path="url(#clip620)" d="M146.366 852.174 L151.251 852.174 L151.251 858.053 L146.366 858.053 L146.366 852.174 Z" fill="#000000" fill-rule="nonzero" fill-opacity="1" /><path clip-path="url(#clip620)" d="M171.436 826.572 Q167.825 826.572 165.996 830.137 Q164.19 833.678 164.19 840.808 Q164.19 847.914 165.996 851.479 Q167.825 855.021 171.436 855.021 Q175.07 855.021 176.876 851.479 Q178.704 847.914 178.704 840.808 Q178.704 833.678 176.876 830.137 Q175.07 826.572 171.436 826.572 M171.436 822.868 Q177.246 822.868 180.301 827.475 Q183.38 832.058 183.38 840.808 Q183.38 849.535 180.301 854.141 Q177.246 858.724 171.436 858.724 Q165.626 858.724 162.547 854.141 Q159.491 849.535 159.491 840.808 Q159.491 832.058 162.547 827.475 Q165.626 822.868 171.436 822.868 Z" fill="#000000" fill-rule="nonzero" fill-opacity="1" /><path clip-path="url(#clip620)" d="M204.445 827.567 L192.639 846.016 L204.445 846.016 L204.445 827.567 M203.218 823.493 L209.098 823.493 L209.098 846.016 L214.028 846.016 L214.028 849.905 L209.098 849.905 L209.098 858.053 L204.445 858.053 L204.445 849.905 L188.843 849.905 L188.843 845.391 L203.218 823.493 Z" fill="#000000" fill-rule="nonzero" fill-opacity="1" /><path clip-path="url(#clip620)" d="M126.529 535.369 Q122.918 535.369 121.089 538.933 Q119.283 542.475 119.283 549.605 Q119.283 556.711 121.089 560.276 Q122.918 563.817 126.529 563.817 Q130.163 563.817 131.968 560.276 Q133.797 556.711 133.797 549.605 Q133.797 542.475 131.968 538.933 Q130.163 535.369 126.529 535.369 M126.529 531.665 Q132.339 531.665 135.394 536.271 Q138.473 540.855 138.473 549.605 Q138.473 558.331 135.394 562.938 Q132.339 567.521 126.529 567.521 Q120.718 567.521 117.64 562.938 Q114.584 558.331 114.584 549.605 Q114.584 540.855 117.64 536.271 Q120.718 531.665 126.529 531.665 Z" fill="#000000" fill-rule="nonzero" fill-opacity="1" /><path clip-path="url(#clip620)" d="M146.691 560.97 L151.575 560.97 L151.575 566.85 L146.691 566.85 L146.691 560.97 Z" fill="#000000" fill-rule="nonzero" fill-opacity="1" /><path clip-path="url(#clip620)" d="M171.76 535.369 Q168.149 535.369 166.32 538.933 Q164.515 542.475 164.515 549.605 Q164.515 556.711 166.32 560.276 Q168.149 563.817 171.76 563.817 Q175.394 563.817 177.2 560.276 Q179.028 556.711 179.028 549.605 Q179.028 542.475 177.2 538.933 Q175.394 535.369 171.76 535.369 M171.76 531.665 Q177.57 531.665 180.626 536.271 Q183.704 540.855 183.704 549.605 Q183.704 558.331 180.626 562.938 Q177.57 567.521 171.76 567.521 Q165.95 567.521 162.871 562.938 Q159.815 558.331 159.815 549.605 Q159.815 540.855 162.871 536.271 Q165.95 531.665 171.76 531.665 Z" fill="#000000" fill-rule="nonzero" fill-opacity="1" /><path clip-path="url(#clip620)" d="M202.5 547.706 Q199.352 547.706 197.5 549.859 Q195.672 552.012 195.672 555.762 Q195.672 559.489 197.5 561.665 Q199.352 563.817 202.5 563.817 Q205.649 563.817 207.477 561.665 Q209.329 559.489 209.329 555.762 Q209.329 552.012 207.477 549.859 Q205.649 547.706 202.5 547.706 M211.783 533.054 L211.783 537.313 Q210.024 536.48 208.218 536.04 Q206.436 535.6 204.676 535.6 Q200.047 535.6 197.593 538.725 Q195.163 541.85 194.815 548.169 Q196.181 546.156 198.241 545.091 Q200.301 544.003 202.778 544.003 Q207.987 544.003 210.996 547.174 Q214.028 550.322 214.028 555.762 Q214.028 561.086 210.88 564.304 Q207.732 567.521 202.5 567.521 Q196.505 567.521 193.334 562.938 Q190.163 558.331 190.163 549.605 Q190.163 541.41 194.051 536.549 Q197.94 531.665 204.491 531.665 Q206.25 531.665 208.033 532.012 Q209.838 532.359 211.783 533.054 Z" fill="#000000" fill-rule="nonzero" fill-opacity="1" /><path clip-path="url(#clip620)" d="M126.783 244.165 Q123.172 244.165 121.343 247.73 Q119.538 251.272 119.538 258.401 Q119.538 265.508 121.343 269.072 Q123.172 272.614 126.783 272.614 Q130.417 272.614 132.223 269.072 Q134.052 265.508 134.052 258.401 Q134.052 251.272 132.223 247.73 Q130.417 244.165 126.783 244.165 M126.783 240.462 Q132.593 240.462 135.649 245.068 Q138.728 249.651 138.728 258.401 Q138.728 267.128 135.649 271.734 Q132.593 276.318 126.783 276.318 Q120.973 276.318 117.894 271.734 Q114.839 267.128 114.839 258.401 Q114.839 249.651 117.894 245.068 Q120.973 240.462 126.783 240.462 Z" fill="#000000" fill-rule="nonzero" fill-opacity="1" /><path clip-path="url(#clip620)" d="M146.945 269.767 L151.829 269.767 L151.829 275.647 L146.945 275.647 L146.945 269.767 Z" fill="#000000" fill-rule="nonzero" fill-opacity="1" /><path clip-path="url(#clip620)" d="M172.014 244.165 Q168.403 244.165 166.575 247.73 Q164.769 251.272 164.769 258.401 Q164.769 265.508 166.575 269.072 Q168.403 272.614 172.014 272.614 Q175.649 272.614 177.454 269.072 Q179.283 265.508 179.283 258.401 Q179.283 251.272 177.454 247.73 Q175.649 244.165 172.014 244.165 M172.014 240.462 Q177.825 240.462 180.88 245.068 Q183.959 249.651 183.959 258.401 Q183.959 267.128 180.88 271.734 Q177.825 276.318 172.014 276.318 Q166.204 276.318 163.126 271.734 Q160.07 267.128 160.07 258.401 Q160.07 249.651 163.126 245.068 Q166.204 240.462 172.014 240.462 Z" fill="#000000" fill-rule="nonzero" fill-opacity="1" /><path clip-path="url(#clip620)" d="M202.176 259.235 Q198.843 259.235 196.922 261.017 Q195.024 262.799 195.024 265.924 Q195.024 269.049 196.922 270.832 Q198.843 272.614 202.176 272.614 Q205.51 272.614 207.431 270.832 Q209.352 269.026 209.352 265.924 Q209.352 262.799 207.431 261.017 Q205.533 259.235 202.176 259.235 M197.5 257.244 Q194.491 256.503 192.801 254.443 Q191.135 252.383 191.135 249.42 Q191.135 245.276 194.075 242.869 Q197.037 240.462 202.176 240.462 Q207.338 240.462 210.278 242.869 Q213.218 245.276 213.218 249.42 Q213.218 252.383 211.528 254.443 Q209.861 256.503 206.875 257.244 Q210.255 258.031 212.13 260.323 Q214.028 262.614 214.028 265.924 Q214.028 270.947 210.949 273.633 Q207.894 276.318 202.176 276.318 Q196.459 276.318 193.38 273.633 Q190.325 270.947 190.325 265.924 Q190.325 262.614 192.223 260.323 Q194.121 258.031 197.5 257.244 M195.787 249.86 Q195.787 252.545 197.454 254.049 Q199.144 255.554 202.176 255.554 Q205.186 255.554 206.875 254.049 Q208.588 252.545 208.588 249.86 Q208.588 247.174 206.875 245.67 Q205.186 244.165 202.176 244.165 Q199.144 244.165 197.454 245.67 Q195.787 247.174 195.787 249.86 Z" fill="#000000" fill-rule="nonzero" fill-opacity="1" /><path clip-path="url(#clip620)" d="M33.8307 800.206 Q33.2578 801.193 33.0032 802.37 Q32.7167 803.516 32.7167 804.916 Q32.7167 809.882 35.9632 812.555 Q39.1779 815.197 45.2253 815.197 L64.0042 815.197 L64.0042 821.085 L28.3562 821.085 L28.3562 815.197 L33.8944 815.197 Q30.6479 813.351 29.0883 810.391 Q27.4968 807.431 27.4968 803.198 Q27.4968 802.593 27.5923 801.861 Q27.656 801.129 27.8151 800.238 L33.8307 800.206 Z" fill="#000000" fill-rule="nonzero" fill-opacity="1" /><path clip-path="url(#clip620)" d="M42.4881 765.576 L64.0042 765.576 L64.0042 771.433 L42.679 771.433 Q37.6183 771.433 35.1038 773.406 Q32.5894 775.38 32.5894 779.326 Q32.5894 784.069 35.6131 786.806 Q38.6368 789.543 43.8567 789.543 L64.0042 789.543 L64.0042 795.432 L14.479 795.432 L14.479 789.543 L33.8944 789.543 Q30.6797 787.443 29.0883 784.61 Q27.4968 781.745 27.4968 778.021 Q27.4968 771.878 31.3163 768.727 Q35.1038 765.576 42.4881 765.576 Z" fill="#000000" fill-rule="nonzero" fill-opacity="1" /><path clip-path="url(#clip620)" d="M32.4621 740.082 Q32.4621 744.792 36.1542 747.53 Q39.8145 750.267 46.212 750.267 Q52.6095 750.267 56.3017 747.561 Q59.9619 744.824 59.9619 740.082 Q59.9619 735.403 56.2698 732.666 Q52.5777 729.928 46.212 729.928 Q39.8781 729.928 36.186 732.666 Q32.4621 735.403 32.4621 740.082 M27.4968 740.082 Q27.4968 732.443 32.4621 728.082 Q37.4273 723.722 46.212 723.722 Q54.9649 723.722 59.9619 728.082 Q64.9272 732.443 64.9272 740.082 Q64.9272 747.752 59.9619 752.113 Q54.9649 756.442 46.212 756.442 Q37.4273 756.442 32.4621 752.113 Q27.4968 747.752 27.4968 740.082 Z" fill="#000000" fill-rule="nonzero" fill-opacity="1" /><path clip-path="url(#clip620)" d="M14.5426 699.946 Q21.8632 704.211 29.0246 706.28 Q36.186 708.349 43.5384 708.349 Q50.8908 708.349 58.1159 706.28 Q65.3091 704.179 72.5979 699.946 L72.5979 705.039 Q65.1182 709.813 57.8931 712.2 Q50.668 714.555 43.5384 714.555 Q36.4406 714.555 29.2474 712.2 Q22.0542 709.845 14.5426 705.039 L14.5426 699.946 Z" fill="#000000" fill-rule="nonzero" fill-opacity="1" /><path clip-path="url(#clip620)" d="M18.2347 682.79 L28.3562 682.79 L28.3562 670.727 L32.9077 670.727 L32.9077 682.79 L52.2594 682.79 Q56.6199 682.79 57.8613 681.613 Q59.1026 680.403 59.1026 676.743 L59.1026 670.727 L64.0042 670.727 L64.0042 676.743 Q64.0042 683.522 61.4897 686.101 Q58.9434 688.679 52.2594 688.679 L32.9077 688.679 L32.9077 692.976 L28.3562 692.976 L28.3562 688.679 L18.2347 688.679 L18.2347 682.79 Z" fill="#000000" fill-rule="nonzero" fill-opacity="1" /><path clip-path="url(#clip620)" d="M14.5426 663.948 L14.5426 658.855 Q22.0542 654.081 29.2474 651.726 Q36.4406 649.339 43.5384 649.339 Q50.668 649.339 57.8931 651.726 Q65.1182 654.081 72.5979 658.855 L72.5979 663.948 Q65.3091 659.715 58.1159 657.646 Q50.8908 655.545 43.5384 655.545 Q36.186 655.545 29.0246 657.646 Q21.8632 659.715 14.5426 663.948 Z" fill="#000000" fill-rule="nonzero" fill-opacity="1" /><path clip-path="url(#clip621)" d="M365.682 1411.53 L365.682 1423.18 L399.708 1423.18 L399.708 1411.53 L365.682 1411.53 L365.682 1411.53  Z" fill="#009af9" fill-rule="evenodd" fill-opacity="1"/>
<polyline clip-path="url(#clip621)" style="stroke:#000000; stroke-linecap:round; stroke-linejoin:round; stroke-width:4; stroke-opacity:1; fill:none" points="365.682,1411.53 365.682,1423.18 399.708,1423.18 399.708,1411.53 365.682,1411.53 "/>
<path clip-path="url(#clip621)" d="M399.708 1372.22 L399.708 1423.18 L433.734 1423.18 L433.734 1372.22 L399.708 1372.22 L399.708 1372.22  Z" fill="#009af9" fill-rule="evenodd" fill-opacity="1"/>
<polyline clip-path="url(#clip621)" style="stroke:#000000; stroke-linecap:round; stroke-linejoin:round; stroke-width:4; stroke-opacity:1; fill:none" points="399.708,1372.22 399.708,1423.18 433.734,1423.18 433.734,1372.22 399.708,1372.22 "/>
<path clip-path="url(#clip621)" d="M433.734 1255.74 L433.734 1423.18 L467.759 1423.18 L467.759 1255.74 L433.734 1255.74 L433.734 1255.74  Z" fill="#009af9" fill-rule="evenodd" fill-opacity="1"/>
<polyline clip-path="url(#clip621)" style="stroke:#000000; stroke-linecap:round; stroke-linejoin:round; stroke-width:4; stroke-opacity:1; fill:none" points="433.734,1255.74 433.734,1423.18 467.759,1423.18 467.759,1255.74 433.734,1255.74 "/>
<path clip-path="url(#clip621)" d="M467.759 1075.19 L467.759 1423.18 L501.785 1423.18 L501.785 1075.19 L467.759 1075.19 L467.759 1075.19  Z" fill="#009af9" fill-rule="evenodd" fill-opacity="1"/>
<polyline clip-path="url(#clip621)" style="stroke:#000000; stroke-linecap:round; stroke-linejoin:round; stroke-width:4; stroke-opacity:1; fill:none" points="467.759,1075.19 467.759,1423.18 501.785,1423.18 501.785,1075.19 467.759,1075.19 "/>
<path clip-path="url(#clip621)" d="M501.785 872.806 L501.785 1423.18 L535.811 1423.18 L535.811 872.806 L501.785 872.806 L501.785 872.806  Z" fill="#009af9" fill-rule="evenodd" fill-opacity="1"/>
<polyline clip-path="url(#clip621)" style="stroke:#000000; stroke-linecap:round; stroke-linejoin:round; stroke-width:4; stroke-opacity:1; fill:none" points="501.785,872.806 501.785,1423.18 535.811,1423.18 535.811,872.806 501.785,872.806 "/>
<path clip-path="url(#clip621)" d="M535.811 505.889 L535.811 1423.18 L569.837 1423.18 L569.837 505.889 L535.811 505.889 L535.811 505.889  Z" fill="#009af9" fill-rule="evenodd" fill-opacity="1"/>
<polyline clip-path="url(#clip621)" style="stroke:#000000; stroke-linecap:round; stroke-linejoin:round; stroke-width:4; stroke-opacity:1; fill:none" points="535.811,505.889 535.811,1423.18 569.837,1423.18 569.837,505.889 535.811,505.889 "/>
<path clip-path="url(#clip621)" d="M569.837 438.913 L569.837 1423.18 L603.863 1423.18 L603.863 438.913 L569.837 438.913 L569.837 438.913  Z" fill="#009af9" fill-rule="evenodd" fill-opacity="1"/>
<polyline clip-path="url(#clip621)" style="stroke:#000000; stroke-linecap:round; stroke-linejoin:round; stroke-width:4; stroke-opacity:1; fill:none" points="569.837,438.913 569.837,1423.18 603.863,1423.18 603.863,438.913 569.837,438.913 "/>
<path clip-path="url(#clip621)" d="M603.863 165.181 L603.863 1423.18 L637.888 1423.18 L637.888 165.181 L603.863 165.181 L603.863 165.181  Z" fill="#009af9" fill-rule="evenodd" fill-opacity="1"/>
<polyline clip-path="url(#clip621)" style="stroke:#000000; stroke-linecap:round; stroke-linejoin:round; stroke-width:4; stroke-opacity:1; fill:none" points="603.863,165.181 603.863,1423.18 637.888,1423.18 637.888,165.181 603.863,165.181 "/>
<path clip-path="url(#clip621)" d="M637.888 47.2441 L637.888 1423.18 L671.914 1423.18 L671.914 47.2441 L637.888 47.2441 L637.888 47.2441  Z" fill="#009af9" fill-rule="evenodd" fill-opacity="1"/>
<polyline clip-path="url(#clip621)" style="stroke:#000000; stroke-linecap:round; stroke-linejoin:round; stroke-width:4; stroke-opacity:1; fill:none" points="637.888,47.2441 637.888,1423.18 671.914,1423.18 671.914,47.2441 637.888,47.2441 "/>
<path clip-path="url(#clip621)" d="M671.914 176.83 L671.914 1423.18 L705.94 1423.18 L705.94 176.83 L671.914 176.83 L671.914 176.83  Z" fill="#009af9" fill-rule="evenodd" fill-opacity="1"/>
<polyline clip-path="url(#clip621)" style="stroke:#000000; stroke-linecap:round; stroke-linejoin:round; stroke-width:4; stroke-opacity:1; fill:none" points="671.914,176.83 671.914,1423.18 705.94,1423.18 705.94,176.83 671.914,176.83 "/>
<path clip-path="url(#clip621)" d="M705.94 262.735 L705.94 1423.18 L739.966 1423.18 L739.966 262.735 L705.94 262.735 L705.94 262.735  Z" fill="#009af9" fill-rule="evenodd" fill-opacity="1"/>
<polyline clip-path="url(#clip621)" style="stroke:#000000; stroke-linecap:round; stroke-linejoin:round; stroke-width:4; stroke-opacity:1; fill:none" points="705.94,262.735 705.94,1423.18 739.966,1423.18 739.966,262.735 705.94,262.735 "/>
<path clip-path="url(#clip621)" d="M739.966 293.311 L739.966 1423.18 L773.992 1423.18 L773.992 293.311 L739.966 293.311 L739.966 293.311  Z" fill="#009af9" fill-rule="evenodd" fill-opacity="1"/>
<polyline clip-path="url(#clip621)" style="stroke:#000000; stroke-linecap:round; stroke-linejoin:round; stroke-width:4; stroke-opacity:1; fill:none" points="739.966,293.311 739.966,1423.18 773.992,1423.18 773.992,293.311 739.966,293.311 "/>
<path clip-path="url(#clip621)" d="M773.992 434.545 L773.992 1423.18 L808.018 1423.18 L808.018 434.545 L773.992 434.545 L773.992 434.545  Z" fill="#009af9" fill-rule="evenodd" fill-opacity="1"/>
<polyline clip-path="url(#clip621)" style="stroke:#000000; stroke-linecap:round; stroke-linejoin:round; stroke-width:4; stroke-opacity:1; fill:none" points="773.992,434.545 773.992,1423.18 808.018,1423.18 808.018,434.545 773.992,434.545 "/>
<path clip-path="url(#clip621)" d="M808.018 553.938 L808.018 1423.18 L842.043 1423.18 L842.043 553.938 L808.018 553.938 L808.018 553.938  Z" fill="#009af9" fill-rule="evenodd" fill-opacity="1"/>
<polyline clip-path="url(#clip621)" style="stroke:#000000; stroke-linecap:round; stroke-linejoin:round; stroke-width:4; stroke-opacity:1; fill:none" points="808.018,553.938 808.018,1423.18 842.043,1423.18 842.043,553.938 808.018,553.938 "/>
<path clip-path="url(#clip621)" d="M842.043 699.54 L842.043 1423.18 L876.069 1423.18 L876.069 699.54 L842.043 699.54 L842.043 699.54  Z" fill="#009af9" fill-rule="evenodd" fill-opacity="1"/>
<polyline clip-path="url(#clip621)" style="stroke:#000000; stroke-linecap:round; stroke-linejoin:round; stroke-width:4; stroke-opacity:1; fill:none" points="842.043,699.54 842.043,1423.18 876.069,1423.18 876.069,699.54 842.043,699.54 "/>
<path clip-path="url(#clip621)" d="M876.069 826.213 L876.069 1423.18 L910.095 1423.18 L910.095 826.213 L876.069 826.213 L876.069 826.213  Z" fill="#009af9" fill-rule="evenodd" fill-opacity="1"/>
<polyline clip-path="url(#clip621)" style="stroke:#000000; stroke-linecap:round; stroke-linejoin:round; stroke-width:4; stroke-opacity:1; fill:none" points="876.069,826.213 876.069,1423.18 910.095,1423.18 910.095,826.213 876.069,826.213 "/>
<path clip-path="url(#clip621)" d="M910.095 967.447 L910.095 1423.18 L944.121 1423.18 L944.121 967.447 L910.095 967.447 L910.095 967.447  Z" fill="#009af9" fill-rule="evenodd" fill-opacity="1"/>
<polyline clip-path="url(#clip621)" style="stroke:#000000; stroke-linecap:round; stroke-linejoin:round; stroke-width:4; stroke-opacity:1; fill:none" points="910.095,967.447 910.095,1423.18 944.121,1423.18 944.121,967.447 910.095,967.447 "/>
<path clip-path="url(#clip621)" d="M944.121 977.639 L944.121 1423.18 L978.147 1423.18 L978.147 977.639 L944.121 977.639 L944.121 977.639  Z" fill="#009af9" fill-rule="evenodd" fill-opacity="1"/>
<polyline clip-path="url(#clip621)" style="stroke:#000000; stroke-linecap:round; stroke-linejoin:round; stroke-width:4; stroke-opacity:1; fill:none" points="944.121,977.639 944.121,1423.18 978.147,1423.18 978.147,977.639 944.121,977.639 "/>
<path clip-path="url(#clip621)" d="M978.147 1075.19 L978.147 1423.18 L1012.17 1423.18 L1012.17 1075.19 L978.147 1075.19 L978.147 1075.19  Z" fill="#009af9" fill-rule="evenodd" fill-opacity="1"/>
<polyline clip-path="url(#clip621)" style="stroke:#000000; stroke-linecap:round; stroke-linejoin:round; stroke-width:4; stroke-opacity:1; fill:none" points="978.147,1075.19 978.147,1423.18 1012.17,1423.18 1012.17,1075.19 978.147,1075.19 "/>
<path clip-path="url(#clip621)" d="M1012.17 1197.5 L1012.17 1423.18 L1046.2 1423.18 L1046.2 1197.5 L1012.17 1197.5 L1012.17 1197.5  Z" fill="#009af9" fill-rule="evenodd" fill-opacity="1"/>
<polyline clip-path="url(#clip621)" style="stroke:#000000; stroke-linecap:round; stroke-linejoin:round; stroke-width:4; stroke-opacity:1; fill:none" points="1012.17,1197.5 1012.17,1423.18 1046.2,1423.18 1046.2,1197.5 1012.17,1197.5 "/>
<path clip-path="url(#clip621)" d="M1046.2 1245.55 L1046.2 1423.18 L1080.22 1423.18 L1080.22 1245.55 L1046.2 1245.55 L1046.2 1245.55  Z" fill="#009af9" fill-rule="evenodd" fill-opacity="1"/>
<polyline clip-path="url(#clip621)" style="stroke:#000000; stroke-linecap:round; stroke-linejoin:round; stroke-width:4; stroke-opacity:1; fill:none" points="1046.2,1245.55 1046.2,1423.18 1080.22,1423.18 1080.22,1245.55 1046.2,1245.55 "/>
<path clip-path="url(#clip621)" d="M1080.22 1303.79 L1080.22 1423.18 L1114.25 1423.18 L1114.25 1303.79 L1080.22 1303.79 L1080.22 1303.79  Z" fill="#009af9" fill-rule="evenodd" fill-opacity="1"/>
<polyline clip-path="url(#clip621)" style="stroke:#000000; stroke-linecap:round; stroke-linejoin:round; stroke-width:4; stroke-opacity:1; fill:none" points="1080.22,1303.79 1080.22,1423.18 1114.25,1423.18 1114.25,1303.79 1080.22,1303.79 "/>
<path clip-path="url(#clip621)" d="M1114.25 1327.08 L1114.25 1423.18 L1148.28 1423.18 L1148.28 1327.08 L1114.25 1327.08 L1114.25 1327.08  Z" fill="#009af9" fill-rule="evenodd" fill-opacity="1"/>
<polyline clip-path="url(#clip621)" style="stroke:#000000; stroke-linecap:round; stroke-linejoin:round; stroke-width:4; stroke-opacity:1; fill:none" points="1114.25,1327.08 1114.25,1423.18 1148.28,1423.18 1148.28,1327.08 1114.25,1327.08 "/>
<path clip-path="url(#clip621)" d="M1148.28 1351.84 L1148.28 1423.18 L1182.3 1423.18 L1182.3 1351.84 L1148.28 1351.84 L1148.28 1351.84  Z" fill="#009af9" fill-rule="evenodd" fill-opacity="1"/>
<polyline clip-path="url(#clip621)" style="stroke:#000000; stroke-linecap:round; stroke-linejoin:round; stroke-width:4; stroke-opacity:1; fill:none" points="1148.28,1351.84 1148.28,1423.18 1182.3,1423.18 1182.3,1351.84 1148.28,1351.84 "/>
<path clip-path="url(#clip621)" d="M1182.3 1348.92 L1182.3 1423.18 L1216.33 1423.18 L1216.33 1348.92 L1182.3 1348.92 L1182.3 1348.92  Z" fill="#009af9" fill-rule="evenodd" fill-opacity="1"/>
<polyline clip-path="url(#clip621)" style="stroke:#000000; stroke-linecap:round; stroke-linejoin:round; stroke-width:4; stroke-opacity:1; fill:none" points="1182.3,1348.92 1182.3,1423.18 1216.33,1423.18 1216.33,1348.92 1182.3,1348.92 "/>
<path clip-path="url(#clip621)" d="M1216.33 1370.76 L1216.33 1423.18 L1250.35 1423.18 L1250.35 1370.76 L1216.33 1370.76 L1216.33 1370.76  Z" fill="#009af9" fill-rule="evenodd" fill-opacity="1"/>
<polyline clip-path="url(#clip621)" style="stroke:#000000; stroke-linecap:round; stroke-linejoin:round; stroke-width:4; stroke-opacity:1; fill:none" points="1216.33,1370.76 1216.33,1423.18 1250.35,1423.18 1250.35,1370.76 1216.33,1370.76 "/>
<path clip-path="url(#clip621)" d="M1250.35 1402.8 L1250.35 1423.18 L1284.38 1423.18 L1284.38 1402.8 L1250.35 1402.8 L1250.35 1402.8  Z" fill="#009af9" fill-rule="evenodd" fill-opacity="1"/>
<polyline clip-path="url(#clip621)" style="stroke:#000000; stroke-linecap:round; stroke-linejoin:round; stroke-width:4; stroke-opacity:1; fill:none" points="1250.35,1402.8 1250.35,1423.18 1284.38,1423.18 1284.38,1402.8 1250.35,1402.8 "/>
<path clip-path="url(#clip621)" d="M1284.38 1395.52 L1284.38 1423.18 L1318.4 1423.18 L1318.4 1395.52 L1284.38 1395.52 L1284.38 1395.52  Z" fill="#009af9" fill-rule="evenodd" fill-opacity="1"/>
<polyline clip-path="url(#clip621)" style="stroke:#000000; stroke-linecap:round; stroke-linejoin:round; stroke-width:4; stroke-opacity:1; fill:none" points="1284.38,1395.52 1284.38,1423.18 1318.4,1423.18 1318.4,1395.52 1284.38,1395.52 "/>
<path clip-path="url(#clip621)" d="M1318.4 1407.16 L1318.4 1423.18 L1352.43 1423.18 L1352.43 1407.16 L1318.4 1407.16 L1318.4 1407.16  Z" fill="#009af9" fill-rule="evenodd" fill-opacity="1"/>
<polyline clip-path="url(#clip621)" style="stroke:#000000; stroke-linecap:round; stroke-linejoin:round; stroke-width:4; stroke-opacity:1; fill:none" points="1318.4,1407.16 1318.4,1423.18 1352.43,1423.18 1352.43,1407.16 1318.4,1407.16 "/>
<path clip-path="url(#clip621)" d="M1352.43 1410.08 L1352.43 1423.18 L1386.46 1423.18 L1386.46 1410.08 L1352.43 1410.08 L1352.43 1410.08  Z" fill="#009af9" fill-rule="evenodd" fill-opacity="1"/>
<polyline clip-path="url(#clip621)" style="stroke:#000000; stroke-linecap:round; stroke-linejoin:round; stroke-width:4; stroke-opacity:1; fill:none" points="1352.43,1410.08 1352.43,1423.18 1386.46,1423.18 1386.46,1410.08 1352.43,1410.08 "/>
<path clip-path="url(#clip621)" d="M1386.46 1412.99 L1386.46 1423.18 L1420.48 1423.18 L1420.48 1412.99 L1386.46 1412.99 L1386.46 1412.99  Z" fill="#009af9" fill-rule="evenodd" fill-opacity="1"/>
<polyline clip-path="url(#clip621)" style="stroke:#000000; stroke-linecap:round; stroke-linejoin:round; stroke-width:4; stroke-opacity:1; fill:none" points="1386.46,1412.99 1386.46,1423.18 1420.48,1423.18 1420.48,1412.99 1386.46,1412.99 "/>
<path clip-path="url(#clip621)" d="M1420.48 1411.53 L1420.48 1423.18 L1454.51 1423.18 L1454.51 1411.53 L1420.48 1411.53 L1420.48 1411.53  Z" fill="#009af9" fill-rule="evenodd" fill-opacity="1"/>
<polyline clip-path="url(#clip621)" style="stroke:#000000; stroke-linecap:round; stroke-linejoin:round; stroke-width:4; stroke-opacity:1; fill:none" points="1420.48,1411.53 1420.48,1423.18 1454.51,1423.18 1454.51,1411.53 1420.48,1411.53 "/>
<path clip-path="url(#clip621)" d="M1454.51 1417.36 L1454.51 1423.18 L1488.53 1423.18 L1488.53 1417.36 L1454.51 1417.36 L1454.51 1417.36  Z" fill="#009af9" fill-rule="evenodd" fill-opacity="1"/>
<polyline clip-path="url(#clip621)" style="stroke:#000000; stroke-linecap:round; stroke-linejoin:round; stroke-width:4; stroke-opacity:1; fill:none" points="1454.51,1417.36 1454.51,1423.18 1488.53,1423.18 1488.53,1417.36 1454.51,1417.36 "/>
<path clip-path="url(#clip621)" d="M1488.53 1418.81 L1488.53 1423.18 L1522.56 1423.18 L1522.56 1418.81 L1488.53 1418.81 L1488.53 1418.81  Z" fill="#009af9" fill-rule="evenodd" fill-opacity="1"/>
<polyline clip-path="url(#clip621)" style="stroke:#000000; stroke-linecap:round; stroke-linejoin:round; stroke-width:4; stroke-opacity:1; fill:none" points="1488.53,1418.81 1488.53,1423.18 1522.56,1423.18 1522.56,1418.81 1488.53,1418.81 "/>
<path clip-path="url(#clip621)" d="M1522.56 1420.27 L1522.56 1423.18 L1556.59 1423.18 L1556.59 1420.27 L1522.56 1420.27 L1522.56 1420.27  Z" fill="#009af9" fill-rule="evenodd" fill-opacity="1"/>
<polyline clip-path="url(#clip621)" style="stroke:#000000; stroke-linecap:round; stroke-linejoin:round; stroke-width:4; stroke-opacity:1; fill:none" points="1522.56,1420.27 1522.56,1423.18 1556.59,1423.18 1556.59,1420.27 1522.56,1420.27 "/>
<path clip-path="url(#clip621)" d="M1556.59 1423.18 L1556.59 1423.18 L1590.61 1423.18 L1590.61 1423.18 L1556.59 1423.18 L1556.59 1423.18  Z" fill="#009af9" fill-rule="evenodd" fill-opacity="1"/>
<polyline clip-path="url(#clip621)" style="stroke:#000000; stroke-linecap:round; stroke-linejoin:round; stroke-width:4; stroke-opacity:1; fill:none" points="1556.59,1423.18 1556.59,1423.18 1590.61,1423.18 1556.59,1423.18 "/>
<path clip-path="url(#clip621)" d="M1590.61 1423.18 L1590.61 1423.18 L1624.64 1423.18 L1624.64 1423.18 L1590.61 1423.18 L1590.61 1423.18  Z" fill="#009af9" fill-rule="evenodd" fill-opacity="1"/>
<polyline clip-path="url(#clip621)" style="stroke:#000000; stroke-linecap:round; stroke-linejoin:round; stroke-width:4; stroke-opacity:1; fill:none" points="1590.61,1423.18 1590.61,1423.18 1624.64,1423.18 1590.61,1423.18 "/>
<path clip-path="url(#clip621)" d="M1624.64 1423.18 L1624.64 1423.18 L1658.66 1423.18 L1658.66 1423.18 L1624.64 1423.18 L1624.64 1423.18  Z" fill="#009af9" fill-rule="evenodd" fill-opacity="1"/>
<polyline clip-path="url(#clip621)" style="stroke:#000000; stroke-linecap:round; stroke-linejoin:round; stroke-width:4; stroke-opacity:1; fill:none" points="1624.64,1423.18 1624.64,1423.18 1658.66,1423.18 1624.64,1423.18 "/>
<path clip-path="url(#clip621)" d="M1658.66 1423.18 L1658.66 1423.18 L1692.69 1423.18 L1692.69 1423.18 L1658.66 1423.18 L1658.66 1423.18  Z" fill="#009af9" fill-rule="evenodd" fill-opacity="1"/>
<polyline clip-path="url(#clip621)" style="stroke:#000000; stroke-linecap:round; stroke-linejoin:round; stroke-width:4; stroke-opacity:1; fill:none" points="1658.66,1423.18 1658.66,1423.18 1692.69,1423.18 1658.66,1423.18 "/>
<path clip-path="url(#clip621)" d="M1692.69 1423.18 L1692.69 1423.18 L1726.71 1423.18 L1726.71 1423.18 L1692.69 1423.18 L1692.69 1423.18  Z" fill="#009af9" fill-rule="evenodd" fill-opacity="1"/>
<polyline clip-path="url(#clip621)" style="stroke:#000000; stroke-linecap:round; stroke-linejoin:round; stroke-width:4; stroke-opacity:1; fill:none" points="1692.69,1423.18 1692.69,1423.18 1726.71,1423.18 1692.69,1423.18 "/>
<path clip-path="url(#clip621)" d="M1726.71 1421.72 L1726.71 1423.18 L1760.74 1423.18 L1760.74 1421.72 L1726.71 1421.72 L1726.71 1421.72  Z" fill="#009af9" fill-rule="evenodd" fill-opacity="1"/>
<polyline clip-path="url(#clip621)" style="stroke:#000000; stroke-linecap:round; stroke-linejoin:round; stroke-width:4; stroke-opacity:1; fill:none" points="1726.71,1421.72 1726.71,1423.18 1760.74,1423.18 1760.74,1421.72 1726.71,1421.72 "/>
<path clip-path="url(#clip621)" d="M1760.74 1423.18 L1760.74 1423.18 L1794.77 1423.18 L1794.77 1423.18 L1760.74 1423.18 L1760.74 1423.18  Z" fill="#009af9" fill-rule="evenodd" fill-opacity="1"/>
<polyline clip-path="url(#clip621)" style="stroke:#000000; stroke-linecap:round; stroke-linejoin:round; stroke-width:4; stroke-opacity:1; fill:none" points="1760.74,1423.18 1760.74,1423.18 1794.77,1423.18 1760.74,1423.18 "/>
<path clip-path="url(#clip621)" d="M1794.77 1423.18 L1794.77 1423.18 L1828.79 1423.18 L1828.79 1423.18 L1794.77 1423.18 L1794.77 1423.18  Z" fill="#009af9" fill-rule="evenodd" fill-opacity="1"/>
<polyline clip-path="url(#clip621)" style="stroke:#000000; stroke-linecap:round; stroke-linejoin:round; stroke-width:4; stroke-opacity:1; fill:none" points="1794.77,1423.18 1794.77,1423.18 1828.79,1423.18 1794.77,1423.18 "/>
<path clip-path="url(#clip621)" d="M1828.79 1423.18 L1828.79 1423.18 L1862.82 1423.18 L1862.82 1423.18 L1828.79 1423.18 L1828.79 1423.18  Z" fill="#009af9" fill-rule="evenodd" fill-opacity="1"/>
<polyline clip-path="url(#clip621)" style="stroke:#000000; stroke-linecap:round; stroke-linejoin:round; stroke-width:4; stroke-opacity:1; fill:none" points="1828.79,1423.18 1828.79,1423.18 1862.82,1423.18 1828.79,1423.18 "/>
<path clip-path="url(#clip621)" d="M1862.82 1423.18 L1862.82 1423.18 L1896.84 1423.18 L1896.84 1423.18 L1862.82 1423.18 L1862.82 1423.18  Z" fill="#009af9" fill-rule="evenodd" fill-opacity="1"/>
<polyline clip-path="url(#clip621)" style="stroke:#000000; stroke-linecap:round; stroke-linejoin:round; stroke-width:4; stroke-opacity:1; fill:none" points="1862.82,1423.18 1862.82,1423.18 1896.84,1423.18 1862.82,1423.18 "/>
<path clip-path="url(#clip621)" d="M1896.84 1423.18 L1896.84 1423.18 L1930.87 1423.18 L1930.87 1423.18 L1896.84 1423.18 L1896.84 1423.18  Z" fill="#009af9" fill-rule="evenodd" fill-opacity="1"/>
<polyline clip-path="url(#clip621)" style="stroke:#000000; stroke-linecap:round; stroke-linejoin:round; stroke-width:4; stroke-opacity:1; fill:none" points="1896.84,1423.18 1896.84,1423.18 1930.87,1423.18 1896.84,1423.18 "/>
<path clip-path="url(#clip621)" d="M1930.87 1423.18 L1930.87 1423.18 L1964.9 1423.18 L1964.9 1423.18 L1930.87 1423.18 L1930.87 1423.18  Z" fill="#009af9" fill-rule="evenodd" fill-opacity="1"/>
<polyline clip-path="url(#clip621)" style="stroke:#000000; stroke-linecap:round; stroke-linejoin:round; stroke-width:4; stroke-opacity:1; fill:none" points="1930.87,1423.18 1930.87,1423.18 1964.9,1423.18 1930.87,1423.18 "/>
<path clip-path="url(#clip621)" d="M1964.9 1423.18 L1964.9 1423.18 L1998.92 1423.18 L1998.92 1423.18 L1964.9 1423.18 L1964.9 1423.18  Z" fill="#009af9" fill-rule="evenodd" fill-opacity="1"/>
<polyline clip-path="url(#clip621)" style="stroke:#000000; stroke-linecap:round; stroke-linejoin:round; stroke-width:4; stroke-opacity:1; fill:none" points="1964.9,1423.18 1964.9,1423.18 1998.92,1423.18 1964.9,1423.18 "/>
<path clip-path="url(#clip621)" d="M1998.92 1423.18 L1998.92 1423.18 L2032.95 1423.18 L2032.95 1423.18 L1998.92 1423.18 L1998.92 1423.18  Z" fill="#009af9" fill-rule="evenodd" fill-opacity="1"/>
<polyline clip-path="url(#clip621)" style="stroke:#000000; stroke-linecap:round; stroke-linejoin:round; stroke-width:4; stroke-opacity:1; fill:none" points="1998.92,1423.18 1998.92,1423.18 2032.95,1423.18 1998.92,1423.18 "/>
<path clip-path="url(#clip621)" d="M2032.95 1423.18 L2032.95 1423.18 L2066.97 1423.18 L2066.97 1423.18 L2032.95 1423.18 L2032.95 1423.18  Z" fill="#009af9" fill-rule="evenodd" fill-opacity="1"/>
<polyline clip-path="url(#clip621)" style="stroke:#000000; stroke-linecap:round; stroke-linejoin:round; stroke-width:4; stroke-opacity:1; fill:none" points="2032.95,1423.18 2032.95,1423.18 2066.97,1423.18 2032.95,1423.18 "/>
<path clip-path="url(#clip621)" d="M2066.97 1423.18 L2066.97 1423.18 L2101 1423.18 L2101 1423.18 L2066.97 1423.18 L2066.97 1423.18  Z" fill="#009af9" fill-rule="evenodd" fill-opacity="1"/>
<polyline clip-path="url(#clip621)" style="stroke:#000000; stroke-linecap:round; stroke-linejoin:round; stroke-width:4; stroke-opacity:1; fill:none" points="2066.97,1423.18 2066.97,1423.18 2101,1423.18 2066.97,1423.18 "/>
<path clip-path="url(#clip621)" d="M2101 1423.18 L2101 1423.18 L2135.02 1423.18 L2135.02 1423.18 L2101 1423.18 L2101 1423.18  Z" fill="#009af9" fill-rule="evenodd" fill-opacity="1"/>
<polyline clip-path="url(#clip621)" style="stroke:#000000; stroke-linecap:round; stroke-linejoin:round; stroke-width:4; stroke-opacity:1; fill:none" points="2101,1423.18 2101,1423.18 2135.02,1423.18 2101,1423.18 "/>
<path clip-path="url(#clip621)" d="M2135.02 1423.18 L2135.02 1423.18 L2169.05 1423.18 L2169.05 1423.18 L2135.02 1423.18 L2135.02 1423.18  Z" fill="#009af9" fill-rule="evenodd" fill-opacity="1"/>
<polyline clip-path="url(#clip621)" style="stroke:#000000; stroke-linecap:round; stroke-linejoin:round; stroke-width:4; stroke-opacity:1; fill:none" points="2135.02,1423.18 2135.02,1423.18 2169.05,1423.18 2135.02,1423.18 "/>
<path clip-path="url(#clip621)" d="M2169.05 1423.18 L2169.05 1423.18 L2203.08 1423.18 L2203.08 1423.18 L2169.05 1423.18 L2169.05 1423.18  Z" fill="#009af9" fill-rule="evenodd" fill-opacity="1"/>
<polyline clip-path="url(#clip621)" style="stroke:#000000; stroke-linecap:round; stroke-linejoin:round; stroke-width:4; stroke-opacity:1; fill:none" points="2169.05,1423.18 2169.05,1423.18 2203.08,1423.18 2169.05,1423.18 "/>
<path clip-path="url(#clip621)" d="M2203.08 1421.72 L2203.08 1423.18 L2237.1 1423.18 L2237.1 1421.72 L2203.08 1421.72 L2203.08 1421.72  Z" fill="#009af9" fill-rule="evenodd" fill-opacity="1"/>
<polyline clip-path="url(#clip621)" style="stroke:#000000; stroke-linecap:round; stroke-linejoin:round; stroke-width:4; stroke-opacity:1; fill:none" points="2203.08,1421.72 2203.08,1423.18 2237.1,1423.18 2237.1,1421.72 2203.08,1421.72 "/>
<circle clip-path="url(#clip621)" style="fill:#009af9; stroke:none; fill-opacity:0" cx="382.695" cy="1411.53" r="2"/>
<circle clip-path="url(#clip621)" style="fill:#009af9; stroke:none; fill-opacity:0" cx="416.721" cy="1372.22" r="2"/>
<circle clip-path="url(#clip621)" style="fill:#009af9; stroke:none; fill-opacity:0" cx="450.746" cy="1255.74" r="2"/>
<circle clip-path="url(#clip621)" style="fill:#009af9; stroke:none; fill-opacity:0" cx="484.772" cy="1075.19" r="2"/>
<circle clip-path="url(#clip621)" style="fill:#009af9; stroke:none; fill-opacity:0" cx="518.798" cy="872.806" r="2"/>
<circle clip-path="url(#clip621)" style="fill:#009af9; stroke:none; fill-opacity:0" cx="552.824" cy="505.889" r="2"/>
<circle clip-path="url(#clip621)" style="fill:#009af9; stroke:none; fill-opacity:0" cx="586.85" cy="438.913" r="2"/>
<circle clip-path="url(#clip621)" style="fill:#009af9; stroke:none; fill-opacity:0" cx="620.876" cy="165.181" r="2"/>
<circle clip-path="url(#clip621)" style="fill:#009af9; stroke:none; fill-opacity:0" cx="654.901" cy="47.2441" r="2"/>
<circle clip-path="url(#clip621)" style="fill:#009af9; stroke:none; fill-opacity:0" cx="688.927" cy="176.83" r="2"/>
<circle clip-path="url(#clip621)" style="fill:#009af9; stroke:none; fill-opacity:0" cx="722.953" cy="262.735" r="2"/>
<circle clip-path="url(#clip621)" style="fill:#009af9; stroke:none; fill-opacity:0" cx="756.979" cy="293.311" r="2"/>
<circle clip-path="url(#clip621)" style="fill:#009af9; stroke:none; fill-opacity:0" cx="791.005" cy="434.545" r="2"/>
<circle clip-path="url(#clip621)" style="fill:#009af9; stroke:none; fill-opacity:0" cx="825.031" cy="553.938" r="2"/>
<circle clip-path="url(#clip621)" style="fill:#009af9; stroke:none; fill-opacity:0" cx="859.056" cy="699.54" r="2"/>
<circle clip-path="url(#clip621)" style="fill:#009af9; stroke:none; fill-opacity:0" cx="893.082" cy="826.213" r="2"/>
<circle clip-path="url(#clip621)" style="fill:#009af9; stroke:none; fill-opacity:0" cx="927.108" cy="967.447" r="2"/>
<circle clip-path="url(#clip621)" style="fill:#009af9; stroke:none; fill-opacity:0" cx="961.134" cy="977.639" r="2"/>
<circle clip-path="url(#clip621)" style="fill:#009af9; stroke:none; fill-opacity:0" cx="995.16" cy="1075.19" r="2"/>
<circle clip-path="url(#clip621)" style="fill:#009af9; stroke:none; fill-opacity:0" cx="1029.19" cy="1197.5" r="2"/>
<circle clip-path="url(#clip621)" style="fill:#009af9; stroke:none; fill-opacity:0" cx="1063.21" cy="1245.55" r="2"/>
<circle clip-path="url(#clip621)" style="fill:#009af9; stroke:none; fill-opacity:0" cx="1097.24" cy="1303.79" r="2"/>
<circle clip-path="url(#clip621)" style="fill:#009af9; stroke:none; fill-opacity:0" cx="1131.26" cy="1327.08" r="2"/>
<circle clip-path="url(#clip621)" style="fill:#009af9; stroke:none; fill-opacity:0" cx="1165.29" cy="1351.84" r="2"/>
<circle clip-path="url(#clip621)" style="fill:#009af9; stroke:none; fill-opacity:0" cx="1199.31" cy="1348.92" r="2"/>
<circle clip-path="url(#clip621)" style="fill:#009af9; stroke:none; fill-opacity:0" cx="1233.34" cy="1370.76" r="2"/>
<circle clip-path="url(#clip621)" style="fill:#009af9; stroke:none; fill-opacity:0" cx="1267.37" cy="1402.8" r="2"/>
<circle clip-path="url(#clip621)" style="fill:#009af9; stroke:none; fill-opacity:0" cx="1301.39" cy="1395.52" r="2"/>
<circle clip-path="url(#clip621)" style="fill:#009af9; stroke:none; fill-opacity:0" cx="1335.42" cy="1407.16" r="2"/>
<circle clip-path="url(#clip621)" style="fill:#009af9; stroke:none; fill-opacity:0" cx="1369.44" cy="1410.08" r="2"/>
<circle clip-path="url(#clip621)" style="fill:#009af9; stroke:none; fill-opacity:0" cx="1403.47" cy="1412.99" r="2"/>
<circle clip-path="url(#clip621)" style="fill:#009af9; stroke:none; fill-opacity:0" cx="1437.5" cy="1411.53" r="2"/>
<circle clip-path="url(#clip621)" style="fill:#009af9; stroke:none; fill-opacity:0" cx="1471.52" cy="1417.36" r="2"/>
<circle clip-path="url(#clip621)" style="fill:#009af9; stroke:none; fill-opacity:0" cx="1505.55" cy="1418.81" r="2"/>
<circle clip-path="url(#clip621)" style="fill:#009af9; stroke:none; fill-opacity:0" cx="1539.57" cy="1420.27" r="2"/>
<circle clip-path="url(#clip621)" style="fill:#009af9; stroke:none; fill-opacity:0" cx="1573.6" cy="1423.18" r="2"/>
<circle clip-path="url(#clip621)" style="fill:#009af9; stroke:none; fill-opacity:0" cx="1607.62" cy="1423.18" r="2"/>
<circle clip-path="url(#clip621)" style="fill:#009af9; stroke:none; fill-opacity:0" cx="1641.65" cy="1423.18" r="2"/>
<circle clip-path="url(#clip621)" style="fill:#009af9; stroke:none; fill-opacity:0" cx="1675.68" cy="1423.18" r="2"/>
<circle clip-path="url(#clip621)" style="fill:#009af9; stroke:none; fill-opacity:0" cx="1709.7" cy="1423.18" r="2"/>
<circle clip-path="url(#clip621)" style="fill:#009af9; stroke:none; fill-opacity:0" cx="1743.73" cy="1421.72" r="2"/>
<circle clip-path="url(#clip621)" style="fill:#009af9; stroke:none; fill-opacity:0" cx="1777.75" cy="1423.18" r="2"/>
<circle clip-path="url(#clip621)" style="fill:#009af9; stroke:none; fill-opacity:0" cx="1811.78" cy="1423.18" r="2"/>
<circle clip-path="url(#clip621)" style="fill:#009af9; stroke:none; fill-opacity:0" cx="1845.81" cy="1423.18" r="2"/>
<circle clip-path="url(#clip621)" style="fill:#009af9; stroke:none; fill-opacity:0" cx="1879.83" cy="1423.18" r="2"/>
<circle clip-path="url(#clip621)" style="fill:#009af9; stroke:none; fill-opacity:0" cx="1913.86" cy="1423.18" r="2"/>
<circle clip-path="url(#clip621)" style="fill:#009af9; stroke:none; fill-opacity:0" cx="1947.88" cy="1423.18" r="2"/>
<circle clip-path="url(#clip621)" style="fill:#009af9; stroke:none; fill-opacity:0" cx="1981.91" cy="1423.18" r="2"/>
<circle clip-path="url(#clip621)" style="fill:#009af9; stroke:none; fill-opacity:0" cx="2015.93" cy="1423.18" r="2"/>
<circle clip-path="url(#clip621)" style="fill:#009af9; stroke:none; fill-opacity:0" cx="2049.96" cy="1423.18" r="2"/>
<circle clip-path="url(#clip621)" style="fill:#009af9; stroke:none; fill-opacity:0" cx="2083.99" cy="1423.18" r="2"/>
<circle clip-path="url(#clip621)" style="fill:#009af9; stroke:none; fill-opacity:0" cx="2118.01" cy="1423.18" r="2"/>
<circle clip-path="url(#clip621)" style="fill:#009af9; stroke:none; fill-opacity:0" cx="2152.04" cy="1423.18" r="2"/>
<circle clip-path="url(#clip621)" style="fill:#009af9; stroke:none; fill-opacity:0" cx="2186.06" cy="1423.18" r="2"/>
<circle clip-path="url(#clip621)" style="fill:#009af9; stroke:none; fill-opacity:0" cx="2220.09" cy="1421.72" r="2"/>
<polyline clip-path="url(#clip621)" style="stroke:#e26f46; stroke-linecap:round; stroke-linejoin:round; stroke-width:16; stroke-opacity:1; fill:none" points="335.059,1423.18 354.261,1423 373.463,1420.31 392.665,1408.85 411.867,1380.71 431.07,1329.52 450.272,1252.38 469.474,1150.43 488.676,1028.3 507.879,892.973 527.081,752.538 546.283,615.073 565.485,487.784 584.687,376.464 603.89,285.238 623.092,216.532 642.294,171.21 661.496,148.816 680.698,147.853 699.901,166.088 719.103,200.817 738.305,249.112 757.507,308.016 776.709,374.689 795.912,446.518 815.114,521.181 834.316,596.686 853.518,671.381 872.72,743.942 891.923,813.354 911.125,878.881 930.327,940.029 949.529,996.509 968.732,1048.2 987.934,1095.13 1007.14,1137.41 1026.34,1175.24 1045.54,1208.89 1064.74,1238.64 1083.94,1264.8 1103.15,1287.7 1122.35,1307.64 1141.55,1324.94 1160.75,1339.88 1179.96,1352.74 1199.16,1363.77 1218.36,1373.19 1237.56,1381.22 1256.76,1388.04 1275.97,1393.81 1295.17,1398.69 1314.37,1402.79 1333.57,1406.24 1352.78,1409.13 1371.98,1411.55 1391.18,1413.57 1410.38,1415.25 1429.58,1416.65 1448.79,1417.81 1467.99,1418.77 1487.19,1419.56 1506.39,1420.22 1525.6,1420.76 1544.8,1421.2 1564,1421.57 1583.2,1421.87 1602.4,1422.11 1621.61,1422.31 1640.81,1422.47 1660.01,1422.61 1679.21,1422.72 1698.42,1422.8 1717.62,1422.88 1736.82,1422.93 1756.02,1422.98 1775.22,1423.02 1794.43,1423.05 1813.63,1423.08 1832.83,1423.1 1852.03,1423.11 1871.24,1423.13 1890.44,1423.14 1909.64,1423.15 1928.84,1423.15 1948.04,1423.16 1967.25,1423.16 1986.45,1423.17 2005.65,1423.17 2024.85,1423.17 2044.06,1423.17 2063.26,1423.17 2082.46,1423.18 2101.66,1423.18 2120.86,1423.18 2140.07,1423.18 2159.27,1423.18 2178.47,1423.18 2197.67,1423.18 2216.87,1423.18 2236.08,1423.18 "/>
<path clip-path="url(#clip620)" d="M2019.96 248.629 L2282.66 248.629 L2282.66 93.1086 L2019.96 93.1086  Z" fill="#ffffff" fill-rule="evenodd" fill-opacity="1"/>
<polyline clip-path="url(#clip620)" style="stroke:#000000; stroke-linecap:round; stroke-linejoin:round; stroke-width:4; stroke-opacity:1; fill:none" points="2019.96,248.629 2282.66,248.629 2282.66,93.1086 2019.96,93.1086 2019.96,248.629 "/>
<path clip-path="url(#clip620)" d="M2043.33 165.685 L2183.51 165.685 L2183.51 124.213 L2043.33 124.213 L2043.33 165.685  Z" fill="#009af9" fill-rule="evenodd" fill-opacity="1"/>
<polyline clip-path="url(#clip620)" style="stroke:#000000; stroke-linecap:round; stroke-linejoin:round; stroke-width:4; stroke-opacity:1; fill:none" points="2043.33,165.685 2183.51,165.685 2183.51,124.213 2043.33,124.213 2043.33,165.685 "/>
<path clip-path="url(#clip620)" d="M2220.71 164.636 Q2218.91 169.266 2217.2 170.678 Q2215.48 172.09 2212.61 172.09 L2209.21 172.09 L2209.21 168.525 L2211.71 168.525 Q2213.47 168.525 2214.44 167.692 Q2215.41 166.858 2216.59 163.756 L2217.36 161.812 L2206.87 136.303 L2211.38 136.303 L2219.49 156.581 L2227.59 136.303 L2232.1 136.303 L2220.71 164.636 Z" fill="#000000" fill-rule="nonzero" fill-opacity="1" /><path clip-path="url(#clip620)" d="M2239.39 158.293 L2247.03 158.293 L2247.03 131.928 L2238.72 133.595 L2238.72 129.335 L2246.99 127.669 L2251.66 127.669 L2251.66 158.293 L2259.3 158.293 L2259.3 162.229 L2239.39 162.229 L2239.39 158.293 Z" fill="#000000" fill-rule="nonzero" fill-opacity="1" /><polyline clip-path="url(#clip620)" style="stroke:#e26f46; stroke-linecap:round; stroke-linejoin:round; stroke-width:16; stroke-opacity:1; fill:none" points="2043.33,196.789 2183.51,196.789 "/>
<path clip-path="url(#clip620)" d="M2220.71 216.476 Q2218.91 221.106 2217.2 222.518 Q2215.48 223.93 2212.61 223.93 L2209.21 223.93 L2209.21 220.365 L2211.71 220.365 Q2213.47 220.365 2214.44 219.532 Q2215.41 218.698 2216.59 215.596 L2217.36 213.652 L2206.87 188.143 L2211.38 188.143 L2219.49 208.421 L2227.59 188.143 L2232.1 188.143 L2220.71 216.476 Z" fill="#000000" fill-rule="nonzero" fill-opacity="1" /><path clip-path="url(#clip620)" d="M2242.61 210.133 L2258.93 210.133 L2258.93 214.069 L2236.99 214.069 L2236.99 210.133 Q2239.65 207.379 2244.23 202.749 Q2248.84 198.096 2250.02 196.754 Q2252.26 194.231 2253.14 192.495 Q2254.05 190.735 2254.05 189.046 Q2254.05 186.291 2252.1 184.555 Q2250.18 182.819 2247.08 182.819 Q2244.88 182.819 2242.43 183.583 Q2240 184.347 2237.22 185.897 L2237.22 181.175 Q2240.04 180.041 2242.5 179.462 Q2244.95 178.884 2246.99 178.884 Q2252.36 178.884 2255.55 181.569 Q2258.75 184.254 2258.75 188.745 Q2258.75 190.874 2257.94 192.796 Q2257.15 194.694 2255.04 197.286 Q2254.46 197.958 2251.36 201.175 Q2248.26 204.37 2242.61 210.133 Z" fill="#000000" fill-rule="nonzero" fill-opacity="1" /></svg>
