<?xml version="1.0" encoding="utf-8"?>
<svg xmlns="http://www.w3.org/2000/svg" xmlns:xlink="http://www.w3.org/1999/xlink" width="600" height="400" viewBox="0 0 2400 1600">
<defs>
  <clipPath id="clip620">
    <rect x="0" y="0" width="2400" height="1600"/>
  </clipPath>
</defs>
<path clip-path="url(#clip620)" d="M0 1600 L2400 1600 L2400 0 L0 0  Z" fill="#ffffff" fill-rule="evenodd" fill-opacity="1"/>
<defs>
  <clipPath id="clip621">
    <rect x="250" y="47" width="2104" height="1377"/>
  </clipPath>
</defs>
<path clip-path="url(#clip620)" d="M250.028 1423.18 L2352.76 1423.18 L2352.76 47.2441 L250.028 47.2441  Z" fill="#ffffff" fill-rule="evenodd" fill-opacity="1"/>
<polyline clip-path="url(#clip621)" style="stroke:#000000; stroke-linecap:round; stroke-linejoin:round; stroke-width:2; stroke-opacity:0.1; fill:none" points="320.038,1423.18 320.038,47.2441 "/>
<polyline clip-path="url(#clip621)" style="stroke:#000000; stroke-linecap:round; stroke-linejoin:round; stroke-width:2; stroke-opacity:0.1; fill:none" points="776.481,1423.18 776.481,47.2441 "/>
<polyline clip-path="url(#clip621)" style="stroke:#000000; stroke-linecap:round; stroke-linejoin:round; stroke-width:2; stroke-opacity:0.1; fill:none" points="1232.93,1423.18 1232.93,47.2441 "/>
<polyline clip-path="url(#clip621)" style="stroke:#000000; stroke-linecap:round; stroke-linejoin:round; stroke-width:2; stroke-opacity:0.1; fill:none" points="1689.37,1423.18 1689.37,47.2441 "/>
<polyline clip-path="url(#clip621)" style="stroke:#000000; stroke-linecap:round; stroke-linejoin:round; stroke-width:2; stroke-opacity:0.1; fill:none" points="2145.81,1423.18 2145.81,47.2441 "/>
<polyline clip-path="url(#clip621)" style="stroke:#000000; stroke-linecap:round; stroke-linejoin:round; stroke-width:2; stroke-opacity:0.1; fill:none" points="250.028,1423.18 2352.76,1423.18 "/>
<polyline clip-path="url(#clip621)" style="stroke:#000000; stroke-linecap:round; stroke-linejoin:round; stroke-width:2; stroke-opacity:0.1; fill:none" points="250.028,1122.1 2352.76,1122.1 "/>
<polyline clip-path="url(#clip621)" style="stroke:#000000; stroke-linecap:round; stroke-linejoin:round; stroke-width:2; stroke-opacity:0.1; fill:none" points="250.028,821.02 2352.76,821.02 "/>
<polyline clip-path="url(#clip621)" style="stroke:#000000; stroke-linecap:round; stroke-linejoin:round; stroke-width:2; stroke-opacity:0.1; fill:none" points="250.028,519.94 2352.76,519.94 "/>
<polyline clip-path="url(#clip621)" style="stroke:#000000; stroke-linecap:round; stroke-linejoin:round; stroke-width:2; stroke-opacity:0.1; fill:none" points="250.028,218.86 2352.76,218.86 "/>
<polyline clip-path="url(#clip620)" style="stroke:#000000; stroke-linecap:round; stroke-linejoin:round; stroke-width:4; stroke-opacity:1; fill:none" points="250.028,1423.18 2352.76,1423.18 "/>
<polyline clip-path="url(#clip620)" style="stroke:#000000; stroke-linecap:round; stroke-linejoin:round; stroke-width:4; stroke-opacity:1; fill:none" points="320.038,1423.18 320.038,1404.28 "/>
<polyline clip-path="url(#clip620)" style="stroke:#000000; stroke-linecap:round; stroke-linejoin:round; stroke-width:4; stroke-opacity:1; fill:none" points="776.481,1423.18 776.481,1404.28 "/>
<polyline clip-path="url(#clip620)" style="stroke:#000000; stroke-linecap:round; stroke-linejoin:round; stroke-width:4; stroke-opacity:1; fill:none" points="1232.93,1423.18 1232.93,1404.28 "/>
<polyline clip-path="url(#clip620)" style="stroke:#000000; stroke-linecap:round; stroke-linejoin:round; stroke-width:4; stroke-opacity:1; fill:none" points="1689.37,1423.18 1689.37,1404.28 "/>
<polyline clip-path="url(#clip620)" style="stroke:#000000; stroke-linecap:round; stroke-linejoin:round; stroke-width:4; stroke-opacity:1; fill:none" points="2145.81,1423.18 2145.81,1404.28 "/>
<path clip-path="url(#clip620)" d="M320.038 1454.1 Q316.426 1454.1 314.598 1457.66 Q312.792 1461.2 312.792 1468.33 Q312.792 1475.44 314.598 1479.01 Q316.426 1482.55 320.038 1482.55 Q323.672 1482.55 325.477 1479.01 Q327.306 1475.44 327.306 1468.33 Q327.306 1461.2 325.477 1457.66 Q323.672 1454.1 320.038 1454.1 M320.038 1450.39 Q325.848 1450.39 328.903 1455 Q331.982 1459.58 331.982 1468.33 Q331.982 1477.06 328.903 1481.67 Q325.848 1486.25 320.038 1486.25 Q314.227 1486.25 311.149 1481.67 Q308.093 1477.06 308.093 1468.33 Q308.093 1459.58 311.149 1455 Q314.227 1450.39 320.038 1450.39 Z" fill="#000000" fill-rule="nonzero" fill-opacity="1" /><path clip-path="url(#clip620)" d="M751.169 1481.64 L758.808 1481.64 L758.808 1455.28 L750.498 1456.95 L750.498 1452.69 L758.762 1451.02 L763.438 1451.02 L763.438 1481.64 L771.076 1481.64 L771.076 1485.58 L751.169 1485.58 L751.169 1481.64 Z" fill="#000000" fill-rule="nonzero" fill-opacity="1" /><path clip-path="url(#clip620)" d="M790.521 1454.1 Q786.91 1454.1 785.081 1457.66 Q783.275 1461.2 783.275 1468.33 Q783.275 1475.44 785.081 1479.01 Q786.91 1482.55 790.521 1482.55 Q794.155 1482.55 795.961 1479.01 Q797.789 1475.44 797.789 1468.33 Q797.789 1461.2 795.961 1457.66 Q794.155 1454.1 790.521 1454.1 M790.521 1450.39 Q796.331 1450.39 799.386 1455 Q802.465 1459.58 802.465 1468.33 Q802.465 1477.06 799.386 1481.67 Q796.331 1486.25 790.521 1486.25 Q784.711 1486.25 781.632 1481.67 Q778.576 1477.06 778.576 1468.33 Q778.576 1459.58 781.632 1455 Q784.711 1450.39 790.521 1450.39 Z" fill="#000000" fill-rule="nonzero" fill-opacity="1" /><path clip-path="url(#clip620)" d="M1211.7 1481.64 L1228.02 1481.64 L1228.02 1485.58 L1206.07 1485.58 L1206.07 1481.64 Q1208.74 1478.89 1213.32 1474.26 Q1217.93 1469.61 1219.11 1468.27 Q1221.35 1465.74 1222.23 1464.01 Q1223.13 1462.25 1223.13 1460.56 Q1223.13 1457.8 1221.19 1456.07 Q1219.27 1454.33 1216.17 1454.33 Q1213.97 1454.33 1211.51 1455.09 Q1209.08 1455.86 1206.31 1457.41 L1206.31 1452.69 Q1209.13 1451.55 1211.58 1450.97 Q1214.04 1450.39 1216.07 1450.39 Q1221.44 1450.39 1224.64 1453.08 Q1227.83 1455.77 1227.83 1460.26 Q1227.83 1462.39 1227.02 1464.31 Q1226.24 1466.2 1224.13 1468.8 Q1223.55 1469.47 1220.45 1472.69 Q1217.35 1475.88 1211.7 1481.64 Z" fill="#000000" fill-rule="nonzero" fill-opacity="1" /><path clip-path="url(#clip620)" d="M1247.83 1454.1 Q1244.22 1454.1 1242.39 1457.66 Q1240.59 1461.2 1240.59 1468.33 Q1240.59 1475.44 1242.39 1479.01 Q1244.22 1482.55 1247.83 1482.55 Q1251.47 1482.55 1253.27 1479.01 Q1255.1 1475.44 1255.1 1468.33 Q1255.1 1461.2 1253.27 1457.66 Q1251.47 1454.1 1247.83 1454.1 M1247.83 1450.39 Q1253.64 1450.39 1256.7 1455 Q1259.78 1459.58 1259.78 1468.33 Q1259.78 1477.06 1256.7 1481.67 Q1253.64 1486.25 1247.83 1486.25 Q1242.02 1486.25 1238.94 1481.67 Q1235.89 1477.06 1235.89 1468.33 Q1235.89 1459.58 1238.94 1455 Q1242.02 1450.39 1247.83 1450.39 Z" fill="#000000" fill-rule="nonzero" fill-opacity="1" /><path clip-path="url(#clip620)" d="M1678.21 1466.95 Q1681.57 1467.66 1683.44 1469.93 Q1685.34 1472.2 1685.34 1475.53 Q1685.34 1480.65 1681.82 1483.45 Q1678.3 1486.25 1671.82 1486.25 Q1669.65 1486.25 1667.33 1485.81 Q1665.04 1485.39 1662.59 1484.54 L1662.59 1480.02 Q1664.53 1481.16 1666.85 1481.74 Q1669.16 1482.32 1671.68 1482.32 Q1676.08 1482.32 1678.37 1480.58 Q1680.69 1478.84 1680.69 1475.53 Q1680.69 1472.48 1678.54 1470.77 Q1676.41 1469.03 1672.59 1469.03 L1668.56 1469.03 L1668.56 1465.19 L1672.77 1465.19 Q1676.22 1465.19 1678.05 1463.82 Q1679.88 1462.43 1679.88 1459.84 Q1679.88 1457.18 1677.98 1455.77 Q1676.11 1454.33 1672.59 1454.33 Q1670.67 1454.33 1668.47 1454.75 Q1666.27 1455.16 1663.63 1456.04 L1663.63 1451.88 Q1666.29 1451.14 1668.61 1450.77 Q1670.94 1450.39 1673 1450.39 Q1678.33 1450.39 1681.43 1452.83 Q1684.53 1455.23 1684.53 1459.35 Q1684.53 1462.22 1682.89 1464.21 Q1681.24 1466.18 1678.21 1466.95 Z" fill="#000000" fill-rule="nonzero" fill-opacity="1" /><path clip-path="url(#clip620)" d="M1704.21 1454.1 Q1700.6 1454.1 1698.77 1457.66 Q1696.96 1461.2 1696.96 1468.33 Q1696.96 1475.44 1698.77 1479.01 Q1700.6 1482.55 1704.21 1482.55 Q1707.84 1482.55 1709.65 1479.01 Q1711.48 1475.44 1711.48 1468.33 Q1711.48 1461.2 1709.65 1457.66 Q1707.84 1454.1 1704.21 1454.1 M1704.21 1450.39 Q1710.02 1450.39 1713.07 1455 Q1716.15 1459.58 1716.15 1468.33 Q1716.15 1477.06 1713.07 1481.67 Q1710.02 1486.25 1704.21 1486.25 Q1698.4 1486.25 1695.32 1481.67 Q1692.26 1477.06 1692.26 1468.33 Q1692.26 1459.58 1695.32 1455 Q1698.4 1450.39 1704.21 1450.39 Z" fill="#000000" fill-rule="nonzero" fill-opacity="1" /><path clip-path="url(#clip620)" d="M2133.98 1455.09 L2122.18 1473.54 L2133.98 1473.54 L2133.98 1455.09 M2132.76 1451.02 L2138.64 1451.02 L2138.64 1473.54 L2143.57 1473.54 L2143.57 1477.43 L2138.64 1477.43 L2138.64 1485.58 L2133.98 1485.58 L2133.98 1477.43 L2118.38 1477.43 L2118.38 1472.92 L2132.76 1451.02 Z" fill="#000000" fill-rule="nonzero" fill-opacity="1" /><path clip-path="url(#clip620)" d="M2161.3 1454.1 Q2157.69 1454.1 2155.86 1457.66 Q2154.05 1461.2 2154.05 1468.33 Q2154.05 1475.44 2155.86 1479.01 Q2157.69 1482.55 2161.3 1482.55 Q2164.93 1482.55 2166.74 1479.01 Q2168.57 1475.44 2168.57 1468.33 Q2168.57 1461.2 2166.74 1457.66 Q2164.93 1454.1 2161.3 1454.1 M2161.3 1450.39 Q2167.11 1450.39 2170.17 1455 Q2173.24 1459.58 2173.24 1468.33 Q2173.24 1477.06 2170.17 1481.67 Q2167.11 1486.25 2161.3 1486.25 Q2155.49 1486.25 2152.41 1481.67 Q2149.35 1477.06 2149.35 1468.33 Q2149.35 1459.58 2152.41 1455 Q2155.49 1450.39 2161.3 1450.39 Z" fill="#000000" fill-rule="nonzero" fill-opacity="1" /><path clip-path="url(#clip620)" d="M1300.45 1522.27 L1300.45 1532.4 L1312.52 1532.4 L1312.52 1536.95 L1300.45 1536.95 L1300.45 1556.3 Q1300.45 1560.66 1301.63 1561.9 Q1302.84 1563.14 1306.5 1563.14 L1312.52 1563.14 L1312.52 1568.04 L1306.5 1568.04 Q1299.72 1568.04 1297.14 1565.53 Q1294.56 1562.98 1294.56 1556.3 L1294.56 1536.95 L1290.27 1536.95 L1290.27 1532.4 L1294.56 1532.4 L1294.56 1522.27 L1300.45 1522.27 Z" fill="#000000" fill-rule="nonzero" fill-opacity="1" /><polyline clip-path="url(#clip620)" style="stroke:#000000; stroke-linecap:round; stroke-linejoin:round; stroke-width:4; stroke-opacity:1; fill:none" points="250.028,1423.18 250.028,47.2441 "/>
<polyline clip-path="url(#clip620)" style="stroke:#000000; stroke-linecap:round; stroke-linejoin:round; stroke-width:4; stroke-opacity:1; fill:none" points="250.028,1423.18 268.926,1423.18 "/>
<polyline clip-path="url(#clip620)" style="stroke:#000000; stroke-linecap:round; stroke-linejoin:round; stroke-width:4; stroke-opacity:1; fill:none" points="250.028,1122.1 268.926,1122.1 "/>
<polyline clip-path="url(#clip620)" style="stroke:#000000; stroke-linecap:round; stroke-linejoin:round; stroke-width:4; stroke-opacity:1; fill:none" points="250.028,821.02 268.926,821.02 "/>
<polyline clip-path="url(#clip620)" style="stroke:#000000; stroke-linecap:round; stroke-linejoin:round; stroke-width:4; stroke-opacity:1; fill:none" points="250.028,519.94 268.926,519.94 "/>
<polyline clip-path="url(#clip620)" style="stroke:#000000; stroke-linecap:round; stroke-linejoin:round; stroke-width:4; stroke-opacity:1; fill:none" points="250.028,218.86 268.926,218.86 "/>
<path clip-path="url(#clip620)" d="M126.691 1408.98 Q123.08 1408.98 121.251 1412.54 Q119.445 1416.08 119.445 1423.21 Q119.445 1430.32 121.251 1433.89 Q123.08 1437.43 126.691 1437.43 Q130.325 1437.43 132.13 1433.89 Q133.959 1430.32 133.959 1423.21 Q133.959 1416.08 132.13 1412.54 Q130.325 1408.98 126.691 1408.98 M126.691 1405.27 Q132.501 1405.27 135.556 1409.88 Q138.635 1414.46 138.635 1423.21 Q138.635 1431.94 135.556 1436.55 Q132.501 1441.13 126.691 1441.13 Q120.88 1441.13 117.802 1436.55 Q114.746 1431.94 114.746 1423.21 Q114.746 1414.46 117.802 1409.88 Q120.88 1405.27 126.691 1405.27 Z" fill="#000000" fill-rule="nonzero" fill-opacity="1" /><path clip-path="url(#clip620)" d="M146.853 1434.58 L151.737 1434.58 L151.737 1440.46 L146.853 1440.46 L146.853 1434.58 Z" fill="#000000" fill-rule="nonzero" fill-opacity="1" /><path clip-path="url(#clip620)" d="M171.922 1408.98 Q168.311 1408.98 166.482 1412.54 Q164.677 1416.08 164.677 1423.21 Q164.677 1430.32 166.482 1433.89 Q168.311 1437.43 171.922 1437.43 Q175.556 1437.43 177.362 1433.89 Q179.19 1430.32 179.19 1423.21 Q179.19 1416.08 177.362 1412.54 Q175.556 1408.98 171.922 1408.98 M171.922 1405.27 Q177.732 1405.27 180.788 1409.88 Q183.866 1414.46 183.866 1423.21 Q183.866 1431.94 180.788 1436.55 Q177.732 1441.13 171.922 1441.13 Q166.112 1441.13 163.033 1436.55 Q159.978 1431.94 159.978 1423.21 Q159.978 1414.46 163.033 1409.88 Q166.112 1405.27 171.922 1405.27 Z" fill="#000000" fill-rule="nonzero" fill-opacity="1" /><path clip-path="url(#clip620)" d="M202.084 1408.98 Q198.473 1408.98 196.644 1412.54 Q194.838 1416.08 194.838 1423.21 Q194.838 1430.32 196.644 1433.89 Q198.473 1437.43 202.084 1437.43 Q205.718 1437.43 207.524 1433.89 Q209.352 1430.32 209.352 1423.21 Q209.352 1416.08 207.524 1412.54 Q205.718 1408.98 202.084 1408.98 M202.084 1405.27 Q207.894 1405.27 210.949 1409.88 Q214.028 1414.46 214.028 1423.21 Q214.028 1431.94 210.949 1436.55 Q207.894 1441.13 202.084 1441.13 Q196.274 1441.13 193.195 1436.55 Q190.139 1431.94 190.139 1423.21 Q190.139 1414.46 193.195 1409.88 Q196.274 1405.27 202.084 1405.27 Z" fill="#000000" fill-rule="nonzero" fill-opacity="1" /><path clip-path="url(#clip620)" d="M128.288 1107.9 Q124.677 1107.9 122.848 1111.46 Q121.043 1115 121.043 1122.13 Q121.043 1129.24 122.848 1132.81 Q124.677 1136.35 128.288 1136.35 Q131.922 1136.35 133.728 1132.81 Q135.556 1129.24 135.556 1122.13 Q135.556 1115 133.728 1111.46 Q131.922 1107.9 128.288 1107.9 M128.288 1104.19 Q134.098 1104.19 137.154 1108.8 Q140.232 1113.38 140.232 1122.13 Q140.232 1130.86 137.154 1135.47 Q134.098 1140.05 128.288 1140.05 Q122.478 1140.05 119.399 1135.47 Q116.343 1130.86 116.343 1122.13 Q116.343 1113.38 119.399 1108.8 Q122.478 1104.19 128.288 1104.19 Z" fill="#000000" fill-rule="nonzero" fill-opacity="1" /><path clip-path="url(#clip620)" d="M148.45 1133.5 L153.334 1133.5 L153.334 1139.38 L148.45 1139.38 L148.45 1133.5 Z" fill="#000000" fill-rule="nonzero" fill-opacity="1" /><path clip-path="url(#clip620)" d="M173.519 1107.9 Q169.908 1107.9 168.079 1111.46 Q166.274 1115 166.274 1122.13 Q166.274 1129.24 168.079 1132.81 Q169.908 1136.35 173.519 1136.35 Q177.153 1136.35 178.959 1132.81 Q180.788 1129.24 180.788 1122.13 Q180.788 1115 178.959 1111.46 Q177.153 1107.9 173.519 1107.9 M173.519 1104.19 Q179.329 1104.19 182.385 1108.8 Q185.463 1113.38 185.463 1122.13 Q185.463 1130.86 182.385 1135.47 Q179.329 1140.05 173.519 1140.05 Q167.709 1140.05 164.63 1135.47 Q161.575 1130.86 161.575 1122.13 Q161.575 1113.38 164.63 1108.8 Q167.709 1104.19 173.519 1104.19 Z" fill="#000000" fill-rule="nonzero" fill-opacity="1" /><path clip-path="url(#clip620)" d="M197.709 1135.44 L214.028 1135.44 L214.028 1139.38 L192.084 1139.38 L192.084 1135.44 Q194.746 1132.69 199.329 1128.06 Q203.936 1123.41 205.116 1122.07 Q207.362 1119.54 208.241 1117.81 Q209.144 1116.05 209.144 1114.36 Q209.144 1111.6 207.199 1109.87 Q205.278 1108.13 202.176 1108.13 Q199.977 1108.13 197.524 1108.89 Q195.093 1109.66 192.315 1111.21 L192.315 1106.49 Q195.139 1105.35 197.593 1104.77 Q200.047 1104.19 202.084 1104.19 Q207.454 1104.19 210.649 1106.88 Q213.843 1109.57 213.843 1114.06 Q213.843 1116.19 213.033 1118.11 Q212.246 1120 210.139 1122.6 Q209.561 1123.27 206.459 1126.49 Q203.357 1129.68 197.709 1135.44 Z" fill="#000000" fill-rule="nonzero" fill-opacity="1" /><path clip-path="url(#clip620)" d="M126.205 806.818 Q122.593 806.818 120.765 810.383 Q118.959 813.925 118.959 821.054 Q118.959 828.161 120.765 831.726 Q122.593 835.267 126.205 835.267 Q129.839 835.267 131.644 831.726 Q133.473 828.161 133.473 821.054 Q133.473 813.925 131.644 810.383 Q129.839 806.818 126.205 806.818 M126.205 803.115 Q132.015 803.115 135.07 807.721 Q138.149 812.305 138.149 821.054 Q138.149 829.781 135.07 834.388 Q132.015 838.971 126.205 838.971 Q120.394 838.971 117.316 834.388 Q114.26 829.781 114.26 821.054 Q114.26 812.305 117.316 807.721 Q120.394 803.115 126.205 803.115 Z" fill="#000000" fill-rule="nonzero" fill-opacity="1" /><path clip-path="url(#clip620)" d="M146.366 832.42 L151.251 832.42 L151.251 838.3 L146.366 838.3 L146.366 832.42 Z" fill="#000000" fill-rule="nonzero" fill-opacity="1" /><path clip-path="url(#clip620)" d="M171.436 806.818 Q167.825 806.818 165.996 810.383 Q164.19 813.925 164.19 821.054 Q164.19 828.161 165.996 831.726 Q167.825 835.267 171.436 835.267 Q175.07 835.267 176.876 831.726 Q178.704 828.161 178.704 821.054 Q178.704 813.925 176.876 810.383 Q175.07 806.818 171.436 806.818 M171.436 803.115 Q177.246 803.115 180.301 807.721 Q183.38 812.305 183.38 821.054 Q183.38 829.781 180.301 834.388 Q177.246 838.971 171.436 838.971 Q165.626 838.971 162.547 834.388 Q159.491 829.781 159.491 821.054 Q159.491 812.305 162.547 807.721 Q165.626 803.115 171.436 803.115 Z" fill="#000000" fill-rule="nonzero" fill-opacity="1" /><path clip-path="url(#clip620)" d="M204.445 807.814 L192.639 826.263 L204.445 826.263 L204.445 807.814 M203.218 803.74 L209.098 803.74 L209.098 826.263 L214.028 826.263 L214.028 830.152 L209.098 830.152 L209.098 838.3 L204.445 838.3 L204.445 830.152 L188.843 830.152 L188.843 825.638 L203.218 803.74 Z" fill="#000000" fill-rule="nonzero" fill-opacity="1" /><path clip-path="url(#clip620)" d="M126.529 505.738 Q122.918 505.738 121.089 509.303 Q119.283 512.845 119.283 519.974 Q119.283 527.081 121.089 530.646 Q122.918 534.187 126.529 534.187 Q130.163 534.187 131.968 530.646 Q133.797 527.081 133.797 519.974 Q133.797 512.845 131.968 509.303 Q130.163 505.738 126.529 505.738 M126.529 502.035 Q132.339 502.035 135.394 506.641 Q138.473 511.225 138.473 519.974 Q138.473 528.701 135.394 533.308 Q132.339 537.891 126.529 537.891 Q120.718 537.891 117.64 533.308 Q114.584 528.701 114.584 519.974 Q114.584 511.225 117.64 506.641 Q120.718 502.035 126.529 502.035 Z" fill="#000000" fill-rule="nonzero" fill-opacity="1" /><path clip-path="url(#clip620)" d="M146.691 531.34 L151.575 531.34 L151.575 537.22 L146.691 537.22 L146.691 531.34 Z" fill="#000000" fill-rule="nonzero" fill-opacity="1" /><path clip-path="url(#clip620)" d="M171.76 505.738 Q168.149 505.738 166.32 509.303 Q164.515 512.845 164.515 519.974 Q164.515 527.081 166.32 530.646 Q168.149 534.187 171.76 534.187 Q175.394 534.187 177.2 530.646 Q179.028 527.081 179.028 519.974 Q179.028 512.845 177.2 509.303 Q175.394 505.738 171.76 505.738 M171.76 502.035 Q177.57 502.035 180.626 506.641 Q183.704 511.225 183.704 519.974 Q183.704 528.701 180.626 533.308 Q177.57 537.891 171.76 537.891 Q165.95 537.891 162.871 533.308 Q159.815 528.701 159.815 519.974 Q159.815 511.225 162.871 506.641 Q165.95 502.035 171.76 502.035 Z" fill="#000000" fill-rule="nonzero" fill-opacity="1" /><path clip-path="url(#clip620)" d="M202.5 518.076 Q199.352 518.076 197.5 520.229 Q195.672 522.382 195.672 526.132 Q195.672 529.859 197.5 532.035 Q199.352 534.187 202.5 534.187 Q205.649 534.187 207.477 532.035 Q209.329 529.859 209.329 526.132 Q209.329 522.382 207.477 520.229 Q205.649 518.076 202.5 518.076 M211.783 503.424 L211.783 507.683 Q210.024 506.85 208.218 506.41 Q206.436 505.97 204.676 505.97 Q200.047 505.97 197.593 509.095 Q195.163 512.22 194.815 518.539 Q196.181 516.525 198.241 515.461 Q200.301 514.373 202.778 514.373 Q207.987 514.373 210.996 517.544 Q214.028 520.692 214.028 526.132 Q214.028 531.456 210.88 534.673 Q207.732 537.891 202.5 537.891 Q196.505 537.891 193.334 533.308 Q190.163 528.701 190.163 519.974 Q190.163 511.78 194.051 506.919 Q197.94 502.035 204.491 502.035 Q206.25 502.035 208.033 502.382 Q209.838 502.729 211.783 503.424 Z" fill="#000000" fill-rule="nonzero" fill-opacity="1" /><path clip-path="url(#clip620)" d="M126.783 204.658 Q123.172 204.658 121.343 208.223 Q119.538 211.765 119.538 218.894 Q119.538 226.001 121.343 229.566 Q123.172 233.107 126.783 233.107 Q130.417 233.107 132.223 229.566 Q134.052 226.001 134.052 218.894 Q134.052 211.765 132.223 208.223 Q130.417 204.658 126.783 204.658 M126.783 200.955 Q132.593 200.955 135.649 205.561 Q138.728 210.144 138.728 218.894 Q138.728 227.621 135.649 232.228 Q132.593 236.811 126.783 236.811 Q120.973 236.811 117.894 232.228 Q114.839 227.621 114.839 218.894 Q114.839 210.144 117.894 205.561 Q120.973 200.955 126.783 200.955 Z" fill="#000000" fill-rule="nonzero" fill-opacity="1" /><path clip-path="url(#clip620)" d="M146.945 230.26 L151.829 230.26 L151.829 236.14 L146.945 236.14 L146.945 230.26 Z" fill="#000000" fill-rule="nonzero" fill-opacity="1" /><path clip-path="url(#clip620)" d="M172.014 204.658 Q168.403 204.658 166.575 208.223 Q164.769 211.765 164.769 218.894 Q164.769 226.001 166.575 229.566 Q168.403 233.107 172.014 233.107 Q175.649 233.107 177.454 229.566 Q179.283 226.001 179.283 218.894 Q179.283 211.765 177.454 208.223 Q175.649 204.658 172.014 204.658 M172.014 200.955 Q177.825 200.955 180.88 205.561 Q183.959 210.144 183.959 218.894 Q183.959 227.621 180.88 232.228 Q177.825 236.811 172.014 236.811 Q166.204 236.811 163.126 232.228 Q160.07 227.621 160.07 218.894 Q160.07 210.144 163.126 205.561 Q166.204 200.955 172.014 200.955 Z" fill="#000000" fill-rule="nonzero" fill-opacity="1" /><path clip-path="url(#clip620)" d="M202.176 219.728 Q198.843 219.728 196.922 221.51 Q195.024 223.293 195.024 226.418 Q195.024 229.543 196.922 231.325 Q198.843 233.107 202.176 233.107 Q205.51 233.107 207.431 231.325 Q209.352 229.519 209.352 226.418 Q209.352 223.293 207.431 221.51 Q205.533 219.728 202.176 219.728 M197.5 217.737 Q194.491 216.996 192.801 214.936 Q191.135 212.876 191.135 209.913 Q191.135 205.77 194.075 203.362 Q197.037 200.955 202.176 200.955 Q207.338 200.955 210.278 203.362 Q213.218 205.77 213.218 209.913 Q213.218 212.876 211.528 214.936 Q209.861 216.996 206.875 217.737 Q210.255 218.524 212.13 220.816 Q214.028 223.107 214.028 226.418 Q214.028 231.441 210.949 234.126 Q207.894 236.811 202.176 236.811 Q196.459 236.811 193.38 234.126 Q190.325 231.441 190.325 226.418 Q190.325 223.107 192.223 220.816 Q194.121 218.524 197.5 217.737 M195.787 210.353 Q195.787 213.038 197.454 214.543 Q199.144 216.047 202.176 216.047 Q205.186 216.047 206.875 214.543 Q208.588 213.038 208.588 210.353 Q208.588 207.668 206.875 206.163 Q205.186 204.658 202.176 204.658 Q199.144 204.658 197.454 206.163 Q195.787 207.668 195.787 210.353 Z" fill="#000000" fill-rule="nonzero" fill-opacity="1" /><path clip-path="url(#clip620)" d="M33.8307 800.206 Q33.2578 801.193 33.0032 802.37 Q32.7167 803.516 32.7167 804.916 Q32.7167 809.882 35.9632 812.555 Q39.1779 815.197 45.2253 815.197 L64.0042 815.197 L64.0042 821.085 L28.3562 821.085 L28.3562 815.197 L33.8944 815.197 Q30.6479 813.351 29.0883 810.391 Q27.4968 807.431 27.4968 803.198 Q27.4968 802.593 27.5923 801.861 Q27.656 801.129 27.8151 800.238 L33.8307 800.206 Z" fill="#000000" fill-rule="nonzero" fill-opacity="1" /><path clip-path="url(#clip620)" d="M42.4881 765.576 L64.0042 765.576 L64.0042 771.433 L42.679 771.433 Q37.6183 771.433 35.1038 773.406 Q32.5894 775.38 32.5894 779.326 Q32.5894 784.069 35.6131 786.806 Q38.6368 789.543 43.8567 789.543 L64.0042 789.543 L64.0042 795.432 L14.479 795.432 L14.479 789.543 L33.8944 789.543 Q30.6797 787.443 29.0883 784.61 Q27.4968 781.745 27.4968 778.021 Q27.4968 771.878 31.3163 768.727 Q35.1038 765.576 42.4881 765.576 Z" fill="#000000" fill-rule="nonzero" fill-opacity="1" /><path clip-path="url(#clip620)" d="M32.4621 740.082 Q32.4621 744.792 36.1542 747.53 Q39.8145 750.267 46.212 750.267 Q52.6095 750.267 56.3017 747.561 Q59.9619 744.824 59.9619 740.082 Q59.9619 735.403 56.2698 732.666 Q52.5777 729.928 46.212 729.928 Q39.8781 729.928 36.186 732.666 Q32.4621 735.403 32.4621 740.082 M27.4968 740.082 Q27.4968 732.443 32.4621 728.082 Q37.4273 723.722 46.212 723.722 Q54.9649 723.722 59.9619 728.082 Q64.9272 732.443 64.9272 740.082 Q64.9272 747.752 59.9619 752.113 Q54.9649 756.442 46.212 756.442 Q37.4273 756.442 32.4621 752.113 Q27.4968 747.752 27.4968 740.082 Z" fill="#000000" fill-rule="nonzero" fill-opacity="1" /><path clip-path="url(#clip620)" d="M14.5426 699.946 Q21.8632 704.211 29.0246 706.28 Q36.186 708.349 43.5384 708.349 Q50.8908 708.349 58.1159 706.28 Q65.3091 704.179 72.5979 699.946 L72.5979 705.039 Q65.1182 709.813 57.8931 712.2 Q50.668 714.555 43.5384 714.555 Q36.4406 714.555 29.2474 712.2 Q22.0542 709.845 14.5426 705.039 L14.5426 699.946 Z" fill="#000000" fill-rule="nonzero" fill-opacity="1" /><path clip-path="url(#clip620)" d="M18.2347 682.79 L28.3562 682.79 L28.3562 670.727 L32.9077 670.727 L32.9077 682.79 L52.2594 682.79 Q56.6199 682.79 57.8613 681.613 Q59.1026 680.403 59.1026 676.743 L59.1026 670.727 L64.0042 670.727 L64.0042 676.743 Q64.0042 683.522 61.4897 686.101 Q58.9434 688.679 52.2594 688.679 L32.9077 688.679 L32.9077 692.976 L28.3562 692.976 L28.3562 688.679 L18.2347 688.679 L18.2347 682.79 Z" fill="#000000" fill-rule="nonzero" fill-opacity="1" /><path clip-path="url(#clip620)" d="M14.5426 663.948 L14.5426 658.855 Q22.0542 654.081 29.2474 651.726 Q36.4406 649.339 43.5384 649.339 Q50.668 649.339 57.8931 651.726 Q65.1182 654.081 72.5979 658.855 L72.5979 663.948 Q65.3091 659.715 58.1159 657.646 Q50.8908 655.545 43.5384 655.545 Q36.186 655.545 29.0246 657.646 Q21.8632 659.715 14.5426 663.948 Z" fill="#000000" fill-rule="nonzero" fill-opacity="1" /><path clip-path="url(#clip621)" d="M365.682 1418.66 L365.682 1423.18 L411.326 1423.18 L411.326 1418.66 L365.682 1418.66 L365.682 1418.66  Z" fill="#009af9" fill-rule="evenodd" fill-opacity="1"/>
<polyline clip-path="url(#clip621)" style="stroke:#000000; stroke-linecap:round; stroke-linejoin:round; stroke-width:4; stroke-opacity:1; fill:none" points="365.682,1418.66 365.682,1423.18 411.326,1423.18 411.326,1418.66 365.682,1418.66 "/>
<path clip-path="url(#clip621)" d="M411.326 1373.5 L411.326 1423.18 L456.971 1423.18 L456.971 1373.5 L411.326 1373.5 L411.326 1373.5  Z" fill="#009af9" fill-rule="evenodd" fill-opacity="1"/>
<polyline clip-path="url(#clip621)" style="stroke:#000000; stroke-linecap:round; stroke-linejoin:round; stroke-width:4; stroke-opacity:1; fill:none" points="411.326,1373.5 411.326,1423.18 456.971,1423.18 456.971,1373.5 411.326,1373.5 "/>
<path clip-path="url(#clip621)" d="M456.971 1236.51 L456.971 1423.18 L502.615 1423.18 L502.615 1236.51 L456.971 1236.51 L456.971 1236.51  Z" fill="#009af9" fill-rule="evenodd" fill-opacity="1"/>
<polyline clip-path="url(#clip621)" style="stroke:#000000; stroke-linecap:round; stroke-linejoin:round; stroke-width:4; stroke-opacity:1; fill:none" points="456.971,1236.51 456.971,1423.18 502.615,1423.18 502.615,1236.51 456.971,1236.51 "/>
<path clip-path="url(#clip621)" d="M502.615 1027.26 L502.615 1423.18 L548.259 1423.18 L548.259 1027.26 L502.615 1027.26 L502.615 1027.26  Z" fill="#009af9" fill-rule="evenodd" fill-opacity="1"/>
<polyline clip-path="url(#clip621)" style="stroke:#000000; stroke-linecap:round; stroke-linejoin:round; stroke-width:4; stroke-opacity:1; fill:none" points="502.615,1027.26 502.615,1423.18 548.259,1423.18 548.259,1027.26 502.615,1027.26 "/>
<path clip-path="url(#clip621)" d="M548.259 766.825 L548.259 1423.18 L593.904 1423.18 L593.904 766.825 L548.259 766.825 L548.259 766.825  Z" fill="#009af9" fill-rule="evenodd" fill-opacity="1"/>
<polyline clip-path="url(#clip621)" style="stroke:#000000; stroke-linecap:round; stroke-linejoin:round; stroke-width:4; stroke-opacity:1; fill:none" points="548.259,766.825 548.259,1423.18 593.904,1423.18 593.904,766.825 548.259,766.825 "/>
<path clip-path="url(#clip621)" d="M593.904 617.791 L593.904 1423.18 L639.548 1423.18 L639.548 617.791 L593.904 617.791 L593.904 617.791  Z" fill="#009af9" fill-rule="evenodd" fill-opacity="1"/>
<polyline clip-path="url(#clip621)" style="stroke:#000000; stroke-linecap:round; stroke-linejoin:round; stroke-width:4; stroke-opacity:1; fill:none" points="593.904,617.791 593.904,1423.18 639.548,1423.18 639.548,617.791 593.904,617.791 "/>
<path clip-path="url(#clip621)" d="M639.548 367.894 L639.548 1423.18 L685.193 1423.18 L685.193 367.894 L639.548 367.894 L639.548 367.894  Z" fill="#009af9" fill-rule="evenodd" fill-opacity="1"/>
<polyline clip-path="url(#clip621)" style="stroke:#000000; stroke-linecap:round; stroke-linejoin:round; stroke-width:4; stroke-opacity:1; fill:none" points="639.548,367.894 639.548,1423.18 685.193,1423.18 685.193,367.894 639.548,367.894 "/>
<path clip-path="url(#clip621)" d="M685.193 245.957 L685.193 1423.18 L730.837 1423.18 L730.837 245.957 L685.193 245.957 L685.193 245.957  Z" fill="#009af9" fill-rule="evenodd" fill-opacity="1"/>
<polyline clip-path="url(#clip621)" style="stroke:#000000; stroke-linecap:round; stroke-linejoin:round; stroke-width:4; stroke-opacity:1; fill:none" points="685.193,245.957 685.193,1423.18 730.837,1423.18 730.837,245.957 685.193,245.957 "/>
<path clip-path="url(#clip621)" d="M730.837 146.601 L730.837 1423.18 L776.481 1423.18 L776.481 146.601 L730.837 146.601 L730.837 146.601  Z" fill="#009af9" fill-rule="evenodd" fill-opacity="1"/>
<polyline clip-path="url(#clip621)" style="stroke:#000000; stroke-linecap:round; stroke-linejoin:round; stroke-width:4; stroke-opacity:1; fill:none" points="730.837,146.601 730.837,1423.18 776.481,1423.18 776.481,146.601 730.837,146.601 "/>
<path clip-path="url(#clip621)" d="M776.481 47.2441 L776.481 1423.18 L822.126 1423.18 L822.126 47.2441 L776.481 47.2441 L776.481 47.2441  Z" fill="#009af9" fill-rule="evenodd" fill-opacity="1"/>
<polyline clip-path="url(#clip621)" style="stroke:#000000; stroke-linecap:round; stroke-linejoin:round; stroke-width:4; stroke-opacity:1; fill:none" points="776.481,47.2441 776.481,1423.18 822.126,1423.18 822.126,47.2441 776.481,47.2441 "/>
<path clip-path="url(#clip621)" d="M822.126 236.925 L822.126 1423.18 L867.77 1423.18 L867.77 236.925 L822.126 236.925 L822.126 236.925  Z" fill="#009af9" fill-rule="evenodd" fill-opacity="1"/>
<polyline clip-path="url(#clip621)" style="stroke:#000000; stroke-linecap:round; stroke-linejoin:round; stroke-width:4; stroke-opacity:1; fill:none" points="822.126,236.925 822.126,1423.18 867.77,1423.18 867.77,236.925 822.126,236.925 "/>
<path clip-path="url(#clip621)" d="M867.77 239.935 L867.77 1423.18 L913.415 1423.18 L913.415 239.935 L867.77 239.935 L867.77 239.935  Z" fill="#009af9" fill-rule="evenodd" fill-opacity="1"/>
<polyline clip-path="url(#clip621)" style="stroke:#000000; stroke-linecap:round; stroke-linejoin:round; stroke-width:4; stroke-opacity:1; fill:none" points="867.77,239.935 867.77,1423.18 913.415,1423.18 913.415,239.935 867.77,239.935 "/>
<path clip-path="url(#clip621)" d="M913.415 363.378 L913.415 1423.18 L959.059 1423.18 L959.059 363.378 L913.415 363.378 L913.415 363.378  Z" fill="#009af9" fill-rule="evenodd" fill-opacity="1"/>
<polyline clip-path="url(#clip621)" style="stroke:#000000; stroke-linecap:round; stroke-linejoin:round; stroke-width:4; stroke-opacity:1; fill:none" points="913.415,363.378 913.415,1423.18 959.059,1423.18 959.059,363.378 913.415,363.378 "/>
<path clip-path="url(#clip621)" d="M959.059 533.488 L959.059 1423.18 L1004.7 1423.18 L1004.7 533.488 L959.059 533.488 L959.059 533.488  Z" fill="#009af9" fill-rule="evenodd" fill-opacity="1"/>
<polyline clip-path="url(#clip621)" style="stroke:#000000; stroke-linecap:round; stroke-linejoin:round; stroke-width:4; stroke-opacity:1; fill:none" points="959.059,533.488 959.059,1423.18 1004.7,1423.18 1004.7,533.488 959.059,533.488 "/>
<path clip-path="url(#clip621)" d="M1004.7 640.372 L1004.7 1423.18 L1050.35 1423.18 L1050.35 640.372 L1004.7 640.372 L1004.7 640.372  Z" fill="#009af9" fill-rule="evenodd" fill-opacity="1"/>
<polyline clip-path="url(#clip621)" style="stroke:#000000; stroke-linecap:round; stroke-linejoin:round; stroke-width:4; stroke-opacity:1; fill:none" points="1004.7,640.372 1004.7,1423.18 1050.35,1423.18 1050.35,640.372 1004.7,640.372 "/>
<path clip-path="url(#clip621)" d="M1050.35 703.599 L1050.35 1423.18 L1095.99 1423.18 L1095.99 703.599 L1050.35 703.599 L1050.35 703.599  Z" fill="#009af9" fill-rule="evenodd" fill-opacity="1"/>
<polyline clip-path="url(#clip621)" style="stroke:#000000; stroke-linecap:round; stroke-linejoin:round; stroke-width:4; stroke-opacity:1; fill:none" points="1050.35,703.599 1050.35,1423.18 1095.99,1423.18 1095.99,703.599 1050.35,703.599 "/>
<path clip-path="url(#clip621)" d="M1095.99 905.322 L1095.99 1423.18 L1141.64 1423.18 L1141.64 905.322 L1095.99 905.322 L1095.99 905.322  Z" fill="#009af9" fill-rule="evenodd" fill-opacity="1"/>
<polyline clip-path="url(#clip621)" style="stroke:#000000; stroke-linecap:round; stroke-linejoin:round; stroke-width:4; stroke-opacity:1; fill:none" points="1095.99,905.322 1095.99,1423.18 1141.64,1423.18 1141.64,905.322 1095.99,905.322 "/>
<path clip-path="url(#clip621)" d="M1141.64 1006.18 L1141.64 1423.18 L1187.28 1423.18 L1187.28 1006.18 L1141.64 1006.18 L1141.64 1006.18  Z" fill="#009af9" fill-rule="evenodd" fill-opacity="1"/>
<polyline clip-path="url(#clip621)" style="stroke:#000000; stroke-linecap:round; stroke-linejoin:round; stroke-width:4; stroke-opacity:1; fill:none" points="1141.64,1006.18 1141.64,1423.18 1187.28,1423.18 1187.28,1006.18 1141.64,1006.18 "/>
<path clip-path="url(#clip621)" d="M1187.28 1120.59 L1187.28 1423.18 L1232.93 1423.18 L1232.93 1120.59 L1187.28 1120.59 L1187.28 1120.59  Z" fill="#009af9" fill-rule="evenodd" fill-opacity="1"/>
<polyline clip-path="url(#clip621)" style="stroke:#000000; stroke-linecap:round; stroke-linejoin:round; stroke-width:4; stroke-opacity:1; fill:none" points="1187.28,1120.59 1187.28,1423.18 1232.93,1423.18 1232.93,1120.59 1187.28,1120.59 "/>
<path clip-path="url(#clip621)" d="M1232.93 1176.29 L1232.93 1423.18 L1278.57 1423.18 L1278.57 1176.29 L1232.93 1176.29 L1232.93 1176.29  Z" fill="#009af9" fill-rule="evenodd" fill-opacity="1"/>
<polyline clip-path="url(#clip621)" style="stroke:#000000; stroke-linecap:round; stroke-linejoin:round; stroke-width:4; stroke-opacity:1; fill:none" points="1232.93,1176.29 1232.93,1423.18 1278.57,1423.18 1278.57,1176.29 1232.93,1176.29 "/>
<path clip-path="url(#clip621)" d="M1278.57 1206.4 L1278.57 1423.18 L1324.21 1423.18 L1324.21 1206.4 L1278.57 1206.4 L1278.57 1206.4  Z" fill="#009af9" fill-rule="evenodd" fill-opacity="1"/>
<polyline clip-path="url(#clip621)" style="stroke:#000000; stroke-linecap:round; stroke-linejoin:round; stroke-width:4; stroke-opacity:1; fill:none" points="1278.57,1206.4 1278.57,1423.18 1324.21,1423.18 1324.21,1206.4 1278.57,1206.4 "/>
<path clip-path="url(#clip621)" d="M1324.21 1272.64 L1324.21 1423.18 L1369.86 1423.18 L1369.86 1272.64 L1324.21 1272.64 L1324.21 1272.64  Z" fill="#009af9" fill-rule="evenodd" fill-opacity="1"/>
<polyline clip-path="url(#clip621)" style="stroke:#000000; stroke-linecap:round; stroke-linejoin:round; stroke-width:4; stroke-opacity:1; fill:none" points="1324.21,1272.64 1324.21,1423.18 1369.86,1423.18 1369.86,1272.64 1324.21,1272.64 "/>
<path clip-path="url(#clip621)" d="M1369.86 1326.83 L1369.86 1423.18 L1415.5 1423.18 L1415.5 1326.83 L1369.86 1326.83 L1369.86 1326.83  Z" fill="#009af9" fill-rule="evenodd" fill-opacity="1"/>
<polyline clip-path="url(#clip621)" style="stroke:#000000; stroke-linecap:round; stroke-linejoin:round; stroke-width:4; stroke-opacity:1; fill:none" points="1369.86,1326.83 1369.86,1423.18 1415.5,1423.18 1415.5,1326.83 1369.86,1326.83 "/>
<path clip-path="url(#clip621)" d="M1415.5 1352.43 L1415.5 1423.18 L1461.15 1423.18 L1461.15 1352.43 L1415.5 1352.43 L1415.5 1352.43  Z" fill="#009af9" fill-rule="evenodd" fill-opacity="1"/>
<polyline clip-path="url(#clip621)" style="stroke:#000000; stroke-linecap:round; stroke-linejoin:round; stroke-width:4; stroke-opacity:1; fill:none" points="1415.5,1352.43 1415.5,1423.18 1461.15,1423.18 1461.15,1352.43 1415.5,1352.43 "/>
<path clip-path="url(#clip621)" d="M1461.15 1365.97 L1461.15 1423.18 L1506.79 1423.18 L1506.79 1365.97 L1461.15 1365.97 L1461.15 1365.97  Z" fill="#009af9" fill-rule="evenodd" fill-opacity="1"/>
<polyline clip-path="url(#clip621)" style="stroke:#000000; stroke-linecap:round; stroke-linejoin:round; stroke-width:4; stroke-opacity:1; fill:none" points="1461.15,1365.97 1461.15,1423.18 1506.79,1423.18 1506.79,1365.97 1461.15,1365.97 "/>
<path clip-path="url(#clip621)" d="M1506.79 1388.56 L1506.79 1423.18 L1552.44 1423.18 L1552.44 1388.56 L1506.79 1388.56 L1506.79 1388.56  Z" fill="#009af9" fill-rule="evenodd" fill-opacity="1"/>
<polyline clip-path="url(#clip621)" style="stroke:#000000; stroke-linecap:round; stroke-linejoin:round; stroke-width:4; stroke-opacity:1; fill:none" points="1506.79,1388.56 1506.79,1423.18 1552.44,1423.18 1552.44,1388.56 1506.79,1388.56 "/>
<path clip-path="url(#clip621)" d="M1552.44 1393.07 L1552.44 1423.18 L1598.08 1423.18 L1598.08 1393.07 L1552.44 1393.07 L1552.44 1393.07  Z" fill="#009af9" fill-rule="evenodd" fill-opacity="1"/>
<polyline clip-path="url(#clip621)" style="stroke:#000000; stroke-linecap:round; stroke-linejoin:round; stroke-width:4; stroke-opacity:1; fill:none" points="1552.44,1393.07 1552.44,1423.18 1598.08,1423.18 1598.08,1393.07 1552.44,1393.07 "/>
<path clip-path="url(#clip621)" d="M1598.08 1390.06 L1598.08 1423.18 L1643.72 1423.18 L1643.72 1390.06 L1598.08 1390.06 L1598.08 1390.06  Z" fill="#009af9" fill-rule="evenodd" fill-opacity="1"/>
<polyline clip-path="url(#clip621)" style="stroke:#000000; stroke-linecap:round; stroke-linejoin:round; stroke-width:4; stroke-opacity:1; fill:none" points="1598.08,1390.06 1598.08,1423.18 1643.72,1423.18 1643.72,1390.06 1598.08,1390.06 "/>
<path clip-path="url(#clip621)" d="M1643.72 1405.12 L1643.72 1423.18 L1689.37 1423.18 L1689.37 1405.12 L1643.72 1405.12 L1643.72 1405.12  Z" fill="#009af9" fill-rule="evenodd" fill-opacity="1"/>
<polyline clip-path="url(#clip621)" style="stroke:#000000; stroke-linecap:round; stroke-linejoin:round; stroke-width:4; stroke-opacity:1; fill:none" points="1643.72,1405.12 1643.72,1423.18 1689.37,1423.18 1689.37,1405.12 1643.72,1405.12 "/>
<path clip-path="url(#clip621)" d="M1689.37 1396.08 L1689.37 1423.18 L1735.01 1423.18 L1735.01 1396.08 L1689.37 1396.08 L1689.37 1396.08  Z" fill="#009af9" fill-rule="evenodd" fill-opacity="1"/>
<polyline clip-path="url(#clip621)" style="stroke:#000000; stroke-linecap:round; stroke-linejoin:round; stroke-width:4; stroke-opacity:1; fill:none" points="1689.37,1396.08 1689.37,1423.18 1735.01,1423.18 1735.01,1396.08 1689.37,1396.08 "/>
<path clip-path="url(#clip621)" d="M1735.01 1417.16 L1735.01 1423.18 L1780.66 1423.18 L1780.66 1417.16 L1735.01 1417.16 L1735.01 1417.16  Z" fill="#009af9" fill-rule="evenodd" fill-opacity="1"/>
<polyline clip-path="url(#clip621)" style="stroke:#000000; stroke-linecap:round; stroke-linejoin:round; stroke-width:4; stroke-opacity:1; fill:none" points="1735.01,1417.16 1735.01,1423.18 1780.66,1423.18 1780.66,1417.16 1735.01,1417.16 "/>
<path clip-path="url(#clip621)" d="M1780.66 1420.17 L1780.66 1423.18 L1826.3 1423.18 L1826.3 1420.17 L1780.66 1420.17 L1780.66 1420.17  Z" fill="#009af9" fill-rule="evenodd" fill-opacity="1"/>
<polyline clip-path="url(#clip621)" style="stroke:#000000; stroke-linecap:round; stroke-linejoin:round; stroke-width:4; stroke-opacity:1; fill:none" points="1780.66,1420.17 1780.66,1423.18 1826.3,1423.18 1826.3,1420.17 1780.66,1420.17 "/>
<path clip-path="url(#clip621)" d="M1826.3 1414.15 L1826.3 1423.18 L1871.95 1423.18 L1871.95 1414.15 L1826.3 1414.15 L1826.3 1414.15  Z" fill="#009af9" fill-rule="evenodd" fill-opacity="1"/>
<polyline clip-path="url(#clip621)" style="stroke:#000000; stroke-linecap:round; stroke-linejoin:round; stroke-width:4; stroke-opacity:1; fill:none" points="1826.3,1414.15 1826.3,1423.18 1871.95,1423.18 1871.95,1414.15 1826.3,1414.15 "/>
<path clip-path="url(#clip621)" d="M1871.95 1418.66 L1871.95 1423.18 L1917.59 1423.18 L1917.59 1418.66 L1871.95 1418.66 L1871.95 1418.66  Z" fill="#009af9" fill-rule="evenodd" fill-opacity="1"/>
<polyline clip-path="url(#clip621)" style="stroke:#000000; stroke-linecap:round; stroke-linejoin:round; stroke-width:4; stroke-opacity:1; fill:none" points="1871.95,1418.66 1871.95,1423.18 1917.59,1423.18 1917.59,1418.66 1871.95,1418.66 "/>
<path clip-path="url(#clip621)" d="M1917.59 1418.66 L1917.59 1423.18 L1963.24 1423.18 L1963.24 1418.66 L1917.59 1418.66 L1917.59 1418.66  Z" fill="#009af9" fill-rule="evenodd" fill-opacity="1"/>
<polyline clip-path="url(#clip621)" style="stroke:#000000; stroke-linecap:round; stroke-linejoin:round; stroke-width:4; stroke-opacity:1; fill:none" points="1917.59,1418.66 1917.59,1423.18 1963.24,1423.18 1963.24,1418.66 1917.59,1418.66 "/>
<path clip-path="url(#clip621)" d="M1963.24 1423.18 L1963.24 1423.18 L2008.88 1423.18 L2008.88 1423.18 L1963.24 1423.18 L1963.24 1423.18  Z" fill="#009af9" fill-rule="evenodd" fill-opacity="1"/>
<polyline clip-path="url(#clip621)" style="stroke:#000000; stroke-linecap:round; stroke-linejoin:round; stroke-width:4; stroke-opacity:1; fill:none" points="1963.24,1423.18 1963.24,1423.18 2008.88,1423.18 1963.24,1423.18 "/>
<path clip-path="url(#clip621)" d="M2008.88 1421.67 L2008.88 1423.18 L2054.52 1423.18 L2054.52 1421.67 L2008.88 1421.67 L2008.88 1421.67  Z" fill="#009af9" fill-rule="evenodd" fill-opacity="1"/>
<polyline clip-path="url(#clip621)" style="stroke:#000000; stroke-linecap:round; stroke-linejoin:round; stroke-width:4; stroke-opacity:1; fill:none" points="2008.88,1421.67 2008.88,1423.18 2054.52,1423.18 2054.52,1421.67 2008.88,1421.67 "/>
<path clip-path="url(#clip621)" d="M2054.52 1423.18 L2054.52 1423.18 L2100.17 1423.18 L2100.17 1423.18 L2054.52 1423.18 L2054.52 1423.18  Z" fill="#009af9" fill-rule="evenodd" fill-opacity="1"/>
<polyline clip-path="url(#clip621)" style="stroke:#000000; stroke-linecap:round; stroke-linejoin:round; stroke-width:4; stroke-opacity:1; fill:none" points="2054.52,1423.18 2054.52,1423.18 2100.17,1423.18 2054.52,1423.18 "/>
<path clip-path="url(#clip621)" d="M2100.17 1423.18 L2100.17 1423.18 L2145.81 1423.18 L2145.81 1423.18 L2100.17 1423.18 L2100.17 1423.18  Z" fill="#009af9" fill-rule="evenodd" fill-opacity="1"/>
<polyline clip-path="url(#clip621)" style="stroke:#000000; stroke-linecap:round; stroke-linejoin:round; stroke-width:4; stroke-opacity:1; fill:none" points="2100.17,1423.18 2100.17,1423.18 2145.81,1423.18 2100.17,1423.18 "/>
<path clip-path="url(#clip621)" d="M2145.81 1423.18 L2145.81 1423.18 L2191.46 1423.18 L2191.46 1423.18 L2145.81 1423.18 L2145.81 1423.18  Z" fill="#009af9" fill-rule="evenodd" fill-opacity="1"/>
<polyline clip-path="url(#clip621)" style="stroke:#000000; stroke-linecap:round; stroke-linejoin:round; stroke-width:4; stroke-opacity:1; fill:none" points="2145.81,1423.18 2145.81,1423.18 2191.46,1423.18 2145.81,1423.18 "/>
<path clip-path="url(#clip621)" d="M2191.46 1421.67 L2191.46 1423.18 L2237.1 1423.18 L2237.1 1421.67 L2191.46 1421.67 L2191.46 1421.67  Z" fill="#009af9" fill-rule="evenodd" fill-opacity="1"/>
<polyline clip-path="url(#clip621)" style="stroke:#000000; stroke-linecap:round; stroke-linejoin:round; stroke-width:4; stroke-opacity:1; fill:none" points="2191.46,1421.67 2191.46,1423.18 2237.1,1423.18 2237.1,1421.67 2191.46,1421.67 "/>
<circle clip-path="url(#clip621)" style="fill:#009af9; stroke:none; fill-opacity:0" cx="388.504" cy="1418.66" r="2"/>
<circle clip-path="url(#clip621)" style="fill:#009af9; stroke:none; fill-opacity:0" cx="434.149" cy="1373.5" r="2"/>
<circle clip-path="url(#clip621)" style="fill:#009af9; stroke:none; fill-opacity:0" cx="479.793" cy="1236.51" r="2"/>
<circle clip-path="url(#clip621)" style="fill:#009af9; stroke:none; fill-opacity:0" cx="525.437" cy="1027.26" r="2"/>
<circle clip-path="url(#clip621)" style="fill:#009af9; stroke:none; fill-opacity:0" cx="571.082" cy="766.825" r="2"/>
<circle clip-path="url(#clip621)" style="fill:#009af9; stroke:none; fill-opacity:0" cx="616.726" cy="617.791" r="2"/>
<circle clip-path="url(#clip621)" style="fill:#009af9; stroke:none; fill-opacity:0" cx="662.37" cy="367.894" r="2"/>
<circle clip-path="url(#clip621)" style="fill:#009af9; stroke:none; fill-opacity:0" cx="708.015" cy="245.957" r="2"/>
<circle clip-path="url(#clip621)" style="fill:#009af9; stroke:none; fill-opacity:0" cx="753.659" cy="146.601" r="2"/>
<circle clip-path="url(#clip621)" style="fill:#009af9; stroke:none; fill-opacity:0" cx="799.304" cy="47.2441" r="2"/>
<circle clip-path="url(#clip621)" style="fill:#009af9; stroke:none; fill-opacity:0" cx="844.948" cy="236.925" r="2"/>
<circle clip-path="url(#clip621)" style="fill:#009af9; stroke:none; fill-opacity:0" cx="890.592" cy="239.935" r="2"/>
<circle clip-path="url(#clip621)" style="fill:#009af9; stroke:none; fill-opacity:0" cx="936.237" cy="363.378" r="2"/>
<circle clip-path="url(#clip621)" style="fill:#009af9; stroke:none; fill-opacity:0" cx="981.881" cy="533.488" r="2"/>
<circle clip-path="url(#clip621)" style="fill:#009af9; stroke:none; fill-opacity:0" cx="1027.53" cy="640.372" r="2"/>
<circle clip-path="url(#clip621)" style="fill:#009af9; stroke:none; fill-opacity:0" cx="1073.17" cy="703.599" r="2"/>
<circle clip-path="url(#clip621)" style="fill:#009af9; stroke:none; fill-opacity:0" cx="1118.81" cy="905.322" r="2"/>
<circle clip-path="url(#clip621)" style="fill:#009af9; stroke:none; fill-opacity:0" cx="1164.46" cy="1006.18" r="2"/>
<circle clip-path="url(#clip621)" style="fill:#009af9; stroke:none; fill-opacity:0" cx="1210.1" cy="1120.59" r="2"/>
<circle clip-path="url(#clip621)" style="fill:#009af9; stroke:none; fill-opacity:0" cx="1255.75" cy="1176.29" r="2"/>
<circle clip-path="url(#clip621)" style="fill:#009af9; stroke:none; fill-opacity:0" cx="1301.39" cy="1206.4" r="2"/>
<circle clip-path="url(#clip621)" style="fill:#009af9; stroke:none; fill-opacity:0" cx="1347.04" cy="1272.64" r="2"/>
<circle clip-path="url(#clip621)" style="fill:#009af9; stroke:none; fill-opacity:0" cx="1392.68" cy="1326.83" r="2"/>
<circle clip-path="url(#clip621)" style="fill:#009af9; stroke:none; fill-opacity:0" cx="1438.33" cy="1352.43" r="2"/>
<circle clip-path="url(#clip621)" style="fill:#009af9; stroke:none; fill-opacity:0" cx="1483.97" cy="1365.97" r="2"/>
<circle clip-path="url(#clip621)" style="fill:#009af9; stroke:none; fill-opacity:0" cx="1529.61" cy="1388.56" r="2"/>
<circle clip-path="url(#clip621)" style="fill:#009af9; stroke:none; fill-opacity:0" cx="1575.26" cy="1393.07" r="2"/>
<circle clip-path="url(#clip621)" style="fill:#009af9; stroke:none; fill-opacity:0" cx="1620.9" cy="1390.06" r="2"/>
<circle clip-path="url(#clip621)" style="fill:#009af9; stroke:none; fill-opacity:0" cx="1666.55" cy="1405.12" r="2"/>
<circle clip-path="url(#clip621)" style="fill:#009af9; stroke:none; fill-opacity:0" cx="1712.19" cy="1396.08" r="2"/>
<circle clip-path="url(#clip621)" style="fill:#009af9; stroke:none; fill-opacity:0" cx="1757.84" cy="1417.16" r="2"/>
<circle clip-path="url(#clip621)" style="fill:#009af9; stroke:none; fill-opacity:0" cx="1803.48" cy="1420.17" r="2"/>
<circle clip-path="url(#clip621)" style="fill:#009af9; stroke:none; fill-opacity:0" cx="1849.12" cy="1414.15" r="2"/>
<circle clip-path="url(#clip621)" style="fill:#009af9; stroke:none; fill-opacity:0" cx="1894.77" cy="1418.66" r="2"/>
<circle clip-path="url(#clip621)" style="fill:#009af9; stroke:none; fill-opacity:0" cx="1940.41" cy="1418.66" r="2"/>
<circle clip-path="url(#clip621)" style="fill:#009af9; stroke:none; fill-opacity:0" cx="1986.06" cy="1423.18" r="2"/>
<circle clip-path="url(#clip621)" style="fill:#009af9; stroke:none; fill-opacity:0" cx="2031.7" cy="1421.67" r="2"/>
<circle clip-path="url(#clip621)" style="fill:#009af9; stroke:none; fill-opacity:0" cx="2077.35" cy="1423.18" r="2"/>
<circle clip-path="url(#clip621)" style="fill:#009af9; stroke:none; fill-opacity:0" cx="2122.99" cy="1423.18" r="2"/>
<circle clip-path="url(#clip621)" style="fill:#009af9; stroke:none; fill-opacity:0" cx="2168.64" cy="1423.18" r="2"/>
<circle clip-path="url(#clip621)" style="fill:#009af9; stroke:none; fill-opacity:0" cx="2214.28" cy="1421.67" r="2"/>
<polyline clip-path="url(#clip621)" style="stroke:#e26f46; stroke-linecap:round; stroke-linejoin:round; stroke-width:16; stroke-opacity:1; fill:none" points="324.602,1423.18 343.658,1423.12 362.715,1422.3 381.771,1418.67 400.827,1409.13 419.883,1390.29 438.94,1359.26 457.996,1314.09 477.052,1254.11 496.109,1179.87 515.165,1093.08 534.221,996.272 553.277,892.589 572.334,785.444 591.39,678.279 610.446,574.35 629.503,476.567 648.559,387.384 667.615,308.738 686.672,242.033 705.728,188.154 724.784,147.504 743.84,120.054 762.897,105.418 781.953,102.907 801.009,111.611 820.066,130.452 839.122,158.248 858.178,193.764 877.234,235.757 896.291,283.006 915.347,334.349 934.403,388.696 953.46,445.05 972.516,502.511 991.572,560.286 1010.63,617.687 1029.68,674.128 1048.74,729.122 1067.8,782.274 1086.85,833.275 1105.91,881.892 1124.97,927.961 1144.02,971.377 1163.08,1012.09 1182.14,1050.09 1201.19,1085.4 1220.25,1118.08 1239.3,1148.22 1258.36,1175.91 1277.42,1201.27 1296.47,1224.43 1315.53,1245.51 1334.59,1264.64 1353.64,1281.96 1372.7,1297.61 1391.75,1311.7 1410.81,1324.37 1429.87,1335.73 1448.92,1345.9 1467.98,1354.98 1487.04,1363.08 1506.09,1370.29 1525.15,1376.69 1544.2,1382.37 1563.26,1387.4 1582.32,1391.85 1601.37,1395.77 1620.43,1399.23 1639.49,1402.28 1658.54,1404.95 1677.6,1407.3 1696.66,1409.37 1715.71,1411.17 1734.77,1412.75 1753.82,1414.13 1772.88,1415.33 1791.94,1416.38 1810.99,1417.3 1830.05,1418.09 1849.11,1418.78 1868.16,1419.38 1887.22,1419.9 1906.27,1420.36 1925.33,1420.75 1944.39,1421.09 1963.44,1421.38 1982.5,1421.63 2001.56,1421.85 2020.61,1422.04 2039.67,1422.2 2058.72,1422.34 2077.78,1422.46 2096.84,1422.56 2115.89,1422.65 2134.95,1422.73 2154.01,1422.79 2173.06,1422.85 2192.12,1422.9 2211.18,1422.94 "/>
<path clip-path="url(#clip620)" d="M2019.96 248.629 L2282.66 248.629 L2282.66 93.1086 L2019.96 93.1086  Z" fill="#ffffff" fill-rule="evenodd" fill-opacity="1"/>
<polyline clip-path="url(#clip620)" style="stroke:#000000; stroke-linecap:round; stroke-linejoin:round; stroke-width:4; stroke-opacity:1; fill:none" points="2019.96,248.629 2282.66,248.629 2282.66,93.1086 2019.96,93.1086 2019.96,248.629 "/>
<path clip-path="url(#clip620)" d="M2043.33 165.685 L2183.51 165.685 L2183.51 124.213 L2043.33 124.213 L2043.33 165.685  Z" fill="#009af9" fill-rule="evenodd" fill-opacity="1"/>
<polyline clip-path="url(#clip620)" style="stroke:#000000; stroke-linecap:round; stroke-linejoin:round; stroke-width:4; stroke-opacity:1; fill:none" points="2043.33,165.685 2183.51,165.685 2183.51,124.213 2043.33,124.213 2043.33,165.685 "/>
<path clip-path="url(#clip620)" d="M2220.71 164.636 Q2218.91 169.266 2217.2 170.678 Q2215.48 172.09 2212.61 172.09 L2209.21 172.09 L2209.21 168.525 L2211.71 168.525 Q2213.47 168.525 2214.44 167.692 Q2215.41 166.858 2216.59 163.756 L2217.36 161.812 L2206.87 136.303 L2211.38 136.303 L2219.49 156.581 L2227.59 136.303 L2232.1 136.303 L2220.71 164.636 Z" fill="#000000" fill-rule="nonzero" fill-opacity="1" /><path clip-path="url(#clip620)" d="M2239.39 158.293 L2247.03 158.293 L2247.03 131.928 L2238.72 133.595 L2238.72 129.335 L2246.99 127.669 L2251.66 127.669 L2251.66 158.293 L2259.3 158.293 L2259.3 162.229 L2239.39 162.229 L2239.39 158.293 Z" fill="#000000" fill-rule="nonzero" fill-opacity="1" /><polyline clip-path="url(#clip620)" style="stroke:#e26f46; stroke-linecap:round; stroke-linejoin:round; stroke-width:16; stroke-opacity:1; fill:none" points="2043.33,196.789 2183.51,196.789 "/>
<path clip-path="url(#clip620)" d="M2220.71 216.476 Q2218.91 221.106 2217.2 222.518 Q2215.48 223.93 2212.61 223.93 L2209.21 223.93 L2209.21 220.365 L2211.71 220.365 Q2213.47 220.365 2214.44 219.532 Q2215.41 218.698 2216.59 215.596 L2217.36 213.652 L2206.87 188.143 L2211.38 188.143 L2219.49 208.421 L2227.59 188.143 L2232.1 188.143 L2220.71 216.476 Z" fill="#000000" fill-rule="nonzero" fill-opacity="1" /><path clip-path="url(#clip620)" d="M2242.61 210.133 L2258.93 210.133 L2258.93 214.069 L2236.99 214.069 L2236.99 210.133 Q2239.65 207.379 2244.23 202.749 Q2248.84 198.096 2250.02 196.754 Q2252.26 194.231 2253.14 192.495 Q2254.05 190.735 2254.05 189.046 Q2254.05 186.291 2252.1 184.555 Q2250.18 182.819 2247.08 182.819 Q2244.88 182.819 2242.43 183.583 Q2240 184.347 2237.22 185.897 L2237.22 181.175 Q2240.04 180.041 2242.5 179.462 Q2244.95 178.884 2246.99 178.884 Q2252.36 178.884 2255.55 181.569 Q2258.75 184.254 2258.75 188.745 Q2258.75 190.874 2257.94 192.796 Q2257.15 194.694 2255.04 197.286 Q2254.46 197.958 2251.36 201.175 Q2248.26 204.37 2242.61 210.133 Z" fill="#000000" fill-rule="nonzero" fill-opacity="1" /></svg>
