<?xml version="1.0" encoding="utf-8"?>
<svg xmlns="http://www.w3.org/2000/svg" xmlns:xlink="http://www.w3.org/1999/xlink" width="600" height="400" viewBox="0 0 2400 1600">
<defs>
  <clipPath id="clip750">
    <rect x="0" y="0" width="2400" height="1600"/>
  </clipPath>
</defs>
<path clip-path="url(#clip750)" d="M0 1600 L2400 1600 L2400 0 L0 0  Z" fill="#ffffff" fill-rule="evenodd" fill-opacity="1"/>
<defs>
  <clipPath id="clip751">
    <rect x="250" y="47" width="2104" height="1377"/>
  </clipPath>
</defs>
<path clip-path="url(#clip750)" d="M250.028 1423.18 L2352.76 1423.18 L2352.76 47.2441 L250.028 47.2441  Z" fill="#ffffff" fill-rule="evenodd" fill-opacity="1"/>
<polyline clip-path="url(#clip751)" style="stroke:#000000; stroke-linecap:round; stroke-linejoin:round; stroke-width:2; stroke-opacity:0.1; fill:none" points="318.896,1423.18 318.896,47.2441 "/>
<polyline clip-path="url(#clip751)" style="stroke:#000000; stroke-linecap:round; stroke-linejoin:round; stroke-width:2; stroke-opacity:0.1; fill:none" points="786.751,1423.18 786.751,47.2441 "/>
<polyline clip-path="url(#clip751)" style="stroke:#000000; stroke-linecap:round; stroke-linejoin:round; stroke-width:2; stroke-opacity:0.1; fill:none" points="1254.61,1423.18 1254.61,47.2441 "/>
<polyline clip-path="url(#clip751)" style="stroke:#000000; stroke-linecap:round; stroke-linejoin:round; stroke-width:2; stroke-opacity:0.1; fill:none" points="1722.46,1423.18 1722.46,47.2441 "/>
<polyline clip-path="url(#clip751)" style="stroke:#000000; stroke-linecap:round; stroke-linejoin:round; stroke-width:2; stroke-opacity:0.1; fill:none" points="2190.32,1423.18 2190.32,47.2441 "/>
<polyline clip-path="url(#clip751)" style="stroke:#000000; stroke-linecap:round; stroke-linejoin:round; stroke-width:2; stroke-opacity:0.1; fill:none" points="250.028,1423.18 2352.76,1423.18 "/>
<polyline clip-path="url(#clip751)" style="stroke:#000000; stroke-linecap:round; stroke-linejoin:round; stroke-width:2; stroke-opacity:0.1; fill:none" points="250.028,1118.09 2352.76,1118.09 "/>
<polyline clip-path="url(#clip751)" style="stroke:#000000; stroke-linecap:round; stroke-linejoin:round; stroke-width:2; stroke-opacity:0.1; fill:none" points="250.028,813.009 2352.76,813.009 "/>
<polyline clip-path="url(#clip751)" style="stroke:#000000; stroke-linecap:round; stroke-linejoin:round; stroke-width:2; stroke-opacity:0.1; fill:none" points="250.028,507.923 2352.76,507.923 "/>
<polyline clip-path="url(#clip751)" style="stroke:#000000; stroke-linecap:round; stroke-linejoin:round; stroke-width:2; stroke-opacity:0.1; fill:none" points="250.028,202.838 2352.76,202.838 "/>
<polyline clip-path="url(#clip750)" style="stroke:#000000; stroke-linecap:round; stroke-linejoin:round; stroke-width:4; stroke-opacity:1; fill:none" points="250.028,1423.18 2352.76,1423.18 "/>
<polyline clip-path="url(#clip750)" style="stroke:#000000; stroke-linecap:round; stroke-linejoin:round; stroke-width:4; stroke-opacity:1; fill:none" points="318.896,1423.18 318.896,1404.28 "/>
<polyline clip-path="url(#clip750)" style="stroke:#000000; stroke-linecap:round; stroke-linejoin:round; stroke-width:4; stroke-opacity:1; fill:none" points="786.751,1423.18 786.751,1404.28 "/>
<polyline clip-path="url(#clip750)" style="stroke:#000000; stroke-linecap:round; stroke-linejoin:round; stroke-width:4; stroke-opacity:1; fill:none" points="1254.61,1423.18 1254.61,1404.28 "/>
<polyline clip-path="url(#clip750)" style="stroke:#000000; stroke-linecap:round; stroke-linejoin:round; stroke-width:4; stroke-opacity:1; fill:none" points="1722.46,1423.18 1722.46,1404.28 "/>
<polyline clip-path="url(#clip750)" style="stroke:#000000; stroke-linecap:round; stroke-linejoin:round; stroke-width:4; stroke-opacity:1; fill:none" points="2190.32,1423.18 2190.32,1404.28 "/>
<path clip-path="url(#clip750)" d="M318.896 1454.1 Q315.285 1454.1 313.457 1457.66 Q311.651 1461.2 311.651 1468.33 Q311.651 1475.44 313.457 1479.01 Q315.285 1482.55 318.896 1482.55 Q322.531 1482.55 324.336 1479.01 Q326.165 1475.44 326.165 1468.33 Q326.165 1461.2 324.336 1457.66 Q322.531 1454.1 318.896 1454.1 M318.896 1450.39 Q324.707 1450.39 327.762 1455 Q330.841 1459.58 330.841 1468.33 Q330.841 1477.06 327.762 1481.67 Q324.707 1486.25 318.896 1486.25 Q313.086 1486.25 310.008 1481.67 Q306.952 1477.06 306.952 1468.33 Q306.952 1459.58 310.008 1455 Q313.086 1450.39 318.896 1450.39 Z" fill="#000000" fill-rule="nonzero" fill-opacity="1" /><path clip-path="url(#clip750)" d="M761.439 1481.64 L769.078 1481.64 L769.078 1455.28 L760.768 1456.95 L760.768 1452.69 L769.032 1451.02 L773.708 1451.02 L773.708 1481.64 L781.346 1481.64 L781.346 1485.58 L761.439 1485.58 L761.439 1481.64 Z" fill="#000000" fill-rule="nonzero" fill-opacity="1" /><path clip-path="url(#clip750)" d="M800.791 1454.1 Q797.18 1454.1 795.351 1457.66 Q793.545 1461.2 793.545 1468.33 Q793.545 1475.44 795.351 1479.01 Q797.18 1482.55 800.791 1482.55 Q804.425 1482.55 806.231 1479.01 Q808.059 1475.44 808.059 1468.33 Q808.059 1461.2 806.231 1457.66 Q804.425 1454.1 800.791 1454.1 M800.791 1450.39 Q806.601 1450.39 809.656 1455 Q812.735 1459.58 812.735 1468.33 Q812.735 1477.06 809.656 1481.67 Q806.601 1486.25 800.791 1486.25 Q794.981 1486.25 791.902 1481.67 Q788.846 1477.06 788.846 1468.33 Q788.846 1459.58 791.902 1455 Q794.981 1450.39 800.791 1450.39 Z" fill="#000000" fill-rule="nonzero" fill-opacity="1" /><path clip-path="url(#clip750)" d="M1233.38 1481.64 L1249.7 1481.64 L1249.7 1485.58 L1227.75 1485.58 L1227.75 1481.64 Q1230.42 1478.89 1235 1474.26 Q1239.61 1469.61 1240.79 1468.27 Q1243.03 1465.74 1243.91 1464.01 Q1244.81 1462.25 1244.81 1460.56 Q1244.81 1457.8 1242.87 1456.07 Q1240.95 1454.33 1237.85 1454.33 Q1235.65 1454.33 1233.19 1455.09 Q1230.76 1455.86 1227.99 1457.41 L1227.99 1452.69 Q1230.81 1451.55 1233.26 1450.97 Q1235.72 1450.39 1237.75 1450.39 Q1243.13 1450.39 1246.32 1453.08 Q1249.51 1455.77 1249.51 1460.26 Q1249.51 1462.39 1248.7 1464.31 Q1247.92 1466.2 1245.81 1468.8 Q1245.23 1469.47 1242.13 1472.69 Q1239.03 1475.88 1233.38 1481.64 Z" fill="#000000" fill-rule="nonzero" fill-opacity="1" /><path clip-path="url(#clip750)" d="M1269.51 1454.1 Q1265.9 1454.1 1264.07 1457.66 Q1262.27 1461.2 1262.27 1468.33 Q1262.27 1475.44 1264.07 1479.01 Q1265.9 1482.55 1269.51 1482.55 Q1273.15 1482.55 1274.95 1479.01 Q1276.78 1475.44 1276.78 1468.33 Q1276.78 1461.2 1274.95 1457.66 Q1273.15 1454.1 1269.51 1454.1 M1269.51 1450.39 Q1275.32 1450.39 1278.38 1455 Q1281.46 1459.58 1281.46 1468.33 Q1281.46 1477.06 1278.38 1481.67 Q1275.32 1486.25 1269.51 1486.25 Q1263.7 1486.25 1260.63 1481.67 Q1257.57 1477.06 1257.57 1468.33 Q1257.57 1459.58 1260.63 1455 Q1263.7 1450.39 1269.51 1450.39 Z" fill="#000000" fill-rule="nonzero" fill-opacity="1" /><path clip-path="url(#clip750)" d="M1711.3 1466.95 Q1714.66 1467.66 1716.54 1469.93 Q1718.43 1472.2 1718.43 1475.53 Q1718.43 1480.65 1714.92 1483.45 Q1711.4 1486.25 1704.92 1486.25 Q1702.74 1486.25 1700.42 1485.81 Q1698.13 1485.39 1695.68 1484.54 L1695.68 1480.02 Q1697.62 1481.16 1699.94 1481.74 Q1702.25 1482.32 1704.78 1482.32 Q1709.17 1482.32 1711.47 1480.58 Q1713.78 1478.84 1713.78 1475.53 Q1713.78 1472.48 1711.63 1470.77 Q1709.5 1469.03 1705.68 1469.03 L1701.65 1469.03 L1701.65 1465.19 L1705.86 1465.19 Q1709.31 1465.19 1711.14 1463.82 Q1712.97 1462.43 1712.97 1459.84 Q1712.97 1457.18 1711.07 1455.77 Q1709.2 1454.33 1705.68 1454.33 Q1703.76 1454.33 1701.56 1454.75 Q1699.36 1455.16 1696.72 1456.04 L1696.72 1451.88 Q1699.38 1451.14 1701.7 1450.77 Q1704.04 1450.39 1706.1 1450.39 Q1711.42 1450.39 1714.52 1452.83 Q1717.62 1455.23 1717.62 1459.35 Q1717.62 1462.22 1715.98 1464.21 Q1714.34 1466.18 1711.3 1466.95 Z" fill="#000000" fill-rule="nonzero" fill-opacity="1" /><path clip-path="url(#clip750)" d="M1737.3 1454.1 Q1733.69 1454.1 1731.86 1457.66 Q1730.05 1461.2 1730.05 1468.33 Q1730.05 1475.44 1731.86 1479.01 Q1733.69 1482.55 1737.3 1482.55 Q1740.93 1482.55 1742.74 1479.01 Q1744.57 1475.44 1744.57 1468.33 Q1744.57 1461.2 1742.74 1457.66 Q1740.93 1454.1 1737.3 1454.1 M1737.3 1450.39 Q1743.11 1450.39 1746.17 1455 Q1749.24 1459.58 1749.24 1468.33 Q1749.24 1477.06 1746.17 1481.67 Q1743.11 1486.25 1737.3 1486.25 Q1731.49 1486.25 1728.41 1481.67 Q1725.36 1477.06 1725.36 1468.33 Q1725.36 1459.58 1728.41 1455 Q1731.49 1450.39 1737.3 1450.39 Z" fill="#000000" fill-rule="nonzero" fill-opacity="1" /><path clip-path="url(#clip750)" d="M2178.49 1455.09 L2166.68 1473.54 L2178.49 1473.54 L2178.49 1455.09 M2177.26 1451.02 L2183.14 1451.02 L2183.14 1473.54 L2188.07 1473.54 L2188.07 1477.43 L2183.14 1477.43 L2183.14 1485.58 L2178.49 1485.58 L2178.49 1477.43 L2162.89 1477.43 L2162.89 1472.92 L2177.26 1451.02 Z" fill="#000000" fill-rule="nonzero" fill-opacity="1" /><path clip-path="url(#clip750)" d="M2205.8 1454.1 Q2202.19 1454.1 2200.36 1457.66 Q2198.56 1461.2 2198.56 1468.33 Q2198.56 1475.44 2200.36 1479.01 Q2202.19 1482.55 2205.8 1482.55 Q2209.44 1482.55 2211.24 1479.01 Q2213.07 1475.44 2213.07 1468.33 Q2213.07 1461.2 2211.24 1457.66 Q2209.44 1454.1 2205.8 1454.1 M2205.8 1450.39 Q2211.61 1450.39 2214.67 1455 Q2217.75 1459.58 2217.75 1468.33 Q2217.75 1477.06 2214.67 1481.67 Q2211.61 1486.25 2205.8 1486.25 Q2199.99 1486.25 2196.91 1481.67 Q2193.86 1477.06 2193.86 1468.33 Q2193.86 1459.58 2196.91 1455 Q2199.99 1450.39 2205.8 1450.39 Z" fill="#000000" fill-rule="nonzero" fill-opacity="1" /><path clip-path="url(#clip750)" d="M1300.45 1522.27 L1300.45 1532.4 L1312.52 1532.4 L1312.52 1536.95 L1300.45 1536.95 L1300.45 1556.3 Q1300.45 1560.66 1301.63 1561.9 Q1302.84 1563.14 1306.5 1563.14 L1312.52 1563.14 L1312.52 1568.04 L1306.5 1568.04 Q1299.72 1568.04 1297.14 1565.53 Q1294.56 1562.98 1294.56 1556.3 L1294.56 1536.95 L1290.27 1536.95 L1290.27 1532.4 L1294.56 1532.4 L1294.56 1522.27 L1300.45 1522.27 Z" fill="#000000" fill-rule="nonzero" fill-opacity="1" /><polyline clip-path="url(#clip750)" style="stroke:#000000; stroke-linecap:round; stroke-linejoin:round; stroke-width:4; stroke-opacity:1; fill:none" points="250.028,1423.18 250.028,47.2441 "/>
<polyline clip-path="url(#clip750)" style="stroke:#000000; stroke-linecap:round; stroke-linejoin:round; stroke-width:4; stroke-opacity:1; fill:none" points="250.028,1423.18 268.926,1423.18 "/>
<polyline clip-path="url(#clip750)" style="stroke:#000000; stroke-linecap:round; stroke-linejoin:round; stroke-width:4; stroke-opacity:1; fill:none" points="250.028,1118.09 268.926,1118.09 "/>
<polyline clip-path="url(#clip750)" style="stroke:#000000; stroke-linecap:round; stroke-linejoin:round; stroke-width:4; stroke-opacity:1; fill:none" points="250.028,813.009 268.926,813.009 "/>
<polyline clip-path="url(#clip750)" style="stroke:#000000; stroke-linecap:round; stroke-linejoin:round; stroke-width:4; stroke-opacity:1; fill:none" points="250.028,507.923 268.926,507.923 "/>
<polyline clip-path="url(#clip750)" style="stroke:#000000; stroke-linecap:round; stroke-linejoin:round; stroke-width:4; stroke-opacity:1; fill:none" points="250.028,202.838 268.926,202.838 "/>
<path clip-path="url(#clip750)" d="M126.691 1408.98 Q123.08 1408.98 121.251 1412.54 Q119.445 1416.08 119.445 1423.21 Q119.445 1430.32 121.251 1433.89 Q123.08 1437.43 126.691 1437.43 Q130.325 1437.43 132.13 1433.89 Q133.959 1430.32 133.959 1423.21 Q133.959 1416.08 132.13 1412.54 Q130.325 1408.98 126.691 1408.98 M126.691 1405.27 Q132.501 1405.27 135.556 1409.88 Q138.635 1414.46 138.635 1423.21 Q138.635 1431.94 135.556 1436.55 Q132.501 1441.13 126.691 1441.13 Q120.88 1441.13 117.802 1436.55 Q114.746 1431.94 114.746 1423.21 Q114.746 1414.46 117.802 1409.88 Q120.88 1405.27 126.691 1405.27 Z" fill="#000000" fill-rule="nonzero" fill-opacity="1" /><path clip-path="url(#clip750)" d="M146.853 1434.58 L151.737 1434.58 L151.737 1440.46 L146.853 1440.46 L146.853 1434.58 Z" fill="#000000" fill-rule="nonzero" fill-opacity="1" /><path clip-path="url(#clip750)" d="M171.922 1408.98 Q168.311 1408.98 166.482 1412.54 Q164.677 1416.08 164.677 1423.21 Q164.677 1430.32 166.482 1433.89 Q168.311 1437.43 171.922 1437.43 Q175.556 1437.43 177.362 1433.89 Q179.19 1430.32 179.19 1423.21 Q179.19 1416.08 177.362 1412.54 Q175.556 1408.98 171.922 1408.98 M171.922 1405.27 Q177.732 1405.27 180.788 1409.88 Q183.866 1414.46 183.866 1423.21 Q183.866 1431.94 180.788 1436.55 Q177.732 1441.13 171.922 1441.13 Q166.112 1441.13 163.033 1436.55 Q159.978 1431.94 159.978 1423.21 Q159.978 1414.46 163.033 1409.88 Q166.112 1405.27 171.922 1405.27 Z" fill="#000000" fill-rule="nonzero" fill-opacity="1" /><path clip-path="url(#clip750)" d="M202.084 1408.98 Q198.473 1408.98 196.644 1412.54 Q194.838 1416.08 194.838 1423.21 Q194.838 1430.32 196.644 1433.89 Q198.473 1437.43 202.084 1437.43 Q205.718 1437.43 207.524 1433.89 Q209.352 1430.32 209.352 1423.21 Q209.352 1416.08 207.524 1412.54 Q205.718 1408.98 202.084 1408.98 M202.084 1405.27 Q207.894 1405.27 210.949 1409.88 Q214.028 1414.46 214.028 1423.21 Q214.028 1431.94 210.949 1436.55 Q207.894 1441.13 202.084 1441.13 Q196.274 1441.13 193.195 1436.55 Q190.139 1431.94 190.139 1423.21 Q190.139 1414.46 193.195 1409.88 Q196.274 1405.27 202.084 1405.27 Z" fill="#000000" fill-rule="nonzero" fill-opacity="1" /><path clip-path="url(#clip750)" d="M128.288 1103.89 Q124.677 1103.89 122.848 1107.46 Q121.043 1111 121.043 1118.13 Q121.043 1125.24 122.848 1128.8 Q124.677 1132.34 128.288 1132.34 Q131.922 1132.34 133.728 1128.8 Q135.556 1125.24 135.556 1118.13 Q135.556 1111 133.728 1107.46 Q131.922 1103.89 128.288 1103.89 M128.288 1100.19 Q134.098 1100.19 137.154 1104.8 Q140.232 1109.38 140.232 1118.13 Q140.232 1126.86 137.154 1131.46 Q134.098 1136.05 128.288 1136.05 Q122.478 1136.05 119.399 1131.46 Q116.343 1126.86 116.343 1118.13 Q116.343 1109.38 119.399 1104.8 Q122.478 1100.19 128.288 1100.19 Z" fill="#000000" fill-rule="nonzero" fill-opacity="1" /><path clip-path="url(#clip750)" d="M148.45 1129.49 L153.334 1129.49 L153.334 1135.37 L148.45 1135.37 L148.45 1129.49 Z" fill="#000000" fill-rule="nonzero" fill-opacity="1" /><path clip-path="url(#clip750)" d="M173.519 1103.89 Q169.908 1103.89 168.079 1107.46 Q166.274 1111 166.274 1118.13 Q166.274 1125.24 168.079 1128.8 Q169.908 1132.34 173.519 1132.34 Q177.153 1132.34 178.959 1128.8 Q180.788 1125.24 180.788 1118.13 Q180.788 1111 178.959 1107.46 Q177.153 1103.89 173.519 1103.89 M173.519 1100.19 Q179.329 1100.19 182.385 1104.8 Q185.463 1109.38 185.463 1118.13 Q185.463 1126.86 182.385 1131.46 Q179.329 1136.05 173.519 1136.05 Q167.709 1136.05 164.63 1131.46 Q161.575 1126.86 161.575 1118.13 Q161.575 1109.38 164.63 1104.8 Q167.709 1100.19 173.519 1100.19 Z" fill="#000000" fill-rule="nonzero" fill-opacity="1" /><path clip-path="url(#clip750)" d="M197.709 1131.44 L214.028 1131.44 L214.028 1135.37 L192.084 1135.37 L192.084 1131.44 Q194.746 1128.68 199.329 1124.05 Q203.936 1119.4 205.116 1118.06 Q207.362 1115.54 208.241 1113.8 Q209.144 1112.04 209.144 1110.35 Q209.144 1107.6 207.199 1105.86 Q205.278 1104.12 202.176 1104.12 Q199.977 1104.12 197.524 1104.89 Q195.093 1105.65 192.315 1107.2 L192.315 1102.48 Q195.139 1101.35 197.593 1100.77 Q200.047 1100.19 202.084 1100.19 Q207.454 1100.19 210.649 1102.87 Q213.843 1105.56 213.843 1110.05 Q213.843 1112.18 213.033 1114.1 Q212.246 1116 210.139 1118.59 Q209.561 1119.26 206.459 1122.48 Q203.357 1125.68 197.709 1131.44 Z" fill="#000000" fill-rule="nonzero" fill-opacity="1" /><path clip-path="url(#clip750)" d="M126.205 798.807 Q122.593 798.807 120.765 802.372 Q118.959 805.914 118.959 813.044 Q118.959 820.15 120.765 823.715 Q122.593 827.256 126.205 827.256 Q129.839 827.256 131.644 823.715 Q133.473 820.15 133.473 813.044 Q133.473 805.914 131.644 802.372 Q129.839 798.807 126.205 798.807 M126.205 795.104 Q132.015 795.104 135.07 799.71 Q138.149 804.294 138.149 813.044 Q138.149 821.77 135.07 826.377 Q132.015 830.96 126.205 830.96 Q120.394 830.96 117.316 826.377 Q114.26 821.77 114.26 813.044 Q114.26 804.294 117.316 799.71 Q120.394 795.104 126.205 795.104 Z" fill="#000000" fill-rule="nonzero" fill-opacity="1" /><path clip-path="url(#clip750)" d="M146.366 824.409 L151.251 824.409 L151.251 830.289 L146.366 830.289 L146.366 824.409 Z" fill="#000000" fill-rule="nonzero" fill-opacity="1" /><path clip-path="url(#clip750)" d="M171.436 798.807 Q167.825 798.807 165.996 802.372 Q164.19 805.914 164.19 813.044 Q164.19 820.15 165.996 823.715 Q167.825 827.256 171.436 827.256 Q175.07 827.256 176.876 823.715 Q178.704 820.15 178.704 813.044 Q178.704 805.914 176.876 802.372 Q175.07 798.807 171.436 798.807 M171.436 795.104 Q177.246 795.104 180.301 799.71 Q183.38 804.294 183.38 813.044 Q183.38 821.77 180.301 826.377 Q177.246 830.96 171.436 830.96 Q165.626 830.96 162.547 826.377 Q159.491 821.77 159.491 813.044 Q159.491 804.294 162.547 799.71 Q165.626 795.104 171.436 795.104 Z" fill="#000000" fill-rule="nonzero" fill-opacity="1" /><path clip-path="url(#clip750)" d="M204.445 799.803 L192.639 818.252 L204.445 818.252 L204.445 799.803 M203.218 795.729 L209.098 795.729 L209.098 818.252 L214.028 818.252 L214.028 822.141 L209.098 822.141 L209.098 830.289 L204.445 830.289 L204.445 822.141 L188.843 822.141 L188.843 817.627 L203.218 795.729 Z" fill="#000000" fill-rule="nonzero" fill-opacity="1" /><path clip-path="url(#clip750)" d="M126.529 493.722 Q122.918 493.722 121.089 497.287 Q119.283 500.828 119.283 507.958 Q119.283 515.064 121.089 518.629 Q122.918 522.171 126.529 522.171 Q130.163 522.171 131.968 518.629 Q133.797 515.064 133.797 507.958 Q133.797 500.828 131.968 497.287 Q130.163 493.722 126.529 493.722 M126.529 490.018 Q132.339 490.018 135.394 494.625 Q138.473 499.208 138.473 507.958 Q138.473 516.685 135.394 521.291 Q132.339 525.875 126.529 525.875 Q120.718 525.875 117.64 521.291 Q114.584 516.685 114.584 507.958 Q114.584 499.208 117.64 494.625 Q120.718 490.018 126.529 490.018 Z" fill="#000000" fill-rule="nonzero" fill-opacity="1" /><path clip-path="url(#clip750)" d="M146.691 519.324 L151.575 519.324 L151.575 525.203 L146.691 525.203 L146.691 519.324 Z" fill="#000000" fill-rule="nonzero" fill-opacity="1" /><path clip-path="url(#clip750)" d="M171.76 493.722 Q168.149 493.722 166.32 497.287 Q164.515 500.828 164.515 507.958 Q164.515 515.064 166.32 518.629 Q168.149 522.171 171.76 522.171 Q175.394 522.171 177.2 518.629 Q179.028 515.064 179.028 507.958 Q179.028 500.828 177.2 497.287 Q175.394 493.722 171.76 493.722 M171.76 490.018 Q177.57 490.018 180.626 494.625 Q183.704 499.208 183.704 507.958 Q183.704 516.685 180.626 521.291 Q177.57 525.875 171.76 525.875 Q165.95 525.875 162.871 521.291 Q159.815 516.685 159.815 507.958 Q159.815 499.208 162.871 494.625 Q165.95 490.018 171.76 490.018 Z" fill="#000000" fill-rule="nonzero" fill-opacity="1" /><path clip-path="url(#clip750)" d="M202.5 506.06 Q199.352 506.06 197.5 508.213 Q195.672 510.365 195.672 514.115 Q195.672 517.842 197.5 520.018 Q199.352 522.171 202.5 522.171 Q205.649 522.171 207.477 520.018 Q209.329 517.842 209.329 514.115 Q209.329 510.365 207.477 508.213 Q205.649 506.06 202.5 506.06 M211.783 491.407 L211.783 495.666 Q210.024 494.833 208.218 494.393 Q206.436 493.953 204.676 493.953 Q200.047 493.953 197.593 497.078 Q195.163 500.203 194.815 506.523 Q196.181 504.509 198.241 503.444 Q200.301 502.356 202.778 502.356 Q207.987 502.356 210.996 505.527 Q214.028 508.676 214.028 514.115 Q214.028 519.439 210.88 522.657 Q207.732 525.875 202.5 525.875 Q196.505 525.875 193.334 521.291 Q190.163 516.685 190.163 507.958 Q190.163 499.764 194.051 494.902 Q197.94 490.018 204.491 490.018 Q206.25 490.018 208.033 490.365 Q209.838 490.713 211.783 491.407 Z" fill="#000000" fill-rule="nonzero" fill-opacity="1" /><path clip-path="url(#clip750)" d="M126.783 188.636 Q123.172 188.636 121.343 192.201 Q119.538 195.743 119.538 202.872 Q119.538 209.979 121.343 213.544 Q123.172 217.085 126.783 217.085 Q130.417 217.085 132.223 213.544 Q134.052 209.979 134.052 202.872 Q134.052 195.743 132.223 192.201 Q130.417 188.636 126.783 188.636 M126.783 184.933 Q132.593 184.933 135.649 189.539 Q138.728 194.122 138.728 202.872 Q138.728 211.599 135.649 216.206 Q132.593 220.789 126.783 220.789 Q120.973 220.789 117.894 216.206 Q114.839 211.599 114.839 202.872 Q114.839 194.122 117.894 189.539 Q120.973 184.933 126.783 184.933 Z" fill="#000000" fill-rule="nonzero" fill-opacity="1" /><path clip-path="url(#clip750)" d="M146.945 214.238 L151.829 214.238 L151.829 220.118 L146.945 220.118 L146.945 214.238 Z" fill="#000000" fill-rule="nonzero" fill-opacity="1" /><path clip-path="url(#clip750)" d="M172.014 188.636 Q168.403 188.636 166.575 192.201 Q164.769 195.743 164.769 202.872 Q164.769 209.979 166.575 213.544 Q168.403 217.085 172.014 217.085 Q175.649 217.085 177.454 213.544 Q179.283 209.979 179.283 202.872 Q179.283 195.743 177.454 192.201 Q175.649 188.636 172.014 188.636 M172.014 184.933 Q177.825 184.933 180.88 189.539 Q183.959 194.122 183.959 202.872 Q183.959 211.599 180.88 216.206 Q177.825 220.789 172.014 220.789 Q166.204 220.789 163.126 216.206 Q160.07 211.599 160.07 202.872 Q160.07 194.122 163.126 189.539 Q166.204 184.933 172.014 184.933 Z" fill="#000000" fill-rule="nonzero" fill-opacity="1" /><path clip-path="url(#clip750)" d="M202.176 203.706 Q198.843 203.706 196.922 205.488 Q195.024 207.271 195.024 210.396 Q195.024 213.521 196.922 215.303 Q198.843 217.085 202.176 217.085 Q205.51 217.085 207.431 215.303 Q209.352 213.497 209.352 210.396 Q209.352 207.271 207.431 205.488 Q205.533 203.706 202.176 203.706 M197.5 201.715 Q194.491 200.974 192.801 198.914 Q191.135 196.854 191.135 193.891 Q191.135 189.748 194.075 187.34 Q197.037 184.933 202.176 184.933 Q207.338 184.933 210.278 187.34 Q213.218 189.748 213.218 193.891 Q213.218 196.854 211.528 198.914 Q209.861 200.974 206.875 201.715 Q210.255 202.502 212.13 204.794 Q214.028 207.085 214.028 210.396 Q214.028 215.419 210.949 218.104 Q207.894 220.789 202.176 220.789 Q196.459 220.789 193.38 218.104 Q190.325 215.419 190.325 210.396 Q190.325 207.085 192.223 204.794 Q194.121 202.502 197.5 201.715 M195.787 194.331 Q195.787 197.016 197.454 198.521 Q199.144 200.025 202.176 200.025 Q205.186 200.025 206.875 198.521 Q208.588 197.016 208.588 194.331 Q208.588 191.646 206.875 190.141 Q205.186 188.636 202.176 188.636 Q199.144 188.636 197.454 190.141 Q195.787 191.646 195.787 194.331 Z" fill="#000000" fill-rule="nonzero" fill-opacity="1" /><path clip-path="url(#clip750)" d="M33.8307 800.206 Q33.2578 801.193 33.0032 802.37 Q32.7167 803.516 32.7167 804.916 Q32.7167 809.882 35.9632 812.555 Q39.1779 815.197 45.2253 815.197 L64.0042 815.197 L64.0042 821.085 L28.3562 821.085 L28.3562 815.197 L33.8944 815.197 Q30.6479 813.351 29.0883 810.391 Q27.4968 807.431 27.4968 803.198 Q27.4968 802.593 27.5923 801.861 Q27.656 801.129 27.8151 800.238 L33.8307 800.206 Z" fill="#000000" fill-rule="nonzero" fill-opacity="1" /><path clip-path="url(#clip750)" d="M42.4881 765.576 L64.0042 765.576 L64.0042 771.433 L42.679 771.433 Q37.6183 771.433 35.1038 773.406 Q32.5894 775.38 32.5894 779.326 Q32.5894 784.069 35.6131 786.806 Q38.6368 789.543 43.8567 789.543 L64.0042 789.543 L64.0042 795.432 L14.479 795.432 L14.479 789.543 L33.8944 789.543 Q30.6797 787.443 29.0883 784.61 Q27.4968 781.745 27.4968 778.021 Q27.4968 771.878 31.3163 768.727 Q35.1038 765.576 42.4881 765.576 Z" fill="#000000" fill-rule="nonzero" fill-opacity="1" /><path clip-path="url(#clip750)" d="M32.4621 740.082 Q32.4621 744.792 36.1542 747.53 Q39.8145 750.267 46.212 750.267 Q52.6095 750.267 56.3017 747.561 Q59.9619 744.824 59.9619 740.082 Q59.9619 735.403 56.2698 732.666 Q52.5777 729.928 46.212 729.928 Q39.8781 729.928 36.186 732.666 Q32.4621 735.403 32.4621 740.082 M27.4968 740.082 Q27.4968 732.443 32.4621 728.082 Q37.4273 723.722 46.212 723.722 Q54.9649 723.722 59.9619 728.082 Q64.9272 732.443 64.9272 740.082 Q64.9272 747.752 59.9619 752.113 Q54.9649 756.442 46.212 756.442 Q37.4273 756.442 32.4621 752.113 Q27.4968 747.752 27.4968 740.082 Z" fill="#000000" fill-rule="nonzero" fill-opacity="1" /><path clip-path="url(#clip750)" d="M14.5426 699.946 Q21.8632 704.211 29.0246 706.28 Q36.186 708.349 43.5384 708.349 Q50.8908 708.349 58.1159 706.28 Q65.3091 704.179 72.5979 699.946 L72.5979 705.039 Q65.1182 709.813 57.8931 712.2 Q50.668 714.555 43.5384 714.555 Q36.4406 714.555 29.2474 712.2 Q22.0542 709.845 14.5426 705.039 L14.5426 699.946 Z" fill="#000000" fill-rule="nonzero" fill-opacity="1" /><path clip-path="url(#clip750)" d="M18.2347 682.79 L28.3562 682.79 L28.3562 670.727 L32.9077 670.727 L32.9077 682.79 L52.2594 682.79 Q56.6199 682.79 57.8613 681.613 Q59.1026 680.403 59.1026 676.743 L59.1026 670.727 L64.0042 670.727 L64.0042 676.743 Q64.0042 683.522 61.4897 686.101 Q58.9434 688.679 52.2594 688.679 L32.9077 688.679 L32.9077 692.976 L28.3562 692.976 L28.3562 688.679 L18.2347 688.679 L18.2347 682.79 Z" fill="#000000" fill-rule="nonzero" fill-opacity="1" /><path clip-path="url(#clip750)" d="M14.5426 663.948 L14.5426 658.855 Q22.0542 654.081 29.2474 651.726 Q36.4406 649.339 43.5384 649.339 Q50.668 649.339 57.8931 651.726 Q65.1182 654.081 72.5979 658.855 L72.5979 663.948 Q65.3091 659.715 58.1159 657.646 Q50.8908 655.545 43.5384 655.545 Q36.186 655.545 29.0246 657.646 Q21.8632 659.715 14.5426 663.948 Z" fill="#000000" fill-rule="nonzero" fill-opacity="1" /><path clip-path="url(#clip751)" d="M365.682 1420.13 L365.682 1423.18 L412.467 1423.18 L412.467 1420.13 L365.682 1420.13 L365.682 1420.13  Z" fill="#009af9" fill-rule="evenodd" fill-opacity="1"/>
<polyline clip-path="url(#clip751)" style="stroke:#000000; stroke-linecap:round; stroke-linejoin:round; stroke-width:4; stroke-opacity:1; fill:none" points="365.682,1420.13 365.682,1423.18 412.467,1423.18 412.467,1420.13 365.682,1420.13 "/>
<path clip-path="url(#clip751)" d="M412.467 1353.01 L412.467 1423.18 L459.253 1423.18 L459.253 1353.01 L412.467 1353.01 L412.467 1353.01  Z" fill="#009af9" fill-rule="evenodd" fill-opacity="1"/>
<polyline clip-path="url(#clip751)" style="stroke:#000000; stroke-linecap:round; stroke-linejoin:round; stroke-width:4; stroke-opacity:1; fill:none" points="412.467,1353.01 412.467,1423.18 459.253,1423.18 459.253,1353.01 412.467,1353.01 "/>
<path clip-path="url(#clip751)" d="M459.253 1215.72 L459.253 1423.18 L506.038 1423.18 L506.038 1215.72 L459.253 1215.72 L459.253 1215.72  Z" fill="#009af9" fill-rule="evenodd" fill-opacity="1"/>
<polyline clip-path="url(#clip751)" style="stroke:#000000; stroke-linecap:round; stroke-linejoin:round; stroke-width:4; stroke-opacity:1; fill:none" points="459.253,1215.72 459.253,1423.18 506.038,1423.18 506.038,1215.72 459.253,1215.72 "/>
<path clip-path="url(#clip751)" d="M506.038 1049.45 L506.038 1423.18 L552.824 1423.18 L552.824 1049.45 L506.038 1049.45 L506.038 1049.45  Z" fill="#009af9" fill-rule="evenodd" fill-opacity="1"/>
<polyline clip-path="url(#clip751)" style="stroke:#000000; stroke-linecap:round; stroke-linejoin:round; stroke-width:4; stroke-opacity:1; fill:none" points="506.038,1049.45 506.038,1423.18 552.824,1423.18 552.824,1049.45 506.038,1049.45 "/>
<path clip-path="url(#clip751)" d="M552.824 771.822 L552.824 1423.18 L599.609 1423.18 L599.609 771.822 L552.824 771.822 L552.824 771.822  Z" fill="#009af9" fill-rule="evenodd" fill-opacity="1"/>
<polyline clip-path="url(#clip751)" style="stroke:#000000; stroke-linecap:round; stroke-linejoin:round; stroke-width:4; stroke-opacity:1; fill:none" points="552.824,771.822 552.824,1423.18 599.609,1423.18 599.609,771.822 552.824,771.822 "/>
<path clip-path="url(#clip751)" d="M599.609 562.839 L599.609 1423.18 L646.395 1423.18 L646.395 562.839 L599.609 562.839 L599.609 562.839  Z" fill="#009af9" fill-rule="evenodd" fill-opacity="1"/>
<polyline clip-path="url(#clip751)" style="stroke:#000000; stroke-linecap:round; stroke-linejoin:round; stroke-width:4; stroke-opacity:1; fill:none" points="599.609,562.839 599.609,1423.18 646.395,1423.18 646.395,562.839 599.609,562.839 "/>
<path clip-path="url(#clip751)" d="M646.395 433.177 L646.395 1423.18 L693.18 1423.18 L693.18 433.177 L646.395 433.177 L646.395 433.177  Z" fill="#009af9" fill-rule="evenodd" fill-opacity="1"/>
<polyline clip-path="url(#clip751)" style="stroke:#000000; stroke-linecap:round; stroke-linejoin:round; stroke-width:4; stroke-opacity:1; fill:none" points="646.395,433.177 646.395,1423.18 693.18,1423.18 693.18,433.177 646.395,433.177 "/>
<path clip-path="url(#clip751)" d="M693.18 147.922 L693.18 1423.18 L739.966 1423.18 L739.966 147.922 L693.18 147.922 L693.18 147.922  Z" fill="#009af9" fill-rule="evenodd" fill-opacity="1"/>
<polyline clip-path="url(#clip751)" style="stroke:#000000; stroke-linecap:round; stroke-linejoin:round; stroke-width:4; stroke-opacity:1; fill:none" points="693.18,147.922 693.18,1423.18 739.966,1423.18 739.966,147.922 693.18,147.922 "/>
<path clip-path="url(#clip751)" d="M739.966 125.041 L739.966 1423.18 L786.751 1423.18 L786.751 125.041 L739.966 125.041 L739.966 125.041  Z" fill="#009af9" fill-rule="evenodd" fill-opacity="1"/>
<polyline clip-path="url(#clip751)" style="stroke:#000000; stroke-linecap:round; stroke-linejoin:round; stroke-width:4; stroke-opacity:1; fill:none" points="739.966,125.041 739.966,1423.18 786.751,1423.18 786.751,125.041 739.966,125.041 "/>
<path clip-path="url(#clip751)" d="M786.751 47.2441 L786.751 1423.18 L833.537 1423.18 L833.537 47.2441 L786.751 47.2441 L786.751 47.2441  Z" fill="#009af9" fill-rule="evenodd" fill-opacity="1"/>
<polyline clip-path="url(#clip751)" style="stroke:#000000; stroke-linecap:round; stroke-linejoin:round; stroke-width:4; stroke-opacity:1; fill:none" points="786.751,47.2441 786.751,1423.18 833.537,1423.18 833.537,47.2441 786.751,47.2441 "/>
<path clip-path="url(#clip751)" d="M833.537 103.685 L833.537 1423.18 L880.322 1423.18 L880.322 103.685 L833.537 103.685 L833.537 103.685  Z" fill="#009af9" fill-rule="evenodd" fill-opacity="1"/>
<polyline clip-path="url(#clip751)" style="stroke:#000000; stroke-linecap:round; stroke-linejoin:round; stroke-width:4; stroke-opacity:1; fill:none" points="833.537,103.685 833.537,1423.18 880.322,1423.18 880.322,103.685 833.537,103.685 "/>
<path clip-path="url(#clip751)" d="M880.322 260.804 L880.322 1423.18 L927.108 1423.18 L927.108 260.804 L880.322 260.804 L880.322 260.804  Z" fill="#009af9" fill-rule="evenodd" fill-opacity="1"/>
<polyline clip-path="url(#clip751)" style="stroke:#000000; stroke-linecap:round; stroke-linejoin:round; stroke-width:4; stroke-opacity:1; fill:none" points="880.322,260.804 880.322,1423.18 927.108,1423.18 927.108,260.804 880.322,260.804 "/>
<path clip-path="url(#clip751)" d="M927.108 363.008 L927.108 1423.18 L973.893 1423.18 L973.893 363.008 L927.108 363.008 L927.108 363.008  Z" fill="#009af9" fill-rule="evenodd" fill-opacity="1"/>
<polyline clip-path="url(#clip751)" style="stroke:#000000; stroke-linecap:round; stroke-linejoin:round; stroke-width:4; stroke-opacity:1; fill:none" points="927.108,363.008 927.108,1423.18 973.893,1423.18 973.893,363.008 927.108,363.008 "/>
<path clip-path="url(#clip751)" d="M973.893 544.534 L973.893 1423.18 L1020.68 1423.18 L1020.68 544.534 L973.893 544.534 L973.893 544.534  Z" fill="#009af9" fill-rule="evenodd" fill-opacity="1"/>
<polyline clip-path="url(#clip751)" style="stroke:#000000; stroke-linecap:round; stroke-linejoin:round; stroke-width:4; stroke-opacity:1; fill:none" points="973.893,544.534 973.893,1423.18 1020.68,1423.18 1020.68,544.534 973.893,544.534 "/>
<path clip-path="url(#clip751)" d="M1020.68 617.754 L1020.68 1423.18 L1067.46 1423.18 L1067.46 617.754 L1020.68 617.754 L1020.68 617.754  Z" fill="#009af9" fill-rule="evenodd" fill-opacity="1"/>
<polyline clip-path="url(#clip751)" style="stroke:#000000; stroke-linecap:round; stroke-linejoin:round; stroke-width:4; stroke-opacity:1; fill:none" points="1020.68,617.754 1020.68,1423.18 1067.46,1423.18 1067.46,617.754 1020.68,617.754 "/>
<path clip-path="url(#clip751)" d="M1067.46 784.026 L1067.46 1423.18 L1114.25 1423.18 L1114.25 784.026 L1067.46 784.026 L1067.46 784.026  Z" fill="#009af9" fill-rule="evenodd" fill-opacity="1"/>
<polyline clip-path="url(#clip751)" style="stroke:#000000; stroke-linecap:round; stroke-linejoin:round; stroke-width:4; stroke-opacity:1; fill:none" points="1067.46,784.026 1067.46,1423.18 1114.25,1423.18 1114.25,784.026 1067.46,784.026 "/>
<path clip-path="url(#clip751)" d="M1114.25 895.382 L1114.25 1423.18 L1161.04 1423.18 L1161.04 895.382 L1114.25 895.382 L1114.25 895.382  Z" fill="#009af9" fill-rule="evenodd" fill-opacity="1"/>
<polyline clip-path="url(#clip751)" style="stroke:#000000; stroke-linecap:round; stroke-linejoin:round; stroke-width:4; stroke-opacity:1; fill:none" points="1114.25,895.382 1114.25,1423.18 1161.04,1423.18 1161.04,895.382 1114.25,895.382 "/>
<path clip-path="url(#clip751)" d="M1161.04 1025.04 L1161.04 1423.18 L1207.82 1423.18 L1207.82 1025.04 L1161.04 1025.04 L1161.04 1025.04  Z" fill="#009af9" fill-rule="evenodd" fill-opacity="1"/>
<polyline clip-path="url(#clip751)" style="stroke:#000000; stroke-linecap:round; stroke-linejoin:round; stroke-width:4; stroke-opacity:1; fill:none" points="1161.04,1025.04 1161.04,1423.18 1207.82,1423.18 1207.82,1025.04 1161.04,1025.04 "/>
<path clip-path="url(#clip751)" d="M1207.82 1092.16 L1207.82 1423.18 L1254.61 1423.18 L1254.61 1092.16 L1207.82 1092.16 L1207.82 1092.16  Z" fill="#009af9" fill-rule="evenodd" fill-opacity="1"/>
<polyline clip-path="url(#clip751)" style="stroke:#000000; stroke-linecap:round; stroke-linejoin:round; stroke-width:4; stroke-opacity:1; fill:none" points="1207.82,1092.16 1207.82,1423.18 1254.61,1423.18 1254.61,1092.16 1207.82,1092.16 "/>
<path clip-path="url(#clip751)" d="M1254.61 1205.04 L1254.61 1423.18 L1301.39 1423.18 L1301.39 1205.04 L1254.61 1205.04 L1254.61 1205.04  Z" fill="#009af9" fill-rule="evenodd" fill-opacity="1"/>
<polyline clip-path="url(#clip751)" style="stroke:#000000; stroke-linecap:round; stroke-linejoin:round; stroke-width:4; stroke-opacity:1; fill:none" points="1254.61,1205.04 1254.61,1423.18 1301.39,1423.18 1301.39,1205.04 1254.61,1205.04 "/>
<path clip-path="url(#clip751)" d="M1301.39 1246.23 L1301.39 1423.18 L1348.18 1423.18 L1348.18 1246.23 L1301.39 1246.23 L1301.39 1246.23  Z" fill="#009af9" fill-rule="evenodd" fill-opacity="1"/>
<polyline clip-path="url(#clip751)" style="stroke:#000000; stroke-linecap:round; stroke-linejoin:round; stroke-width:4; stroke-opacity:1; fill:none" points="1301.39,1246.23 1301.39,1423.18 1348.18,1423.18 1348.18,1246.23 1301.39,1246.23 "/>
<path clip-path="url(#clip751)" d="M1348.18 1247.76 L1348.18 1423.18 L1394.96 1423.18 L1394.96 1247.76 L1348.18 1247.76 L1348.18 1247.76  Z" fill="#009af9" fill-rule="evenodd" fill-opacity="1"/>
<polyline clip-path="url(#clip751)" style="stroke:#000000; stroke-linecap:round; stroke-linejoin:round; stroke-width:4; stroke-opacity:1; fill:none" points="1348.18,1247.76 1348.18,1423.18 1394.96,1423.18 1394.96,1247.76 1348.18,1247.76 "/>
<path clip-path="url(#clip751)" d="M1394.96 1301.15 L1394.96 1423.18 L1441.75 1423.18 L1441.75 1301.15 L1394.96 1301.15 L1394.96 1301.15  Z" fill="#009af9" fill-rule="evenodd" fill-opacity="1"/>
<polyline clip-path="url(#clip751)" style="stroke:#000000; stroke-linecap:round; stroke-linejoin:round; stroke-width:4; stroke-opacity:1; fill:none" points="1394.96,1301.15 1394.96,1423.18 1441.75,1423.18 1441.75,1301.15 1394.96,1301.15 "/>
<path clip-path="url(#clip751)" d="M1441.75 1343.86 L1441.75 1423.18 L1488.53 1423.18 L1488.53 1343.86 L1441.75 1343.86 L1441.75 1343.86  Z" fill="#009af9" fill-rule="evenodd" fill-opacity="1"/>
<polyline clip-path="url(#clip751)" style="stroke:#000000; stroke-linecap:round; stroke-linejoin:round; stroke-width:4; stroke-opacity:1; fill:none" points="1441.75,1343.86 1441.75,1423.18 1488.53,1423.18 1488.53,1343.86 1441.75,1343.86 "/>
<path clip-path="url(#clip751)" d="M1488.53 1346.91 L1488.53 1423.18 L1535.32 1423.18 L1535.32 1346.91 L1488.53 1346.91 L1488.53 1346.91  Z" fill="#009af9" fill-rule="evenodd" fill-opacity="1"/>
<polyline clip-path="url(#clip751)" style="stroke:#000000; stroke-linecap:round; stroke-linejoin:round; stroke-width:4; stroke-opacity:1; fill:none" points="1488.53,1346.91 1488.53,1423.18 1535.32,1423.18 1535.32,1346.91 1488.53,1346.91 "/>
<path clip-path="url(#clip751)" d="M1535.32 1353.01 L1535.32 1423.18 L1582.11 1423.18 L1582.11 1353.01 L1535.32 1353.01 L1535.32 1353.01  Z" fill="#009af9" fill-rule="evenodd" fill-opacity="1"/>
<polyline clip-path="url(#clip751)" style="stroke:#000000; stroke-linecap:round; stroke-linejoin:round; stroke-width:4; stroke-opacity:1; fill:none" points="1535.32,1353.01 1535.32,1423.18 1582.11,1423.18 1582.11,1353.01 1535.32,1353.01 "/>
<path clip-path="url(#clip751)" d="M1582.11 1395.72 L1582.11 1423.18 L1628.89 1423.18 L1628.89 1395.72 L1582.11 1395.72 L1582.11 1395.72  Z" fill="#009af9" fill-rule="evenodd" fill-opacity="1"/>
<polyline clip-path="url(#clip751)" style="stroke:#000000; stroke-linecap:round; stroke-linejoin:round; stroke-width:4; stroke-opacity:1; fill:none" points="1582.11,1395.72 1582.11,1423.18 1628.89,1423.18 1628.89,1395.72 1582.11,1395.72 "/>
<path clip-path="url(#clip751)" d="M1628.89 1400.3 L1628.89 1423.18 L1675.68 1423.18 L1675.68 1400.3 L1628.89 1400.3 L1628.89 1400.3  Z" fill="#009af9" fill-rule="evenodd" fill-opacity="1"/>
<polyline clip-path="url(#clip751)" style="stroke:#000000; stroke-linecap:round; stroke-linejoin:round; stroke-width:4; stroke-opacity:1; fill:none" points="1628.89,1400.3 1628.89,1423.18 1675.68,1423.18 1675.68,1400.3 1628.89,1400.3 "/>
<path clip-path="url(#clip751)" d="M1675.68 1403.35 L1675.68 1423.18 L1722.46 1423.18 L1722.46 1403.35 L1675.68 1403.35 L1675.68 1403.35  Z" fill="#009af9" fill-rule="evenodd" fill-opacity="1"/>
<polyline clip-path="url(#clip751)" style="stroke:#000000; stroke-linecap:round; stroke-linejoin:round; stroke-width:4; stroke-opacity:1; fill:none" points="1675.68,1403.35 1675.68,1423.18 1722.46,1423.18 1722.46,1403.35 1675.68,1403.35 "/>
<path clip-path="url(#clip751)" d="M1722.46 1414.03 L1722.46 1423.18 L1769.25 1423.18 L1769.25 1414.03 L1722.46 1414.03 L1722.46 1414.03  Z" fill="#009af9" fill-rule="evenodd" fill-opacity="1"/>
<polyline clip-path="url(#clip751)" style="stroke:#000000; stroke-linecap:round; stroke-linejoin:round; stroke-width:4; stroke-opacity:1; fill:none" points="1722.46,1414.03 1722.46,1423.18 1769.25,1423.18 1769.25,1414.03 1722.46,1414.03 "/>
<path clip-path="url(#clip751)" d="M1769.25 1415.55 L1769.25 1423.18 L1816.03 1423.18 L1816.03 1415.55 L1769.25 1415.55 L1769.25 1415.55  Z" fill="#009af9" fill-rule="evenodd" fill-opacity="1"/>
<polyline clip-path="url(#clip751)" style="stroke:#000000; stroke-linecap:round; stroke-linejoin:round; stroke-width:4; stroke-opacity:1; fill:none" points="1769.25,1415.55 1769.25,1423.18 1816.03,1423.18 1816.03,1415.55 1769.25,1415.55 "/>
<path clip-path="url(#clip751)" d="M1816.03 1417.08 L1816.03 1423.18 L1862.82 1423.18 L1862.82 1417.08 L1816.03 1417.08 L1816.03 1417.08  Z" fill="#009af9" fill-rule="evenodd" fill-opacity="1"/>
<polyline clip-path="url(#clip751)" style="stroke:#000000; stroke-linecap:round; stroke-linejoin:round; stroke-width:4; stroke-opacity:1; fill:none" points="1816.03,1417.08 1816.03,1423.18 1862.82,1423.18 1862.82,1417.08 1816.03,1417.08 "/>
<path clip-path="url(#clip751)" d="M1862.82 1420.13 L1862.82 1423.18 L1909.6 1423.18 L1909.6 1420.13 L1862.82 1420.13 L1862.82 1420.13  Z" fill="#009af9" fill-rule="evenodd" fill-opacity="1"/>
<polyline clip-path="url(#clip751)" style="stroke:#000000; stroke-linecap:round; stroke-linejoin:round; stroke-width:4; stroke-opacity:1; fill:none" points="1862.82,1420.13 1862.82,1423.18 1909.6,1423.18 1909.6,1420.13 1862.82,1420.13 "/>
<path clip-path="url(#clip751)" d="M1909.6 1417.08 L1909.6 1423.18 L1956.39 1423.18 L1956.39 1417.08 L1909.6 1417.08 L1909.6 1417.08  Z" fill="#009af9" fill-rule="evenodd" fill-opacity="1"/>
<polyline clip-path="url(#clip751)" style="stroke:#000000; stroke-linecap:round; stroke-linejoin:round; stroke-width:4; stroke-opacity:1; fill:none" points="1909.6,1417.08 1909.6,1423.18 1956.39,1423.18 1956.39,1417.08 1909.6,1417.08 "/>
<path clip-path="url(#clip751)" d="M1956.39 1423.18 L1956.39 1423.18 L2003.17 1423.18 L2003.17 1423.18 L1956.39 1423.18 L1956.39 1423.18  Z" fill="#009af9" fill-rule="evenodd" fill-opacity="1"/>
<polyline clip-path="url(#clip751)" style="stroke:#000000; stroke-linecap:round; stroke-linejoin:round; stroke-width:4; stroke-opacity:1; fill:none" points="1956.39,1423.18 1956.39,1423.18 2003.17,1423.18 1956.39,1423.18 "/>
<path clip-path="url(#clip751)" d="M2003.17 1423.18 L2003.17 1423.18 L2049.96 1423.18 L2049.96 1423.18 L2003.17 1423.18 L2003.17 1423.18  Z" fill="#009af9" fill-rule="evenodd" fill-opacity="1"/>
<polyline clip-path="url(#clip751)" style="stroke:#000000; stroke-linecap:round; stroke-linejoin:round; stroke-width:4; stroke-opacity:1; fill:none" points="2003.17,1423.18 2003.17,1423.18 2049.96,1423.18 2003.17,1423.18 "/>
<path clip-path="url(#clip751)" d="M2049.96 1418.6 L2049.96 1423.18 L2096.75 1423.18 L2096.75 1418.6 L2049.96 1418.6 L2049.96 1418.6  Z" fill="#009af9" fill-rule="evenodd" fill-opacity="1"/>
<polyline clip-path="url(#clip751)" style="stroke:#000000; stroke-linecap:round; stroke-linejoin:round; stroke-width:4; stroke-opacity:1; fill:none" points="2049.96,1418.6 2049.96,1423.18 2096.75,1423.18 2096.75,1418.6 2049.96,1418.6 "/>
<path clip-path="url(#clip751)" d="M2096.75 1423.18 L2096.75 1423.18 L2143.53 1423.18 L2143.53 1423.18 L2096.75 1423.18 L2096.75 1423.18  Z" fill="#009af9" fill-rule="evenodd" fill-opacity="1"/>
<polyline clip-path="url(#clip751)" style="stroke:#000000; stroke-linecap:round; stroke-linejoin:round; stroke-width:4; stroke-opacity:1; fill:none" points="2096.75,1423.18 2096.75,1423.18 2143.53,1423.18 2096.75,1423.18 "/>
<path clip-path="url(#clip751)" d="M2143.53 1423.18 L2143.53 1423.18 L2190.32 1423.18 L2190.32 1423.18 L2143.53 1423.18 L2143.53 1423.18  Z" fill="#009af9" fill-rule="evenodd" fill-opacity="1"/>
<polyline clip-path="url(#clip751)" style="stroke:#000000; stroke-linecap:round; stroke-linejoin:round; stroke-width:4; stroke-opacity:1; fill:none" points="2143.53,1423.18 2143.53,1423.18 2190.32,1423.18 2143.53,1423.18 "/>
<path clip-path="url(#clip751)" d="M2190.32 1421.65 L2190.32 1423.18 L2237.1 1423.18 L2237.1 1421.65 L2190.32 1421.65 L2190.32 1421.65  Z" fill="#009af9" fill-rule="evenodd" fill-opacity="1"/>
<polyline clip-path="url(#clip751)" style="stroke:#000000; stroke-linecap:round; stroke-linejoin:round; stroke-width:4; stroke-opacity:1; fill:none" points="2190.32,1421.65 2190.32,1423.18 2237.1,1423.18 2237.1,1421.65 2190.32,1421.65 "/>
<circle clip-path="url(#clip751)" style="fill:#009af9; stroke:none; fill-opacity:0" cx="389.075" cy="1420.13" r="2"/>
<circle clip-path="url(#clip751)" style="fill:#009af9; stroke:none; fill-opacity:0" cx="435.86" cy="1353.01" r="2"/>
<circle clip-path="url(#clip751)" style="fill:#009af9; stroke:none; fill-opacity:0" cx="482.646" cy="1215.72" r="2"/>
<circle clip-path="url(#clip751)" style="fill:#009af9; stroke:none; fill-opacity:0" cx="529.431" cy="1049.45" r="2"/>
<circle clip-path="url(#clip751)" style="fill:#009af9; stroke:none; fill-opacity:0" cx="576.217" cy="771.822" r="2"/>
<circle clip-path="url(#clip751)" style="fill:#009af9; stroke:none; fill-opacity:0" cx="623.002" cy="562.839" r="2"/>
<circle clip-path="url(#clip751)" style="fill:#009af9; stroke:none; fill-opacity:0" cx="669.788" cy="433.177" r="2"/>
<circle clip-path="url(#clip751)" style="fill:#009af9; stroke:none; fill-opacity:0" cx="716.573" cy="147.922" r="2"/>
<circle clip-path="url(#clip751)" style="fill:#009af9; stroke:none; fill-opacity:0" cx="763.359" cy="125.041" r="2"/>
<circle clip-path="url(#clip751)" style="fill:#009af9; stroke:none; fill-opacity:0" cx="810.144" cy="47.2441" r="2"/>
<circle clip-path="url(#clip751)" style="fill:#009af9; stroke:none; fill-opacity:0" cx="856.93" cy="103.685" r="2"/>
<circle clip-path="url(#clip751)" style="fill:#009af9; stroke:none; fill-opacity:0" cx="903.715" cy="260.804" r="2"/>
<circle clip-path="url(#clip751)" style="fill:#009af9; stroke:none; fill-opacity:0" cx="950.501" cy="363.008" r="2"/>
<circle clip-path="url(#clip751)" style="fill:#009af9; stroke:none; fill-opacity:0" cx="997.286" cy="544.534" r="2"/>
<circle clip-path="url(#clip751)" style="fill:#009af9; stroke:none; fill-opacity:0" cx="1044.07" cy="617.754" r="2"/>
<circle clip-path="url(#clip751)" style="fill:#009af9; stroke:none; fill-opacity:0" cx="1090.86" cy="784.026" r="2"/>
<circle clip-path="url(#clip751)" style="fill:#009af9; stroke:none; fill-opacity:0" cx="1137.64" cy="895.382" r="2"/>
<circle clip-path="url(#clip751)" style="fill:#009af9; stroke:none; fill-opacity:0" cx="1184.43" cy="1025.04" r="2"/>
<circle clip-path="url(#clip751)" style="fill:#009af9; stroke:none; fill-opacity:0" cx="1231.21" cy="1092.16" r="2"/>
<circle clip-path="url(#clip751)" style="fill:#009af9; stroke:none; fill-opacity:0" cx="1278" cy="1205.04" r="2"/>
<circle clip-path="url(#clip751)" style="fill:#009af9; stroke:none; fill-opacity:0" cx="1324.78" cy="1246.23" r="2"/>
<circle clip-path="url(#clip751)" style="fill:#009af9; stroke:none; fill-opacity:0" cx="1371.57" cy="1247.76" r="2"/>
<circle clip-path="url(#clip751)" style="fill:#009af9; stroke:none; fill-opacity:0" cx="1418.36" cy="1301.15" r="2"/>
<circle clip-path="url(#clip751)" style="fill:#009af9; stroke:none; fill-opacity:0" cx="1465.14" cy="1343.86" r="2"/>
<circle clip-path="url(#clip751)" style="fill:#009af9; stroke:none; fill-opacity:0" cx="1511.93" cy="1346.91" r="2"/>
<circle clip-path="url(#clip751)" style="fill:#009af9; stroke:none; fill-opacity:0" cx="1558.71" cy="1353.01" r="2"/>
<circle clip-path="url(#clip751)" style="fill:#009af9; stroke:none; fill-opacity:0" cx="1605.5" cy="1395.72" r="2"/>
<circle clip-path="url(#clip751)" style="fill:#009af9; stroke:none; fill-opacity:0" cx="1652.28" cy="1400.3" r="2"/>
<circle clip-path="url(#clip751)" style="fill:#009af9; stroke:none; fill-opacity:0" cx="1699.07" cy="1403.35" r="2"/>
<circle clip-path="url(#clip751)" style="fill:#009af9; stroke:none; fill-opacity:0" cx="1745.85" cy="1414.03" r="2"/>
<circle clip-path="url(#clip751)" style="fill:#009af9; stroke:none; fill-opacity:0" cx="1792.64" cy="1415.55" r="2"/>
<circle clip-path="url(#clip751)" style="fill:#009af9; stroke:none; fill-opacity:0" cx="1839.43" cy="1417.08" r="2"/>
<circle clip-path="url(#clip751)" style="fill:#009af9; stroke:none; fill-opacity:0" cx="1886.21" cy="1420.13" r="2"/>
<circle clip-path="url(#clip751)" style="fill:#009af9; stroke:none; fill-opacity:0" cx="1933" cy="1417.08" r="2"/>
<circle clip-path="url(#clip751)" style="fill:#009af9; stroke:none; fill-opacity:0" cx="1979.78" cy="1423.18" r="2"/>
<circle clip-path="url(#clip751)" style="fill:#009af9; stroke:none; fill-opacity:0" cx="2026.57" cy="1423.18" r="2"/>
<circle clip-path="url(#clip751)" style="fill:#009af9; stroke:none; fill-opacity:0" cx="2073.35" cy="1418.6" r="2"/>
<circle clip-path="url(#clip751)" style="fill:#009af9; stroke:none; fill-opacity:0" cx="2120.14" cy="1423.18" r="2"/>
<circle clip-path="url(#clip751)" style="fill:#009af9; stroke:none; fill-opacity:0" cx="2166.92" cy="1423.18" r="2"/>
<circle clip-path="url(#clip751)" style="fill:#009af9; stroke:none; fill-opacity:0" cx="2213.71" cy="1421.65" r="2"/>
<polyline clip-path="url(#clip751)" style="stroke:#e26f46; stroke-linecap:round; stroke-linejoin:round; stroke-width:16; stroke-opacity:1; fill:none" points="323.575,1423.18 342.884,1423.13 362.193,1422.33 381.502,1418.82 400.811,1409.56 420.12,1391.26 439.428,1361.01 458.737,1316.86 478.046,1258.05 497.355,1185.02 516.664,1099.33 535.973,1003.41 555.282,900.261 574.591,793.214 593.9,685.647 613.209,580.789 632.518,481.551 651.827,390.421 671.136,309.394 690.444,239.949 709.753,183.057 729.062,139.213 748.371,108.484 767.68,90.5691 786.989,84.8668 806.298,90.5362 825.607,106.562 844.916,131.812 864.225,165.089 883.534,205.171 902.843,250.856 922.152,300.982 941.46,354.457 960.769,410.269 980.078,467.502 999.387,525.34 1018.7,583.068 1038.01,640.072 1057.31,695.836 1076.62,749.935 1095.93,802.031 1115.24,851.863 1134.55,899.241 1153.86,944.034 1173.17,986.168 1192.48,1025.61 1211.79,1062.38 1231.09,1096.51 1250.4,1128.08 1269.71,1157.17 1289.02,1183.88 1308.33,1208.34 1327.64,1230.67 1346.95,1250.99 1366.26,1269.43 1385.57,1286.14 1404.87,1301.23 1424.18,1314.83 1443.49,1327.06 1462.8,1338.03 1482.11,1347.86 1501.42,1356.65 1520.73,1364.49 1540.04,1371.47 1559.35,1377.68 1578.65,1383.19 1597.96,1388.08 1617.27,1392.4 1636.58,1396.22 1655.89,1399.59 1675.2,1402.56 1694.51,1405.18 1713.82,1407.48 1733.13,1409.5 1752.44,1411.27 1771.74,1412.82 1791.05,1414.18 1810.36,1415.36 1829.67,1416.4 1848.98,1417.3 1868.29,1418.09 1887.6,1418.77 1906.91,1419.37 1926.22,1419.88 1945.52,1420.33 1964.83,1420.72 1984.14,1421.06 2003.45,1421.35 2022.76,1421.61 2042.07,1421.83 2061.38,1422.02 2080.69,1422.18 2100,1422.32 2119.3,1422.44 2138.61,1422.55 2157.92,1422.64 2177.23,1422.71 2196.54,1422.78 2215.85,1422.84 2235.16,1422.89 "/>
<path clip-path="url(#clip750)" d="M2019.96 248.629 L2282.66 248.629 L2282.66 93.1086 L2019.96 93.1086  Z" fill="#ffffff" fill-rule="evenodd" fill-opacity="1"/>
<polyline clip-path="url(#clip750)" style="stroke:#000000; stroke-linecap:round; stroke-linejoin:round; stroke-width:4; stroke-opacity:1; fill:none" points="2019.96,248.629 2282.66,248.629 2282.66,93.1086 2019.96,93.1086 2019.96,248.629 "/>
<path clip-path="url(#clip750)" d="M2043.33 165.685 L2183.51 165.685 L2183.51 124.213 L2043.33 124.213 L2043.33 165.685  Z" fill="#009af9" fill-rule="evenodd" fill-opacity="1"/>
<polyline clip-path="url(#clip750)" style="stroke:#000000; stroke-linecap:round; stroke-linejoin:round; stroke-width:4; stroke-opacity:1; fill:none" points="2043.33,165.685 2183.51,165.685 2183.51,124.213 2043.33,124.213 2043.33,165.685 "/>
<path clip-path="url(#clip750)" d="M2220.71 164.636 Q2218.91 169.266 2217.2 170.678 Q2215.48 172.09 2212.61 172.09 L2209.21 172.09 L2209.21 168.525 L2211.71 168.525 Q2213.47 168.525 2214.44 167.692 Q2215.41 166.858 2216.59 163.756 L2217.36 161.812 L2206.87 136.303 L2211.38 136.303 L2219.49 156.581 L2227.59 136.303 L2232.1 136.303 L2220.71 164.636 Z" fill="#000000" fill-rule="nonzero" fill-opacity="1" /><path clip-path="url(#clip750)" d="M2239.39 158.293 L2247.03 158.293 L2247.03 131.928 L2238.72 133.595 L2238.72 129.335 L2246.99 127.669 L2251.66 127.669 L2251.66 158.293 L2259.3 158.293 L2259.3 162.229 L2239.39 162.229 L2239.39 158.293 Z" fill="#000000" fill-rule="nonzero" fill-opacity="1" /><polyline clip-path="url(#clip750)" style="stroke:#e26f46; stroke-linecap:round; stroke-linejoin:round; stroke-width:16; stroke-opacity:1; fill:none" points="2043.33,196.789 2183.51,196.789 "/>
<path clip-path="url(#clip750)" d="M2220.71 216.476 Q2218.91 221.106 2217.2 222.518 Q2215.48 223.93 2212.61 223.93 L2209.21 223.93 L2209.21 220.365 L2211.71 220.365 Q2213.47 220.365 2214.44 219.532 Q2215.41 218.698 2216.59 215.596 L2217.36 213.652 L2206.87 188.143 L2211.38 188.143 L2219.49 208.421 L2227.59 188.143 L2232.1 188.143 L2220.71 216.476 Z" fill="#000000" fill-rule="nonzero" fill-opacity="1" /><path clip-path="url(#clip750)" d="M2242.61 210.133 L2258.93 210.133 L2258.93 214.069 L2236.99 214.069 L2236.99 210.133 Q2239.65 207.379 2244.23 202.749 Q2248.84 198.096 2250.02 196.754 Q2252.26 194.231 2253.14 192.495 Q2254.05 190.735 2254.05 189.046 Q2254.05 186.291 2252.1 184.555 Q2250.18 182.819 2247.08 182.819 Q2244.88 182.819 2242.43 183.583 Q2240 184.347 2237.22 185.897 L2237.22 181.175 Q2240.04 180.041 2242.5 179.462 Q2244.95 178.884 2246.99 178.884 Q2252.36 178.884 2255.55 181.569 Q2258.75 184.254 2258.75 188.745 Q2258.75 190.874 2257.94 192.796 Q2257.15 194.694 2255.04 197.286 Q2254.46 197.958 2251.36 201.175 Q2248.26 204.37 2242.61 210.133 Z" fill="#000000" fill-rule="nonzero" fill-opacity="1" /></svg>
