<?xml version="1.0" encoding="utf-8"?>
<svg xmlns="http://www.w3.org/2000/svg" xmlns:xlink="http://www.w3.org/1999/xlink" width="600" height="400" viewBox="0 0 2400 1600">
<defs>
  <clipPath id="clip260">
    <rect x="0" y="0" width="2400" height="1600"/>
  </clipPath>
</defs>
<path clip-path="url(#clip260)" d="M0 1600 L2400 1600 L2400 0 L0 0  Z" fill="#ffffff" fill-rule="evenodd" fill-opacity="1"/>
<defs>
  <clipPath id="clip261">
    <rect x="250" y="47" width="2104" height="1377"/>
  </clipPath>
</defs>
<path clip-path="url(#clip260)" d="M250.028 1423.18 L2352.76 1423.18 L2352.76 47.2441 L250.028 47.2441  Z" fill="#ffffff" fill-rule="evenodd" fill-opacity="1"/>
<polyline clip-path="url(#clip261)" style="stroke:#000000; stroke-linecap:round; stroke-linejoin:round; stroke-width:2; stroke-opacity:0.1; fill:none" points="318.896,1423.18 318.896,47.2441 "/>
<polyline clip-path="url(#clip261)" style="stroke:#000000; stroke-linecap:round; stroke-linejoin:round; stroke-width:2; stroke-opacity:0.1; fill:none" points="786.751,1423.18 786.751,47.2441 "/>
<polyline clip-path="url(#clip261)" style="stroke:#000000; stroke-linecap:round; stroke-linejoin:round; stroke-width:2; stroke-opacity:0.1; fill:none" points="1254.61,1423.18 1254.61,47.2441 "/>
<polyline clip-path="url(#clip261)" style="stroke:#000000; stroke-linecap:round; stroke-linejoin:round; stroke-width:2; stroke-opacity:0.1; fill:none" points="1722.46,1423.18 1722.46,47.2441 "/>
<polyline clip-path="url(#clip261)" style="stroke:#000000; stroke-linecap:round; stroke-linejoin:round; stroke-width:2; stroke-opacity:0.1; fill:none" points="2190.32,1423.18 2190.32,47.2441 "/>
<polyline clip-path="url(#clip261)" style="stroke:#000000; stroke-linecap:round; stroke-linejoin:round; stroke-width:2; stroke-opacity:0.1; fill:none" points="250.028,1423.18 2352.76,1423.18 "/>
<polyline clip-path="url(#clip261)" style="stroke:#000000; stroke-linecap:round; stroke-linejoin:round; stroke-width:2; stroke-opacity:0.1; fill:none" points="250.028,1120.44 2352.76,1120.44 "/>
<polyline clip-path="url(#clip261)" style="stroke:#000000; stroke-linecap:round; stroke-linejoin:round; stroke-width:2; stroke-opacity:0.1; fill:none" points="250.028,817.708 2352.76,817.708 "/>
<polyline clip-path="url(#clip261)" style="stroke:#000000; stroke-linecap:round; stroke-linejoin:round; stroke-width:2; stroke-opacity:0.1; fill:none" points="250.028,514.971 2352.76,514.971 "/>
<polyline clip-path="url(#clip261)" style="stroke:#000000; stroke-linecap:round; stroke-linejoin:round; stroke-width:2; stroke-opacity:0.1; fill:none" points="250.028,212.235 2352.76,212.235 "/>
<polyline clip-path="url(#clip260)" style="stroke:#000000; stroke-linecap:round; stroke-linejoin:round; stroke-width:4; stroke-opacity:1; fill:none" points="250.028,1423.18 2352.76,1423.18 "/>
<polyline clip-path="url(#clip260)" style="stroke:#000000; stroke-linecap:round; stroke-linejoin:round; stroke-width:4; stroke-opacity:1; fill:none" points="318.896,1423.18 318.896,1404.28 "/>
<polyline clip-path="url(#clip260)" style="stroke:#000000; stroke-linecap:round; stroke-linejoin:round; stroke-width:4; stroke-opacity:1; fill:none" points="786.751,1423.18 786.751,1404.28 "/>
<polyline clip-path="url(#clip260)" style="stroke:#000000; stroke-linecap:round; stroke-linejoin:round; stroke-width:4; stroke-opacity:1; fill:none" points="1254.61,1423.18 1254.61,1404.28 "/>
<polyline clip-path="url(#clip260)" style="stroke:#000000; stroke-linecap:round; stroke-linejoin:round; stroke-width:4; stroke-opacity:1; fill:none" points="1722.46,1423.18 1722.46,1404.28 "/>
<polyline clip-path="url(#clip260)" style="stroke:#000000; stroke-linecap:round; stroke-linejoin:round; stroke-width:4; stroke-opacity:1; fill:none" points="2190.32,1423.18 2190.32,1404.28 "/>
<path clip-path="url(#clip260)" d="M318.896 1454.1 Q315.285 1454.1 313.457 1457.66 Q311.651 1461.2 311.651 1468.33 Q311.651 1475.44 313.457 1479.01 Q315.285 1482.55 318.896 1482.55 Q322.531 1482.55 324.336 1479.01 Q326.165 1475.44 326.165 1468.33 Q326.165 1461.2 324.336 1457.66 Q322.531 1454.1 318.896 1454.1 M318.896 1450.39 Q324.707 1450.39 327.762 1455 Q330.841 1459.58 330.841 1468.33 Q330.841 1477.06 327.762 1481.67 Q324.707 1486.25 318.896 1486.25 Q313.086 1486.25 310.008 1481.67 Q306.952 1477.06 306.952 1468.33 Q306.952 1459.58 310.008 1455 Q313.086 1450.39 318.896 1450.39 Z" fill="#000000" fill-rule="nonzero" fill-opacity="1" /><path clip-path="url(#clip260)" d="M761.439 1481.64 L769.078 1481.64 L769.078 1455.28 L760.768 1456.95 L760.768 1452.69 L769.032 1451.02 L773.708 1451.02 L773.708 1481.64 L781.346 1481.64 L781.346 1485.58 L761.439 1485.58 L761.439 1481.64 Z" fill="#000000" fill-rule="nonzero" fill-opacity="1" /><path clip-path="url(#clip260)" d="M800.791 1454.1 Q797.18 1454.1 795.351 1457.66 Q793.545 1461.2 793.545 1468.33 Q793.545 1475.44 795.351 1479.01 Q797.18 1482.55 800.791 1482.55 Q804.425 1482.55 806.231 1479.01 Q808.059 1475.44 808.059 1468.33 Q808.059 1461.2 806.231 1457.66 Q804.425 1454.1 800.791 1454.1 M800.791 1450.39 Q806.601 1450.39 809.656 1455 Q812.735 1459.58 812.735 1468.33 Q812.735 1477.06 809.656 1481.67 Q806.601 1486.25 800.791 1486.25 Q794.981 1486.25 791.902 1481.67 Q788.846 1477.06 788.846 1468.33 Q788.846 1459.58 791.902 1455 Q794.981 1450.39 800.791 1450.39 Z" fill="#000000" fill-rule="nonzero" fill-opacity="1" /><path clip-path="url(#clip260)" d="M1233.38 1481.64 L1249.7 1481.64 L1249.7 1485.58 L1227.75 1485.58 L1227.75 1481.64 Q1230.42 1478.89 1235 1474.26 Q1239.61 1469.61 1240.79 1468.27 Q1243.03 1465.74 1243.91 1464.01 Q1244.81 1462.25 1244.81 1460.56 Q1244.81 1457.8 1242.87 1456.07 Q1240.95 1454.33 1237.85 1454.33 Q1235.65 1454.33 1233.19 1455.09 Q1230.76 1455.86 1227.99 1457.41 L1227.99 1452.69 Q1230.81 1451.55 1233.26 1450.97 Q1235.72 1450.39 1237.75 1450.39 Q1243.13 1450.39 1246.32 1453.08 Q1249.51 1455.77 1249.51 1460.26 Q1249.51 1462.39 1248.7 1464.31 Q1247.92 1466.2 1245.81 1468.8 Q1245.23 1469.47 1242.13 1472.69 Q1239.03 1475.88 1233.38 1481.64 Z" fill="#000000" fill-rule="nonzero" fill-opacity="1" /><path clip-path="url(#clip260)" d="M1269.51 1454.1 Q1265.9 1454.1 1264.07 1457.66 Q1262.27 1461.2 1262.27 1468.33 Q1262.27 1475.44 1264.07 1479.01 Q1265.9 1482.55 1269.51 1482.55 Q1273.15 1482.55 1274.95 1479.01 Q1276.78 1475.44 1276.78 1468.33 Q1276.78 1461.2 1274.95 1457.66 Q1273.15 1454.1 1269.51 1454.1 M1269.51 1450.39 Q1275.32 1450.39 1278.38 1455 Q1281.46 1459.58 1281.46 1468.33 Q1281.46 1477.06 1278.38 1481.67 Q1275.32 1486.25 1269.51 1486.25 Q1263.7 1486.25 1260.63 1481.67 Q1257.57 1477.06 1257.57 1468.33 Q1257.57 1459.58 1260.63 1455 Q1263.7 1450.39 1269.51 1450.39 Z" fill="#000000" fill-rule="nonzero" fill-opacity="1" /><path clip-path="url(#clip260)" d="M1711.3 1466.95 Q1714.66 1467.66 1716.54 1469.93 Q1718.43 1472.2 1718.43 1475.53 Q1718.43 1480.65 1714.92 1483.45 Q1711.4 1486.25 1704.92 1486.25 Q1702.74 1486.25 1700.42 1485.81 Q1698.13 1485.39 1695.68 1484.54 L1695.68 1480.02 Q1697.62 1481.16 1699.94 1481.74 Q1702.25 1482.32 1704.78 1482.32 Q1709.17 1482.32 1711.47 1480.58 Q1713.78 1478.84 1713.78 1475.53 Q1713.78 1472.48 1711.63 1470.77 Q1709.5 1469.03 1705.68 1469.03 L1701.65 1469.03 L1701.65 1465.19 L1705.86 1465.19 Q1709.31 1465.19 1711.14 1463.82 Q1712.97 1462.43 1712.97 1459.84 Q1712.97 1457.18 1711.07 1455.77 Q1709.2 1454.33 1705.68 1454.33 Q1703.76 1454.33 1701.56 1454.75 Q1699.36 1455.16 1696.72 1456.04 L1696.72 1451.88 Q1699.38 1451.14 1701.7 1450.77 Q1704.04 1450.39 1706.1 1450.39 Q1711.42 1450.39 1714.52 1452.83 Q1717.62 1455.23 1717.62 1459.35 Q1717.62 1462.22 1715.98 1464.21 Q1714.34 1466.18 1711.3 1466.95 Z" fill="#000000" fill-rule="nonzero" fill-opacity="1" /><path clip-path="url(#clip260)" d="M1737.3 1454.1 Q1733.69 1454.1 1731.86 1457.66 Q1730.05 1461.2 1730.05 1468.33 Q1730.05 1475.44 1731.86 1479.01 Q1733.69 1482.55 1737.3 1482.55 Q1740.93 1482.55 1742.74 1479.01 Q1744.57 1475.44 1744.57 1468.33 Q1744.57 1461.2 1742.74 1457.66 Q1740.93 1454.1 1737.3 1454.1 M1737.3 1450.39 Q1743.11 1450.39 1746.17 1455 Q1749.24 1459.58 1749.24 1468.33 Q1749.24 1477.06 1746.17 1481.67 Q1743.11 1486.25 1737.3 1486.25 Q1731.49 1486.25 1728.41 1481.67 Q1725.36 1477.06 1725.36 1468.33 Q1725.36 1459.58 1728.41 1455 Q1731.49 1450.39 1737.3 1450.39 Z" fill="#000000" fill-rule="nonzero" fill-opacity="1" /><path clip-path="url(#clip260)" d="M2178.49 1455.09 L2166.68 1473.54 L2178.49 1473.54 L2178.49 1455.09 M2177.26 1451.02 L2183.14 1451.02 L2183.14 1473.54 L2188.07 1473.54 L2188.07 1477.43 L2183.14 1477.43 L2183.14 1485.58 L2178.49 1485.58 L2178.49 1477.43 L2162.89 1477.43 L2162.89 1472.92 L2177.26 1451.02 Z" fill="#000000" fill-rule="nonzero" fill-opacity="1" /><path clip-path="url(#clip260)" d="M2205.8 1454.1 Q2202.19 1454.1 2200.36 1457.66 Q2198.56 1461.2 2198.56 1468.33 Q2198.56 1475.44 2200.36 1479.01 Q2202.19 1482.55 2205.8 1482.55 Q2209.44 1482.55 2211.24 1479.01 Q2213.07 1475.44 2213.07 1468.33 Q2213.07 1461.2 2211.24 1457.66 Q2209.44 1454.1 2205.8 1454.1 M2205.8 1450.39 Q2211.61 1450.39 2214.67 1455 Q2217.75 1459.58 2217.75 1468.33 Q2217.75 1477.06 2214.67 1481.67 Q2211.61 1486.25 2205.8 1486.25 Q2199.99 1486.25 2196.91 1481.67 Q2193.86 1477.06 2193.86 1468.33 Q2193.86 1459.58 2196.91 1455 Q2199.99 1450.39 2205.8 1450.39 Z" fill="#000000" fill-rule="nonzero" fill-opacity="1" /><path clip-path="url(#clip260)" d="M1300.45 1522.27 L1300.45 1532.4 L1312.52 1532.4 L1312.52 1536.95 L1300.45 1536.95 L1300.45 1556.3 Q1300.45 1560.66 1301.63 1561.9 Q1302.84 1563.14 1306.5 1563.14 L1312.52 1563.14 L1312.52 1568.04 L1306.5 1568.04 Q1299.72 1568.04 1297.14 1565.53 Q1294.56 1562.98 1294.56 1556.3 L1294.56 1536.95 L1290.27 1536.95 L1290.27 1532.4 L1294.56 1532.4 L1294.56 1522.27 L1300.45 1522.27 Z" fill="#000000" fill-rule="nonzero" fill-opacity="1" /><polyline clip-path="url(#clip260)" style="stroke:#000000; stroke-linecap:round; stroke-linejoin:round; stroke-width:4; stroke-opacity:1; fill:none" points="250.028,1423.18 250.028,47.2441 "/>
<polyline clip-path="url(#clip260)" style="stroke:#000000; stroke-linecap:round; stroke-linejoin:round; stroke-width:4; stroke-opacity:1; fill:none" points="250.028,1423.18 268.926,1423.18 "/>
<polyline clip-path="url(#clip260)" style="stroke:#000000; stroke-linecap:round; stroke-linejoin:round; stroke-width:4; stroke-opacity:1; fill:none" points="250.028,1120.44 268.926,1120.44 "/>
<polyline clip-path="url(#clip260)" style="stroke:#000000; stroke-linecap:round; stroke-linejoin:round; stroke-width:4; stroke-opacity:1; fill:none" points="250.028,817.708 268.926,817.708 "/>
<polyline clip-path="url(#clip260)" style="stroke:#000000; stroke-linecap:round; stroke-linejoin:round; stroke-width:4; stroke-opacity:1; fill:none" points="250.028,514.971 268.926,514.971 "/>
<polyline clip-path="url(#clip260)" style="stroke:#000000; stroke-linecap:round; stroke-linejoin:round; stroke-width:4; stroke-opacity:1; fill:none" points="250.028,212.235 268.926,212.235 "/>
<path clip-path="url(#clip260)" d="M126.691 1408.98 Q123.08 1408.98 121.251 1412.54 Q119.445 1416.08 119.445 1423.21 Q119.445 1430.32 121.251 1433.89 Q123.08 1437.43 126.691 1437.43 Q130.325 1437.43 132.13 1433.89 Q133.959 1430.32 133.959 1423.21 Q133.959 1416.08 132.13 1412.54 Q130.325 1408.98 126.691 1408.98 M126.691 1405.27 Q132.501 1405.27 135.556 1409.88 Q138.635 1414.46 138.635 1423.21 Q138.635 1431.94 135.556 1436.55 Q132.501 1441.13 126.691 1441.13 Q120.88 1441.13 117.802 1436.55 Q114.746 1431.94 114.746 1423.21 Q114.746 1414.46 117.802 1409.88 Q120.88 1405.27 126.691 1405.27 Z" fill="#000000" fill-rule="nonzero" fill-opacity="1" /><path clip-path="url(#clip260)" d="M146.853 1434.58 L151.737 1434.58 L151.737 1440.46 L146.853 1440.46 L146.853 1434.58 Z" fill="#000000" fill-rule="nonzero" fill-opacity="1" /><path clip-path="url(#clip260)" d="M171.922 1408.98 Q168.311 1408.98 166.482 1412.54 Q164.677 1416.08 164.677 1423.21 Q164.677 1430.32 166.482 1433.89 Q168.311 1437.43 171.922 1437.43 Q175.556 1437.43 177.362 1433.89 Q179.19 1430.32 179.19 1423.21 Q179.19 1416.08 177.362 1412.54 Q175.556 1408.98 171.922 1408.98 M171.922 1405.27 Q177.732 1405.27 180.788 1409.88 Q183.866 1414.46 183.866 1423.21 Q183.866 1431.94 180.788 1436.55 Q177.732 1441.13 171.922 1441.13 Q166.112 1441.13 163.033 1436.55 Q159.978 1431.94 159.978 1423.21 Q159.978 1414.46 163.033 1409.88 Q166.112 1405.27 171.922 1405.27 Z" fill="#000000" fill-rule="nonzero" fill-opacity="1" /><path clip-path="url(#clip260)" d="M202.084 1408.98 Q198.473 1408.98 196.644 1412.54 Q194.838 1416.08 194.838 1423.21 Q194.838 1430.32 196.644 1433.89 Q198.473 1437.43 202.084 1437.43 Q205.718 1437.43 207.524 1433.89 Q209.352 1430.32 209.352 1423.21 Q209.352 1416.08 207.524 1412.54 Q205.718 1408.98 202.084 1408.98 M202.084 1405.27 Q207.894 1405.27 210.949 1409.88 Q214.028 1414.46 214.028 1423.21 Q214.028 1431.94 210.949 1436.55 Q207.894 1441.13 202.084 1441.13 Q196.274 1441.13 193.195 1436.55 Q190.139 1431.94 190.139 1423.21 Q190.139 1414.46 193.195 1409.88 Q196.274 1405.27 202.084 1405.27 Z" fill="#000000" fill-rule="nonzero" fill-opacity="1" /><path clip-path="url(#clip260)" d="M128.288 1106.24 Q124.677 1106.24 122.848 1109.81 Q121.043 1113.35 121.043 1120.48 Q121.043 1127.58 122.848 1131.15 Q124.677 1134.69 128.288 1134.69 Q131.922 1134.69 133.728 1131.15 Q135.556 1127.58 135.556 1120.48 Q135.556 1113.35 133.728 1109.81 Q131.922 1106.24 128.288 1106.24 M128.288 1102.54 Q134.098 1102.54 137.154 1107.15 Q140.232 1111.73 140.232 1120.48 Q140.232 1129.21 137.154 1133.81 Q134.098 1138.39 128.288 1138.39 Q122.478 1138.39 119.399 1133.81 Q116.343 1129.21 116.343 1120.48 Q116.343 1111.73 119.399 1107.15 Q122.478 1102.54 128.288 1102.54 Z" fill="#000000" fill-rule="nonzero" fill-opacity="1" /><path clip-path="url(#clip260)" d="M148.45 1131.84 L153.334 1131.84 L153.334 1137.72 L148.45 1137.72 L148.45 1131.84 Z" fill="#000000" fill-rule="nonzero" fill-opacity="1" /><path clip-path="url(#clip260)" d="M173.519 1106.24 Q169.908 1106.24 168.079 1109.81 Q166.274 1113.35 166.274 1120.48 Q166.274 1127.58 168.079 1131.15 Q169.908 1134.69 173.519 1134.69 Q177.153 1134.69 178.959 1131.15 Q180.788 1127.58 180.788 1120.48 Q180.788 1113.35 178.959 1109.81 Q177.153 1106.24 173.519 1106.24 M173.519 1102.54 Q179.329 1102.54 182.385 1107.15 Q185.463 1111.73 185.463 1120.48 Q185.463 1129.21 182.385 1133.81 Q179.329 1138.39 173.519 1138.39 Q167.709 1138.39 164.63 1133.81 Q161.575 1129.21 161.575 1120.48 Q161.575 1111.73 164.63 1107.15 Q167.709 1102.54 173.519 1102.54 Z" fill="#000000" fill-rule="nonzero" fill-opacity="1" /><path clip-path="url(#clip260)" d="M197.709 1133.79 L214.028 1133.79 L214.028 1137.72 L192.084 1137.72 L192.084 1133.79 Q194.746 1131.03 199.329 1126.4 Q203.936 1121.75 205.116 1120.41 Q207.362 1117.89 208.241 1116.15 Q209.144 1114.39 209.144 1112.7 Q209.144 1109.95 207.199 1108.21 Q205.278 1106.47 202.176 1106.47 Q199.977 1106.47 197.524 1107.24 Q195.093 1108 192.315 1109.55 L192.315 1104.83 Q195.139 1103.7 197.593 1103.12 Q200.047 1102.54 202.084 1102.54 Q207.454 1102.54 210.649 1105.22 Q213.843 1107.91 213.843 1112.4 Q213.843 1114.53 213.033 1116.45 Q212.246 1118.35 210.139 1120.94 Q209.561 1121.61 206.459 1124.83 Q203.357 1128.02 197.709 1133.79 Z" fill="#000000" fill-rule="nonzero" fill-opacity="1" /><path clip-path="url(#clip260)" d="M126.205 803.506 Q122.593 803.506 120.765 807.071 Q118.959 810.613 118.959 817.742 Q118.959 824.849 120.765 828.414 Q122.593 831.955 126.205 831.955 Q129.839 831.955 131.644 828.414 Q133.473 824.849 133.473 817.742 Q133.473 810.613 131.644 807.071 Q129.839 803.506 126.205 803.506 M126.205 799.803 Q132.015 799.803 135.07 804.409 Q138.149 808.992 138.149 817.742 Q138.149 826.469 135.07 831.076 Q132.015 835.659 126.205 835.659 Q120.394 835.659 117.316 831.076 Q114.26 826.469 114.26 817.742 Q114.26 808.992 117.316 804.409 Q120.394 799.803 126.205 799.803 Z" fill="#000000" fill-rule="nonzero" fill-opacity="1" /><path clip-path="url(#clip260)" d="M146.366 829.108 L151.251 829.108 L151.251 834.988 L146.366 834.988 L146.366 829.108 Z" fill="#000000" fill-rule="nonzero" fill-opacity="1" /><path clip-path="url(#clip260)" d="M171.436 803.506 Q167.825 803.506 165.996 807.071 Q164.19 810.613 164.19 817.742 Q164.19 824.849 165.996 828.414 Q167.825 831.955 171.436 831.955 Q175.07 831.955 176.876 828.414 Q178.704 824.849 178.704 817.742 Q178.704 810.613 176.876 807.071 Q175.07 803.506 171.436 803.506 M171.436 799.803 Q177.246 799.803 180.301 804.409 Q183.38 808.992 183.38 817.742 Q183.38 826.469 180.301 831.076 Q177.246 835.659 171.436 835.659 Q165.626 835.659 162.547 831.076 Q159.491 826.469 159.491 817.742 Q159.491 808.992 162.547 804.409 Q165.626 799.803 171.436 799.803 Z" fill="#000000" fill-rule="nonzero" fill-opacity="1" /><path clip-path="url(#clip260)" d="M204.445 804.502 L192.639 822.951 L204.445 822.951 L204.445 804.502 M203.218 800.428 L209.098 800.428 L209.098 822.951 L214.028 822.951 L214.028 826.839 L209.098 826.839 L209.098 834.988 L204.445 834.988 L204.445 826.839 L188.843 826.839 L188.843 822.326 L203.218 800.428 Z" fill="#000000" fill-rule="nonzero" fill-opacity="1" /><path clip-path="url(#clip260)" d="M126.529 500.77 Q122.918 500.77 121.089 504.335 Q119.283 507.877 119.283 515.006 Q119.283 522.113 121.089 525.677 Q122.918 529.219 126.529 529.219 Q130.163 529.219 131.968 525.677 Q133.797 522.113 133.797 515.006 Q133.797 507.877 131.968 504.335 Q130.163 500.77 126.529 500.77 M126.529 497.066 Q132.339 497.066 135.394 501.673 Q138.473 506.256 138.473 515.006 Q138.473 523.733 135.394 528.339 Q132.339 532.923 126.529 532.923 Q120.718 532.923 117.64 528.339 Q114.584 523.733 114.584 515.006 Q114.584 506.256 117.64 501.673 Q120.718 497.066 126.529 497.066 Z" fill="#000000" fill-rule="nonzero" fill-opacity="1" /><path clip-path="url(#clip260)" d="M146.691 526.372 L151.575 526.372 L151.575 532.251 L146.691 532.251 L146.691 526.372 Z" fill="#000000" fill-rule="nonzero" fill-opacity="1" /><path clip-path="url(#clip260)" d="M171.76 500.77 Q168.149 500.77 166.32 504.335 Q164.515 507.877 164.515 515.006 Q164.515 522.113 166.32 525.677 Q168.149 529.219 171.76 529.219 Q175.394 529.219 177.2 525.677 Q179.028 522.113 179.028 515.006 Q179.028 507.877 177.2 504.335 Q175.394 500.77 171.76 500.77 M171.76 497.066 Q177.57 497.066 180.626 501.673 Q183.704 506.256 183.704 515.006 Q183.704 523.733 180.626 528.339 Q177.57 532.923 171.76 532.923 Q165.95 532.923 162.871 528.339 Q159.815 523.733 159.815 515.006 Q159.815 506.256 162.871 501.673 Q165.95 497.066 171.76 497.066 Z" fill="#000000" fill-rule="nonzero" fill-opacity="1" /><path clip-path="url(#clip260)" d="M202.5 513.108 Q199.352 513.108 197.5 515.261 Q195.672 517.414 195.672 521.164 Q195.672 524.89 197.5 527.066 Q199.352 529.219 202.5 529.219 Q205.649 529.219 207.477 527.066 Q209.329 524.89 209.329 521.164 Q209.329 517.414 207.477 515.261 Q205.649 513.108 202.5 513.108 M211.783 498.455 L211.783 502.715 Q210.024 501.881 208.218 501.441 Q206.436 501.002 204.676 501.002 Q200.047 501.002 197.593 504.127 Q195.163 507.252 194.815 513.571 Q196.181 511.557 198.241 510.492 Q200.301 509.404 202.778 509.404 Q207.987 509.404 210.996 512.576 Q214.028 515.724 214.028 521.164 Q214.028 526.488 210.88 529.705 Q207.732 532.923 202.5 532.923 Q196.505 532.923 193.334 528.339 Q190.163 523.733 190.163 515.006 Q190.163 506.812 194.051 501.951 Q197.94 497.066 204.491 497.066 Q206.25 497.066 208.033 497.414 Q209.838 497.761 211.783 498.455 Z" fill="#000000" fill-rule="nonzero" fill-opacity="1" /><path clip-path="url(#clip260)" d="M126.783 198.034 Q123.172 198.034 121.343 201.599 Q119.538 205.14 119.538 212.27 Q119.538 219.376 121.343 222.941 Q123.172 226.483 126.783 226.483 Q130.417 226.483 132.223 222.941 Q134.052 219.376 134.052 212.27 Q134.052 205.14 132.223 201.599 Q130.417 198.034 126.783 198.034 M126.783 194.33 Q132.593 194.33 135.649 198.937 Q138.728 203.52 138.728 212.27 Q138.728 220.997 135.649 225.603 Q132.593 230.187 126.783 230.187 Q120.973 230.187 117.894 225.603 Q114.839 220.997 114.839 212.27 Q114.839 203.52 117.894 198.937 Q120.973 194.33 126.783 194.33 Z" fill="#000000" fill-rule="nonzero" fill-opacity="1" /><path clip-path="url(#clip260)" d="M146.945 223.636 L151.829 223.636 L151.829 229.515 L146.945 229.515 L146.945 223.636 Z" fill="#000000" fill-rule="nonzero" fill-opacity="1" /><path clip-path="url(#clip260)" d="M172.014 198.034 Q168.403 198.034 166.575 201.599 Q164.769 205.14 164.769 212.27 Q164.769 219.376 166.575 222.941 Q168.403 226.483 172.014 226.483 Q175.649 226.483 177.454 222.941 Q179.283 219.376 179.283 212.27 Q179.283 205.14 177.454 201.599 Q175.649 198.034 172.014 198.034 M172.014 194.33 Q177.825 194.33 180.88 198.937 Q183.959 203.52 183.959 212.27 Q183.959 220.997 180.88 225.603 Q177.825 230.187 172.014 230.187 Q166.204 230.187 163.126 225.603 Q160.07 220.997 160.07 212.27 Q160.07 203.52 163.126 198.937 Q166.204 194.33 172.014 194.33 Z" fill="#000000" fill-rule="nonzero" fill-opacity="1" /><path clip-path="url(#clip260)" d="M202.176 213.103 Q198.843 213.103 196.922 214.886 Q195.024 216.668 195.024 219.793 Q195.024 222.918 196.922 224.701 Q198.843 226.483 202.176 226.483 Q205.51 226.483 207.431 224.701 Q209.352 222.895 209.352 219.793 Q209.352 216.668 207.431 214.886 Q205.533 213.103 202.176 213.103 M197.5 211.113 Q194.491 210.372 192.801 208.312 Q191.135 206.252 191.135 203.289 Q191.135 199.145 194.075 196.738 Q197.037 194.33 202.176 194.33 Q207.338 194.33 210.278 196.738 Q213.218 199.145 213.218 203.289 Q213.218 206.252 211.528 208.312 Q209.861 210.372 206.875 211.113 Q210.255 211.9 212.13 214.191 Q214.028 216.483 214.028 219.793 Q214.028 224.816 210.949 227.501 Q207.894 230.187 202.176 230.187 Q196.459 230.187 193.38 227.501 Q190.325 224.816 190.325 219.793 Q190.325 216.483 192.223 214.191 Q194.121 211.9 197.5 211.113 M195.787 203.728 Q195.787 206.414 197.454 207.918 Q199.144 209.423 202.176 209.423 Q205.186 209.423 206.875 207.918 Q208.588 206.414 208.588 203.728 Q208.588 201.043 206.875 199.539 Q205.186 198.034 202.176 198.034 Q199.144 198.034 197.454 199.539 Q195.787 201.043 195.787 203.728 Z" fill="#000000" fill-rule="nonzero" fill-opacity="1" /><path clip-path="url(#clip260)" d="M33.8307 800.206 Q33.2578 801.193 33.0032 802.37 Q32.7167 803.516 32.7167 804.916 Q32.7167 809.882 35.9632 812.555 Q39.1779 815.197 45.2253 815.197 L64.0042 815.197 L64.0042 821.085 L28.3562 821.085 L28.3562 815.197 L33.8944 815.197 Q30.6479 813.351 29.0883 810.391 Q27.4968 807.431 27.4968 803.198 Q27.4968 802.593 27.5923 801.861 Q27.656 801.129 27.8151 800.238 L33.8307 800.206 Z" fill="#000000" fill-rule="nonzero" fill-opacity="1" /><path clip-path="url(#clip260)" d="M42.4881 765.576 L64.0042 765.576 L64.0042 771.433 L42.679 771.433 Q37.6183 771.433 35.1038 773.406 Q32.5894 775.38 32.5894 779.326 Q32.5894 784.069 35.6131 786.806 Q38.6368 789.543 43.8567 789.543 L64.0042 789.543 L64.0042 795.432 L14.479 795.432 L14.479 789.543 L33.8944 789.543 Q30.6797 787.443 29.0883 784.61 Q27.4968 781.745 27.4968 778.021 Q27.4968 771.878 31.3163 768.727 Q35.1038 765.576 42.4881 765.576 Z" fill="#000000" fill-rule="nonzero" fill-opacity="1" /><path clip-path="url(#clip260)" d="M32.4621 740.082 Q32.4621 744.792 36.1542 747.53 Q39.8145 750.267 46.212 750.267 Q52.6095 750.267 56.3017 747.561 Q59.9619 744.824 59.9619 740.082 Q59.9619 735.403 56.2698 732.666 Q52.5777 729.928 46.212 729.928 Q39.8781 729.928 36.186 732.666 Q32.4621 735.403 32.4621 740.082 M27.4968 740.082 Q27.4968 732.443 32.4621 728.082 Q37.4273 723.722 46.212 723.722 Q54.9649 723.722 59.9619 728.082 Q64.9272 732.443 64.9272 740.082 Q64.9272 747.752 59.9619 752.113 Q54.9649 756.442 46.212 756.442 Q37.4273 756.442 32.4621 752.113 Q27.4968 747.752 27.4968 740.082 Z" fill="#000000" fill-rule="nonzero" fill-opacity="1" /><path clip-path="url(#clip260)" d="M14.5426 699.946 Q21.8632 704.211 29.0246 706.28 Q36.186 708.349 43.5384 708.349 Q50.8908 708.349 58.1159 706.28 Q65.3091 704.179 72.5979 699.946 L72.5979 705.039 Q65.1182 709.813 57.8931 712.2 Q50.668 714.555 43.5384 714.555 Q36.4406 714.555 29.2474 712.2 Q22.0542 709.845 14.5426 705.039 L14.5426 699.946 Z" fill="#000000" fill-rule="nonzero" fill-opacity="1" /><path clip-path="url(#clip260)" d="M18.2347 682.79 L28.3562 682.79 L28.3562 670.727 L32.9077 670.727 L32.9077 682.79 L52.2594 682.79 Q56.6199 682.79 57.8613 681.613 Q59.1026 680.403 59.1026 676.743 L59.1026 670.727 L64.0042 670.727 L64.0042 676.743 Q64.0042 683.522 61.4897 686.101 Q58.9434 688.679 52.2594 688.679 L32.9077 688.679 L32.9077 692.976 L28.3562 692.976 L28.3562 688.679 L18.2347 688.679 L18.2347 682.79 Z" fill="#000000" fill-rule="nonzero" fill-opacity="1" /><path clip-path="url(#clip260)" d="M14.5426 663.948 L14.5426 658.855 Q22.0542 654.081 29.2474 651.726 Q36.4406 649.339 43.5384 649.339 Q50.668 649.339 57.8931 651.726 Q65.1182 654.081 72.5979 658.855 L72.5979 663.948 Q65.3091 659.715 58.1159 657.646 Q50.8908 655.545 43.5384 655.545 Q36.186 655.545 29.0246 657.646 Q21.8632 659.715 14.5426 663.948 Z" fill="#000000" fill-rule="nonzero" fill-opacity="1" /><path clip-path="url(#clip261)" d="M365.682 1421.67 L365.682 1423.18 L412.467 1423.18 L412.467 1421.67 L365.682 1421.67 L365.682 1421.67  Z" fill="#009af9" fill-rule="evenodd" fill-opacity="1"/>
<polyline clip-path="url(#clip261)" style="stroke:#000000; stroke-linecap:round; stroke-linejoin:round; stroke-width:4; stroke-opacity:1; fill:none" points="365.682,1421.67 365.682,1423.18 412.467,1423.18 412.467,1421.67 365.682,1421.67 "/>
<path clip-path="url(#clip261)" d="M412.467 1359.61 L412.467 1423.18 L459.253 1423.18 L459.253 1359.61 L412.467 1359.61 L412.467 1359.61  Z" fill="#009af9" fill-rule="evenodd" fill-opacity="1"/>
<polyline clip-path="url(#clip261)" style="stroke:#000000; stroke-linecap:round; stroke-linejoin:round; stroke-width:4; stroke-opacity:1; fill:none" points="412.467,1359.61 412.467,1423.18 459.253,1423.18 459.253,1359.61 412.467,1359.61 "/>
<path clip-path="url(#clip261)" d="M459.253 1240.02 L459.253 1423.18 L506.038 1423.18 L506.038 1240.02 L459.253 1240.02 L459.253 1240.02  Z" fill="#009af9" fill-rule="evenodd" fill-opacity="1"/>
<polyline clip-path="url(#clip261)" style="stroke:#000000; stroke-linecap:round; stroke-linejoin:round; stroke-width:4; stroke-opacity:1; fill:none" points="459.253,1240.02 459.253,1423.18 506.038,1423.18 506.038,1240.02 459.253,1240.02 "/>
<path clip-path="url(#clip261)" d="M506.038 1046.27 L506.038 1423.18 L552.824 1423.18 L552.824 1046.27 L506.038 1046.27 L506.038 1046.27  Z" fill="#009af9" fill-rule="evenodd" fill-opacity="1"/>
<polyline clip-path="url(#clip261)" style="stroke:#000000; stroke-linecap:round; stroke-linejoin:round; stroke-width:4; stroke-opacity:1; fill:none" points="506.038,1046.27 506.038,1423.18 552.824,1423.18 552.824,1046.27 506.038,1046.27 "/>
<path clip-path="url(#clip261)" d="M552.824 805.598 L552.824 1423.18 L599.609 1423.18 L599.609 805.598 L552.824 805.598 L552.824 805.598  Z" fill="#009af9" fill-rule="evenodd" fill-opacity="1"/>
<polyline clip-path="url(#clip261)" style="stroke:#000000; stroke-linecap:round; stroke-linejoin:round; stroke-width:4; stroke-opacity:1; fill:none" points="552.824,805.598 552.824,1423.18 599.609,1423.18 599.609,805.598 552.824,805.598 "/>
<path clip-path="url(#clip261)" d="M599.609 543.731 L599.609 1423.18 L646.395 1423.18 L646.395 543.731 L599.609 543.731 L599.609 543.731  Z" fill="#009af9" fill-rule="evenodd" fill-opacity="1"/>
<polyline clip-path="url(#clip261)" style="stroke:#000000; stroke-linecap:round; stroke-linejoin:round; stroke-width:4; stroke-opacity:1; fill:none" points="599.609,543.731 599.609,1423.18 646.395,1423.18 646.395,543.731 599.609,543.731 "/>
<path clip-path="url(#clip261)" d="M646.395 349.98 L646.395 1423.18 L693.18 1423.18 L693.18 349.98 L646.395 349.98 L646.395 349.98  Z" fill="#009af9" fill-rule="evenodd" fill-opacity="1"/>
<polyline clip-path="url(#clip261)" style="stroke:#000000; stroke-linecap:round; stroke-linejoin:round; stroke-width:4; stroke-opacity:1; fill:none" points="646.395,349.98 646.395,1423.18 693.18,1423.18 693.18,349.98 646.395,349.98 "/>
<path clip-path="url(#clip261)" d="M693.18 138.065 L693.18 1423.18 L739.966 1423.18 L739.966 138.065 L693.18 138.065 L693.18 138.065  Z" fill="#009af9" fill-rule="evenodd" fill-opacity="1"/>
<polyline clip-path="url(#clip261)" style="stroke:#000000; stroke-linecap:round; stroke-linejoin:round; stroke-width:4; stroke-opacity:1; fill:none" points="693.18,138.065 693.18,1423.18 739.966,1423.18 739.966,138.065 693.18,138.065 "/>
<path clip-path="url(#clip261)" d="M739.966 47.2441 L739.966 1423.18 L786.751 1423.18 L786.751 47.2441 L739.966 47.2441 L739.966 47.2441  Z" fill="#009af9" fill-rule="evenodd" fill-opacity="1"/>
<polyline clip-path="url(#clip261)" style="stroke:#000000; stroke-linecap:round; stroke-linejoin:round; stroke-width:4; stroke-opacity:1; fill:none" points="739.966,47.2441 739.966,1423.18 786.751,1423.18 786.751,47.2441 739.966,47.2441 "/>
<path clip-path="url(#clip261)" d="M786.751 163.798 L786.751 1423.18 L833.537 1423.18 L833.537 163.798 L786.751 163.798 L786.751 163.798  Z" fill="#009af9" fill-rule="evenodd" fill-opacity="1"/>
<polyline clip-path="url(#clip261)" style="stroke:#000000; stroke-linecap:round; stroke-linejoin:round; stroke-width:4; stroke-opacity:1; fill:none" points="786.751,163.798 786.751,1423.18 833.537,1423.18 833.537,163.798 786.751,163.798 "/>
<path clip-path="url(#clip261)" d="M833.537 145.633 L833.537 1423.18 L880.322 1423.18 L880.322 145.633 L833.537 145.633 L833.537 145.633  Z" fill="#009af9" fill-rule="evenodd" fill-opacity="1"/>
<polyline clip-path="url(#clip261)" style="stroke:#000000; stroke-linecap:round; stroke-linejoin:round; stroke-width:4; stroke-opacity:1; fill:none" points="833.537,145.633 833.537,1423.18 880.322,1423.18 880.322,145.633 833.537,145.633 "/>
<path clip-path="url(#clip261)" d="M880.322 216.776 L880.322 1423.18 L927.108 1423.18 L927.108 216.776 L880.322 216.776 L880.322 216.776  Z" fill="#009af9" fill-rule="evenodd" fill-opacity="1"/>
<polyline clip-path="url(#clip261)" style="stroke:#000000; stroke-linecap:round; stroke-linejoin:round; stroke-width:4; stroke-opacity:1; fill:none" points="880.322,216.776 880.322,1423.18 927.108,1423.18 927.108,216.776 880.322,216.776 "/>
<path clip-path="url(#clip261)" d="M927.108 451.397 L927.108 1423.18 L973.893 1423.18 L973.893 451.397 L927.108 451.397 L927.108 451.397  Z" fill="#009af9" fill-rule="evenodd" fill-opacity="1"/>
<polyline clip-path="url(#clip261)" style="stroke:#000000; stroke-linecap:round; stroke-linejoin:round; stroke-width:4; stroke-opacity:1; fill:none" points="927.108,451.397 927.108,1423.18 973.893,1423.18 973.893,451.397 927.108,451.397 "/>
<path clip-path="url(#clip261)" d="M973.893 468.047 L973.893 1423.18 L1020.68 1423.18 L1020.68 468.047 L973.893 468.047 L973.893 468.047  Z" fill="#009af9" fill-rule="evenodd" fill-opacity="1"/>
<polyline clip-path="url(#clip261)" style="stroke:#000000; stroke-linecap:round; stroke-linejoin:round; stroke-width:4; stroke-opacity:1; fill:none" points="973.893,468.047 973.893,1423.18 1020.68,1423.18 1020.68,468.047 973.893,468.047 "/>
<path clip-path="url(#clip261)" d="M1020.68 628.497 L1020.68 1423.18 L1067.46 1423.18 L1067.46 628.497 L1020.68 628.497 L1020.68 628.497  Z" fill="#009af9" fill-rule="evenodd" fill-opacity="1"/>
<polyline clip-path="url(#clip261)" style="stroke:#000000; stroke-linecap:round; stroke-linejoin:round; stroke-width:4; stroke-opacity:1; fill:none" points="1020.68,628.497 1020.68,1423.18 1067.46,1423.18 1067.46,628.497 1020.68,628.497 "/>
<path clip-path="url(#clip261)" d="M1067.46 814.68 L1067.46 1423.18 L1114.25 1423.18 L1114.25 814.68 L1067.46 814.68 L1067.46 814.68  Z" fill="#009af9" fill-rule="evenodd" fill-opacity="1"/>
<polyline clip-path="url(#clip261)" style="stroke:#000000; stroke-linecap:round; stroke-linejoin:round; stroke-width:4; stroke-opacity:1; fill:none" points="1067.46,814.68 1067.46,1423.18 1114.25,1423.18 1114.25,814.68 1067.46,814.68 "/>
<path clip-path="url(#clip261)" d="M1114.25 923.665 L1114.25 1423.18 L1161.04 1423.18 L1161.04 923.665 L1114.25 923.665 L1114.25 923.665  Z" fill="#009af9" fill-rule="evenodd" fill-opacity="1"/>
<polyline clip-path="url(#clip261)" style="stroke:#000000; stroke-linecap:round; stroke-linejoin:round; stroke-width:4; stroke-opacity:1; fill:none" points="1114.25,923.665 1114.25,1423.18 1161.04,1423.18 1161.04,923.665 1114.25,923.665 "/>
<path clip-path="url(#clip261)" d="M1161.04 1047.79 L1161.04 1423.18 L1207.82 1423.18 L1207.82 1047.79 L1161.04 1047.79 L1161.04 1047.79  Z" fill="#009af9" fill-rule="evenodd" fill-opacity="1"/>
<polyline clip-path="url(#clip261)" style="stroke:#000000; stroke-linecap:round; stroke-linejoin:round; stroke-width:4; stroke-opacity:1; fill:none" points="1161.04,1047.79 1161.04,1423.18 1207.82,1423.18 1207.82,1047.79 1161.04,1047.79 "/>
<path clip-path="url(#clip261)" d="M1207.82 1096.22 L1207.82 1423.18 L1254.61 1423.18 L1254.61 1096.22 L1207.82 1096.22 L1207.82 1096.22  Z" fill="#009af9" fill-rule="evenodd" fill-opacity="1"/>
<polyline clip-path="url(#clip261)" style="stroke:#000000; stroke-linecap:round; stroke-linejoin:round; stroke-width:4; stroke-opacity:1; fill:none" points="1207.82,1096.22 1207.82,1423.18 1254.61,1423.18 1254.61,1096.22 1207.82,1096.22 "/>
<path clip-path="url(#clip261)" d="M1254.61 1161.31 L1254.61 1423.18 L1301.39 1423.18 L1301.39 1161.31 L1254.61 1161.31 L1254.61 1161.31  Z" fill="#009af9" fill-rule="evenodd" fill-opacity="1"/>
<polyline clip-path="url(#clip261)" style="stroke:#000000; stroke-linecap:round; stroke-linejoin:round; stroke-width:4; stroke-opacity:1; fill:none" points="1254.61,1161.31 1254.61,1423.18 1301.39,1423.18 1301.39,1161.31 1254.61,1161.31 "/>
<path clip-path="url(#clip261)" d="M1301.39 1241.54 L1301.39 1423.18 L1348.18 1423.18 L1348.18 1241.54 L1301.39 1241.54 L1301.39 1241.54  Z" fill="#009af9" fill-rule="evenodd" fill-opacity="1"/>
<polyline clip-path="url(#clip261)" style="stroke:#000000; stroke-linecap:round; stroke-linejoin:round; stroke-width:4; stroke-opacity:1; fill:none" points="1301.39,1241.54 1301.39,1423.18 1348.18,1423.18 1348.18,1241.54 1301.39,1241.54 "/>
<path clip-path="url(#clip261)" d="M1348.18 1288.46 L1348.18 1423.18 L1394.96 1423.18 L1394.96 1288.46 L1348.18 1288.46 L1348.18 1288.46  Z" fill="#009af9" fill-rule="evenodd" fill-opacity="1"/>
<polyline clip-path="url(#clip261)" style="stroke:#000000; stroke-linecap:round; stroke-linejoin:round; stroke-width:4; stroke-opacity:1; fill:none" points="1348.18,1288.46 1348.18,1423.18 1394.96,1423.18 1394.96,1288.46 1348.18,1288.46 "/>
<path clip-path="url(#clip261)" d="M1394.96 1314.19 L1394.96 1423.18 L1441.75 1423.18 L1441.75 1314.19 L1394.96 1314.19 L1394.96 1314.19  Z" fill="#009af9" fill-rule="evenodd" fill-opacity="1"/>
<polyline clip-path="url(#clip261)" style="stroke:#000000; stroke-linecap:round; stroke-linejoin:round; stroke-width:4; stroke-opacity:1; fill:none" points="1394.96,1314.19 1394.96,1423.18 1441.75,1423.18 1441.75,1314.19 1394.96,1314.19 "/>
<path clip-path="url(#clip261)" d="M1441.75 1353.55 L1441.75 1423.18 L1488.53 1423.18 L1488.53 1353.55 L1441.75 1353.55 L1441.75 1353.55  Z" fill="#009af9" fill-rule="evenodd" fill-opacity="1"/>
<polyline clip-path="url(#clip261)" style="stroke:#000000; stroke-linecap:round; stroke-linejoin:round; stroke-width:4; stroke-opacity:1; fill:none" points="1441.75,1353.55 1441.75,1423.18 1488.53,1423.18 1488.53,1353.55 1441.75,1353.55 "/>
<path clip-path="url(#clip261)" d="M1488.53 1344.47 L1488.53 1423.18 L1535.32 1423.18 L1535.32 1344.47 L1488.53 1344.47 L1488.53 1344.47  Z" fill="#009af9" fill-rule="evenodd" fill-opacity="1"/>
<polyline clip-path="url(#clip261)" style="stroke:#000000; stroke-linecap:round; stroke-linejoin:round; stroke-width:4; stroke-opacity:1; fill:none" points="1488.53,1344.47 1488.53,1423.18 1535.32,1423.18 1535.32,1344.47 1488.53,1344.47 "/>
<path clip-path="url(#clip261)" d="M1535.32 1365.66 L1535.32 1423.18 L1582.11 1423.18 L1582.11 1365.66 L1535.32 1365.66 L1535.32 1365.66  Z" fill="#009af9" fill-rule="evenodd" fill-opacity="1"/>
<polyline clip-path="url(#clip261)" style="stroke:#000000; stroke-linecap:round; stroke-linejoin:round; stroke-width:4; stroke-opacity:1; fill:none" points="1535.32,1365.66 1535.32,1423.18 1582.11,1423.18 1582.11,1365.66 1535.32,1365.66 "/>
<path clip-path="url(#clip261)" d="M1582.11 1380.8 L1582.11 1423.18 L1628.89 1423.18 L1628.89 1380.8 L1582.11 1380.8 L1582.11 1380.8  Z" fill="#009af9" fill-rule="evenodd" fill-opacity="1"/>
<polyline clip-path="url(#clip261)" style="stroke:#000000; stroke-linecap:round; stroke-linejoin:round; stroke-width:4; stroke-opacity:1; fill:none" points="1582.11,1380.8 1582.11,1423.18 1628.89,1423.18 1628.89,1380.8 1582.11,1380.8 "/>
<path clip-path="url(#clip261)" d="M1628.89 1401.99 L1628.89 1423.18 L1675.68 1423.18 L1675.68 1401.99 L1628.89 1401.99 L1628.89 1401.99  Z" fill="#009af9" fill-rule="evenodd" fill-opacity="1"/>
<polyline clip-path="url(#clip261)" style="stroke:#000000; stroke-linecap:round; stroke-linejoin:round; stroke-width:4; stroke-opacity:1; fill:none" points="1628.89,1401.99 1628.89,1423.18 1675.68,1423.18 1675.68,1401.99 1628.89,1401.99 "/>
<path clip-path="url(#clip261)" d="M1675.68 1405.02 L1675.68 1423.18 L1722.46 1423.18 L1722.46 1405.02 L1675.68 1405.02 L1675.68 1405.02  Z" fill="#009af9" fill-rule="evenodd" fill-opacity="1"/>
<polyline clip-path="url(#clip261)" style="stroke:#000000; stroke-linecap:round; stroke-linejoin:round; stroke-width:4; stroke-opacity:1; fill:none" points="1675.68,1405.02 1675.68,1423.18 1722.46,1423.18 1722.46,1405.02 1675.68,1405.02 "/>
<path clip-path="url(#clip261)" d="M1722.46 1411.07 L1722.46 1423.18 L1769.25 1423.18 L1769.25 1411.07 L1722.46 1411.07 L1722.46 1411.07  Z" fill="#009af9" fill-rule="evenodd" fill-opacity="1"/>
<polyline clip-path="url(#clip261)" style="stroke:#000000; stroke-linecap:round; stroke-linejoin:round; stroke-width:4; stroke-opacity:1; fill:none" points="1722.46,1411.07 1722.46,1423.18 1769.25,1423.18 1769.25,1411.07 1722.46,1411.07 "/>
<path clip-path="url(#clip261)" d="M1769.25 1414.1 L1769.25 1423.18 L1816.03 1423.18 L1816.03 1414.1 L1769.25 1414.1 L1769.25 1414.1  Z" fill="#009af9" fill-rule="evenodd" fill-opacity="1"/>
<polyline clip-path="url(#clip261)" style="stroke:#000000; stroke-linecap:round; stroke-linejoin:round; stroke-width:4; stroke-opacity:1; fill:none" points="1769.25,1414.1 1769.25,1423.18 1816.03,1423.18 1816.03,1414.1 1769.25,1414.1 "/>
<path clip-path="url(#clip261)" d="M1816.03 1421.67 L1816.03 1423.18 L1862.82 1423.18 L1862.82 1421.67 L1816.03 1421.67 L1816.03 1421.67  Z" fill="#009af9" fill-rule="evenodd" fill-opacity="1"/>
<polyline clip-path="url(#clip261)" style="stroke:#000000; stroke-linecap:round; stroke-linejoin:round; stroke-width:4; stroke-opacity:1; fill:none" points="1816.03,1421.67 1816.03,1423.18 1862.82,1423.18 1862.82,1421.67 1816.03,1421.67 "/>
<path clip-path="url(#clip261)" d="M1862.82 1423.18 L1862.82 1423.18 L1909.6 1423.18 L1909.6 1423.18 L1862.82 1423.18 L1862.82 1423.18  Z" fill="#009af9" fill-rule="evenodd" fill-opacity="1"/>
<polyline clip-path="url(#clip261)" style="stroke:#000000; stroke-linecap:round; stroke-linejoin:round; stroke-width:4; stroke-opacity:1; fill:none" points="1862.82,1423.18 1862.82,1423.18 1909.6,1423.18 1862.82,1423.18 "/>
<path clip-path="url(#clip261)" d="M1909.6 1420.15 L1909.6 1423.18 L1956.39 1423.18 L1956.39 1420.15 L1909.6 1420.15 L1909.6 1420.15  Z" fill="#009af9" fill-rule="evenodd" fill-opacity="1"/>
<polyline clip-path="url(#clip261)" style="stroke:#000000; stroke-linecap:round; stroke-linejoin:round; stroke-width:4; stroke-opacity:1; fill:none" points="1909.6,1420.15 1909.6,1423.18 1956.39,1423.18 1956.39,1420.15 1909.6,1420.15 "/>
<path clip-path="url(#clip261)" d="M1956.39 1421.67 L1956.39 1423.18 L2003.17 1423.18 L2003.17 1421.67 L1956.39 1421.67 L1956.39 1421.67  Z" fill="#009af9" fill-rule="evenodd" fill-opacity="1"/>
<polyline clip-path="url(#clip261)" style="stroke:#000000; stroke-linecap:round; stroke-linejoin:round; stroke-width:4; stroke-opacity:1; fill:none" points="1956.39,1421.67 1956.39,1423.18 2003.17,1423.18 2003.17,1421.67 1956.39,1421.67 "/>
<path clip-path="url(#clip261)" d="M2003.17 1423.18 L2003.17 1423.18 L2049.96 1423.18 L2049.96 1423.18 L2003.17 1423.18 L2003.17 1423.18  Z" fill="#009af9" fill-rule="evenodd" fill-opacity="1"/>
<polyline clip-path="url(#clip261)" style="stroke:#000000; stroke-linecap:round; stroke-linejoin:round; stroke-width:4; stroke-opacity:1; fill:none" points="2003.17,1423.18 2003.17,1423.18 2049.96,1423.18 2003.17,1423.18 "/>
<path clip-path="url(#clip261)" d="M2049.96 1423.18 L2049.96 1423.18 L2096.75 1423.18 L2096.75 1423.18 L2049.96 1423.18 L2049.96 1423.18  Z" fill="#009af9" fill-rule="evenodd" fill-opacity="1"/>
<polyline clip-path="url(#clip261)" style="stroke:#000000; stroke-linecap:round; stroke-linejoin:round; stroke-width:4; stroke-opacity:1; fill:none" points="2049.96,1423.18 2049.96,1423.18 2096.75,1423.18 2049.96,1423.18 "/>
<path clip-path="url(#clip261)" d="M2096.75 1421.67 L2096.75 1423.18 L2143.53 1423.18 L2143.53 1421.67 L2096.75 1421.67 L2096.75 1421.67  Z" fill="#009af9" fill-rule="evenodd" fill-opacity="1"/>
<polyline clip-path="url(#clip261)" style="stroke:#000000; stroke-linecap:round; stroke-linejoin:round; stroke-width:4; stroke-opacity:1; fill:none" points="2096.75,1421.67 2096.75,1423.18 2143.53,1423.18 2143.53,1421.67 2096.75,1421.67 "/>
<path clip-path="url(#clip261)" d="M2143.53 1423.18 L2143.53 1423.18 L2190.32 1423.18 L2190.32 1423.18 L2143.53 1423.18 L2143.53 1423.18  Z" fill="#009af9" fill-rule="evenodd" fill-opacity="1"/>
<polyline clip-path="url(#clip261)" style="stroke:#000000; stroke-linecap:round; stroke-linejoin:round; stroke-width:4; stroke-opacity:1; fill:none" points="2143.53,1423.18 2143.53,1423.18 2190.32,1423.18 2143.53,1423.18 "/>
<path clip-path="url(#clip261)" d="M2190.32 1421.67 L2190.32 1423.18 L2237.1 1423.18 L2237.1 1421.67 L2190.32 1421.67 L2190.32 1421.67  Z" fill="#009af9" fill-rule="evenodd" fill-opacity="1"/>
<polyline clip-path="url(#clip261)" style="stroke:#000000; stroke-linecap:round; stroke-linejoin:round; stroke-width:4; stroke-opacity:1; fill:none" points="2190.32,1421.67 2190.32,1423.18 2237.1,1423.18 2237.1,1421.67 2190.32,1421.67 "/>
<circle clip-path="url(#clip261)" style="fill:#009af9; stroke:none; fill-opacity:0" cx="389.075" cy="1421.67" r="2"/>
<circle clip-path="url(#clip261)" style="fill:#009af9; stroke:none; fill-opacity:0" cx="435.86" cy="1359.61" r="2"/>
<circle clip-path="url(#clip261)" style="fill:#009af9; stroke:none; fill-opacity:0" cx="482.646" cy="1240.02" r="2"/>
<circle clip-path="url(#clip261)" style="fill:#009af9; stroke:none; fill-opacity:0" cx="529.431" cy="1046.27" r="2"/>
<circle clip-path="url(#clip261)" style="fill:#009af9; stroke:none; fill-opacity:0" cx="576.217" cy="805.598" r="2"/>
<circle clip-path="url(#clip261)" style="fill:#009af9; stroke:none; fill-opacity:0" cx="623.002" cy="543.731" r="2"/>
<circle clip-path="url(#clip261)" style="fill:#009af9; stroke:none; fill-opacity:0" cx="669.788" cy="349.98" r="2"/>
<circle clip-path="url(#clip261)" style="fill:#009af9; stroke:none; fill-opacity:0" cx="716.573" cy="138.065" r="2"/>
<circle clip-path="url(#clip261)" style="fill:#009af9; stroke:none; fill-opacity:0" cx="763.359" cy="47.2441" r="2"/>
<circle clip-path="url(#clip261)" style="fill:#009af9; stroke:none; fill-opacity:0" cx="810.144" cy="163.798" r="2"/>
<circle clip-path="url(#clip261)" style="fill:#009af9; stroke:none; fill-opacity:0" cx="856.93" cy="145.633" r="2"/>
<circle clip-path="url(#clip261)" style="fill:#009af9; stroke:none; fill-opacity:0" cx="903.715" cy="216.776" r="2"/>
<circle clip-path="url(#clip261)" style="fill:#009af9; stroke:none; fill-opacity:0" cx="950.501" cy="451.397" r="2"/>
<circle clip-path="url(#clip261)" style="fill:#009af9; stroke:none; fill-opacity:0" cx="997.286" cy="468.047" r="2"/>
<circle clip-path="url(#clip261)" style="fill:#009af9; stroke:none; fill-opacity:0" cx="1044.07" cy="628.497" r="2"/>
<circle clip-path="url(#clip261)" style="fill:#009af9; stroke:none; fill-opacity:0" cx="1090.86" cy="814.68" r="2"/>
<circle clip-path="url(#clip261)" style="fill:#009af9; stroke:none; fill-opacity:0" cx="1137.64" cy="923.665" r="2"/>
<circle clip-path="url(#clip261)" style="fill:#009af9; stroke:none; fill-opacity:0" cx="1184.43" cy="1047.79" r="2"/>
<circle clip-path="url(#clip261)" style="fill:#009af9; stroke:none; fill-opacity:0" cx="1231.21" cy="1096.22" r="2"/>
<circle clip-path="url(#clip261)" style="fill:#009af9; stroke:none; fill-opacity:0" cx="1278" cy="1161.31" r="2"/>
<circle clip-path="url(#clip261)" style="fill:#009af9; stroke:none; fill-opacity:0" cx="1324.78" cy="1241.54" r="2"/>
<circle clip-path="url(#clip261)" style="fill:#009af9; stroke:none; fill-opacity:0" cx="1371.57" cy="1288.46" r="2"/>
<circle clip-path="url(#clip261)" style="fill:#009af9; stroke:none; fill-opacity:0" cx="1418.36" cy="1314.19" r="2"/>
<circle clip-path="url(#clip261)" style="fill:#009af9; stroke:none; fill-opacity:0" cx="1465.14" cy="1353.55" r="2"/>
<circle clip-path="url(#clip261)" style="fill:#009af9; stroke:none; fill-opacity:0" cx="1511.93" cy="1344.47" r="2"/>
<circle clip-path="url(#clip261)" style="fill:#009af9; stroke:none; fill-opacity:0" cx="1558.71" cy="1365.66" r="2"/>
<circle clip-path="url(#clip261)" style="fill:#009af9; stroke:none; fill-opacity:0" cx="1605.5" cy="1380.8" r="2"/>
<circle clip-path="url(#clip261)" style="fill:#009af9; stroke:none; fill-opacity:0" cx="1652.28" cy="1401.99" r="2"/>
<circle clip-path="url(#clip261)" style="fill:#009af9; stroke:none; fill-opacity:0" cx="1699.07" cy="1405.02" r="2"/>
<circle clip-path="url(#clip261)" style="fill:#009af9; stroke:none; fill-opacity:0" cx="1745.85" cy="1411.07" r="2"/>
<circle clip-path="url(#clip261)" style="fill:#009af9; stroke:none; fill-opacity:0" cx="1792.64" cy="1414.1" r="2"/>
<circle clip-path="url(#clip261)" style="fill:#009af9; stroke:none; fill-opacity:0" cx="1839.43" cy="1421.67" r="2"/>
<circle clip-path="url(#clip261)" style="fill:#009af9; stroke:none; fill-opacity:0" cx="1886.21" cy="1423.18" r="2"/>
<circle clip-path="url(#clip261)" style="fill:#009af9; stroke:none; fill-opacity:0" cx="1933" cy="1420.15" r="2"/>
<circle clip-path="url(#clip261)" style="fill:#009af9; stroke:none; fill-opacity:0" cx="1979.78" cy="1421.67" r="2"/>
<circle clip-path="url(#clip261)" style="fill:#009af9; stroke:none; fill-opacity:0" cx="2026.57" cy="1423.18" r="2"/>
<circle clip-path="url(#clip261)" style="fill:#009af9; stroke:none; fill-opacity:0" cx="2073.35" cy="1423.18" r="2"/>
<circle clip-path="url(#clip261)" style="fill:#009af9; stroke:none; fill-opacity:0" cx="2120.14" cy="1421.67" r="2"/>
<circle clip-path="url(#clip261)" style="fill:#009af9; stroke:none; fill-opacity:0" cx="2166.92" cy="1423.18" r="2"/>
<circle clip-path="url(#clip261)" style="fill:#009af9; stroke:none; fill-opacity:0" cx="2213.71" cy="1421.67" r="2"/>
<polyline clip-path="url(#clip261)" style="stroke:#e26f46; stroke-linecap:round; stroke-linejoin:round; stroke-width:16; stroke-opacity:1; fill:none" points="323.575,1423.18 342.443,1423.13 361.311,1422.41 380.178,1419.23 399.046,1410.83 417.914,1394.13 436.782,1366.39 455.65,1325.66 474.518,1271.07 493.385,1202.84 512.253,1122.24 531.121,1031.36 549.989,932.873 568.857,829.814 587.725,725.319 606.592,622.439 625.46,523.982 644.328,432.398 663.196,349.712 682.064,277.485 700.932,216.812 719.799,168.342 738.667,132.316 757.535,108.616 776.403,96.8197 795.271,96.2592 814.139,106.078 833.006,125.285 851.874,152.802 870.742,187.507 889.61,228.273 908.478,273.995 927.346,323.615 946.213,376.141 965.081,430.66 983.949,486.343 1002.82,542.456 1021.68,598.354 1040.55,653.484 1059.42,707.38 1078.29,759.661 1097.16,810.019 1116.02,858.218 1134.89,904.085 1153.76,947.502 1172.63,988.4 1191.5,1026.75 1210.36,1062.56 1229.23,1095.87 1248.1,1126.75 1266.97,1155.26 1285.83,1181.51 1304.7,1205.6 1323.57,1227.65 1342.44,1247.77 1361.31,1266.09 1380.17,1282.73 1399.04,1297.8 1417.91,1311.43 1436.78,1323.72 1455.64,1334.79 1474.51,1344.73 1493.38,1353.65 1512.25,1361.63 1531.12,1368.77 1549.98,1375.13 1568.85,1380.8 1587.72,1385.85 1606.59,1390.33 1625.46,1394.3 1644.32,1397.82 1663.19,1400.93 1682.06,1403.68 1700.93,1406.11 1719.79,1408.25 1738.66,1410.13 1757.53,1411.79 1776.4,1413.24 1795.27,1414.51 1814.13,1415.63 1833,1416.61 1851.87,1417.47 1870.74,1418.22 1889.61,1418.87 1908.47,1419.44 1927.34,1419.94 1946.21,1420.37 1965.08,1420.75 1983.94,1421.08 2002.81,1421.36 2021.68,1421.61 2040.55,1421.82 2059.42,1422.01 2078.28,1422.17 2097.15,1422.31 2116.02,1422.43 2134.89,1422.53 2153.75,1422.62 2172.62,1422.7 2191.49,1422.77 "/>
<path clip-path="url(#clip260)" d="M2019.96 248.629 L2282.66 248.629 L2282.66 93.1086 L2019.96 93.1086  Z" fill="#ffffff" fill-rule="evenodd" fill-opacity="1"/>
<polyline clip-path="url(#clip260)" style="stroke:#000000; stroke-linecap:round; stroke-linejoin:round; stroke-width:4; stroke-opacity:1; fill:none" points="2019.96,248.629 2282.66,248.629 2282.66,93.1086 2019.96,93.1086 2019.96,248.629 "/>
<path clip-path="url(#clip260)" d="M2043.33 165.685 L2183.51 165.685 L2183.51 124.213 L2043.33 124.213 L2043.33 165.685  Z" fill="#009af9" fill-rule="evenodd" fill-opacity="1"/>
<polyline clip-path="url(#clip260)" style="stroke:#000000; stroke-linecap:round; stroke-linejoin:round; stroke-width:4; stroke-opacity:1; fill:none" points="2043.33,165.685 2183.51,165.685 2183.51,124.213 2043.33,124.213 2043.33,165.685 "/>
<path clip-path="url(#clip260)" d="M2220.71 164.636 Q2218.91 169.266 2217.2 170.678 Q2215.48 172.09 2212.61 172.09 L2209.21 172.09 L2209.21 168.525 L2211.71 168.525 Q2213.47 168.525 2214.44 167.692 Q2215.41 166.858 2216.59 163.756 L2217.36 161.812 L2206.87 136.303 L2211.38 136.303 L2219.49 156.581 L2227.59 136.303 L2232.1 136.303 L2220.71 164.636 Z" fill="#000000" fill-rule="nonzero" fill-opacity="1" /><path clip-path="url(#clip260)" d="M2239.39 158.293 L2247.03 158.293 L2247.03 131.928 L2238.72 133.595 L2238.72 129.335 L2246.99 127.669 L2251.66 127.669 L2251.66 158.293 L2259.3 158.293 L2259.3 162.229 L2239.39 162.229 L2239.39 158.293 Z" fill="#000000" fill-rule="nonzero" fill-opacity="1" /><polyline clip-path="url(#clip260)" style="stroke:#e26f46; stroke-linecap:round; stroke-linejoin:round; stroke-width:16; stroke-opacity:1; fill:none" points="2043.33,196.789 2183.51,196.789 "/>
<path clip-path="url(#clip260)" d="M2220.71 216.476 Q2218.91 221.106 2217.2 222.518 Q2215.48 223.93 2212.61 223.93 L2209.21 223.93 L2209.21 220.365 L2211.71 220.365 Q2213.47 220.365 2214.44 219.532 Q2215.41 218.698 2216.59 215.596 L2217.36 213.652 L2206.87 188.143 L2211.38 188.143 L2219.49 208.421 L2227.59 188.143 L2232.1 188.143 L2220.71 216.476 Z" fill="#000000" fill-rule="nonzero" fill-opacity="1" /><path clip-path="url(#clip260)" d="M2242.61 210.133 L2258.93 210.133 L2258.93 214.069 L2236.99 214.069 L2236.99 210.133 Q2239.65 207.379 2244.23 202.749 Q2248.84 198.096 2250.02 196.754 Q2252.26 194.231 2253.14 192.495 Q2254.05 190.735 2254.05 189.046 Q2254.05 186.291 2252.1 184.555 Q2250.18 182.819 2247.08 182.819 Q2244.88 182.819 2242.43 183.583 Q2240 184.347 2237.22 185.897 L2237.22 181.175 Q2240.04 180.041 2242.5 179.462 Q2244.95 178.884 2246.99 178.884 Q2252.36 178.884 2255.55 181.569 Q2258.75 184.254 2258.75 188.745 Q2258.75 190.874 2257.94 192.796 Q2257.15 194.694 2255.04 197.286 Q2254.46 197.958 2251.36 201.175 Q2248.26 204.37 2242.61 210.133 Z" fill="#000000" fill-rule="nonzero" fill-opacity="1" /></svg>
