<?xml version="1.0" encoding="utf-8"?>
<svg xmlns="http://www.w3.org/2000/svg" xmlns:xlink="http://www.w3.org/1999/xlink" width="600" height="400" viewBox="0 0 2400 1600">
<defs>
  <clipPath id="clip590">
    <rect x="0" y="0" width="2400" height="1600"/>
  </clipPath>
</defs>
<path clip-path="url(#clip590)" d="M0 1600 L2400 1600 L2400 0 L0 0  Z" fill="#ffffff" fill-rule="evenodd" fill-opacity="1"/>
<defs>
  <clipPath id="clip591">
    <rect x="219" y="47" width="2134" height="1377"/>
  </clipPath>
</defs>
<path clip-path="url(#clip590)" d="M219.38 1423.18 L2352.76 1423.18 L2352.76 47.2441 L219.38 47.2441  Z" fill="#ffffff" fill-rule="evenodd" fill-opacity="1"/>
<polyline clip-path="url(#clip591)" style="stroke:#000000; stroke-linecap:round; stroke-linejoin:round; stroke-width:2; stroke-opacity:0.1; fill:none" points="336.72,1423.18 336.72,47.2441 "/>
<polyline clip-path="url(#clip591)" style="stroke:#000000; stroke-linecap:round; stroke-linejoin:round; stroke-width:2; stroke-opacity:0.1; fill:none" points="908.616,1423.18 908.616,47.2441 "/>
<polyline clip-path="url(#clip591)" style="stroke:#000000; stroke-linecap:round; stroke-linejoin:round; stroke-width:2; stroke-opacity:0.1; fill:none" points="1480.51,1423.18 1480.51,47.2441 "/>
<polyline clip-path="url(#clip591)" style="stroke:#000000; stroke-linecap:round; stroke-linejoin:round; stroke-width:2; stroke-opacity:0.1; fill:none" points="2052.41,1423.18 2052.41,47.2441 "/>
<polyline clip-path="url(#clip591)" style="stroke:#000000; stroke-linecap:round; stroke-linejoin:round; stroke-width:2; stroke-opacity:0.1; fill:none" points="219.38,1423.18 2352.76,1423.18 "/>
<polyline clip-path="url(#clip591)" style="stroke:#000000; stroke-linecap:round; stroke-linejoin:round; stroke-width:2; stroke-opacity:0.1; fill:none" points="219.38,1024.59 2352.76,1024.59 "/>
<polyline clip-path="url(#clip591)" style="stroke:#000000; stroke-linecap:round; stroke-linejoin:round; stroke-width:2; stroke-opacity:0.1; fill:none" points="219.38,625.998 2352.76,625.998 "/>
<polyline clip-path="url(#clip591)" style="stroke:#000000; stroke-linecap:round; stroke-linejoin:round; stroke-width:2; stroke-opacity:0.1; fill:none" points="219.38,227.407 2352.76,227.407 "/>
<polyline clip-path="url(#clip590)" style="stroke:#000000; stroke-linecap:round; stroke-linejoin:round; stroke-width:4; stroke-opacity:1; fill:none" points="219.38,1423.18 2352.76,1423.18 "/>
<polyline clip-path="url(#clip590)" style="stroke:#000000; stroke-linecap:round; stroke-linejoin:round; stroke-width:4; stroke-opacity:1; fill:none" points="336.72,1423.18 336.72,1404.28 "/>
<polyline clip-path="url(#clip590)" style="stroke:#000000; stroke-linecap:round; stroke-linejoin:round; stroke-width:4; stroke-opacity:1; fill:none" points="908.616,1423.18 908.616,1404.28 "/>
<polyline clip-path="url(#clip590)" style="stroke:#000000; stroke-linecap:round; stroke-linejoin:round; stroke-width:4; stroke-opacity:1; fill:none" points="1480.51,1423.18 1480.51,1404.28 "/>
<polyline clip-path="url(#clip590)" style="stroke:#000000; stroke-linecap:round; stroke-linejoin:round; stroke-width:4; stroke-opacity:1; fill:none" points="2052.41,1423.18 2052.41,1404.28 "/>
<path clip-path="url(#clip590)" d="M336.72 1454.1 Q333.109 1454.1 331.28 1457.66 Q329.474 1461.2 329.474 1468.33 Q329.474 1475.44 331.28 1479.01 Q333.109 1482.55 336.72 1482.55 Q340.354 1482.55 342.159 1479.01 Q343.988 1475.44 343.988 1468.33 Q343.988 1461.2 342.159 1457.66 Q340.354 1454.1 336.72 1454.1 M336.72 1450.39 Q342.53 1450.39 345.585 1455 Q348.664 1459.58 348.664 1468.33 Q348.664 1477.06 345.585 1481.67 Q342.53 1486.25 336.72 1486.25 Q330.909 1486.25 327.831 1481.67 Q324.775 1477.06 324.775 1468.33 Q324.775 1459.58 327.831 1455 Q330.909 1450.39 336.72 1450.39 Z" fill="#000000" fill-rule="nonzero" fill-opacity="1" /><path clip-path="url(#clip590)" d="M898.894 1451.02 L917.25 1451.02 L917.25 1454.96 L903.176 1454.96 L903.176 1463.43 Q904.195 1463.08 905.213 1462.92 Q906.232 1462.73 907.251 1462.73 Q913.038 1462.73 916.417 1465.9 Q919.797 1469.08 919.797 1474.49 Q919.797 1480.07 916.325 1483.17 Q912.852 1486.25 906.533 1486.25 Q904.357 1486.25 902.089 1485.88 Q899.843 1485.51 897.436 1484.77 L897.436 1480.07 Q899.519 1481.2 901.741 1481.76 Q903.964 1482.32 906.44 1482.32 Q910.445 1482.32 912.783 1480.21 Q915.121 1478.1 915.121 1474.49 Q915.121 1470.88 912.783 1468.77 Q910.445 1466.67 906.44 1466.67 Q904.565 1466.67 902.69 1467.08 Q900.839 1467.5 898.894 1468.38 L898.894 1451.02 Z" fill="#000000" fill-rule="nonzero" fill-opacity="1" /><path clip-path="url(#clip590)" d="M1455.2 1481.64 L1462.84 1481.64 L1462.84 1455.28 L1454.53 1456.95 L1454.53 1452.69 L1462.79 1451.02 L1467.47 1451.02 L1467.47 1481.64 L1475.11 1481.64 L1475.11 1485.58 L1455.2 1485.58 L1455.2 1481.64 Z" fill="#000000" fill-rule="nonzero" fill-opacity="1" /><path clip-path="url(#clip590)" d="M1494.55 1454.1 Q1490.94 1454.1 1489.11 1457.66 Q1487.31 1461.2 1487.31 1468.33 Q1487.31 1475.44 1489.11 1479.01 Q1490.94 1482.55 1494.55 1482.55 Q1498.19 1482.55 1499.99 1479.01 Q1501.82 1475.44 1501.82 1468.33 Q1501.82 1461.2 1499.99 1457.66 Q1498.19 1454.1 1494.55 1454.1 M1494.55 1450.39 Q1500.36 1450.39 1503.42 1455 Q1506.5 1459.58 1506.5 1468.33 Q1506.5 1477.06 1503.42 1481.67 Q1500.36 1486.25 1494.55 1486.25 Q1488.74 1486.25 1485.66 1481.67 Q1482.61 1477.06 1482.61 1468.33 Q1482.61 1459.58 1485.66 1455 Q1488.74 1450.39 1494.55 1450.39 Z" fill="#000000" fill-rule="nonzero" fill-opacity="1" /><path clip-path="url(#clip590)" d="M2027.59 1481.64 L2035.23 1481.64 L2035.23 1455.28 L2026.92 1456.95 L2026.92 1452.69 L2035.19 1451.02 L2039.86 1451.02 L2039.86 1481.64 L2047.5 1481.64 L2047.5 1485.58 L2027.59 1485.58 L2027.59 1481.64 Z" fill="#000000" fill-rule="nonzero" fill-opacity="1" /><path clip-path="url(#clip590)" d="M2056.99 1451.02 L2075.35 1451.02 L2075.35 1454.96 L2061.28 1454.96 L2061.28 1463.43 Q2062.29 1463.08 2063.31 1462.92 Q2064.33 1462.73 2065.35 1462.73 Q2071.14 1462.73 2074.52 1465.9 Q2077.9 1469.08 2077.9 1474.49 Q2077.9 1480.07 2074.42 1483.17 Q2070.95 1486.25 2064.63 1486.25 Q2062.46 1486.25 2060.19 1485.88 Q2057.94 1485.51 2055.53 1484.77 L2055.53 1480.07 Q2057.62 1481.2 2059.84 1481.76 Q2062.06 1482.32 2064.54 1482.32 Q2068.54 1482.32 2070.88 1480.21 Q2073.22 1478.1 2073.22 1474.49 Q2073.22 1470.88 2070.88 1468.77 Q2068.54 1466.67 2064.54 1466.67 Q2062.66 1466.67 2060.79 1467.08 Q2058.94 1467.5 2056.99 1468.38 L2056.99 1451.02 Z" fill="#000000" fill-rule="nonzero" fill-opacity="1" /><path clip-path="url(#clip590)" d="M1285.13 1522.27 L1285.13 1532.4 L1297.19 1532.4 L1297.19 1536.95 L1285.13 1536.95 L1285.13 1556.3 Q1285.13 1560.66 1286.31 1561.9 Q1287.52 1563.14 1291.18 1563.14 L1297.19 1563.14 L1297.19 1568.04 L1291.18 1568.04 Q1284.4 1568.04 1281.82 1565.53 Q1279.24 1562.98 1279.24 1556.3 L1279.24 1536.95 L1274.94 1536.95 L1274.94 1532.4 L1279.24 1532.4 L1279.24 1522.27 L1285.13 1522.27 Z" fill="#000000" fill-rule="nonzero" fill-opacity="1" /><polyline clip-path="url(#clip590)" style="stroke:#000000; stroke-linecap:round; stroke-linejoin:round; stroke-width:4; stroke-opacity:1; fill:none" points="219.38,1423.18 219.38,47.2441 "/>
<polyline clip-path="url(#clip590)" style="stroke:#000000; stroke-linecap:round; stroke-linejoin:round; stroke-width:4; stroke-opacity:1; fill:none" points="219.38,1423.18 238.278,1423.18 "/>
<polyline clip-path="url(#clip590)" style="stroke:#000000; stroke-linecap:round; stroke-linejoin:round; stroke-width:4; stroke-opacity:1; fill:none" points="219.38,1024.59 238.278,1024.59 "/>
<polyline clip-path="url(#clip590)" style="stroke:#000000; stroke-linecap:round; stroke-linejoin:round; stroke-width:4; stroke-opacity:1; fill:none" points="219.38,625.998 238.278,625.998 "/>
<polyline clip-path="url(#clip590)" style="stroke:#000000; stroke-linecap:round; stroke-linejoin:round; stroke-width:4; stroke-opacity:1; fill:none" points="219.38,227.407 238.278,227.407 "/>
<path clip-path="url(#clip590)" d="M126.205 1408.98 Q122.593 1408.98 120.765 1412.54 Q118.959 1416.08 118.959 1423.21 Q118.959 1430.32 120.765 1433.89 Q122.593 1437.43 126.205 1437.43 Q129.839 1437.43 131.644 1433.89 Q133.473 1430.32 133.473 1423.21 Q133.473 1416.08 131.644 1412.54 Q129.839 1408.98 126.205 1408.98 M126.205 1405.27 Q132.015 1405.27 135.07 1409.88 Q138.149 1414.46 138.149 1423.21 Q138.149 1431.94 135.07 1436.55 Q132.015 1441.13 126.205 1441.13 Q120.394 1441.13 117.316 1436.55 Q114.26 1431.94 114.26 1423.21 Q114.26 1414.46 117.316 1409.88 Q120.394 1405.27 126.205 1405.27 Z" fill="#000000" fill-rule="nonzero" fill-opacity="1" /><path clip-path="url(#clip590)" d="M146.366 1434.58 L151.251 1434.58 L151.251 1440.46 L146.366 1440.46 L146.366 1434.58 Z" fill="#000000" fill-rule="nonzero" fill-opacity="1" /><path clip-path="url(#clip590)" d="M171.436 1408.98 Q167.825 1408.98 165.996 1412.54 Q164.19 1416.08 164.19 1423.21 Q164.19 1430.32 165.996 1433.89 Q167.825 1437.43 171.436 1437.43 Q175.07 1437.43 176.876 1433.89 Q178.704 1430.32 178.704 1423.21 Q178.704 1416.08 176.876 1412.54 Q175.07 1408.98 171.436 1408.98 M171.436 1405.27 Q177.246 1405.27 180.301 1409.88 Q183.38 1414.46 183.38 1423.21 Q183.38 1431.94 180.301 1436.55 Q177.246 1441.13 171.436 1441.13 Q165.626 1441.13 162.547 1436.55 Q159.491 1431.94 159.491 1423.21 Q159.491 1414.46 162.547 1409.88 Q165.626 1405.27 171.436 1405.27 Z" fill="#000000" fill-rule="nonzero" fill-opacity="1" /><path clip-path="url(#clip590)" d="M127.2 1010.39 Q123.589 1010.39 121.76 1013.95 Q119.955 1017.49 119.955 1024.62 Q119.955 1031.73 121.76 1035.29 Q123.589 1038.84 127.2 1038.84 Q130.834 1038.84 132.64 1035.29 Q134.468 1031.73 134.468 1024.62 Q134.468 1017.49 132.64 1013.95 Q130.834 1010.39 127.2 1010.39 M127.2 1006.68 Q133.01 1006.68 136.066 1011.29 Q139.144 1015.87 139.144 1024.62 Q139.144 1033.35 136.066 1037.96 Q133.01 1042.54 127.2 1042.54 Q121.39 1042.54 118.311 1037.96 Q115.256 1033.35 115.256 1024.62 Q115.256 1015.87 118.311 1011.29 Q121.39 1006.68 127.2 1006.68 Z" fill="#000000" fill-rule="nonzero" fill-opacity="1" /><path clip-path="url(#clip590)" d="M147.362 1035.99 L152.246 1035.99 L152.246 1041.87 L147.362 1041.87 L147.362 1035.99 Z" fill="#000000" fill-rule="nonzero" fill-opacity="1" /><path clip-path="url(#clip590)" d="M162.477 1007.31 L180.834 1007.31 L180.834 1011.24 L166.76 1011.24 L166.76 1019.72 Q167.778 1019.37 168.797 1019.21 Q169.815 1019.02 170.834 1019.02 Q176.621 1019.02 180.001 1022.19 Q183.38 1025.36 183.38 1030.78 Q183.38 1036.36 179.908 1039.46 Q176.436 1042.54 170.116 1042.54 Q167.94 1042.54 165.672 1042.17 Q163.427 1041.8 161.019 1041.06 L161.019 1036.36 Q163.102 1037.49 165.325 1038.05 Q167.547 1038.61 170.024 1038.61 Q174.028 1038.61 176.366 1036.5 Q178.704 1034.39 178.704 1030.78 Q178.704 1027.17 176.366 1025.06 Q174.028 1022.96 170.024 1022.96 Q168.149 1022.96 166.274 1023.37 Q164.422 1023.79 162.477 1024.67 L162.477 1007.31 Z" fill="#000000" fill-rule="nonzero" fill-opacity="1" /><path clip-path="url(#clip590)" d="M117.015 639.343 L124.654 639.343 L124.654 612.977 L116.343 614.644 L116.343 610.385 L124.607 608.718 L129.283 608.718 L129.283 639.343 L136.922 639.343 L136.922 643.278 L117.015 643.278 L117.015 639.343 Z" fill="#000000" fill-rule="nonzero" fill-opacity="1" /><path clip-path="url(#clip590)" d="M146.366 637.398 L151.251 637.398 L151.251 643.278 L146.366 643.278 L146.366 637.398 Z" fill="#000000" fill-rule="nonzero" fill-opacity="1" /><path clip-path="url(#clip590)" d="M171.436 611.797 Q167.825 611.797 165.996 615.362 Q164.19 618.903 164.19 626.033 Q164.19 633.139 165.996 636.704 Q167.825 640.246 171.436 640.246 Q175.07 640.246 176.876 636.704 Q178.704 633.139 178.704 626.033 Q178.704 618.903 176.876 615.362 Q175.07 611.797 171.436 611.797 M171.436 608.093 Q177.246 608.093 180.301 612.7 Q183.38 617.283 183.38 626.033 Q183.38 634.76 180.301 639.366 Q177.246 643.949 171.436 643.949 Q165.626 643.949 162.547 639.366 Q159.491 634.76 159.491 626.033 Q159.491 617.283 162.547 612.7 Q165.626 608.093 171.436 608.093 Z" fill="#000000" fill-rule="nonzero" fill-opacity="1" /><path clip-path="url(#clip590)" d="M118.01 240.752 L125.649 240.752 L125.649 214.386 L117.339 216.053 L117.339 211.794 L125.603 210.127 L130.279 210.127 L130.279 240.752 L137.917 240.752 L137.917 244.687 L118.01 244.687 L118.01 240.752 Z" fill="#000000" fill-rule="nonzero" fill-opacity="1" /><path clip-path="url(#clip590)" d="M147.362 238.808 L152.246 238.808 L152.246 244.687 L147.362 244.687 L147.362 238.808 Z" fill="#000000" fill-rule="nonzero" fill-opacity="1" /><path clip-path="url(#clip590)" d="M162.477 210.127 L180.834 210.127 L180.834 214.062 L166.76 214.062 L166.76 222.535 Q167.778 222.187 168.797 222.025 Q169.815 221.84 170.834 221.84 Q176.621 221.84 180.001 225.011 Q183.38 228.183 183.38 233.599 Q183.38 239.178 179.908 242.28 Q176.436 245.358 170.116 245.358 Q167.94 245.358 165.672 244.988 Q163.427 244.618 161.019 243.877 L161.019 239.178 Q163.102 240.312 165.325 240.868 Q167.547 241.423 170.024 241.423 Q174.028 241.423 176.366 239.317 Q178.704 237.21 178.704 233.599 Q178.704 229.988 176.366 227.882 Q174.028 225.775 170.024 225.775 Q168.149 225.775 166.274 226.192 Q164.422 226.609 162.477 227.488 L162.477 210.127 Z" fill="#000000" fill-rule="nonzero" fill-opacity="1" /><path clip-path="url(#clip590)" d="M33.8307 800.206 Q33.2578 801.193 33.0032 802.37 Q32.7167 803.516 32.7167 804.916 Q32.7167 809.882 35.9632 812.555 Q39.1779 815.197 45.2253 815.197 L64.0042 815.197 L64.0042 821.085 L28.3562 821.085 L28.3562 815.197 L33.8944 815.197 Q30.6479 813.351 29.0883 810.391 Q27.4968 807.431 27.4968 803.198 Q27.4968 802.593 27.5923 801.861 Q27.656 801.129 27.8151 800.238 L33.8307 800.206 Z" fill="#000000" fill-rule="nonzero" fill-opacity="1" /><path clip-path="url(#clip590)" d="M42.4881 765.576 L64.0042 765.576 L64.0042 771.433 L42.679 771.433 Q37.6183 771.433 35.1038 773.406 Q32.5894 775.38 32.5894 779.326 Q32.5894 784.069 35.6131 786.806 Q38.6368 789.543 43.8567 789.543 L64.0042 789.543 L64.0042 795.432 L14.479 795.432 L14.479 789.543 L33.8944 789.543 Q30.6797 787.443 29.0883 784.61 Q27.4968 781.745 27.4968 778.021 Q27.4968 771.878 31.3163 768.727 Q35.1038 765.576 42.4881 765.576 Z" fill="#000000" fill-rule="nonzero" fill-opacity="1" /><path clip-path="url(#clip590)" d="M32.4621 740.082 Q32.4621 744.792 36.1542 747.53 Q39.8145 750.267 46.212 750.267 Q52.6095 750.267 56.3017 747.561 Q59.9619 744.824 59.9619 740.082 Q59.9619 735.403 56.2698 732.666 Q52.5777 729.928 46.212 729.928 Q39.8781 729.928 36.186 732.666 Q32.4621 735.403 32.4621 740.082 M27.4968 740.082 Q27.4968 732.443 32.4621 728.082 Q37.4273 723.722 46.212 723.722 Q54.9649 723.722 59.9619 728.082 Q64.9272 732.443 64.9272 740.082 Q64.9272 747.752 59.9619 752.113 Q54.9649 756.442 46.212 756.442 Q37.4273 756.442 32.4621 752.113 Q27.4968 747.752 27.4968 740.082 Z" fill="#000000" fill-rule="nonzero" fill-opacity="1" /><path clip-path="url(#clip590)" d="M14.5426 699.946 Q21.8632 704.211 29.0246 706.28 Q36.186 708.349 43.5384 708.349 Q50.8908 708.349 58.1159 706.28 Q65.3091 704.179 72.5979 699.946 L72.5979 705.039 Q65.1182 709.813 57.8931 712.2 Q50.668 714.555 43.5384 714.555 Q36.4406 714.555 29.2474 712.2 Q22.0542 709.845 14.5426 705.039 L14.5426 699.946 Z" fill="#000000" fill-rule="nonzero" fill-opacity="1" /><path clip-path="url(#clip590)" d="M18.2347 682.79 L28.3562 682.79 L28.3562 670.727 L32.9077 670.727 L32.9077 682.79 L52.2594 682.79 Q56.6199 682.79 57.8613 681.613 Q59.1026 680.403 59.1026 676.743 L59.1026 670.727 L64.0042 670.727 L64.0042 676.743 Q64.0042 683.522 61.4897 686.101 Q58.9434 688.679 52.2594 688.679 L32.9077 688.679 L32.9077 692.976 L28.3562 692.976 L28.3562 688.679 L18.2347 688.679 L18.2347 682.79 Z" fill="#000000" fill-rule="nonzero" fill-opacity="1" /><path clip-path="url(#clip590)" d="M14.5426 663.948 L14.5426 658.855 Q22.0542 654.081 29.2474 651.726 Q36.4406 649.339 43.5384 649.339 Q50.668 649.339 57.8931 651.726 Q65.1182 654.081 72.5979 658.855 L72.5979 663.948 Q65.3091 659.715 58.1159 657.646 Q50.8908 655.545 43.5384 655.545 Q36.186 655.545 29.0246 657.646 Q21.8632 659.715 14.5426 663.948 Z" fill="#000000" fill-rule="nonzero" fill-opacity="1" /><path clip-path="url(#clip591)" d="M336.72 47.2441 L336.72 1423.18 L359.595 1423.18 L359.595 47.2441 L336.72 47.2441 L336.72 47.2441  Z" fill="#009af9" fill-rule="evenodd" fill-opacity="1"/>
<polyline clip-path="url(#clip591)" style="stroke:#000000; stroke-linecap:round; stroke-linejoin:round; stroke-width:4; stroke-opacity:1; fill:none" points="336.72,47.2441 336.72,1423.18 359.595,1423.18 359.595,47.2441 336.72,47.2441 "/>
<path clip-path="url(#clip591)" d="M359.595 901.823 L359.595 1423.18 L382.471 1423.18 L382.471 901.823 L359.595 901.823 L359.595 901.823  Z" fill="#009af9" fill-rule="evenodd" fill-opacity="1"/>
<polyline clip-path="url(#clip591)" style="stroke:#000000; stroke-linecap:round; stroke-linejoin:round; stroke-width:4; stroke-opacity:1; fill:none" points="359.595,901.823 359.595,1423.18 382.471,1423.18 382.471,901.823 359.595,901.823 "/>
<path clip-path="url(#clip591)" d="M382.471 1058.87 L382.471 1423.18 L405.347 1423.18 L405.347 1058.87 L382.471 1058.87 L382.471 1058.87  Z" fill="#009af9" fill-rule="evenodd" fill-opacity="1"/>
<polyline clip-path="url(#clip591)" style="stroke:#000000; stroke-linecap:round; stroke-linejoin:round; stroke-width:4; stroke-opacity:1; fill:none" points="382.471,1058.87 382.471,1423.18 405.347,1423.18 405.347,1058.87 382.471,1058.87 "/>
<path clip-path="url(#clip591)" d="M405.347 1146.56 L405.347 1423.18 L428.223 1423.18 L428.223 1146.56 L405.347 1146.56 L405.347 1146.56  Z" fill="#009af9" fill-rule="evenodd" fill-opacity="1"/>
<polyline clip-path="url(#clip591)" style="stroke:#000000; stroke-linecap:round; stroke-linejoin:round; stroke-width:4; stroke-opacity:1; fill:none" points="405.347,1146.56 405.347,1423.18 428.223,1423.18 428.223,1146.56 405.347,1146.56 "/>
<path clip-path="url(#clip591)" d="M428.223 1217.51 L428.223 1423.18 L451.099 1423.18 L451.099 1217.51 L428.223 1217.51 L428.223 1217.51  Z" fill="#009af9" fill-rule="evenodd" fill-opacity="1"/>
<polyline clip-path="url(#clip591)" style="stroke:#000000; stroke-linecap:round; stroke-linejoin:round; stroke-width:4; stroke-opacity:1; fill:none" points="428.223,1217.51 428.223,1423.18 451.099,1423.18 451.099,1217.51 428.223,1217.51 "/>
<path clip-path="url(#clip591)" d="M451.099 1259.36 L451.099 1423.18 L473.975 1423.18 L473.975 1259.36 L451.099 1259.36 L451.099 1259.36  Z" fill="#009af9" fill-rule="evenodd" fill-opacity="1"/>
<polyline clip-path="url(#clip591)" style="stroke:#000000; stroke-linecap:round; stroke-linejoin:round; stroke-width:4; stroke-opacity:1; fill:none" points="451.099,1259.36 451.099,1423.18 473.975,1423.18 473.975,1259.36 451.099,1259.36 "/>
<path clip-path="url(#clip591)" d="M473.975 1277.3 L473.975 1423.18 L496.851 1423.18 L496.851 1277.3 L473.975 1277.3 L473.975 1277.3  Z" fill="#009af9" fill-rule="evenodd" fill-opacity="1"/>
<polyline clip-path="url(#clip591)" style="stroke:#000000; stroke-linecap:round; stroke-linejoin:round; stroke-width:4; stroke-opacity:1; fill:none" points="473.975,1277.3 473.975,1423.18 496.851,1423.18 496.851,1277.3 473.975,1277.3 "/>
<path clip-path="url(#clip591)" d="M496.851 1305.99 L496.851 1423.18 L519.727 1423.18 L519.727 1305.99 L496.851 1305.99 L496.851 1305.99  Z" fill="#009af9" fill-rule="evenodd" fill-opacity="1"/>
<polyline clip-path="url(#clip591)" style="stroke:#000000; stroke-linecap:round; stroke-linejoin:round; stroke-width:4; stroke-opacity:1; fill:none" points="496.851,1305.99 496.851,1423.18 519.727,1423.18 519.727,1305.99 496.851,1305.99 "/>
<path clip-path="url(#clip591)" d="M519.727 1312.77 L519.727 1423.18 L542.602 1423.18 L542.602 1312.77 L519.727 1312.77 L519.727 1312.77  Z" fill="#009af9" fill-rule="evenodd" fill-opacity="1"/>
<polyline clip-path="url(#clip591)" style="stroke:#000000; stroke-linecap:round; stroke-linejoin:round; stroke-width:4; stroke-opacity:1; fill:none" points="519.727,1312.77 519.727,1423.18 542.602,1423.18 542.602,1312.77 519.727,1312.77 "/>
<path clip-path="url(#clip591)" d="M542.602 1343.86 L542.602 1423.18 L565.478 1423.18 L565.478 1343.86 L542.602 1343.86 L542.602 1343.86  Z" fill="#009af9" fill-rule="evenodd" fill-opacity="1"/>
<polyline clip-path="url(#clip591)" style="stroke:#000000; stroke-linecap:round; stroke-linejoin:round; stroke-width:4; stroke-opacity:1; fill:none" points="542.602,1343.86 542.602,1423.18 565.478,1423.18 565.478,1343.86 542.602,1343.86 "/>
<path clip-path="url(#clip591)" d="M565.478 1335.49 L565.478 1423.18 L588.354 1423.18 L588.354 1335.49 L565.478 1335.49 L565.478 1335.49  Z" fill="#009af9" fill-rule="evenodd" fill-opacity="1"/>
<polyline clip-path="url(#clip591)" style="stroke:#000000; stroke-linecap:round; stroke-linejoin:round; stroke-width:4; stroke-opacity:1; fill:none" points="565.478,1335.49 565.478,1423.18 588.354,1423.18 588.354,1335.49 565.478,1335.49 "/>
<path clip-path="url(#clip591)" d="M588.354 1357.01 L588.354 1423.18 L611.23 1423.18 L611.23 1357.01 L588.354 1357.01 L588.354 1357.01  Z" fill="#009af9" fill-rule="evenodd" fill-opacity="1"/>
<polyline clip-path="url(#clip591)" style="stroke:#000000; stroke-linecap:round; stroke-linejoin:round; stroke-width:4; stroke-opacity:1; fill:none" points="588.354,1357.01 588.354,1423.18 611.23,1423.18 611.23,1357.01 588.354,1357.01 "/>
<path clip-path="url(#clip591)" d="M611.23 1372.16 L611.23 1423.18 L634.106 1423.18 L634.106 1372.16 L611.23 1372.16 L611.23 1372.16  Z" fill="#009af9" fill-rule="evenodd" fill-opacity="1"/>
<polyline clip-path="url(#clip591)" style="stroke:#000000; stroke-linecap:round; stroke-linejoin:round; stroke-width:4; stroke-opacity:1; fill:none" points="611.23,1372.16 611.23,1423.18 634.106,1423.18 634.106,1372.16 611.23,1372.16 "/>
<path clip-path="url(#clip591)" d="M634.106 1370.96 L634.106 1423.18 L656.982 1423.18 L656.982 1370.96 L634.106 1370.96 L634.106 1370.96  Z" fill="#009af9" fill-rule="evenodd" fill-opacity="1"/>
<polyline clip-path="url(#clip591)" style="stroke:#000000; stroke-linecap:round; stroke-linejoin:round; stroke-width:4; stroke-opacity:1; fill:none" points="634.106,1370.96 634.106,1423.18 656.982,1423.18 656.982,1370.96 634.106,1370.96 "/>
<path clip-path="url(#clip591)" d="M656.982 1373.36 L656.982 1423.18 L679.858 1423.18 L679.858 1373.36 L656.982 1373.36 L656.982 1373.36  Z" fill="#009af9" fill-rule="evenodd" fill-opacity="1"/>
<polyline clip-path="url(#clip591)" style="stroke:#000000; stroke-linecap:round; stroke-linejoin:round; stroke-width:4; stroke-opacity:1; fill:none" points="656.982,1373.36 656.982,1423.18 679.858,1423.18 679.858,1373.36 656.982,1373.36 "/>
<path clip-path="url(#clip591)" d="M679.858 1386.51 L679.858 1423.18 L702.733 1423.18 L702.733 1386.51 L679.858 1386.51 L679.858 1386.51  Z" fill="#009af9" fill-rule="evenodd" fill-opacity="1"/>
<polyline clip-path="url(#clip591)" style="stroke:#000000; stroke-linecap:round; stroke-linejoin:round; stroke-width:4; stroke-opacity:1; fill:none" points="679.858,1386.51 679.858,1423.18 702.733,1423.18 702.733,1386.51 679.858,1386.51 "/>
<path clip-path="url(#clip591)" d="M702.733 1391.29 L702.733 1423.18 L725.609 1423.18 L725.609 1391.29 L702.733 1391.29 L702.733 1391.29  Z" fill="#009af9" fill-rule="evenodd" fill-opacity="1"/>
<polyline clip-path="url(#clip591)" style="stroke:#000000; stroke-linecap:round; stroke-linejoin:round; stroke-width:4; stroke-opacity:1; fill:none" points="702.733,1391.29 702.733,1423.18 725.609,1423.18 725.609,1391.29 702.733,1391.29 "/>
<path clip-path="url(#clip591)" d="M725.609 1392.89 L725.609 1423.18 L748.485 1423.18 L748.485 1392.89 L725.609 1392.89 L725.609 1392.89  Z" fill="#009af9" fill-rule="evenodd" fill-opacity="1"/>
<polyline clip-path="url(#clip591)" style="stroke:#000000; stroke-linecap:round; stroke-linejoin:round; stroke-width:4; stroke-opacity:1; fill:none" points="725.609,1392.89 725.609,1423.18 748.485,1423.18 748.485,1392.89 725.609,1392.89 "/>
<path clip-path="url(#clip591)" d="M748.485 1407.24 L748.485 1423.18 L771.361 1423.18 L771.361 1407.24 L748.485 1407.24 L748.485 1407.24  Z" fill="#009af9" fill-rule="evenodd" fill-opacity="1"/>
<polyline clip-path="url(#clip591)" style="stroke:#000000; stroke-linecap:round; stroke-linejoin:round; stroke-width:4; stroke-opacity:1; fill:none" points="748.485,1407.24 748.485,1423.18 771.361,1423.18 771.361,1407.24 748.485,1407.24 "/>
<path clip-path="url(#clip591)" d="M771.361 1399.26 L771.361 1423.18 L794.237 1423.18 L794.237 1399.26 L771.361 1399.26 L771.361 1399.26  Z" fill="#009af9" fill-rule="evenodd" fill-opacity="1"/>
<polyline clip-path="url(#clip591)" style="stroke:#000000; stroke-linecap:round; stroke-linejoin:round; stroke-width:4; stroke-opacity:1; fill:none" points="771.361,1399.26 771.361,1423.18 794.237,1423.18 794.237,1399.26 771.361,1399.26 "/>
<path clip-path="url(#clip591)" d="M794.237 1402.45 L794.237 1423.18 L817.113 1423.18 L817.113 1402.45 L794.237 1402.45 L794.237 1402.45  Z" fill="#009af9" fill-rule="evenodd" fill-opacity="1"/>
<polyline clip-path="url(#clip591)" style="stroke:#000000; stroke-linecap:round; stroke-linejoin:round; stroke-width:4; stroke-opacity:1; fill:none" points="794.237,1402.45 794.237,1423.18 817.113,1423.18 817.113,1402.45 794.237,1402.45 "/>
<path clip-path="url(#clip591)" d="M817.113 1406.04 L817.113 1423.18 L839.989 1423.18 L839.989 1406.04 L817.113 1406.04 L817.113 1406.04  Z" fill="#009af9" fill-rule="evenodd" fill-opacity="1"/>
<polyline clip-path="url(#clip591)" style="stroke:#000000; stroke-linecap:round; stroke-linejoin:round; stroke-width:4; stroke-opacity:1; fill:none" points="817.113,1406.04 817.113,1423.18 839.989,1423.18 839.989,1406.04 817.113,1406.04 "/>
<path clip-path="url(#clip591)" d="M839.989 1407.63 L839.989 1423.18 L862.865 1423.18 L862.865 1407.63 L839.989 1407.63 L839.989 1407.63  Z" fill="#009af9" fill-rule="evenodd" fill-opacity="1"/>
<polyline clip-path="url(#clip591)" style="stroke:#000000; stroke-linecap:round; stroke-linejoin:round; stroke-width:4; stroke-opacity:1; fill:none" points="839.989,1407.63 839.989,1423.18 862.865,1423.18 862.865,1407.63 839.989,1407.63 "/>
<path clip-path="url(#clip591)" d="M862.865 1412.42 L862.865 1423.18 L885.74 1423.18 L885.74 1412.42 L862.865 1412.42 L862.865 1412.42  Z" fill="#009af9" fill-rule="evenodd" fill-opacity="1"/>
<polyline clip-path="url(#clip591)" style="stroke:#000000; stroke-linecap:round; stroke-linejoin:round; stroke-width:4; stroke-opacity:1; fill:none" points="862.865,1412.42 862.865,1423.18 885.74,1423.18 885.74,1412.42 862.865,1412.42 "/>
<path clip-path="url(#clip591)" d="M885.74 1410.03 L885.74 1423.18 L908.616 1423.18 L908.616 1410.03 L885.74 1410.03 L885.74 1410.03  Z" fill="#009af9" fill-rule="evenodd" fill-opacity="1"/>
<polyline clip-path="url(#clip591)" style="stroke:#000000; stroke-linecap:round; stroke-linejoin:round; stroke-width:4; stroke-opacity:1; fill:none" points="885.74,1410.03 885.74,1423.18 908.616,1423.18 908.616,1410.03 885.74,1410.03 "/>
<path clip-path="url(#clip591)" d="M908.616 1411.62 L908.616 1423.18 L931.492 1423.18 L931.492 1411.62 L908.616 1411.62 L908.616 1411.62  Z" fill="#009af9" fill-rule="evenodd" fill-opacity="1"/>
<polyline clip-path="url(#clip591)" style="stroke:#000000; stroke-linecap:round; stroke-linejoin:round; stroke-width:4; stroke-opacity:1; fill:none" points="908.616,1411.62 908.616,1423.18 931.492,1423.18 931.492,1411.62 908.616,1411.62 "/>
<path clip-path="url(#clip591)" d="M931.492 1411.22 L931.492 1423.18 L954.368 1423.18 L954.368 1411.22 L931.492 1411.22 L931.492 1411.22  Z" fill="#009af9" fill-rule="evenodd" fill-opacity="1"/>
<polyline clip-path="url(#clip591)" style="stroke:#000000; stroke-linecap:round; stroke-linejoin:round; stroke-width:4; stroke-opacity:1; fill:none" points="931.492,1411.22 931.492,1423.18 954.368,1423.18 954.368,1411.22 931.492,1411.22 "/>
<path clip-path="url(#clip591)" d="M954.368 1415.61 L954.368 1423.18 L977.244 1423.18 L977.244 1415.61 L954.368 1415.61 L954.368 1415.61  Z" fill="#009af9" fill-rule="evenodd" fill-opacity="1"/>
<polyline clip-path="url(#clip591)" style="stroke:#000000; stroke-linecap:round; stroke-linejoin:round; stroke-width:4; stroke-opacity:1; fill:none" points="954.368,1415.61 954.368,1423.18 977.244,1423.18 977.244,1415.61 954.368,1415.61 "/>
<path clip-path="url(#clip591)" d="M977.244 1418 L977.244 1423.18 L1000.12 1423.18 L1000.12 1418 L977.244 1418 L977.244 1418  Z" fill="#009af9" fill-rule="evenodd" fill-opacity="1"/>
<polyline clip-path="url(#clip591)" style="stroke:#000000; stroke-linecap:round; stroke-linejoin:round; stroke-width:4; stroke-opacity:1; fill:none" points="977.244,1418 977.244,1423.18 1000.12,1423.18 1000.12,1418 977.244,1418 "/>
<path clip-path="url(#clip591)" d="M1000.12 1416.01 L1000.12 1423.18 L1023 1423.18 L1023 1416.01 L1000.12 1416.01 L1000.12 1416.01  Z" fill="#009af9" fill-rule="evenodd" fill-opacity="1"/>
<polyline clip-path="url(#clip591)" style="stroke:#000000; stroke-linecap:round; stroke-linejoin:round; stroke-width:4; stroke-opacity:1; fill:none" points="1000.12,1416.01 1000.12,1423.18 1023,1423.18 1023,1416.01 1000.12,1416.01 "/>
<path clip-path="url(#clip591)" d="M1023 1417.2 L1023 1423.18 L1045.87 1423.18 L1045.87 1417.2 L1023 1417.2 L1023 1417.2  Z" fill="#009af9" fill-rule="evenodd" fill-opacity="1"/>
<polyline clip-path="url(#clip591)" style="stroke:#000000; stroke-linecap:round; stroke-linejoin:round; stroke-width:4; stroke-opacity:1; fill:none" points="1023,1417.2 1023,1423.18 1045.87,1423.18 1045.87,1417.2 1023,1417.2 "/>
<path clip-path="url(#clip591)" d="M1045.87 1417.6 L1045.87 1423.18 L1068.75 1423.18 L1068.75 1417.6 L1045.87 1417.6 L1045.87 1417.6  Z" fill="#009af9" fill-rule="evenodd" fill-opacity="1"/>
<polyline clip-path="url(#clip591)" style="stroke:#000000; stroke-linecap:round; stroke-linejoin:round; stroke-width:4; stroke-opacity:1; fill:none" points="1045.87,1417.6 1045.87,1423.18 1068.75,1423.18 1068.75,1417.6 1045.87,1417.6 "/>
<path clip-path="url(#clip591)" d="M1068.75 1417.2 L1068.75 1423.18 L1091.62 1423.18 L1091.62 1417.2 L1068.75 1417.2 L1068.75 1417.2  Z" fill="#009af9" fill-rule="evenodd" fill-opacity="1"/>
<polyline clip-path="url(#clip591)" style="stroke:#000000; stroke-linecap:round; stroke-linejoin:round; stroke-width:4; stroke-opacity:1; fill:none" points="1068.75,1417.2 1068.75,1423.18 1091.62,1423.18 1091.62,1417.2 1068.75,1417.2 "/>
<path clip-path="url(#clip591)" d="M1091.62 1417.2 L1091.62 1423.18 L1114.5 1423.18 L1114.5 1417.2 L1091.62 1417.2 L1091.62 1417.2  Z" fill="#009af9" fill-rule="evenodd" fill-opacity="1"/>
<polyline clip-path="url(#clip591)" style="stroke:#000000; stroke-linecap:round; stroke-linejoin:round; stroke-width:4; stroke-opacity:1; fill:none" points="1091.62,1417.2 1091.62,1423.18 1114.5,1423.18 1114.5,1417.2 1091.62,1417.2 "/>
<path clip-path="url(#clip591)" d="M1114.5 1419.59 L1114.5 1423.18 L1137.37 1423.18 L1137.37 1419.59 L1114.5 1419.59 L1114.5 1419.59  Z" fill="#009af9" fill-rule="evenodd" fill-opacity="1"/>
<polyline clip-path="url(#clip591)" style="stroke:#000000; stroke-linecap:round; stroke-linejoin:round; stroke-width:4; stroke-opacity:1; fill:none" points="1114.5,1419.59 1114.5,1423.18 1137.37,1423.18 1137.37,1419.59 1114.5,1419.59 "/>
<path clip-path="url(#clip591)" d="M1137.37 1419.59 L1137.37 1423.18 L1160.25 1423.18 L1160.25 1419.59 L1137.37 1419.59 L1137.37 1419.59  Z" fill="#009af9" fill-rule="evenodd" fill-opacity="1"/>
<polyline clip-path="url(#clip591)" style="stroke:#000000; stroke-linecap:round; stroke-linejoin:round; stroke-width:4; stroke-opacity:1; fill:none" points="1137.37,1419.59 1137.37,1423.18 1160.25,1423.18 1160.25,1419.59 1137.37,1419.59 "/>
<path clip-path="url(#clip591)" d="M1160.25 1421.19 L1160.25 1423.18 L1183.13 1423.18 L1183.13 1421.19 L1160.25 1421.19 L1160.25 1421.19  Z" fill="#009af9" fill-rule="evenodd" fill-opacity="1"/>
<polyline clip-path="url(#clip591)" style="stroke:#000000; stroke-linecap:round; stroke-linejoin:round; stroke-width:4; stroke-opacity:1; fill:none" points="1160.25,1421.19 1160.25,1423.18 1183.13,1423.18 1183.13,1421.19 1160.25,1421.19 "/>
<path clip-path="url(#clip591)" d="M1183.13 1421.19 L1183.13 1423.18 L1206 1423.18 L1206 1421.19 L1183.13 1421.19 L1183.13 1421.19  Z" fill="#009af9" fill-rule="evenodd" fill-opacity="1"/>
<polyline clip-path="url(#clip591)" style="stroke:#000000; stroke-linecap:round; stroke-linejoin:round; stroke-width:4; stroke-opacity:1; fill:none" points="1183.13,1421.19 1183.13,1423.18 1206,1423.18 1206,1421.19 1183.13,1421.19 "/>
<path clip-path="url(#clip591)" d="M1206 1419.99 L1206 1423.18 L1228.88 1423.18 L1228.88 1419.99 L1206 1419.99 L1206 1419.99  Z" fill="#009af9" fill-rule="evenodd" fill-opacity="1"/>
<polyline clip-path="url(#clip591)" style="stroke:#000000; stroke-linecap:round; stroke-linejoin:round; stroke-width:4; stroke-opacity:1; fill:none" points="1206,1419.99 1206,1423.18 1228.88,1423.18 1228.88,1419.99 1206,1419.99 "/>
<path clip-path="url(#clip591)" d="M1228.88 1422.38 L1228.88 1423.18 L1251.75 1423.18 L1251.75 1422.38 L1228.88 1422.38 L1228.88 1422.38  Z" fill="#009af9" fill-rule="evenodd" fill-opacity="1"/>
<polyline clip-path="url(#clip591)" style="stroke:#000000; stroke-linecap:round; stroke-linejoin:round; stroke-width:4; stroke-opacity:1; fill:none" points="1228.88,1422.38 1228.88,1423.18 1251.75,1423.18 1251.75,1422.38 1228.88,1422.38 "/>
<path clip-path="url(#clip591)" d="M1251.75 1419.19 L1251.75 1423.18 L1274.63 1423.18 L1274.63 1419.19 L1251.75 1419.19 L1251.75 1419.19  Z" fill="#009af9" fill-rule="evenodd" fill-opacity="1"/>
<polyline clip-path="url(#clip591)" style="stroke:#000000; stroke-linecap:round; stroke-linejoin:round; stroke-width:4; stroke-opacity:1; fill:none" points="1251.75,1419.19 1251.75,1423.18 1274.63,1423.18 1274.63,1419.19 1251.75,1419.19 "/>
<path clip-path="url(#clip591)" d="M1274.63 1421.59 L1274.63 1423.18 L1297.51 1423.18 L1297.51 1421.59 L1274.63 1421.59 L1274.63 1421.59  Z" fill="#009af9" fill-rule="evenodd" fill-opacity="1"/>
<polyline clip-path="url(#clip591)" style="stroke:#000000; stroke-linecap:round; stroke-linejoin:round; stroke-width:4; stroke-opacity:1; fill:none" points="1274.63,1421.59 1274.63,1423.18 1297.51,1423.18 1297.51,1421.59 1274.63,1421.59 "/>
<path clip-path="url(#clip591)" d="M1297.51 1422.38 L1297.51 1423.18 L1320.38 1423.18 L1320.38 1422.38 L1297.51 1422.38 L1297.51 1422.38  Z" fill="#009af9" fill-rule="evenodd" fill-opacity="1"/>
<polyline clip-path="url(#clip591)" style="stroke:#000000; stroke-linecap:round; stroke-linejoin:round; stroke-width:4; stroke-opacity:1; fill:none" points="1297.51,1422.38 1297.51,1423.18 1320.38,1423.18 1320.38,1422.38 1297.51,1422.38 "/>
<path clip-path="url(#clip591)" d="M1320.38 1420.79 L1320.38 1423.18 L1343.26 1423.18 L1343.26 1420.79 L1320.38 1420.79 L1320.38 1420.79  Z" fill="#009af9" fill-rule="evenodd" fill-opacity="1"/>
<polyline clip-path="url(#clip591)" style="stroke:#000000; stroke-linecap:round; stroke-linejoin:round; stroke-width:4; stroke-opacity:1; fill:none" points="1320.38,1420.79 1320.38,1423.18 1343.26,1423.18 1343.26,1420.79 1320.38,1420.79 "/>
<path clip-path="url(#clip591)" d="M1343.26 1422.38 L1343.26 1423.18 L1366.13 1423.18 L1366.13 1422.38 L1343.26 1422.38 L1343.26 1422.38  Z" fill="#009af9" fill-rule="evenodd" fill-opacity="1"/>
<polyline clip-path="url(#clip591)" style="stroke:#000000; stroke-linecap:round; stroke-linejoin:round; stroke-width:4; stroke-opacity:1; fill:none" points="1343.26,1422.38 1343.26,1423.18 1366.13,1423.18 1366.13,1422.38 1343.26,1422.38 "/>
<path clip-path="url(#clip591)" d="M1366.13 1421.98 L1366.13 1423.18 L1389.01 1423.18 L1389.01 1421.98 L1366.13 1421.98 L1366.13 1421.98  Z" fill="#009af9" fill-rule="evenodd" fill-opacity="1"/>
<polyline clip-path="url(#clip591)" style="stroke:#000000; stroke-linecap:round; stroke-linejoin:round; stroke-width:4; stroke-opacity:1; fill:none" points="1366.13,1421.98 1366.13,1423.18 1389.01,1423.18 1389.01,1421.98 1366.13,1421.98 "/>
<path clip-path="url(#clip591)" d="M1389.01 1421.59 L1389.01 1423.18 L1411.89 1423.18 L1411.89 1421.59 L1389.01 1421.59 L1389.01 1421.59  Z" fill="#009af9" fill-rule="evenodd" fill-opacity="1"/>
<polyline clip-path="url(#clip591)" style="stroke:#000000; stroke-linecap:round; stroke-linejoin:round; stroke-width:4; stroke-opacity:1; fill:none" points="1389.01,1421.59 1389.01,1423.18 1411.89,1423.18 1411.89,1421.59 1389.01,1421.59 "/>
<path clip-path="url(#clip591)" d="M1411.89 1421.98 L1411.89 1423.18 L1434.76 1423.18 L1434.76 1421.98 L1411.89 1421.98 L1411.89 1421.98  Z" fill="#009af9" fill-rule="evenodd" fill-opacity="1"/>
<polyline clip-path="url(#clip591)" style="stroke:#000000; stroke-linecap:round; stroke-linejoin:round; stroke-width:4; stroke-opacity:1; fill:none" points="1411.89,1421.98 1411.89,1423.18 1434.76,1423.18 1434.76,1421.98 1411.89,1421.98 "/>
<path clip-path="url(#clip591)" d="M1434.76 1422.38 L1434.76 1423.18 L1457.64 1423.18 L1457.64 1422.38 L1434.76 1422.38 L1434.76 1422.38  Z" fill="#009af9" fill-rule="evenodd" fill-opacity="1"/>
<polyline clip-path="url(#clip591)" style="stroke:#000000; stroke-linecap:round; stroke-linejoin:round; stroke-width:4; stroke-opacity:1; fill:none" points="1434.76,1422.38 1434.76,1423.18 1457.64,1423.18 1457.64,1422.38 1434.76,1422.38 "/>
<path clip-path="url(#clip591)" d="M1457.64 1421.19 L1457.64 1423.18 L1480.51 1423.18 L1480.51 1421.19 L1457.64 1421.19 L1457.64 1421.19  Z" fill="#009af9" fill-rule="evenodd" fill-opacity="1"/>
<polyline clip-path="url(#clip591)" style="stroke:#000000; stroke-linecap:round; stroke-linejoin:round; stroke-width:4; stroke-opacity:1; fill:none" points="1457.64,1421.19 1457.64,1423.18 1480.51,1423.18 1480.51,1421.19 1457.64,1421.19 "/>
<path clip-path="url(#clip591)" d="M1480.51 1422.78 L1480.51 1423.18 L1503.39 1423.18 L1503.39 1422.78 L1480.51 1422.78 L1480.51 1422.78  Z" fill="#009af9" fill-rule="evenodd" fill-opacity="1"/>
<polyline clip-path="url(#clip591)" style="stroke:#000000; stroke-linecap:round; stroke-linejoin:round; stroke-width:4; stroke-opacity:1; fill:none" points="1480.51,1422.78 1480.51,1423.18 1503.39,1423.18 1503.39,1422.78 1480.51,1422.78 "/>
<path clip-path="url(#clip591)" d="M1503.39 1422.38 L1503.39 1423.18 L1526.26 1423.18 L1526.26 1422.38 L1503.39 1422.38 L1503.39 1422.38  Z" fill="#009af9" fill-rule="evenodd" fill-opacity="1"/>
<polyline clip-path="url(#clip591)" style="stroke:#000000; stroke-linecap:round; stroke-linejoin:round; stroke-width:4; stroke-opacity:1; fill:none" points="1503.39,1422.38 1503.39,1423.18 1526.26,1423.18 1526.26,1422.38 1503.39,1422.38 "/>
<path clip-path="url(#clip591)" d="M1526.26 1423.18 L1526.26 1423.18 L1549.14 1423.18 L1549.14 1423.18 L1526.26 1423.18 L1526.26 1423.18  Z" fill="#009af9" fill-rule="evenodd" fill-opacity="1"/>
<polyline clip-path="url(#clip591)" style="stroke:#000000; stroke-linecap:round; stroke-linejoin:round; stroke-width:4; stroke-opacity:1; fill:none" points="1526.26,1423.18 1526.26,1423.18 1549.14,1423.18 1526.26,1423.18 "/>
<path clip-path="url(#clip591)" d="M1549.14 1423.18 L1549.14 1423.18 L1572.02 1423.18 L1572.02 1423.18 L1549.14 1423.18 L1549.14 1423.18  Z" fill="#009af9" fill-rule="evenodd" fill-opacity="1"/>
<polyline clip-path="url(#clip591)" style="stroke:#000000; stroke-linecap:round; stroke-linejoin:round; stroke-width:4; stroke-opacity:1; fill:none" points="1549.14,1423.18 1549.14,1423.18 1572.02,1423.18 1549.14,1423.18 "/>
<path clip-path="url(#clip591)" d="M1572.02 1422.78 L1572.02 1423.18 L1594.89 1423.18 L1594.89 1422.78 L1572.02 1422.78 L1572.02 1422.78  Z" fill="#009af9" fill-rule="evenodd" fill-opacity="1"/>
<polyline clip-path="url(#clip591)" style="stroke:#000000; stroke-linecap:round; stroke-linejoin:round; stroke-width:4; stroke-opacity:1; fill:none" points="1572.02,1422.78 1572.02,1423.18 1594.89,1423.18 1594.89,1422.78 1572.02,1422.78 "/>
<path clip-path="url(#clip591)" d="M1594.89 1422.78 L1594.89 1423.18 L1617.77 1423.18 L1617.77 1422.78 L1594.89 1422.78 L1594.89 1422.78  Z" fill="#009af9" fill-rule="evenodd" fill-opacity="1"/>
<polyline clip-path="url(#clip591)" style="stroke:#000000; stroke-linecap:round; stroke-linejoin:round; stroke-width:4; stroke-opacity:1; fill:none" points="1594.89,1422.78 1594.89,1423.18 1617.77,1423.18 1617.77,1422.78 1594.89,1422.78 "/>
<path clip-path="url(#clip591)" d="M1617.77 1423.18 L1617.77 1423.18 L1640.64 1423.18 L1640.64 1423.18 L1617.77 1423.18 L1617.77 1423.18  Z" fill="#009af9" fill-rule="evenodd" fill-opacity="1"/>
<polyline clip-path="url(#clip591)" style="stroke:#000000; stroke-linecap:round; stroke-linejoin:round; stroke-width:4; stroke-opacity:1; fill:none" points="1617.77,1423.18 1617.77,1423.18 1640.64,1423.18 1617.77,1423.18 "/>
<path clip-path="url(#clip591)" d="M1640.64 1423.18 L1640.64 1423.18 L1663.52 1423.18 L1663.52 1423.18 L1640.64 1423.18 L1640.64 1423.18  Z" fill="#009af9" fill-rule="evenodd" fill-opacity="1"/>
<polyline clip-path="url(#clip591)" style="stroke:#000000; stroke-linecap:round; stroke-linejoin:round; stroke-width:4; stroke-opacity:1; fill:none" points="1640.64,1423.18 1640.64,1423.18 1663.52,1423.18 1640.64,1423.18 "/>
<path clip-path="url(#clip591)" d="M1663.52 1422.38 L1663.52 1423.18 L1686.4 1423.18 L1686.4 1422.38 L1663.52 1422.38 L1663.52 1422.38  Z" fill="#009af9" fill-rule="evenodd" fill-opacity="1"/>
<polyline clip-path="url(#clip591)" style="stroke:#000000; stroke-linecap:round; stroke-linejoin:round; stroke-width:4; stroke-opacity:1; fill:none" points="1663.52,1422.38 1663.52,1423.18 1686.4,1423.18 1686.4,1422.38 1663.52,1422.38 "/>
<path clip-path="url(#clip591)" d="M1686.4 1423.18 L1686.4 1423.18 L1709.27 1423.18 L1709.27 1423.18 L1686.4 1423.18 L1686.4 1423.18  Z" fill="#009af9" fill-rule="evenodd" fill-opacity="1"/>
<polyline clip-path="url(#clip591)" style="stroke:#000000; stroke-linecap:round; stroke-linejoin:round; stroke-width:4; stroke-opacity:1; fill:none" points="1686.4,1423.18 1686.4,1423.18 1709.27,1423.18 1686.4,1423.18 "/>
<path clip-path="url(#clip591)" d="M1709.27 1422.78 L1709.27 1423.18 L1732.15 1423.18 L1732.15 1422.78 L1709.27 1422.78 L1709.27 1422.78  Z" fill="#009af9" fill-rule="evenodd" fill-opacity="1"/>
<polyline clip-path="url(#clip591)" style="stroke:#000000; stroke-linecap:round; stroke-linejoin:round; stroke-width:4; stroke-opacity:1; fill:none" points="1709.27,1422.78 1709.27,1423.18 1732.15,1423.18 1732.15,1422.78 1709.27,1422.78 "/>
<path clip-path="url(#clip591)" d="M1732.15 1422.78 L1732.15 1423.18 L1755.02 1423.18 L1755.02 1422.78 L1732.15 1422.78 L1732.15 1422.78  Z" fill="#009af9" fill-rule="evenodd" fill-opacity="1"/>
<polyline clip-path="url(#clip591)" style="stroke:#000000; stroke-linecap:round; stroke-linejoin:round; stroke-width:4; stroke-opacity:1; fill:none" points="1732.15,1422.78 1732.15,1423.18 1755.02,1423.18 1755.02,1422.78 1732.15,1422.78 "/>
<path clip-path="url(#clip591)" d="M1755.02 1423.18 L1755.02 1423.18 L1777.9 1423.18 L1777.9 1423.18 L1755.02 1423.18 L1755.02 1423.18  Z" fill="#009af9" fill-rule="evenodd" fill-opacity="1"/>
<polyline clip-path="url(#clip591)" style="stroke:#000000; stroke-linecap:round; stroke-linejoin:round; stroke-width:4; stroke-opacity:1; fill:none" points="1755.02,1423.18 1755.02,1423.18 1777.9,1423.18 1755.02,1423.18 "/>
<path clip-path="url(#clip591)" d="M1777.9 1423.18 L1777.9 1423.18 L1800.78 1423.18 L1800.78 1423.18 L1777.9 1423.18 L1777.9 1423.18  Z" fill="#009af9" fill-rule="evenodd" fill-opacity="1"/>
<polyline clip-path="url(#clip591)" style="stroke:#000000; stroke-linecap:round; stroke-linejoin:round; stroke-width:4; stroke-opacity:1; fill:none" points="1777.9,1423.18 1777.9,1423.18 1800.78,1423.18 1777.9,1423.18 "/>
<path clip-path="url(#clip591)" d="M1800.78 1423.18 L1800.78 1423.18 L1823.65 1423.18 L1823.65 1423.18 L1800.78 1423.18 L1800.78 1423.18  Z" fill="#009af9" fill-rule="evenodd" fill-opacity="1"/>
<polyline clip-path="url(#clip591)" style="stroke:#000000; stroke-linecap:round; stroke-linejoin:round; stroke-width:4; stroke-opacity:1; fill:none" points="1800.78,1423.18 1800.78,1423.18 1823.65,1423.18 1800.78,1423.18 "/>
<path clip-path="url(#clip591)" d="M1823.65 1423.18 L1823.65 1423.18 L1846.53 1423.18 L1846.53 1423.18 L1823.65 1423.18 L1823.65 1423.18  Z" fill="#009af9" fill-rule="evenodd" fill-opacity="1"/>
<polyline clip-path="url(#clip591)" style="stroke:#000000; stroke-linecap:round; stroke-linejoin:round; stroke-width:4; stroke-opacity:1; fill:none" points="1823.65,1423.18 1823.65,1423.18 1846.53,1423.18 1823.65,1423.18 "/>
<path clip-path="url(#clip591)" d="M1846.53 1423.18 L1846.53 1423.18 L1869.4 1423.18 L1869.4 1423.18 L1846.53 1423.18 L1846.53 1423.18  Z" fill="#009af9" fill-rule="evenodd" fill-opacity="1"/>
<polyline clip-path="url(#clip591)" style="stroke:#000000; stroke-linecap:round; stroke-linejoin:round; stroke-width:4; stroke-opacity:1; fill:none" points="1846.53,1423.18 1846.53,1423.18 1869.4,1423.18 1846.53,1423.18 "/>
<path clip-path="url(#clip591)" d="M1869.4 1423.18 L1869.4 1423.18 L1892.28 1423.18 L1892.28 1423.18 L1869.4 1423.18 L1869.4 1423.18  Z" fill="#009af9" fill-rule="evenodd" fill-opacity="1"/>
<polyline clip-path="url(#clip591)" style="stroke:#000000; stroke-linecap:round; stroke-linejoin:round; stroke-width:4; stroke-opacity:1; fill:none" points="1869.4,1423.18 1869.4,1423.18 1892.28,1423.18 1869.4,1423.18 "/>
<path clip-path="url(#clip591)" d="M1892.28 1423.18 L1892.28 1423.18 L1915.15 1423.18 L1915.15 1423.18 L1892.28 1423.18 L1892.28 1423.18  Z" fill="#009af9" fill-rule="evenodd" fill-opacity="1"/>
<polyline clip-path="url(#clip591)" style="stroke:#000000; stroke-linecap:round; stroke-linejoin:round; stroke-width:4; stroke-opacity:1; fill:none" points="1892.28,1423.18 1892.28,1423.18 1915.15,1423.18 1892.28,1423.18 "/>
<path clip-path="url(#clip591)" d="M1915.15 1423.18 L1915.15 1423.18 L1938.03 1423.18 L1938.03 1423.18 L1915.15 1423.18 L1915.15 1423.18  Z" fill="#009af9" fill-rule="evenodd" fill-opacity="1"/>
<polyline clip-path="url(#clip591)" style="stroke:#000000; stroke-linecap:round; stroke-linejoin:round; stroke-width:4; stroke-opacity:1; fill:none" points="1915.15,1423.18 1915.15,1423.18 1938.03,1423.18 1915.15,1423.18 "/>
<path clip-path="url(#clip591)" d="M1938.03 1423.18 L1938.03 1423.18 L1960.91 1423.18 L1960.91 1423.18 L1938.03 1423.18 L1938.03 1423.18  Z" fill="#009af9" fill-rule="evenodd" fill-opacity="1"/>
<polyline clip-path="url(#clip591)" style="stroke:#000000; stroke-linecap:round; stroke-linejoin:round; stroke-width:4; stroke-opacity:1; fill:none" points="1938.03,1423.18 1938.03,1423.18 1960.91,1423.18 1938.03,1423.18 "/>
<path clip-path="url(#clip591)" d="M1960.91 1423.18 L1960.91 1423.18 L1983.78 1423.18 L1983.78 1423.18 L1960.91 1423.18 L1960.91 1423.18  Z" fill="#009af9" fill-rule="evenodd" fill-opacity="1"/>
<polyline clip-path="url(#clip591)" style="stroke:#000000; stroke-linecap:round; stroke-linejoin:round; stroke-width:4; stroke-opacity:1; fill:none" points="1960.91,1423.18 1960.91,1423.18 1983.78,1423.18 1960.91,1423.18 "/>
<path clip-path="url(#clip591)" d="M1983.78 1423.18 L1983.78 1423.18 L2006.66 1423.18 L2006.66 1423.18 L1983.78 1423.18 L1983.78 1423.18  Z" fill="#009af9" fill-rule="evenodd" fill-opacity="1"/>
<polyline clip-path="url(#clip591)" style="stroke:#000000; stroke-linecap:round; stroke-linejoin:round; stroke-width:4; stroke-opacity:1; fill:none" points="1983.78,1423.18 1983.78,1423.18 2006.66,1423.18 1983.78,1423.18 "/>
<path clip-path="url(#clip591)" d="M2006.66 1423.18 L2006.66 1423.18 L2029.53 1423.18 L2029.53 1423.18 L2006.66 1423.18 L2006.66 1423.18  Z" fill="#009af9" fill-rule="evenodd" fill-opacity="1"/>
<polyline clip-path="url(#clip591)" style="stroke:#000000; stroke-linecap:round; stroke-linejoin:round; stroke-width:4; stroke-opacity:1; fill:none" points="2006.66,1423.18 2006.66,1423.18 2029.53,1423.18 2006.66,1423.18 "/>
<path clip-path="url(#clip591)" d="M2029.53 1423.18 L2029.53 1423.18 L2052.41 1423.18 L2052.41 1423.18 L2029.53 1423.18 L2029.53 1423.18  Z" fill="#009af9" fill-rule="evenodd" fill-opacity="1"/>
<polyline clip-path="url(#clip591)" style="stroke:#000000; stroke-linecap:round; stroke-linejoin:round; stroke-width:4; stroke-opacity:1; fill:none" points="2029.53,1423.18 2029.53,1423.18 2052.41,1423.18 2029.53,1423.18 "/>
<path clip-path="url(#clip591)" d="M2052.41 1423.18 L2052.41 1423.18 L2075.29 1423.18 L2075.29 1423.18 L2052.41 1423.18 L2052.41 1423.18  Z" fill="#009af9" fill-rule="evenodd" fill-opacity="1"/>
<polyline clip-path="url(#clip591)" style="stroke:#000000; stroke-linecap:round; stroke-linejoin:round; stroke-width:4; stroke-opacity:1; fill:none" points="2052.41,1423.18 2052.41,1423.18 2075.29,1423.18 2052.41,1423.18 "/>
<path clip-path="url(#clip591)" d="M2075.29 1423.18 L2075.29 1423.18 L2098.16 1423.18 L2098.16 1423.18 L2075.29 1423.18 L2075.29 1423.18  Z" fill="#009af9" fill-rule="evenodd" fill-opacity="1"/>
<polyline clip-path="url(#clip591)" style="stroke:#000000; stroke-linecap:round; stroke-linejoin:round; stroke-width:4; stroke-opacity:1; fill:none" points="2075.29,1423.18 2075.29,1423.18 2098.16,1423.18 2075.29,1423.18 "/>
<path clip-path="url(#clip591)" d="M2098.16 1423.18 L2098.16 1423.18 L2121.04 1423.18 L2121.04 1423.18 L2098.16 1423.18 L2098.16 1423.18  Z" fill="#009af9" fill-rule="evenodd" fill-opacity="1"/>
<polyline clip-path="url(#clip591)" style="stroke:#000000; stroke-linecap:round; stroke-linejoin:round; stroke-width:4; stroke-opacity:1; fill:none" points="2098.16,1423.18 2098.16,1423.18 2121.04,1423.18 2098.16,1423.18 "/>
<path clip-path="url(#clip591)" d="M2121.04 1423.18 L2121.04 1423.18 L2143.91 1423.18 L2143.91 1423.18 L2121.04 1423.18 L2121.04 1423.18  Z" fill="#009af9" fill-rule="evenodd" fill-opacity="1"/>
<polyline clip-path="url(#clip591)" style="stroke:#000000; stroke-linecap:round; stroke-linejoin:round; stroke-width:4; stroke-opacity:1; fill:none" points="2121.04,1423.18 2121.04,1423.18 2143.91,1423.18 2121.04,1423.18 "/>
<path clip-path="url(#clip591)" d="M2143.91 1423.18 L2143.91 1423.18 L2166.79 1423.18 L2166.79 1423.18 L2143.91 1423.18 L2143.91 1423.18  Z" fill="#009af9" fill-rule="evenodd" fill-opacity="1"/>
<polyline clip-path="url(#clip591)" style="stroke:#000000; stroke-linecap:round; stroke-linejoin:round; stroke-width:4; stroke-opacity:1; fill:none" points="2143.91,1423.18 2143.91,1423.18 2166.79,1423.18 2143.91,1423.18 "/>
<path clip-path="url(#clip591)" d="M2166.79 1423.18 L2166.79 1423.18 L2189.66 1423.18 L2189.66 1423.18 L2166.79 1423.18 L2166.79 1423.18  Z" fill="#009af9" fill-rule="evenodd" fill-opacity="1"/>
<polyline clip-path="url(#clip591)" style="stroke:#000000; stroke-linecap:round; stroke-linejoin:round; stroke-width:4; stroke-opacity:1; fill:none" points="2166.79,1423.18 2166.79,1423.18 2189.66,1423.18 2166.79,1423.18 "/>
<path clip-path="url(#clip591)" d="M2189.66 1423.18 L2189.66 1423.18 L2212.54 1423.18 L2212.54 1423.18 L2189.66 1423.18 L2189.66 1423.18  Z" fill="#009af9" fill-rule="evenodd" fill-opacity="1"/>
<polyline clip-path="url(#clip591)" style="stroke:#000000; stroke-linecap:round; stroke-linejoin:round; stroke-width:4; stroke-opacity:1; fill:none" points="2189.66,1423.18 2189.66,1423.18 2212.54,1423.18 2189.66,1423.18 "/>
<path clip-path="url(#clip591)" d="M2212.54 1422.78 L2212.54 1423.18 L2235.42 1423.18 L2235.42 1422.78 L2212.54 1422.78 L2212.54 1422.78  Z" fill="#009af9" fill-rule="evenodd" fill-opacity="1"/>
<polyline clip-path="url(#clip591)" style="stroke:#000000; stroke-linecap:round; stroke-linejoin:round; stroke-width:4; stroke-opacity:1; fill:none" points="2212.54,1422.78 2212.54,1423.18 2235.42,1423.18 2235.42,1422.78 2212.54,1422.78 "/>
<circle clip-path="url(#clip591)" style="fill:#009af9; stroke:none; fill-opacity:0" cx="348.158" cy="47.2441" r="2"/>
<circle clip-path="url(#clip591)" style="fill:#009af9; stroke:none; fill-opacity:0" cx="371.033" cy="901.823" r="2"/>
<circle clip-path="url(#clip591)" style="fill:#009af9; stroke:none; fill-opacity:0" cx="393.909" cy="1058.87" r="2"/>
<circle clip-path="url(#clip591)" style="fill:#009af9; stroke:none; fill-opacity:0" cx="416.785" cy="1146.56" r="2"/>
<circle clip-path="url(#clip591)" style="fill:#009af9; stroke:none; fill-opacity:0" cx="439.661" cy="1217.51" r="2"/>
<circle clip-path="url(#clip591)" style="fill:#009af9; stroke:none; fill-opacity:0" cx="462.537" cy="1259.36" r="2"/>
<circle clip-path="url(#clip591)" style="fill:#009af9; stroke:none; fill-opacity:0" cx="485.413" cy="1277.3" r="2"/>
<circle clip-path="url(#clip591)" style="fill:#009af9; stroke:none; fill-opacity:0" cx="508.289" cy="1305.99" r="2"/>
<circle clip-path="url(#clip591)" style="fill:#009af9; stroke:none; fill-opacity:0" cx="531.164" cy="1312.77" r="2"/>
<circle clip-path="url(#clip591)" style="fill:#009af9; stroke:none; fill-opacity:0" cx="554.04" cy="1343.86" r="2"/>
<circle clip-path="url(#clip591)" style="fill:#009af9; stroke:none; fill-opacity:0" cx="576.916" cy="1335.49" r="2"/>
<circle clip-path="url(#clip591)" style="fill:#009af9; stroke:none; fill-opacity:0" cx="599.792" cy="1357.01" r="2"/>
<circle clip-path="url(#clip591)" style="fill:#009af9; stroke:none; fill-opacity:0" cx="622.668" cy="1372.16" r="2"/>
<circle clip-path="url(#clip591)" style="fill:#009af9; stroke:none; fill-opacity:0" cx="645.544" cy="1370.96" r="2"/>
<circle clip-path="url(#clip591)" style="fill:#009af9; stroke:none; fill-opacity:0" cx="668.42" cy="1373.36" r="2"/>
<circle clip-path="url(#clip591)" style="fill:#009af9; stroke:none; fill-opacity:0" cx="691.296" cy="1386.51" r="2"/>
<circle clip-path="url(#clip591)" style="fill:#009af9; stroke:none; fill-opacity:0" cx="714.171" cy="1391.29" r="2"/>
<circle clip-path="url(#clip591)" style="fill:#009af9; stroke:none; fill-opacity:0" cx="737.047" cy="1392.89" r="2"/>
<circle clip-path="url(#clip591)" style="fill:#009af9; stroke:none; fill-opacity:0" cx="759.923" cy="1407.24" r="2"/>
<circle clip-path="url(#clip591)" style="fill:#009af9; stroke:none; fill-opacity:0" cx="782.799" cy="1399.26" r="2"/>
<circle clip-path="url(#clip591)" style="fill:#009af9; stroke:none; fill-opacity:0" cx="805.675" cy="1402.45" r="2"/>
<circle clip-path="url(#clip591)" style="fill:#009af9; stroke:none; fill-opacity:0" cx="828.551" cy="1406.04" r="2"/>
<circle clip-path="url(#clip591)" style="fill:#009af9; stroke:none; fill-opacity:0" cx="851.427" cy="1407.63" r="2"/>
<circle clip-path="url(#clip591)" style="fill:#009af9; stroke:none; fill-opacity:0" cx="874.302" cy="1412.42" r="2"/>
<circle clip-path="url(#clip591)" style="fill:#009af9; stroke:none; fill-opacity:0" cx="897.178" cy="1410.03" r="2"/>
<circle clip-path="url(#clip591)" style="fill:#009af9; stroke:none; fill-opacity:0" cx="920.054" cy="1411.62" r="2"/>
<circle clip-path="url(#clip591)" style="fill:#009af9; stroke:none; fill-opacity:0" cx="942.93" cy="1411.22" r="2"/>
<circle clip-path="url(#clip591)" style="fill:#009af9; stroke:none; fill-opacity:0" cx="965.806" cy="1415.61" r="2"/>
<circle clip-path="url(#clip591)" style="fill:#009af9; stroke:none; fill-opacity:0" cx="988.682" cy="1418" r="2"/>
<circle clip-path="url(#clip591)" style="fill:#009af9; stroke:none; fill-opacity:0" cx="1011.56" cy="1416.01" r="2"/>
<circle clip-path="url(#clip591)" style="fill:#009af9; stroke:none; fill-opacity:0" cx="1034.43" cy="1417.2" r="2"/>
<circle clip-path="url(#clip591)" style="fill:#009af9; stroke:none; fill-opacity:0" cx="1057.31" cy="1417.6" r="2"/>
<circle clip-path="url(#clip591)" style="fill:#009af9; stroke:none; fill-opacity:0" cx="1080.19" cy="1417.2" r="2"/>
<circle clip-path="url(#clip591)" style="fill:#009af9; stroke:none; fill-opacity:0" cx="1103.06" cy="1417.2" r="2"/>
<circle clip-path="url(#clip591)" style="fill:#009af9; stroke:none; fill-opacity:0" cx="1125.94" cy="1419.59" r="2"/>
<circle clip-path="url(#clip591)" style="fill:#009af9; stroke:none; fill-opacity:0" cx="1148.81" cy="1419.59" r="2"/>
<circle clip-path="url(#clip591)" style="fill:#009af9; stroke:none; fill-opacity:0" cx="1171.69" cy="1421.19" r="2"/>
<circle clip-path="url(#clip591)" style="fill:#009af9; stroke:none; fill-opacity:0" cx="1194.56" cy="1421.19" r="2"/>
<circle clip-path="url(#clip591)" style="fill:#009af9; stroke:none; fill-opacity:0" cx="1217.44" cy="1419.99" r="2"/>
<circle clip-path="url(#clip591)" style="fill:#009af9; stroke:none; fill-opacity:0" cx="1240.32" cy="1422.38" r="2"/>
<circle clip-path="url(#clip591)" style="fill:#009af9; stroke:none; fill-opacity:0" cx="1263.19" cy="1419.19" r="2"/>
<circle clip-path="url(#clip591)" style="fill:#009af9; stroke:none; fill-opacity:0" cx="1286.07" cy="1421.59" r="2"/>
<circle clip-path="url(#clip591)" style="fill:#009af9; stroke:none; fill-opacity:0" cx="1308.94" cy="1422.38" r="2"/>
<circle clip-path="url(#clip591)" style="fill:#009af9; stroke:none; fill-opacity:0" cx="1331.82" cy="1420.79" r="2"/>
<circle clip-path="url(#clip591)" style="fill:#009af9; stroke:none; fill-opacity:0" cx="1354.7" cy="1422.38" r="2"/>
<circle clip-path="url(#clip591)" style="fill:#009af9; stroke:none; fill-opacity:0" cx="1377.57" cy="1421.98" r="2"/>
<circle clip-path="url(#clip591)" style="fill:#009af9; stroke:none; fill-opacity:0" cx="1400.45" cy="1421.59" r="2"/>
<circle clip-path="url(#clip591)" style="fill:#009af9; stroke:none; fill-opacity:0" cx="1423.32" cy="1421.98" r="2"/>
<circle clip-path="url(#clip591)" style="fill:#009af9; stroke:none; fill-opacity:0" cx="1446.2" cy="1422.38" r="2"/>
<circle clip-path="url(#clip591)" style="fill:#009af9; stroke:none; fill-opacity:0" cx="1469.07" cy="1421.19" r="2"/>
<circle clip-path="url(#clip591)" style="fill:#009af9; stroke:none; fill-opacity:0" cx="1491.95" cy="1422.78" r="2"/>
<circle clip-path="url(#clip591)" style="fill:#009af9; stroke:none; fill-opacity:0" cx="1514.83" cy="1422.38" r="2"/>
<circle clip-path="url(#clip591)" style="fill:#009af9; stroke:none; fill-opacity:0" cx="1537.7" cy="1423.18" r="2"/>
<circle clip-path="url(#clip591)" style="fill:#009af9; stroke:none; fill-opacity:0" cx="1560.58" cy="1423.18" r="2"/>
<circle clip-path="url(#clip591)" style="fill:#009af9; stroke:none; fill-opacity:0" cx="1583.45" cy="1422.78" r="2"/>
<circle clip-path="url(#clip591)" style="fill:#009af9; stroke:none; fill-opacity:0" cx="1606.33" cy="1422.78" r="2"/>
<circle clip-path="url(#clip591)" style="fill:#009af9; stroke:none; fill-opacity:0" cx="1629.21" cy="1423.18" r="2"/>
<circle clip-path="url(#clip591)" style="fill:#009af9; stroke:none; fill-opacity:0" cx="1652.08" cy="1423.18" r="2"/>
<circle clip-path="url(#clip591)" style="fill:#009af9; stroke:none; fill-opacity:0" cx="1674.96" cy="1422.38" r="2"/>
<circle clip-path="url(#clip591)" style="fill:#009af9; stroke:none; fill-opacity:0" cx="1697.83" cy="1423.18" r="2"/>
<circle clip-path="url(#clip591)" style="fill:#009af9; stroke:none; fill-opacity:0" cx="1720.71" cy="1422.78" r="2"/>
<circle clip-path="url(#clip591)" style="fill:#009af9; stroke:none; fill-opacity:0" cx="1743.59" cy="1422.78" r="2"/>
<circle clip-path="url(#clip591)" style="fill:#009af9; stroke:none; fill-opacity:0" cx="1766.46" cy="1423.18" r="2"/>
<circle clip-path="url(#clip591)" style="fill:#009af9; stroke:none; fill-opacity:0" cx="1789.34" cy="1423.18" r="2"/>
<circle clip-path="url(#clip591)" style="fill:#009af9; stroke:none; fill-opacity:0" cx="1812.21" cy="1423.18" r="2"/>
<circle clip-path="url(#clip591)" style="fill:#009af9; stroke:none; fill-opacity:0" cx="1835.09" cy="1423.18" r="2"/>
<circle clip-path="url(#clip591)" style="fill:#009af9; stroke:none; fill-opacity:0" cx="1857.96" cy="1423.18" r="2"/>
<circle clip-path="url(#clip591)" style="fill:#009af9; stroke:none; fill-opacity:0" cx="1880.84" cy="1423.18" r="2"/>
<circle clip-path="url(#clip591)" style="fill:#009af9; stroke:none; fill-opacity:0" cx="1903.72" cy="1423.18" r="2"/>
<circle clip-path="url(#clip591)" style="fill:#009af9; stroke:none; fill-opacity:0" cx="1926.59" cy="1423.18" r="2"/>
<circle clip-path="url(#clip591)" style="fill:#009af9; stroke:none; fill-opacity:0" cx="1949.47" cy="1423.18" r="2"/>
<circle clip-path="url(#clip591)" style="fill:#009af9; stroke:none; fill-opacity:0" cx="1972.34" cy="1423.18" r="2"/>
<circle clip-path="url(#clip591)" style="fill:#009af9; stroke:none; fill-opacity:0" cx="1995.22" cy="1423.18" r="2"/>
<circle clip-path="url(#clip591)" style="fill:#009af9; stroke:none; fill-opacity:0" cx="2018.1" cy="1423.18" r="2"/>
<circle clip-path="url(#clip591)" style="fill:#009af9; stroke:none; fill-opacity:0" cx="2040.97" cy="1423.18" r="2"/>
<circle clip-path="url(#clip591)" style="fill:#009af9; stroke:none; fill-opacity:0" cx="2063.85" cy="1423.18" r="2"/>
<circle clip-path="url(#clip591)" style="fill:#009af9; stroke:none; fill-opacity:0" cx="2086.72" cy="1423.18" r="2"/>
<circle clip-path="url(#clip591)" style="fill:#009af9; stroke:none; fill-opacity:0" cx="2109.6" cy="1423.18" r="2"/>
<circle clip-path="url(#clip591)" style="fill:#009af9; stroke:none; fill-opacity:0" cx="2132.48" cy="1423.18" r="2"/>
<circle clip-path="url(#clip591)" style="fill:#009af9; stroke:none; fill-opacity:0" cx="2155.35" cy="1423.18" r="2"/>
<circle clip-path="url(#clip591)" style="fill:#009af9; stroke:none; fill-opacity:0" cx="2178.23" cy="1423.18" r="2"/>
<circle clip-path="url(#clip591)" style="fill:#009af9; stroke:none; fill-opacity:0" cx="2201.1" cy="1423.18" r="2"/>
<circle clip-path="url(#clip591)" style="fill:#009af9; stroke:none; fill-opacity:0" cx="2223.98" cy="1422.78" r="2"/>
<polyline clip-path="url(#clip591)" style="stroke:#e26f46; stroke-linecap:round; stroke-linejoin:round; stroke-width:16; stroke-opacity:1; fill:none" points="348.158,466.531 367.127,883.146 386.097,1033.12 405.067,1118.02 424.037,1174.68 443.006,1215.87 461.976,1247.41 480.946,1272.41 499.916,1292.72 518.885,1309.53 537.855,1323.63 556.825,1335.59 575.795,1345.82 594.764,1354.65 613.734,1362.3 632.704,1368.97 651.674,1374.81 670.643,1379.94 689.613,1384.47 708.583,1388.47 727.553,1392.02 746.522,1395.17 765.492,1397.97 784.462,1400.48 803.432,1402.71 822.401,1404.71 841.371,1406.5 860.341,1408.11 879.311,1409.56 898.28,1410.85 917.25,1412.02 936.22,1413.07 955.19,1414.02 974.159,1414.88 993.129,1415.65 1012.1,1416.35 1031.07,1416.98 1050.04,1417.55 1069.01,1418.06 1087.98,1418.53 1106.95,1418.95 1125.92,1419.34 1144.89,1419.68 1163.86,1420 1182.83,1420.29 1201.8,1420.54 1220.77,1420.78 1239.74,1420.99 1258.71,1421.19 1277.68,1421.37 1296.65,1421.53 1315.61,1421.67 1334.58,1421.81 1353.55,1421.93 1372.52,1422.04 1391.49,1422.14 1410.46,1422.23 1429.43,1422.31 1448.4,1422.39 1467.37,1422.46 1486.34,1422.52 1505.31,1422.58 1524.28,1422.63 1543.25,1422.68 1562.22,1422.72 1581.19,1422.76 1600.16,1422.8 1619.13,1422.83 1638.1,1422.86 1657.07,1422.89 1676.04,1422.91 1695.01,1422.94 1713.98,1422.96 1732.95,1422.98 1751.92,1422.99 1770.89,1423.01 1789.86,1423.02 1808.83,1423.04 1827.8,1423.05 1846.77,1423.06 1865.74,1423.07 1884.71,1423.08 1903.68,1423.09 1922.65,1423.1 1941.62,1423.1 1960.59,1423.11 1979.56,1423.12 1998.53,1423.12 2017.5,1423.13 2036.47,1423.13 2055.43,1423.14 2074.4,1423.14 2093.37,1423.14 2112.34,1423.15 2131.31,1423.15 2150.28,1423.15 2169.25,1423.15 2188.22,1423.16 2207.19,1423.16 2226.16,1423.16 "/>
<path clip-path="url(#clip590)" d="M2015.88 248.629 L2281.64 248.629 L2281.64 93.1086 L2015.88 93.1086  Z" fill="#ffffff" fill-rule="evenodd" fill-opacity="1"/>
<polyline clip-path="url(#clip590)" style="stroke:#000000; stroke-linecap:round; stroke-linejoin:round; stroke-width:4; stroke-opacity:1; fill:none" points="2015.88,248.629 2281.64,248.629 2281.64,93.1086 2015.88,93.1086 2015.88,248.629 "/>
<path clip-path="url(#clip590)" d="M2039.58 165.685 L2181.8 165.685 L2181.8 124.213 L2039.58 124.213 L2039.58 165.685  Z" fill="#009af9" fill-rule="evenodd" fill-opacity="1"/>
<polyline clip-path="url(#clip590)" style="stroke:#000000; stroke-linecap:round; stroke-linejoin:round; stroke-width:4; stroke-opacity:1; fill:none" points="2039.58,165.685 2181.8,165.685 2181.8,124.213 2039.58,124.213 2039.58,165.685 "/>
<path clip-path="url(#clip590)" d="M2219.35 164.636 Q2217.55 169.266 2215.83 170.678 Q2214.12 172.09 2211.25 172.09 L2207.85 172.09 L2207.85 168.525 L2210.35 168.525 Q2212.11 168.525 2213.08 167.692 Q2214.05 166.858 2215.23 163.756 L2215.99 161.812 L2205.51 136.303 L2210.02 136.303 L2218.12 156.581 L2226.23 136.303 L2230.74 136.303 L2219.35 164.636 Z" fill="#000000" fill-rule="nonzero" fill-opacity="1" /><path clip-path="url(#clip590)" d="M2238.03 158.293 L2245.67 158.293 L2245.67 131.928 L2237.36 133.595 L2237.36 129.335 L2245.62 127.669 L2250.3 127.669 L2250.3 158.293 L2257.94 158.293 L2257.94 162.229 L2238.03 162.229 L2238.03 158.293 Z" fill="#000000" fill-rule="nonzero" fill-opacity="1" /><polyline clip-path="url(#clip590)" style="stroke:#e26f46; stroke-linecap:round; stroke-linejoin:round; stroke-width:16; stroke-opacity:1; fill:none" points="2039.58,196.789 2181.8,196.789 "/>
<path clip-path="url(#clip590)" d="M2219.35 216.476 Q2217.55 221.106 2215.83 222.518 Q2214.12 223.93 2211.25 223.93 L2207.85 223.93 L2207.85 220.365 L2210.35 220.365 Q2212.11 220.365 2213.08 219.532 Q2214.05 218.698 2215.23 215.596 L2215.99 213.652 L2205.51 188.143 L2210.02 188.143 L2218.12 208.421 L2226.23 188.143 L2230.74 188.143 L2219.35 216.476 Z" fill="#000000" fill-rule="nonzero" fill-opacity="1" /><path clip-path="url(#clip590)" d="M2241.25 210.133 L2257.57 210.133 L2257.57 214.069 L2235.62 214.069 L2235.62 210.133 Q2238.29 207.379 2242.87 202.749 Q2247.48 198.096 2248.66 196.754 Q2250.9 194.231 2251.78 192.495 Q2252.68 190.735 2252.68 189.046 Q2252.68 186.291 2250.74 184.555 Q2248.82 182.819 2245.72 182.819 Q2243.52 182.819 2241.06 183.583 Q2238.63 184.347 2235.86 185.897 L2235.86 181.175 Q2238.68 180.041 2241.13 179.462 Q2243.59 178.884 2245.62 178.884 Q2250.99 178.884 2254.19 181.569 Q2257.38 184.254 2257.38 188.745 Q2257.38 190.874 2256.57 192.796 Q2255.79 194.694 2253.68 197.286 Q2253.1 197.958 2250 201.175 Q2246.9 204.37 2241.25 210.133 Z" fill="#000000" fill-rule="nonzero" fill-opacity="1" /></svg>
