<?xml version="1.0" encoding="utf-8"?>
<svg xmlns="http://www.w3.org/2000/svg" xmlns:xlink="http://www.w3.org/1999/xlink" width="600" height="400" viewBox="0 0 2400 1600">
<defs>
  <clipPath id="clip740">
    <rect x="0" y="0" width="2400" height="1600"/>
  </clipPath>
</defs>
<path clip-path="url(#clip740)" d="M0 1600 L2400 1600 L2400 0 L0 0  Z" fill="#ffffff" fill-rule="evenodd" fill-opacity="1"/>
<defs>
  <clipPath id="clip741">
    <rect x="219" y="47" width="2134" height="1377"/>
  </clipPath>
</defs>
<path clip-path="url(#clip740)" d="M219.38 1423.18 L2352.76 1423.18 L2352.76 47.2441 L219.38 47.2441  Z" fill="#ffffff" fill-rule="evenodd" fill-opacity="1"/>
<polyline clip-path="url(#clip741)" style="stroke:#000000; stroke-linecap:round; stroke-linejoin:round; stroke-width:2; stroke-opacity:0.1; fill:none" points="336.72,1423.18 336.72,47.2441 "/>
<polyline clip-path="url(#clip741)" style="stroke:#000000; stroke-linecap:round; stroke-linejoin:round; stroke-width:2; stroke-opacity:0.1; fill:none" points="986.958,1423.18 986.958,47.2441 "/>
<polyline clip-path="url(#clip741)" style="stroke:#000000; stroke-linecap:round; stroke-linejoin:round; stroke-width:2; stroke-opacity:0.1; fill:none" points="1637.2,1423.18 1637.2,47.2441 "/>
<polyline clip-path="url(#clip741)" style="stroke:#000000; stroke-linecap:round; stroke-linejoin:round; stroke-width:2; stroke-opacity:0.1; fill:none" points="2287.44,1423.18 2287.44,47.2441 "/>
<polyline clip-path="url(#clip741)" style="stroke:#000000; stroke-linecap:round; stroke-linejoin:round; stroke-width:2; stroke-opacity:0.1; fill:none" points="219.38,1423.18 2352.76,1423.18 "/>
<polyline clip-path="url(#clip741)" style="stroke:#000000; stroke-linecap:round; stroke-linejoin:round; stroke-width:2; stroke-opacity:0.1; fill:none" points="219.38,1030.95 2352.76,1030.95 "/>
<polyline clip-path="url(#clip741)" style="stroke:#000000; stroke-linecap:round; stroke-linejoin:round; stroke-width:2; stroke-opacity:0.1; fill:none" points="219.38,638.724 2352.76,638.724 "/>
<polyline clip-path="url(#clip741)" style="stroke:#000000; stroke-linecap:round; stroke-linejoin:round; stroke-width:2; stroke-opacity:0.1; fill:none" points="219.38,246.496 2352.76,246.496 "/>
<polyline clip-path="url(#clip740)" style="stroke:#000000; stroke-linecap:round; stroke-linejoin:round; stroke-width:4; stroke-opacity:1; fill:none" points="219.38,1423.18 2352.76,1423.18 "/>
<polyline clip-path="url(#clip740)" style="stroke:#000000; stroke-linecap:round; stroke-linejoin:round; stroke-width:4; stroke-opacity:1; fill:none" points="336.72,1423.18 336.72,1404.28 "/>
<polyline clip-path="url(#clip740)" style="stroke:#000000; stroke-linecap:round; stroke-linejoin:round; stroke-width:4; stroke-opacity:1; fill:none" points="986.958,1423.18 986.958,1404.28 "/>
<polyline clip-path="url(#clip740)" style="stroke:#000000; stroke-linecap:round; stroke-linejoin:round; stroke-width:4; stroke-opacity:1; fill:none" points="1637.2,1423.18 1637.2,1404.28 "/>
<polyline clip-path="url(#clip740)" style="stroke:#000000; stroke-linecap:round; stroke-linejoin:round; stroke-width:4; stroke-opacity:1; fill:none" points="2287.44,1423.18 2287.44,1404.28 "/>
<path clip-path="url(#clip740)" d="M336.72 1454.1 Q333.109 1454.1 331.28 1457.66 Q329.474 1461.2 329.474 1468.33 Q329.474 1475.44 331.28 1479.01 Q333.109 1482.55 336.72 1482.55 Q340.354 1482.55 342.159 1479.01 Q343.988 1475.44 343.988 1468.33 Q343.988 1461.2 342.159 1457.66 Q340.354 1454.1 336.72 1454.1 M336.72 1450.39 Q342.53 1450.39 345.585 1455 Q348.664 1459.58 348.664 1468.33 Q348.664 1477.06 345.585 1481.67 Q342.53 1486.25 336.72 1486.25 Q330.909 1486.25 327.831 1481.67 Q324.775 1477.06 324.775 1468.33 Q324.775 1459.58 327.831 1455 Q330.909 1450.39 336.72 1450.39 Z" fill="#000000" fill-rule="nonzero" fill-opacity="1" /><path clip-path="url(#clip740)" d="M977.236 1451.02 L995.592 1451.02 L995.592 1454.96 L981.518 1454.96 L981.518 1463.43 Q982.537 1463.08 983.555 1462.92 Q984.574 1462.73 985.593 1462.73 Q991.38 1462.73 994.759 1465.9 Q998.139 1469.08 998.139 1474.49 Q998.139 1480.07 994.667 1483.17 Q991.194 1486.25 984.875 1486.25 Q982.699 1486.25 980.431 1485.88 Q978.185 1485.51 975.778 1484.77 L975.778 1480.07 Q977.861 1481.2 980.083 1481.76 Q982.306 1482.32 984.782 1482.32 Q988.787 1482.32 991.125 1480.21 Q993.463 1478.1 993.463 1474.49 Q993.463 1470.88 991.125 1468.77 Q988.787 1466.67 984.782 1466.67 Q982.907 1466.67 981.032 1467.08 Q979.181 1467.5 977.236 1468.38 L977.236 1451.02 Z" fill="#000000" fill-rule="nonzero" fill-opacity="1" /><path clip-path="url(#clip740)" d="M1611.88 1481.64 L1619.52 1481.64 L1619.52 1455.28 L1611.21 1456.95 L1611.21 1452.69 L1619.48 1451.02 L1624.15 1451.02 L1624.15 1481.64 L1631.79 1481.64 L1631.79 1485.58 L1611.88 1485.58 L1611.88 1481.64 Z" fill="#000000" fill-rule="nonzero" fill-opacity="1" /><path clip-path="url(#clip740)" d="M1651.24 1454.1 Q1647.63 1454.1 1645.8 1457.66 Q1643.99 1461.2 1643.99 1468.33 Q1643.99 1475.44 1645.8 1479.01 Q1647.63 1482.55 1651.24 1482.55 Q1654.87 1482.55 1656.68 1479.01 Q1658.5 1475.44 1658.5 1468.33 Q1658.5 1461.2 1656.68 1457.66 Q1654.87 1454.1 1651.24 1454.1 M1651.24 1450.39 Q1657.05 1450.39 1660.1 1455 Q1663.18 1459.58 1663.18 1468.33 Q1663.18 1477.06 1660.1 1481.67 Q1657.05 1486.25 1651.24 1486.25 Q1645.43 1486.25 1642.35 1481.67 Q1639.29 1477.06 1639.29 1468.33 Q1639.29 1459.58 1642.35 1455 Q1645.43 1450.39 1651.24 1450.39 Z" fill="#000000" fill-rule="nonzero" fill-opacity="1" /><path clip-path="url(#clip740)" d="M2262.62 1481.64 L2270.26 1481.64 L2270.26 1455.28 L2261.95 1456.95 L2261.95 1452.69 L2270.21 1451.02 L2274.89 1451.02 L2274.89 1481.64 L2282.53 1481.64 L2282.53 1485.58 L2262.62 1485.58 L2262.62 1481.64 Z" fill="#000000" fill-rule="nonzero" fill-opacity="1" /><path clip-path="url(#clip740)" d="M2292.02 1451.02 L2310.38 1451.02 L2310.38 1454.96 L2296.3 1454.96 L2296.3 1463.43 Q2297.32 1463.08 2298.34 1462.92 Q2299.36 1462.73 2300.38 1462.73 Q2306.16 1462.73 2309.54 1465.9 Q2312.92 1469.08 2312.92 1474.49 Q2312.92 1480.07 2309.45 1483.17 Q2305.98 1486.25 2299.66 1486.25 Q2297.48 1486.25 2295.21 1485.88 Q2292.97 1485.51 2290.56 1484.77 L2290.56 1480.07 Q2292.64 1481.2 2294.87 1481.76 Q2297.09 1482.32 2299.57 1482.32 Q2303.57 1482.32 2305.91 1480.21 Q2308.25 1478.1 2308.25 1474.49 Q2308.25 1470.88 2305.91 1468.77 Q2303.57 1466.67 2299.57 1466.67 Q2297.69 1466.67 2295.82 1467.08 Q2293.96 1467.5 2292.02 1468.38 L2292.02 1451.02 Z" fill="#000000" fill-rule="nonzero" fill-opacity="1" /><path clip-path="url(#clip740)" d="M1285.13 1522.27 L1285.13 1532.4 L1297.19 1532.4 L1297.19 1536.95 L1285.13 1536.95 L1285.13 1556.3 Q1285.13 1560.66 1286.31 1561.9 Q1287.52 1563.14 1291.18 1563.14 L1297.19 1563.14 L1297.19 1568.04 L1291.18 1568.04 Q1284.4 1568.04 1281.82 1565.53 Q1279.24 1562.98 1279.24 1556.3 L1279.24 1536.95 L1274.94 1536.95 L1274.94 1532.4 L1279.24 1532.4 L1279.24 1522.27 L1285.13 1522.27 Z" fill="#000000" fill-rule="nonzero" fill-opacity="1" /><polyline clip-path="url(#clip740)" style="stroke:#000000; stroke-linecap:round; stroke-linejoin:round; stroke-width:4; stroke-opacity:1; fill:none" points="219.38,1423.18 219.38,47.2441 "/>
<polyline clip-path="url(#clip740)" style="stroke:#000000; stroke-linecap:round; stroke-linejoin:round; stroke-width:4; stroke-opacity:1; fill:none" points="219.38,1423.18 238.278,1423.18 "/>
<polyline clip-path="url(#clip740)" style="stroke:#000000; stroke-linecap:round; stroke-linejoin:round; stroke-width:4; stroke-opacity:1; fill:none" points="219.38,1030.95 238.278,1030.95 "/>
<polyline clip-path="url(#clip740)" style="stroke:#000000; stroke-linecap:round; stroke-linejoin:round; stroke-width:4; stroke-opacity:1; fill:none" points="219.38,638.724 238.278,638.724 "/>
<polyline clip-path="url(#clip740)" style="stroke:#000000; stroke-linecap:round; stroke-linejoin:round; stroke-width:4; stroke-opacity:1; fill:none" points="219.38,246.496 238.278,246.496 "/>
<path clip-path="url(#clip740)" d="M126.205 1408.98 Q122.593 1408.98 120.765 1412.54 Q118.959 1416.08 118.959 1423.21 Q118.959 1430.32 120.765 1433.89 Q122.593 1437.43 126.205 1437.43 Q129.839 1437.43 131.644 1433.89 Q133.473 1430.32 133.473 1423.21 Q133.473 1416.08 131.644 1412.54 Q129.839 1408.98 126.205 1408.98 M126.205 1405.27 Q132.015 1405.27 135.07 1409.88 Q138.149 1414.46 138.149 1423.21 Q138.149 1431.94 135.07 1436.55 Q132.015 1441.13 126.205 1441.13 Q120.394 1441.13 117.316 1436.55 Q114.26 1431.94 114.26 1423.21 Q114.26 1414.46 117.316 1409.88 Q120.394 1405.27 126.205 1405.27 Z" fill="#000000" fill-rule="nonzero" fill-opacity="1" /><path clip-path="url(#clip740)" d="M146.366 1434.58 L151.251 1434.58 L151.251 1440.46 L146.366 1440.46 L146.366 1434.58 Z" fill="#000000" fill-rule="nonzero" fill-opacity="1" /><path clip-path="url(#clip740)" d="M171.436 1408.98 Q167.825 1408.98 165.996 1412.54 Q164.19 1416.08 164.19 1423.21 Q164.19 1430.32 165.996 1433.89 Q167.825 1437.43 171.436 1437.43 Q175.07 1437.43 176.876 1433.89 Q178.704 1430.32 178.704 1423.21 Q178.704 1416.08 176.876 1412.54 Q175.07 1408.98 171.436 1408.98 M171.436 1405.27 Q177.246 1405.27 180.301 1409.88 Q183.38 1414.46 183.38 1423.21 Q183.38 1431.94 180.301 1436.55 Q177.246 1441.13 171.436 1441.13 Q165.626 1441.13 162.547 1436.55 Q159.491 1431.94 159.491 1423.21 Q159.491 1414.46 162.547 1409.88 Q165.626 1405.27 171.436 1405.27 Z" fill="#000000" fill-rule="nonzero" fill-opacity="1" /><path clip-path="url(#clip740)" d="M127.2 1016.75 Q123.589 1016.75 121.76 1020.32 Q119.955 1023.86 119.955 1030.99 Q119.955 1038.09 121.76 1041.66 Q123.589 1045.2 127.2 1045.2 Q130.834 1045.2 132.64 1041.66 Q134.468 1038.09 134.468 1030.99 Q134.468 1023.86 132.64 1020.32 Q130.834 1016.75 127.2 1016.75 M127.2 1013.05 Q133.01 1013.05 136.066 1017.65 Q139.144 1022.24 139.144 1030.99 Q139.144 1039.71 136.066 1044.32 Q133.01 1048.9 127.2 1048.9 Q121.39 1048.9 118.311 1044.32 Q115.256 1039.71 115.256 1030.99 Q115.256 1022.24 118.311 1017.65 Q121.39 1013.05 127.2 1013.05 Z" fill="#000000" fill-rule="nonzero" fill-opacity="1" /><path clip-path="url(#clip740)" d="M147.362 1042.35 L152.246 1042.35 L152.246 1048.23 L147.362 1048.23 L147.362 1042.35 Z" fill="#000000" fill-rule="nonzero" fill-opacity="1" /><path clip-path="url(#clip740)" d="M162.477 1013.67 L180.834 1013.67 L180.834 1017.61 L166.76 1017.61 L166.76 1026.08 Q167.778 1025.73 168.797 1025.57 Q169.815 1025.38 170.834 1025.38 Q176.621 1025.38 180.001 1028.56 Q183.38 1031.73 183.38 1037.14 Q183.38 1042.72 179.908 1045.82 Q176.436 1048.9 170.116 1048.9 Q167.94 1048.9 165.672 1048.53 Q163.427 1048.16 161.019 1047.42 L161.019 1042.72 Q163.102 1043.86 165.325 1044.41 Q167.547 1044.97 170.024 1044.97 Q174.028 1044.97 176.366 1042.86 Q178.704 1040.76 178.704 1037.14 Q178.704 1033.53 176.366 1031.43 Q174.028 1029.32 170.024 1029.32 Q168.149 1029.32 166.274 1029.74 Q164.422 1030.15 162.477 1031.03 L162.477 1013.67 Z" fill="#000000" fill-rule="nonzero" fill-opacity="1" /><path clip-path="url(#clip740)" d="M117.015 652.069 L124.654 652.069 L124.654 625.703 L116.343 627.37 L116.343 623.111 L124.607 621.444 L129.283 621.444 L129.283 652.069 L136.922 652.069 L136.922 656.004 L117.015 656.004 L117.015 652.069 Z" fill="#000000" fill-rule="nonzero" fill-opacity="1" /><path clip-path="url(#clip740)" d="M146.366 650.124 L151.251 650.124 L151.251 656.004 L146.366 656.004 L146.366 650.124 Z" fill="#000000" fill-rule="nonzero" fill-opacity="1" /><path clip-path="url(#clip740)" d="M171.436 624.523 Q167.825 624.523 165.996 628.087 Q164.19 631.629 164.19 638.759 Q164.19 645.865 165.996 649.43 Q167.825 652.971 171.436 652.971 Q175.07 652.971 176.876 649.43 Q178.704 645.865 178.704 638.759 Q178.704 631.629 176.876 628.087 Q175.07 624.523 171.436 624.523 M171.436 620.819 Q177.246 620.819 180.301 625.425 Q183.38 630.009 183.38 638.759 Q183.38 647.485 180.301 652.092 Q177.246 656.675 171.436 656.675 Q165.626 656.675 162.547 652.092 Q159.491 647.485 159.491 638.759 Q159.491 630.009 162.547 625.425 Q165.626 620.819 171.436 620.819 Z" fill="#000000" fill-rule="nonzero" fill-opacity="1" /><path clip-path="url(#clip740)" d="M118.01 259.841 L125.649 259.841 L125.649 233.475 L117.339 235.142 L117.339 230.883 L125.603 229.216 L130.279 229.216 L130.279 259.841 L137.917 259.841 L137.917 263.776 L118.01 263.776 L118.01 259.841 Z" fill="#000000" fill-rule="nonzero" fill-opacity="1" /><path clip-path="url(#clip740)" d="M147.362 257.896 L152.246 257.896 L152.246 263.776 L147.362 263.776 L147.362 257.896 Z" fill="#000000" fill-rule="nonzero" fill-opacity="1" /><path clip-path="url(#clip740)" d="M162.477 229.216 L180.834 229.216 L180.834 233.151 L166.76 233.151 L166.76 241.623 Q167.778 241.276 168.797 241.114 Q169.815 240.929 170.834 240.929 Q176.621 240.929 180.001 244.1 Q183.38 247.271 183.38 252.688 Q183.38 258.267 179.908 261.369 Q176.436 264.447 170.116 264.447 Q167.94 264.447 165.672 264.077 Q163.427 263.706 161.019 262.966 L161.019 258.267 Q163.102 259.401 165.325 259.956 Q167.547 260.512 170.024 260.512 Q174.028 260.512 176.366 258.406 Q178.704 256.299 178.704 252.688 Q178.704 249.077 176.366 246.97 Q174.028 244.864 170.024 244.864 Q168.149 244.864 166.274 245.281 Q164.422 245.697 162.477 246.577 L162.477 229.216 Z" fill="#000000" fill-rule="nonzero" fill-opacity="1" /><path clip-path="url(#clip740)" d="M33.8307 800.206 Q33.2578 801.193 33.0032 802.37 Q32.7167 803.516 32.7167 804.916 Q32.7167 809.882 35.9632 812.555 Q39.1779 815.197 45.2253 815.197 L64.0042 815.197 L64.0042 821.085 L28.3562 821.085 L28.3562 815.197 L33.8944 815.197 Q30.6479 813.351 29.0883 810.391 Q27.4968 807.431 27.4968 803.198 Q27.4968 802.593 27.5923 801.861 Q27.656 801.129 27.8151 800.238 L33.8307 800.206 Z" fill="#000000" fill-rule="nonzero" fill-opacity="1" /><path clip-path="url(#clip740)" d="M42.4881 765.576 L64.0042 765.576 L64.0042 771.433 L42.679 771.433 Q37.6183 771.433 35.1038 773.406 Q32.5894 775.38 32.5894 779.326 Q32.5894 784.069 35.6131 786.806 Q38.6368 789.543 43.8567 789.543 L64.0042 789.543 L64.0042 795.432 L14.479 795.432 L14.479 789.543 L33.8944 789.543 Q30.6797 787.443 29.0883 784.61 Q27.4968 781.745 27.4968 778.021 Q27.4968 771.878 31.3163 768.727 Q35.1038 765.576 42.4881 765.576 Z" fill="#000000" fill-rule="nonzero" fill-opacity="1" /><path clip-path="url(#clip740)" d="M32.4621 740.082 Q32.4621 744.792 36.1542 747.53 Q39.8145 750.267 46.212 750.267 Q52.6095 750.267 56.3017 747.561 Q59.9619 744.824 59.9619 740.082 Q59.9619 735.403 56.2698 732.666 Q52.5777 729.928 46.212 729.928 Q39.8781 729.928 36.186 732.666 Q32.4621 735.403 32.4621 740.082 M27.4968 740.082 Q27.4968 732.443 32.4621 728.082 Q37.4273 723.722 46.212 723.722 Q54.9649 723.722 59.9619 728.082 Q64.9272 732.443 64.9272 740.082 Q64.9272 747.752 59.9619 752.113 Q54.9649 756.442 46.212 756.442 Q37.4273 756.442 32.4621 752.113 Q27.4968 747.752 27.4968 740.082 Z" fill="#000000" fill-rule="nonzero" fill-opacity="1" /><path clip-path="url(#clip740)" d="M14.5426 699.946 Q21.8632 704.211 29.0246 706.28 Q36.186 708.349 43.5384 708.349 Q50.8908 708.349 58.1159 706.28 Q65.3091 704.179 72.5979 699.946 L72.5979 705.039 Q65.1182 709.813 57.8931 712.2 Q50.668 714.555 43.5384 714.555 Q36.4406 714.555 29.2474 712.2 Q22.0542 709.845 14.5426 705.039 L14.5426 699.946 Z" fill="#000000" fill-rule="nonzero" fill-opacity="1" /><path clip-path="url(#clip740)" d="M18.2347 682.79 L28.3562 682.79 L28.3562 670.727 L32.9077 670.727 L32.9077 682.79 L52.2594 682.79 Q56.6199 682.79 57.8613 681.613 Q59.1026 680.403 59.1026 676.743 L59.1026 670.727 L64.0042 670.727 L64.0042 676.743 Q64.0042 683.522 61.4897 686.101 Q58.9434 688.679 52.2594 688.679 L32.9077 688.679 L32.9077 692.976 L28.3562 692.976 L28.3562 688.679 L18.2347 688.679 L18.2347 682.79 Z" fill="#000000" fill-rule="nonzero" fill-opacity="1" /><path clip-path="url(#clip740)" d="M14.5426 663.948 L14.5426 658.855 Q22.0542 654.081 29.2474 651.726 Q36.4406 649.339 43.5384 649.339 Q50.668 649.339 57.8931 651.726 Q65.1182 654.081 72.5979 658.855 L72.5979 663.948 Q65.3091 659.715 58.1159 657.646 Q50.8908 655.545 43.5384 655.545 Q36.186 655.545 29.0246 657.646 Q21.8632 659.715 14.5426 663.948 Z" fill="#000000" fill-rule="nonzero" fill-opacity="1" /><path clip-path="url(#clip741)" d="M336.72 47.2441 L336.72 1423.18 L362.729 1423.18 L362.729 47.2441 L336.72 47.2441 L336.72 47.2441  Z" fill="#009af9" fill-rule="evenodd" fill-opacity="1"/>
<polyline clip-path="url(#clip741)" style="stroke:#000000; stroke-linecap:round; stroke-linejoin:round; stroke-width:4; stroke-opacity:1; fill:none" points="336.72,47.2441 336.72,1423.18 362.729,1423.18 362.729,47.2441 336.72,47.2441 "/>
<path clip-path="url(#clip741)" d="M362.729 919.951 L362.729 1423.18 L388.739 1423.18 L388.739 919.951 L362.729 919.951 L362.729 919.951  Z" fill="#009af9" fill-rule="evenodd" fill-opacity="1"/>
<polyline clip-path="url(#clip741)" style="stroke:#000000; stroke-linecap:round; stroke-linejoin:round; stroke-width:4; stroke-opacity:1; fill:none" points="362.729,919.951 362.729,1423.18 388.739,1423.18 388.739,919.951 362.729,919.951 "/>
<path clip-path="url(#clip741)" d="M388.739 1090.96 L388.739 1423.18 L414.748 1423.18 L414.748 1090.96 L388.739 1090.96 L388.739 1090.96  Z" fill="#009af9" fill-rule="evenodd" fill-opacity="1"/>
<polyline clip-path="url(#clip741)" style="stroke:#000000; stroke-linecap:round; stroke-linejoin:round; stroke-width:4; stroke-opacity:1; fill:none" points="388.739,1090.96 388.739,1423.18 414.748,1423.18 414.748,1090.96 388.739,1090.96 "/>
<path clip-path="url(#clip741)" d="M414.748 1178.04 L414.748 1423.18 L440.758 1423.18 L440.758 1178.04 L414.748 1178.04 L414.748 1178.04  Z" fill="#009af9" fill-rule="evenodd" fill-opacity="1"/>
<polyline clip-path="url(#clip741)" style="stroke:#000000; stroke-linecap:round; stroke-linejoin:round; stroke-width:4; stroke-opacity:1; fill:none" points="414.748,1178.04 414.748,1423.18 440.758,1423.18 440.758,1178.04 414.748,1178.04 "/>
<path clip-path="url(#clip741)" d="M440.758 1205.89 L440.758 1423.18 L466.767 1423.18 L466.767 1205.89 L440.758 1205.89 L440.758 1205.89  Z" fill="#009af9" fill-rule="evenodd" fill-opacity="1"/>
<polyline clip-path="url(#clip741)" style="stroke:#000000; stroke-linecap:round; stroke-linejoin:round; stroke-width:4; stroke-opacity:1; fill:none" points="440.758,1205.89 440.758,1423.18 466.767,1423.18 466.767,1205.89 440.758,1205.89 "/>
<path clip-path="url(#clip741)" d="M466.767 1255.31 L466.767 1423.18 L492.777 1423.18 L492.777 1255.31 L466.767 1255.31 L466.767 1255.31  Z" fill="#009af9" fill-rule="evenodd" fill-opacity="1"/>
<polyline clip-path="url(#clip741)" style="stroke:#000000; stroke-linecap:round; stroke-linejoin:round; stroke-width:4; stroke-opacity:1; fill:none" points="466.767,1255.31 466.767,1423.18 492.777,1423.18 492.777,1255.31 466.767,1255.31 "/>
<path clip-path="url(#clip741)" d="M492.777 1275.7 L492.777 1423.18 L518.786 1423.18 L518.786 1275.7 L492.777 1275.7 L492.777 1275.7  Z" fill="#009af9" fill-rule="evenodd" fill-opacity="1"/>
<polyline clip-path="url(#clip741)" style="stroke:#000000; stroke-linecap:round; stroke-linejoin:round; stroke-width:4; stroke-opacity:1; fill:none" points="492.777,1275.7 492.777,1423.18 518.786,1423.18 518.786,1275.7 492.777,1275.7 "/>
<path clip-path="url(#clip741)" d="M518.786 1310.61 L518.786 1423.18 L544.796 1423.18 L544.796 1310.61 L518.786 1310.61 L518.786 1310.61  Z" fill="#009af9" fill-rule="evenodd" fill-opacity="1"/>
<polyline clip-path="url(#clip741)" style="stroke:#000000; stroke-linecap:round; stroke-linejoin:round; stroke-width:4; stroke-opacity:1; fill:none" points="518.786,1310.61 518.786,1423.18 544.796,1423.18 544.796,1310.61 518.786,1310.61 "/>
<path clip-path="url(#clip741)" d="M544.796 1315.32 L544.796 1423.18 L570.806 1423.18 L570.806 1315.32 L544.796 1315.32 L544.796 1315.32  Z" fill="#009af9" fill-rule="evenodd" fill-opacity="1"/>
<polyline clip-path="url(#clip741)" style="stroke:#000000; stroke-linecap:round; stroke-linejoin:round; stroke-width:4; stroke-opacity:1; fill:none" points="544.796,1315.32 544.796,1423.18 570.806,1423.18 570.806,1315.32 544.796,1315.32 "/>
<path clip-path="url(#clip741)" d="M570.806 1337.28 L570.806 1423.18 L596.815 1423.18 L596.815 1337.28 L570.806 1337.28 L570.806 1337.28  Z" fill="#009af9" fill-rule="evenodd" fill-opacity="1"/>
<polyline clip-path="url(#clip741)" style="stroke:#000000; stroke-linecap:round; stroke-linejoin:round; stroke-width:4; stroke-opacity:1; fill:none" points="570.806,1337.28 570.806,1423.18 596.815,1423.18 596.815,1337.28 570.806,1337.28 "/>
<path clip-path="url(#clip741)" d="M596.815 1341.2 L596.815 1423.18 L622.825 1423.18 L622.825 1341.2 L596.815 1341.2 L596.815 1341.2  Z" fill="#009af9" fill-rule="evenodd" fill-opacity="1"/>
<polyline clip-path="url(#clip741)" style="stroke:#000000; stroke-linecap:round; stroke-linejoin:round; stroke-width:4; stroke-opacity:1; fill:none" points="596.815,1341.2 596.815,1423.18 622.825,1423.18 622.825,1341.2 596.815,1341.2 "/>
<path clip-path="url(#clip741)" d="M622.825 1363.17 L622.825 1423.18 L648.834 1423.18 L648.834 1363.17 L622.825 1363.17 L622.825 1363.17  Z" fill="#009af9" fill-rule="evenodd" fill-opacity="1"/>
<polyline clip-path="url(#clip741)" style="stroke:#000000; stroke-linecap:round; stroke-linejoin:round; stroke-width:4; stroke-opacity:1; fill:none" points="622.825,1363.17 622.825,1423.18 648.834,1423.18 648.834,1363.17 622.825,1363.17 "/>
<path clip-path="url(#clip741)" d="M648.834 1369.84 L648.834 1423.18 L674.844 1423.18 L674.844 1369.84 L648.834 1369.84 L648.834 1369.84  Z" fill="#009af9" fill-rule="evenodd" fill-opacity="1"/>
<polyline clip-path="url(#clip741)" style="stroke:#000000; stroke-linecap:round; stroke-linejoin:round; stroke-width:4; stroke-opacity:1; fill:none" points="648.834,1369.84 648.834,1423.18 674.844,1423.18 674.844,1369.84 648.834,1369.84 "/>
<path clip-path="url(#clip741)" d="M674.844 1377.68 L674.844 1423.18 L700.853 1423.18 L700.853 1377.68 L674.844 1377.68 L674.844 1377.68  Z" fill="#009af9" fill-rule="evenodd" fill-opacity="1"/>
<polyline clip-path="url(#clip741)" style="stroke:#000000; stroke-linecap:round; stroke-linejoin:round; stroke-width:4; stroke-opacity:1; fill:none" points="674.844,1377.68 674.844,1423.18 700.853,1423.18 700.853,1377.68 674.844,1377.68 "/>
<path clip-path="url(#clip741)" d="M700.853 1381.6 L700.853 1423.18 L726.863 1423.18 L726.863 1381.6 L700.853 1381.6 L700.853 1381.6  Z" fill="#009af9" fill-rule="evenodd" fill-opacity="1"/>
<polyline clip-path="url(#clip741)" style="stroke:#000000; stroke-linecap:round; stroke-linejoin:round; stroke-width:4; stroke-opacity:1; fill:none" points="700.853,1381.6 700.853,1423.18 726.863,1423.18 726.863,1381.6 700.853,1381.6 "/>
<path clip-path="url(#clip741)" d="M726.863 1373.76 L726.863 1423.18 L752.872 1423.18 L752.872 1373.76 L726.863 1373.76 L726.863 1373.76  Z" fill="#009af9" fill-rule="evenodd" fill-opacity="1"/>
<polyline clip-path="url(#clip741)" style="stroke:#000000; stroke-linecap:round; stroke-linejoin:round; stroke-width:4; stroke-opacity:1; fill:none" points="726.863,1373.76 726.863,1423.18 752.872,1423.18 752.872,1373.76 726.863,1373.76 "/>
<path clip-path="url(#clip741)" d="M752.872 1388.27 L752.872 1423.18 L778.882 1423.18 L778.882 1388.27 L752.872 1388.27 L752.872 1388.27  Z" fill="#009af9" fill-rule="evenodd" fill-opacity="1"/>
<polyline clip-path="url(#clip741)" style="stroke:#000000; stroke-linecap:round; stroke-linejoin:round; stroke-width:4; stroke-opacity:1; fill:none" points="752.872,1388.27 752.872,1423.18 778.882,1423.18 778.882,1388.27 752.872,1388.27 "/>
<path clip-path="url(#clip741)" d="M778.882 1385.13 L778.882 1423.18 L804.891 1423.18 L804.891 1385.13 L778.882 1385.13 L778.882 1385.13  Z" fill="#009af9" fill-rule="evenodd" fill-opacity="1"/>
<polyline clip-path="url(#clip741)" style="stroke:#000000; stroke-linecap:round; stroke-linejoin:round; stroke-width:4; stroke-opacity:1; fill:none" points="778.882,1385.13 778.882,1423.18 804.891,1423.18 804.891,1385.13 778.882,1385.13 "/>
<path clip-path="url(#clip741)" d="M804.891 1401.22 L804.891 1423.18 L830.901 1423.18 L830.901 1401.22 L804.891 1401.22 L804.891 1401.22  Z" fill="#009af9" fill-rule="evenodd" fill-opacity="1"/>
<polyline clip-path="url(#clip741)" style="stroke:#000000; stroke-linecap:round; stroke-linejoin:round; stroke-width:4; stroke-opacity:1; fill:none" points="804.891,1401.22 804.891,1423.18 830.901,1423.18 830.901,1401.22 804.891,1401.22 "/>
<path clip-path="url(#clip741)" d="M830.901 1397.29 L830.901 1423.18 L856.911 1423.18 L856.911 1397.29 L830.901 1397.29 L830.901 1397.29  Z" fill="#009af9" fill-rule="evenodd" fill-opacity="1"/>
<polyline clip-path="url(#clip741)" style="stroke:#000000; stroke-linecap:round; stroke-linejoin:round; stroke-width:4; stroke-opacity:1; fill:none" points="830.901,1397.29 830.901,1423.18 856.911,1423.18 856.911,1397.29 830.901,1397.29 "/>
<path clip-path="url(#clip741)" d="M856.911 1407.88 L856.911 1423.18 L882.92 1423.18 L882.92 1407.88 L856.911 1407.88 L856.911 1407.88  Z" fill="#009af9" fill-rule="evenodd" fill-opacity="1"/>
<polyline clip-path="url(#clip741)" style="stroke:#000000; stroke-linecap:round; stroke-linejoin:round; stroke-width:4; stroke-opacity:1; fill:none" points="856.911,1407.88 856.911,1423.18 882.92,1423.18 882.92,1407.88 856.911,1407.88 "/>
<path clip-path="url(#clip741)" d="M882.92 1405.53 L882.92 1423.18 L908.93 1423.18 L908.93 1405.53 L882.92 1405.53 L882.92 1405.53  Z" fill="#009af9" fill-rule="evenodd" fill-opacity="1"/>
<polyline clip-path="url(#clip741)" style="stroke:#000000; stroke-linecap:round; stroke-linejoin:round; stroke-width:4; stroke-opacity:1; fill:none" points="882.92,1405.53 882.92,1423.18 908.93,1423.18 908.93,1405.53 882.92,1405.53 "/>
<path clip-path="url(#clip741)" d="M908.93 1407.49 L908.93 1423.18 L934.939 1423.18 L934.939 1407.49 L908.93 1407.49 L908.93 1407.49  Z" fill="#009af9" fill-rule="evenodd" fill-opacity="1"/>
<polyline clip-path="url(#clip741)" style="stroke:#000000; stroke-linecap:round; stroke-linejoin:round; stroke-width:4; stroke-opacity:1; fill:none" points="908.93,1407.49 908.93,1423.18 934.939,1423.18 934.939,1407.49 908.93,1407.49 "/>
<path clip-path="url(#clip741)" d="M934.939 1409.06 L934.939 1423.18 L960.949 1423.18 L960.949 1409.06 L934.939 1409.06 L934.939 1409.06  Z" fill="#009af9" fill-rule="evenodd" fill-opacity="1"/>
<polyline clip-path="url(#clip741)" style="stroke:#000000; stroke-linecap:round; stroke-linejoin:round; stroke-width:4; stroke-opacity:1; fill:none" points="934.939,1409.06 934.939,1423.18 960.949,1423.18 960.949,1409.06 934.939,1409.06 "/>
<path clip-path="url(#clip741)" d="M960.949 1407.49 L960.949 1423.18 L986.958 1423.18 L986.958 1407.49 L960.949 1407.49 L960.949 1407.49  Z" fill="#009af9" fill-rule="evenodd" fill-opacity="1"/>
<polyline clip-path="url(#clip741)" style="stroke:#000000; stroke-linecap:round; stroke-linejoin:round; stroke-width:4; stroke-opacity:1; fill:none" points="960.949,1407.49 960.949,1423.18 986.958,1423.18 986.958,1407.49 960.949,1407.49 "/>
<path clip-path="url(#clip741)" d="M986.958 1414.16 L986.958 1423.18 L1012.97 1423.18 L1012.97 1414.16 L986.958 1414.16 L986.958 1414.16  Z" fill="#009af9" fill-rule="evenodd" fill-opacity="1"/>
<polyline clip-path="url(#clip741)" style="stroke:#000000; stroke-linecap:round; stroke-linejoin:round; stroke-width:4; stroke-opacity:1; fill:none" points="986.958,1414.16 986.958,1423.18 1012.97,1423.18 1012.97,1414.16 986.958,1414.16 "/>
<path clip-path="url(#clip741)" d="M1012.97 1412.98 L1012.97 1423.18 L1038.98 1423.18 L1038.98 1412.98 L1012.97 1412.98 L1012.97 1412.98  Z" fill="#009af9" fill-rule="evenodd" fill-opacity="1"/>
<polyline clip-path="url(#clip741)" style="stroke:#000000; stroke-linecap:round; stroke-linejoin:round; stroke-width:4; stroke-opacity:1; fill:none" points="1012.97,1412.98 1012.97,1423.18 1038.98,1423.18 1038.98,1412.98 1012.97,1412.98 "/>
<path clip-path="url(#clip741)" d="M1038.98 1416.51 L1038.98 1423.18 L1064.99 1423.18 L1064.99 1416.51 L1038.98 1416.51 L1038.98 1416.51  Z" fill="#009af9" fill-rule="evenodd" fill-opacity="1"/>
<polyline clip-path="url(#clip741)" style="stroke:#000000; stroke-linecap:round; stroke-linejoin:round; stroke-width:4; stroke-opacity:1; fill:none" points="1038.98,1416.51 1038.98,1423.18 1064.99,1423.18 1064.99,1416.51 1038.98,1416.51 "/>
<path clip-path="url(#clip741)" d="M1064.99 1417.3 L1064.99 1423.18 L1091 1423.18 L1091 1417.3 L1064.99 1417.3 L1064.99 1417.3  Z" fill="#009af9" fill-rule="evenodd" fill-opacity="1"/>
<polyline clip-path="url(#clip741)" style="stroke:#000000; stroke-linecap:round; stroke-linejoin:round; stroke-width:4; stroke-opacity:1; fill:none" points="1064.99,1417.3 1064.99,1423.18 1091,1423.18 1091,1417.3 1064.99,1417.3 "/>
<path clip-path="url(#clip741)" d="M1091 1416.12 L1091 1423.18 L1117.01 1423.18 L1117.01 1416.12 L1091 1416.12 L1091 1416.12  Z" fill="#009af9" fill-rule="evenodd" fill-opacity="1"/>
<polyline clip-path="url(#clip741)" style="stroke:#000000; stroke-linecap:round; stroke-linejoin:round; stroke-width:4; stroke-opacity:1; fill:none" points="1091,1416.12 1091,1423.18 1117.01,1423.18 1117.01,1416.12 1091,1416.12 "/>
<path clip-path="url(#clip741)" d="M1117.01 1417.3 L1117.01 1423.18 L1143.02 1423.18 L1143.02 1417.3 L1117.01 1417.3 L1117.01 1417.3  Z" fill="#009af9" fill-rule="evenodd" fill-opacity="1"/>
<polyline clip-path="url(#clip741)" style="stroke:#000000; stroke-linecap:round; stroke-linejoin:round; stroke-width:4; stroke-opacity:1; fill:none" points="1117.01,1417.3 1117.01,1423.18 1143.02,1423.18 1143.02,1417.3 1117.01,1417.3 "/>
<path clip-path="url(#clip741)" d="M1143.02 1415.73 L1143.02 1423.18 L1169.03 1423.18 L1169.03 1415.73 L1143.02 1415.73 L1143.02 1415.73  Z" fill="#009af9" fill-rule="evenodd" fill-opacity="1"/>
<polyline clip-path="url(#clip741)" style="stroke:#000000; stroke-linecap:round; stroke-linejoin:round; stroke-width:4; stroke-opacity:1; fill:none" points="1143.02,1415.73 1143.02,1423.18 1169.03,1423.18 1169.03,1415.73 1143.02,1415.73 "/>
<path clip-path="url(#clip741)" d="M1169.03 1418.47 L1169.03 1423.18 L1195.03 1423.18 L1195.03 1418.47 L1169.03 1418.47 L1169.03 1418.47  Z" fill="#009af9" fill-rule="evenodd" fill-opacity="1"/>
<polyline clip-path="url(#clip741)" style="stroke:#000000; stroke-linecap:round; stroke-linejoin:round; stroke-width:4; stroke-opacity:1; fill:none" points="1169.03,1418.47 1169.03,1423.18 1195.03,1423.18 1195.03,1418.47 1169.03,1418.47 "/>
<path clip-path="url(#clip741)" d="M1195.03 1417.3 L1195.03 1423.18 L1221.04 1423.18 L1221.04 1417.3 L1195.03 1417.3 L1195.03 1417.3  Z" fill="#009af9" fill-rule="evenodd" fill-opacity="1"/>
<polyline clip-path="url(#clip741)" style="stroke:#000000; stroke-linecap:round; stroke-linejoin:round; stroke-width:4; stroke-opacity:1; fill:none" points="1195.03,1417.3 1195.03,1423.18 1221.04,1423.18 1221.04,1417.3 1195.03,1417.3 "/>
<path clip-path="url(#clip741)" d="M1221.04 1419.26 L1221.04 1423.18 L1247.05 1423.18 L1247.05 1419.26 L1221.04 1419.26 L1221.04 1419.26  Z" fill="#009af9" fill-rule="evenodd" fill-opacity="1"/>
<polyline clip-path="url(#clip741)" style="stroke:#000000; stroke-linecap:round; stroke-linejoin:round; stroke-width:4; stroke-opacity:1; fill:none" points="1221.04,1419.26 1221.04,1423.18 1247.05,1423.18 1247.05,1419.26 1221.04,1419.26 "/>
<path clip-path="url(#clip741)" d="M1247.05 1418.87 L1247.05 1423.18 L1273.06 1423.18 L1273.06 1418.87 L1247.05 1418.87 L1247.05 1418.87  Z" fill="#009af9" fill-rule="evenodd" fill-opacity="1"/>
<polyline clip-path="url(#clip741)" style="stroke:#000000; stroke-linecap:round; stroke-linejoin:round; stroke-width:4; stroke-opacity:1; fill:none" points="1247.05,1418.87 1247.05,1423.18 1273.06,1423.18 1273.06,1418.87 1247.05,1418.87 "/>
<path clip-path="url(#clip741)" d="M1273.06 1419.65 L1273.06 1423.18 L1299.07 1423.18 L1299.07 1419.65 L1273.06 1419.65 L1273.06 1419.65  Z" fill="#009af9" fill-rule="evenodd" fill-opacity="1"/>
<polyline clip-path="url(#clip741)" style="stroke:#000000; stroke-linecap:round; stroke-linejoin:round; stroke-width:4; stroke-opacity:1; fill:none" points="1273.06,1419.65 1273.06,1423.18 1299.07,1423.18 1299.07,1419.65 1273.06,1419.65 "/>
<path clip-path="url(#clip741)" d="M1299.07 1419.65 L1299.07 1423.18 L1325.08 1423.18 L1325.08 1419.65 L1299.07 1419.65 L1299.07 1419.65  Z" fill="#009af9" fill-rule="evenodd" fill-opacity="1"/>
<polyline clip-path="url(#clip741)" style="stroke:#000000; stroke-linecap:round; stroke-linejoin:round; stroke-width:4; stroke-opacity:1; fill:none" points="1299.07,1419.65 1299.07,1423.18 1325.08,1423.18 1325.08,1419.65 1299.07,1419.65 "/>
<path clip-path="url(#clip741)" d="M1325.08 1421.22 L1325.08 1423.18 L1351.09 1423.18 L1351.09 1421.22 L1325.08 1421.22 L1325.08 1421.22  Z" fill="#009af9" fill-rule="evenodd" fill-opacity="1"/>
<polyline clip-path="url(#clip741)" style="stroke:#000000; stroke-linecap:round; stroke-linejoin:round; stroke-width:4; stroke-opacity:1; fill:none" points="1325.08,1421.22 1325.08,1423.18 1351.09,1423.18 1351.09,1421.22 1325.08,1421.22 "/>
<path clip-path="url(#clip741)" d="M1351.09 1421.22 L1351.09 1423.18 L1377.1 1423.18 L1377.1 1421.22 L1351.09 1421.22 L1351.09 1421.22  Z" fill="#009af9" fill-rule="evenodd" fill-opacity="1"/>
<polyline clip-path="url(#clip741)" style="stroke:#000000; stroke-linecap:round; stroke-linejoin:round; stroke-width:4; stroke-opacity:1; fill:none" points="1351.09,1421.22 1351.09,1423.18 1377.1,1423.18 1377.1,1421.22 1351.09,1421.22 "/>
<path clip-path="url(#clip741)" d="M1377.1 1421.61 L1377.1 1423.18 L1403.11 1423.18 L1403.11 1421.61 L1377.1 1421.61 L1377.1 1421.61  Z" fill="#009af9" fill-rule="evenodd" fill-opacity="1"/>
<polyline clip-path="url(#clip741)" style="stroke:#000000; stroke-linecap:round; stroke-linejoin:round; stroke-width:4; stroke-opacity:1; fill:none" points="1377.1,1421.61 1377.1,1423.18 1403.11,1423.18 1403.11,1421.61 1377.1,1421.61 "/>
<path clip-path="url(#clip741)" d="M1403.11 1422 L1403.11 1423.18 L1429.12 1423.18 L1429.12 1422 L1403.11 1422 L1403.11 1422  Z" fill="#009af9" fill-rule="evenodd" fill-opacity="1"/>
<polyline clip-path="url(#clip741)" style="stroke:#000000; stroke-linecap:round; stroke-linejoin:round; stroke-width:4; stroke-opacity:1; fill:none" points="1403.11,1422 1403.11,1423.18 1429.12,1423.18 1429.12,1422 1403.11,1422 "/>
<path clip-path="url(#clip741)" d="M1429.12 1422 L1429.12 1423.18 L1455.13 1423.18 L1455.13 1422 L1429.12 1422 L1429.12 1422  Z" fill="#009af9" fill-rule="evenodd" fill-opacity="1"/>
<polyline clip-path="url(#clip741)" style="stroke:#000000; stroke-linecap:round; stroke-linejoin:round; stroke-width:4; stroke-opacity:1; fill:none" points="1429.12,1422 1429.12,1423.18 1455.13,1423.18 1455.13,1422 1429.12,1422 "/>
<path clip-path="url(#clip741)" d="M1455.13 1422.4 L1455.13 1423.18 L1481.14 1423.18 L1481.14 1422.4 L1455.13 1422.4 L1455.13 1422.4  Z" fill="#009af9" fill-rule="evenodd" fill-opacity="1"/>
<polyline clip-path="url(#clip741)" style="stroke:#000000; stroke-linecap:round; stroke-linejoin:round; stroke-width:4; stroke-opacity:1; fill:none" points="1455.13,1422.4 1455.13,1423.18 1481.14,1423.18 1481.14,1422.4 1455.13,1422.4 "/>
<path clip-path="url(#clip741)" d="M1481.14 1422 L1481.14 1423.18 L1507.15 1423.18 L1507.15 1422 L1481.14 1422 L1481.14 1422  Z" fill="#009af9" fill-rule="evenodd" fill-opacity="1"/>
<polyline clip-path="url(#clip741)" style="stroke:#000000; stroke-linecap:round; stroke-linejoin:round; stroke-width:4; stroke-opacity:1; fill:none" points="1481.14,1422 1481.14,1423.18 1507.15,1423.18 1507.15,1422 1481.14,1422 "/>
<path clip-path="url(#clip741)" d="M1507.15 1422 L1507.15 1423.18 L1533.16 1423.18 L1533.16 1422 L1507.15 1422 L1507.15 1422  Z" fill="#009af9" fill-rule="evenodd" fill-opacity="1"/>
<polyline clip-path="url(#clip741)" style="stroke:#000000; stroke-linecap:round; stroke-linejoin:round; stroke-width:4; stroke-opacity:1; fill:none" points="1507.15,1422 1507.15,1423.18 1533.16,1423.18 1533.16,1422 1507.15,1422 "/>
<path clip-path="url(#clip741)" d="M1533.16 1422 L1533.16 1423.18 L1559.17 1423.18 L1559.17 1422 L1533.16 1422 L1533.16 1422  Z" fill="#009af9" fill-rule="evenodd" fill-opacity="1"/>
<polyline clip-path="url(#clip741)" style="stroke:#000000; stroke-linecap:round; stroke-linejoin:round; stroke-width:4; stroke-opacity:1; fill:none" points="1533.16,1422 1533.16,1423.18 1559.17,1423.18 1559.17,1422 1533.16,1422 "/>
<path clip-path="url(#clip741)" d="M1559.17 1422.79 L1559.17 1423.18 L1585.18 1423.18 L1585.18 1422.79 L1559.17 1422.79 L1559.17 1422.79  Z" fill="#009af9" fill-rule="evenodd" fill-opacity="1"/>
<polyline clip-path="url(#clip741)" style="stroke:#000000; stroke-linecap:round; stroke-linejoin:round; stroke-width:4; stroke-opacity:1; fill:none" points="1559.17,1422.79 1559.17,1423.18 1585.18,1423.18 1585.18,1422.79 1559.17,1422.79 "/>
<path clip-path="url(#clip741)" d="M1585.18 1421.22 L1585.18 1423.18 L1611.19 1423.18 L1611.19 1421.22 L1585.18 1421.22 L1585.18 1421.22  Z" fill="#009af9" fill-rule="evenodd" fill-opacity="1"/>
<polyline clip-path="url(#clip741)" style="stroke:#000000; stroke-linecap:round; stroke-linejoin:round; stroke-width:4; stroke-opacity:1; fill:none" points="1585.18,1421.22 1585.18,1423.18 1611.19,1423.18 1611.19,1421.22 1585.18,1421.22 "/>
<path clip-path="url(#clip741)" d="M1611.19 1423.18 L1611.19 1423.18 L1637.2 1423.18 L1637.2 1423.18 L1611.19 1423.18 L1611.19 1423.18  Z" fill="#009af9" fill-rule="evenodd" fill-opacity="1"/>
<polyline clip-path="url(#clip741)" style="stroke:#000000; stroke-linecap:round; stroke-linejoin:round; stroke-width:4; stroke-opacity:1; fill:none" points="1611.19,1423.18 1611.19,1423.18 1637.2,1423.18 1611.19,1423.18 "/>
<path clip-path="url(#clip741)" d="M1637.2 1423.18 L1637.2 1423.18 L1663.21 1423.18 L1663.21 1423.18 L1637.2 1423.18 L1637.2 1423.18  Z" fill="#009af9" fill-rule="evenodd" fill-opacity="1"/>
<polyline clip-path="url(#clip741)" style="stroke:#000000; stroke-linecap:round; stroke-linejoin:round; stroke-width:4; stroke-opacity:1; fill:none" points="1637.2,1423.18 1637.2,1423.18 1663.21,1423.18 1637.2,1423.18 "/>
<path clip-path="url(#clip741)" d="M1663.21 1423.18 L1663.21 1423.18 L1689.22 1423.18 L1689.22 1423.18 L1663.21 1423.18 L1663.21 1423.18  Z" fill="#009af9" fill-rule="evenodd" fill-opacity="1"/>
<polyline clip-path="url(#clip741)" style="stroke:#000000; stroke-linecap:round; stroke-linejoin:round; stroke-width:4; stroke-opacity:1; fill:none" points="1663.21,1423.18 1663.21,1423.18 1689.22,1423.18 1663.21,1423.18 "/>
<path clip-path="url(#clip741)" d="M1689.22 1422.79 L1689.22 1423.18 L1715.23 1423.18 L1715.23 1422.79 L1689.22 1422.79 L1689.22 1422.79  Z" fill="#009af9" fill-rule="evenodd" fill-opacity="1"/>
<polyline clip-path="url(#clip741)" style="stroke:#000000; stroke-linecap:round; stroke-linejoin:round; stroke-width:4; stroke-opacity:1; fill:none" points="1689.22,1422.79 1689.22,1423.18 1715.23,1423.18 1715.23,1422.79 1689.22,1422.79 "/>
<path clip-path="url(#clip741)" d="M1715.23 1423.18 L1715.23 1423.18 L1741.24 1423.18 L1741.24 1423.18 L1715.23 1423.18 L1715.23 1423.18  Z" fill="#009af9" fill-rule="evenodd" fill-opacity="1"/>
<polyline clip-path="url(#clip741)" style="stroke:#000000; stroke-linecap:round; stroke-linejoin:round; stroke-width:4; stroke-opacity:1; fill:none" points="1715.23,1423.18 1715.23,1423.18 1741.24,1423.18 1715.23,1423.18 "/>
<path clip-path="url(#clip741)" d="M1741.24 1423.18 L1741.24 1423.18 L1767.24 1423.18 L1767.24 1423.18 L1741.24 1423.18 L1741.24 1423.18  Z" fill="#009af9" fill-rule="evenodd" fill-opacity="1"/>
<polyline clip-path="url(#clip741)" style="stroke:#000000; stroke-linecap:round; stroke-linejoin:round; stroke-width:4; stroke-opacity:1; fill:none" points="1741.24,1423.18 1741.24,1423.18 1767.24,1423.18 1741.24,1423.18 "/>
<path clip-path="url(#clip741)" d="M1767.24 1422.79 L1767.24 1423.18 L1793.25 1423.18 L1793.25 1422.79 L1767.24 1422.79 L1767.24 1422.79  Z" fill="#009af9" fill-rule="evenodd" fill-opacity="1"/>
<polyline clip-path="url(#clip741)" style="stroke:#000000; stroke-linecap:round; stroke-linejoin:round; stroke-width:4; stroke-opacity:1; fill:none" points="1767.24,1422.79 1767.24,1423.18 1793.25,1423.18 1793.25,1422.79 1767.24,1422.79 "/>
<path clip-path="url(#clip741)" d="M1793.25 1422.79 L1793.25 1423.18 L1819.26 1423.18 L1819.26 1422.79 L1793.25 1422.79 L1793.25 1422.79  Z" fill="#009af9" fill-rule="evenodd" fill-opacity="1"/>
<polyline clip-path="url(#clip741)" style="stroke:#000000; stroke-linecap:round; stroke-linejoin:round; stroke-width:4; stroke-opacity:1; fill:none" points="1793.25,1422.79 1793.25,1423.18 1819.26,1423.18 1819.26,1422.79 1793.25,1422.79 "/>
<path clip-path="url(#clip741)" d="M1819.26 1422.4 L1819.26 1423.18 L1845.27 1423.18 L1845.27 1422.4 L1819.26 1422.4 L1819.26 1422.4  Z" fill="#009af9" fill-rule="evenodd" fill-opacity="1"/>
<polyline clip-path="url(#clip741)" style="stroke:#000000; stroke-linecap:round; stroke-linejoin:round; stroke-width:4; stroke-opacity:1; fill:none" points="1819.26,1422.4 1819.26,1423.18 1845.27,1423.18 1845.27,1422.4 1819.26,1422.4 "/>
<path clip-path="url(#clip741)" d="M1845.27 1423.18 L1845.27 1423.18 L1871.28 1423.18 L1871.28 1423.18 L1845.27 1423.18 L1845.27 1423.18  Z" fill="#009af9" fill-rule="evenodd" fill-opacity="1"/>
<polyline clip-path="url(#clip741)" style="stroke:#000000; stroke-linecap:round; stroke-linejoin:round; stroke-width:4; stroke-opacity:1; fill:none" points="1845.27,1423.18 1845.27,1423.18 1871.28,1423.18 1845.27,1423.18 "/>
<path clip-path="url(#clip741)" d="M1871.28 1423.18 L1871.28 1423.18 L1897.29 1423.18 L1897.29 1423.18 L1871.28 1423.18 L1871.28 1423.18  Z" fill="#009af9" fill-rule="evenodd" fill-opacity="1"/>
<polyline clip-path="url(#clip741)" style="stroke:#000000; stroke-linecap:round; stroke-linejoin:round; stroke-width:4; stroke-opacity:1; fill:none" points="1871.28,1423.18 1871.28,1423.18 1897.29,1423.18 1871.28,1423.18 "/>
<path clip-path="url(#clip741)" d="M1897.29 1423.18 L1897.29 1423.18 L1923.3 1423.18 L1923.3 1423.18 L1897.29 1423.18 L1897.29 1423.18  Z" fill="#009af9" fill-rule="evenodd" fill-opacity="1"/>
<polyline clip-path="url(#clip741)" style="stroke:#000000; stroke-linecap:round; stroke-linejoin:round; stroke-width:4; stroke-opacity:1; fill:none" points="1897.29,1423.18 1897.29,1423.18 1923.3,1423.18 1897.29,1423.18 "/>
<path clip-path="url(#clip741)" d="M1923.3 1423.18 L1923.3 1423.18 L1949.31 1423.18 L1949.31 1423.18 L1923.3 1423.18 L1923.3 1423.18  Z" fill="#009af9" fill-rule="evenodd" fill-opacity="1"/>
<polyline clip-path="url(#clip741)" style="stroke:#000000; stroke-linecap:round; stroke-linejoin:round; stroke-width:4; stroke-opacity:1; fill:none" points="1923.3,1423.18 1923.3,1423.18 1949.31,1423.18 1923.3,1423.18 "/>
<path clip-path="url(#clip741)" d="M1949.31 1423.18 L1949.31 1423.18 L1975.32 1423.18 L1975.32 1423.18 L1949.31 1423.18 L1949.31 1423.18  Z" fill="#009af9" fill-rule="evenodd" fill-opacity="1"/>
<polyline clip-path="url(#clip741)" style="stroke:#000000; stroke-linecap:round; stroke-linejoin:round; stroke-width:4; stroke-opacity:1; fill:none" points="1949.31,1423.18 1949.31,1423.18 1975.32,1423.18 1949.31,1423.18 "/>
<path clip-path="url(#clip741)" d="M1975.32 1423.18 L1975.32 1423.18 L2001.33 1423.18 L2001.33 1423.18 L1975.32 1423.18 L1975.32 1423.18  Z" fill="#009af9" fill-rule="evenodd" fill-opacity="1"/>
<polyline clip-path="url(#clip741)" style="stroke:#000000; stroke-linecap:round; stroke-linejoin:round; stroke-width:4; stroke-opacity:1; fill:none" points="1975.32,1423.18 1975.32,1423.18 2001.33,1423.18 1975.32,1423.18 "/>
<path clip-path="url(#clip741)" d="M2001.33 1423.18 L2001.33 1423.18 L2027.34 1423.18 L2027.34 1423.18 L2001.33 1423.18 L2001.33 1423.18  Z" fill="#009af9" fill-rule="evenodd" fill-opacity="1"/>
<polyline clip-path="url(#clip741)" style="stroke:#000000; stroke-linecap:round; stroke-linejoin:round; stroke-width:4; stroke-opacity:1; fill:none" points="2001.33,1423.18 2001.33,1423.18 2027.34,1423.18 2001.33,1423.18 "/>
<path clip-path="url(#clip741)" d="M2027.34 1422.79 L2027.34 1423.18 L2053.35 1423.18 L2053.35 1422.79 L2027.34 1422.79 L2027.34 1422.79  Z" fill="#009af9" fill-rule="evenodd" fill-opacity="1"/>
<polyline clip-path="url(#clip741)" style="stroke:#000000; stroke-linecap:round; stroke-linejoin:round; stroke-width:4; stroke-opacity:1; fill:none" points="2027.34,1422.79 2027.34,1423.18 2053.35,1423.18 2053.35,1422.79 2027.34,1422.79 "/>
<path clip-path="url(#clip741)" d="M2053.35 1422.79 L2053.35 1423.18 L2079.36 1423.18 L2079.36 1422.79 L2053.35 1422.79 L2053.35 1422.79  Z" fill="#009af9" fill-rule="evenodd" fill-opacity="1"/>
<polyline clip-path="url(#clip741)" style="stroke:#000000; stroke-linecap:round; stroke-linejoin:round; stroke-width:4; stroke-opacity:1; fill:none" points="2053.35,1422.79 2053.35,1423.18 2079.36,1423.18 2079.36,1422.79 2053.35,1422.79 "/>
<path clip-path="url(#clip741)" d="M2079.36 1423.18 L2079.36 1423.18 L2105.37 1423.18 L2105.37 1423.18 L2079.36 1423.18 L2079.36 1423.18  Z" fill="#009af9" fill-rule="evenodd" fill-opacity="1"/>
<polyline clip-path="url(#clip741)" style="stroke:#000000; stroke-linecap:round; stroke-linejoin:round; stroke-width:4; stroke-opacity:1; fill:none" points="2079.36,1423.18 2079.36,1423.18 2105.37,1423.18 2079.36,1423.18 "/>
<path clip-path="url(#clip741)" d="M2105.37 1423.18 L2105.37 1423.18 L2131.38 1423.18 L2131.38 1423.18 L2105.37 1423.18 L2105.37 1423.18  Z" fill="#009af9" fill-rule="evenodd" fill-opacity="1"/>
<polyline clip-path="url(#clip741)" style="stroke:#000000; stroke-linecap:round; stroke-linejoin:round; stroke-width:4; stroke-opacity:1; fill:none" points="2105.37,1423.18 2105.37,1423.18 2131.38,1423.18 2105.37,1423.18 "/>
<path clip-path="url(#clip741)" d="M2131.38 1423.18 L2131.38 1423.18 L2157.39 1423.18 L2157.39 1423.18 L2131.38 1423.18 L2131.38 1423.18  Z" fill="#009af9" fill-rule="evenodd" fill-opacity="1"/>
<polyline clip-path="url(#clip741)" style="stroke:#000000; stroke-linecap:round; stroke-linejoin:round; stroke-width:4; stroke-opacity:1; fill:none" points="2131.38,1423.18 2131.38,1423.18 2157.39,1423.18 2131.38,1423.18 "/>
<path clip-path="url(#clip741)" d="M2157.39 1423.18 L2157.39 1423.18 L2183.4 1423.18 L2183.4 1423.18 L2157.39 1423.18 L2157.39 1423.18  Z" fill="#009af9" fill-rule="evenodd" fill-opacity="1"/>
<polyline clip-path="url(#clip741)" style="stroke:#000000; stroke-linecap:round; stroke-linejoin:round; stroke-width:4; stroke-opacity:1; fill:none" points="2157.39,1423.18 2157.39,1423.18 2183.4,1423.18 2157.39,1423.18 "/>
<path clip-path="url(#clip741)" d="M2183.4 1423.18 L2183.4 1423.18 L2209.41 1423.18 L2209.41 1423.18 L2183.4 1423.18 L2183.4 1423.18  Z" fill="#009af9" fill-rule="evenodd" fill-opacity="1"/>
<polyline clip-path="url(#clip741)" style="stroke:#000000; stroke-linecap:round; stroke-linejoin:round; stroke-width:4; stroke-opacity:1; fill:none" points="2183.4,1423.18 2183.4,1423.18 2209.41,1423.18 2183.4,1423.18 "/>
<path clip-path="url(#clip741)" d="M2209.41 1422.79 L2209.41 1423.18 L2235.42 1423.18 L2235.42 1422.79 L2209.41 1422.79 L2209.41 1422.79  Z" fill="#009af9" fill-rule="evenodd" fill-opacity="1"/>
<polyline clip-path="url(#clip741)" style="stroke:#000000; stroke-linecap:round; stroke-linejoin:round; stroke-width:4; stroke-opacity:1; fill:none" points="2209.41,1422.79 2209.41,1423.18 2235.42,1423.18 2235.42,1422.79 2209.41,1422.79 "/>
<circle clip-path="url(#clip741)" style="fill:#009af9; stroke:none; fill-opacity:0" cx="349.724" cy="47.2441" r="2"/>
<circle clip-path="url(#clip741)" style="fill:#009af9; stroke:none; fill-opacity:0" cx="375.734" cy="919.951" r="2"/>
<circle clip-path="url(#clip741)" style="fill:#009af9; stroke:none; fill-opacity:0" cx="401.743" cy="1090.96" r="2"/>
<circle clip-path="url(#clip741)" style="fill:#009af9; stroke:none; fill-opacity:0" cx="427.753" cy="1178.04" r="2"/>
<circle clip-path="url(#clip741)" style="fill:#009af9; stroke:none; fill-opacity:0" cx="453.763" cy="1205.89" r="2"/>
<circle clip-path="url(#clip741)" style="fill:#009af9; stroke:none; fill-opacity:0" cx="479.772" cy="1255.31" r="2"/>
<circle clip-path="url(#clip741)" style="fill:#009af9; stroke:none; fill-opacity:0" cx="505.782" cy="1275.7" r="2"/>
<circle clip-path="url(#clip741)" style="fill:#009af9; stroke:none; fill-opacity:0" cx="531.791" cy="1310.61" r="2"/>
<circle clip-path="url(#clip741)" style="fill:#009af9; stroke:none; fill-opacity:0" cx="557.801" cy="1315.32" r="2"/>
<circle clip-path="url(#clip741)" style="fill:#009af9; stroke:none; fill-opacity:0" cx="583.81" cy="1337.28" r="2"/>
<circle clip-path="url(#clip741)" style="fill:#009af9; stroke:none; fill-opacity:0" cx="609.82" cy="1341.2" r="2"/>
<circle clip-path="url(#clip741)" style="fill:#009af9; stroke:none; fill-opacity:0" cx="635.829" cy="1363.17" r="2"/>
<circle clip-path="url(#clip741)" style="fill:#009af9; stroke:none; fill-opacity:0" cx="661.839" cy="1369.84" r="2"/>
<circle clip-path="url(#clip741)" style="fill:#009af9; stroke:none; fill-opacity:0" cx="687.848" cy="1377.68" r="2"/>
<circle clip-path="url(#clip741)" style="fill:#009af9; stroke:none; fill-opacity:0" cx="713.858" cy="1381.6" r="2"/>
<circle clip-path="url(#clip741)" style="fill:#009af9; stroke:none; fill-opacity:0" cx="739.868" cy="1373.76" r="2"/>
<circle clip-path="url(#clip741)" style="fill:#009af9; stroke:none; fill-opacity:0" cx="765.877" cy="1388.27" r="2"/>
<circle clip-path="url(#clip741)" style="fill:#009af9; stroke:none; fill-opacity:0" cx="791.887" cy="1385.13" r="2"/>
<circle clip-path="url(#clip741)" style="fill:#009af9; stroke:none; fill-opacity:0" cx="817.896" cy="1401.22" r="2"/>
<circle clip-path="url(#clip741)" style="fill:#009af9; stroke:none; fill-opacity:0" cx="843.906" cy="1397.29" r="2"/>
<circle clip-path="url(#clip741)" style="fill:#009af9; stroke:none; fill-opacity:0" cx="869.915" cy="1407.88" r="2"/>
<circle clip-path="url(#clip741)" style="fill:#009af9; stroke:none; fill-opacity:0" cx="895.925" cy="1405.53" r="2"/>
<circle clip-path="url(#clip741)" style="fill:#009af9; stroke:none; fill-opacity:0" cx="921.934" cy="1407.49" r="2"/>
<circle clip-path="url(#clip741)" style="fill:#009af9; stroke:none; fill-opacity:0" cx="947.944" cy="1409.06" r="2"/>
<circle clip-path="url(#clip741)" style="fill:#009af9; stroke:none; fill-opacity:0" cx="973.953" cy="1407.49" r="2"/>
<circle clip-path="url(#clip741)" style="fill:#009af9; stroke:none; fill-opacity:0" cx="999.963" cy="1414.16" r="2"/>
<circle clip-path="url(#clip741)" style="fill:#009af9; stroke:none; fill-opacity:0" cx="1025.97" cy="1412.98" r="2"/>
<circle clip-path="url(#clip741)" style="fill:#009af9; stroke:none; fill-opacity:0" cx="1051.98" cy="1416.51" r="2"/>
<circle clip-path="url(#clip741)" style="fill:#009af9; stroke:none; fill-opacity:0" cx="1077.99" cy="1417.3" r="2"/>
<circle clip-path="url(#clip741)" style="fill:#009af9; stroke:none; fill-opacity:0" cx="1104" cy="1416.12" r="2"/>
<circle clip-path="url(#clip741)" style="fill:#009af9; stroke:none; fill-opacity:0" cx="1130.01" cy="1417.3" r="2"/>
<circle clip-path="url(#clip741)" style="fill:#009af9; stroke:none; fill-opacity:0" cx="1156.02" cy="1415.73" r="2"/>
<circle clip-path="url(#clip741)" style="fill:#009af9; stroke:none; fill-opacity:0" cx="1182.03" cy="1418.47" r="2"/>
<circle clip-path="url(#clip741)" style="fill:#009af9; stroke:none; fill-opacity:0" cx="1208.04" cy="1417.3" r="2"/>
<circle clip-path="url(#clip741)" style="fill:#009af9; stroke:none; fill-opacity:0" cx="1234.05" cy="1419.26" r="2"/>
<circle clip-path="url(#clip741)" style="fill:#009af9; stroke:none; fill-opacity:0" cx="1260.06" cy="1418.87" r="2"/>
<circle clip-path="url(#clip741)" style="fill:#009af9; stroke:none; fill-opacity:0" cx="1286.07" cy="1419.65" r="2"/>
<circle clip-path="url(#clip741)" style="fill:#009af9; stroke:none; fill-opacity:0" cx="1312.08" cy="1419.65" r="2"/>
<circle clip-path="url(#clip741)" style="fill:#009af9; stroke:none; fill-opacity:0" cx="1338.09" cy="1421.22" r="2"/>
<circle clip-path="url(#clip741)" style="fill:#009af9; stroke:none; fill-opacity:0" cx="1364.1" cy="1421.22" r="2"/>
<circle clip-path="url(#clip741)" style="fill:#009af9; stroke:none; fill-opacity:0" cx="1390.11" cy="1421.61" r="2"/>
<circle clip-path="url(#clip741)" style="fill:#009af9; stroke:none; fill-opacity:0" cx="1416.12" cy="1422" r="2"/>
<circle clip-path="url(#clip741)" style="fill:#009af9; stroke:none; fill-opacity:0" cx="1442.13" cy="1422" r="2"/>
<circle clip-path="url(#clip741)" style="fill:#009af9; stroke:none; fill-opacity:0" cx="1468.13" cy="1422.4" r="2"/>
<circle clip-path="url(#clip741)" style="fill:#009af9; stroke:none; fill-opacity:0" cx="1494.14" cy="1422" r="2"/>
<circle clip-path="url(#clip741)" style="fill:#009af9; stroke:none; fill-opacity:0" cx="1520.15" cy="1422" r="2"/>
<circle clip-path="url(#clip741)" style="fill:#009af9; stroke:none; fill-opacity:0" cx="1546.16" cy="1422" r="2"/>
<circle clip-path="url(#clip741)" style="fill:#009af9; stroke:none; fill-opacity:0" cx="1572.17" cy="1422.79" r="2"/>
<circle clip-path="url(#clip741)" style="fill:#009af9; stroke:none; fill-opacity:0" cx="1598.18" cy="1421.22" r="2"/>
<circle clip-path="url(#clip741)" style="fill:#009af9; stroke:none; fill-opacity:0" cx="1624.19" cy="1423.18" r="2"/>
<circle clip-path="url(#clip741)" style="fill:#009af9; stroke:none; fill-opacity:0" cx="1650.2" cy="1423.18" r="2"/>
<circle clip-path="url(#clip741)" style="fill:#009af9; stroke:none; fill-opacity:0" cx="1676.21" cy="1423.18" r="2"/>
<circle clip-path="url(#clip741)" style="fill:#009af9; stroke:none; fill-opacity:0" cx="1702.22" cy="1422.79" r="2"/>
<circle clip-path="url(#clip741)" style="fill:#009af9; stroke:none; fill-opacity:0" cx="1728.23" cy="1423.18" r="2"/>
<circle clip-path="url(#clip741)" style="fill:#009af9; stroke:none; fill-opacity:0" cx="1754.24" cy="1423.18" r="2"/>
<circle clip-path="url(#clip741)" style="fill:#009af9; stroke:none; fill-opacity:0" cx="1780.25" cy="1422.79" r="2"/>
<circle clip-path="url(#clip741)" style="fill:#009af9; stroke:none; fill-opacity:0" cx="1806.26" cy="1422.79" r="2"/>
<circle clip-path="url(#clip741)" style="fill:#009af9; stroke:none; fill-opacity:0" cx="1832.27" cy="1422.4" r="2"/>
<circle clip-path="url(#clip741)" style="fill:#009af9; stroke:none; fill-opacity:0" cx="1858.28" cy="1423.18" r="2"/>
<circle clip-path="url(#clip741)" style="fill:#009af9; stroke:none; fill-opacity:0" cx="1884.29" cy="1423.18" r="2"/>
<circle clip-path="url(#clip741)" style="fill:#009af9; stroke:none; fill-opacity:0" cx="1910.3" cy="1423.18" r="2"/>
<circle clip-path="url(#clip741)" style="fill:#009af9; stroke:none; fill-opacity:0" cx="1936.31" cy="1423.18" r="2"/>
<circle clip-path="url(#clip741)" style="fill:#009af9; stroke:none; fill-opacity:0" cx="1962.32" cy="1423.18" r="2"/>
<circle clip-path="url(#clip741)" style="fill:#009af9; stroke:none; fill-opacity:0" cx="1988.33" cy="1423.18" r="2"/>
<circle clip-path="url(#clip741)" style="fill:#009af9; stroke:none; fill-opacity:0" cx="2014.34" cy="1423.18" r="2"/>
<circle clip-path="url(#clip741)" style="fill:#009af9; stroke:none; fill-opacity:0" cx="2040.34" cy="1422.79" r="2"/>
<circle clip-path="url(#clip741)" style="fill:#009af9; stroke:none; fill-opacity:0" cx="2066.35" cy="1422.79" r="2"/>
<circle clip-path="url(#clip741)" style="fill:#009af9; stroke:none; fill-opacity:0" cx="2092.36" cy="1423.18" r="2"/>
<circle clip-path="url(#clip741)" style="fill:#009af9; stroke:none; fill-opacity:0" cx="2118.37" cy="1423.18" r="2"/>
<circle clip-path="url(#clip741)" style="fill:#009af9; stroke:none; fill-opacity:0" cx="2144.38" cy="1423.18" r="2"/>
<circle clip-path="url(#clip741)" style="fill:#009af9; stroke:none; fill-opacity:0" cx="2170.39" cy="1423.18" r="2"/>
<circle clip-path="url(#clip741)" style="fill:#009af9; stroke:none; fill-opacity:0" cx="2196.4" cy="1423.18" r="2"/>
<circle clip-path="url(#clip741)" style="fill:#009af9; stroke:none; fill-opacity:0" cx="2222.41" cy="1422.79" r="2"/>
<polyline clip-path="url(#clip741)" style="stroke:#e26f46; stroke-linecap:round; stroke-linejoin:round; stroke-width:16; stroke-opacity:1; fill:none" points="349.724,481.802 368.749,865.645 387.774,1012.73 406.799,1097.55 425.824,1154.77 444.849,1196.71 463.874,1229.07 482.899,1254.91 501.924,1276.06 520.949,1293.69 539.974,1308.6 558.999,1321.34 578.024,1332.33 597.049,1341.88 616.074,1350.23 635.099,1357.58 654.124,1364.06 673.149,1369.81 692.174,1374.92 711.199,1379.47 730.224,1383.55 749.249,1387.21 768.274,1390.49 787.299,1393.44 806.324,1396.11 825.348,1398.51 844.373,1400.68 863.398,1402.65 882.423,1404.44 901.448,1406.05 920.473,1407.52 939.498,1408.86 958.523,1410.07 977.548,1411.18 996.573,1412.19 1015.6,1413.11 1034.62,1413.95 1053.65,1414.71 1072.67,1415.41 1091.7,1416.05 1110.72,1416.64 1129.75,1417.17 1148.77,1417.66 1167.8,1418.11 1186.82,1418.52 1205.85,1418.9 1224.87,1419.24 1243.9,1419.56 1262.92,1419.85 1281.95,1420.11 1300.97,1420.36 1320,1420.58 1339.02,1420.79 1358.05,1420.98 1377.07,1421.15 1396.1,1421.31 1415.12,1421.46 1434.15,1421.6 1453.17,1421.72 1472.2,1421.83 1491.22,1421.94 1510.25,1422.04 1529.27,1422.13 1548.3,1422.21 1567.32,1422.28 1586.35,1422.35 1605.37,1422.42 1624.4,1422.48 1643.42,1422.53 1662.45,1422.58 1681.47,1422.63 1700.5,1422.67 1719.52,1422.71 1738.55,1422.74 1757.57,1422.78 1776.6,1422.81 1795.62,1422.84 1814.65,1422.86 1833.67,1422.89 1852.7,1422.91 1871.72,1422.93 1890.75,1422.95 1909.77,1422.97 1928.8,1422.98 1947.82,1423 1966.85,1423.01 1985.87,1423.02 2004.9,1423.04 2023.92,1423.05 2042.95,1423.06 2061.97,1423.07 2081,1423.08 2100.02,1423.08 2119.05,1423.09 2138.07,1423.1 2157.1,1423.1 2176.12,1423.11 2195.15,1423.11 2214.17,1423.12 2233.2,1423.12 "/>
<path clip-path="url(#clip740)" d="M2015.88 248.629 L2281.64 248.629 L2281.64 93.1086 L2015.88 93.1086  Z" fill="#ffffff" fill-rule="evenodd" fill-opacity="1"/>
<polyline clip-path="url(#clip740)" style="stroke:#000000; stroke-linecap:round; stroke-linejoin:round; stroke-width:4; stroke-opacity:1; fill:none" points="2015.88,248.629 2281.64,248.629 2281.64,93.1086 2015.88,93.1086 2015.88,248.629 "/>
<path clip-path="url(#clip740)" d="M2039.58 165.685 L2181.8 165.685 L2181.8 124.213 L2039.58 124.213 L2039.58 165.685  Z" fill="#009af9" fill-rule="evenodd" fill-opacity="1"/>
<polyline clip-path="url(#clip740)" style="stroke:#000000; stroke-linecap:round; stroke-linejoin:round; stroke-width:4; stroke-opacity:1; fill:none" points="2039.58,165.685 2181.8,165.685 2181.8,124.213 2039.58,124.213 2039.58,165.685 "/>
<path clip-path="url(#clip740)" d="M2219.35 164.636 Q2217.55 169.266 2215.83 170.678 Q2214.12 172.09 2211.25 172.09 L2207.85 172.09 L2207.85 168.525 L2210.35 168.525 Q2212.11 168.525 2213.08 167.692 Q2214.05 166.858 2215.23 163.756 L2215.99 161.812 L2205.51 136.303 L2210.02 136.303 L2218.12 156.581 L2226.23 136.303 L2230.74 136.303 L2219.35 164.636 Z" fill="#000000" fill-rule="nonzero" fill-opacity="1" /><path clip-path="url(#clip740)" d="M2238.03 158.293 L2245.67 158.293 L2245.67 131.928 L2237.36 133.595 L2237.36 129.335 L2245.62 127.669 L2250.3 127.669 L2250.3 158.293 L2257.94 158.293 L2257.94 162.229 L2238.03 162.229 L2238.03 158.293 Z" fill="#000000" fill-rule="nonzero" fill-opacity="1" /><polyline clip-path="url(#clip740)" style="stroke:#e26f46; stroke-linecap:round; stroke-linejoin:round; stroke-width:16; stroke-opacity:1; fill:none" points="2039.58,196.789 2181.8,196.789 "/>
<path clip-path="url(#clip740)" d="M2219.35 216.476 Q2217.55 221.106 2215.83 222.518 Q2214.12 223.93 2211.25 223.93 L2207.85 223.93 L2207.85 220.365 L2210.35 220.365 Q2212.11 220.365 2213.08 219.532 Q2214.05 218.698 2215.23 215.596 L2215.99 213.652 L2205.51 188.143 L2210.02 188.143 L2218.12 208.421 L2226.23 188.143 L2230.74 188.143 L2219.35 216.476 Z" fill="#000000" fill-rule="nonzero" fill-opacity="1" /><path clip-path="url(#clip740)" d="M2241.25 210.133 L2257.57 210.133 L2257.57 214.069 L2235.62 214.069 L2235.62 210.133 Q2238.29 207.379 2242.87 202.749 Q2247.48 198.096 2248.66 196.754 Q2250.9 194.231 2251.78 192.495 Q2252.68 190.735 2252.68 189.046 Q2252.68 186.291 2250.74 184.555 Q2248.82 182.819 2245.72 182.819 Q2243.52 182.819 2241.06 183.583 Q2238.63 184.347 2235.86 185.897 L2235.86 181.175 Q2238.68 180.041 2241.13 179.462 Q2243.59 178.884 2245.62 178.884 Q2250.99 178.884 2254.19 181.569 Q2257.38 184.254 2257.38 188.745 Q2257.38 190.874 2256.57 192.796 Q2255.79 194.694 2253.68 197.286 Q2253.1 197.958 2250 201.175 Q2246.9 204.37 2241.25 210.133 Z" fill="#000000" fill-rule="nonzero" fill-opacity="1" /></svg>
