<?xml version="1.0" encoding="utf-8"?>
<svg xmlns="http://www.w3.org/2000/svg" xmlns:xlink="http://www.w3.org/1999/xlink" width="600" height="400" viewBox="0 0 2400 1600">
<defs>
  <clipPath id="clip570">
    <rect x="0" y="0" width="2400" height="1600"/>
  </clipPath>
</defs>
<path clip-path="url(#clip570)" d="M0 1600 L2400 1600 L2400 0 L0 0  Z" fill="#ffffff" fill-rule="evenodd" fill-opacity="1"/>
<defs>
  <clipPath id="clip571">
    <rect x="219" y="47" width="2134" height="1377"/>
  </clipPath>
</defs>
<path clip-path="url(#clip570)" d="M219.38 1423.18 L2352.76 1423.18 L2352.76 47.2441 L219.38 47.2441  Z" fill="#ffffff" fill-rule="evenodd" fill-opacity="1"/>
<polyline clip-path="url(#clip571)" style="stroke:#000000; stroke-linecap:round; stroke-linejoin:round; stroke-width:2; stroke-opacity:0.1; fill:none" points="336.72,1423.18 336.72,47.2441 "/>
<polyline clip-path="url(#clip571)" style="stroke:#000000; stroke-linecap:round; stroke-linejoin:round; stroke-width:2; stroke-opacity:0.1; fill:none" points="953.18,1423.18 953.18,47.2441 "/>
<polyline clip-path="url(#clip571)" style="stroke:#000000; stroke-linecap:round; stroke-linejoin:round; stroke-width:2; stroke-opacity:0.1; fill:none" points="1569.64,1423.18 1569.64,47.2441 "/>
<polyline clip-path="url(#clip571)" style="stroke:#000000; stroke-linecap:round; stroke-linejoin:round; stroke-width:2; stroke-opacity:0.1; fill:none" points="2186.1,1423.18 2186.1,47.2441 "/>
<polyline clip-path="url(#clip571)" style="stroke:#000000; stroke-linecap:round; stroke-linejoin:round; stroke-width:2; stroke-opacity:0.1; fill:none" points="219.38,1423.18 2352.76,1423.18 "/>
<polyline clip-path="url(#clip571)" style="stroke:#000000; stroke-linecap:round; stroke-linejoin:round; stroke-width:2; stroke-opacity:0.1; fill:none" points="219.38,1022.85 2352.76,1022.85 "/>
<polyline clip-path="url(#clip571)" style="stroke:#000000; stroke-linecap:round; stroke-linejoin:round; stroke-width:2; stroke-opacity:0.1; fill:none" points="219.38,622.519 2352.76,622.519 "/>
<polyline clip-path="url(#clip571)" style="stroke:#000000; stroke-linecap:round; stroke-linejoin:round; stroke-width:2; stroke-opacity:0.1; fill:none" points="219.38,222.189 2352.76,222.189 "/>
<polyline clip-path="url(#clip570)" style="stroke:#000000; stroke-linecap:round; stroke-linejoin:round; stroke-width:4; stroke-opacity:1; fill:none" points="219.38,1423.18 2352.76,1423.18 "/>
<polyline clip-path="url(#clip570)" style="stroke:#000000; stroke-linecap:round; stroke-linejoin:round; stroke-width:4; stroke-opacity:1; fill:none" points="336.72,1423.18 336.72,1404.28 "/>
<polyline clip-path="url(#clip570)" style="stroke:#000000; stroke-linecap:round; stroke-linejoin:round; stroke-width:4; stroke-opacity:1; fill:none" points="953.18,1423.18 953.18,1404.28 "/>
<polyline clip-path="url(#clip570)" style="stroke:#000000; stroke-linecap:round; stroke-linejoin:round; stroke-width:4; stroke-opacity:1; fill:none" points="1569.64,1423.18 1569.64,1404.28 "/>
<polyline clip-path="url(#clip570)" style="stroke:#000000; stroke-linecap:round; stroke-linejoin:round; stroke-width:4; stroke-opacity:1; fill:none" points="2186.1,1423.18 2186.1,1404.28 "/>
<path clip-path="url(#clip570)" d="M336.72 1454.1 Q333.109 1454.1 331.28 1457.66 Q329.474 1461.2 329.474 1468.33 Q329.474 1475.44 331.28 1479.01 Q333.109 1482.55 336.72 1482.55 Q340.354 1482.55 342.159 1479.01 Q343.988 1475.44 343.988 1468.33 Q343.988 1461.2 342.159 1457.66 Q340.354 1454.1 336.72 1454.1 M336.72 1450.39 Q342.53 1450.39 345.585 1455 Q348.664 1459.58 348.664 1468.33 Q348.664 1477.06 345.585 1481.67 Q342.53 1486.25 336.72 1486.25 Q330.909 1486.25 327.831 1481.67 Q324.775 1477.06 324.775 1468.33 Q324.775 1459.58 327.831 1455 Q330.909 1450.39 336.72 1450.39 Z" fill="#000000" fill-rule="nonzero" fill-opacity="1" /><path clip-path="url(#clip570)" d="M943.457 1451.02 L961.814 1451.02 L961.814 1454.96 L947.74 1454.96 L947.74 1463.43 Q948.758 1463.08 949.777 1462.92 Q950.795 1462.73 951.814 1462.73 Q957.601 1462.73 960.981 1465.9 Q964.36 1469.08 964.36 1474.49 Q964.36 1480.07 960.888 1483.17 Q957.416 1486.25 951.096 1486.25 Q948.92 1486.25 946.652 1485.88 Q944.407 1485.51 941.999 1484.77 L941.999 1480.07 Q944.082 1481.2 946.305 1481.76 Q948.527 1482.32 951.004 1482.32 Q955.008 1482.32 957.346 1480.21 Q959.684 1478.1 959.684 1474.49 Q959.684 1470.88 957.346 1468.77 Q955.008 1466.67 951.004 1466.67 Q949.129 1466.67 947.254 1467.08 Q945.402 1467.5 943.457 1468.38 L943.457 1451.02 Z" fill="#000000" fill-rule="nonzero" fill-opacity="1" /><path clip-path="url(#clip570)" d="M1544.33 1481.64 L1551.97 1481.64 L1551.97 1455.28 L1543.66 1456.95 L1543.66 1452.69 L1551.92 1451.02 L1556.6 1451.02 L1556.6 1481.64 L1564.23 1481.64 L1564.23 1485.58 L1544.33 1485.58 L1544.33 1481.64 Z" fill="#000000" fill-rule="nonzero" fill-opacity="1" /><path clip-path="url(#clip570)" d="M1583.68 1454.1 Q1580.07 1454.1 1578.24 1457.66 Q1576.43 1461.2 1576.43 1468.33 Q1576.43 1475.44 1578.24 1479.01 Q1580.07 1482.55 1583.68 1482.55 Q1587.31 1482.55 1589.12 1479.01 Q1590.95 1475.44 1590.95 1468.33 Q1590.95 1461.2 1589.12 1457.66 Q1587.31 1454.1 1583.68 1454.1 M1583.68 1450.39 Q1589.49 1450.39 1592.54 1455 Q1595.62 1459.58 1595.62 1468.33 Q1595.62 1477.06 1592.54 1481.67 Q1589.49 1486.25 1583.68 1486.25 Q1577.87 1486.25 1574.79 1481.67 Q1571.73 1477.06 1571.73 1468.33 Q1571.73 1459.58 1574.79 1455 Q1577.87 1450.39 1583.68 1450.39 Z" fill="#000000" fill-rule="nonzero" fill-opacity="1" /><path clip-path="url(#clip570)" d="M2161.28 1481.64 L2168.92 1481.64 L2168.92 1455.28 L2160.61 1456.95 L2160.61 1452.69 L2168.88 1451.02 L2173.55 1451.02 L2173.55 1481.64 L2181.19 1481.64 L2181.19 1485.58 L2161.28 1485.58 L2161.28 1481.64 Z" fill="#000000" fill-rule="nonzero" fill-opacity="1" /><path clip-path="url(#clip570)" d="M2190.68 1451.02 L2209.04 1451.02 L2209.04 1454.96 L2194.97 1454.96 L2194.97 1463.43 Q2195.98 1463.08 2197 1462.92 Q2198.02 1462.73 2199.04 1462.73 Q2204.83 1462.73 2208.21 1465.9 Q2211.59 1469.08 2211.59 1474.49 Q2211.59 1480.07 2208.11 1483.17 Q2204.64 1486.25 2198.32 1486.25 Q2196.15 1486.25 2193.88 1485.88 Q2191.63 1485.51 2189.22 1484.77 L2189.22 1480.07 Q2191.31 1481.2 2193.53 1481.76 Q2195.75 1482.32 2198.23 1482.32 Q2202.23 1482.32 2204.57 1480.21 Q2206.91 1478.1 2206.91 1474.49 Q2206.91 1470.88 2204.57 1468.77 Q2202.23 1466.67 2198.23 1466.67 Q2196.35 1466.67 2194.48 1467.08 Q2192.63 1467.5 2190.68 1468.38 L2190.68 1451.02 Z" fill="#000000" fill-rule="nonzero" fill-opacity="1" /><path clip-path="url(#clip570)" d="M1285.13 1522.27 L1285.13 1532.4 L1297.19 1532.4 L1297.19 1536.95 L1285.13 1536.95 L1285.13 1556.3 Q1285.13 1560.66 1286.31 1561.9 Q1287.52 1563.14 1291.18 1563.14 L1297.19 1563.14 L1297.19 1568.04 L1291.18 1568.04 Q1284.4 1568.04 1281.82 1565.53 Q1279.24 1562.98 1279.24 1556.3 L1279.24 1536.95 L1274.94 1536.95 L1274.94 1532.4 L1279.24 1532.4 L1279.24 1522.27 L1285.13 1522.27 Z" fill="#000000" fill-rule="nonzero" fill-opacity="1" /><polyline clip-path="url(#clip570)" style="stroke:#000000; stroke-linecap:round; stroke-linejoin:round; stroke-width:4; stroke-opacity:1; fill:none" points="219.38,1423.18 219.38,47.2441 "/>
<polyline clip-path="url(#clip570)" style="stroke:#000000; stroke-linecap:round; stroke-linejoin:round; stroke-width:4; stroke-opacity:1; fill:none" points="219.38,1423.18 238.278,1423.18 "/>
<polyline clip-path="url(#clip570)" style="stroke:#000000; stroke-linecap:round; stroke-linejoin:round; stroke-width:4; stroke-opacity:1; fill:none" points="219.38,1022.85 238.278,1022.85 "/>
<polyline clip-path="url(#clip570)" style="stroke:#000000; stroke-linecap:round; stroke-linejoin:round; stroke-width:4; stroke-opacity:1; fill:none" points="219.38,622.519 238.278,622.519 "/>
<polyline clip-path="url(#clip570)" style="stroke:#000000; stroke-linecap:round; stroke-linejoin:round; stroke-width:4; stroke-opacity:1; fill:none" points="219.38,222.189 238.278,222.189 "/>
<path clip-path="url(#clip570)" d="M126.205 1408.98 Q122.593 1408.98 120.765 1412.54 Q118.959 1416.08 118.959 1423.21 Q118.959 1430.32 120.765 1433.89 Q122.593 1437.43 126.205 1437.43 Q129.839 1437.43 131.644 1433.89 Q133.473 1430.32 133.473 1423.21 Q133.473 1416.08 131.644 1412.54 Q129.839 1408.98 126.205 1408.98 M126.205 1405.27 Q132.015 1405.27 135.07 1409.88 Q138.149 1414.46 138.149 1423.21 Q138.149 1431.94 135.07 1436.55 Q132.015 1441.13 126.205 1441.13 Q120.394 1441.13 117.316 1436.55 Q114.26 1431.94 114.26 1423.21 Q114.26 1414.46 117.316 1409.88 Q120.394 1405.27 126.205 1405.27 Z" fill="#000000" fill-rule="nonzero" fill-opacity="1" /><path clip-path="url(#clip570)" d="M146.366 1434.58 L151.251 1434.58 L151.251 1440.46 L146.366 1440.46 L146.366 1434.58 Z" fill="#000000" fill-rule="nonzero" fill-opacity="1" /><path clip-path="url(#clip570)" d="M171.436 1408.98 Q167.825 1408.98 165.996 1412.54 Q164.19 1416.08 164.19 1423.21 Q164.19 1430.32 165.996 1433.89 Q167.825 1437.43 171.436 1437.43 Q175.07 1437.43 176.876 1433.89 Q178.704 1430.32 178.704 1423.21 Q178.704 1416.08 176.876 1412.54 Q175.07 1408.98 171.436 1408.98 M171.436 1405.27 Q177.246 1405.27 180.301 1409.88 Q183.38 1414.46 183.38 1423.21 Q183.38 1431.94 180.301 1436.55 Q177.246 1441.13 171.436 1441.13 Q165.626 1441.13 162.547 1436.55 Q159.491 1431.94 159.491 1423.21 Q159.491 1414.46 162.547 1409.88 Q165.626 1405.27 171.436 1405.27 Z" fill="#000000" fill-rule="nonzero" fill-opacity="1" /><path clip-path="url(#clip570)" d="M127.2 1008.65 Q123.589 1008.65 121.76 1012.21 Q119.955 1015.75 119.955 1022.88 Q119.955 1029.99 121.76 1033.56 Q123.589 1037.1 127.2 1037.1 Q130.834 1037.1 132.64 1033.56 Q134.468 1029.99 134.468 1022.88 Q134.468 1015.75 132.64 1012.21 Q130.834 1008.65 127.2 1008.65 M127.2 1004.94 Q133.01 1004.94 136.066 1009.55 Q139.144 1014.13 139.144 1022.88 Q139.144 1031.61 136.066 1036.22 Q133.01 1040.8 127.2 1040.8 Q121.39 1040.8 118.311 1036.22 Q115.256 1031.61 115.256 1022.88 Q115.256 1014.13 118.311 1009.55 Q121.39 1004.94 127.2 1004.94 Z" fill="#000000" fill-rule="nonzero" fill-opacity="1" /><path clip-path="url(#clip570)" d="M147.362 1034.25 L152.246 1034.25 L152.246 1040.13 L147.362 1040.13 L147.362 1034.25 Z" fill="#000000" fill-rule="nonzero" fill-opacity="1" /><path clip-path="url(#clip570)" d="M162.477 1005.57 L180.834 1005.57 L180.834 1009.5 L166.76 1009.5 L166.76 1017.98 Q167.778 1017.63 168.797 1017.47 Q169.815 1017.28 170.834 1017.28 Q176.621 1017.28 180.001 1020.45 Q183.38 1023.62 183.38 1029.04 Q183.38 1034.62 179.908 1037.72 Q176.436 1040.8 170.116 1040.8 Q167.94 1040.8 165.672 1040.43 Q163.427 1040.06 161.019 1039.32 L161.019 1034.62 Q163.102 1035.75 165.325 1036.31 Q167.547 1036.87 170.024 1036.87 Q174.028 1036.87 176.366 1034.76 Q178.704 1032.65 178.704 1029.04 Q178.704 1025.43 176.366 1023.32 Q174.028 1021.22 170.024 1021.22 Q168.149 1021.22 166.274 1021.63 Q164.422 1022.05 162.477 1022.93 L162.477 1005.57 Z" fill="#000000" fill-rule="nonzero" fill-opacity="1" /><path clip-path="url(#clip570)" d="M117.015 635.864 L124.654 635.864 L124.654 609.498 L116.343 611.165 L116.343 606.906 L124.607 605.239 L129.283 605.239 L129.283 635.864 L136.922 635.864 L136.922 639.799 L117.015 639.799 L117.015 635.864 Z" fill="#000000" fill-rule="nonzero" fill-opacity="1" /><path clip-path="url(#clip570)" d="M146.366 633.919 L151.251 633.919 L151.251 639.799 L146.366 639.799 L146.366 633.919 Z" fill="#000000" fill-rule="nonzero" fill-opacity="1" /><path clip-path="url(#clip570)" d="M171.436 608.318 Q167.825 608.318 165.996 611.882 Q164.19 615.424 164.19 622.554 Q164.19 629.66 165.996 633.225 Q167.825 636.767 171.436 636.767 Q175.07 636.767 176.876 633.225 Q178.704 629.66 178.704 622.554 Q178.704 615.424 176.876 611.882 Q175.07 608.318 171.436 608.318 M171.436 604.614 Q177.246 604.614 180.301 609.22 Q183.38 613.804 183.38 622.554 Q183.38 631.28 180.301 635.887 Q177.246 640.47 171.436 640.47 Q165.626 640.47 162.547 635.887 Q159.491 631.28 159.491 622.554 Q159.491 613.804 162.547 609.22 Q165.626 604.614 171.436 604.614 Z" fill="#000000" fill-rule="nonzero" fill-opacity="1" /><path clip-path="url(#clip570)" d="M118.01 235.533 L125.649 235.533 L125.649 209.168 L117.339 210.834 L117.339 206.575 L125.603 204.909 L130.279 204.909 L130.279 235.533 L137.917 235.533 L137.917 239.469 L118.01 239.469 L118.01 235.533 Z" fill="#000000" fill-rule="nonzero" fill-opacity="1" /><path clip-path="url(#clip570)" d="M147.362 233.589 L152.246 233.589 L152.246 239.469 L147.362 239.469 L147.362 233.589 Z" fill="#000000" fill-rule="nonzero" fill-opacity="1" /><path clip-path="url(#clip570)" d="M162.477 204.909 L180.834 204.909 L180.834 208.844 L166.76 208.844 L166.76 217.316 Q167.778 216.969 168.797 216.807 Q169.815 216.621 170.834 216.621 Q176.621 216.621 180.001 219.793 Q183.38 222.964 183.38 228.381 Q183.38 233.959 179.908 237.061 Q176.436 240.14 170.116 240.14 Q167.94 240.14 165.672 239.769 Q163.427 239.399 161.019 238.658 L161.019 233.959 Q163.102 235.094 165.325 235.649 Q167.547 236.205 170.024 236.205 Q174.028 236.205 176.366 234.098 Q178.704 231.992 178.704 228.381 Q178.704 224.77 176.366 222.663 Q174.028 220.557 170.024 220.557 Q168.149 220.557 166.274 220.973 Q164.422 221.39 162.477 222.27 L162.477 204.909 Z" fill="#000000" fill-rule="nonzero" fill-opacity="1" /><path clip-path="url(#clip570)" d="M33.8307 800.206 Q33.2578 801.193 33.0032 802.37 Q32.7167 803.516 32.7167 804.916 Q32.7167 809.882 35.9632 812.555 Q39.1779 815.197 45.2253 815.197 L64.0042 815.197 L64.0042 821.085 L28.3562 821.085 L28.3562 815.197 L33.8944 815.197 Q30.6479 813.351 29.0883 810.391 Q27.4968 807.431 27.4968 803.198 Q27.4968 802.593 27.5923 801.861 Q27.656 801.129 27.8151 800.238 L33.8307 800.206 Z" fill="#000000" fill-rule="nonzero" fill-opacity="1" /><path clip-path="url(#clip570)" d="M42.4881 765.576 L64.0042 765.576 L64.0042 771.433 L42.679 771.433 Q37.6183 771.433 35.1038 773.406 Q32.5894 775.38 32.5894 779.326 Q32.5894 784.069 35.6131 786.806 Q38.6368 789.543 43.8567 789.543 L64.0042 789.543 L64.0042 795.432 L14.479 795.432 L14.479 789.543 L33.8944 789.543 Q30.6797 787.443 29.0883 784.61 Q27.4968 781.745 27.4968 778.021 Q27.4968 771.878 31.3163 768.727 Q35.1038 765.576 42.4881 765.576 Z" fill="#000000" fill-rule="nonzero" fill-opacity="1" /><path clip-path="url(#clip570)" d="M32.4621 740.082 Q32.4621 744.792 36.1542 747.53 Q39.8145 750.267 46.212 750.267 Q52.6095 750.267 56.3017 747.561 Q59.9619 744.824 59.9619 740.082 Q59.9619 735.403 56.2698 732.666 Q52.5777 729.928 46.212 729.928 Q39.8781 729.928 36.186 732.666 Q32.4621 735.403 32.4621 740.082 M27.4968 740.082 Q27.4968 732.443 32.4621 728.082 Q37.4273 723.722 46.212 723.722 Q54.9649 723.722 59.9619 728.082 Q64.9272 732.443 64.9272 740.082 Q64.9272 747.752 59.9619 752.113 Q54.9649 756.442 46.212 756.442 Q37.4273 756.442 32.4621 752.113 Q27.4968 747.752 27.4968 740.082 Z" fill="#000000" fill-rule="nonzero" fill-opacity="1" /><path clip-path="url(#clip570)" d="M14.5426 699.946 Q21.8632 704.211 29.0246 706.28 Q36.186 708.349 43.5384 708.349 Q50.8908 708.349 58.1159 706.28 Q65.3091 704.179 72.5979 699.946 L72.5979 705.039 Q65.1182 709.813 57.8931 712.2 Q50.668 714.555 43.5384 714.555 Q36.4406 714.555 29.2474 712.2 Q22.0542 709.845 14.5426 705.039 L14.5426 699.946 Z" fill="#000000" fill-rule="nonzero" fill-opacity="1" /><path clip-path="url(#clip570)" d="M18.2347 682.79 L28.3562 682.79 L28.3562 670.727 L32.9077 670.727 L32.9077 682.79 L52.2594 682.79 Q56.6199 682.79 57.8613 681.613 Q59.1026 680.403 59.1026 676.743 L59.1026 670.727 L64.0042 670.727 L64.0042 676.743 Q64.0042 683.522 61.4897 686.101 Q58.9434 688.679 52.2594 688.679 L32.9077 688.679 L32.9077 692.976 L28.3562 692.976 L28.3562 688.679 L18.2347 688.679 L18.2347 682.79 Z" fill="#000000" fill-rule="nonzero" fill-opacity="1" /><path clip-path="url(#clip570)" d="M14.5426 663.948 L14.5426 658.855 Q22.0542 654.081 29.2474 651.726 Q36.4406 649.339 43.5384 649.339 Q50.668 649.339 57.8931 651.726 Q65.1182 654.081 72.5979 658.855 L72.5979 663.948 Q65.3091 659.715 58.1159 657.646 Q50.8908 655.545 43.5384 655.545 Q36.186 655.545 29.0246 657.646 Q21.8632 659.715 14.5426 663.948 Z" fill="#000000" fill-rule="nonzero" fill-opacity="1" /><path clip-path="url(#clip571)" d="M336.72 47.2441 L336.72 1423.18 L361.378 1423.18 L361.378 47.2441 L336.72 47.2441 L336.72 47.2441  Z" fill="#009af9" fill-rule="evenodd" fill-opacity="1"/>
<polyline clip-path="url(#clip571)" style="stroke:#000000; stroke-linecap:round; stroke-linejoin:round; stroke-width:4; stroke-opacity:1; fill:none" points="336.72,47.2441 336.72,1423.18 361.378,1423.18 361.378,47.2441 336.72,47.2441 "/>
<path clip-path="url(#clip571)" d="M361.378 899.548 L361.378 1423.18 L386.036 1423.18 L386.036 899.548 L361.378 899.548 L361.378 899.548  Z" fill="#009af9" fill-rule="evenodd" fill-opacity="1"/>
<polyline clip-path="url(#clip571)" style="stroke:#000000; stroke-linecap:round; stroke-linejoin:round; stroke-width:4; stroke-opacity:1; fill:none" points="361.378,899.548 361.378,1423.18 386.036,1423.18 386.036,899.548 361.378,899.548 "/>
<path clip-path="url(#clip571)" d="M386.036 1066.89 L386.036 1423.18 L410.695 1423.18 L410.695 1066.89 L386.036 1066.89 L386.036 1066.89  Z" fill="#009af9" fill-rule="evenodd" fill-opacity="1"/>
<polyline clip-path="url(#clip571)" style="stroke:#000000; stroke-linecap:round; stroke-linejoin:round; stroke-width:4; stroke-opacity:1; fill:none" points="386.036,1066.89 386.036,1423.18 410.695,1423.18 410.695,1066.89 386.036,1066.89 "/>
<path clip-path="url(#clip571)" d="M410.695 1154.16 L410.695 1423.18 L435.353 1423.18 L435.353 1154.16 L410.695 1154.16 L410.695 1154.16  Z" fill="#009af9" fill-rule="evenodd" fill-opacity="1"/>
<polyline clip-path="url(#clip571)" style="stroke:#000000; stroke-linecap:round; stroke-linejoin:round; stroke-width:4; stroke-opacity:1; fill:none" points="410.695,1154.16 410.695,1423.18 435.353,1423.18 435.353,1154.16 410.695,1154.16 "/>
<path clip-path="url(#clip571)" d="M435.353 1195.39 L435.353 1423.18 L460.012 1423.18 L460.012 1195.39 L435.353 1195.39 L435.353 1195.39  Z" fill="#009af9" fill-rule="evenodd" fill-opacity="1"/>
<polyline clip-path="url(#clip571)" style="stroke:#000000; stroke-linecap:round; stroke-linejoin:round; stroke-width:4; stroke-opacity:1; fill:none" points="435.353,1195.39 435.353,1423.18 460.012,1423.18 460.012,1195.39 435.353,1195.39 "/>
<path clip-path="url(#clip571)" d="M460.012 1253.84 L460.012 1423.18 L484.67 1423.18 L484.67 1253.84 L460.012 1253.84 L460.012 1253.84  Z" fill="#009af9" fill-rule="evenodd" fill-opacity="1"/>
<polyline clip-path="url(#clip571)" style="stroke:#000000; stroke-linecap:round; stroke-linejoin:round; stroke-width:4; stroke-opacity:1; fill:none" points="460.012,1253.84 460.012,1423.18 484.67,1423.18 484.67,1253.84 460.012,1253.84 "/>
<path clip-path="url(#clip571)" d="M484.67 1271.85 L484.67 1423.18 L509.328 1423.18 L509.328 1271.85 L484.67 1271.85 L484.67 1271.85  Z" fill="#009af9" fill-rule="evenodd" fill-opacity="1"/>
<polyline clip-path="url(#clip571)" style="stroke:#000000; stroke-linecap:round; stroke-linejoin:round; stroke-width:4; stroke-opacity:1; fill:none" points="484.67,1271.85 484.67,1423.18 509.328,1423.18 509.328,1271.85 484.67,1271.85 "/>
<path clip-path="url(#clip571)" d="M509.328 1311.89 L509.328 1423.18 L533.987 1423.18 L533.987 1311.89 L509.328 1311.89 L509.328 1311.89  Z" fill="#009af9" fill-rule="evenodd" fill-opacity="1"/>
<polyline clip-path="url(#clip571)" style="stroke:#000000; stroke-linecap:round; stroke-linejoin:round; stroke-width:4; stroke-opacity:1; fill:none" points="509.328,1311.89 509.328,1423.18 533.987,1423.18 533.987,1311.89 509.328,1311.89 "/>
<path clip-path="url(#clip571)" d="M533.987 1321.9 L533.987 1423.18 L558.645 1423.18 L558.645 1321.9 L533.987 1321.9 L533.987 1321.9  Z" fill="#009af9" fill-rule="evenodd" fill-opacity="1"/>
<polyline clip-path="url(#clip571)" style="stroke:#000000; stroke-linecap:round; stroke-linejoin:round; stroke-width:4; stroke-opacity:1; fill:none" points="533.987,1321.9 533.987,1423.18 558.645,1423.18 558.645,1321.9 533.987,1321.9 "/>
<path clip-path="url(#clip571)" d="M558.645 1328.7 L558.645 1423.18 L583.304 1423.18 L583.304 1328.7 L558.645 1328.7 L558.645 1328.7  Z" fill="#009af9" fill-rule="evenodd" fill-opacity="1"/>
<polyline clip-path="url(#clip571)" style="stroke:#000000; stroke-linecap:round; stroke-linejoin:round; stroke-width:4; stroke-opacity:1; fill:none" points="558.645,1328.7 558.645,1423.18 583.304,1423.18 583.304,1328.7 558.645,1328.7 "/>
<path clip-path="url(#clip571)" d="M583.304 1350.72 L583.304 1423.18 L607.962 1423.18 L607.962 1350.72 L583.304 1350.72 L583.304 1350.72  Z" fill="#009af9" fill-rule="evenodd" fill-opacity="1"/>
<polyline clip-path="url(#clip571)" style="stroke:#000000; stroke-linecap:round; stroke-linejoin:round; stroke-width:4; stroke-opacity:1; fill:none" points="583.304,1350.72 583.304,1423.18 607.962,1423.18 607.962,1350.72 583.304,1350.72 "/>
<path clip-path="url(#clip571)" d="M607.962 1366.73 L607.962 1423.18 L632.62 1423.18 L632.62 1366.73 L607.962 1366.73 L607.962 1366.73  Z" fill="#009af9" fill-rule="evenodd" fill-opacity="1"/>
<polyline clip-path="url(#clip571)" style="stroke:#000000; stroke-linecap:round; stroke-linejoin:round; stroke-width:4; stroke-opacity:1; fill:none" points="607.962,1366.73 607.962,1423.18 632.62,1423.18 632.62,1366.73 607.962,1366.73 "/>
<path clip-path="url(#clip571)" d="M632.62 1361.13 L632.62 1423.18 L657.279 1423.18 L657.279 1361.13 L632.62 1361.13 L632.62 1361.13  Z" fill="#009af9" fill-rule="evenodd" fill-opacity="1"/>
<polyline clip-path="url(#clip571)" style="stroke:#000000; stroke-linecap:round; stroke-linejoin:round; stroke-width:4; stroke-opacity:1; fill:none" points="632.62,1361.13 632.62,1423.18 657.279,1423.18 657.279,1361.13 632.62,1361.13 "/>
<path clip-path="url(#clip571)" d="M657.279 1369.54 L657.279 1423.18 L681.937 1423.18 L681.937 1369.54 L657.279 1369.54 L657.279 1369.54  Z" fill="#009af9" fill-rule="evenodd" fill-opacity="1"/>
<polyline clip-path="url(#clip571)" style="stroke:#000000; stroke-linecap:round; stroke-linejoin:round; stroke-width:4; stroke-opacity:1; fill:none" points="657.279,1369.54 657.279,1423.18 681.937,1423.18 681.937,1369.54 657.279,1369.54 "/>
<path clip-path="url(#clip571)" d="M681.937 1389.15 L681.937 1423.18 L706.596 1423.18 L706.596 1389.15 L681.937 1389.15 L681.937 1389.15  Z" fill="#009af9" fill-rule="evenodd" fill-opacity="1"/>
<polyline clip-path="url(#clip571)" style="stroke:#000000; stroke-linecap:round; stroke-linejoin:round; stroke-width:4; stroke-opacity:1; fill:none" points="681.937,1389.15 681.937,1423.18 706.596,1423.18 706.596,1389.15 681.937,1389.15 "/>
<path clip-path="url(#clip571)" d="M706.596 1385.15 L706.596 1423.18 L731.254 1423.18 L731.254 1385.15 L706.596 1385.15 L706.596 1385.15  Z" fill="#009af9" fill-rule="evenodd" fill-opacity="1"/>
<polyline clip-path="url(#clip571)" style="stroke:#000000; stroke-linecap:round; stroke-linejoin:round; stroke-width:4; stroke-opacity:1; fill:none" points="706.596,1385.15 706.596,1423.18 731.254,1423.18 731.254,1385.15 706.596,1385.15 "/>
<path clip-path="url(#clip571)" d="M731.254 1382.35 L731.254 1423.18 L755.912 1423.18 L755.912 1382.35 L731.254 1382.35 L731.254 1382.35  Z" fill="#009af9" fill-rule="evenodd" fill-opacity="1"/>
<polyline clip-path="url(#clip571)" style="stroke:#000000; stroke-linecap:round; stroke-linejoin:round; stroke-width:4; stroke-opacity:1; fill:none" points="731.254,1382.35 731.254,1423.18 755.912,1423.18 755.912,1382.35 731.254,1382.35 "/>
<path clip-path="url(#clip571)" d="M755.912 1392.75 L755.912 1423.18 L780.571 1423.18 L780.571 1392.75 L755.912 1392.75 L755.912 1392.75  Z" fill="#009af9" fill-rule="evenodd" fill-opacity="1"/>
<polyline clip-path="url(#clip571)" style="stroke:#000000; stroke-linecap:round; stroke-linejoin:round; stroke-width:4; stroke-opacity:1; fill:none" points="755.912,1392.75 755.912,1423.18 780.571,1423.18 780.571,1392.75 755.912,1392.75 "/>
<path clip-path="url(#clip571)" d="M780.571 1399.16 L780.571 1423.18 L805.229 1423.18 L805.229 1399.16 L780.571 1399.16 L780.571 1399.16  Z" fill="#009af9" fill-rule="evenodd" fill-opacity="1"/>
<polyline clip-path="url(#clip571)" style="stroke:#000000; stroke-linecap:round; stroke-linejoin:round; stroke-width:4; stroke-opacity:1; fill:none" points="780.571,1399.16 780.571,1423.18 805.229,1423.18 805.229,1399.16 780.571,1399.16 "/>
<path clip-path="url(#clip571)" d="M805.229 1400.76 L805.229 1423.18 L829.888 1423.18 L829.888 1400.76 L805.229 1400.76 L805.229 1400.76  Z" fill="#009af9" fill-rule="evenodd" fill-opacity="1"/>
<polyline clip-path="url(#clip571)" style="stroke:#000000; stroke-linecap:round; stroke-linejoin:round; stroke-width:4; stroke-opacity:1; fill:none" points="805.229,1400.76 805.229,1423.18 829.888,1423.18 829.888,1400.76 805.229,1400.76 "/>
<path clip-path="url(#clip571)" d="M829.888 1396.76 L829.888 1423.18 L854.546 1423.18 L854.546 1396.76 L829.888 1396.76 L829.888 1396.76  Z" fill="#009af9" fill-rule="evenodd" fill-opacity="1"/>
<polyline clip-path="url(#clip571)" style="stroke:#000000; stroke-linecap:round; stroke-linejoin:round; stroke-width:4; stroke-opacity:1; fill:none" points="829.888,1396.76 829.888,1423.18 854.546,1423.18 854.546,1396.76 829.888,1396.76 "/>
<path clip-path="url(#clip571)" d="M854.546 1409.17 L854.546 1423.18 L879.204 1423.18 L879.204 1409.17 L854.546 1409.17 L854.546 1409.17  Z" fill="#009af9" fill-rule="evenodd" fill-opacity="1"/>
<polyline clip-path="url(#clip571)" style="stroke:#000000; stroke-linecap:round; stroke-linejoin:round; stroke-width:4; stroke-opacity:1; fill:none" points="854.546,1409.17 854.546,1423.18 879.204,1423.18 879.204,1409.17 854.546,1409.17 "/>
<path clip-path="url(#clip571)" d="M879.204 1408.77 L879.204 1423.18 L903.863 1423.18 L903.863 1408.77 L879.204 1408.77 L879.204 1408.77  Z" fill="#009af9" fill-rule="evenodd" fill-opacity="1"/>
<polyline clip-path="url(#clip571)" style="stroke:#000000; stroke-linecap:round; stroke-linejoin:round; stroke-width:4; stroke-opacity:1; fill:none" points="879.204,1408.77 879.204,1423.18 903.863,1423.18 903.863,1408.77 879.204,1408.77 "/>
<path clip-path="url(#clip571)" d="M903.863 1411.17 L903.863 1423.18 L928.521 1423.18 L928.521 1411.17 L903.863 1411.17 L903.863 1411.17  Z" fill="#009af9" fill-rule="evenodd" fill-opacity="1"/>
<polyline clip-path="url(#clip571)" style="stroke:#000000; stroke-linecap:round; stroke-linejoin:round; stroke-width:4; stroke-opacity:1; fill:none" points="903.863,1411.17 903.863,1423.18 928.521,1423.18 928.521,1411.17 903.863,1411.17 "/>
<path clip-path="url(#clip571)" d="M928.521 1410.77 L928.521 1423.18 L953.18 1423.18 L953.18 1410.77 L928.521 1410.77 L928.521 1410.77  Z" fill="#009af9" fill-rule="evenodd" fill-opacity="1"/>
<polyline clip-path="url(#clip571)" style="stroke:#000000; stroke-linecap:round; stroke-linejoin:round; stroke-width:4; stroke-opacity:1; fill:none" points="928.521,1410.77 928.521,1423.18 953.18,1423.18 953.18,1410.77 928.521,1410.77 "/>
<path clip-path="url(#clip571)" d="M953.18 1409.97 L953.18 1423.18 L977.838 1423.18 L977.838 1409.97 L953.18 1409.97 L953.18 1409.97  Z" fill="#009af9" fill-rule="evenodd" fill-opacity="1"/>
<polyline clip-path="url(#clip571)" style="stroke:#000000; stroke-linecap:round; stroke-linejoin:round; stroke-width:4; stroke-opacity:1; fill:none" points="953.18,1409.97 953.18,1423.18 977.838,1423.18 977.838,1409.97 953.18,1409.97 "/>
<path clip-path="url(#clip571)" d="M977.838 1413.57 L977.838 1423.18 L1002.5 1423.18 L1002.5 1413.57 L977.838 1413.57 L977.838 1413.57  Z" fill="#009af9" fill-rule="evenodd" fill-opacity="1"/>
<polyline clip-path="url(#clip571)" style="stroke:#000000; stroke-linecap:round; stroke-linejoin:round; stroke-width:4; stroke-opacity:1; fill:none" points="977.838,1413.57 977.838,1423.18 1002.5,1423.18 1002.5,1413.57 977.838,1413.57 "/>
<path clip-path="url(#clip571)" d="M1002.5 1411.97 L1002.5 1423.18 L1027.15 1423.18 L1027.15 1411.97 L1002.5 1411.97 L1002.5 1411.97  Z" fill="#009af9" fill-rule="evenodd" fill-opacity="1"/>
<polyline clip-path="url(#clip571)" style="stroke:#000000; stroke-linecap:round; stroke-linejoin:round; stroke-width:4; stroke-opacity:1; fill:none" points="1002.5,1411.97 1002.5,1423.18 1027.15,1423.18 1027.15,1411.97 1002.5,1411.97 "/>
<path clip-path="url(#clip571)" d="M1027.15 1415.97 L1027.15 1423.18 L1051.81 1423.18 L1051.81 1415.97 L1027.15 1415.97 L1027.15 1415.97  Z" fill="#009af9" fill-rule="evenodd" fill-opacity="1"/>
<polyline clip-path="url(#clip571)" style="stroke:#000000; stroke-linecap:round; stroke-linejoin:round; stroke-width:4; stroke-opacity:1; fill:none" points="1027.15,1415.97 1027.15,1423.18 1051.81,1423.18 1051.81,1415.97 1027.15,1415.97 "/>
<path clip-path="url(#clip571)" d="M1051.81 1415.97 L1051.81 1423.18 L1076.47 1423.18 L1076.47 1415.97 L1051.81 1415.97 L1051.81 1415.97  Z" fill="#009af9" fill-rule="evenodd" fill-opacity="1"/>
<polyline clip-path="url(#clip571)" style="stroke:#000000; stroke-linecap:round; stroke-linejoin:round; stroke-width:4; stroke-opacity:1; fill:none" points="1051.81,1415.97 1051.81,1423.18 1076.47,1423.18 1076.47,1415.97 1051.81,1415.97 "/>
<path clip-path="url(#clip571)" d="M1076.47 1413.57 L1076.47 1423.18 L1101.13 1423.18 L1101.13 1413.57 L1076.47 1413.57 L1076.47 1413.57  Z" fill="#009af9" fill-rule="evenodd" fill-opacity="1"/>
<polyline clip-path="url(#clip571)" style="stroke:#000000; stroke-linecap:round; stroke-linejoin:round; stroke-width:4; stroke-opacity:1; fill:none" points="1076.47,1413.57 1076.47,1423.18 1101.13,1423.18 1101.13,1413.57 1076.47,1413.57 "/>
<path clip-path="url(#clip571)" d="M1101.13 1418.78 L1101.13 1423.18 L1125.79 1423.18 L1125.79 1418.78 L1101.13 1418.78 L1101.13 1418.78  Z" fill="#009af9" fill-rule="evenodd" fill-opacity="1"/>
<polyline clip-path="url(#clip571)" style="stroke:#000000; stroke-linecap:round; stroke-linejoin:round; stroke-width:4; stroke-opacity:1; fill:none" points="1101.13,1418.78 1101.13,1423.18 1125.79,1423.18 1125.79,1418.78 1101.13,1418.78 "/>
<path clip-path="url(#clip571)" d="M1125.79 1419.18 L1125.79 1423.18 L1150.45 1423.18 L1150.45 1419.18 L1125.79 1419.18 L1125.79 1419.18  Z" fill="#009af9" fill-rule="evenodd" fill-opacity="1"/>
<polyline clip-path="url(#clip571)" style="stroke:#000000; stroke-linecap:round; stroke-linejoin:round; stroke-width:4; stroke-opacity:1; fill:none" points="1125.79,1419.18 1125.79,1423.18 1150.45,1423.18 1150.45,1419.18 1125.79,1419.18 "/>
<path clip-path="url(#clip571)" d="M1150.45 1419.58 L1150.45 1423.18 L1175.11 1423.18 L1175.11 1419.58 L1150.45 1419.58 L1150.45 1419.58  Z" fill="#009af9" fill-rule="evenodd" fill-opacity="1"/>
<polyline clip-path="url(#clip571)" style="stroke:#000000; stroke-linecap:round; stroke-linejoin:round; stroke-width:4; stroke-opacity:1; fill:none" points="1150.45,1419.58 1150.45,1423.18 1175.11,1423.18 1175.11,1419.58 1150.45,1419.58 "/>
<path clip-path="url(#clip571)" d="M1175.11 1417.98 L1175.11 1423.18 L1199.76 1423.18 L1199.76 1417.98 L1175.11 1417.98 L1175.11 1417.98  Z" fill="#009af9" fill-rule="evenodd" fill-opacity="1"/>
<polyline clip-path="url(#clip571)" style="stroke:#000000; stroke-linecap:round; stroke-linejoin:round; stroke-width:4; stroke-opacity:1; fill:none" points="1175.11,1417.98 1175.11,1423.18 1199.76,1423.18 1199.76,1417.98 1175.11,1417.98 "/>
<path clip-path="url(#clip571)" d="M1199.76 1421.18 L1199.76 1423.18 L1224.42 1423.18 L1224.42 1421.18 L1199.76 1421.18 L1199.76 1421.18  Z" fill="#009af9" fill-rule="evenodd" fill-opacity="1"/>
<polyline clip-path="url(#clip571)" style="stroke:#000000; stroke-linecap:round; stroke-linejoin:round; stroke-width:4; stroke-opacity:1; fill:none" points="1199.76,1421.18 1199.76,1423.18 1224.42,1423.18 1224.42,1421.18 1199.76,1421.18 "/>
<path clip-path="url(#clip571)" d="M1224.42 1419.98 L1224.42 1423.18 L1249.08 1423.18 L1249.08 1419.98 L1224.42 1419.98 L1224.42 1419.98  Z" fill="#009af9" fill-rule="evenodd" fill-opacity="1"/>
<polyline clip-path="url(#clip571)" style="stroke:#000000; stroke-linecap:round; stroke-linejoin:round; stroke-width:4; stroke-opacity:1; fill:none" points="1224.42,1419.98 1224.42,1423.18 1249.08,1423.18 1249.08,1419.98 1224.42,1419.98 "/>
<path clip-path="url(#clip571)" d="M1249.08 1420.78 L1249.08 1423.18 L1273.74 1423.18 L1273.74 1420.78 L1249.08 1420.78 L1249.08 1420.78  Z" fill="#009af9" fill-rule="evenodd" fill-opacity="1"/>
<polyline clip-path="url(#clip571)" style="stroke:#000000; stroke-linecap:round; stroke-linejoin:round; stroke-width:4; stroke-opacity:1; fill:none" points="1249.08,1420.78 1249.08,1423.18 1273.74,1423.18 1273.74,1420.78 1249.08,1420.78 "/>
<path clip-path="url(#clip571)" d="M1273.74 1420.78 L1273.74 1423.18 L1298.4 1423.18 L1298.4 1420.78 L1273.74 1420.78 L1273.74 1420.78  Z" fill="#009af9" fill-rule="evenodd" fill-opacity="1"/>
<polyline clip-path="url(#clip571)" style="stroke:#000000; stroke-linecap:round; stroke-linejoin:round; stroke-width:4; stroke-opacity:1; fill:none" points="1273.74,1420.78 1273.74,1423.18 1298.4,1423.18 1298.4,1420.78 1273.74,1420.78 "/>
<path clip-path="url(#clip571)" d="M1298.4 1419.98 L1298.4 1423.18 L1323.06 1423.18 L1323.06 1419.98 L1298.4 1419.98 L1298.4 1419.98  Z" fill="#009af9" fill-rule="evenodd" fill-opacity="1"/>
<polyline clip-path="url(#clip571)" style="stroke:#000000; stroke-linecap:round; stroke-linejoin:round; stroke-width:4; stroke-opacity:1; fill:none" points="1298.4,1419.98 1298.4,1423.18 1323.06,1423.18 1323.06,1419.98 1298.4,1419.98 "/>
<path clip-path="url(#clip571)" d="M1323.06 1421.98 L1323.06 1423.18 L1347.71 1423.18 L1347.71 1421.98 L1323.06 1421.98 L1323.06 1421.98  Z" fill="#009af9" fill-rule="evenodd" fill-opacity="1"/>
<polyline clip-path="url(#clip571)" style="stroke:#000000; stroke-linecap:round; stroke-linejoin:round; stroke-width:4; stroke-opacity:1; fill:none" points="1323.06,1421.98 1323.06,1423.18 1347.71,1423.18 1347.71,1421.98 1323.06,1421.98 "/>
<path clip-path="url(#clip571)" d="M1347.71 1420.38 L1347.71 1423.18 L1372.37 1423.18 L1372.37 1420.38 L1347.71 1420.38 L1347.71 1420.38  Z" fill="#009af9" fill-rule="evenodd" fill-opacity="1"/>
<polyline clip-path="url(#clip571)" style="stroke:#000000; stroke-linecap:round; stroke-linejoin:round; stroke-width:4; stroke-opacity:1; fill:none" points="1347.71,1420.38 1347.71,1423.18 1372.37,1423.18 1372.37,1420.38 1347.71,1420.38 "/>
<path clip-path="url(#clip571)" d="M1372.37 1421.98 L1372.37 1423.18 L1397.03 1423.18 L1397.03 1421.98 L1372.37 1421.98 L1372.37 1421.98  Z" fill="#009af9" fill-rule="evenodd" fill-opacity="1"/>
<polyline clip-path="url(#clip571)" style="stroke:#000000; stroke-linecap:round; stroke-linejoin:round; stroke-width:4; stroke-opacity:1; fill:none" points="1372.37,1421.98 1372.37,1423.18 1397.03,1423.18 1397.03,1421.98 1372.37,1421.98 "/>
<path clip-path="url(#clip571)" d="M1397.03 1421.98 L1397.03 1423.18 L1421.69 1423.18 L1421.69 1421.98 L1397.03 1421.98 L1397.03 1421.98  Z" fill="#009af9" fill-rule="evenodd" fill-opacity="1"/>
<polyline clip-path="url(#clip571)" style="stroke:#000000; stroke-linecap:round; stroke-linejoin:round; stroke-width:4; stroke-opacity:1; fill:none" points="1397.03,1421.98 1397.03,1423.18 1421.69,1423.18 1421.69,1421.98 1397.03,1421.98 "/>
<path clip-path="url(#clip571)" d="M1421.69 1421.58 L1421.69 1423.18 L1446.35 1423.18 L1446.35 1421.58 L1421.69 1421.58 L1421.69 1421.58  Z" fill="#009af9" fill-rule="evenodd" fill-opacity="1"/>
<polyline clip-path="url(#clip571)" style="stroke:#000000; stroke-linecap:round; stroke-linejoin:round; stroke-width:4; stroke-opacity:1; fill:none" points="1421.69,1421.58 1421.69,1423.18 1446.35,1423.18 1446.35,1421.58 1421.69,1421.58 "/>
<path clip-path="url(#clip571)" d="M1446.35 1421.98 L1446.35 1423.18 L1471.01 1423.18 L1471.01 1421.98 L1446.35 1421.98 L1446.35 1421.98  Z" fill="#009af9" fill-rule="evenodd" fill-opacity="1"/>
<polyline clip-path="url(#clip571)" style="stroke:#000000; stroke-linecap:round; stroke-linejoin:round; stroke-width:4; stroke-opacity:1; fill:none" points="1446.35,1421.98 1446.35,1423.18 1471.01,1423.18 1471.01,1421.98 1446.35,1421.98 "/>
<path clip-path="url(#clip571)" d="M1471.01 1421.18 L1471.01 1423.18 L1495.66 1423.18 L1495.66 1421.18 L1471.01 1421.18 L1471.01 1421.18  Z" fill="#009af9" fill-rule="evenodd" fill-opacity="1"/>
<polyline clip-path="url(#clip571)" style="stroke:#000000; stroke-linecap:round; stroke-linejoin:round; stroke-width:4; stroke-opacity:1; fill:none" points="1471.01,1421.18 1471.01,1423.18 1495.66,1423.18 1495.66,1421.18 1471.01,1421.18 "/>
<path clip-path="url(#clip571)" d="M1495.66 1422.38 L1495.66 1423.18 L1520.32 1423.18 L1520.32 1422.38 L1495.66 1422.38 L1495.66 1422.38  Z" fill="#009af9" fill-rule="evenodd" fill-opacity="1"/>
<polyline clip-path="url(#clip571)" style="stroke:#000000; stroke-linecap:round; stroke-linejoin:round; stroke-width:4; stroke-opacity:1; fill:none" points="1495.66,1422.38 1495.66,1423.18 1520.32,1423.18 1520.32,1422.38 1495.66,1422.38 "/>
<path clip-path="url(#clip571)" d="M1520.32 1421.58 L1520.32 1423.18 L1544.98 1423.18 L1544.98 1421.58 L1520.32 1421.58 L1520.32 1421.58  Z" fill="#009af9" fill-rule="evenodd" fill-opacity="1"/>
<polyline clip-path="url(#clip571)" style="stroke:#000000; stroke-linecap:round; stroke-linejoin:round; stroke-width:4; stroke-opacity:1; fill:none" points="1520.32,1421.58 1520.32,1423.18 1544.98,1423.18 1544.98,1421.58 1520.32,1421.58 "/>
<path clip-path="url(#clip571)" d="M1544.98 1422.38 L1544.98 1423.18 L1569.64 1423.18 L1569.64 1422.38 L1544.98 1422.38 L1544.98 1422.38  Z" fill="#009af9" fill-rule="evenodd" fill-opacity="1"/>
<polyline clip-path="url(#clip571)" style="stroke:#000000; stroke-linecap:round; stroke-linejoin:round; stroke-width:4; stroke-opacity:1; fill:none" points="1544.98,1422.38 1544.98,1423.18 1569.64,1423.18 1569.64,1422.38 1544.98,1422.38 "/>
<path clip-path="url(#clip571)" d="M1569.64 1423.18 L1569.64 1423.18 L1594.3 1423.18 L1594.3 1423.18 L1569.64 1423.18 L1569.64 1423.18  Z" fill="#009af9" fill-rule="evenodd" fill-opacity="1"/>
<polyline clip-path="url(#clip571)" style="stroke:#000000; stroke-linecap:round; stroke-linejoin:round; stroke-width:4; stroke-opacity:1; fill:none" points="1569.64,1423.18 1569.64,1423.18 1594.3,1423.18 1569.64,1423.18 "/>
<path clip-path="url(#clip571)" d="M1594.3 1422.38 L1594.3 1423.18 L1618.96 1423.18 L1618.96 1422.38 L1594.3 1422.38 L1594.3 1422.38  Z" fill="#009af9" fill-rule="evenodd" fill-opacity="1"/>
<polyline clip-path="url(#clip571)" style="stroke:#000000; stroke-linecap:round; stroke-linejoin:round; stroke-width:4; stroke-opacity:1; fill:none" points="1594.3,1422.38 1594.3,1423.18 1618.96,1423.18 1618.96,1422.38 1594.3,1422.38 "/>
<path clip-path="url(#clip571)" d="M1618.96 1422.78 L1618.96 1423.18 L1643.61 1423.18 L1643.61 1422.78 L1618.96 1422.78 L1618.96 1422.78  Z" fill="#009af9" fill-rule="evenodd" fill-opacity="1"/>
<polyline clip-path="url(#clip571)" style="stroke:#000000; stroke-linecap:round; stroke-linejoin:round; stroke-width:4; stroke-opacity:1; fill:none" points="1618.96,1422.78 1618.96,1423.18 1643.61,1423.18 1643.61,1422.78 1618.96,1422.78 "/>
<path clip-path="url(#clip571)" d="M1643.61 1423.18 L1643.61 1423.18 L1668.27 1423.18 L1668.27 1423.18 L1643.61 1423.18 L1643.61 1423.18  Z" fill="#009af9" fill-rule="evenodd" fill-opacity="1"/>
<polyline clip-path="url(#clip571)" style="stroke:#000000; stroke-linecap:round; stroke-linejoin:round; stroke-width:4; stroke-opacity:1; fill:none" points="1643.61,1423.18 1643.61,1423.18 1668.27,1423.18 1643.61,1423.18 "/>
<path clip-path="url(#clip571)" d="M1668.27 1422.78 L1668.27 1423.18 L1692.93 1423.18 L1692.93 1422.78 L1668.27 1422.78 L1668.27 1422.78  Z" fill="#009af9" fill-rule="evenodd" fill-opacity="1"/>
<polyline clip-path="url(#clip571)" style="stroke:#000000; stroke-linecap:round; stroke-linejoin:round; stroke-width:4; stroke-opacity:1; fill:none" points="1668.27,1422.78 1668.27,1423.18 1692.93,1423.18 1692.93,1422.78 1668.27,1422.78 "/>
<path clip-path="url(#clip571)" d="M1692.93 1422.78 L1692.93 1423.18 L1717.59 1423.18 L1717.59 1422.78 L1692.93 1422.78 L1692.93 1422.78  Z" fill="#009af9" fill-rule="evenodd" fill-opacity="1"/>
<polyline clip-path="url(#clip571)" style="stroke:#000000; stroke-linecap:round; stroke-linejoin:round; stroke-width:4; stroke-opacity:1; fill:none" points="1692.93,1422.78 1692.93,1423.18 1717.59,1423.18 1717.59,1422.78 1692.93,1422.78 "/>
<path clip-path="url(#clip571)" d="M1717.59 1422.38 L1717.59 1423.18 L1742.25 1423.18 L1742.25 1422.38 L1717.59 1422.38 L1717.59 1422.38  Z" fill="#009af9" fill-rule="evenodd" fill-opacity="1"/>
<polyline clip-path="url(#clip571)" style="stroke:#000000; stroke-linecap:round; stroke-linejoin:round; stroke-width:4; stroke-opacity:1; fill:none" points="1717.59,1422.38 1717.59,1423.18 1742.25,1423.18 1742.25,1422.38 1717.59,1422.38 "/>
<path clip-path="url(#clip571)" d="M1742.25 1422.78 L1742.25 1423.18 L1766.91 1423.18 L1766.91 1422.78 L1742.25 1422.78 L1742.25 1422.78  Z" fill="#009af9" fill-rule="evenodd" fill-opacity="1"/>
<polyline clip-path="url(#clip571)" style="stroke:#000000; stroke-linecap:round; stroke-linejoin:round; stroke-width:4; stroke-opacity:1; fill:none" points="1742.25,1422.78 1742.25,1423.18 1766.91,1423.18 1766.91,1422.78 1742.25,1422.78 "/>
<path clip-path="url(#clip571)" d="M1766.91 1422.38 L1766.91 1423.18 L1791.57 1423.18 L1791.57 1422.38 L1766.91 1422.38 L1766.91 1422.38  Z" fill="#009af9" fill-rule="evenodd" fill-opacity="1"/>
<polyline clip-path="url(#clip571)" style="stroke:#000000; stroke-linecap:round; stroke-linejoin:round; stroke-width:4; stroke-opacity:1; fill:none" points="1766.91,1422.38 1766.91,1423.18 1791.57,1423.18 1791.57,1422.38 1766.91,1422.38 "/>
<path clip-path="url(#clip571)" d="M1791.57 1423.18 L1791.57 1423.18 L1816.22 1423.18 L1816.22 1423.18 L1791.57 1423.18 L1791.57 1423.18  Z" fill="#009af9" fill-rule="evenodd" fill-opacity="1"/>
<polyline clip-path="url(#clip571)" style="stroke:#000000; stroke-linecap:round; stroke-linejoin:round; stroke-width:4; stroke-opacity:1; fill:none" points="1791.57,1423.18 1791.57,1423.18 1816.22,1423.18 1791.57,1423.18 "/>
<path clip-path="url(#clip571)" d="M1816.22 1422.78 L1816.22 1423.18 L1840.88 1423.18 L1840.88 1422.78 L1816.22 1422.78 L1816.22 1422.78  Z" fill="#009af9" fill-rule="evenodd" fill-opacity="1"/>
<polyline clip-path="url(#clip571)" style="stroke:#000000; stroke-linecap:round; stroke-linejoin:round; stroke-width:4; stroke-opacity:1; fill:none" points="1816.22,1422.78 1816.22,1423.18 1840.88,1423.18 1840.88,1422.78 1816.22,1422.78 "/>
<path clip-path="url(#clip571)" d="M1840.88 1423.18 L1840.88 1423.18 L1865.54 1423.18 L1865.54 1423.18 L1840.88 1423.18 L1840.88 1423.18  Z" fill="#009af9" fill-rule="evenodd" fill-opacity="1"/>
<polyline clip-path="url(#clip571)" style="stroke:#000000; stroke-linecap:round; stroke-linejoin:round; stroke-width:4; stroke-opacity:1; fill:none" points="1840.88,1423.18 1840.88,1423.18 1865.54,1423.18 1840.88,1423.18 "/>
<path clip-path="url(#clip571)" d="M1865.54 1423.18 L1865.54 1423.18 L1890.2 1423.18 L1890.2 1423.18 L1865.54 1423.18 L1865.54 1423.18  Z" fill="#009af9" fill-rule="evenodd" fill-opacity="1"/>
<polyline clip-path="url(#clip571)" style="stroke:#000000; stroke-linecap:round; stroke-linejoin:round; stroke-width:4; stroke-opacity:1; fill:none" points="1865.54,1423.18 1865.54,1423.18 1890.2,1423.18 1865.54,1423.18 "/>
<path clip-path="url(#clip571)" d="M1890.2 1423.18 L1890.2 1423.18 L1914.86 1423.18 L1914.86 1423.18 L1890.2 1423.18 L1890.2 1423.18  Z" fill="#009af9" fill-rule="evenodd" fill-opacity="1"/>
<polyline clip-path="url(#clip571)" style="stroke:#000000; stroke-linecap:round; stroke-linejoin:round; stroke-width:4; stroke-opacity:1; fill:none" points="1890.2,1423.18 1890.2,1423.18 1914.86,1423.18 1890.2,1423.18 "/>
<path clip-path="url(#clip571)" d="M1914.86 1423.18 L1914.86 1423.18 L1939.52 1423.18 L1939.52 1423.18 L1914.86 1423.18 L1914.86 1423.18  Z" fill="#009af9" fill-rule="evenodd" fill-opacity="1"/>
<polyline clip-path="url(#clip571)" style="stroke:#000000; stroke-linecap:round; stroke-linejoin:round; stroke-width:4; stroke-opacity:1; fill:none" points="1914.86,1423.18 1914.86,1423.18 1939.52,1423.18 1914.86,1423.18 "/>
<path clip-path="url(#clip571)" d="M1939.52 1423.18 L1939.52 1423.18 L1964.17 1423.18 L1964.17 1423.18 L1939.52 1423.18 L1939.52 1423.18  Z" fill="#009af9" fill-rule="evenodd" fill-opacity="1"/>
<polyline clip-path="url(#clip571)" style="stroke:#000000; stroke-linecap:round; stroke-linejoin:round; stroke-width:4; stroke-opacity:1; fill:none" points="1939.52,1423.18 1939.52,1423.18 1964.17,1423.18 1939.52,1423.18 "/>
<path clip-path="url(#clip571)" d="M1964.17 1422.78 L1964.17 1423.18 L1988.83 1423.18 L1988.83 1422.78 L1964.17 1422.78 L1964.17 1422.78  Z" fill="#009af9" fill-rule="evenodd" fill-opacity="1"/>
<polyline clip-path="url(#clip571)" style="stroke:#000000; stroke-linecap:round; stroke-linejoin:round; stroke-width:4; stroke-opacity:1; fill:none" points="1964.17,1422.78 1964.17,1423.18 1988.83,1423.18 1988.83,1422.78 1964.17,1422.78 "/>
<path clip-path="url(#clip571)" d="M1988.83 1423.18 L1988.83 1423.18 L2013.49 1423.18 L2013.49 1423.18 L1988.83 1423.18 L1988.83 1423.18  Z" fill="#009af9" fill-rule="evenodd" fill-opacity="1"/>
<polyline clip-path="url(#clip571)" style="stroke:#000000; stroke-linecap:round; stroke-linejoin:round; stroke-width:4; stroke-opacity:1; fill:none" points="1988.83,1423.18 1988.83,1423.18 2013.49,1423.18 1988.83,1423.18 "/>
<path clip-path="url(#clip571)" d="M2013.49 1423.18 L2013.49 1423.18 L2038.15 1423.18 L2038.15 1423.18 L2013.49 1423.18 L2013.49 1423.18  Z" fill="#009af9" fill-rule="evenodd" fill-opacity="1"/>
<polyline clip-path="url(#clip571)" style="stroke:#000000; stroke-linecap:round; stroke-linejoin:round; stroke-width:4; stroke-opacity:1; fill:none" points="2013.49,1423.18 2013.49,1423.18 2038.15,1423.18 2013.49,1423.18 "/>
<path clip-path="url(#clip571)" d="M2038.15 1423.18 L2038.15 1423.18 L2062.81 1423.18 L2062.81 1423.18 L2038.15 1423.18 L2038.15 1423.18  Z" fill="#009af9" fill-rule="evenodd" fill-opacity="1"/>
<polyline clip-path="url(#clip571)" style="stroke:#000000; stroke-linecap:round; stroke-linejoin:round; stroke-width:4; stroke-opacity:1; fill:none" points="2038.15,1423.18 2038.15,1423.18 2062.81,1423.18 2038.15,1423.18 "/>
<path clip-path="url(#clip571)" d="M2062.81 1423.18 L2062.81 1423.18 L2087.47 1423.18 L2087.47 1423.18 L2062.81 1423.18 L2062.81 1423.18  Z" fill="#009af9" fill-rule="evenodd" fill-opacity="1"/>
<polyline clip-path="url(#clip571)" style="stroke:#000000; stroke-linecap:round; stroke-linejoin:round; stroke-width:4; stroke-opacity:1; fill:none" points="2062.81,1423.18 2062.81,1423.18 2087.47,1423.18 2062.81,1423.18 "/>
<path clip-path="url(#clip571)" d="M2087.47 1422.78 L2087.47 1423.18 L2112.12 1423.18 L2112.12 1422.78 L2087.47 1422.78 L2087.47 1422.78  Z" fill="#009af9" fill-rule="evenodd" fill-opacity="1"/>
<polyline clip-path="url(#clip571)" style="stroke:#000000; stroke-linecap:round; stroke-linejoin:round; stroke-width:4; stroke-opacity:1; fill:none" points="2087.47,1422.78 2087.47,1423.18 2112.12,1423.18 2112.12,1422.78 2087.47,1422.78 "/>
<path clip-path="url(#clip571)" d="M2112.12 1422.78 L2112.12 1423.18 L2136.78 1423.18 L2136.78 1422.78 L2112.12 1422.78 L2112.12 1422.78  Z" fill="#009af9" fill-rule="evenodd" fill-opacity="1"/>
<polyline clip-path="url(#clip571)" style="stroke:#000000; stroke-linecap:round; stroke-linejoin:round; stroke-width:4; stroke-opacity:1; fill:none" points="2112.12,1422.78 2112.12,1423.18 2136.78,1423.18 2136.78,1422.78 2112.12,1422.78 "/>
<path clip-path="url(#clip571)" d="M2136.78 1423.18 L2136.78 1423.18 L2161.44 1423.18 L2161.44 1423.18 L2136.78 1423.18 L2136.78 1423.18  Z" fill="#009af9" fill-rule="evenodd" fill-opacity="1"/>
<polyline clip-path="url(#clip571)" style="stroke:#000000; stroke-linecap:round; stroke-linejoin:round; stroke-width:4; stroke-opacity:1; fill:none" points="2136.78,1423.18 2136.78,1423.18 2161.44,1423.18 2136.78,1423.18 "/>
<path clip-path="url(#clip571)" d="M2161.44 1422.78 L2161.44 1423.18 L2186.1 1423.18 L2186.1 1422.78 L2161.44 1422.78 L2161.44 1422.78  Z" fill="#009af9" fill-rule="evenodd" fill-opacity="1"/>
<polyline clip-path="url(#clip571)" style="stroke:#000000; stroke-linecap:round; stroke-linejoin:round; stroke-width:4; stroke-opacity:1; fill:none" points="2161.44,1422.78 2161.44,1423.18 2186.1,1423.18 2186.1,1422.78 2161.44,1422.78 "/>
<path clip-path="url(#clip571)" d="M2186.1 1423.18 L2186.1 1423.18 L2210.76 1423.18 L2210.76 1423.18 L2186.1 1423.18 L2186.1 1423.18  Z" fill="#009af9" fill-rule="evenodd" fill-opacity="1"/>
<polyline clip-path="url(#clip571)" style="stroke:#000000; stroke-linecap:round; stroke-linejoin:round; stroke-width:4; stroke-opacity:1; fill:none" points="2186.1,1423.18 2186.1,1423.18 2210.76,1423.18 2186.1,1423.18 "/>
<path clip-path="url(#clip571)" d="M2210.76 1422.78 L2210.76 1423.18 L2235.42 1423.18 L2235.42 1422.78 L2210.76 1422.78 L2210.76 1422.78  Z" fill="#009af9" fill-rule="evenodd" fill-opacity="1"/>
<polyline clip-path="url(#clip571)" style="stroke:#000000; stroke-linecap:round; stroke-linejoin:round; stroke-width:4; stroke-opacity:1; fill:none" points="2210.76,1422.78 2210.76,1423.18 2235.42,1423.18 2235.42,1422.78 2210.76,1422.78 "/>
<circle clip-path="url(#clip571)" style="fill:#009af9; stroke:none; fill-opacity:0" cx="349.049" cy="47.2441" r="2"/>
<circle clip-path="url(#clip571)" style="fill:#009af9; stroke:none; fill-opacity:0" cx="373.707" cy="899.548" r="2"/>
<circle clip-path="url(#clip571)" style="fill:#009af9; stroke:none; fill-opacity:0" cx="398.366" cy="1066.89" r="2"/>
<circle clip-path="url(#clip571)" style="fill:#009af9; stroke:none; fill-opacity:0" cx="423.024" cy="1154.16" r="2"/>
<circle clip-path="url(#clip571)" style="fill:#009af9; stroke:none; fill-opacity:0" cx="447.682" cy="1195.39" r="2"/>
<circle clip-path="url(#clip571)" style="fill:#009af9; stroke:none; fill-opacity:0" cx="472.341" cy="1253.84" r="2"/>
<circle clip-path="url(#clip571)" style="fill:#009af9; stroke:none; fill-opacity:0" cx="496.999" cy="1271.85" r="2"/>
<circle clip-path="url(#clip571)" style="fill:#009af9; stroke:none; fill-opacity:0" cx="521.658" cy="1311.89" r="2"/>
<circle clip-path="url(#clip571)" style="fill:#009af9; stroke:none; fill-opacity:0" cx="546.316" cy="1321.9" r="2"/>
<circle clip-path="url(#clip571)" style="fill:#009af9; stroke:none; fill-opacity:0" cx="570.974" cy="1328.7" r="2"/>
<circle clip-path="url(#clip571)" style="fill:#009af9; stroke:none; fill-opacity:0" cx="595.633" cy="1350.72" r="2"/>
<circle clip-path="url(#clip571)" style="fill:#009af9; stroke:none; fill-opacity:0" cx="620.291" cy="1366.73" r="2"/>
<circle clip-path="url(#clip571)" style="fill:#009af9; stroke:none; fill-opacity:0" cx="644.95" cy="1361.13" r="2"/>
<circle clip-path="url(#clip571)" style="fill:#009af9; stroke:none; fill-opacity:0" cx="669.608" cy="1369.54" r="2"/>
<circle clip-path="url(#clip571)" style="fill:#009af9; stroke:none; fill-opacity:0" cx="694.266" cy="1389.15" r="2"/>
<circle clip-path="url(#clip571)" style="fill:#009af9; stroke:none; fill-opacity:0" cx="718.925" cy="1385.15" r="2"/>
<circle clip-path="url(#clip571)" style="fill:#009af9; stroke:none; fill-opacity:0" cx="743.583" cy="1382.35" r="2"/>
<circle clip-path="url(#clip571)" style="fill:#009af9; stroke:none; fill-opacity:0" cx="768.242" cy="1392.75" r="2"/>
<circle clip-path="url(#clip571)" style="fill:#009af9; stroke:none; fill-opacity:0" cx="792.9" cy="1399.16" r="2"/>
<circle clip-path="url(#clip571)" style="fill:#009af9; stroke:none; fill-opacity:0" cx="817.558" cy="1400.76" r="2"/>
<circle clip-path="url(#clip571)" style="fill:#009af9; stroke:none; fill-opacity:0" cx="842.217" cy="1396.76" r="2"/>
<circle clip-path="url(#clip571)" style="fill:#009af9; stroke:none; fill-opacity:0" cx="866.875" cy="1409.17" r="2"/>
<circle clip-path="url(#clip571)" style="fill:#009af9; stroke:none; fill-opacity:0" cx="891.534" cy="1408.77" r="2"/>
<circle clip-path="url(#clip571)" style="fill:#009af9; stroke:none; fill-opacity:0" cx="916.192" cy="1411.17" r="2"/>
<circle clip-path="url(#clip571)" style="fill:#009af9; stroke:none; fill-opacity:0" cx="940.85" cy="1410.77" r="2"/>
<circle clip-path="url(#clip571)" style="fill:#009af9; stroke:none; fill-opacity:0" cx="965.509" cy="1409.97" r="2"/>
<circle clip-path="url(#clip571)" style="fill:#009af9; stroke:none; fill-opacity:0" cx="990.167" cy="1413.57" r="2"/>
<circle clip-path="url(#clip571)" style="fill:#009af9; stroke:none; fill-opacity:0" cx="1014.83" cy="1411.97" r="2"/>
<circle clip-path="url(#clip571)" style="fill:#009af9; stroke:none; fill-opacity:0" cx="1039.48" cy="1415.97" r="2"/>
<circle clip-path="url(#clip571)" style="fill:#009af9; stroke:none; fill-opacity:0" cx="1064.14" cy="1415.97" r="2"/>
<circle clip-path="url(#clip571)" style="fill:#009af9; stroke:none; fill-opacity:0" cx="1088.8" cy="1413.57" r="2"/>
<circle clip-path="url(#clip571)" style="fill:#009af9; stroke:none; fill-opacity:0" cx="1113.46" cy="1418.78" r="2"/>
<circle clip-path="url(#clip571)" style="fill:#009af9; stroke:none; fill-opacity:0" cx="1138.12" cy="1419.18" r="2"/>
<circle clip-path="url(#clip571)" style="fill:#009af9; stroke:none; fill-opacity:0" cx="1162.78" cy="1419.58" r="2"/>
<circle clip-path="url(#clip571)" style="fill:#009af9; stroke:none; fill-opacity:0" cx="1187.43" cy="1417.98" r="2"/>
<circle clip-path="url(#clip571)" style="fill:#009af9; stroke:none; fill-opacity:0" cx="1212.09" cy="1421.18" r="2"/>
<circle clip-path="url(#clip571)" style="fill:#009af9; stroke:none; fill-opacity:0" cx="1236.75" cy="1419.98" r="2"/>
<circle clip-path="url(#clip571)" style="fill:#009af9; stroke:none; fill-opacity:0" cx="1261.41" cy="1420.78" r="2"/>
<circle clip-path="url(#clip571)" style="fill:#009af9; stroke:none; fill-opacity:0" cx="1286.07" cy="1420.78" r="2"/>
<circle clip-path="url(#clip571)" style="fill:#009af9; stroke:none; fill-opacity:0" cx="1310.73" cy="1419.98" r="2"/>
<circle clip-path="url(#clip571)" style="fill:#009af9; stroke:none; fill-opacity:0" cx="1335.38" cy="1421.98" r="2"/>
<circle clip-path="url(#clip571)" style="fill:#009af9; stroke:none; fill-opacity:0" cx="1360.04" cy="1420.38" r="2"/>
<circle clip-path="url(#clip571)" style="fill:#009af9; stroke:none; fill-opacity:0" cx="1384.7" cy="1421.98" r="2"/>
<circle clip-path="url(#clip571)" style="fill:#009af9; stroke:none; fill-opacity:0" cx="1409.36" cy="1421.98" r="2"/>
<circle clip-path="url(#clip571)" style="fill:#009af9; stroke:none; fill-opacity:0" cx="1434.02" cy="1421.58" r="2"/>
<circle clip-path="url(#clip571)" style="fill:#009af9; stroke:none; fill-opacity:0" cx="1458.68" cy="1421.98" r="2"/>
<circle clip-path="url(#clip571)" style="fill:#009af9; stroke:none; fill-opacity:0" cx="1483.34" cy="1421.18" r="2"/>
<circle clip-path="url(#clip571)" style="fill:#009af9; stroke:none; fill-opacity:0" cx="1507.99" cy="1422.38" r="2"/>
<circle clip-path="url(#clip571)" style="fill:#009af9; stroke:none; fill-opacity:0" cx="1532.65" cy="1421.58" r="2"/>
<circle clip-path="url(#clip571)" style="fill:#009af9; stroke:none; fill-opacity:0" cx="1557.31" cy="1422.38" r="2"/>
<circle clip-path="url(#clip571)" style="fill:#009af9; stroke:none; fill-opacity:0" cx="1581.97" cy="1423.18" r="2"/>
<circle clip-path="url(#clip571)" style="fill:#009af9; stroke:none; fill-opacity:0" cx="1606.63" cy="1422.38" r="2"/>
<circle clip-path="url(#clip571)" style="fill:#009af9; stroke:none; fill-opacity:0" cx="1631.29" cy="1422.78" r="2"/>
<circle clip-path="url(#clip571)" style="fill:#009af9; stroke:none; fill-opacity:0" cx="1655.94" cy="1423.18" r="2"/>
<circle clip-path="url(#clip571)" style="fill:#009af9; stroke:none; fill-opacity:0" cx="1680.6" cy="1422.78" r="2"/>
<circle clip-path="url(#clip571)" style="fill:#009af9; stroke:none; fill-opacity:0" cx="1705.26" cy="1422.78" r="2"/>
<circle clip-path="url(#clip571)" style="fill:#009af9; stroke:none; fill-opacity:0" cx="1729.92" cy="1422.38" r="2"/>
<circle clip-path="url(#clip571)" style="fill:#009af9; stroke:none; fill-opacity:0" cx="1754.58" cy="1422.78" r="2"/>
<circle clip-path="url(#clip571)" style="fill:#009af9; stroke:none; fill-opacity:0" cx="1779.24" cy="1422.38" r="2"/>
<circle clip-path="url(#clip571)" style="fill:#009af9; stroke:none; fill-opacity:0" cx="1803.89" cy="1423.18" r="2"/>
<circle clip-path="url(#clip571)" style="fill:#009af9; stroke:none; fill-opacity:0" cx="1828.55" cy="1422.78" r="2"/>
<circle clip-path="url(#clip571)" style="fill:#009af9; stroke:none; fill-opacity:0" cx="1853.21" cy="1423.18" r="2"/>
<circle clip-path="url(#clip571)" style="fill:#009af9; stroke:none; fill-opacity:0" cx="1877.87" cy="1423.18" r="2"/>
<circle clip-path="url(#clip571)" style="fill:#009af9; stroke:none; fill-opacity:0" cx="1902.53" cy="1423.18" r="2"/>
<circle clip-path="url(#clip571)" style="fill:#009af9; stroke:none; fill-opacity:0" cx="1927.19" cy="1423.18" r="2"/>
<circle clip-path="url(#clip571)" style="fill:#009af9; stroke:none; fill-opacity:0" cx="1951.84" cy="1423.18" r="2"/>
<circle clip-path="url(#clip571)" style="fill:#009af9; stroke:none; fill-opacity:0" cx="1976.5" cy="1422.78" r="2"/>
<circle clip-path="url(#clip571)" style="fill:#009af9; stroke:none; fill-opacity:0" cx="2001.16" cy="1423.18" r="2"/>
<circle clip-path="url(#clip571)" style="fill:#009af9; stroke:none; fill-opacity:0" cx="2025.82" cy="1423.18" r="2"/>
<circle clip-path="url(#clip571)" style="fill:#009af9; stroke:none; fill-opacity:0" cx="2050.48" cy="1423.18" r="2"/>
<circle clip-path="url(#clip571)" style="fill:#009af9; stroke:none; fill-opacity:0" cx="2075.14" cy="1423.18" r="2"/>
<circle clip-path="url(#clip571)" style="fill:#009af9; stroke:none; fill-opacity:0" cx="2099.8" cy="1422.78" r="2"/>
<circle clip-path="url(#clip571)" style="fill:#009af9; stroke:none; fill-opacity:0" cx="2124.45" cy="1422.78" r="2"/>
<circle clip-path="url(#clip571)" style="fill:#009af9; stroke:none; fill-opacity:0" cx="2149.11" cy="1423.18" r="2"/>
<circle clip-path="url(#clip571)" style="fill:#009af9; stroke:none; fill-opacity:0" cx="2173.77" cy="1422.78" r="2"/>
<circle clip-path="url(#clip571)" style="fill:#009af9; stroke:none; fill-opacity:0" cx="2198.43" cy="1423.18" r="2"/>
<circle clip-path="url(#clip571)" style="fill:#009af9; stroke:none; fill-opacity:0" cx="2223.09" cy="1422.78" r="2"/>
<polyline clip-path="url(#clip571)" style="stroke:#e26f46; stroke-linecap:round; stroke-linejoin:round; stroke-width:16; stroke-opacity:1; fill:none" points="349.049,462.356 368.038,865.012 387.028,1015.42 406.017,1101.5 425.007,1159.31 443.996,1201.55 462.985,1234.03 481.975,1259.9 500.964,1281.01 519.954,1298.56 538.943,1313.34 557.932,1325.95 576.922,1336.79 595.911,1346.18 614.901,1354.36 633.89,1361.53 652.88,1367.84 671.869,1373.41 690.858,1378.36 709.848,1382.75 728.837,1386.66 747.827,1390.16 766.816,1393.29 785.806,1396.1 804.795,1398.62 823.784,1400.89 842.774,1402.93 861.763,1404.77 880.753,1406.44 899.742,1407.94 918.731,1409.3 937.721,1410.54 956.71,1411.65 975.7,1412.67 994.689,1413.59 1013.68,1414.42 1032.67,1415.19 1051.66,1415.88 1070.65,1416.51 1089.64,1417.08 1108.63,1417.6 1127.62,1418.08 1146.6,1418.51 1165.59,1418.91 1184.58,1419.27 1203.57,1419.6 1222.56,1419.9 1241.55,1420.17 1260.54,1420.43 1279.53,1420.66 1298.52,1420.87 1317.51,1421.06 1336.5,1421.23 1355.49,1421.4 1374.48,1421.54 1393.47,1421.68 1412.46,1421.8 1431.45,1421.91 1450.44,1422.02 1469.42,1422.11 1488.41,1422.2 1507.4,1422.28 1526.39,1422.35 1545.38,1422.42 1564.37,1422.48 1583.36,1422.54 1602.35,1422.59 1621.34,1422.64 1640.33,1422.68 1659.32,1422.72 1678.31,1422.76 1697.3,1422.79 1716.29,1422.82 1735.28,1422.85 1754.27,1422.88 1773.26,1422.9 1792.24,1422.93 1811.23,1422.95 1830.22,1422.96 1849.21,1422.98 1868.2,1423 1887.19,1423.01 1906.18,1423.03 1925.17,1423.04 1944.16,1423.05 1963.15,1423.06 1982.14,1423.07 2001.13,1423.08 2020.12,1423.09 2039.11,1423.09 2058.1,1423.1 2077.09,1423.11 2096.08,1423.11 2115.07,1423.12 2134.05,1423.12 2153.04,1423.13 2172.03,1423.13 2191.02,1423.14 2210.01,1423.14 2229,1423.14 "/>
<path clip-path="url(#clip570)" d="M2015.88 248.629 L2281.64 248.629 L2281.64 93.1086 L2015.88 93.1086  Z" fill="#ffffff" fill-rule="evenodd" fill-opacity="1"/>
<polyline clip-path="url(#clip570)" style="stroke:#000000; stroke-linecap:round; stroke-linejoin:round; stroke-width:4; stroke-opacity:1; fill:none" points="2015.88,248.629 2281.64,248.629 2281.64,93.1086 2015.88,93.1086 2015.88,248.629 "/>
<path clip-path="url(#clip570)" d="M2039.58 165.685 L2181.8 165.685 L2181.8 124.213 L2039.58 124.213 L2039.58 165.685  Z" fill="#009af9" fill-rule="evenodd" fill-opacity="1"/>
<polyline clip-path="url(#clip570)" style="stroke:#000000; stroke-linecap:round; stroke-linejoin:round; stroke-width:4; stroke-opacity:1; fill:none" points="2039.58,165.685 2181.8,165.685 2181.8,124.213 2039.58,124.213 2039.58,165.685 "/>
<path clip-path="url(#clip570)" d="M2219.35 164.636 Q2217.55 169.266 2215.83 170.678 Q2214.12 172.09 2211.25 172.09 L2207.85 172.09 L2207.85 168.525 L2210.35 168.525 Q2212.11 168.525 2213.08 167.692 Q2214.05 166.858 2215.23 163.756 L2215.99 161.812 L2205.51 136.303 L2210.02 136.303 L2218.12 156.581 L2226.23 136.303 L2230.74 136.303 L2219.35 164.636 Z" fill="#000000" fill-rule="nonzero" fill-opacity="1" /><path clip-path="url(#clip570)" d="M2238.03 158.293 L2245.67 158.293 L2245.67 131.928 L2237.36 133.595 L2237.36 129.335 L2245.62 127.669 L2250.3 127.669 L2250.3 158.293 L2257.94 158.293 L2257.94 162.229 L2238.03 162.229 L2238.03 158.293 Z" fill="#000000" fill-rule="nonzero" fill-opacity="1" /><polyline clip-path="url(#clip570)" style="stroke:#e26f46; stroke-linecap:round; stroke-linejoin:round; stroke-width:16; stroke-opacity:1; fill:none" points="2039.58,196.789 2181.8,196.789 "/>
<path clip-path="url(#clip570)" d="M2219.35 216.476 Q2217.55 221.106 2215.83 222.518 Q2214.12 223.93 2211.25 223.93 L2207.85 223.93 L2207.85 220.365 L2210.35 220.365 Q2212.11 220.365 2213.08 219.532 Q2214.05 218.698 2215.23 215.596 L2215.99 213.652 L2205.51 188.143 L2210.02 188.143 L2218.12 208.421 L2226.23 188.143 L2230.74 188.143 L2219.35 216.476 Z" fill="#000000" fill-rule="nonzero" fill-opacity="1" /><path clip-path="url(#clip570)" d="M2241.25 210.133 L2257.57 210.133 L2257.57 214.069 L2235.62 214.069 L2235.62 210.133 Q2238.29 207.379 2242.87 202.749 Q2247.48 198.096 2248.66 196.754 Q2250.9 194.231 2251.78 192.495 Q2252.68 190.735 2252.68 189.046 Q2252.68 186.291 2250.74 184.555 Q2248.82 182.819 2245.72 182.819 Q2243.52 182.819 2241.06 183.583 Q2238.63 184.347 2235.86 185.897 L2235.86 181.175 Q2238.68 180.041 2241.13 179.462 Q2243.59 178.884 2245.62 178.884 Q2250.99 178.884 2254.19 181.569 Q2257.38 184.254 2257.38 188.745 Q2257.38 190.874 2256.57 192.796 Q2255.79 194.694 2253.68 197.286 Q2253.1 197.958 2250 201.175 Q2246.9 204.37 2241.25 210.133 Z" fill="#000000" fill-rule="nonzero" fill-opacity="1" /></svg>
