<?xml version="1.0" encoding="utf-8"?>
<svg xmlns="http://www.w3.org/2000/svg" xmlns:xlink="http://www.w3.org/1999/xlink" width="600" height="400" viewBox="0 0 2400 1600">
<defs>
  <clipPath id="clip150">
    <rect x="0" y="0" width="2400" height="1600"/>
  </clipPath>
</defs>
<path clip-path="url(#clip150)" d="M0 1600 L2400 1600 L2400 0 L0 0  Z" fill="#ffffff" fill-rule="evenodd" fill-opacity="1"/>
<defs>
  <clipPath id="clip151">
    <rect x="219" y="47" width="2134" height="1377"/>
  </clipPath>
</defs>
<path clip-path="url(#clip150)" d="M219.38 1423.18 L2352.76 1423.18 L2352.76 47.2441 L219.38 47.2441  Z" fill="#ffffff" fill-rule="evenodd" fill-opacity="1"/>
<polyline clip-path="url(#clip151)" style="stroke:#000000; stroke-linecap:round; stroke-linejoin:round; stroke-width:2; stroke-opacity:0.1; fill:none" points="336.72,1423.18 336.72,47.2441 "/>
<polyline clip-path="url(#clip151)" style="stroke:#000000; stroke-linecap:round; stroke-linejoin:round; stroke-width:2; stroke-opacity:0.1; fill:none" points="978.171,1423.18 978.171,47.2441 "/>
<polyline clip-path="url(#clip151)" style="stroke:#000000; stroke-linecap:round; stroke-linejoin:round; stroke-width:2; stroke-opacity:0.1; fill:none" points="1619.62,1423.18 1619.62,47.2441 "/>
<polyline clip-path="url(#clip151)" style="stroke:#000000; stroke-linecap:round; stroke-linejoin:round; stroke-width:2; stroke-opacity:0.1; fill:none" points="2261.07,1423.18 2261.07,47.2441 "/>
<polyline clip-path="url(#clip151)" style="stroke:#000000; stroke-linecap:round; stroke-linejoin:round; stroke-width:2; stroke-opacity:0.1; fill:none" points="219.38,1423.18 2352.76,1423.18 "/>
<polyline clip-path="url(#clip151)" style="stroke:#000000; stroke-linecap:round; stroke-linejoin:round; stroke-width:2; stroke-opacity:0.1; fill:none" points="219.38,1026.43 2352.76,1026.43 "/>
<polyline clip-path="url(#clip151)" style="stroke:#000000; stroke-linecap:round; stroke-linejoin:round; stroke-width:2; stroke-opacity:0.1; fill:none" points="219.38,629.676 2352.76,629.676 "/>
<polyline clip-path="url(#clip151)" style="stroke:#000000; stroke-linecap:round; stroke-linejoin:round; stroke-width:2; stroke-opacity:0.1; fill:none" points="219.38,232.924 2352.76,232.924 "/>
<polyline clip-path="url(#clip150)" style="stroke:#000000; stroke-linecap:round; stroke-linejoin:round; stroke-width:4; stroke-opacity:1; fill:none" points="219.38,1423.18 2352.76,1423.18 "/>
<polyline clip-path="url(#clip150)" style="stroke:#000000; stroke-linecap:round; stroke-linejoin:round; stroke-width:4; stroke-opacity:1; fill:none" points="336.72,1423.18 336.72,1404.28 "/>
<polyline clip-path="url(#clip150)" style="stroke:#000000; stroke-linecap:round; stroke-linejoin:round; stroke-width:4; stroke-opacity:1; fill:none" points="978.171,1423.18 978.171,1404.28 "/>
<polyline clip-path="url(#clip150)" style="stroke:#000000; stroke-linecap:round; stroke-linejoin:round; stroke-width:4; stroke-opacity:1; fill:none" points="1619.62,1423.18 1619.62,1404.28 "/>
<polyline clip-path="url(#clip150)" style="stroke:#000000; stroke-linecap:round; stroke-linejoin:round; stroke-width:4; stroke-opacity:1; fill:none" points="2261.07,1423.18 2261.07,1404.28 "/>
<path clip-path="url(#clip150)" d="M336.72 1454.1 Q333.109 1454.1 331.28 1457.66 Q329.474 1461.2 329.474 1468.33 Q329.474 1475.44 331.28 1479.01 Q333.109 1482.55 336.72 1482.55 Q340.354 1482.55 342.159 1479.01 Q343.988 1475.44 343.988 1468.33 Q343.988 1461.2 342.159 1457.66 Q340.354 1454.1 336.72 1454.1 M336.72 1450.39 Q342.53 1450.39 345.585 1455 Q348.664 1459.58 348.664 1468.33 Q348.664 1477.06 345.585 1481.67 Q342.53 1486.25 336.72 1486.25 Q330.909 1486.25 327.831 1481.67 Q324.775 1477.06 324.775 1468.33 Q324.775 1459.58 327.831 1455 Q330.909 1450.39 336.72 1450.39 Z" fill="#000000" fill-rule="nonzero" fill-opacity="1" /><path clip-path="url(#clip150)" d="M968.449 1451.02 L986.805 1451.02 L986.805 1454.96 L972.731 1454.96 L972.731 1463.43 Q973.75 1463.08 974.768 1462.92 Q975.787 1462.73 976.806 1462.73 Q982.593 1462.73 985.972 1465.9 Q989.352 1469.08 989.352 1474.49 Q989.352 1480.07 985.88 1483.17 Q982.407 1486.25 976.088 1486.25 Q973.912 1486.25 971.644 1485.88 Q969.398 1485.51 966.991 1484.77 L966.991 1480.07 Q969.074 1481.2 971.296 1481.76 Q973.518 1482.32 975.995 1482.32 Q980 1482.32 982.338 1480.21 Q984.676 1478.1 984.676 1474.49 Q984.676 1470.88 982.338 1468.77 Q980 1466.67 975.995 1466.67 Q974.12 1466.67 972.245 1467.08 Q970.394 1467.5 968.449 1468.38 L968.449 1451.02 Z" fill="#000000" fill-rule="nonzero" fill-opacity="1" /><path clip-path="url(#clip150)" d="M1594.31 1481.64 L1601.95 1481.64 L1601.95 1455.28 L1593.64 1456.95 L1593.64 1452.69 L1601.9 1451.02 L1606.58 1451.02 L1606.58 1481.64 L1614.22 1481.64 L1614.22 1485.58 L1594.31 1485.58 L1594.31 1481.64 Z" fill="#000000" fill-rule="nonzero" fill-opacity="1" /><path clip-path="url(#clip150)" d="M1633.66 1454.1 Q1630.05 1454.1 1628.22 1457.66 Q1626.42 1461.2 1626.42 1468.33 Q1626.42 1475.44 1628.22 1479.01 Q1630.05 1482.55 1633.66 1482.55 Q1637.3 1482.55 1639.1 1479.01 Q1640.93 1475.44 1640.93 1468.33 Q1640.93 1461.2 1639.1 1457.66 Q1637.3 1454.1 1633.66 1454.1 M1633.66 1450.39 Q1639.47 1450.39 1642.53 1455 Q1645.61 1459.58 1645.61 1468.33 Q1645.61 1477.06 1642.53 1481.67 Q1639.47 1486.25 1633.66 1486.25 Q1627.85 1486.25 1624.77 1481.67 Q1621.72 1477.06 1621.72 1468.33 Q1621.72 1459.58 1624.77 1455 Q1627.85 1450.39 1633.66 1450.39 Z" fill="#000000" fill-rule="nonzero" fill-opacity="1" /><path clip-path="url(#clip150)" d="M2236.26 1481.64 L2243.9 1481.64 L2243.9 1455.28 L2235.59 1456.95 L2235.59 1452.69 L2243.85 1451.02 L2248.53 1451.02 L2248.53 1481.64 L2256.17 1481.64 L2256.17 1485.58 L2236.26 1485.58 L2236.26 1481.64 Z" fill="#000000" fill-rule="nonzero" fill-opacity="1" /><path clip-path="url(#clip150)" d="M2265.66 1451.02 L2284.01 1451.02 L2284.01 1454.96 L2269.94 1454.96 L2269.94 1463.43 Q2270.96 1463.08 2271.98 1462.92 Q2273 1462.73 2274.01 1462.73 Q2279.8 1462.73 2283.18 1465.9 Q2286.56 1469.08 2286.56 1474.49 Q2286.56 1480.07 2283.09 1483.17 Q2279.62 1486.25 2273.3 1486.25 Q2271.12 1486.25 2268.85 1485.88 Q2266.61 1485.51 2264.2 1484.77 L2264.2 1480.07 Q2266.28 1481.2 2268.51 1481.76 Q2270.73 1482.32 2273.2 1482.32 Q2277.21 1482.32 2279.55 1480.21 Q2281.88 1478.1 2281.88 1474.49 Q2281.88 1470.88 2279.55 1468.77 Q2277.21 1466.67 2273.2 1466.67 Q2271.33 1466.67 2269.45 1467.08 Q2267.6 1467.5 2265.66 1468.38 L2265.66 1451.02 Z" fill="#000000" fill-rule="nonzero" fill-opacity="1" /><path clip-path="url(#clip150)" d="M1285.13 1522.27 L1285.13 1532.4 L1297.19 1532.4 L1297.19 1536.95 L1285.13 1536.95 L1285.13 1556.3 Q1285.13 1560.66 1286.31 1561.9 Q1287.52 1563.14 1291.18 1563.14 L1297.19 1563.14 L1297.19 1568.04 L1291.18 1568.04 Q1284.4 1568.04 1281.82 1565.53 Q1279.24 1562.98 1279.24 1556.3 L1279.24 1536.95 L1274.94 1536.95 L1274.94 1532.4 L1279.24 1532.4 L1279.24 1522.27 L1285.13 1522.27 Z" fill="#000000" fill-rule="nonzero" fill-opacity="1" /><polyline clip-path="url(#clip150)" style="stroke:#000000; stroke-linecap:round; stroke-linejoin:round; stroke-width:4; stroke-opacity:1; fill:none" points="219.38,1423.18 219.38,47.2441 "/>
<polyline clip-path="url(#clip150)" style="stroke:#000000; stroke-linecap:round; stroke-linejoin:round; stroke-width:4; stroke-opacity:1; fill:none" points="219.38,1423.18 238.278,1423.18 "/>
<polyline clip-path="url(#clip150)" style="stroke:#000000; stroke-linecap:round; stroke-linejoin:round; stroke-width:4; stroke-opacity:1; fill:none" points="219.38,1026.43 238.278,1026.43 "/>
<polyline clip-path="url(#clip150)" style="stroke:#000000; stroke-linecap:round; stroke-linejoin:round; stroke-width:4; stroke-opacity:1; fill:none" points="219.38,629.676 238.278,629.676 "/>
<polyline clip-path="url(#clip150)" style="stroke:#000000; stroke-linecap:round; stroke-linejoin:round; stroke-width:4; stroke-opacity:1; fill:none" points="219.38,232.924 238.278,232.924 "/>
<path clip-path="url(#clip150)" d="M126.205 1408.98 Q122.593 1408.98 120.765 1412.54 Q118.959 1416.08 118.959 1423.21 Q118.959 1430.32 120.765 1433.89 Q122.593 1437.43 126.205 1437.43 Q129.839 1437.43 131.644 1433.89 Q133.473 1430.32 133.473 1423.21 Q133.473 1416.08 131.644 1412.54 Q129.839 1408.98 126.205 1408.98 M126.205 1405.27 Q132.015 1405.27 135.07 1409.88 Q138.149 1414.46 138.149 1423.21 Q138.149 1431.94 135.07 1436.55 Q132.015 1441.13 126.205 1441.13 Q120.394 1441.13 117.316 1436.55 Q114.26 1431.94 114.26 1423.21 Q114.26 1414.46 117.316 1409.88 Q120.394 1405.27 126.205 1405.27 Z" fill="#000000" fill-rule="nonzero" fill-opacity="1" /><path clip-path="url(#clip150)" d="M146.366 1434.58 L151.251 1434.58 L151.251 1440.46 L146.366 1440.46 L146.366 1434.58 Z" fill="#000000" fill-rule="nonzero" fill-opacity="1" /><path clip-path="url(#clip150)" d="M171.436 1408.98 Q167.825 1408.98 165.996 1412.54 Q164.19 1416.08 164.19 1423.21 Q164.19 1430.32 165.996 1433.89 Q167.825 1437.43 171.436 1437.43 Q175.07 1437.43 176.876 1433.89 Q178.704 1430.32 178.704 1423.21 Q178.704 1416.08 176.876 1412.54 Q175.07 1408.98 171.436 1408.98 M171.436 1405.27 Q177.246 1405.27 180.301 1409.88 Q183.38 1414.46 183.38 1423.21 Q183.38 1431.94 180.301 1436.55 Q177.246 1441.13 171.436 1441.13 Q165.626 1441.13 162.547 1436.55 Q159.491 1431.94 159.491 1423.21 Q159.491 1414.46 162.547 1409.88 Q165.626 1405.27 171.436 1405.27 Z" fill="#000000" fill-rule="nonzero" fill-opacity="1" /><path clip-path="url(#clip150)" d="M127.2 1012.23 Q123.589 1012.23 121.76 1015.79 Q119.955 1019.33 119.955 1026.46 Q119.955 1033.57 121.76 1037.13 Q123.589 1040.68 127.2 1040.68 Q130.834 1040.68 132.64 1037.13 Q134.468 1033.57 134.468 1026.46 Q134.468 1019.33 132.64 1015.79 Q130.834 1012.23 127.2 1012.23 M127.2 1008.52 Q133.01 1008.52 136.066 1013.13 Q139.144 1017.71 139.144 1026.46 Q139.144 1035.19 136.066 1039.8 Q133.01 1044.38 127.2 1044.38 Q121.39 1044.38 118.311 1039.8 Q115.256 1035.19 115.256 1026.46 Q115.256 1017.71 118.311 1013.13 Q121.39 1008.52 127.2 1008.52 Z" fill="#000000" fill-rule="nonzero" fill-opacity="1" /><path clip-path="url(#clip150)" d="M147.362 1037.83 L152.246 1037.83 L152.246 1043.71 L147.362 1043.71 L147.362 1037.83 Z" fill="#000000" fill-rule="nonzero" fill-opacity="1" /><path clip-path="url(#clip150)" d="M162.477 1009.15 L180.834 1009.15 L180.834 1013.08 L166.76 1013.08 L166.76 1021.56 Q167.778 1021.21 168.797 1021.05 Q169.815 1020.86 170.834 1020.86 Q176.621 1020.86 180.001 1024.03 Q183.38 1027.2 183.38 1032.62 Q183.38 1038.2 179.908 1041.3 Q176.436 1044.38 170.116 1044.38 Q167.94 1044.38 165.672 1044.01 Q163.427 1043.64 161.019 1042.9 L161.019 1038.2 Q163.102 1039.33 165.325 1039.89 Q167.547 1040.44 170.024 1040.44 Q174.028 1040.44 176.366 1038.34 Q178.704 1036.23 178.704 1032.62 Q178.704 1029.01 176.366 1026.9 Q174.028 1024.8 170.024 1024.8 Q168.149 1024.8 166.274 1025.21 Q164.422 1025.63 162.477 1026.51 L162.477 1009.15 Z" fill="#000000" fill-rule="nonzero" fill-opacity="1" /><path clip-path="url(#clip150)" d="M117.015 643.021 L124.654 643.021 L124.654 616.655 L116.343 618.322 L116.343 614.063 L124.607 612.396 L129.283 612.396 L129.283 643.021 L136.922 643.021 L136.922 646.956 L117.015 646.956 L117.015 643.021 Z" fill="#000000" fill-rule="nonzero" fill-opacity="1" /><path clip-path="url(#clip150)" d="M146.366 641.076 L151.251 641.076 L151.251 646.956 L146.366 646.956 L146.366 641.076 Z" fill="#000000" fill-rule="nonzero" fill-opacity="1" /><path clip-path="url(#clip150)" d="M171.436 615.475 Q167.825 615.475 165.996 619.039 Q164.19 622.581 164.19 629.711 Q164.19 636.817 165.996 640.382 Q167.825 643.924 171.436 643.924 Q175.07 643.924 176.876 640.382 Q178.704 636.817 178.704 629.711 Q178.704 622.581 176.876 619.039 Q175.07 615.475 171.436 615.475 M171.436 611.771 Q177.246 611.771 180.301 616.377 Q183.38 620.961 183.38 629.711 Q183.38 638.437 180.301 643.044 Q177.246 647.627 171.436 647.627 Q165.626 647.627 162.547 643.044 Q159.491 638.437 159.491 629.711 Q159.491 620.961 162.547 616.377 Q165.626 611.771 171.436 611.771 Z" fill="#000000" fill-rule="nonzero" fill-opacity="1" /><path clip-path="url(#clip150)" d="M118.01 246.269 L125.649 246.269 L125.649 219.903 L117.339 221.57 L117.339 217.311 L125.603 215.644 L130.279 215.644 L130.279 246.269 L137.917 246.269 L137.917 250.204 L118.01 250.204 L118.01 246.269 Z" fill="#000000" fill-rule="nonzero" fill-opacity="1" /><path clip-path="url(#clip150)" d="M147.362 244.324 L152.246 244.324 L152.246 250.204 L147.362 250.204 L147.362 244.324 Z" fill="#000000" fill-rule="nonzero" fill-opacity="1" /><path clip-path="url(#clip150)" d="M162.477 215.644 L180.834 215.644 L180.834 219.579 L166.76 219.579 L166.76 228.051 Q167.778 227.704 168.797 227.542 Q169.815 227.357 170.834 227.357 Q176.621 227.357 180.001 230.528 Q183.38 233.699 183.38 239.116 Q183.38 244.695 179.908 247.797 Q176.436 250.875 170.116 250.875 Q167.94 250.875 165.672 250.505 Q163.427 250.135 161.019 249.394 L161.019 244.695 Q163.102 245.829 165.325 246.385 Q167.547 246.94 170.024 246.94 Q174.028 246.94 176.366 244.834 Q178.704 242.727 178.704 239.116 Q178.704 235.505 176.366 233.399 Q174.028 231.292 170.024 231.292 Q168.149 231.292 166.274 231.709 Q164.422 232.125 162.477 233.005 L162.477 215.644 Z" fill="#000000" fill-rule="nonzero" fill-opacity="1" /><path clip-path="url(#clip150)" d="M33.8307 800.206 Q33.2578 801.193 33.0032 802.37 Q32.7167 803.516 32.7167 804.916 Q32.7167 809.882 35.9632 812.555 Q39.1779 815.197 45.2253 815.197 L64.0042 815.197 L64.0042 821.085 L28.3562 821.085 L28.3562 815.197 L33.8944 815.197 Q30.6479 813.351 29.0883 810.391 Q27.4968 807.431 27.4968 803.198 Q27.4968 802.593 27.5923 801.861 Q27.656 801.129 27.8151 800.238 L33.8307 800.206 Z" fill="#000000" fill-rule="nonzero" fill-opacity="1" /><path clip-path="url(#clip150)" d="M42.4881 765.576 L64.0042 765.576 L64.0042 771.433 L42.679 771.433 Q37.6183 771.433 35.1038 773.406 Q32.5894 775.38 32.5894 779.326 Q32.5894 784.069 35.6131 786.806 Q38.6368 789.543 43.8567 789.543 L64.0042 789.543 L64.0042 795.432 L14.479 795.432 L14.479 789.543 L33.8944 789.543 Q30.6797 787.443 29.0883 784.61 Q27.4968 781.745 27.4968 778.021 Q27.4968 771.878 31.3163 768.727 Q35.1038 765.576 42.4881 765.576 Z" fill="#000000" fill-rule="nonzero" fill-opacity="1" /><path clip-path="url(#clip150)" d="M32.4621 740.082 Q32.4621 744.792 36.1542 747.53 Q39.8145 750.267 46.212 750.267 Q52.6095 750.267 56.3017 747.561 Q59.9619 744.824 59.9619 740.082 Q59.9619 735.403 56.2698 732.666 Q52.5777 729.928 46.212 729.928 Q39.8781 729.928 36.186 732.666 Q32.4621 735.403 32.4621 740.082 M27.4968 740.082 Q27.4968 732.443 32.4621 728.082 Q37.4273 723.722 46.212 723.722 Q54.9649 723.722 59.9619 728.082 Q64.9272 732.443 64.9272 740.082 Q64.9272 747.752 59.9619 752.113 Q54.9649 756.442 46.212 756.442 Q37.4273 756.442 32.4621 752.113 Q27.4968 747.752 27.4968 740.082 Z" fill="#000000" fill-rule="nonzero" fill-opacity="1" /><path clip-path="url(#clip150)" d="M14.5426 699.946 Q21.8632 704.211 29.0246 706.28 Q36.186 708.349 43.5384 708.349 Q50.8908 708.349 58.1159 706.28 Q65.3091 704.179 72.5979 699.946 L72.5979 705.039 Q65.1182 709.813 57.8931 712.2 Q50.668 714.555 43.5384 714.555 Q36.4406 714.555 29.2474 712.2 Q22.0542 709.845 14.5426 705.039 L14.5426 699.946 Z" fill="#000000" fill-rule="nonzero" fill-opacity="1" /><path clip-path="url(#clip150)" d="M18.2347 682.79 L28.3562 682.79 L28.3562 670.727 L32.9077 670.727 L32.9077 682.79 L52.2594 682.79 Q56.6199 682.79 57.8613 681.613 Q59.1026 680.403 59.1026 676.743 L59.1026 670.727 L64.0042 670.727 L64.0042 676.743 Q64.0042 683.522 61.4897 686.101 Q58.9434 688.679 52.2594 688.679 L32.9077 688.679 L32.9077 692.976 L28.3562 692.976 L28.3562 688.679 L18.2347 688.679 L18.2347 682.79 Z" fill="#000000" fill-rule="nonzero" fill-opacity="1" /><path clip-path="url(#clip150)" d="M14.5426 663.948 L14.5426 658.855 Q22.0542 654.081 29.2474 651.726 Q36.4406 649.339 43.5384 649.339 Q50.668 649.339 57.8931 651.726 Q65.1182 654.081 72.5979 658.855 L72.5979 663.948 Q65.3091 659.715 58.1159 657.646 Q50.8908 655.545 43.5384 655.545 Q36.186 655.545 29.0246 657.646 Q21.8632 659.715 14.5426 663.948 Z" fill="#000000" fill-rule="nonzero" fill-opacity="1" /><path clip-path="url(#clip151)" d="M336.72 47.2441 L336.72 1423.18 L362.378 1423.18 L362.378 47.2441 L336.72 47.2441 L336.72 47.2441  Z" fill="#009af9" fill-rule="evenodd" fill-opacity="1"/>
<polyline clip-path="url(#clip151)" style="stroke:#000000; stroke-linecap:round; stroke-linejoin:round; stroke-width:4; stroke-opacity:1; fill:none" points="336.72,47.2441 336.72,1423.18 362.378,1423.18 362.378,47.2441 336.72,47.2441 "/>
<path clip-path="url(#clip151)" d="M362.378 886.374 L362.378 1423.18 L388.036 1423.18 L388.036 886.374 L362.378 886.374 L362.378 886.374  Z" fill="#009af9" fill-rule="evenodd" fill-opacity="1"/>
<polyline clip-path="url(#clip151)" style="stroke:#000000; stroke-linecap:round; stroke-linejoin:round; stroke-width:4; stroke-opacity:1; fill:none" points="362.378,886.374 362.378,1423.18 388.036,1423.18 388.036,886.374 362.378,886.374 "/>
<path clip-path="url(#clip151)" d="M388.036 1098.24 L388.036 1423.18 L413.694 1423.18 L413.694 1098.24 L388.036 1098.24 L388.036 1098.24  Z" fill="#009af9" fill-rule="evenodd" fill-opacity="1"/>
<polyline clip-path="url(#clip151)" style="stroke:#000000; stroke-linecap:round; stroke-linejoin:round; stroke-width:4; stroke-opacity:1; fill:none" points="388.036,1098.24 388.036,1423.18 413.694,1423.18 413.694,1098.24 388.036,1098.24 "/>
<path clip-path="url(#clip151)" d="M413.694 1144.26 L413.694 1423.18 L439.352 1423.18 L439.352 1144.26 L413.694 1144.26 L413.694 1144.26  Z" fill="#009af9" fill-rule="evenodd" fill-opacity="1"/>
<polyline clip-path="url(#clip151)" style="stroke:#000000; stroke-linecap:round; stroke-linejoin:round; stroke-width:4; stroke-opacity:1; fill:none" points="413.694,1144.26 413.694,1423.18 439.352,1423.18 439.352,1144.26 413.694,1144.26 "/>
<path clip-path="url(#clip151)" d="M439.352 1210.12 L439.352 1423.18 L465.01 1423.18 L465.01 1210.12 L439.352 1210.12 L439.352 1210.12  Z" fill="#009af9" fill-rule="evenodd" fill-opacity="1"/>
<polyline clip-path="url(#clip151)" style="stroke:#000000; stroke-linecap:round; stroke-linejoin:round; stroke-width:4; stroke-opacity:1; fill:none" points="439.352,1210.12 439.352,1423.18 465.01,1423.18 465.01,1210.12 439.352,1210.12 "/>
<path clip-path="url(#clip151)" d="M465.01 1251.39 L465.01 1423.18 L490.668 1423.18 L490.668 1251.39 L465.01 1251.39 L465.01 1251.39  Z" fill="#009af9" fill-rule="evenodd" fill-opacity="1"/>
<polyline clip-path="url(#clip151)" style="stroke:#000000; stroke-linecap:round; stroke-linejoin:round; stroke-width:4; stroke-opacity:1; fill:none" points="465.01,1251.39 465.01,1423.18 490.668,1423.18 490.668,1251.39 465.01,1251.39 "/>
<path clip-path="url(#clip151)" d="M490.668 1283.13 L490.668 1423.18 L516.326 1423.18 L516.326 1283.13 L490.668 1283.13 L490.668 1283.13  Z" fill="#009af9" fill-rule="evenodd" fill-opacity="1"/>
<polyline clip-path="url(#clip151)" style="stroke:#000000; stroke-linecap:round; stroke-linejoin:round; stroke-width:4; stroke-opacity:1; fill:none" points="490.668,1283.13 490.668,1423.18 516.326,1423.18 516.326,1283.13 490.668,1283.13 "/>
<path clip-path="url(#clip151)" d="M516.326 1304.55 L516.326 1423.18 L541.984 1423.18 L541.984 1304.55 L516.326 1304.55 L516.326 1304.55  Z" fill="#009af9" fill-rule="evenodd" fill-opacity="1"/>
<polyline clip-path="url(#clip151)" style="stroke:#000000; stroke-linecap:round; stroke-linejoin:round; stroke-width:4; stroke-opacity:1; fill:none" points="516.326,1304.55 516.326,1423.18 541.984,1423.18 541.984,1304.55 516.326,1304.55 "/>
<path clip-path="url(#clip151)" d="M541.984 1329.94 L541.984 1423.18 L567.642 1423.18 L567.642 1329.94 L541.984 1329.94 L541.984 1329.94  Z" fill="#009af9" fill-rule="evenodd" fill-opacity="1"/>
<polyline clip-path="url(#clip151)" style="stroke:#000000; stroke-linecap:round; stroke-linejoin:round; stroke-width:4; stroke-opacity:1; fill:none" points="541.984,1329.94 541.984,1423.18 567.642,1423.18 567.642,1329.94 541.984,1329.94 "/>
<path clip-path="url(#clip151)" d="M567.642 1331.53 L567.642 1423.18 L593.3 1423.18 L593.3 1331.53 L567.642 1331.53 L567.642 1331.53  Z" fill="#009af9" fill-rule="evenodd" fill-opacity="1"/>
<polyline clip-path="url(#clip151)" style="stroke:#000000; stroke-linecap:round; stroke-linejoin:round; stroke-width:4; stroke-opacity:1; fill:none" points="567.642,1331.53 567.642,1423.18 593.3,1423.18 593.3,1331.53 567.642,1331.53 "/>
<path clip-path="url(#clip151)" d="M593.3 1341.45 L593.3 1423.18 L618.958 1423.18 L618.958 1341.45 L593.3 1341.45 L593.3 1341.45  Z" fill="#009af9" fill-rule="evenodd" fill-opacity="1"/>
<polyline clip-path="url(#clip151)" style="stroke:#000000; stroke-linecap:round; stroke-linejoin:round; stroke-width:4; stroke-opacity:1; fill:none" points="593.3,1341.45 593.3,1423.18 618.958,1423.18 618.958,1341.45 593.3,1341.45 "/>
<path clip-path="url(#clip151)" d="M618.958 1357.72 L618.958 1423.18 L644.616 1423.18 L644.616 1357.72 L618.958 1357.72 L618.958 1357.72  Z" fill="#009af9" fill-rule="evenodd" fill-opacity="1"/>
<polyline clip-path="url(#clip151)" style="stroke:#000000; stroke-linecap:round; stroke-linejoin:round; stroke-width:4; stroke-opacity:1; fill:none" points="618.958,1357.72 618.958,1423.18 644.616,1423.18 644.616,1357.72 618.958,1357.72 "/>
<path clip-path="url(#clip151)" d="M644.616 1365.25 L644.616 1423.18 L670.274 1423.18 L670.274 1365.25 L644.616 1365.25 L644.616 1365.25  Z" fill="#009af9" fill-rule="evenodd" fill-opacity="1"/>
<polyline clip-path="url(#clip151)" style="stroke:#000000; stroke-linecap:round; stroke-linejoin:round; stroke-width:4; stroke-opacity:1; fill:none" points="644.616,1365.25 644.616,1423.18 670.274,1423.18 670.274,1365.25 644.616,1365.25 "/>
<path clip-path="url(#clip151)" d="M670.274 1371.6 L670.274 1423.18 L695.933 1423.18 L695.933 1371.6 L670.274 1371.6 L670.274 1371.6  Z" fill="#009af9" fill-rule="evenodd" fill-opacity="1"/>
<polyline clip-path="url(#clip151)" style="stroke:#000000; stroke-linecap:round; stroke-linejoin:round; stroke-width:4; stroke-opacity:1; fill:none" points="670.274,1371.6 670.274,1423.18 695.933,1423.18 695.933,1371.6 670.274,1371.6 "/>
<path clip-path="url(#clip151)" d="M695.933 1372.4 L695.933 1423.18 L721.591 1423.18 L721.591 1372.4 L695.933 1372.4 L695.933 1372.4  Z" fill="#009af9" fill-rule="evenodd" fill-opacity="1"/>
<polyline clip-path="url(#clip151)" style="stroke:#000000; stroke-linecap:round; stroke-linejoin:round; stroke-width:4; stroke-opacity:1; fill:none" points="695.933,1372.4 695.933,1423.18 721.591,1423.18 721.591,1372.4 695.933,1372.4 "/>
<path clip-path="url(#clip151)" d="M721.591 1388.66 L721.591 1423.18 L747.249 1423.18 L747.249 1388.66 L721.591 1388.66 L721.591 1388.66  Z" fill="#009af9" fill-rule="evenodd" fill-opacity="1"/>
<polyline clip-path="url(#clip151)" style="stroke:#000000; stroke-linecap:round; stroke-linejoin:round; stroke-width:4; stroke-opacity:1; fill:none" points="721.591,1388.66 721.591,1423.18 747.249,1423.18 747.249,1388.66 721.591,1388.66 "/>
<path clip-path="url(#clip151)" d="M747.249 1390.65 L747.249 1423.18 L772.907 1423.18 L772.907 1390.65 L747.249 1390.65 L747.249 1390.65  Z" fill="#009af9" fill-rule="evenodd" fill-opacity="1"/>
<polyline clip-path="url(#clip151)" style="stroke:#000000; stroke-linecap:round; stroke-linejoin:round; stroke-width:4; stroke-opacity:1; fill:none" points="747.249,1390.65 747.249,1423.18 772.907,1423.18 772.907,1390.65 747.249,1390.65 "/>
<path clip-path="url(#clip151)" d="M772.907 1397.39 L772.907 1423.18 L798.565 1423.18 L798.565 1397.39 L772.907 1397.39 L772.907 1397.39  Z" fill="#009af9" fill-rule="evenodd" fill-opacity="1"/>
<polyline clip-path="url(#clip151)" style="stroke:#000000; stroke-linecap:round; stroke-linejoin:round; stroke-width:4; stroke-opacity:1; fill:none" points="772.907,1397.39 772.907,1423.18 798.565,1423.18 798.565,1397.39 772.907,1397.39 "/>
<path clip-path="url(#clip151)" d="M798.565 1399.37 L798.565 1423.18 L824.223 1423.18 L824.223 1399.37 L798.565 1399.37 L798.565 1399.37  Z" fill="#009af9" fill-rule="evenodd" fill-opacity="1"/>
<polyline clip-path="url(#clip151)" style="stroke:#000000; stroke-linecap:round; stroke-linejoin:round; stroke-width:4; stroke-opacity:1; fill:none" points="798.565,1399.37 798.565,1423.18 824.223,1423.18 824.223,1399.37 798.565,1399.37 "/>
<path clip-path="url(#clip151)" d="M824.223 1399.77 L824.223 1423.18 L849.881 1423.18 L849.881 1399.77 L824.223 1399.77 L824.223 1399.77  Z" fill="#009af9" fill-rule="evenodd" fill-opacity="1"/>
<polyline clip-path="url(#clip151)" style="stroke:#000000; stroke-linecap:round; stroke-linejoin:round; stroke-width:4; stroke-opacity:1; fill:none" points="824.223,1399.77 824.223,1423.18 849.881,1423.18 849.881,1399.77 824.223,1399.77 "/>
<path clip-path="url(#clip151)" d="M849.881 1403.74 L849.881 1423.18 L875.539 1423.18 L875.539 1403.74 L849.881 1403.74 L849.881 1403.74  Z" fill="#009af9" fill-rule="evenodd" fill-opacity="1"/>
<polyline clip-path="url(#clip151)" style="stroke:#000000; stroke-linecap:round; stroke-linejoin:round; stroke-width:4; stroke-opacity:1; fill:none" points="849.881,1403.74 849.881,1423.18 875.539,1423.18 875.539,1403.74 849.881,1403.74 "/>
<path clip-path="url(#clip151)" d="M875.539 1402.15 L875.539 1423.18 L901.197 1423.18 L901.197 1402.15 L875.539 1402.15 L875.539 1402.15  Z" fill="#009af9" fill-rule="evenodd" fill-opacity="1"/>
<polyline clip-path="url(#clip151)" style="stroke:#000000; stroke-linecap:round; stroke-linejoin:round; stroke-width:4; stroke-opacity:1; fill:none" points="875.539,1402.15 875.539,1423.18 901.197,1423.18 901.197,1402.15 875.539,1402.15 "/>
<path clip-path="url(#clip151)" d="M901.197 1407.31 L901.197 1423.18 L926.855 1423.18 L926.855 1407.31 L901.197 1407.31 L901.197 1407.31  Z" fill="#009af9" fill-rule="evenodd" fill-opacity="1"/>
<polyline clip-path="url(#clip151)" style="stroke:#000000; stroke-linecap:round; stroke-linejoin:round; stroke-width:4; stroke-opacity:1; fill:none" points="901.197,1407.31 901.197,1423.18 926.855,1423.18 926.855,1407.31 901.197,1407.31 "/>
<path clip-path="url(#clip151)" d="M926.855 1413.26 L926.855 1423.18 L952.513 1423.18 L952.513 1413.26 L926.855 1413.26 L926.855 1413.26  Z" fill="#009af9" fill-rule="evenodd" fill-opacity="1"/>
<polyline clip-path="url(#clip151)" style="stroke:#000000; stroke-linecap:round; stroke-linejoin:round; stroke-width:4; stroke-opacity:1; fill:none" points="926.855,1413.26 926.855,1423.18 952.513,1423.18 952.513,1413.26 926.855,1413.26 "/>
<path clip-path="url(#clip151)" d="M952.513 1411.28 L952.513 1423.18 L978.171 1423.18 L978.171 1411.28 L952.513 1411.28 L952.513 1411.28  Z" fill="#009af9" fill-rule="evenodd" fill-opacity="1"/>
<polyline clip-path="url(#clip151)" style="stroke:#000000; stroke-linecap:round; stroke-linejoin:round; stroke-width:4; stroke-opacity:1; fill:none" points="952.513,1411.28 952.513,1423.18 978.171,1423.18 978.171,1411.28 952.513,1411.28 "/>
<path clip-path="url(#clip151)" d="M978.171 1410.48 L978.171 1423.18 L1003.83 1423.18 L1003.83 1410.48 L978.171 1410.48 L978.171 1410.48  Z" fill="#009af9" fill-rule="evenodd" fill-opacity="1"/>
<polyline clip-path="url(#clip151)" style="stroke:#000000; stroke-linecap:round; stroke-linejoin:round; stroke-width:4; stroke-opacity:1; fill:none" points="978.171,1410.48 978.171,1423.18 1003.83,1423.18 1003.83,1410.48 978.171,1410.48 "/>
<path clip-path="url(#clip151)" d="M1003.83 1415.64 L1003.83 1423.18 L1029.49 1423.18 L1029.49 1415.64 L1003.83 1415.64 L1003.83 1415.64  Z" fill="#009af9" fill-rule="evenodd" fill-opacity="1"/>
<polyline clip-path="url(#clip151)" style="stroke:#000000; stroke-linecap:round; stroke-linejoin:round; stroke-width:4; stroke-opacity:1; fill:none" points="1003.83,1415.64 1003.83,1423.18 1029.49,1423.18 1029.49,1415.64 1003.83,1415.64 "/>
<path clip-path="url(#clip151)" d="M1029.49 1415.24 L1029.49 1423.18 L1055.15 1423.18 L1055.15 1415.24 L1029.49 1415.24 L1029.49 1415.24  Z" fill="#009af9" fill-rule="evenodd" fill-opacity="1"/>
<polyline clip-path="url(#clip151)" style="stroke:#000000; stroke-linecap:round; stroke-linejoin:round; stroke-width:4; stroke-opacity:1; fill:none" points="1029.49,1415.24 1029.49,1423.18 1055.15,1423.18 1055.15,1415.24 1029.49,1415.24 "/>
<path clip-path="url(#clip151)" d="M1055.15 1415.64 L1055.15 1423.18 L1080.8 1423.18 L1080.8 1415.64 L1055.15 1415.64 L1055.15 1415.64  Z" fill="#009af9" fill-rule="evenodd" fill-opacity="1"/>
<polyline clip-path="url(#clip151)" style="stroke:#000000; stroke-linecap:round; stroke-linejoin:round; stroke-width:4; stroke-opacity:1; fill:none" points="1055.15,1415.64 1055.15,1423.18 1080.8,1423.18 1080.8,1415.64 1055.15,1415.64 "/>
<path clip-path="url(#clip151)" d="M1080.8 1418.82 L1080.8 1423.18 L1106.46 1423.18 L1106.46 1418.82 L1080.8 1418.82 L1080.8 1418.82  Z" fill="#009af9" fill-rule="evenodd" fill-opacity="1"/>
<polyline clip-path="url(#clip151)" style="stroke:#000000; stroke-linecap:round; stroke-linejoin:round; stroke-width:4; stroke-opacity:1; fill:none" points="1080.8,1418.82 1080.8,1423.18 1106.46,1423.18 1106.46,1418.82 1080.8,1418.82 "/>
<path clip-path="url(#clip151)" d="M1106.46 1420.01 L1106.46 1423.18 L1132.12 1423.18 L1132.12 1420.01 L1106.46 1420.01 L1106.46 1420.01  Z" fill="#009af9" fill-rule="evenodd" fill-opacity="1"/>
<polyline clip-path="url(#clip151)" style="stroke:#000000; stroke-linecap:round; stroke-linejoin:round; stroke-width:4; stroke-opacity:1; fill:none" points="1106.46,1420.01 1106.46,1423.18 1132.12,1423.18 1132.12,1420.01 1106.46,1420.01 "/>
<path clip-path="url(#clip151)" d="M1132.12 1416.83 L1132.12 1423.18 L1157.78 1423.18 L1157.78 1416.83 L1132.12 1416.83 L1132.12 1416.83  Z" fill="#009af9" fill-rule="evenodd" fill-opacity="1"/>
<polyline clip-path="url(#clip151)" style="stroke:#000000; stroke-linecap:round; stroke-linejoin:round; stroke-width:4; stroke-opacity:1; fill:none" points="1132.12,1416.83 1132.12,1423.18 1157.78,1423.18 1157.78,1416.83 1132.12,1416.83 "/>
<path clip-path="url(#clip151)" d="M1157.78 1421.2 L1157.78 1423.18 L1183.44 1423.18 L1183.44 1421.2 L1157.78 1421.2 L1157.78 1421.2  Z" fill="#009af9" fill-rule="evenodd" fill-opacity="1"/>
<polyline clip-path="url(#clip151)" style="stroke:#000000; stroke-linecap:round; stroke-linejoin:round; stroke-width:4; stroke-opacity:1; fill:none" points="1157.78,1421.2 1157.78,1423.18 1183.44,1423.18 1183.44,1421.2 1157.78,1421.2 "/>
<path clip-path="url(#clip151)" d="M1183.44 1419.61 L1183.44 1423.18 L1209.09 1423.18 L1209.09 1419.61 L1183.44 1419.61 L1183.44 1419.61  Z" fill="#009af9" fill-rule="evenodd" fill-opacity="1"/>
<polyline clip-path="url(#clip151)" style="stroke:#000000; stroke-linecap:round; stroke-linejoin:round; stroke-width:4; stroke-opacity:1; fill:none" points="1183.44,1419.61 1183.44,1423.18 1209.09,1423.18 1209.09,1419.61 1183.44,1419.61 "/>
<path clip-path="url(#clip151)" d="M1209.09 1418.02 L1209.09 1423.18 L1234.75 1423.18 L1234.75 1418.02 L1209.09 1418.02 L1209.09 1418.02  Z" fill="#009af9" fill-rule="evenodd" fill-opacity="1"/>
<polyline clip-path="url(#clip151)" style="stroke:#000000; stroke-linecap:round; stroke-linejoin:round; stroke-width:4; stroke-opacity:1; fill:none" points="1209.09,1418.02 1209.09,1423.18 1234.75,1423.18 1234.75,1418.02 1209.09,1418.02 "/>
<path clip-path="url(#clip151)" d="M1234.75 1419.21 L1234.75 1423.18 L1260.41 1423.18 L1260.41 1419.21 L1234.75 1419.21 L1234.75 1419.21  Z" fill="#009af9" fill-rule="evenodd" fill-opacity="1"/>
<polyline clip-path="url(#clip151)" style="stroke:#000000; stroke-linecap:round; stroke-linejoin:round; stroke-width:4; stroke-opacity:1; fill:none" points="1234.75,1419.21 1234.75,1423.18 1260.41,1423.18 1260.41,1419.21 1234.75,1419.21 "/>
<path clip-path="url(#clip151)" d="M1260.41 1417.63 L1260.41 1423.18 L1286.07 1423.18 L1286.07 1417.63 L1260.41 1417.63 L1260.41 1417.63  Z" fill="#009af9" fill-rule="evenodd" fill-opacity="1"/>
<polyline clip-path="url(#clip151)" style="stroke:#000000; stroke-linecap:round; stroke-linejoin:round; stroke-width:4; stroke-opacity:1; fill:none" points="1260.41,1417.63 1260.41,1423.18 1286.07,1423.18 1286.07,1417.63 1260.41,1417.63 "/>
<path clip-path="url(#clip151)" d="M1286.07 1420.8 L1286.07 1423.18 L1311.73 1423.18 L1311.73 1420.8 L1286.07 1420.8 L1286.07 1420.8  Z" fill="#009af9" fill-rule="evenodd" fill-opacity="1"/>
<polyline clip-path="url(#clip151)" style="stroke:#000000; stroke-linecap:round; stroke-linejoin:round; stroke-width:4; stroke-opacity:1; fill:none" points="1286.07,1420.8 1286.07,1423.18 1311.73,1423.18 1311.73,1420.8 1286.07,1420.8 "/>
<path clip-path="url(#clip151)" d="M1311.73 1420.4 L1311.73 1423.18 L1337.38 1423.18 L1337.38 1420.4 L1311.73 1420.4 L1311.73 1420.4  Z" fill="#009af9" fill-rule="evenodd" fill-opacity="1"/>
<polyline clip-path="url(#clip151)" style="stroke:#000000; stroke-linecap:round; stroke-linejoin:round; stroke-width:4; stroke-opacity:1; fill:none" points="1311.73,1420.4 1311.73,1423.18 1337.38,1423.18 1337.38,1420.4 1311.73,1420.4 "/>
<path clip-path="url(#clip151)" d="M1337.38 1421.59 L1337.38 1423.18 L1363.04 1423.18 L1363.04 1421.59 L1337.38 1421.59 L1337.38 1421.59  Z" fill="#009af9" fill-rule="evenodd" fill-opacity="1"/>
<polyline clip-path="url(#clip151)" style="stroke:#000000; stroke-linecap:round; stroke-linejoin:round; stroke-width:4; stroke-opacity:1; fill:none" points="1337.38,1421.59 1337.38,1423.18 1363.04,1423.18 1363.04,1421.59 1337.38,1421.59 "/>
<path clip-path="url(#clip151)" d="M1363.04 1421.59 L1363.04 1423.18 L1388.7 1423.18 L1388.7 1421.59 L1363.04 1421.59 L1363.04 1421.59  Z" fill="#009af9" fill-rule="evenodd" fill-opacity="1"/>
<polyline clip-path="url(#clip151)" style="stroke:#000000; stroke-linecap:round; stroke-linejoin:round; stroke-width:4; stroke-opacity:1; fill:none" points="1363.04,1421.59 1363.04,1423.18 1388.7,1423.18 1388.7,1421.59 1363.04,1421.59 "/>
<path clip-path="url(#clip151)" d="M1388.7 1421.99 L1388.7 1423.18 L1414.36 1423.18 L1414.36 1421.99 L1388.7 1421.99 L1388.7 1421.99  Z" fill="#009af9" fill-rule="evenodd" fill-opacity="1"/>
<polyline clip-path="url(#clip151)" style="stroke:#000000; stroke-linecap:round; stroke-linejoin:round; stroke-width:4; stroke-opacity:1; fill:none" points="1388.7,1421.99 1388.7,1423.18 1414.36,1423.18 1414.36,1421.99 1388.7,1421.99 "/>
<path clip-path="url(#clip151)" d="M1414.36 1421.59 L1414.36 1423.18 L1440.02 1423.18 L1440.02 1421.59 L1414.36 1421.59 L1414.36 1421.59  Z" fill="#009af9" fill-rule="evenodd" fill-opacity="1"/>
<polyline clip-path="url(#clip151)" style="stroke:#000000; stroke-linecap:round; stroke-linejoin:round; stroke-width:4; stroke-opacity:1; fill:none" points="1414.36,1421.59 1414.36,1423.18 1440.02,1423.18 1440.02,1421.59 1414.36,1421.59 "/>
<path clip-path="url(#clip151)" d="M1440.02 1421.59 L1440.02 1423.18 L1465.67 1423.18 L1465.67 1421.59 L1440.02 1421.59 L1440.02 1421.59  Z" fill="#009af9" fill-rule="evenodd" fill-opacity="1"/>
<polyline clip-path="url(#clip151)" style="stroke:#000000; stroke-linecap:round; stroke-linejoin:round; stroke-width:4; stroke-opacity:1; fill:none" points="1440.02,1421.59 1440.02,1423.18 1465.67,1423.18 1465.67,1421.59 1440.02,1421.59 "/>
<path clip-path="url(#clip151)" d="M1465.67 1421.99 L1465.67 1423.18 L1491.33 1423.18 L1491.33 1421.99 L1465.67 1421.99 L1465.67 1421.99  Z" fill="#009af9" fill-rule="evenodd" fill-opacity="1"/>
<polyline clip-path="url(#clip151)" style="stroke:#000000; stroke-linecap:round; stroke-linejoin:round; stroke-width:4; stroke-opacity:1; fill:none" points="1465.67,1421.99 1465.67,1423.18 1491.33,1423.18 1491.33,1421.99 1465.67,1421.99 "/>
<path clip-path="url(#clip151)" d="M1491.33 1421.59 L1491.33 1423.18 L1516.99 1423.18 L1516.99 1421.59 L1491.33 1421.59 L1491.33 1421.59  Z" fill="#009af9" fill-rule="evenodd" fill-opacity="1"/>
<polyline clip-path="url(#clip151)" style="stroke:#000000; stroke-linecap:round; stroke-linejoin:round; stroke-width:4; stroke-opacity:1; fill:none" points="1491.33,1421.59 1491.33,1423.18 1516.99,1423.18 1516.99,1421.59 1491.33,1421.59 "/>
<path clip-path="url(#clip151)" d="M1516.99 1421.99 L1516.99 1423.18 L1542.65 1423.18 L1542.65 1421.99 L1516.99 1421.99 L1516.99 1421.99  Z" fill="#009af9" fill-rule="evenodd" fill-opacity="1"/>
<polyline clip-path="url(#clip151)" style="stroke:#000000; stroke-linecap:round; stroke-linejoin:round; stroke-width:4; stroke-opacity:1; fill:none" points="1516.99,1421.99 1516.99,1423.18 1542.65,1423.18 1542.65,1421.99 1516.99,1421.99 "/>
<path clip-path="url(#clip151)" d="M1542.65 1421.59 L1542.65 1423.18 L1568.31 1423.18 L1568.31 1421.59 L1542.65 1421.59 L1542.65 1421.59  Z" fill="#009af9" fill-rule="evenodd" fill-opacity="1"/>
<polyline clip-path="url(#clip151)" style="stroke:#000000; stroke-linecap:round; stroke-linejoin:round; stroke-width:4; stroke-opacity:1; fill:none" points="1542.65,1421.59 1542.65,1423.18 1568.31,1423.18 1568.31,1421.59 1542.65,1421.59 "/>
<path clip-path="url(#clip151)" d="M1568.31 1422.39 L1568.31 1423.18 L1593.96 1423.18 L1593.96 1422.39 L1568.31 1422.39 L1568.31 1422.39  Z" fill="#009af9" fill-rule="evenodd" fill-opacity="1"/>
<polyline clip-path="url(#clip151)" style="stroke:#000000; stroke-linecap:round; stroke-linejoin:round; stroke-width:4; stroke-opacity:1; fill:none" points="1568.31,1422.39 1568.31,1423.18 1593.96,1423.18 1593.96,1422.39 1568.31,1422.39 "/>
<path clip-path="url(#clip151)" d="M1593.96 1421.2 L1593.96 1423.18 L1619.62 1423.18 L1619.62 1421.2 L1593.96 1421.2 L1593.96 1421.2  Z" fill="#009af9" fill-rule="evenodd" fill-opacity="1"/>
<polyline clip-path="url(#clip151)" style="stroke:#000000; stroke-linecap:round; stroke-linejoin:round; stroke-width:4; stroke-opacity:1; fill:none" points="1593.96,1421.2 1593.96,1423.18 1619.62,1423.18 1619.62,1421.2 1593.96,1421.2 "/>
<path clip-path="url(#clip151)" d="M1619.62 1422.39 L1619.62 1423.18 L1645.28 1423.18 L1645.28 1422.39 L1619.62 1422.39 L1619.62 1422.39  Z" fill="#009af9" fill-rule="evenodd" fill-opacity="1"/>
<polyline clip-path="url(#clip151)" style="stroke:#000000; stroke-linecap:round; stroke-linejoin:round; stroke-width:4; stroke-opacity:1; fill:none" points="1619.62,1422.39 1619.62,1423.18 1645.28,1423.18 1645.28,1422.39 1619.62,1422.39 "/>
<path clip-path="url(#clip151)" d="M1645.28 1422.78 L1645.28 1423.18 L1670.94 1423.18 L1670.94 1422.78 L1645.28 1422.78 L1645.28 1422.78  Z" fill="#009af9" fill-rule="evenodd" fill-opacity="1"/>
<polyline clip-path="url(#clip151)" style="stroke:#000000; stroke-linecap:round; stroke-linejoin:round; stroke-width:4; stroke-opacity:1; fill:none" points="1645.28,1422.78 1645.28,1423.18 1670.94,1423.18 1670.94,1422.78 1645.28,1422.78 "/>
<path clip-path="url(#clip151)" d="M1670.94 1422.39 L1670.94 1423.18 L1696.6 1423.18 L1696.6 1422.39 L1670.94 1422.39 L1670.94 1422.39  Z" fill="#009af9" fill-rule="evenodd" fill-opacity="1"/>
<polyline clip-path="url(#clip151)" style="stroke:#000000; stroke-linecap:round; stroke-linejoin:round; stroke-width:4; stroke-opacity:1; fill:none" points="1670.94,1422.39 1670.94,1423.18 1696.6,1423.18 1696.6,1422.39 1670.94,1422.39 "/>
<path clip-path="url(#clip151)" d="M1696.6 1423.18 L1696.6 1423.18 L1722.26 1423.18 L1722.26 1423.18 L1696.6 1423.18 L1696.6 1423.18  Z" fill="#009af9" fill-rule="evenodd" fill-opacity="1"/>
<polyline clip-path="url(#clip151)" style="stroke:#000000; stroke-linecap:round; stroke-linejoin:round; stroke-width:4; stroke-opacity:1; fill:none" points="1696.6,1423.18 1696.6,1423.18 1722.26,1423.18 1696.6,1423.18 "/>
<path clip-path="url(#clip151)" d="M1722.26 1422.78 L1722.26 1423.18 L1747.91 1423.18 L1747.91 1422.78 L1722.26 1422.78 L1722.26 1422.78  Z" fill="#009af9" fill-rule="evenodd" fill-opacity="1"/>
<polyline clip-path="url(#clip151)" style="stroke:#000000; stroke-linecap:round; stroke-linejoin:round; stroke-width:4; stroke-opacity:1; fill:none" points="1722.26,1422.78 1722.26,1423.18 1747.91,1423.18 1747.91,1422.78 1722.26,1422.78 "/>
<path clip-path="url(#clip151)" d="M1747.91 1422.78 L1747.91 1423.18 L1773.57 1423.18 L1773.57 1422.78 L1747.91 1422.78 L1747.91 1422.78  Z" fill="#009af9" fill-rule="evenodd" fill-opacity="1"/>
<polyline clip-path="url(#clip151)" style="stroke:#000000; stroke-linecap:round; stroke-linejoin:round; stroke-width:4; stroke-opacity:1; fill:none" points="1747.91,1422.78 1747.91,1423.18 1773.57,1423.18 1773.57,1422.78 1747.91,1422.78 "/>
<path clip-path="url(#clip151)" d="M1773.57 1422.78 L1773.57 1423.18 L1799.23 1423.18 L1799.23 1422.78 L1773.57 1422.78 L1773.57 1422.78  Z" fill="#009af9" fill-rule="evenodd" fill-opacity="1"/>
<polyline clip-path="url(#clip151)" style="stroke:#000000; stroke-linecap:round; stroke-linejoin:round; stroke-width:4; stroke-opacity:1; fill:none" points="1773.57,1422.78 1773.57,1423.18 1799.23,1423.18 1799.23,1422.78 1773.57,1422.78 "/>
<path clip-path="url(#clip151)" d="M1799.23 1423.18 L1799.23 1423.18 L1824.89 1423.18 L1824.89 1423.18 L1799.23 1423.18 L1799.23 1423.18  Z" fill="#009af9" fill-rule="evenodd" fill-opacity="1"/>
<polyline clip-path="url(#clip151)" style="stroke:#000000; stroke-linecap:round; stroke-linejoin:round; stroke-width:4; stroke-opacity:1; fill:none" points="1799.23,1423.18 1799.23,1423.18 1824.89,1423.18 1799.23,1423.18 "/>
<path clip-path="url(#clip151)" d="M1824.89 1423.18 L1824.89 1423.18 L1850.55 1423.18 L1850.55 1423.18 L1824.89 1423.18 L1824.89 1423.18  Z" fill="#009af9" fill-rule="evenodd" fill-opacity="1"/>
<polyline clip-path="url(#clip151)" style="stroke:#000000; stroke-linecap:round; stroke-linejoin:round; stroke-width:4; stroke-opacity:1; fill:none" points="1824.89,1423.18 1824.89,1423.18 1850.55,1423.18 1824.89,1423.18 "/>
<path clip-path="url(#clip151)" d="M1850.55 1422.78 L1850.55 1423.18 L1876.2 1423.18 L1876.2 1422.78 L1850.55 1422.78 L1850.55 1422.78  Z" fill="#009af9" fill-rule="evenodd" fill-opacity="1"/>
<polyline clip-path="url(#clip151)" style="stroke:#000000; stroke-linecap:round; stroke-linejoin:round; stroke-width:4; stroke-opacity:1; fill:none" points="1850.55,1422.78 1850.55,1423.18 1876.2,1423.18 1876.2,1422.78 1850.55,1422.78 "/>
<path clip-path="url(#clip151)" d="M1876.2 1423.18 L1876.2 1423.18 L1901.86 1423.18 L1901.86 1423.18 L1876.2 1423.18 L1876.2 1423.18  Z" fill="#009af9" fill-rule="evenodd" fill-opacity="1"/>
<polyline clip-path="url(#clip151)" style="stroke:#000000; stroke-linecap:round; stroke-linejoin:round; stroke-width:4; stroke-opacity:1; fill:none" points="1876.2,1423.18 1876.2,1423.18 1901.86,1423.18 1876.2,1423.18 "/>
<path clip-path="url(#clip151)" d="M1901.86 1422.78 L1901.86 1423.18 L1927.52 1423.18 L1927.52 1422.78 L1901.86 1422.78 L1901.86 1422.78  Z" fill="#009af9" fill-rule="evenodd" fill-opacity="1"/>
<polyline clip-path="url(#clip151)" style="stroke:#000000; stroke-linecap:round; stroke-linejoin:round; stroke-width:4; stroke-opacity:1; fill:none" points="1901.86,1422.78 1901.86,1423.18 1927.52,1423.18 1927.52,1422.78 1901.86,1422.78 "/>
<path clip-path="url(#clip151)" d="M1927.52 1423.18 L1927.52 1423.18 L1953.18 1423.18 L1953.18 1423.18 L1927.52 1423.18 L1927.52 1423.18  Z" fill="#009af9" fill-rule="evenodd" fill-opacity="1"/>
<polyline clip-path="url(#clip151)" style="stroke:#000000; stroke-linecap:round; stroke-linejoin:round; stroke-width:4; stroke-opacity:1; fill:none" points="1927.52,1423.18 1927.52,1423.18 1953.18,1423.18 1927.52,1423.18 "/>
<path clip-path="url(#clip151)" d="M1953.18 1422.78 L1953.18 1423.18 L1978.84 1423.18 L1978.84 1422.78 L1953.18 1422.78 L1953.18 1422.78  Z" fill="#009af9" fill-rule="evenodd" fill-opacity="1"/>
<polyline clip-path="url(#clip151)" style="stroke:#000000; stroke-linecap:round; stroke-linejoin:round; stroke-width:4; stroke-opacity:1; fill:none" points="1953.18,1422.78 1953.18,1423.18 1978.84,1423.18 1978.84,1422.78 1953.18,1422.78 "/>
<path clip-path="url(#clip151)" d="M1978.84 1423.18 L1978.84 1423.18 L2004.49 1423.18 L2004.49 1423.18 L1978.84 1423.18 L1978.84 1423.18  Z" fill="#009af9" fill-rule="evenodd" fill-opacity="1"/>
<polyline clip-path="url(#clip151)" style="stroke:#000000; stroke-linecap:round; stroke-linejoin:round; stroke-width:4; stroke-opacity:1; fill:none" points="1978.84,1423.18 1978.84,1423.18 2004.49,1423.18 1978.84,1423.18 "/>
<path clip-path="url(#clip151)" d="M2004.49 1423.18 L2004.49 1423.18 L2030.15 1423.18 L2030.15 1423.18 L2004.49 1423.18 L2004.49 1423.18  Z" fill="#009af9" fill-rule="evenodd" fill-opacity="1"/>
<polyline clip-path="url(#clip151)" style="stroke:#000000; stroke-linecap:round; stroke-linejoin:round; stroke-width:4; stroke-opacity:1; fill:none" points="2004.49,1423.18 2004.49,1423.18 2030.15,1423.18 2004.49,1423.18 "/>
<path clip-path="url(#clip151)" d="M2030.15 1423.18 L2030.15 1423.18 L2055.81 1423.18 L2055.81 1423.18 L2030.15 1423.18 L2030.15 1423.18  Z" fill="#009af9" fill-rule="evenodd" fill-opacity="1"/>
<polyline clip-path="url(#clip151)" style="stroke:#000000; stroke-linecap:round; stroke-linejoin:round; stroke-width:4; stroke-opacity:1; fill:none" points="2030.15,1423.18 2030.15,1423.18 2055.81,1423.18 2030.15,1423.18 "/>
<path clip-path="url(#clip151)" d="M2055.81 1423.18 L2055.81 1423.18 L2081.47 1423.18 L2081.47 1423.18 L2055.81 1423.18 L2055.81 1423.18  Z" fill="#009af9" fill-rule="evenodd" fill-opacity="1"/>
<polyline clip-path="url(#clip151)" style="stroke:#000000; stroke-linecap:round; stroke-linejoin:round; stroke-width:4; stroke-opacity:1; fill:none" points="2055.81,1423.18 2055.81,1423.18 2081.47,1423.18 2055.81,1423.18 "/>
<path clip-path="url(#clip151)" d="M2081.47 1422.78 L2081.47 1423.18 L2107.13 1423.18 L2107.13 1422.78 L2081.47 1422.78 L2081.47 1422.78  Z" fill="#009af9" fill-rule="evenodd" fill-opacity="1"/>
<polyline clip-path="url(#clip151)" style="stroke:#000000; stroke-linecap:round; stroke-linejoin:round; stroke-width:4; stroke-opacity:1; fill:none" points="2081.47,1422.78 2081.47,1423.18 2107.13,1423.18 2107.13,1422.78 2081.47,1422.78 "/>
<path clip-path="url(#clip151)" d="M2107.13 1422.78 L2107.13 1423.18 L2132.78 1423.18 L2132.78 1422.78 L2107.13 1422.78 L2107.13 1422.78  Z" fill="#009af9" fill-rule="evenodd" fill-opacity="1"/>
<polyline clip-path="url(#clip151)" style="stroke:#000000; stroke-linecap:round; stroke-linejoin:round; stroke-width:4; stroke-opacity:1; fill:none" points="2107.13,1422.78 2107.13,1423.18 2132.78,1423.18 2132.78,1422.78 2107.13,1422.78 "/>
<path clip-path="url(#clip151)" d="M2132.78 1422.78 L2132.78 1423.18 L2158.44 1423.18 L2158.44 1422.78 L2132.78 1422.78 L2132.78 1422.78  Z" fill="#009af9" fill-rule="evenodd" fill-opacity="1"/>
<polyline clip-path="url(#clip151)" style="stroke:#000000; stroke-linecap:round; stroke-linejoin:round; stroke-width:4; stroke-opacity:1; fill:none" points="2132.78,1422.78 2132.78,1423.18 2158.44,1423.18 2158.44,1422.78 2132.78,1422.78 "/>
<path clip-path="url(#clip151)" d="M2158.44 1423.18 L2158.44 1423.18 L2184.1 1423.18 L2184.1 1423.18 L2158.44 1423.18 L2158.44 1423.18  Z" fill="#009af9" fill-rule="evenodd" fill-opacity="1"/>
<polyline clip-path="url(#clip151)" style="stroke:#000000; stroke-linecap:round; stroke-linejoin:round; stroke-width:4; stroke-opacity:1; fill:none" points="2158.44,1423.18 2158.44,1423.18 2184.1,1423.18 2158.44,1423.18 "/>
<path clip-path="url(#clip151)" d="M2184.1 1423.18 L2184.1 1423.18 L2209.76 1423.18 L2209.76 1423.18 L2184.1 1423.18 L2184.1 1423.18  Z" fill="#009af9" fill-rule="evenodd" fill-opacity="1"/>
<polyline clip-path="url(#clip151)" style="stroke:#000000; stroke-linecap:round; stroke-linejoin:round; stroke-width:4; stroke-opacity:1; fill:none" points="2184.1,1423.18 2184.1,1423.18 2209.76,1423.18 2184.1,1423.18 "/>
<path clip-path="url(#clip151)" d="M2209.76 1422.78 L2209.76 1423.18 L2235.42 1423.18 L2235.42 1422.78 L2209.76 1422.78 L2209.76 1422.78  Z" fill="#009af9" fill-rule="evenodd" fill-opacity="1"/>
<polyline clip-path="url(#clip151)" style="stroke:#000000; stroke-linecap:round; stroke-linejoin:round; stroke-width:4; stroke-opacity:1; fill:none" points="2209.76,1422.78 2209.76,1423.18 2235.42,1423.18 2235.42,1422.78 2209.76,1422.78 "/>
<circle clip-path="url(#clip151)" style="fill:#009af9; stroke:none; fill-opacity:0" cx="349.549" cy="47.2441" r="2"/>
<circle clip-path="url(#clip151)" style="fill:#009af9; stroke:none; fill-opacity:0" cx="375.207" cy="886.374" r="2"/>
<circle clip-path="url(#clip151)" style="fill:#009af9; stroke:none; fill-opacity:0" cx="400.865" cy="1098.24" r="2"/>
<circle clip-path="url(#clip151)" style="fill:#009af9; stroke:none; fill-opacity:0" cx="426.523" cy="1144.26" r="2"/>
<circle clip-path="url(#clip151)" style="fill:#009af9; stroke:none; fill-opacity:0" cx="452.181" cy="1210.12" r="2"/>
<circle clip-path="url(#clip151)" style="fill:#009af9; stroke:none; fill-opacity:0" cx="477.839" cy="1251.39" r="2"/>
<circle clip-path="url(#clip151)" style="fill:#009af9; stroke:none; fill-opacity:0" cx="503.497" cy="1283.13" r="2"/>
<circle clip-path="url(#clip151)" style="fill:#009af9; stroke:none; fill-opacity:0" cx="529.155" cy="1304.55" r="2"/>
<circle clip-path="url(#clip151)" style="fill:#009af9; stroke:none; fill-opacity:0" cx="554.813" cy="1329.94" r="2"/>
<circle clip-path="url(#clip151)" style="fill:#009af9; stroke:none; fill-opacity:0" cx="580.471" cy="1331.53" r="2"/>
<circle clip-path="url(#clip151)" style="fill:#009af9; stroke:none; fill-opacity:0" cx="606.129" cy="1341.45" r="2"/>
<circle clip-path="url(#clip151)" style="fill:#009af9; stroke:none; fill-opacity:0" cx="631.787" cy="1357.72" r="2"/>
<circle clip-path="url(#clip151)" style="fill:#009af9; stroke:none; fill-opacity:0" cx="657.445" cy="1365.25" r="2"/>
<circle clip-path="url(#clip151)" style="fill:#009af9; stroke:none; fill-opacity:0" cx="683.104" cy="1371.6" r="2"/>
<circle clip-path="url(#clip151)" style="fill:#009af9; stroke:none; fill-opacity:0" cx="708.762" cy="1372.4" r="2"/>
<circle clip-path="url(#clip151)" style="fill:#009af9; stroke:none; fill-opacity:0" cx="734.42" cy="1388.66" r="2"/>
<circle clip-path="url(#clip151)" style="fill:#009af9; stroke:none; fill-opacity:0" cx="760.078" cy="1390.65" r="2"/>
<circle clip-path="url(#clip151)" style="fill:#009af9; stroke:none; fill-opacity:0" cx="785.736" cy="1397.39" r="2"/>
<circle clip-path="url(#clip151)" style="fill:#009af9; stroke:none; fill-opacity:0" cx="811.394" cy="1399.37" r="2"/>
<circle clip-path="url(#clip151)" style="fill:#009af9; stroke:none; fill-opacity:0" cx="837.052" cy="1399.77" r="2"/>
<circle clip-path="url(#clip151)" style="fill:#009af9; stroke:none; fill-opacity:0" cx="862.71" cy="1403.74" r="2"/>
<circle clip-path="url(#clip151)" style="fill:#009af9; stroke:none; fill-opacity:0" cx="888.368" cy="1402.15" r="2"/>
<circle clip-path="url(#clip151)" style="fill:#009af9; stroke:none; fill-opacity:0" cx="914.026" cy="1407.31" r="2"/>
<circle clip-path="url(#clip151)" style="fill:#009af9; stroke:none; fill-opacity:0" cx="939.684" cy="1413.26" r="2"/>
<circle clip-path="url(#clip151)" style="fill:#009af9; stroke:none; fill-opacity:0" cx="965.342" cy="1411.28" r="2"/>
<circle clip-path="url(#clip151)" style="fill:#009af9; stroke:none; fill-opacity:0" cx="991" cy="1410.48" r="2"/>
<circle clip-path="url(#clip151)" style="fill:#009af9; stroke:none; fill-opacity:0" cx="1016.66" cy="1415.64" r="2"/>
<circle clip-path="url(#clip151)" style="fill:#009af9; stroke:none; fill-opacity:0" cx="1042.32" cy="1415.24" r="2"/>
<circle clip-path="url(#clip151)" style="fill:#009af9; stroke:none; fill-opacity:0" cx="1067.97" cy="1415.64" r="2"/>
<circle clip-path="url(#clip151)" style="fill:#009af9; stroke:none; fill-opacity:0" cx="1093.63" cy="1418.82" r="2"/>
<circle clip-path="url(#clip151)" style="fill:#009af9; stroke:none; fill-opacity:0" cx="1119.29" cy="1420.01" r="2"/>
<circle clip-path="url(#clip151)" style="fill:#009af9; stroke:none; fill-opacity:0" cx="1144.95" cy="1416.83" r="2"/>
<circle clip-path="url(#clip151)" style="fill:#009af9; stroke:none; fill-opacity:0" cx="1170.61" cy="1421.2" r="2"/>
<circle clip-path="url(#clip151)" style="fill:#009af9; stroke:none; fill-opacity:0" cx="1196.26" cy="1419.61" r="2"/>
<circle clip-path="url(#clip151)" style="fill:#009af9; stroke:none; fill-opacity:0" cx="1221.92" cy="1418.02" r="2"/>
<circle clip-path="url(#clip151)" style="fill:#009af9; stroke:none; fill-opacity:0" cx="1247.58" cy="1419.21" r="2"/>
<circle clip-path="url(#clip151)" style="fill:#009af9; stroke:none; fill-opacity:0" cx="1273.24" cy="1417.63" r="2"/>
<circle clip-path="url(#clip151)" style="fill:#009af9; stroke:none; fill-opacity:0" cx="1298.9" cy="1420.8" r="2"/>
<circle clip-path="url(#clip151)" style="fill:#009af9; stroke:none; fill-opacity:0" cx="1324.56" cy="1420.4" r="2"/>
<circle clip-path="url(#clip151)" style="fill:#009af9; stroke:none; fill-opacity:0" cx="1350.21" cy="1421.59" r="2"/>
<circle clip-path="url(#clip151)" style="fill:#009af9; stroke:none; fill-opacity:0" cx="1375.87" cy="1421.59" r="2"/>
<circle clip-path="url(#clip151)" style="fill:#009af9; stroke:none; fill-opacity:0" cx="1401.53" cy="1421.99" r="2"/>
<circle clip-path="url(#clip151)" style="fill:#009af9; stroke:none; fill-opacity:0" cx="1427.19" cy="1421.59" r="2"/>
<circle clip-path="url(#clip151)" style="fill:#009af9; stroke:none; fill-opacity:0" cx="1452.85" cy="1421.59" r="2"/>
<circle clip-path="url(#clip151)" style="fill:#009af9; stroke:none; fill-opacity:0" cx="1478.5" cy="1421.99" r="2"/>
<circle clip-path="url(#clip151)" style="fill:#009af9; stroke:none; fill-opacity:0" cx="1504.16" cy="1421.59" r="2"/>
<circle clip-path="url(#clip151)" style="fill:#009af9; stroke:none; fill-opacity:0" cx="1529.82" cy="1421.99" r="2"/>
<circle clip-path="url(#clip151)" style="fill:#009af9; stroke:none; fill-opacity:0" cx="1555.48" cy="1421.59" r="2"/>
<circle clip-path="url(#clip151)" style="fill:#009af9; stroke:none; fill-opacity:0" cx="1581.14" cy="1422.39" r="2"/>
<circle clip-path="url(#clip151)" style="fill:#009af9; stroke:none; fill-opacity:0" cx="1606.79" cy="1421.2" r="2"/>
<circle clip-path="url(#clip151)" style="fill:#009af9; stroke:none; fill-opacity:0" cx="1632.45" cy="1422.39" r="2"/>
<circle clip-path="url(#clip151)" style="fill:#009af9; stroke:none; fill-opacity:0" cx="1658.11" cy="1422.78" r="2"/>
<circle clip-path="url(#clip151)" style="fill:#009af9; stroke:none; fill-opacity:0" cx="1683.77" cy="1422.39" r="2"/>
<circle clip-path="url(#clip151)" style="fill:#009af9; stroke:none; fill-opacity:0" cx="1709.43" cy="1423.18" r="2"/>
<circle clip-path="url(#clip151)" style="fill:#009af9; stroke:none; fill-opacity:0" cx="1735.08" cy="1422.78" r="2"/>
<circle clip-path="url(#clip151)" style="fill:#009af9; stroke:none; fill-opacity:0" cx="1760.74" cy="1422.78" r="2"/>
<circle clip-path="url(#clip151)" style="fill:#009af9; stroke:none; fill-opacity:0" cx="1786.4" cy="1422.78" r="2"/>
<circle clip-path="url(#clip151)" style="fill:#009af9; stroke:none; fill-opacity:0" cx="1812.06" cy="1423.18" r="2"/>
<circle clip-path="url(#clip151)" style="fill:#009af9; stroke:none; fill-opacity:0" cx="1837.72" cy="1423.18" r="2"/>
<circle clip-path="url(#clip151)" style="fill:#009af9; stroke:none; fill-opacity:0" cx="1863.37" cy="1422.78" r="2"/>
<circle clip-path="url(#clip151)" style="fill:#009af9; stroke:none; fill-opacity:0" cx="1889.03" cy="1423.18" r="2"/>
<circle clip-path="url(#clip151)" style="fill:#009af9; stroke:none; fill-opacity:0" cx="1914.69" cy="1422.78" r="2"/>
<circle clip-path="url(#clip151)" style="fill:#009af9; stroke:none; fill-opacity:0" cx="1940.35" cy="1423.18" r="2"/>
<circle clip-path="url(#clip151)" style="fill:#009af9; stroke:none; fill-opacity:0" cx="1966.01" cy="1422.78" r="2"/>
<circle clip-path="url(#clip151)" style="fill:#009af9; stroke:none; fill-opacity:0" cx="1991.66" cy="1423.18" r="2"/>
<circle clip-path="url(#clip151)" style="fill:#009af9; stroke:none; fill-opacity:0" cx="2017.32" cy="1423.18" r="2"/>
<circle clip-path="url(#clip151)" style="fill:#009af9; stroke:none; fill-opacity:0" cx="2042.98" cy="1423.18" r="2"/>
<circle clip-path="url(#clip151)" style="fill:#009af9; stroke:none; fill-opacity:0" cx="2068.64" cy="1423.18" r="2"/>
<circle clip-path="url(#clip151)" style="fill:#009af9; stroke:none; fill-opacity:0" cx="2094.3" cy="1422.78" r="2"/>
<circle clip-path="url(#clip151)" style="fill:#009af9; stroke:none; fill-opacity:0" cx="2119.96" cy="1422.78" r="2"/>
<circle clip-path="url(#clip151)" style="fill:#009af9; stroke:none; fill-opacity:0" cx="2145.61" cy="1422.78" r="2"/>
<circle clip-path="url(#clip151)" style="fill:#009af9; stroke:none; fill-opacity:0" cx="2171.27" cy="1423.18" r="2"/>
<circle clip-path="url(#clip151)" style="fill:#009af9; stroke:none; fill-opacity:0" cx="2196.93" cy="1423.18" r="2"/>
<circle clip-path="url(#clip151)" style="fill:#009af9; stroke:none; fill-opacity:0" cx="2222.59" cy="1422.78" r="2"/>
<polyline clip-path="url(#clip151)" style="stroke:#e26f46; stroke-linecap:round; stroke-linejoin:round; stroke-width:16; stroke-opacity:1; fill:none" points="349.549,470.944 368.409,860.236 387.268,1009.05 406.128,1094.81 424.988,1152.63 443.848,1195 462.708,1227.68 481.568,1253.77 500.428,1275.12 519.287,1292.92 538.147,1307.95 557.007,1320.8 575.867,1331.89 594.727,1341.52 613.587,1349.93 632.447,1357.33 651.306,1363.86 670.166,1369.64 689.026,1374.79 707.886,1379.37 726.746,1383.48 745.606,1387.15 764.466,1390.45 783.325,1393.42 802.185,1396.09 821.045,1398.51 839.905,1400.69 858.765,1402.66 877.625,1404.45 896.485,1406.08 915.345,1407.55 934.204,1408.89 953.064,1410.11 971.924,1411.21 990.784,1412.22 1009.64,1413.14 1028.5,1413.98 1047.36,1414.75 1066.22,1415.45 1085.08,1416.09 1103.94,1416.67 1122.8,1417.21 1141.66,1417.69 1160.52,1418.14 1179.38,1418.55 1198.24,1418.93 1217.1,1419.27 1235.96,1419.59 1254.82,1419.88 1273.68,1420.14 1292.54,1420.38 1311.4,1420.61 1330.26,1420.81 1349.12,1421 1367.98,1421.17 1386.84,1421.33 1405.7,1421.48 1424.56,1421.61 1443.42,1421.74 1462.28,1421.85 1481.14,1421.95 1500,1422.05 1518.86,1422.14 1537.72,1422.22 1556.58,1422.3 1575.44,1422.36 1594.3,1422.43 1613.16,1422.49 1632.02,1422.54 1650.88,1422.59 1669.74,1422.64 1688.6,1422.68 1707.46,1422.72 1726.32,1422.75 1745.18,1422.79 1764.04,1422.82 1782.9,1422.84 1801.76,1422.87 1820.62,1422.89 1839.48,1422.92 1858.34,1422.94 1877.2,1422.95 1896.06,1422.97 1914.92,1422.99 1933.78,1423 1952.64,1423.02 1971.5,1423.03 1990.36,1423.04 2009.22,1423.05 2028.08,1423.06 2046.94,1423.07 2065.8,1423.08 2084.66,1423.09 2103.52,1423.09 2122.38,1423.1 2141.24,1423.11 2160.1,1423.11 2178.96,1423.12 2197.82,1423.12 2216.68,1423.13 "/>
<path clip-path="url(#clip150)" d="M2015.88 248.629 L2281.64 248.629 L2281.64 93.1086 L2015.88 93.1086  Z" fill="#ffffff" fill-rule="evenodd" fill-opacity="1"/>
<polyline clip-path="url(#clip150)" style="stroke:#000000; stroke-linecap:round; stroke-linejoin:round; stroke-width:4; stroke-opacity:1; fill:none" points="2015.88,248.629 2281.64,248.629 2281.64,93.1086 2015.88,93.1086 2015.88,248.629 "/>
<path clip-path="url(#clip150)" d="M2039.58 165.685 L2181.8 165.685 L2181.8 124.213 L2039.58 124.213 L2039.58 165.685  Z" fill="#009af9" fill-rule="evenodd" fill-opacity="1"/>
<polyline clip-path="url(#clip150)" style="stroke:#000000; stroke-linecap:round; stroke-linejoin:round; stroke-width:4; stroke-opacity:1; fill:none" points="2039.58,165.685 2181.8,165.685 2181.8,124.213 2039.58,124.213 2039.58,165.685 "/>
<path clip-path="url(#clip150)" d="M2219.35 164.636 Q2217.55 169.266 2215.83 170.678 Q2214.12 172.09 2211.25 172.09 L2207.85 172.09 L2207.85 168.525 L2210.35 168.525 Q2212.11 168.525 2213.08 167.692 Q2214.05 166.858 2215.23 163.756 L2215.99 161.812 L2205.51 136.303 L2210.02 136.303 L2218.12 156.581 L2226.23 136.303 L2230.74 136.303 L2219.35 164.636 Z" fill="#000000" fill-rule="nonzero" fill-opacity="1" /><path clip-path="url(#clip150)" d="M2238.03 158.293 L2245.67 158.293 L2245.67 131.928 L2237.36 133.595 L2237.36 129.335 L2245.62 127.669 L2250.3 127.669 L2250.3 158.293 L2257.94 158.293 L2257.94 162.229 L2238.03 162.229 L2238.03 158.293 Z" fill="#000000" fill-rule="nonzero" fill-opacity="1" /><polyline clip-path="url(#clip150)" style="stroke:#e26f46; stroke-linecap:round; stroke-linejoin:round; stroke-width:16; stroke-opacity:1; fill:none" points="2039.58,196.789 2181.8,196.789 "/>
<path clip-path="url(#clip150)" d="M2219.35 216.476 Q2217.55 221.106 2215.83 222.518 Q2214.12 223.93 2211.25 223.93 L2207.85 223.93 L2207.85 220.365 L2210.35 220.365 Q2212.11 220.365 2213.08 219.532 Q2214.05 218.698 2215.23 215.596 L2215.99 213.652 L2205.51 188.143 L2210.02 188.143 L2218.12 208.421 L2226.23 188.143 L2230.74 188.143 L2219.35 216.476 Z" fill="#000000" fill-rule="nonzero" fill-opacity="1" /><path clip-path="url(#clip150)" d="M2241.25 210.133 L2257.57 210.133 L2257.57 214.069 L2235.62 214.069 L2235.62 210.133 Q2238.29 207.379 2242.87 202.749 Q2247.48 198.096 2248.66 196.754 Q2250.9 194.231 2251.78 192.495 Q2252.68 190.735 2252.68 189.046 Q2252.68 186.291 2250.74 184.555 Q2248.82 182.819 2245.72 182.819 Q2243.52 182.819 2241.06 183.583 Q2238.63 184.347 2235.86 185.897 L2235.86 181.175 Q2238.68 180.041 2241.13 179.462 Q2243.59 178.884 2245.62 178.884 Q2250.99 178.884 2254.19 181.569 Q2257.38 184.254 2257.38 188.745 Q2257.38 190.874 2256.57 192.796 Q2255.79 194.694 2253.68 197.286 Q2253.1 197.958 2250 201.175 Q2246.9 204.37 2241.25 210.133 Z" fill="#000000" fill-rule="nonzero" fill-opacity="1" /></svg>
