<?xml version="1.0" encoding="utf-8"?>
<svg xmlns="http://www.w3.org/2000/svg" xmlns:xlink="http://www.w3.org/1999/xlink" width="600" height="400" viewBox="0 0 2400 1600">
<defs>
  <clipPath id="clip790">
    <rect x="0" y="0" width="2400" height="1600"/>
  </clipPath>
</defs>
<path clip-path="url(#clip790)" d="M0 1600 L2400 1600 L2400 0 L0 0  Z" fill="#ffffff" fill-rule="evenodd" fill-opacity="1"/>
<defs>
  <clipPath id="clip791">
    <rect x="219" y="47" width="2134" height="1377"/>
  </clipPath>
</defs>
<path clip-path="url(#clip790)" d="M219.38 1423.18 L2352.76 1423.18 L2352.76 47.2441 L219.38 47.2441  Z" fill="#ffffff" fill-rule="evenodd" fill-opacity="1"/>
<polyline clip-path="url(#clip791)" style="stroke:#000000; stroke-linecap:round; stroke-linejoin:round; stroke-width:2; stroke-opacity:0.1; fill:none" points="336.72,1423.18 336.72,47.2441 "/>
<polyline clip-path="url(#clip791)" style="stroke:#000000; stroke-linecap:round; stroke-linejoin:round; stroke-width:2; stroke-opacity:0.1; fill:none" points="937.573,1423.18 937.573,47.2441 "/>
<polyline clip-path="url(#clip791)" style="stroke:#000000; stroke-linecap:round; stroke-linejoin:round; stroke-width:2; stroke-opacity:0.1; fill:none" points="1538.43,1423.18 1538.43,47.2441 "/>
<polyline clip-path="url(#clip791)" style="stroke:#000000; stroke-linecap:round; stroke-linejoin:round; stroke-width:2; stroke-opacity:0.1; fill:none" points="2139.28,1423.18 2139.28,47.2441 "/>
<polyline clip-path="url(#clip791)" style="stroke:#000000; stroke-linecap:round; stroke-linejoin:round; stroke-width:2; stroke-opacity:0.1; fill:none" points="219.38,1423.18 2352.76,1423.18 "/>
<polyline clip-path="url(#clip791)" style="stroke:#000000; stroke-linecap:round; stroke-linejoin:round; stroke-width:2; stroke-opacity:0.1; fill:none" points="219.38,1023.43 2352.76,1023.43 "/>
<polyline clip-path="url(#clip791)" style="stroke:#000000; stroke-linecap:round; stroke-linejoin:round; stroke-width:2; stroke-opacity:0.1; fill:none" points="219.38,623.682 2352.76,623.682 "/>
<polyline clip-path="url(#clip791)" style="stroke:#000000; stroke-linecap:round; stroke-linejoin:round; stroke-width:2; stroke-opacity:0.1; fill:none" points="219.38,223.933 2352.76,223.933 "/>
<polyline clip-path="url(#clip790)" style="stroke:#000000; stroke-linecap:round; stroke-linejoin:round; stroke-width:4; stroke-opacity:1; fill:none" points="219.38,1423.18 2352.76,1423.18 "/>
<polyline clip-path="url(#clip790)" style="stroke:#000000; stroke-linecap:round; stroke-linejoin:round; stroke-width:4; stroke-opacity:1; fill:none" points="336.72,1423.18 336.72,1404.28 "/>
<polyline clip-path="url(#clip790)" style="stroke:#000000; stroke-linecap:round; stroke-linejoin:round; stroke-width:4; stroke-opacity:1; fill:none" points="937.573,1423.18 937.573,1404.28 "/>
<polyline clip-path="url(#clip790)" style="stroke:#000000; stroke-linecap:round; stroke-linejoin:round; stroke-width:4; stroke-opacity:1; fill:none" points="1538.43,1423.18 1538.43,1404.28 "/>
<polyline clip-path="url(#clip790)" style="stroke:#000000; stroke-linecap:round; stroke-linejoin:round; stroke-width:4; stroke-opacity:1; fill:none" points="2139.28,1423.18 2139.28,1404.28 "/>
<path clip-path="url(#clip790)" d="M336.72 1454.1 Q333.109 1454.1 331.28 1457.66 Q329.474 1461.2 329.474 1468.33 Q329.474 1475.44 331.28 1479.01 Q333.109 1482.55 336.72 1482.55 Q340.354 1482.55 342.159 1479.01 Q343.988 1475.44 343.988 1468.33 Q343.988 1461.2 342.159 1457.66 Q340.354 1454.1 336.72 1454.1 M336.72 1450.39 Q342.53 1450.39 345.585 1455 Q348.664 1459.58 348.664 1468.33 Q348.664 1477.06 345.585 1481.67 Q342.53 1486.25 336.72 1486.25 Q330.909 1486.25 327.831 1481.67 Q324.775 1477.06 324.775 1468.33 Q324.775 1459.58 327.831 1455 Q330.909 1450.39 336.72 1450.39 Z" fill="#000000" fill-rule="nonzero" fill-opacity="1" /><path clip-path="url(#clip790)" d="M927.851 1451.02 L946.207 1451.02 L946.207 1454.96 L932.133 1454.96 L932.133 1463.43 Q933.152 1463.08 934.17 1462.92 Q935.189 1462.73 936.207 1462.73 Q941.994 1462.73 945.374 1465.9 Q948.754 1469.08 948.754 1474.49 Q948.754 1480.07 945.281 1483.17 Q941.809 1486.25 935.49 1486.25 Q933.314 1486.25 931.045 1485.88 Q928.8 1485.51 926.393 1484.77 L926.393 1480.07 Q928.476 1481.2 930.698 1481.76 Q932.92 1482.32 935.397 1482.32 Q939.402 1482.32 941.74 1480.21 Q944.078 1478.1 944.078 1474.49 Q944.078 1470.88 941.74 1468.77 Q939.402 1466.67 935.397 1466.67 Q933.522 1466.67 931.647 1467.08 Q929.795 1467.5 927.851 1468.38 L927.851 1451.02 Z" fill="#000000" fill-rule="nonzero" fill-opacity="1" /><path clip-path="url(#clip790)" d="M1513.11 1481.64 L1520.75 1481.64 L1520.75 1455.28 L1512.44 1456.95 L1512.44 1452.69 L1520.71 1451.02 L1525.38 1451.02 L1525.38 1481.64 L1533.02 1481.64 L1533.02 1485.58 L1513.11 1485.58 L1513.11 1481.64 Z" fill="#000000" fill-rule="nonzero" fill-opacity="1" /><path clip-path="url(#clip790)" d="M1552.47 1454.1 Q1548.85 1454.1 1547.03 1457.66 Q1545.22 1461.2 1545.22 1468.33 Q1545.22 1475.44 1547.03 1479.01 Q1548.85 1482.55 1552.47 1482.55 Q1556.1 1482.55 1557.91 1479.01 Q1559.73 1475.44 1559.73 1468.33 Q1559.73 1461.2 1557.91 1457.66 Q1556.1 1454.1 1552.47 1454.1 M1552.47 1450.39 Q1558.28 1450.39 1561.33 1455 Q1564.41 1459.58 1564.41 1468.33 Q1564.41 1477.06 1561.33 1481.67 Q1558.28 1486.25 1552.47 1486.25 Q1546.66 1486.25 1543.58 1481.67 Q1540.52 1477.06 1540.52 1468.33 Q1540.52 1459.58 1543.58 1455 Q1546.66 1450.39 1552.47 1450.39 Z" fill="#000000" fill-rule="nonzero" fill-opacity="1" /><path clip-path="url(#clip790)" d="M2114.47 1481.64 L2122.1 1481.64 L2122.1 1455.28 L2113.79 1456.95 L2113.79 1452.69 L2122.06 1451.02 L2126.73 1451.02 L2126.73 1481.64 L2134.37 1481.64 L2134.37 1485.58 L2114.47 1485.58 L2114.47 1481.64 Z" fill="#000000" fill-rule="nonzero" fill-opacity="1" /><path clip-path="url(#clip790)" d="M2143.86 1451.02 L2162.22 1451.02 L2162.22 1454.96 L2148.15 1454.96 L2148.15 1463.43 Q2149.16 1463.08 2150.18 1462.92 Q2151.2 1462.73 2152.22 1462.73 Q2158.01 1462.73 2161.39 1465.9 Q2164.77 1469.08 2164.77 1474.49 Q2164.77 1480.07 2161.29 1483.17 Q2157.82 1486.25 2151.5 1486.25 Q2149.33 1486.25 2147.06 1485.88 Q2144.81 1485.51 2142.4 1484.77 L2142.4 1480.07 Q2144.49 1481.2 2146.71 1481.76 Q2148.93 1482.32 2151.41 1482.32 Q2155.41 1482.32 2157.75 1480.21 Q2160.09 1478.1 2160.09 1474.49 Q2160.09 1470.88 2157.75 1468.77 Q2155.41 1466.67 2151.41 1466.67 Q2149.53 1466.67 2147.66 1467.08 Q2145.81 1467.5 2143.86 1468.38 L2143.86 1451.02 Z" fill="#000000" fill-rule="nonzero" fill-opacity="1" /><path clip-path="url(#clip790)" d="M1285.13 1522.27 L1285.13 1532.4 L1297.19 1532.4 L1297.19 1536.95 L1285.13 1536.95 L1285.13 1556.3 Q1285.13 1560.66 1286.31 1561.9 Q1287.52 1563.14 1291.18 1563.14 L1297.19 1563.14 L1297.19 1568.04 L1291.18 1568.04 Q1284.4 1568.04 1281.82 1565.53 Q1279.24 1562.98 1279.24 1556.3 L1279.24 1536.95 L1274.94 1536.95 L1274.94 1532.4 L1279.24 1532.4 L1279.24 1522.27 L1285.13 1522.27 Z" fill="#000000" fill-rule="nonzero" fill-opacity="1" /><polyline clip-path="url(#clip790)" style="stroke:#000000; stroke-linecap:round; stroke-linejoin:round; stroke-width:4; stroke-opacity:1; fill:none" points="219.38,1423.18 219.38,47.2441 "/>
<polyline clip-path="url(#clip790)" style="stroke:#000000; stroke-linecap:round; stroke-linejoin:round; stroke-width:4; stroke-opacity:1; fill:none" points="219.38,1423.18 238.278,1423.18 "/>
<polyline clip-path="url(#clip790)" style="stroke:#000000; stroke-linecap:round; stroke-linejoin:round; stroke-width:4; stroke-opacity:1; fill:none" points="219.38,1023.43 238.278,1023.43 "/>
<polyline clip-path="url(#clip790)" style="stroke:#000000; stroke-linecap:round; stroke-linejoin:round; stroke-width:4; stroke-opacity:1; fill:none" points="219.38,623.682 238.278,623.682 "/>
<polyline clip-path="url(#clip790)" style="stroke:#000000; stroke-linecap:round; stroke-linejoin:round; stroke-width:4; stroke-opacity:1; fill:none" points="219.38,223.933 238.278,223.933 "/>
<path clip-path="url(#clip790)" d="M126.205 1408.98 Q122.593 1408.98 120.765 1412.54 Q118.959 1416.08 118.959 1423.21 Q118.959 1430.32 120.765 1433.89 Q122.593 1437.43 126.205 1437.43 Q129.839 1437.43 131.644 1433.89 Q133.473 1430.32 133.473 1423.21 Q133.473 1416.08 131.644 1412.54 Q129.839 1408.98 126.205 1408.98 M126.205 1405.27 Q132.015 1405.27 135.07 1409.88 Q138.149 1414.46 138.149 1423.21 Q138.149 1431.94 135.07 1436.55 Q132.015 1441.13 126.205 1441.13 Q120.394 1441.13 117.316 1436.55 Q114.26 1431.94 114.26 1423.21 Q114.26 1414.46 117.316 1409.88 Q120.394 1405.27 126.205 1405.27 Z" fill="#000000" fill-rule="nonzero" fill-opacity="1" /><path clip-path="url(#clip790)" d="M146.366 1434.58 L151.251 1434.58 L151.251 1440.46 L146.366 1440.46 L146.366 1434.58 Z" fill="#000000" fill-rule="nonzero" fill-opacity="1" /><path clip-path="url(#clip790)" d="M171.436 1408.98 Q167.825 1408.98 165.996 1412.54 Q164.19 1416.08 164.19 1423.21 Q164.19 1430.32 165.996 1433.89 Q167.825 1437.43 171.436 1437.43 Q175.07 1437.43 176.876 1433.89 Q178.704 1430.32 178.704 1423.21 Q178.704 1416.08 176.876 1412.54 Q175.07 1408.98 171.436 1408.98 M171.436 1405.27 Q177.246 1405.27 180.301 1409.88 Q183.38 1414.46 183.38 1423.21 Q183.38 1431.94 180.301 1436.55 Q177.246 1441.13 171.436 1441.13 Q165.626 1441.13 162.547 1436.55 Q159.491 1431.94 159.491 1423.21 Q159.491 1414.46 162.547 1409.88 Q165.626 1405.27 171.436 1405.27 Z" fill="#000000" fill-rule="nonzero" fill-opacity="1" /><path clip-path="url(#clip790)" d="M127.2 1009.23 Q123.589 1009.23 121.76 1012.79 Q119.955 1016.34 119.955 1023.47 Q119.955 1030.57 121.76 1034.14 Q123.589 1037.68 127.2 1037.68 Q130.834 1037.68 132.64 1034.14 Q134.468 1030.57 134.468 1023.47 Q134.468 1016.34 132.64 1012.79 Q130.834 1009.23 127.2 1009.23 M127.2 1005.53 Q133.01 1005.53 136.066 1010.13 Q139.144 1014.72 139.144 1023.47 Q139.144 1032.19 136.066 1036.8 Q133.01 1041.38 127.2 1041.38 Q121.39 1041.38 118.311 1036.8 Q115.256 1032.19 115.256 1023.47 Q115.256 1014.72 118.311 1010.13 Q121.39 1005.53 127.2 1005.53 Z" fill="#000000" fill-rule="nonzero" fill-opacity="1" /><path clip-path="url(#clip790)" d="M147.362 1034.83 L152.246 1034.83 L152.246 1040.71 L147.362 1040.71 L147.362 1034.83 Z" fill="#000000" fill-rule="nonzero" fill-opacity="1" /><path clip-path="url(#clip790)" d="M162.477 1006.15 L180.834 1006.15 L180.834 1010.09 L166.76 1010.09 L166.76 1018.56 Q167.778 1018.21 168.797 1018.05 Q169.815 1017.86 170.834 1017.86 Q176.621 1017.86 180.001 1021.04 Q183.38 1024.21 183.38 1029.62 Q183.38 1035.2 179.908 1038.3 Q176.436 1041.38 170.116 1041.38 Q167.94 1041.38 165.672 1041.01 Q163.427 1040.64 161.019 1039.9 L161.019 1035.2 Q163.102 1036.34 165.325 1036.89 Q167.547 1037.45 170.024 1037.45 Q174.028 1037.45 176.366 1035.34 Q178.704 1033.23 178.704 1029.62 Q178.704 1026.01 176.366 1023.91 Q174.028 1021.8 170.024 1021.8 Q168.149 1021.8 166.274 1022.22 Q164.422 1022.63 162.477 1023.51 L162.477 1006.15 Z" fill="#000000" fill-rule="nonzero" fill-opacity="1" /><path clip-path="url(#clip790)" d="M117.015 637.027 L124.654 637.027 L124.654 610.661 L116.343 612.328 L116.343 608.069 L124.607 606.402 L129.283 606.402 L129.283 637.027 L136.922 637.027 L136.922 640.962 L117.015 640.962 L117.015 637.027 Z" fill="#000000" fill-rule="nonzero" fill-opacity="1" /><path clip-path="url(#clip790)" d="M146.366 635.082 L151.251 635.082 L151.251 640.962 L146.366 640.962 L146.366 635.082 Z" fill="#000000" fill-rule="nonzero" fill-opacity="1" /><path clip-path="url(#clip790)" d="M171.436 609.481 Q167.825 609.481 165.996 613.046 Q164.19 616.587 164.19 623.717 Q164.19 630.823 165.996 634.388 Q167.825 637.93 171.436 637.93 Q175.07 637.93 176.876 634.388 Q178.704 630.823 178.704 623.717 Q178.704 616.587 176.876 613.046 Q175.07 609.481 171.436 609.481 M171.436 605.777 Q177.246 605.777 180.301 610.383 Q183.38 614.967 183.38 623.717 Q183.38 632.444 180.301 637.05 Q177.246 641.633 171.436 641.633 Q165.626 641.633 162.547 637.05 Q159.491 632.444 159.491 623.717 Q159.491 614.967 162.547 610.383 Q165.626 605.777 171.436 605.777 Z" fill="#000000" fill-rule="nonzero" fill-opacity="1" /><path clip-path="url(#clip790)" d="M118.01 237.278 L125.649 237.278 L125.649 210.912 L117.339 212.579 L117.339 208.32 L125.603 206.653 L130.279 206.653 L130.279 237.278 L137.917 237.278 L137.917 241.213 L118.01 241.213 L118.01 237.278 Z" fill="#000000" fill-rule="nonzero" fill-opacity="1" /><path clip-path="url(#clip790)" d="M147.362 235.334 L152.246 235.334 L152.246 241.213 L147.362 241.213 L147.362 235.334 Z" fill="#000000" fill-rule="nonzero" fill-opacity="1" /><path clip-path="url(#clip790)" d="M162.477 206.653 L180.834 206.653 L180.834 210.588 L166.76 210.588 L166.76 219.06 Q167.778 218.713 168.797 218.551 Q169.815 218.366 170.834 218.366 Q176.621 218.366 180.001 221.537 Q183.38 224.709 183.38 230.125 Q183.38 235.704 179.908 238.806 Q176.436 241.884 170.116 241.884 Q167.94 241.884 165.672 241.514 Q163.427 241.144 161.019 240.403 L161.019 235.704 Q163.102 236.838 165.325 237.394 Q167.547 237.949 170.024 237.949 Q174.028 237.949 176.366 235.843 Q178.704 233.736 178.704 230.125 Q178.704 226.514 176.366 224.408 Q174.028 222.301 170.024 222.301 Q168.149 222.301 166.274 222.718 Q164.422 223.135 162.477 224.014 L162.477 206.653 Z" fill="#000000" fill-rule="nonzero" fill-opacity="1" /><path clip-path="url(#clip790)" d="M33.8307 800.206 Q33.2578 801.193 33.0032 802.37 Q32.7167 803.516 32.7167 804.916 Q32.7167 809.882 35.9632 812.555 Q39.1779 815.197 45.2253 815.197 L64.0042 815.197 L64.0042 821.085 L28.3562 821.085 L28.3562 815.197 L33.8944 815.197 Q30.6479 813.351 29.0883 810.391 Q27.4968 807.431 27.4968 803.198 Q27.4968 802.593 27.5923 801.861 Q27.656 801.129 27.8151 800.238 L33.8307 800.206 Z" fill="#000000" fill-rule="nonzero" fill-opacity="1" /><path clip-path="url(#clip790)" d="M42.4881 765.576 L64.0042 765.576 L64.0042 771.433 L42.679 771.433 Q37.6183 771.433 35.1038 773.406 Q32.5894 775.38 32.5894 779.326 Q32.5894 784.069 35.6131 786.806 Q38.6368 789.543 43.8567 789.543 L64.0042 789.543 L64.0042 795.432 L14.479 795.432 L14.479 789.543 L33.8944 789.543 Q30.6797 787.443 29.0883 784.61 Q27.4968 781.745 27.4968 778.021 Q27.4968 771.878 31.3163 768.727 Q35.1038 765.576 42.4881 765.576 Z" fill="#000000" fill-rule="nonzero" fill-opacity="1" /><path clip-path="url(#clip790)" d="M32.4621 740.082 Q32.4621 744.792 36.1542 747.53 Q39.8145 750.267 46.212 750.267 Q52.6095 750.267 56.3017 747.561 Q59.9619 744.824 59.9619 740.082 Q59.9619 735.403 56.2698 732.666 Q52.5777 729.928 46.212 729.928 Q39.8781 729.928 36.186 732.666 Q32.4621 735.403 32.4621 740.082 M27.4968 740.082 Q27.4968 732.443 32.4621 728.082 Q37.4273 723.722 46.212 723.722 Q54.9649 723.722 59.9619 728.082 Q64.9272 732.443 64.9272 740.082 Q64.9272 747.752 59.9619 752.113 Q54.9649 756.442 46.212 756.442 Q37.4273 756.442 32.4621 752.113 Q27.4968 747.752 27.4968 740.082 Z" fill="#000000" fill-rule="nonzero" fill-opacity="1" /><path clip-path="url(#clip790)" d="M14.5426 699.946 Q21.8632 704.211 29.0246 706.28 Q36.186 708.349 43.5384 708.349 Q50.8908 708.349 58.1159 706.28 Q65.3091 704.179 72.5979 699.946 L72.5979 705.039 Q65.1182 709.813 57.8931 712.2 Q50.668 714.555 43.5384 714.555 Q36.4406 714.555 29.2474 712.2 Q22.0542 709.845 14.5426 705.039 L14.5426 699.946 Z" fill="#000000" fill-rule="nonzero" fill-opacity="1" /><path clip-path="url(#clip790)" d="M18.2347 682.79 L28.3562 682.79 L28.3562 670.727 L32.9077 670.727 L32.9077 682.79 L52.2594 682.79 Q56.6199 682.79 57.8613 681.613 Q59.1026 680.403 59.1026 676.743 L59.1026 670.727 L64.0042 670.727 L64.0042 676.743 Q64.0042 683.522 61.4897 686.101 Q58.9434 688.679 52.2594 688.679 L32.9077 688.679 L32.9077 692.976 L28.3562 692.976 L28.3562 688.679 L18.2347 688.679 L18.2347 682.79 Z" fill="#000000" fill-rule="nonzero" fill-opacity="1" /><path clip-path="url(#clip790)" d="M14.5426 663.948 L14.5426 658.855 Q22.0542 654.081 29.2474 651.726 Q36.4406 649.339 43.5384 649.339 Q50.668 649.339 57.8931 651.726 Q65.1182 654.081 72.5979 658.855 L72.5979 663.948 Q65.3091 659.715 58.1159 657.646 Q50.8908 655.545 43.5384 655.545 Q36.186 655.545 29.0246 657.646 Q21.8632 659.715 14.5426 663.948 Z" fill="#000000" fill-rule="nonzero" fill-opacity="1" /><path clip-path="url(#clip791)" d="M336.72 47.2441 L336.72 1423.18 L360.754 1423.18 L360.754 47.2441 L336.72 47.2441 L336.72 47.2441  Z" fill="#009af9" fill-rule="evenodd" fill-opacity="1"/>
<polyline clip-path="url(#clip791)" style="stroke:#000000; stroke-linecap:round; stroke-linejoin:round; stroke-width:4; stroke-opacity:1; fill:none" points="336.72,47.2441 336.72,1423.18 360.754,1423.18 360.754,47.2441 336.72,47.2441 "/>
<path clip-path="url(#clip791)" d="M360.754 903.906 L360.754 1423.18 L384.788 1423.18 L384.788 903.906 L360.754 903.906 L360.754 903.906  Z" fill="#009af9" fill-rule="evenodd" fill-opacity="1"/>
<polyline clip-path="url(#clip791)" style="stroke:#000000; stroke-linecap:round; stroke-linejoin:round; stroke-width:4; stroke-opacity:1; fill:none" points="360.754,903.906 360.754,1423.18 384.788,1423.18 384.788,903.906 360.754,903.906 "/>
<path clip-path="url(#clip791)" d="M384.788 1063.41 L384.788 1423.18 L408.822 1423.18 L408.822 1063.41 L384.788 1063.41 L384.788 1063.41  Z" fill="#009af9" fill-rule="evenodd" fill-opacity="1"/>
<polyline clip-path="url(#clip791)" style="stroke:#000000; stroke-linecap:round; stroke-linejoin:round; stroke-width:4; stroke-opacity:1; fill:none" points="384.788,1063.41 384.788,1423.18 408.822,1423.18 408.822,1063.41 384.788,1063.41 "/>
<path clip-path="url(#clip791)" d="M408.822 1160.54 L408.822 1423.18 L432.856 1423.18 L432.856 1160.54 L408.822 1160.54 L408.822 1160.54  Z" fill="#009af9" fill-rule="evenodd" fill-opacity="1"/>
<polyline clip-path="url(#clip791)" style="stroke:#000000; stroke-linecap:round; stroke-linejoin:round; stroke-width:4; stroke-opacity:1; fill:none" points="408.822,1160.54 408.822,1423.18 432.856,1423.18 432.856,1160.54 408.822,1160.54 "/>
<path clip-path="url(#clip791)" d="M432.856 1202.52 L432.856 1423.18 L456.89 1423.18 L456.89 1202.52 L432.856 1202.52 L432.856 1202.52  Z" fill="#009af9" fill-rule="evenodd" fill-opacity="1"/>
<polyline clip-path="url(#clip791)" style="stroke:#000000; stroke-linecap:round; stroke-linejoin:round; stroke-width:4; stroke-opacity:1; fill:none" points="432.856,1202.52 432.856,1423.18 456.89,1423.18 456.89,1202.52 432.856,1202.52 "/>
<path clip-path="url(#clip791)" d="M456.89 1260.88 L456.89 1423.18 L480.924 1423.18 L480.924 1260.88 L456.89 1260.88 L456.89 1260.88  Z" fill="#009af9" fill-rule="evenodd" fill-opacity="1"/>
<polyline clip-path="url(#clip791)" style="stroke:#000000; stroke-linecap:round; stroke-linejoin:round; stroke-width:4; stroke-opacity:1; fill:none" points="456.89,1260.88 456.89,1423.18 480.924,1423.18 480.924,1260.88 456.89,1260.88 "/>
<path clip-path="url(#clip791)" d="M480.924 1288.46 L480.924 1423.18 L504.959 1423.18 L504.959 1288.46 L480.924 1288.46 L480.924 1288.46  Z" fill="#009af9" fill-rule="evenodd" fill-opacity="1"/>
<polyline clip-path="url(#clip791)" style="stroke:#000000; stroke-linecap:round; stroke-linejoin:round; stroke-width:4; stroke-opacity:1; fill:none" points="480.924,1288.46 480.924,1423.18 504.959,1423.18 504.959,1288.46 480.924,1288.46 "/>
<path clip-path="url(#clip791)" d="M504.959 1300.86 L504.959 1423.18 L528.993 1423.18 L528.993 1300.86 L504.959 1300.86 L504.959 1300.86  Z" fill="#009af9" fill-rule="evenodd" fill-opacity="1"/>
<polyline clip-path="url(#clip791)" style="stroke:#000000; stroke-linecap:round; stroke-linejoin:round; stroke-width:4; stroke-opacity:1; fill:none" points="504.959,1300.86 504.959,1423.18 528.993,1423.18 528.993,1300.86 504.959,1300.86 "/>
<path clip-path="url(#clip791)" d="M528.993 1328.04 L528.993 1423.18 L553.027 1423.18 L553.027 1328.04 L528.993 1328.04 L528.993 1328.04  Z" fill="#009af9" fill-rule="evenodd" fill-opacity="1"/>
<polyline clip-path="url(#clip791)" style="stroke:#000000; stroke-linecap:round; stroke-linejoin:round; stroke-width:4; stroke-opacity:1; fill:none" points="528.993,1328.04 528.993,1423.18 553.027,1423.18 553.027,1328.04 528.993,1328.04 "/>
<path clip-path="url(#clip791)" d="M553.027 1333.64 L553.027 1423.18 L577.061 1423.18 L577.061 1333.64 L553.027 1333.64 L553.027 1333.64  Z" fill="#009af9" fill-rule="evenodd" fill-opacity="1"/>
<polyline clip-path="url(#clip791)" style="stroke:#000000; stroke-linecap:round; stroke-linejoin:round; stroke-width:4; stroke-opacity:1; fill:none" points="553.027,1333.64 553.027,1423.18 577.061,1423.18 577.061,1333.64 553.027,1333.64 "/>
<path clip-path="url(#clip791)" d="M577.061 1348.03 L577.061 1423.18 L601.095 1423.18 L601.095 1348.03 L577.061 1348.03 L577.061 1348.03  Z" fill="#009af9" fill-rule="evenodd" fill-opacity="1"/>
<polyline clip-path="url(#clip791)" style="stroke:#000000; stroke-linecap:round; stroke-linejoin:round; stroke-width:4; stroke-opacity:1; fill:none" points="577.061,1348.03 577.061,1423.18 601.095,1423.18 601.095,1348.03 577.061,1348.03 "/>
<path clip-path="url(#clip791)" d="M601.095 1352.82 L601.095 1423.18 L625.129 1423.18 L625.129 1352.82 L601.095 1352.82 L601.095 1352.82  Z" fill="#009af9" fill-rule="evenodd" fill-opacity="1"/>
<polyline clip-path="url(#clip791)" style="stroke:#000000; stroke-linecap:round; stroke-linejoin:round; stroke-width:4; stroke-opacity:1; fill:none" points="601.095,1352.82 601.095,1423.18 625.129,1423.18 625.129,1352.82 601.095,1352.82 "/>
<path clip-path="url(#clip791)" d="M625.129 1362.82 L625.129 1423.18 L649.163 1423.18 L649.163 1362.82 L625.129 1362.82 L625.129 1362.82  Z" fill="#009af9" fill-rule="evenodd" fill-opacity="1"/>
<polyline clip-path="url(#clip791)" style="stroke:#000000; stroke-linecap:round; stroke-linejoin:round; stroke-width:4; stroke-opacity:1; fill:none" points="625.129,1362.82 625.129,1423.18 649.163,1423.18 649.163,1362.82 625.129,1362.82 "/>
<path clip-path="url(#clip791)" d="M649.163 1363.62 L649.163 1423.18 L673.198 1423.18 L673.198 1363.62 L649.163 1363.62 L649.163 1363.62  Z" fill="#009af9" fill-rule="evenodd" fill-opacity="1"/>
<polyline clip-path="url(#clip791)" style="stroke:#000000; stroke-linecap:round; stroke-linejoin:round; stroke-width:4; stroke-opacity:1; fill:none" points="649.163,1363.62 649.163,1423.18 673.198,1423.18 673.198,1363.62 649.163,1363.62 "/>
<path clip-path="url(#clip791)" d="M673.198 1370.41 L673.198 1423.18 L697.232 1423.18 L697.232 1370.41 L673.198 1370.41 L673.198 1370.41  Z" fill="#009af9" fill-rule="evenodd" fill-opacity="1"/>
<polyline clip-path="url(#clip791)" style="stroke:#000000; stroke-linecap:round; stroke-linejoin:round; stroke-width:4; stroke-opacity:1; fill:none" points="673.198,1370.41 673.198,1423.18 697.232,1423.18 697.232,1370.41 673.198,1370.41 "/>
<path clip-path="url(#clip791)" d="M697.232 1383.6 L697.232 1423.18 L721.266 1423.18 L721.266 1383.6 L697.232 1383.6 L697.232 1383.6  Z" fill="#009af9" fill-rule="evenodd" fill-opacity="1"/>
<polyline clip-path="url(#clip791)" style="stroke:#000000; stroke-linecap:round; stroke-linejoin:round; stroke-width:4; stroke-opacity:1; fill:none" points="697.232,1383.6 697.232,1423.18 721.266,1423.18 721.266,1383.6 697.232,1383.6 "/>
<path clip-path="url(#clip791)" d="M721.266 1386 L721.266 1423.18 L745.3 1423.18 L745.3 1386 L721.266 1386 L721.266 1386  Z" fill="#009af9" fill-rule="evenodd" fill-opacity="1"/>
<polyline clip-path="url(#clip791)" style="stroke:#000000; stroke-linecap:round; stroke-linejoin:round; stroke-width:4; stroke-opacity:1; fill:none" points="721.266,1386 721.266,1423.18 745.3,1423.18 745.3,1386 721.266,1386 "/>
<path clip-path="url(#clip791)" d="M745.3 1393.2 L745.3 1423.18 L769.334 1423.18 L769.334 1393.2 L745.3 1393.2 L745.3 1393.2  Z" fill="#009af9" fill-rule="evenodd" fill-opacity="1"/>
<polyline clip-path="url(#clip791)" style="stroke:#000000; stroke-linecap:round; stroke-linejoin:round; stroke-width:4; stroke-opacity:1; fill:none" points="745.3,1393.2 745.3,1423.18 769.334,1423.18 769.334,1393.2 745.3,1393.2 "/>
<path clip-path="url(#clip791)" d="M769.334 1394 L769.334 1423.18 L793.368 1423.18 L793.368 1394 L769.334 1394 L769.334 1394  Z" fill="#009af9" fill-rule="evenodd" fill-opacity="1"/>
<polyline clip-path="url(#clip791)" style="stroke:#000000; stroke-linecap:round; stroke-linejoin:round; stroke-width:4; stroke-opacity:1; fill:none" points="769.334,1394 769.334,1423.18 793.368,1423.18 793.368,1394 769.334,1394 "/>
<path clip-path="url(#clip791)" d="M793.368 1398.8 L793.368 1423.18 L817.402 1423.18 L817.402 1398.8 L793.368 1398.8 L793.368 1398.8  Z" fill="#009af9" fill-rule="evenodd" fill-opacity="1"/>
<polyline clip-path="url(#clip791)" style="stroke:#000000; stroke-linecap:round; stroke-linejoin:round; stroke-width:4; stroke-opacity:1; fill:none" points="793.368,1398.8 793.368,1423.18 817.402,1423.18 817.402,1398.8 793.368,1398.8 "/>
<path clip-path="url(#clip791)" d="M817.402 1407.19 L817.402 1423.18 L841.436 1423.18 L841.436 1407.19 L817.402 1407.19 L817.402 1407.19  Z" fill="#009af9" fill-rule="evenodd" fill-opacity="1"/>
<polyline clip-path="url(#clip791)" style="stroke:#000000; stroke-linecap:round; stroke-linejoin:round; stroke-width:4; stroke-opacity:1; fill:none" points="817.402,1407.19 817.402,1423.18 841.436,1423.18 841.436,1407.19 817.402,1407.19 "/>
<path clip-path="url(#clip791)" d="M841.436 1404.39 L841.436 1423.18 L865.471 1423.18 L865.471 1404.39 L841.436 1404.39 L841.436 1404.39  Z" fill="#009af9" fill-rule="evenodd" fill-opacity="1"/>
<polyline clip-path="url(#clip791)" style="stroke:#000000; stroke-linecap:round; stroke-linejoin:round; stroke-width:4; stroke-opacity:1; fill:none" points="841.436,1404.39 841.436,1423.18 865.471,1423.18 865.471,1404.39 841.436,1404.39 "/>
<path clip-path="url(#clip791)" d="M865.471 1405.19 L865.471 1423.18 L889.505 1423.18 L889.505 1405.19 L865.471 1405.19 L865.471 1405.19  Z" fill="#009af9" fill-rule="evenodd" fill-opacity="1"/>
<polyline clip-path="url(#clip791)" style="stroke:#000000; stroke-linecap:round; stroke-linejoin:round; stroke-width:4; stroke-opacity:1; fill:none" points="865.471,1405.19 865.471,1423.18 889.505,1423.18 889.505,1405.19 865.471,1405.19 "/>
<path clip-path="url(#clip791)" d="M889.505 1410.79 L889.505 1423.18 L913.539 1423.18 L913.539 1410.79 L889.505 1410.79 L889.505 1410.79  Z" fill="#009af9" fill-rule="evenodd" fill-opacity="1"/>
<polyline clip-path="url(#clip791)" style="stroke:#000000; stroke-linecap:round; stroke-linejoin:round; stroke-width:4; stroke-opacity:1; fill:none" points="889.505,1410.79 889.505,1423.18 913.539,1423.18 913.539,1410.79 889.505,1410.79 "/>
<path clip-path="url(#clip791)" d="M913.539 1413.19 L913.539 1423.18 L937.573 1423.18 L937.573 1413.19 L913.539 1413.19 L913.539 1413.19  Z" fill="#009af9" fill-rule="evenodd" fill-opacity="1"/>
<polyline clip-path="url(#clip791)" style="stroke:#000000; stroke-linecap:round; stroke-linejoin:round; stroke-width:4; stroke-opacity:1; fill:none" points="913.539,1413.19 913.539,1423.18 937.573,1423.18 937.573,1413.19 913.539,1413.19 "/>
<path clip-path="url(#clip791)" d="M937.573 1414.39 L937.573 1423.18 L961.607 1423.18 L961.607 1414.39 L937.573 1414.39 L937.573 1414.39  Z" fill="#009af9" fill-rule="evenodd" fill-opacity="1"/>
<polyline clip-path="url(#clip791)" style="stroke:#000000; stroke-linecap:round; stroke-linejoin:round; stroke-width:4; stroke-opacity:1; fill:none" points="937.573,1414.39 937.573,1423.18 961.607,1423.18 961.607,1414.39 937.573,1414.39 "/>
<path clip-path="url(#clip791)" d="M961.607 1413.59 L961.607 1423.18 L985.641 1423.18 L985.641 1413.59 L961.607 1413.59 L961.607 1413.59  Z" fill="#009af9" fill-rule="evenodd" fill-opacity="1"/>
<polyline clip-path="url(#clip791)" style="stroke:#000000; stroke-linecap:round; stroke-linejoin:round; stroke-width:4; stroke-opacity:1; fill:none" points="961.607,1413.59 961.607,1423.18 985.641,1423.18 985.641,1413.59 961.607,1413.59 "/>
<path clip-path="url(#clip791)" d="M985.641 1414.79 L985.641 1423.18 L1009.68 1423.18 L1009.68 1414.79 L985.641 1414.79 L985.641 1414.79  Z" fill="#009af9" fill-rule="evenodd" fill-opacity="1"/>
<polyline clip-path="url(#clip791)" style="stroke:#000000; stroke-linecap:round; stroke-linejoin:round; stroke-width:4; stroke-opacity:1; fill:none" points="985.641,1414.79 985.641,1423.18 1009.68,1423.18 1009.68,1414.79 985.641,1414.79 "/>
<path clip-path="url(#clip791)" d="M1009.68 1415.98 L1009.68 1423.18 L1033.71 1423.18 L1033.71 1415.98 L1009.68 1415.98 L1009.68 1415.98  Z" fill="#009af9" fill-rule="evenodd" fill-opacity="1"/>
<polyline clip-path="url(#clip791)" style="stroke:#000000; stroke-linecap:round; stroke-linejoin:round; stroke-width:4; stroke-opacity:1; fill:none" points="1009.68,1415.98 1009.68,1423.18 1033.71,1423.18 1033.71,1415.98 1009.68,1415.98 "/>
<path clip-path="url(#clip791)" d="M1033.71 1414.79 L1033.71 1423.18 L1057.74 1423.18 L1057.74 1414.79 L1033.71 1414.79 L1033.71 1414.79  Z" fill="#009af9" fill-rule="evenodd" fill-opacity="1"/>
<polyline clip-path="url(#clip791)" style="stroke:#000000; stroke-linecap:round; stroke-linejoin:round; stroke-width:4; stroke-opacity:1; fill:none" points="1033.71,1414.79 1033.71,1423.18 1057.74,1423.18 1057.74,1414.79 1033.71,1414.79 "/>
<path clip-path="url(#clip791)" d="M1057.74 1415.58 L1057.74 1423.18 L1081.78 1423.18 L1081.78 1415.58 L1057.74 1415.58 L1057.74 1415.58  Z" fill="#009af9" fill-rule="evenodd" fill-opacity="1"/>
<polyline clip-path="url(#clip791)" style="stroke:#000000; stroke-linecap:round; stroke-linejoin:round; stroke-width:4; stroke-opacity:1; fill:none" points="1057.74,1415.58 1057.74,1423.18 1081.78,1423.18 1081.78,1415.58 1057.74,1415.58 "/>
<path clip-path="url(#clip791)" d="M1081.78 1419.98 L1081.78 1423.18 L1105.81 1423.18 L1105.81 1419.98 L1081.78 1419.98 L1081.78 1419.98  Z" fill="#009af9" fill-rule="evenodd" fill-opacity="1"/>
<polyline clip-path="url(#clip791)" style="stroke:#000000; stroke-linecap:round; stroke-linejoin:round; stroke-width:4; stroke-opacity:1; fill:none" points="1081.78,1419.98 1081.78,1423.18 1105.81,1423.18 1105.81,1419.98 1081.78,1419.98 "/>
<path clip-path="url(#clip791)" d="M1105.81 1415.18 L1105.81 1423.18 L1129.85 1423.18 L1129.85 1415.18 L1105.81 1415.18 L1105.81 1415.18  Z" fill="#009af9" fill-rule="evenodd" fill-opacity="1"/>
<polyline clip-path="url(#clip791)" style="stroke:#000000; stroke-linecap:round; stroke-linejoin:round; stroke-width:4; stroke-opacity:1; fill:none" points="1105.81,1415.18 1105.81,1423.18 1129.85,1423.18 1129.85,1415.18 1105.81,1415.18 "/>
<path clip-path="url(#clip791)" d="M1129.85 1420.38 L1129.85 1423.18 L1153.88 1423.18 L1153.88 1420.38 L1129.85 1420.38 L1129.85 1420.38  Z" fill="#009af9" fill-rule="evenodd" fill-opacity="1"/>
<polyline clip-path="url(#clip791)" style="stroke:#000000; stroke-linecap:round; stroke-linejoin:round; stroke-width:4; stroke-opacity:1; fill:none" points="1129.85,1420.38 1129.85,1423.18 1153.88,1423.18 1153.88,1420.38 1129.85,1420.38 "/>
<path clip-path="url(#clip791)" d="M1153.88 1419.98 L1153.88 1423.18 L1177.91 1423.18 L1177.91 1419.98 L1153.88 1419.98 L1153.88 1419.98  Z" fill="#009af9" fill-rule="evenodd" fill-opacity="1"/>
<polyline clip-path="url(#clip791)" style="stroke:#000000; stroke-linecap:round; stroke-linejoin:round; stroke-width:4; stroke-opacity:1; fill:none" points="1153.88,1419.98 1153.88,1423.18 1177.91,1423.18 1177.91,1419.98 1153.88,1419.98 "/>
<path clip-path="url(#clip791)" d="M1177.91 1419.98 L1177.91 1423.18 L1201.95 1423.18 L1201.95 1419.98 L1177.91 1419.98 L1177.91 1419.98  Z" fill="#009af9" fill-rule="evenodd" fill-opacity="1"/>
<polyline clip-path="url(#clip791)" style="stroke:#000000; stroke-linecap:round; stroke-linejoin:round; stroke-width:4; stroke-opacity:1; fill:none" points="1177.91,1419.98 1177.91,1423.18 1201.95,1423.18 1201.95,1419.98 1177.91,1419.98 "/>
<path clip-path="url(#clip791)" d="M1201.95 1420.38 L1201.95 1423.18 L1225.98 1423.18 L1225.98 1420.38 L1201.95 1420.38 L1201.95 1420.38  Z" fill="#009af9" fill-rule="evenodd" fill-opacity="1"/>
<polyline clip-path="url(#clip791)" style="stroke:#000000; stroke-linecap:round; stroke-linejoin:round; stroke-width:4; stroke-opacity:1; fill:none" points="1201.95,1420.38 1201.95,1423.18 1225.98,1423.18 1225.98,1420.38 1201.95,1420.38 "/>
<path clip-path="url(#clip791)" d="M1225.98 1420.38 L1225.98 1423.18 L1250.02 1423.18 L1250.02 1420.38 L1225.98 1420.38 L1225.98 1420.38  Z" fill="#009af9" fill-rule="evenodd" fill-opacity="1"/>
<polyline clip-path="url(#clip791)" style="stroke:#000000; stroke-linecap:round; stroke-linejoin:round; stroke-width:4; stroke-opacity:1; fill:none" points="1225.98,1420.38 1225.98,1423.18 1250.02,1423.18 1250.02,1420.38 1225.98,1420.38 "/>
<path clip-path="url(#clip791)" d="M1250.02 1419.98 L1250.02 1423.18 L1274.05 1423.18 L1274.05 1419.98 L1250.02 1419.98 L1250.02 1419.98  Z" fill="#009af9" fill-rule="evenodd" fill-opacity="1"/>
<polyline clip-path="url(#clip791)" style="stroke:#000000; stroke-linecap:round; stroke-linejoin:round; stroke-width:4; stroke-opacity:1; fill:none" points="1250.02,1419.98 1250.02,1423.18 1274.05,1423.18 1274.05,1419.98 1250.02,1419.98 "/>
<path clip-path="url(#clip791)" d="M1274.05 1417.98 L1274.05 1423.18 L1298.09 1423.18 L1298.09 1417.98 L1274.05 1417.98 L1274.05 1417.98  Z" fill="#009af9" fill-rule="evenodd" fill-opacity="1"/>
<polyline clip-path="url(#clip791)" style="stroke:#000000; stroke-linecap:round; stroke-linejoin:round; stroke-width:4; stroke-opacity:1; fill:none" points="1274.05,1417.98 1274.05,1423.18 1298.09,1423.18 1298.09,1417.98 1274.05,1417.98 "/>
<path clip-path="url(#clip791)" d="M1298.09 1420.78 L1298.09 1423.18 L1322.12 1423.18 L1322.12 1420.78 L1298.09 1420.78 L1298.09 1420.78  Z" fill="#009af9" fill-rule="evenodd" fill-opacity="1"/>
<polyline clip-path="url(#clip791)" style="stroke:#000000; stroke-linecap:round; stroke-linejoin:round; stroke-width:4; stroke-opacity:1; fill:none" points="1298.09,1420.78 1298.09,1423.18 1322.12,1423.18 1322.12,1420.78 1298.09,1420.78 "/>
<path clip-path="url(#clip791)" d="M1322.12 1422.38 L1322.12 1423.18 L1346.15 1423.18 L1346.15 1422.38 L1322.12 1422.38 L1322.12 1422.38  Z" fill="#009af9" fill-rule="evenodd" fill-opacity="1"/>
<polyline clip-path="url(#clip791)" style="stroke:#000000; stroke-linecap:round; stroke-linejoin:round; stroke-width:4; stroke-opacity:1; fill:none" points="1322.12,1422.38 1322.12,1423.18 1346.15,1423.18 1346.15,1422.38 1322.12,1422.38 "/>
<path clip-path="url(#clip791)" d="M1346.15 1422.38 L1346.15 1423.18 L1370.19 1423.18 L1370.19 1422.38 L1346.15 1422.38 L1346.15 1422.38  Z" fill="#009af9" fill-rule="evenodd" fill-opacity="1"/>
<polyline clip-path="url(#clip791)" style="stroke:#000000; stroke-linecap:round; stroke-linejoin:round; stroke-width:4; stroke-opacity:1; fill:none" points="1346.15,1422.38 1346.15,1423.18 1370.19,1423.18 1370.19,1422.38 1346.15,1422.38 "/>
<path clip-path="url(#clip791)" d="M1370.19 1421.58 L1370.19 1423.18 L1394.22 1423.18 L1394.22 1421.58 L1370.19 1421.58 L1370.19 1421.58  Z" fill="#009af9" fill-rule="evenodd" fill-opacity="1"/>
<polyline clip-path="url(#clip791)" style="stroke:#000000; stroke-linecap:round; stroke-linejoin:round; stroke-width:4; stroke-opacity:1; fill:none" points="1370.19,1421.58 1370.19,1423.18 1394.22,1423.18 1394.22,1421.58 1370.19,1421.58 "/>
<path clip-path="url(#clip791)" d="M1394.22 1421.98 L1394.22 1423.18 L1418.26 1423.18 L1418.26 1421.98 L1394.22 1421.98 L1394.22 1421.98  Z" fill="#009af9" fill-rule="evenodd" fill-opacity="1"/>
<polyline clip-path="url(#clip791)" style="stroke:#000000; stroke-linecap:round; stroke-linejoin:round; stroke-width:4; stroke-opacity:1; fill:none" points="1394.22,1421.98 1394.22,1423.18 1418.26,1423.18 1418.26,1421.98 1394.22,1421.98 "/>
<path clip-path="url(#clip791)" d="M1418.26 1421.98 L1418.26 1423.18 L1442.29 1423.18 L1442.29 1421.98 L1418.26 1421.98 L1418.26 1421.98  Z" fill="#009af9" fill-rule="evenodd" fill-opacity="1"/>
<polyline clip-path="url(#clip791)" style="stroke:#000000; stroke-linecap:round; stroke-linejoin:round; stroke-width:4; stroke-opacity:1; fill:none" points="1418.26,1421.98 1418.26,1423.18 1442.29,1423.18 1442.29,1421.98 1418.26,1421.98 "/>
<path clip-path="url(#clip791)" d="M1442.29 1423.18 L1442.29 1423.18 L1466.32 1423.18 L1466.32 1423.18 L1442.29 1423.18 L1442.29 1423.18  Z" fill="#009af9" fill-rule="evenodd" fill-opacity="1"/>
<polyline clip-path="url(#clip791)" style="stroke:#000000; stroke-linecap:round; stroke-linejoin:round; stroke-width:4; stroke-opacity:1; fill:none" points="1442.29,1423.18 1442.29,1423.18 1466.32,1423.18 1442.29,1423.18 "/>
<path clip-path="url(#clip791)" d="M1466.32 1422.38 L1466.32 1423.18 L1490.36 1423.18 L1490.36 1422.38 L1466.32 1422.38 L1466.32 1422.38  Z" fill="#009af9" fill-rule="evenodd" fill-opacity="1"/>
<polyline clip-path="url(#clip791)" style="stroke:#000000; stroke-linecap:round; stroke-linejoin:round; stroke-width:4; stroke-opacity:1; fill:none" points="1466.32,1422.38 1466.32,1423.18 1490.36,1423.18 1490.36,1422.38 1466.32,1422.38 "/>
<path clip-path="url(#clip791)" d="M1490.36 1422.38 L1490.36 1423.18 L1514.39 1423.18 L1514.39 1422.38 L1490.36 1422.38 L1490.36 1422.38  Z" fill="#009af9" fill-rule="evenodd" fill-opacity="1"/>
<polyline clip-path="url(#clip791)" style="stroke:#000000; stroke-linecap:round; stroke-linejoin:round; stroke-width:4; stroke-opacity:1; fill:none" points="1490.36,1422.38 1490.36,1423.18 1514.39,1423.18 1514.39,1422.38 1490.36,1422.38 "/>
<path clip-path="url(#clip791)" d="M1514.39 1422.78 L1514.39 1423.18 L1538.43 1423.18 L1538.43 1422.78 L1514.39 1422.78 L1514.39 1422.78  Z" fill="#009af9" fill-rule="evenodd" fill-opacity="1"/>
<polyline clip-path="url(#clip791)" style="stroke:#000000; stroke-linecap:round; stroke-linejoin:round; stroke-width:4; stroke-opacity:1; fill:none" points="1514.39,1422.78 1514.39,1423.18 1538.43,1423.18 1538.43,1422.78 1514.39,1422.78 "/>
<path clip-path="url(#clip791)" d="M1538.43 1421.98 L1538.43 1423.18 L1562.46 1423.18 L1562.46 1421.98 L1538.43 1421.98 L1538.43 1421.98  Z" fill="#009af9" fill-rule="evenodd" fill-opacity="1"/>
<polyline clip-path="url(#clip791)" style="stroke:#000000; stroke-linecap:round; stroke-linejoin:round; stroke-width:4; stroke-opacity:1; fill:none" points="1538.43,1421.98 1538.43,1423.18 1562.46,1423.18 1562.46,1421.98 1538.43,1421.98 "/>
<path clip-path="url(#clip791)" d="M1562.46 1423.18 L1562.46 1423.18 L1586.49 1423.18 L1586.49 1423.18 L1562.46 1423.18 L1562.46 1423.18  Z" fill="#009af9" fill-rule="evenodd" fill-opacity="1"/>
<polyline clip-path="url(#clip791)" style="stroke:#000000; stroke-linecap:round; stroke-linejoin:round; stroke-width:4; stroke-opacity:1; fill:none" points="1562.46,1423.18 1562.46,1423.18 1586.49,1423.18 1562.46,1423.18 "/>
<path clip-path="url(#clip791)" d="M1586.49 1422.78 L1586.49 1423.18 L1610.53 1423.18 L1610.53 1422.78 L1586.49 1422.78 L1586.49 1422.78  Z" fill="#009af9" fill-rule="evenodd" fill-opacity="1"/>
<polyline clip-path="url(#clip791)" style="stroke:#000000; stroke-linecap:round; stroke-linejoin:round; stroke-width:4; stroke-opacity:1; fill:none" points="1586.49,1422.78 1586.49,1423.18 1610.53,1423.18 1610.53,1422.78 1586.49,1422.78 "/>
<path clip-path="url(#clip791)" d="M1610.53 1421.98 L1610.53 1423.18 L1634.56 1423.18 L1634.56 1421.98 L1610.53 1421.98 L1610.53 1421.98  Z" fill="#009af9" fill-rule="evenodd" fill-opacity="1"/>
<polyline clip-path="url(#clip791)" style="stroke:#000000; stroke-linecap:round; stroke-linejoin:round; stroke-width:4; stroke-opacity:1; fill:none" points="1610.53,1421.98 1610.53,1423.18 1634.56,1423.18 1634.56,1421.98 1610.53,1421.98 "/>
<path clip-path="url(#clip791)" d="M1634.56 1422.78 L1634.56 1423.18 L1658.6 1423.18 L1658.6 1422.78 L1634.56 1422.78 L1634.56 1422.78  Z" fill="#009af9" fill-rule="evenodd" fill-opacity="1"/>
<polyline clip-path="url(#clip791)" style="stroke:#000000; stroke-linecap:round; stroke-linejoin:round; stroke-width:4; stroke-opacity:1; fill:none" points="1634.56,1422.78 1634.56,1423.18 1658.6,1423.18 1658.6,1422.78 1634.56,1422.78 "/>
<path clip-path="url(#clip791)" d="M1658.6 1422.38 L1658.6 1423.18 L1682.63 1423.18 L1682.63 1422.38 L1658.6 1422.38 L1658.6 1422.38  Z" fill="#009af9" fill-rule="evenodd" fill-opacity="1"/>
<polyline clip-path="url(#clip791)" style="stroke:#000000; stroke-linecap:round; stroke-linejoin:round; stroke-width:4; stroke-opacity:1; fill:none" points="1658.6,1422.38 1658.6,1423.18 1682.63,1423.18 1682.63,1422.38 1658.6,1422.38 "/>
<path clip-path="url(#clip791)" d="M1682.63 1422.78 L1682.63 1423.18 L1706.67 1423.18 L1706.67 1422.78 L1682.63 1422.78 L1682.63 1422.78  Z" fill="#009af9" fill-rule="evenodd" fill-opacity="1"/>
<polyline clip-path="url(#clip791)" style="stroke:#000000; stroke-linecap:round; stroke-linejoin:round; stroke-width:4; stroke-opacity:1; fill:none" points="1682.63,1422.78 1682.63,1423.18 1706.67,1423.18 1706.67,1422.78 1682.63,1422.78 "/>
<path clip-path="url(#clip791)" d="M1706.67 1423.18 L1706.67 1423.18 L1730.7 1423.18 L1730.7 1423.18 L1706.67 1423.18 L1706.67 1423.18  Z" fill="#009af9" fill-rule="evenodd" fill-opacity="1"/>
<polyline clip-path="url(#clip791)" style="stroke:#000000; stroke-linecap:round; stroke-linejoin:round; stroke-width:4; stroke-opacity:1; fill:none" points="1706.67,1423.18 1706.67,1423.18 1730.7,1423.18 1706.67,1423.18 "/>
<path clip-path="url(#clip791)" d="M1730.7 1423.18 L1730.7 1423.18 L1754.73 1423.18 L1754.73 1423.18 L1730.7 1423.18 L1730.7 1423.18  Z" fill="#009af9" fill-rule="evenodd" fill-opacity="1"/>
<polyline clip-path="url(#clip791)" style="stroke:#000000; stroke-linecap:round; stroke-linejoin:round; stroke-width:4; stroke-opacity:1; fill:none" points="1730.7,1423.18 1730.7,1423.18 1754.73,1423.18 1730.7,1423.18 "/>
<path clip-path="url(#clip791)" d="M1754.73 1423.18 L1754.73 1423.18 L1778.77 1423.18 L1778.77 1423.18 L1754.73 1423.18 L1754.73 1423.18  Z" fill="#009af9" fill-rule="evenodd" fill-opacity="1"/>
<polyline clip-path="url(#clip791)" style="stroke:#000000; stroke-linecap:round; stroke-linejoin:round; stroke-width:4; stroke-opacity:1; fill:none" points="1754.73,1423.18 1754.73,1423.18 1778.77,1423.18 1754.73,1423.18 "/>
<path clip-path="url(#clip791)" d="M1778.77 1423.18 L1778.77 1423.18 L1802.8 1423.18 L1802.8 1423.18 L1778.77 1423.18 L1778.77 1423.18  Z" fill="#009af9" fill-rule="evenodd" fill-opacity="1"/>
<polyline clip-path="url(#clip791)" style="stroke:#000000; stroke-linecap:round; stroke-linejoin:round; stroke-width:4; stroke-opacity:1; fill:none" points="1778.77,1423.18 1778.77,1423.18 1802.8,1423.18 1778.77,1423.18 "/>
<path clip-path="url(#clip791)" d="M1802.8 1422.78 L1802.8 1423.18 L1826.84 1423.18 L1826.84 1422.78 L1802.8 1422.78 L1802.8 1422.78  Z" fill="#009af9" fill-rule="evenodd" fill-opacity="1"/>
<polyline clip-path="url(#clip791)" style="stroke:#000000; stroke-linecap:round; stroke-linejoin:round; stroke-width:4; stroke-opacity:1; fill:none" points="1802.8,1422.78 1802.8,1423.18 1826.84,1423.18 1826.84,1422.78 1802.8,1422.78 "/>
<path clip-path="url(#clip791)" d="M1826.84 1422.38 L1826.84 1423.18 L1850.87 1423.18 L1850.87 1422.38 L1826.84 1422.38 L1826.84 1422.38  Z" fill="#009af9" fill-rule="evenodd" fill-opacity="1"/>
<polyline clip-path="url(#clip791)" style="stroke:#000000; stroke-linecap:round; stroke-linejoin:round; stroke-width:4; stroke-opacity:1; fill:none" points="1826.84,1422.38 1826.84,1423.18 1850.87,1423.18 1850.87,1422.38 1826.84,1422.38 "/>
<path clip-path="url(#clip791)" d="M1850.87 1422.78 L1850.87 1423.18 L1874.9 1423.18 L1874.9 1422.78 L1850.87 1422.78 L1850.87 1422.78  Z" fill="#009af9" fill-rule="evenodd" fill-opacity="1"/>
<polyline clip-path="url(#clip791)" style="stroke:#000000; stroke-linecap:round; stroke-linejoin:round; stroke-width:4; stroke-opacity:1; fill:none" points="1850.87,1422.78 1850.87,1423.18 1874.9,1423.18 1874.9,1422.78 1850.87,1422.78 "/>
<path clip-path="url(#clip791)" d="M1874.9 1423.18 L1874.9 1423.18 L1898.94 1423.18 L1898.94 1423.18 L1874.9 1423.18 L1874.9 1423.18  Z" fill="#009af9" fill-rule="evenodd" fill-opacity="1"/>
<polyline clip-path="url(#clip791)" style="stroke:#000000; stroke-linecap:round; stroke-linejoin:round; stroke-width:4; stroke-opacity:1; fill:none" points="1874.9,1423.18 1874.9,1423.18 1898.94,1423.18 1874.9,1423.18 "/>
<path clip-path="url(#clip791)" d="M1898.94 1423.18 L1898.94 1423.18 L1922.97 1423.18 L1922.97 1423.18 L1898.94 1423.18 L1898.94 1423.18  Z" fill="#009af9" fill-rule="evenodd" fill-opacity="1"/>
<polyline clip-path="url(#clip791)" style="stroke:#000000; stroke-linecap:round; stroke-linejoin:round; stroke-width:4; stroke-opacity:1; fill:none" points="1898.94,1423.18 1898.94,1423.18 1922.97,1423.18 1898.94,1423.18 "/>
<path clip-path="url(#clip791)" d="M1922.97 1423.18 L1922.97 1423.18 L1947.01 1423.18 L1947.01 1423.18 L1922.97 1423.18 L1922.97 1423.18  Z" fill="#009af9" fill-rule="evenodd" fill-opacity="1"/>
<polyline clip-path="url(#clip791)" style="stroke:#000000; stroke-linecap:round; stroke-linejoin:round; stroke-width:4; stroke-opacity:1; fill:none" points="1922.97,1423.18 1922.97,1423.18 1947.01,1423.18 1922.97,1423.18 "/>
<path clip-path="url(#clip791)" d="M1947.01 1423.18 L1947.01 1423.18 L1971.04 1423.18 L1971.04 1423.18 L1947.01 1423.18 L1947.01 1423.18  Z" fill="#009af9" fill-rule="evenodd" fill-opacity="1"/>
<polyline clip-path="url(#clip791)" style="stroke:#000000; stroke-linecap:round; stroke-linejoin:round; stroke-width:4; stroke-opacity:1; fill:none" points="1947.01,1423.18 1947.01,1423.18 1971.04,1423.18 1947.01,1423.18 "/>
<path clip-path="url(#clip791)" d="M1971.04 1423.18 L1971.04 1423.18 L1995.08 1423.18 L1995.08 1423.18 L1971.04 1423.18 L1971.04 1423.18  Z" fill="#009af9" fill-rule="evenodd" fill-opacity="1"/>
<polyline clip-path="url(#clip791)" style="stroke:#000000; stroke-linecap:round; stroke-linejoin:round; stroke-width:4; stroke-opacity:1; fill:none" points="1971.04,1423.18 1971.04,1423.18 1995.08,1423.18 1971.04,1423.18 "/>
<path clip-path="url(#clip791)" d="M1995.08 1423.18 L1995.08 1423.18 L2019.11 1423.18 L2019.11 1423.18 L1995.08 1423.18 L1995.08 1423.18  Z" fill="#009af9" fill-rule="evenodd" fill-opacity="1"/>
<polyline clip-path="url(#clip791)" style="stroke:#000000; stroke-linecap:round; stroke-linejoin:round; stroke-width:4; stroke-opacity:1; fill:none" points="1995.08,1423.18 1995.08,1423.18 2019.11,1423.18 1995.08,1423.18 "/>
<path clip-path="url(#clip791)" d="M2019.11 1423.18 L2019.11 1423.18 L2043.14 1423.18 L2043.14 1423.18 L2019.11 1423.18 L2019.11 1423.18  Z" fill="#009af9" fill-rule="evenodd" fill-opacity="1"/>
<polyline clip-path="url(#clip791)" style="stroke:#000000; stroke-linecap:round; stroke-linejoin:round; stroke-width:4; stroke-opacity:1; fill:none" points="2019.11,1423.18 2019.11,1423.18 2043.14,1423.18 2019.11,1423.18 "/>
<path clip-path="url(#clip791)" d="M2043.14 1423.18 L2043.14 1423.18 L2067.18 1423.18 L2067.18 1423.18 L2043.14 1423.18 L2043.14 1423.18  Z" fill="#009af9" fill-rule="evenodd" fill-opacity="1"/>
<polyline clip-path="url(#clip791)" style="stroke:#000000; stroke-linecap:round; stroke-linejoin:round; stroke-width:4; stroke-opacity:1; fill:none" points="2043.14,1423.18 2043.14,1423.18 2067.18,1423.18 2043.14,1423.18 "/>
<path clip-path="url(#clip791)" d="M2067.18 1422.78 L2067.18 1423.18 L2091.21 1423.18 L2091.21 1422.78 L2067.18 1422.78 L2067.18 1422.78  Z" fill="#009af9" fill-rule="evenodd" fill-opacity="1"/>
<polyline clip-path="url(#clip791)" style="stroke:#000000; stroke-linecap:round; stroke-linejoin:round; stroke-width:4; stroke-opacity:1; fill:none" points="2067.18,1422.78 2067.18,1423.18 2091.21,1423.18 2091.21,1422.78 2067.18,1422.78 "/>
<path clip-path="url(#clip791)" d="M2091.21 1422.78 L2091.21 1423.18 L2115.25 1423.18 L2115.25 1422.78 L2091.21 1422.78 L2091.21 1422.78  Z" fill="#009af9" fill-rule="evenodd" fill-opacity="1"/>
<polyline clip-path="url(#clip791)" style="stroke:#000000; stroke-linecap:round; stroke-linejoin:round; stroke-width:4; stroke-opacity:1; fill:none" points="2091.21,1422.78 2091.21,1423.18 2115.25,1423.18 2115.25,1422.78 2091.21,1422.78 "/>
<path clip-path="url(#clip791)" d="M2115.25 1423.18 L2115.25 1423.18 L2139.28 1423.18 L2139.28 1423.18 L2115.25 1423.18 L2115.25 1423.18  Z" fill="#009af9" fill-rule="evenodd" fill-opacity="1"/>
<polyline clip-path="url(#clip791)" style="stroke:#000000; stroke-linecap:round; stroke-linejoin:round; stroke-width:4; stroke-opacity:1; fill:none" points="2115.25,1423.18 2115.25,1423.18 2139.28,1423.18 2115.25,1423.18 "/>
<path clip-path="url(#clip791)" d="M2139.28 1423.18 L2139.28 1423.18 L2163.31 1423.18 L2163.31 1423.18 L2139.28 1423.18 L2139.28 1423.18  Z" fill="#009af9" fill-rule="evenodd" fill-opacity="1"/>
<polyline clip-path="url(#clip791)" style="stroke:#000000; stroke-linecap:round; stroke-linejoin:round; stroke-width:4; stroke-opacity:1; fill:none" points="2139.28,1423.18 2139.28,1423.18 2163.31,1423.18 2139.28,1423.18 "/>
<path clip-path="url(#clip791)" d="M2163.31 1423.18 L2163.31 1423.18 L2187.35 1423.18 L2187.35 1423.18 L2163.31 1423.18 L2163.31 1423.18  Z" fill="#009af9" fill-rule="evenodd" fill-opacity="1"/>
<polyline clip-path="url(#clip791)" style="stroke:#000000; stroke-linecap:round; stroke-linejoin:round; stroke-width:4; stroke-opacity:1; fill:none" points="2163.31,1423.18 2163.31,1423.18 2187.35,1423.18 2163.31,1423.18 "/>
<path clip-path="url(#clip791)" d="M2187.35 1423.18 L2187.35 1423.18 L2211.38 1423.18 L2211.38 1423.18 L2187.35 1423.18 L2187.35 1423.18  Z" fill="#009af9" fill-rule="evenodd" fill-opacity="1"/>
<polyline clip-path="url(#clip791)" style="stroke:#000000; stroke-linecap:round; stroke-linejoin:round; stroke-width:4; stroke-opacity:1; fill:none" points="2187.35,1423.18 2187.35,1423.18 2211.38,1423.18 2187.35,1423.18 "/>
<path clip-path="url(#clip791)" d="M2211.38 1422.78 L2211.38 1423.18 L2235.42 1423.18 L2235.42 1422.78 L2211.38 1422.78 L2211.38 1422.78  Z" fill="#009af9" fill-rule="evenodd" fill-opacity="1"/>
<polyline clip-path="url(#clip791)" style="stroke:#000000; stroke-linecap:round; stroke-linejoin:round; stroke-width:4; stroke-opacity:1; fill:none" points="2211.38,1422.78 2211.38,1423.18 2235.42,1423.18 2235.42,1422.78 2211.38,1422.78 "/>
<circle clip-path="url(#clip791)" style="fill:#009af9; stroke:none; fill-opacity:0" cx="348.737" cy="47.2441" r="2"/>
<circle clip-path="url(#clip791)" style="fill:#009af9; stroke:none; fill-opacity:0" cx="372.771" cy="903.906" r="2"/>
<circle clip-path="url(#clip791)" style="fill:#009af9; stroke:none; fill-opacity:0" cx="396.805" cy="1063.41" r="2"/>
<circle clip-path="url(#clip791)" style="fill:#009af9; stroke:none; fill-opacity:0" cx="420.839" cy="1160.54" r="2"/>
<circle clip-path="url(#clip791)" style="fill:#009af9; stroke:none; fill-opacity:0" cx="444.873" cy="1202.52" r="2"/>
<circle clip-path="url(#clip791)" style="fill:#009af9; stroke:none; fill-opacity:0" cx="468.907" cy="1260.88" r="2"/>
<circle clip-path="url(#clip791)" style="fill:#009af9; stroke:none; fill-opacity:0" cx="492.942" cy="1288.46" r="2"/>
<circle clip-path="url(#clip791)" style="fill:#009af9; stroke:none; fill-opacity:0" cx="516.976" cy="1300.86" r="2"/>
<circle clip-path="url(#clip791)" style="fill:#009af9; stroke:none; fill-opacity:0" cx="541.01" cy="1328.04" r="2"/>
<circle clip-path="url(#clip791)" style="fill:#009af9; stroke:none; fill-opacity:0" cx="565.044" cy="1333.64" r="2"/>
<circle clip-path="url(#clip791)" style="fill:#009af9; stroke:none; fill-opacity:0" cx="589.078" cy="1348.03" r="2"/>
<circle clip-path="url(#clip791)" style="fill:#009af9; stroke:none; fill-opacity:0" cx="613.112" cy="1352.82" r="2"/>
<circle clip-path="url(#clip791)" style="fill:#009af9; stroke:none; fill-opacity:0" cx="637.146" cy="1362.82" r="2"/>
<circle clip-path="url(#clip791)" style="fill:#009af9; stroke:none; fill-opacity:0" cx="661.18" cy="1363.62" r="2"/>
<circle clip-path="url(#clip791)" style="fill:#009af9; stroke:none; fill-opacity:0" cx="685.215" cy="1370.41" r="2"/>
<circle clip-path="url(#clip791)" style="fill:#009af9; stroke:none; fill-opacity:0" cx="709.249" cy="1383.6" r="2"/>
<circle clip-path="url(#clip791)" style="fill:#009af9; stroke:none; fill-opacity:0" cx="733.283" cy="1386" r="2"/>
<circle clip-path="url(#clip791)" style="fill:#009af9; stroke:none; fill-opacity:0" cx="757.317" cy="1393.2" r="2"/>
<circle clip-path="url(#clip791)" style="fill:#009af9; stroke:none; fill-opacity:0" cx="781.351" cy="1394" r="2"/>
<circle clip-path="url(#clip791)" style="fill:#009af9; stroke:none; fill-opacity:0" cx="805.385" cy="1398.8" r="2"/>
<circle clip-path="url(#clip791)" style="fill:#009af9; stroke:none; fill-opacity:0" cx="829.419" cy="1407.19" r="2"/>
<circle clip-path="url(#clip791)" style="fill:#009af9; stroke:none; fill-opacity:0" cx="853.454" cy="1404.39" r="2"/>
<circle clip-path="url(#clip791)" style="fill:#009af9; stroke:none; fill-opacity:0" cx="877.488" cy="1405.19" r="2"/>
<circle clip-path="url(#clip791)" style="fill:#009af9; stroke:none; fill-opacity:0" cx="901.522" cy="1410.79" r="2"/>
<circle clip-path="url(#clip791)" style="fill:#009af9; stroke:none; fill-opacity:0" cx="925.556" cy="1413.19" r="2"/>
<circle clip-path="url(#clip791)" style="fill:#009af9; stroke:none; fill-opacity:0" cx="949.59" cy="1414.39" r="2"/>
<circle clip-path="url(#clip791)" style="fill:#009af9; stroke:none; fill-opacity:0" cx="973.624" cy="1413.59" r="2"/>
<circle clip-path="url(#clip791)" style="fill:#009af9; stroke:none; fill-opacity:0" cx="997.658" cy="1414.79" r="2"/>
<circle clip-path="url(#clip791)" style="fill:#009af9; stroke:none; fill-opacity:0" cx="1021.69" cy="1415.98" r="2"/>
<circle clip-path="url(#clip791)" style="fill:#009af9; stroke:none; fill-opacity:0" cx="1045.73" cy="1414.79" r="2"/>
<circle clip-path="url(#clip791)" style="fill:#009af9; stroke:none; fill-opacity:0" cx="1069.76" cy="1415.58" r="2"/>
<circle clip-path="url(#clip791)" style="fill:#009af9; stroke:none; fill-opacity:0" cx="1093.79" cy="1419.98" r="2"/>
<circle clip-path="url(#clip791)" style="fill:#009af9; stroke:none; fill-opacity:0" cx="1117.83" cy="1415.18" r="2"/>
<circle clip-path="url(#clip791)" style="fill:#009af9; stroke:none; fill-opacity:0" cx="1141.86" cy="1420.38" r="2"/>
<circle clip-path="url(#clip791)" style="fill:#009af9; stroke:none; fill-opacity:0" cx="1165.9" cy="1419.98" r="2"/>
<circle clip-path="url(#clip791)" style="fill:#009af9; stroke:none; fill-opacity:0" cx="1189.93" cy="1419.98" r="2"/>
<circle clip-path="url(#clip791)" style="fill:#009af9; stroke:none; fill-opacity:0" cx="1213.97" cy="1420.38" r="2"/>
<circle clip-path="url(#clip791)" style="fill:#009af9; stroke:none; fill-opacity:0" cx="1238" cy="1420.38" r="2"/>
<circle clip-path="url(#clip791)" style="fill:#009af9; stroke:none; fill-opacity:0" cx="1262.03" cy="1419.98" r="2"/>
<circle clip-path="url(#clip791)" style="fill:#009af9; stroke:none; fill-opacity:0" cx="1286.07" cy="1417.98" r="2"/>
<circle clip-path="url(#clip791)" style="fill:#009af9; stroke:none; fill-opacity:0" cx="1310.1" cy="1420.78" r="2"/>
<circle clip-path="url(#clip791)" style="fill:#009af9; stroke:none; fill-opacity:0" cx="1334.14" cy="1422.38" r="2"/>
<circle clip-path="url(#clip791)" style="fill:#009af9; stroke:none; fill-opacity:0" cx="1358.17" cy="1422.38" r="2"/>
<circle clip-path="url(#clip791)" style="fill:#009af9; stroke:none; fill-opacity:0" cx="1382.2" cy="1421.58" r="2"/>
<circle clip-path="url(#clip791)" style="fill:#009af9; stroke:none; fill-opacity:0" cx="1406.24" cy="1421.98" r="2"/>
<circle clip-path="url(#clip791)" style="fill:#009af9; stroke:none; fill-opacity:0" cx="1430.27" cy="1421.98" r="2"/>
<circle clip-path="url(#clip791)" style="fill:#009af9; stroke:none; fill-opacity:0" cx="1454.31" cy="1423.18" r="2"/>
<circle clip-path="url(#clip791)" style="fill:#009af9; stroke:none; fill-opacity:0" cx="1478.34" cy="1422.38" r="2"/>
<circle clip-path="url(#clip791)" style="fill:#009af9; stroke:none; fill-opacity:0" cx="1502.38" cy="1422.38" r="2"/>
<circle clip-path="url(#clip791)" style="fill:#009af9; stroke:none; fill-opacity:0" cx="1526.41" cy="1422.78" r="2"/>
<circle clip-path="url(#clip791)" style="fill:#009af9; stroke:none; fill-opacity:0" cx="1550.44" cy="1421.98" r="2"/>
<circle clip-path="url(#clip791)" style="fill:#009af9; stroke:none; fill-opacity:0" cx="1574.48" cy="1423.18" r="2"/>
<circle clip-path="url(#clip791)" style="fill:#009af9; stroke:none; fill-opacity:0" cx="1598.51" cy="1422.78" r="2"/>
<circle clip-path="url(#clip791)" style="fill:#009af9; stroke:none; fill-opacity:0" cx="1622.55" cy="1421.98" r="2"/>
<circle clip-path="url(#clip791)" style="fill:#009af9; stroke:none; fill-opacity:0" cx="1646.58" cy="1422.78" r="2"/>
<circle clip-path="url(#clip791)" style="fill:#009af9; stroke:none; fill-opacity:0" cx="1670.61" cy="1422.38" r="2"/>
<circle clip-path="url(#clip791)" style="fill:#009af9; stroke:none; fill-opacity:0" cx="1694.65" cy="1422.78" r="2"/>
<circle clip-path="url(#clip791)" style="fill:#009af9; stroke:none; fill-opacity:0" cx="1718.68" cy="1423.18" r="2"/>
<circle clip-path="url(#clip791)" style="fill:#009af9; stroke:none; fill-opacity:0" cx="1742.72" cy="1423.18" r="2"/>
<circle clip-path="url(#clip791)" style="fill:#009af9; stroke:none; fill-opacity:0" cx="1766.75" cy="1423.18" r="2"/>
<circle clip-path="url(#clip791)" style="fill:#009af9; stroke:none; fill-opacity:0" cx="1790.78" cy="1423.18" r="2"/>
<circle clip-path="url(#clip791)" style="fill:#009af9; stroke:none; fill-opacity:0" cx="1814.82" cy="1422.78" r="2"/>
<circle clip-path="url(#clip791)" style="fill:#009af9; stroke:none; fill-opacity:0" cx="1838.85" cy="1422.38" r="2"/>
<circle clip-path="url(#clip791)" style="fill:#009af9; stroke:none; fill-opacity:0" cx="1862.89" cy="1422.78" r="2"/>
<circle clip-path="url(#clip791)" style="fill:#009af9; stroke:none; fill-opacity:0" cx="1886.92" cy="1423.18" r="2"/>
<circle clip-path="url(#clip791)" style="fill:#009af9; stroke:none; fill-opacity:0" cx="1910.96" cy="1423.18" r="2"/>
<circle clip-path="url(#clip791)" style="fill:#009af9; stroke:none; fill-opacity:0" cx="1934.99" cy="1423.18" r="2"/>
<circle clip-path="url(#clip791)" style="fill:#009af9; stroke:none; fill-opacity:0" cx="1959.02" cy="1423.18" r="2"/>
<circle clip-path="url(#clip791)" style="fill:#009af9; stroke:none; fill-opacity:0" cx="1983.06" cy="1423.18" r="2"/>
<circle clip-path="url(#clip791)" style="fill:#009af9; stroke:none; fill-opacity:0" cx="2007.09" cy="1423.18" r="2"/>
<circle clip-path="url(#clip791)" style="fill:#009af9; stroke:none; fill-opacity:0" cx="2031.13" cy="1423.18" r="2"/>
<circle clip-path="url(#clip791)" style="fill:#009af9; stroke:none; fill-opacity:0" cx="2055.16" cy="1423.18" r="2"/>
<circle clip-path="url(#clip791)" style="fill:#009af9; stroke:none; fill-opacity:0" cx="2079.19" cy="1422.78" r="2"/>
<circle clip-path="url(#clip791)" style="fill:#009af9; stroke:none; fill-opacity:0" cx="2103.23" cy="1422.78" r="2"/>
<circle clip-path="url(#clip791)" style="fill:#009af9; stroke:none; fill-opacity:0" cx="2127.26" cy="1423.18" r="2"/>
<circle clip-path="url(#clip791)" style="fill:#009af9; stroke:none; fill-opacity:0" cx="2151.3" cy="1423.18" r="2"/>
<circle clip-path="url(#clip791)" style="fill:#009af9; stroke:none; fill-opacity:0" cx="2175.33" cy="1423.18" r="2"/>
<circle clip-path="url(#clip791)" style="fill:#009af9; stroke:none; fill-opacity:0" cx="2199.37" cy="1423.18" r="2"/>
<circle clip-path="url(#clip791)" style="fill:#009af9; stroke:none; fill-opacity:0" cx="2223.4" cy="1422.78" r="2"/>
<polyline clip-path="url(#clip791)" style="stroke:#e26f46; stroke-linecap:round; stroke-linejoin:round; stroke-width:16; stroke-opacity:1; fill:none" points="348.737,463.751 367.653,870.444 386.569,1020.72 405.485,1106.46 424.402,1163.92 443.318,1205.84 462.234,1238.05 481.15,1263.66 500.066,1284.53 518.983,1301.86 537.899,1316.44 556.815,1328.86 575.731,1339.52 594.647,1348.74 613.564,1356.77 632.48,1363.79 651.396,1369.96 670.312,1375.4 689.229,1380.22 708.145,1384.5 727.061,1388.3 745.977,1391.69 764.893,1394.73 783.81,1397.44 802.726,1399.88 821.642,1402.07 840.558,1404.04 859.474,1405.81 878.391,1407.41 897.307,1408.85 916.223,1410.15 935.139,1411.33 954.055,1412.39 972.972,1413.36 991.888,1414.24 1010.8,1415.03 1029.72,1415.75 1048.64,1416.4 1067.55,1417 1086.47,1417.54 1105.39,1418.03 1124.3,1418.48 1143.22,1418.88 1162.13,1419.26 1181.05,1419.59 1199.97,1419.9 1218.88,1420.18 1237.8,1420.44 1256.71,1420.67 1275.63,1420.89 1294.55,1421.08 1313.46,1421.26 1332.38,1421.42 1351.3,1421.57 1370.21,1421.7 1389.13,1421.83 1408.04,1421.94 1426.96,1422.05 1445.88,1422.14 1464.79,1422.23 1483.71,1422.31 1502.63,1422.38 1521.54,1422.45 1540.46,1422.51 1559.37,1422.56 1578.29,1422.61 1597.21,1422.66 1616.12,1422.7 1635.04,1422.74 1653.96,1422.78 1672.87,1422.81 1691.79,1422.84 1710.7,1422.87 1729.62,1422.89 1748.54,1422.92 1767.45,1422.94 1786.37,1422.96 1805.29,1422.98 1824.2,1422.99 1843.12,1423.01 1862.03,1423.02 1880.95,1423.04 1899.87,1423.05 1918.78,1423.06 1937.7,1423.07 1956.61,1423.08 1975.53,1423.09 1994.45,1423.09 2013.36,1423.1 2032.28,1423.11 2051.2,1423.11 2070.11,1423.12 2089.03,1423.12 2107.94,1423.13 2126.86,1423.13 2145.78,1423.14 2164.69,1423.14 2183.61,1423.14 2202.53,1423.15 2221.44,1423.15 "/>
<path clip-path="url(#clip790)" d="M2015.88 248.629 L2281.64 248.629 L2281.64 93.1086 L2015.88 93.1086  Z" fill="#ffffff" fill-rule="evenodd" fill-opacity="1"/>
<polyline clip-path="url(#clip790)" style="stroke:#000000; stroke-linecap:round; stroke-linejoin:round; stroke-width:4; stroke-opacity:1; fill:none" points="2015.88,248.629 2281.64,248.629 2281.64,93.1086 2015.88,93.1086 2015.88,248.629 "/>
<path clip-path="url(#clip790)" d="M2039.58 165.685 L2181.8 165.685 L2181.8 124.213 L2039.58 124.213 L2039.58 165.685  Z" fill="#009af9" fill-rule="evenodd" fill-opacity="1"/>
<polyline clip-path="url(#clip790)" style="stroke:#000000; stroke-linecap:round; stroke-linejoin:round; stroke-width:4; stroke-opacity:1; fill:none" points="2039.58,165.685 2181.8,165.685 2181.8,124.213 2039.58,124.213 2039.58,165.685 "/>
<path clip-path="url(#clip790)" d="M2219.35 164.636 Q2217.55 169.266 2215.83 170.678 Q2214.12 172.09 2211.25 172.09 L2207.85 172.09 L2207.85 168.525 L2210.35 168.525 Q2212.11 168.525 2213.08 167.692 Q2214.05 166.858 2215.23 163.756 L2215.99 161.812 L2205.51 136.303 L2210.02 136.303 L2218.12 156.581 L2226.23 136.303 L2230.74 136.303 L2219.35 164.636 Z" fill="#000000" fill-rule="nonzero" fill-opacity="1" /><path clip-path="url(#clip790)" d="M2238.03 158.293 L2245.67 158.293 L2245.67 131.928 L2237.36 133.595 L2237.36 129.335 L2245.62 127.669 L2250.3 127.669 L2250.3 158.293 L2257.94 158.293 L2257.94 162.229 L2238.03 162.229 L2238.03 158.293 Z" fill="#000000" fill-rule="nonzero" fill-opacity="1" /><polyline clip-path="url(#clip790)" style="stroke:#e26f46; stroke-linecap:round; stroke-linejoin:round; stroke-width:16; stroke-opacity:1; fill:none" points="2039.58,196.789 2181.8,196.789 "/>
<path clip-path="url(#clip790)" d="M2219.35 216.476 Q2217.55 221.106 2215.83 222.518 Q2214.12 223.93 2211.25 223.93 L2207.85 223.93 L2207.85 220.365 L2210.35 220.365 Q2212.11 220.365 2213.08 219.532 Q2214.05 218.698 2215.23 215.596 L2215.99 213.652 L2205.51 188.143 L2210.02 188.143 L2218.12 208.421 L2226.23 188.143 L2230.74 188.143 L2219.35 216.476 Z" fill="#000000" fill-rule="nonzero" fill-opacity="1" /><path clip-path="url(#clip790)" d="M2241.25 210.133 L2257.57 210.133 L2257.57 214.069 L2235.62 214.069 L2235.62 210.133 Q2238.29 207.379 2242.87 202.749 Q2247.48 198.096 2248.66 196.754 Q2250.9 194.231 2251.78 192.495 Q2252.68 190.735 2252.68 189.046 Q2252.68 186.291 2250.74 184.555 Q2248.82 182.819 2245.72 182.819 Q2243.52 182.819 2241.06 183.583 Q2238.63 184.347 2235.86 185.897 L2235.86 181.175 Q2238.68 180.041 2241.13 179.462 Q2243.59 178.884 2245.62 178.884 Q2250.99 178.884 2254.19 181.569 Q2257.38 184.254 2257.38 188.745 Q2257.38 190.874 2256.57 192.796 Q2255.79 194.694 2253.68 197.286 Q2253.1 197.958 2250 201.175 Q2246.9 204.37 2241.25 210.133 Z" fill="#000000" fill-rule="nonzero" fill-opacity="1" /></svg>
