<?xml version="1.0" encoding="utf-8"?>
<svg xmlns="http://www.w3.org/2000/svg" xmlns:xlink="http://www.w3.org/1999/xlink" width="600" height="400" viewBox="0 0 2400 1600">
<defs>
  <clipPath id="clip720">
    <rect x="0" y="0" width="2400" height="1600"/>
  </clipPath>
</defs>
<path clip-path="url(#clip720)" d="M0 1600 L2400 1600 L2400 0 L0 0  Z" fill="#ffffff" fill-rule="evenodd" fill-opacity="1"/>
<defs>
  <clipPath id="clip721">
    <rect x="219" y="47" width="2134" height="1377"/>
  </clipPath>
</defs>
<path clip-path="url(#clip720)" d="M219.38 1423.18 L2352.76 1423.18 L2352.76 47.2441 L219.38 47.2441  Z" fill="#ffffff" fill-rule="evenodd" fill-opacity="1"/>
<polyline clip-path="url(#clip721)" style="stroke:#000000; stroke-linecap:round; stroke-linejoin:round; stroke-width:2; stroke-opacity:0.1; fill:none" points="336.72,1423.18 336.72,47.2441 "/>
<polyline clip-path="url(#clip721)" style="stroke:#000000; stroke-linecap:round; stroke-linejoin:round; stroke-width:2; stroke-opacity:0.1; fill:none" points="995.989,1423.18 995.989,47.2441 "/>
<polyline clip-path="url(#clip721)" style="stroke:#000000; stroke-linecap:round; stroke-linejoin:round; stroke-width:2; stroke-opacity:0.1; fill:none" points="1655.26,1423.18 1655.26,47.2441 "/>
<polyline clip-path="url(#clip721)" style="stroke:#000000; stroke-linecap:round; stroke-linejoin:round; stroke-width:2; stroke-opacity:0.1; fill:none" points="2314.53,1423.18 2314.53,47.2441 "/>
<polyline clip-path="url(#clip721)" style="stroke:#000000; stroke-linecap:round; stroke-linejoin:round; stroke-width:2; stroke-opacity:0.1; fill:none" points="219.38,1423.18 2352.76,1423.18 "/>
<polyline clip-path="url(#clip721)" style="stroke:#000000; stroke-linecap:round; stroke-linejoin:round; stroke-width:2; stroke-opacity:0.1; fill:none" points="219.38,1027.68 2352.76,1027.68 "/>
<polyline clip-path="url(#clip721)" style="stroke:#000000; stroke-linecap:round; stroke-linejoin:round; stroke-width:2; stroke-opacity:0.1; fill:none" points="219.38,632.185 2352.76,632.185 "/>
<polyline clip-path="url(#clip721)" style="stroke:#000000; stroke-linecap:round; stroke-linejoin:round; stroke-width:2; stroke-opacity:0.1; fill:none" points="219.38,236.687 2352.76,236.687 "/>
<polyline clip-path="url(#clip720)" style="stroke:#000000; stroke-linecap:round; stroke-linejoin:round; stroke-width:4; stroke-opacity:1; fill:none" points="219.38,1423.18 2352.76,1423.18 "/>
<polyline clip-path="url(#clip720)" style="stroke:#000000; stroke-linecap:round; stroke-linejoin:round; stroke-width:4; stroke-opacity:1; fill:none" points="336.72,1423.18 336.72,1404.28 "/>
<polyline clip-path="url(#clip720)" style="stroke:#000000; stroke-linecap:round; stroke-linejoin:round; stroke-width:4; stroke-opacity:1; fill:none" points="995.989,1423.18 995.989,1404.28 "/>
<polyline clip-path="url(#clip720)" style="stroke:#000000; stroke-linecap:round; stroke-linejoin:round; stroke-width:4; stroke-opacity:1; fill:none" points="1655.26,1423.18 1655.26,1404.28 "/>
<polyline clip-path="url(#clip720)" style="stroke:#000000; stroke-linecap:round; stroke-linejoin:round; stroke-width:4; stroke-opacity:1; fill:none" points="2314.53,1423.18 2314.53,1404.28 "/>
<path clip-path="url(#clip720)" d="M336.72 1454.1 Q333.109 1454.1 331.28 1457.66 Q329.474 1461.2 329.474 1468.33 Q329.474 1475.44 331.28 1479.01 Q333.109 1482.55 336.72 1482.55 Q340.354 1482.55 342.159 1479.01 Q343.988 1475.44 343.988 1468.33 Q343.988 1461.2 342.159 1457.66 Q340.354 1454.1 336.72 1454.1 M336.72 1450.39 Q342.53 1450.39 345.585 1455 Q348.664 1459.58 348.664 1468.33 Q348.664 1477.06 345.585 1481.67 Q342.53 1486.25 336.72 1486.25 Q330.909 1486.25 327.831 1481.67 Q324.775 1477.06 324.775 1468.33 Q324.775 1459.58 327.831 1455 Q330.909 1450.39 336.72 1450.39 Z" fill="#000000" fill-rule="nonzero" fill-opacity="1" /><path clip-path="url(#clip720)" d="M986.267 1451.02 L1004.62 1451.02 L1004.62 1454.96 L990.55 1454.96 L990.55 1463.43 Q991.568 1463.08 992.587 1462.92 Q993.605 1462.73 994.624 1462.73 Q1000.41 1462.73 1003.79 1465.9 Q1007.17 1469.08 1007.17 1474.49 Q1007.17 1480.07 1003.7 1483.17 Q1000.23 1486.25 993.906 1486.25 Q991.73 1486.25 989.462 1485.88 Q987.216 1485.51 984.809 1484.77 L984.809 1480.07 Q986.892 1481.2 989.114 1481.76 Q991.337 1482.32 993.813 1482.32 Q997.818 1482.32 1000.16 1480.21 Q1002.49 1478.1 1002.49 1474.49 Q1002.49 1470.88 1000.16 1468.77 Q997.818 1466.67 993.813 1466.67 Q991.938 1466.67 990.063 1467.08 Q988.212 1467.5 986.267 1468.38 L986.267 1451.02 Z" fill="#000000" fill-rule="nonzero" fill-opacity="1" /><path clip-path="url(#clip720)" d="M1629.95 1481.64 L1637.59 1481.64 L1637.59 1455.28 L1629.28 1456.95 L1629.28 1452.69 L1637.54 1451.02 L1642.22 1451.02 L1642.22 1481.64 L1649.85 1481.64 L1649.85 1485.58 L1629.95 1485.58 L1629.95 1481.64 Z" fill="#000000" fill-rule="nonzero" fill-opacity="1" /><path clip-path="url(#clip720)" d="M1669.3 1454.1 Q1665.69 1454.1 1663.86 1457.66 Q1662.05 1461.2 1662.05 1468.33 Q1662.05 1475.44 1663.86 1479.01 Q1665.69 1482.55 1669.3 1482.55 Q1672.93 1482.55 1674.74 1479.01 Q1676.57 1475.44 1676.57 1468.33 Q1676.57 1461.2 1674.74 1457.66 Q1672.93 1454.1 1669.3 1454.1 M1669.3 1450.39 Q1675.11 1450.39 1678.16 1455 Q1681.24 1459.58 1681.24 1468.33 Q1681.24 1477.06 1678.16 1481.67 Q1675.11 1486.25 1669.3 1486.25 Q1663.49 1486.25 1660.41 1481.67 Q1657.35 1477.06 1657.35 1468.33 Q1657.35 1459.58 1660.41 1455 Q1663.49 1450.39 1669.3 1450.39 Z" fill="#000000" fill-rule="nonzero" fill-opacity="1" /><path clip-path="url(#clip720)" d="M2289.71 1481.64 L2297.35 1481.64 L2297.35 1455.28 L2289.04 1456.95 L2289.04 1452.69 L2297.31 1451.02 L2301.98 1451.02 L2301.98 1481.64 L2309.62 1481.64 L2309.62 1485.58 L2289.71 1485.58 L2289.71 1481.64 Z" fill="#000000" fill-rule="nonzero" fill-opacity="1" /><path clip-path="url(#clip720)" d="M2319.11 1451.02 L2337.47 1451.02 L2337.47 1454.96 L2323.39 1454.96 L2323.39 1463.43 Q2324.41 1463.08 2325.43 1462.92 Q2326.45 1462.73 2327.47 1462.73 Q2333.26 1462.73 2336.64 1465.9 Q2340.01 1469.08 2340.01 1474.49 Q2340.01 1480.07 2336.54 1483.17 Q2333.07 1486.25 2326.75 1486.25 Q2324.58 1486.25 2322.31 1485.88 Q2320.06 1485.51 2317.65 1484.77 L2317.65 1480.07 Q2319.74 1481.2 2321.96 1481.76 Q2324.18 1482.32 2326.66 1482.32 Q2330.66 1482.32 2333 1480.21 Q2335.34 1478.1 2335.34 1474.49 Q2335.34 1470.88 2333 1468.77 Q2330.66 1466.67 2326.66 1466.67 Q2324.78 1466.67 2322.91 1467.08 Q2321.06 1467.5 2319.11 1468.38 L2319.11 1451.02 Z" fill="#000000" fill-rule="nonzero" fill-opacity="1" /><path clip-path="url(#clip720)" d="M1285.13 1522.27 L1285.13 1532.4 L1297.19 1532.4 L1297.19 1536.95 L1285.13 1536.95 L1285.13 1556.3 Q1285.13 1560.66 1286.31 1561.9 Q1287.52 1563.14 1291.18 1563.14 L1297.19 1563.14 L1297.19 1568.04 L1291.18 1568.04 Q1284.4 1568.04 1281.82 1565.53 Q1279.24 1562.98 1279.24 1556.3 L1279.24 1536.95 L1274.94 1536.95 L1274.94 1532.4 L1279.24 1532.4 L1279.24 1522.27 L1285.13 1522.27 Z" fill="#000000" fill-rule="nonzero" fill-opacity="1" /><polyline clip-path="url(#clip720)" style="stroke:#000000; stroke-linecap:round; stroke-linejoin:round; stroke-width:4; stroke-opacity:1; fill:none" points="219.38,1423.18 219.38,47.2441 "/>
<polyline clip-path="url(#clip720)" style="stroke:#000000; stroke-linecap:round; stroke-linejoin:round; stroke-width:4; stroke-opacity:1; fill:none" points="219.38,1423.18 238.278,1423.18 "/>
<polyline clip-path="url(#clip720)" style="stroke:#000000; stroke-linecap:round; stroke-linejoin:round; stroke-width:4; stroke-opacity:1; fill:none" points="219.38,1027.68 238.278,1027.68 "/>
<polyline clip-path="url(#clip720)" style="stroke:#000000; stroke-linecap:round; stroke-linejoin:round; stroke-width:4; stroke-opacity:1; fill:none" points="219.38,632.185 238.278,632.185 "/>
<polyline clip-path="url(#clip720)" style="stroke:#000000; stroke-linecap:round; stroke-linejoin:round; stroke-width:4; stroke-opacity:1; fill:none" points="219.38,236.687 238.278,236.687 "/>
<path clip-path="url(#clip720)" d="M126.205 1408.98 Q122.593 1408.98 120.765 1412.54 Q118.959 1416.08 118.959 1423.21 Q118.959 1430.32 120.765 1433.89 Q122.593 1437.43 126.205 1437.43 Q129.839 1437.43 131.644 1433.89 Q133.473 1430.32 133.473 1423.21 Q133.473 1416.08 131.644 1412.54 Q129.839 1408.98 126.205 1408.98 M126.205 1405.27 Q132.015 1405.27 135.07 1409.88 Q138.149 1414.46 138.149 1423.21 Q138.149 1431.94 135.07 1436.55 Q132.015 1441.13 126.205 1441.13 Q120.394 1441.13 117.316 1436.55 Q114.26 1431.94 114.26 1423.21 Q114.26 1414.46 117.316 1409.88 Q120.394 1405.27 126.205 1405.27 Z" fill="#000000" fill-rule="nonzero" fill-opacity="1" /><path clip-path="url(#clip720)" d="M146.366 1434.58 L151.251 1434.58 L151.251 1440.46 L146.366 1440.46 L146.366 1434.58 Z" fill="#000000" fill-rule="nonzero" fill-opacity="1" /><path clip-path="url(#clip720)" d="M171.436 1408.98 Q167.825 1408.98 165.996 1412.54 Q164.19 1416.08 164.19 1423.21 Q164.19 1430.32 165.996 1433.89 Q167.825 1437.43 171.436 1437.43 Q175.07 1437.43 176.876 1433.89 Q178.704 1430.32 178.704 1423.21 Q178.704 1416.08 176.876 1412.54 Q175.07 1408.98 171.436 1408.98 M171.436 1405.27 Q177.246 1405.27 180.301 1409.88 Q183.38 1414.46 183.38 1423.21 Q183.38 1431.94 180.301 1436.55 Q177.246 1441.13 171.436 1441.13 Q165.626 1441.13 162.547 1436.55 Q159.491 1431.94 159.491 1423.21 Q159.491 1414.46 162.547 1409.88 Q165.626 1405.27 171.436 1405.27 Z" fill="#000000" fill-rule="nonzero" fill-opacity="1" /><path clip-path="url(#clip720)" d="M127.2 1013.48 Q123.589 1013.48 121.76 1017.05 Q119.955 1020.59 119.955 1027.72 Q119.955 1034.82 121.76 1038.39 Q123.589 1041.93 127.2 1041.93 Q130.834 1041.93 132.64 1038.39 Q134.468 1034.82 134.468 1027.72 Q134.468 1020.59 132.64 1017.05 Q130.834 1013.48 127.2 1013.48 M127.2 1009.78 Q133.01 1009.78 136.066 1014.38 Q139.144 1018.97 139.144 1027.72 Q139.144 1036.44 136.066 1041.05 Q133.01 1045.63 127.2 1045.63 Q121.39 1045.63 118.311 1041.05 Q115.256 1036.44 115.256 1027.72 Q115.256 1018.97 118.311 1014.38 Q121.39 1009.78 127.2 1009.78 Z" fill="#000000" fill-rule="nonzero" fill-opacity="1" /><path clip-path="url(#clip720)" d="M147.362 1039.08 L152.246 1039.08 L152.246 1044.96 L147.362 1044.96 L147.362 1039.08 Z" fill="#000000" fill-rule="nonzero" fill-opacity="1" /><path clip-path="url(#clip720)" d="M162.477 1010.4 L180.834 1010.4 L180.834 1014.34 L166.76 1014.34 L166.76 1022.81 Q167.778 1022.46 168.797 1022.3 Q169.815 1022.12 170.834 1022.12 Q176.621 1022.12 180.001 1025.29 Q183.38 1028.46 183.38 1033.87 Q183.38 1039.45 179.908 1042.55 Q176.436 1045.63 170.116 1045.63 Q167.94 1045.63 165.672 1045.26 Q163.427 1044.89 161.019 1044.15 L161.019 1039.45 Q163.102 1040.59 165.325 1041.14 Q167.547 1041.7 170.024 1041.7 Q174.028 1041.7 176.366 1039.59 Q178.704 1037.49 178.704 1033.87 Q178.704 1030.26 176.366 1028.16 Q174.028 1026.05 170.024 1026.05 Q168.149 1026.05 166.274 1026.47 Q164.422 1026.88 162.477 1027.76 L162.477 1010.4 Z" fill="#000000" fill-rule="nonzero" fill-opacity="1" /><path clip-path="url(#clip720)" d="M117.015 645.53 L124.654 645.53 L124.654 619.164 L116.343 620.831 L116.343 616.572 L124.607 614.905 L129.283 614.905 L129.283 645.53 L136.922 645.53 L136.922 649.465 L117.015 649.465 L117.015 645.53 Z" fill="#000000" fill-rule="nonzero" fill-opacity="1" /><path clip-path="url(#clip720)" d="M146.366 643.585 L151.251 643.585 L151.251 649.465 L146.366 649.465 L146.366 643.585 Z" fill="#000000" fill-rule="nonzero" fill-opacity="1" /><path clip-path="url(#clip720)" d="M171.436 617.984 Q167.825 617.984 165.996 621.548 Q164.19 625.09 164.19 632.22 Q164.19 639.326 165.996 642.891 Q167.825 646.432 171.436 646.432 Q175.07 646.432 176.876 642.891 Q178.704 639.326 178.704 632.22 Q178.704 625.09 176.876 621.548 Q175.07 617.984 171.436 617.984 M171.436 614.28 Q177.246 614.28 180.301 618.886 Q183.38 623.47 183.38 632.22 Q183.38 640.946 180.301 645.553 Q177.246 650.136 171.436 650.136 Q165.626 650.136 162.547 645.553 Q159.491 640.946 159.491 632.22 Q159.491 623.47 162.547 618.886 Q165.626 614.28 171.436 614.28 Z" fill="#000000" fill-rule="nonzero" fill-opacity="1" /><path clip-path="url(#clip720)" d="M118.01 250.032 L125.649 250.032 L125.649 223.667 L117.339 225.333 L117.339 221.074 L125.603 219.407 L130.279 219.407 L130.279 250.032 L137.917 250.032 L137.917 253.967 L118.01 253.967 L118.01 250.032 Z" fill="#000000" fill-rule="nonzero" fill-opacity="1" /><path clip-path="url(#clip720)" d="M147.362 248.088 L152.246 248.088 L152.246 253.967 L147.362 253.967 L147.362 248.088 Z" fill="#000000" fill-rule="nonzero" fill-opacity="1" /><path clip-path="url(#clip720)" d="M162.477 219.407 L180.834 219.407 L180.834 223.343 L166.76 223.343 L166.76 231.815 Q167.778 231.468 168.797 231.305 Q169.815 231.12 170.834 231.12 Q176.621 231.12 180.001 234.292 Q183.38 237.463 183.38 242.879 Q183.38 248.458 179.908 251.56 Q176.436 254.639 170.116 254.639 Q167.94 254.639 165.672 254.268 Q163.427 253.898 161.019 253.157 L161.019 248.458 Q163.102 249.592 165.325 250.148 Q167.547 250.704 170.024 250.704 Q174.028 250.704 176.366 248.597 Q178.704 246.491 178.704 242.879 Q178.704 239.268 176.366 237.162 Q174.028 235.055 170.024 235.055 Q168.149 235.055 166.274 235.472 Q164.422 235.889 162.477 236.768 L162.477 219.407 Z" fill="#000000" fill-rule="nonzero" fill-opacity="1" /><path clip-path="url(#clip720)" d="M33.8307 800.206 Q33.2578 801.193 33.0032 802.37 Q32.7167 803.516 32.7167 804.916 Q32.7167 809.882 35.9632 812.555 Q39.1779 815.197 45.2253 815.197 L64.0042 815.197 L64.0042 821.085 L28.3562 821.085 L28.3562 815.197 L33.8944 815.197 Q30.6479 813.351 29.0883 810.391 Q27.4968 807.431 27.4968 803.198 Q27.4968 802.593 27.5923 801.861 Q27.656 801.129 27.8151 800.238 L33.8307 800.206 Z" fill="#000000" fill-rule="nonzero" fill-opacity="1" /><path clip-path="url(#clip720)" d="M42.4881 765.576 L64.0042 765.576 L64.0042 771.433 L42.679 771.433 Q37.6183 771.433 35.1038 773.406 Q32.5894 775.38 32.5894 779.326 Q32.5894 784.069 35.6131 786.806 Q38.6368 789.543 43.8567 789.543 L64.0042 789.543 L64.0042 795.432 L14.479 795.432 L14.479 789.543 L33.8944 789.543 Q30.6797 787.443 29.0883 784.61 Q27.4968 781.745 27.4968 778.021 Q27.4968 771.878 31.3163 768.727 Q35.1038 765.576 42.4881 765.576 Z" fill="#000000" fill-rule="nonzero" fill-opacity="1" /><path clip-path="url(#clip720)" d="M32.4621 740.082 Q32.4621 744.792 36.1542 747.53 Q39.8145 750.267 46.212 750.267 Q52.6095 750.267 56.3017 747.561 Q59.9619 744.824 59.9619 740.082 Q59.9619 735.403 56.2698 732.666 Q52.5777 729.928 46.212 729.928 Q39.8781 729.928 36.186 732.666 Q32.4621 735.403 32.4621 740.082 M27.4968 740.082 Q27.4968 732.443 32.4621 728.082 Q37.4273 723.722 46.212 723.722 Q54.9649 723.722 59.9619 728.082 Q64.9272 732.443 64.9272 740.082 Q64.9272 747.752 59.9619 752.113 Q54.9649 756.442 46.212 756.442 Q37.4273 756.442 32.4621 752.113 Q27.4968 747.752 27.4968 740.082 Z" fill="#000000" fill-rule="nonzero" fill-opacity="1" /><path clip-path="url(#clip720)" d="M14.5426 699.946 Q21.8632 704.211 29.0246 706.28 Q36.186 708.349 43.5384 708.349 Q50.8908 708.349 58.1159 706.28 Q65.3091 704.179 72.5979 699.946 L72.5979 705.039 Q65.1182 709.813 57.8931 712.2 Q50.668 714.555 43.5384 714.555 Q36.4406 714.555 29.2474 712.2 Q22.0542 709.845 14.5426 705.039 L14.5426 699.946 Z" fill="#000000" fill-rule="nonzero" fill-opacity="1" /><path clip-path="url(#clip720)" d="M18.2347 682.79 L28.3562 682.79 L28.3562 670.727 L32.9077 670.727 L32.9077 682.79 L52.2594 682.79 Q56.6199 682.79 57.8613 681.613 Q59.1026 680.403 59.1026 676.743 L59.1026 670.727 L64.0042 670.727 L64.0042 676.743 Q64.0042 683.522 61.4897 686.101 Q58.9434 688.679 52.2594 688.679 L32.9077 688.679 L32.9077 692.976 L28.3562 692.976 L28.3562 688.679 L18.2347 688.679 L18.2347 682.79 Z" fill="#000000" fill-rule="nonzero" fill-opacity="1" /><path clip-path="url(#clip720)" d="M14.5426 663.948 L14.5426 658.855 Q22.0542 654.081 29.2474 651.726 Q36.4406 649.339 43.5384 649.339 Q50.668 649.339 57.8931 651.726 Q65.1182 654.081 72.5979 658.855 L72.5979 663.948 Q65.3091 659.715 58.1159 657.646 Q50.8908 655.545 43.5384 655.545 Q36.186 655.545 29.0246 657.646 Q21.8632 659.715 14.5426 663.948 Z" fill="#000000" fill-rule="nonzero" fill-opacity="1" /><path clip-path="url(#clip721)" d="M336.72 47.2441 L336.72 1423.18 L363.09 1423.18 L363.09 47.2441 L336.72 47.2441 L336.72 47.2441  Z" fill="#009af9" fill-rule="evenodd" fill-opacity="1"/>
<polyline clip-path="url(#clip721)" style="stroke:#000000; stroke-linecap:round; stroke-linejoin:round; stroke-width:4; stroke-opacity:1; fill:none" points="336.72,47.2441 336.72,1423.18 363.09,1423.18 363.09,47.2441 336.72,47.2441 "/>
<path clip-path="url(#clip721)" d="M363.09 925.644 L363.09 1423.18 L389.461 1423.18 L389.461 925.644 L363.09 925.644 L363.09 925.644  Z" fill="#009af9" fill-rule="evenodd" fill-opacity="1"/>
<polyline clip-path="url(#clip721)" style="stroke:#000000; stroke-linecap:round; stroke-linejoin:round; stroke-width:4; stroke-opacity:1; fill:none" points="363.09,925.644 363.09,1423.18 389.461,1423.18 389.461,925.644 363.09,925.644 "/>
<path clip-path="url(#clip721)" d="M389.461 1065.25 L389.461 1423.18 L415.832 1423.18 L415.832 1065.25 L389.461 1065.25 L389.461 1065.25  Z" fill="#009af9" fill-rule="evenodd" fill-opacity="1"/>
<polyline clip-path="url(#clip721)" style="stroke:#000000; stroke-linecap:round; stroke-linejoin:round; stroke-width:4; stroke-opacity:1; fill:none" points="389.461,1065.25 389.461,1423.18 415.832,1423.18 415.832,1065.25 389.461,1065.25 "/>
<path clip-path="url(#clip721)" d="M415.832 1165.71 L415.832 1423.18 L442.203 1423.18 L442.203 1165.71 L415.832 1165.71 L415.832 1165.71  Z" fill="#009af9" fill-rule="evenodd" fill-opacity="1"/>
<polyline clip-path="url(#clip721)" style="stroke:#000000; stroke-linecap:round; stroke-linejoin:round; stroke-width:4; stroke-opacity:1; fill:none" points="415.832,1165.71 415.832,1423.18 442.203,1423.18 442.203,1165.71 415.832,1165.71 "/>
<path clip-path="url(#clip721)" d="M442.203 1197.75 L442.203 1423.18 L468.574 1423.18 L468.574 1197.75 L442.203 1197.75 L442.203 1197.75  Z" fill="#009af9" fill-rule="evenodd" fill-opacity="1"/>
<polyline clip-path="url(#clip721)" style="stroke:#000000; stroke-linecap:round; stroke-linejoin:round; stroke-width:4; stroke-opacity:1; fill:none" points="442.203,1197.75 442.203,1423.18 468.574,1423.18 468.574,1197.75 442.203,1197.75 "/>
<path clip-path="url(#clip721)" d="M468.574 1261.03 L468.574 1423.18 L494.944 1423.18 L494.944 1261.03 L468.574 1261.03 L468.574 1261.03  Z" fill="#009af9" fill-rule="evenodd" fill-opacity="1"/>
<polyline clip-path="url(#clip721)" style="stroke:#000000; stroke-linecap:round; stroke-linejoin:round; stroke-width:4; stroke-opacity:1; fill:none" points="468.574,1261.03 468.574,1423.18 494.944,1423.18 494.944,1261.03 468.574,1261.03 "/>
<path clip-path="url(#clip721)" d="M494.944 1281.2 L494.944 1423.18 L521.315 1423.18 L521.315 1281.2 L494.944 1281.2 L494.944 1281.2  Z" fill="#009af9" fill-rule="evenodd" fill-opacity="1"/>
<polyline clip-path="url(#clip721)" style="stroke:#000000; stroke-linecap:round; stroke-linejoin:round; stroke-width:4; stroke-opacity:1; fill:none" points="494.944,1281.2 494.944,1423.18 521.315,1423.18 521.315,1281.2 494.944,1281.2 "/>
<path clip-path="url(#clip721)" d="M521.315 1294.64 L521.315 1423.18 L547.686 1423.18 L547.686 1294.64 L521.315 1294.64 L521.315 1294.64  Z" fill="#009af9" fill-rule="evenodd" fill-opacity="1"/>
<polyline clip-path="url(#clip721)" style="stroke:#000000; stroke-linecap:round; stroke-linejoin:round; stroke-width:4; stroke-opacity:1; fill:none" points="521.315,1294.64 521.315,1423.18 547.686,1423.18 547.686,1294.64 521.315,1294.64 "/>
<path clip-path="url(#clip721)" d="M547.686 1321.14 L547.686 1423.18 L574.057 1423.18 L574.057 1321.14 L547.686 1321.14 L547.686 1321.14  Z" fill="#009af9" fill-rule="evenodd" fill-opacity="1"/>
<polyline clip-path="url(#clip721)" style="stroke:#000000; stroke-linecap:round; stroke-linejoin:round; stroke-width:4; stroke-opacity:1; fill:none" points="547.686,1321.14 547.686,1423.18 574.057,1423.18 574.057,1321.14 547.686,1321.14 "/>
<path clip-path="url(#clip721)" d="M574.057 1334.98 L574.057 1423.18 L600.428 1423.18 L600.428 1334.98 L574.057 1334.98 L574.057 1334.98  Z" fill="#009af9" fill-rule="evenodd" fill-opacity="1"/>
<polyline clip-path="url(#clip721)" style="stroke:#000000; stroke-linecap:round; stroke-linejoin:round; stroke-width:4; stroke-opacity:1; fill:none" points="574.057,1334.98 574.057,1423.18 600.428,1423.18 600.428,1334.98 574.057,1334.98 "/>
<path clip-path="url(#clip721)" d="M600.428 1340.92 L600.428 1423.18 L626.798 1423.18 L626.798 1340.92 L600.428 1340.92 L600.428 1340.92  Z" fill="#009af9" fill-rule="evenodd" fill-opacity="1"/>
<polyline clip-path="url(#clip721)" style="stroke:#000000; stroke-linecap:round; stroke-linejoin:round; stroke-width:4; stroke-opacity:1; fill:none" points="600.428,1340.92 600.428,1423.18 626.798,1423.18 626.798,1340.92 600.428,1340.92 "/>
<path clip-path="url(#clip721)" d="M626.798 1366.62 L626.798 1423.18 L653.169 1423.18 L653.169 1366.62 L626.798 1366.62 L626.798 1366.62  Z" fill="#009af9" fill-rule="evenodd" fill-opacity="1"/>
<polyline clip-path="url(#clip721)" style="stroke:#000000; stroke-linecap:round; stroke-linejoin:round; stroke-width:4; stroke-opacity:1; fill:none" points="626.798,1366.62 626.798,1423.18 653.169,1423.18 653.169,1366.62 626.798,1366.62 "/>
<path clip-path="url(#clip721)" d="M653.169 1369.39 L653.169 1423.18 L679.54 1423.18 L679.54 1369.39 L653.169 1369.39 L653.169 1369.39  Z" fill="#009af9" fill-rule="evenodd" fill-opacity="1"/>
<polyline clip-path="url(#clip721)" style="stroke:#000000; stroke-linecap:round; stroke-linejoin:round; stroke-width:4; stroke-opacity:1; fill:none" points="653.169,1369.39 653.169,1423.18 679.54,1423.18 679.54,1369.39 653.169,1369.39 "/>
<path clip-path="url(#clip721)" d="M679.54 1370.18 L679.54 1423.18 L705.911 1423.18 L705.911 1370.18 L679.54 1370.18 L679.54 1370.18  Z" fill="#009af9" fill-rule="evenodd" fill-opacity="1"/>
<polyline clip-path="url(#clip721)" style="stroke:#000000; stroke-linecap:round; stroke-linejoin:round; stroke-width:4; stroke-opacity:1; fill:none" points="679.54,1370.18 679.54,1423.18 705.911,1423.18 705.911,1370.18 679.54,1370.18 "/>
<path clip-path="url(#clip721)" d="M705.911 1377.7 L705.911 1423.18 L732.281 1423.18 L732.281 1377.7 L705.911 1377.7 L705.911 1377.7  Z" fill="#009af9" fill-rule="evenodd" fill-opacity="1"/>
<polyline clip-path="url(#clip721)" style="stroke:#000000; stroke-linecap:round; stroke-linejoin:round; stroke-width:4; stroke-opacity:1; fill:none" points="705.911,1377.7 705.911,1423.18 732.281,1423.18 732.281,1377.7 705.911,1377.7 "/>
<path clip-path="url(#clip721)" d="M732.281 1386.4 L732.281 1423.18 L758.652 1423.18 L758.652 1386.4 L732.281 1386.4 L732.281 1386.4  Z" fill="#009af9" fill-rule="evenodd" fill-opacity="1"/>
<polyline clip-path="url(#clip721)" style="stroke:#000000; stroke-linecap:round; stroke-linejoin:round; stroke-width:4; stroke-opacity:1; fill:none" points="732.281,1386.4 732.281,1423.18 758.652,1423.18 758.652,1386.4 732.281,1386.4 "/>
<path clip-path="url(#clip721)" d="M758.652 1394.31 L758.652 1423.18 L785.023 1423.18 L785.023 1394.31 L758.652 1394.31 L758.652 1394.31  Z" fill="#009af9" fill-rule="evenodd" fill-opacity="1"/>
<polyline clip-path="url(#clip721)" style="stroke:#000000; stroke-linecap:round; stroke-linejoin:round; stroke-width:4; stroke-opacity:1; fill:none" points="758.652,1394.31 758.652,1423.18 785.023,1423.18 785.023,1394.31 758.652,1394.31 "/>
<path clip-path="url(#clip721)" d="M785.023 1394.31 L785.023 1423.18 L811.394 1423.18 L811.394 1394.31 L785.023 1394.31 L785.023 1394.31  Z" fill="#009af9" fill-rule="evenodd" fill-opacity="1"/>
<polyline clip-path="url(#clip721)" style="stroke:#000000; stroke-linecap:round; stroke-linejoin:round; stroke-width:4; stroke-opacity:1; fill:none" points="785.023,1394.31 785.023,1423.18 811.394,1423.18 811.394,1394.31 785.023,1394.31 "/>
<path clip-path="url(#clip721)" d="M811.394 1395.1 L811.394 1423.18 L837.765 1423.18 L837.765 1395.1 L811.394 1395.1 L811.394 1395.1  Z" fill="#009af9" fill-rule="evenodd" fill-opacity="1"/>
<polyline clip-path="url(#clip721)" style="stroke:#000000; stroke-linecap:round; stroke-linejoin:round; stroke-width:4; stroke-opacity:1; fill:none" points="811.394,1395.1 811.394,1423.18 837.765,1423.18 837.765,1395.1 811.394,1395.1 "/>
<path clip-path="url(#clip721)" d="M837.765 1400.64 L837.765 1423.18 L864.135 1423.18 L864.135 1400.64 L837.765 1400.64 L837.765 1400.64  Z" fill="#009af9" fill-rule="evenodd" fill-opacity="1"/>
<polyline clip-path="url(#clip721)" style="stroke:#000000; stroke-linecap:round; stroke-linejoin:round; stroke-width:4; stroke-opacity:1; fill:none" points="837.765,1400.64 837.765,1423.18 864.135,1423.18 864.135,1400.64 837.765,1400.64 "/>
<path clip-path="url(#clip721)" d="M864.135 1403.8 L864.135 1423.18 L890.506 1423.18 L890.506 1403.8 L864.135 1403.8 L864.135 1403.8  Z" fill="#009af9" fill-rule="evenodd" fill-opacity="1"/>
<polyline clip-path="url(#clip721)" style="stroke:#000000; stroke-linecap:round; stroke-linejoin:round; stroke-width:4; stroke-opacity:1; fill:none" points="864.135,1403.8 864.135,1423.18 890.506,1423.18 890.506,1403.8 864.135,1403.8 "/>
<path clip-path="url(#clip721)" d="M890.506 1408.55 L890.506 1423.18 L916.877 1423.18 L916.877 1408.55 L890.506 1408.55 L890.506 1408.55  Z" fill="#009af9" fill-rule="evenodd" fill-opacity="1"/>
<polyline clip-path="url(#clip721)" style="stroke:#000000; stroke-linecap:round; stroke-linejoin:round; stroke-width:4; stroke-opacity:1; fill:none" points="890.506,1408.55 890.506,1423.18 916.877,1423.18 916.877,1408.55 890.506,1408.55 "/>
<path clip-path="url(#clip721)" d="M916.877 1410.92 L916.877 1423.18 L943.248 1423.18 L943.248 1410.92 L916.877 1410.92 L916.877 1410.92  Z" fill="#009af9" fill-rule="evenodd" fill-opacity="1"/>
<polyline clip-path="url(#clip721)" style="stroke:#000000; stroke-linecap:round; stroke-linejoin:round; stroke-width:4; stroke-opacity:1; fill:none" points="916.877,1410.92 916.877,1423.18 943.248,1423.18 943.248,1410.92 916.877,1410.92 "/>
<path clip-path="url(#clip721)" d="M943.248 1406.96 L943.248 1423.18 L969.619 1423.18 L969.619 1406.96 L943.248 1406.96 L943.248 1406.96  Z" fill="#009af9" fill-rule="evenodd" fill-opacity="1"/>
<polyline clip-path="url(#clip721)" style="stroke:#000000; stroke-linecap:round; stroke-linejoin:round; stroke-width:4; stroke-opacity:1; fill:none" points="943.248,1406.96 943.248,1423.18 969.619,1423.18 969.619,1406.96 943.248,1406.96 "/>
<path clip-path="url(#clip721)" d="M969.619 1406.57 L969.619 1423.18 L995.989 1423.18 L995.989 1406.57 L969.619 1406.57 L969.619 1406.57  Z" fill="#009af9" fill-rule="evenodd" fill-opacity="1"/>
<polyline clip-path="url(#clip721)" style="stroke:#000000; stroke-linecap:round; stroke-linejoin:round; stroke-width:4; stroke-opacity:1; fill:none" points="969.619,1406.57 969.619,1423.18 995.989,1423.18 995.989,1406.57 969.619,1406.57 "/>
<path clip-path="url(#clip721)" d="M995.989 1411.71 L995.989 1423.18 L1022.36 1423.18 L1022.36 1411.71 L995.989 1411.71 L995.989 1411.71  Z" fill="#009af9" fill-rule="evenodd" fill-opacity="1"/>
<polyline clip-path="url(#clip721)" style="stroke:#000000; stroke-linecap:round; stroke-linejoin:round; stroke-width:4; stroke-opacity:1; fill:none" points="995.989,1411.71 995.989,1423.18 1022.36,1423.18 1022.36,1411.71 995.989,1411.71 "/>
<path clip-path="url(#clip721)" d="M1022.36 1411.71 L1022.36 1423.18 L1048.73 1423.18 L1048.73 1411.71 L1022.36 1411.71 L1022.36 1411.71  Z" fill="#009af9" fill-rule="evenodd" fill-opacity="1"/>
<polyline clip-path="url(#clip721)" style="stroke:#000000; stroke-linecap:round; stroke-linejoin:round; stroke-width:4; stroke-opacity:1; fill:none" points="1022.36,1411.71 1022.36,1423.18 1048.73,1423.18 1048.73,1411.71 1022.36,1411.71 "/>
<path clip-path="url(#clip721)" d="M1048.73 1416.46 L1048.73 1423.18 L1075.1 1423.18 L1075.1 1416.46 L1048.73 1416.46 L1048.73 1416.46  Z" fill="#009af9" fill-rule="evenodd" fill-opacity="1"/>
<polyline clip-path="url(#clip721)" style="stroke:#000000; stroke-linecap:round; stroke-linejoin:round; stroke-width:4; stroke-opacity:1; fill:none" points="1048.73,1416.46 1048.73,1423.18 1075.1,1423.18 1075.1,1416.46 1048.73,1416.46 "/>
<path clip-path="url(#clip721)" d="M1075.1 1415.67 L1075.1 1423.18 L1101.47 1423.18 L1101.47 1415.67 L1075.1 1415.67 L1075.1 1415.67  Z" fill="#009af9" fill-rule="evenodd" fill-opacity="1"/>
<polyline clip-path="url(#clip721)" style="stroke:#000000; stroke-linecap:round; stroke-linejoin:round; stroke-width:4; stroke-opacity:1; fill:none" points="1075.1,1415.67 1075.1,1423.18 1101.47,1423.18 1101.47,1415.67 1075.1,1415.67 "/>
<path clip-path="url(#clip721)" d="M1101.47 1418.43 L1101.47 1423.18 L1127.84 1423.18 L1127.84 1418.43 L1101.47 1418.43 L1101.47 1418.43  Z" fill="#009af9" fill-rule="evenodd" fill-opacity="1"/>
<polyline clip-path="url(#clip721)" style="stroke:#000000; stroke-linecap:round; stroke-linejoin:round; stroke-width:4; stroke-opacity:1; fill:none" points="1101.47,1418.43 1101.47,1423.18 1127.84,1423.18 1127.84,1418.43 1101.47,1418.43 "/>
<path clip-path="url(#clip721)" d="M1127.84 1415.67 L1127.84 1423.18 L1154.21 1423.18 L1154.21 1415.67 L1127.84 1415.67 L1127.84 1415.67  Z" fill="#009af9" fill-rule="evenodd" fill-opacity="1"/>
<polyline clip-path="url(#clip721)" style="stroke:#000000; stroke-linecap:round; stroke-linejoin:round; stroke-width:4; stroke-opacity:1; fill:none" points="1127.84,1415.67 1127.84,1423.18 1154.21,1423.18 1154.21,1415.67 1127.84,1415.67 "/>
<path clip-path="url(#clip721)" d="M1154.21 1415.67 L1154.21 1423.18 L1180.58 1423.18 L1180.58 1415.67 L1154.21 1415.67 L1154.21 1415.67  Z" fill="#009af9" fill-rule="evenodd" fill-opacity="1"/>
<polyline clip-path="url(#clip721)" style="stroke:#000000; stroke-linecap:round; stroke-linejoin:round; stroke-width:4; stroke-opacity:1; fill:none" points="1154.21,1415.67 1154.21,1423.18 1180.58,1423.18 1180.58,1415.67 1154.21,1415.67 "/>
<path clip-path="url(#clip721)" d="M1180.58 1420.41 L1180.58 1423.18 L1206.96 1423.18 L1206.96 1420.41 L1180.58 1420.41 L1180.58 1420.41  Z" fill="#009af9" fill-rule="evenodd" fill-opacity="1"/>
<polyline clip-path="url(#clip721)" style="stroke:#000000; stroke-linecap:round; stroke-linejoin:round; stroke-width:4; stroke-opacity:1; fill:none" points="1180.58,1420.41 1180.58,1423.18 1206.96,1423.18 1206.96,1420.41 1180.58,1420.41 "/>
<path clip-path="url(#clip721)" d="M1206.96 1419.62 L1206.96 1423.18 L1233.33 1423.18 L1233.33 1419.62 L1206.96 1419.62 L1206.96 1419.62  Z" fill="#009af9" fill-rule="evenodd" fill-opacity="1"/>
<polyline clip-path="url(#clip721)" style="stroke:#000000; stroke-linecap:round; stroke-linejoin:round; stroke-width:4; stroke-opacity:1; fill:none" points="1206.96,1419.62 1206.96,1423.18 1233.33,1423.18 1233.33,1419.62 1206.96,1419.62 "/>
<path clip-path="url(#clip721)" d="M1233.33 1418.83 L1233.33 1423.18 L1259.7 1423.18 L1259.7 1418.83 L1233.33 1418.83 L1233.33 1418.83  Z" fill="#009af9" fill-rule="evenodd" fill-opacity="1"/>
<polyline clip-path="url(#clip721)" style="stroke:#000000; stroke-linecap:round; stroke-linejoin:round; stroke-width:4; stroke-opacity:1; fill:none" points="1233.33,1418.83 1233.33,1423.18 1259.7,1423.18 1259.7,1418.83 1233.33,1418.83 "/>
<path clip-path="url(#clip721)" d="M1259.7 1421.2 L1259.7 1423.18 L1286.07 1423.18 L1286.07 1421.2 L1259.7 1421.2 L1259.7 1421.2  Z" fill="#009af9" fill-rule="evenodd" fill-opacity="1"/>
<polyline clip-path="url(#clip721)" style="stroke:#000000; stroke-linecap:round; stroke-linejoin:round; stroke-width:4; stroke-opacity:1; fill:none" points="1259.7,1421.2 1259.7,1423.18 1286.07,1423.18 1286.07,1421.2 1259.7,1421.2 "/>
<path clip-path="url(#clip721)" d="M1286.07 1417.64 L1286.07 1423.18 L1312.44 1423.18 L1312.44 1417.64 L1286.07 1417.64 L1286.07 1417.64  Z" fill="#009af9" fill-rule="evenodd" fill-opacity="1"/>
<polyline clip-path="url(#clip721)" style="stroke:#000000; stroke-linecap:round; stroke-linejoin:round; stroke-width:4; stroke-opacity:1; fill:none" points="1286.07,1417.64 1286.07,1423.18 1312.44,1423.18 1312.44,1417.64 1286.07,1417.64 "/>
<path clip-path="url(#clip721)" d="M1312.44 1421.99 L1312.44 1423.18 L1338.81 1423.18 L1338.81 1421.99 L1312.44 1421.99 L1312.44 1421.99  Z" fill="#009af9" fill-rule="evenodd" fill-opacity="1"/>
<polyline clip-path="url(#clip721)" style="stroke:#000000; stroke-linecap:round; stroke-linejoin:round; stroke-width:4; stroke-opacity:1; fill:none" points="1312.44,1421.99 1312.44,1423.18 1338.81,1423.18 1338.81,1421.99 1312.44,1421.99 "/>
<path clip-path="url(#clip721)" d="M1338.81 1419.22 L1338.81 1423.18 L1365.18 1423.18 L1365.18 1419.22 L1338.81 1419.22 L1338.81 1419.22  Z" fill="#009af9" fill-rule="evenodd" fill-opacity="1"/>
<polyline clip-path="url(#clip721)" style="stroke:#000000; stroke-linecap:round; stroke-linejoin:round; stroke-width:4; stroke-opacity:1; fill:none" points="1338.81,1419.22 1338.81,1423.18 1365.18,1423.18 1365.18,1419.22 1338.81,1419.22 "/>
<path clip-path="url(#clip721)" d="M1365.18 1420.41 L1365.18 1423.18 L1391.55 1423.18 L1391.55 1420.41 L1365.18 1420.41 L1365.18 1420.41  Z" fill="#009af9" fill-rule="evenodd" fill-opacity="1"/>
<polyline clip-path="url(#clip721)" style="stroke:#000000; stroke-linecap:round; stroke-linejoin:round; stroke-width:4; stroke-opacity:1; fill:none" points="1365.18,1420.41 1365.18,1423.18 1391.55,1423.18 1391.55,1420.41 1365.18,1420.41 "/>
<path clip-path="url(#clip721)" d="M1391.55 1421.2 L1391.55 1423.18 L1417.92 1423.18 L1417.92 1421.2 L1391.55 1421.2 L1391.55 1421.2  Z" fill="#009af9" fill-rule="evenodd" fill-opacity="1"/>
<polyline clip-path="url(#clip721)" style="stroke:#000000; stroke-linecap:round; stroke-linejoin:round; stroke-width:4; stroke-opacity:1; fill:none" points="1391.55,1421.2 1391.55,1423.18 1417.92,1423.18 1417.92,1421.2 1391.55,1421.2 "/>
<path clip-path="url(#clip721)" d="M1417.92 1418.83 L1417.92 1423.18 L1444.29 1423.18 L1444.29 1418.83 L1417.92 1418.83 L1417.92 1418.83  Z" fill="#009af9" fill-rule="evenodd" fill-opacity="1"/>
<polyline clip-path="url(#clip721)" style="stroke:#000000; stroke-linecap:round; stroke-linejoin:round; stroke-width:4; stroke-opacity:1; fill:none" points="1417.92,1418.83 1417.92,1423.18 1444.29,1423.18 1444.29,1418.83 1417.92,1418.83 "/>
<path clip-path="url(#clip721)" d="M1444.29 1421.99 L1444.29 1423.18 L1470.66 1423.18 L1470.66 1421.99 L1444.29 1421.99 L1444.29 1421.99  Z" fill="#009af9" fill-rule="evenodd" fill-opacity="1"/>
<polyline clip-path="url(#clip721)" style="stroke:#000000; stroke-linecap:round; stroke-linejoin:round; stroke-width:4; stroke-opacity:1; fill:none" points="1444.29,1421.99 1444.29,1423.18 1470.66,1423.18 1470.66,1421.99 1444.29,1421.99 "/>
<path clip-path="url(#clip721)" d="M1470.66 1423.18 L1470.66 1423.18 L1497.03 1423.18 L1497.03 1423.18 L1470.66 1423.18 L1470.66 1423.18  Z" fill="#009af9" fill-rule="evenodd" fill-opacity="1"/>
<polyline clip-path="url(#clip721)" style="stroke:#000000; stroke-linecap:round; stroke-linejoin:round; stroke-width:4; stroke-opacity:1; fill:none" points="1470.66,1423.18 1470.66,1423.18 1497.03,1423.18 1470.66,1423.18 "/>
<path clip-path="url(#clip721)" d="M1497.03 1422.39 L1497.03 1423.18 L1523.41 1423.18 L1523.41 1422.39 L1497.03 1422.39 L1497.03 1422.39  Z" fill="#009af9" fill-rule="evenodd" fill-opacity="1"/>
<polyline clip-path="url(#clip721)" style="stroke:#000000; stroke-linecap:round; stroke-linejoin:round; stroke-width:4; stroke-opacity:1; fill:none" points="1497.03,1422.39 1497.03,1423.18 1523.41,1423.18 1523.41,1422.39 1497.03,1422.39 "/>
<path clip-path="url(#clip721)" d="M1523.41 1423.18 L1523.41 1423.18 L1549.78 1423.18 L1549.78 1423.18 L1523.41 1423.18 L1523.41 1423.18  Z" fill="#009af9" fill-rule="evenodd" fill-opacity="1"/>
<polyline clip-path="url(#clip721)" style="stroke:#000000; stroke-linecap:round; stroke-linejoin:round; stroke-width:4; stroke-opacity:1; fill:none" points="1523.41,1423.18 1523.41,1423.18 1549.78,1423.18 1523.41,1423.18 "/>
<path clip-path="url(#clip721)" d="M1549.78 1421.6 L1549.78 1423.18 L1576.15 1423.18 L1576.15 1421.6 L1549.78 1421.6 L1549.78 1421.6  Z" fill="#009af9" fill-rule="evenodd" fill-opacity="1"/>
<polyline clip-path="url(#clip721)" style="stroke:#000000; stroke-linecap:round; stroke-linejoin:round; stroke-width:4; stroke-opacity:1; fill:none" points="1549.78,1421.6 1549.78,1423.18 1576.15,1423.18 1576.15,1421.6 1549.78,1421.6 "/>
<path clip-path="url(#clip721)" d="M1576.15 1422.39 L1576.15 1423.18 L1602.52 1423.18 L1602.52 1422.39 L1576.15 1422.39 L1576.15 1422.39  Z" fill="#009af9" fill-rule="evenodd" fill-opacity="1"/>
<polyline clip-path="url(#clip721)" style="stroke:#000000; stroke-linecap:round; stroke-linejoin:round; stroke-width:4; stroke-opacity:1; fill:none" points="1576.15,1422.39 1576.15,1423.18 1602.52,1423.18 1602.52,1422.39 1576.15,1422.39 "/>
<path clip-path="url(#clip721)" d="M1602.52 1422.39 L1602.52 1423.18 L1628.89 1423.18 L1628.89 1422.39 L1602.52 1422.39 L1602.52 1422.39  Z" fill="#009af9" fill-rule="evenodd" fill-opacity="1"/>
<polyline clip-path="url(#clip721)" style="stroke:#000000; stroke-linecap:round; stroke-linejoin:round; stroke-width:4; stroke-opacity:1; fill:none" points="1602.52,1422.39 1602.52,1423.18 1628.89,1423.18 1628.89,1422.39 1602.52,1422.39 "/>
<path clip-path="url(#clip721)" d="M1628.89 1422.78 L1628.89 1423.18 L1655.26 1423.18 L1655.26 1422.78 L1628.89 1422.78 L1628.89 1422.78  Z" fill="#009af9" fill-rule="evenodd" fill-opacity="1"/>
<polyline clip-path="url(#clip721)" style="stroke:#000000; stroke-linecap:round; stroke-linejoin:round; stroke-width:4; stroke-opacity:1; fill:none" points="1628.89,1422.78 1628.89,1423.18 1655.26,1423.18 1655.26,1422.78 1628.89,1422.78 "/>
<path clip-path="url(#clip721)" d="M1655.26 1421.6 L1655.26 1423.18 L1681.63 1423.18 L1681.63 1421.6 L1655.26 1421.6 L1655.26 1421.6  Z" fill="#009af9" fill-rule="evenodd" fill-opacity="1"/>
<polyline clip-path="url(#clip721)" style="stroke:#000000; stroke-linecap:round; stroke-linejoin:round; stroke-width:4; stroke-opacity:1; fill:none" points="1655.26,1421.6 1655.26,1423.18 1681.63,1423.18 1681.63,1421.6 1655.26,1421.6 "/>
<path clip-path="url(#clip721)" d="M1681.63 1423.18 L1681.63 1423.18 L1708 1423.18 L1708 1423.18 L1681.63 1423.18 L1681.63 1423.18  Z" fill="#009af9" fill-rule="evenodd" fill-opacity="1"/>
<polyline clip-path="url(#clip721)" style="stroke:#000000; stroke-linecap:round; stroke-linejoin:round; stroke-width:4; stroke-opacity:1; fill:none" points="1681.63,1423.18 1681.63,1423.18 1708,1423.18 1681.63,1423.18 "/>
<path clip-path="url(#clip721)" d="M1708 1421.99 L1708 1423.18 L1734.37 1423.18 L1734.37 1421.99 L1708 1421.99 L1708 1421.99  Z" fill="#009af9" fill-rule="evenodd" fill-opacity="1"/>
<polyline clip-path="url(#clip721)" style="stroke:#000000; stroke-linecap:round; stroke-linejoin:round; stroke-width:4; stroke-opacity:1; fill:none" points="1708,1421.99 1708,1423.18 1734.37,1423.18 1734.37,1421.99 1708,1421.99 "/>
<path clip-path="url(#clip721)" d="M1734.37 1422.39 L1734.37 1423.18 L1760.74 1423.18 L1760.74 1422.39 L1734.37 1422.39 L1734.37 1422.39  Z" fill="#009af9" fill-rule="evenodd" fill-opacity="1"/>
<polyline clip-path="url(#clip721)" style="stroke:#000000; stroke-linecap:round; stroke-linejoin:round; stroke-width:4; stroke-opacity:1; fill:none" points="1734.37,1422.39 1734.37,1423.18 1760.74,1423.18 1760.74,1422.39 1734.37,1422.39 "/>
<path clip-path="url(#clip721)" d="M1760.74 1422.78 L1760.74 1423.18 L1787.11 1423.18 L1787.11 1422.78 L1760.74 1422.78 L1760.74 1422.78  Z" fill="#009af9" fill-rule="evenodd" fill-opacity="1"/>
<polyline clip-path="url(#clip721)" style="stroke:#000000; stroke-linecap:round; stroke-linejoin:round; stroke-width:4; stroke-opacity:1; fill:none" points="1760.74,1422.78 1760.74,1423.18 1787.11,1423.18 1787.11,1422.78 1760.74,1422.78 "/>
<path clip-path="url(#clip721)" d="M1787.11 1422.78 L1787.11 1423.18 L1813.48 1423.18 L1813.48 1422.78 L1787.11 1422.78 L1787.11 1422.78  Z" fill="#009af9" fill-rule="evenodd" fill-opacity="1"/>
<polyline clip-path="url(#clip721)" style="stroke:#000000; stroke-linecap:round; stroke-linejoin:round; stroke-width:4; stroke-opacity:1; fill:none" points="1787.11,1422.78 1787.11,1423.18 1813.48,1423.18 1813.48,1422.78 1787.11,1422.78 "/>
<path clip-path="url(#clip721)" d="M1813.48 1422.39 L1813.48 1423.18 L1839.85 1423.18 L1839.85 1422.39 L1813.48 1422.39 L1813.48 1422.39  Z" fill="#009af9" fill-rule="evenodd" fill-opacity="1"/>
<polyline clip-path="url(#clip721)" style="stroke:#000000; stroke-linecap:round; stroke-linejoin:round; stroke-width:4; stroke-opacity:1; fill:none" points="1813.48,1422.39 1813.48,1423.18 1839.85,1423.18 1839.85,1422.39 1813.48,1422.39 "/>
<path clip-path="url(#clip721)" d="M1839.85 1422.78 L1839.85 1423.18 L1866.23 1423.18 L1866.23 1422.78 L1839.85 1422.78 L1839.85 1422.78  Z" fill="#009af9" fill-rule="evenodd" fill-opacity="1"/>
<polyline clip-path="url(#clip721)" style="stroke:#000000; stroke-linecap:round; stroke-linejoin:round; stroke-width:4; stroke-opacity:1; fill:none" points="1839.85,1422.78 1839.85,1423.18 1866.23,1423.18 1866.23,1422.78 1839.85,1422.78 "/>
<path clip-path="url(#clip721)" d="M1866.23 1422.78 L1866.23 1423.18 L1892.6 1423.18 L1892.6 1422.78 L1866.23 1422.78 L1866.23 1422.78  Z" fill="#009af9" fill-rule="evenodd" fill-opacity="1"/>
<polyline clip-path="url(#clip721)" style="stroke:#000000; stroke-linecap:round; stroke-linejoin:round; stroke-width:4; stroke-opacity:1; fill:none" points="1866.23,1422.78 1866.23,1423.18 1892.6,1423.18 1892.6,1422.78 1866.23,1422.78 "/>
<path clip-path="url(#clip721)" d="M1892.6 1422.39 L1892.6 1423.18 L1918.97 1423.18 L1918.97 1422.39 L1892.6 1422.39 L1892.6 1422.39  Z" fill="#009af9" fill-rule="evenodd" fill-opacity="1"/>
<polyline clip-path="url(#clip721)" style="stroke:#000000; stroke-linecap:round; stroke-linejoin:round; stroke-width:4; stroke-opacity:1; fill:none" points="1892.6,1422.39 1892.6,1423.18 1918.97,1423.18 1918.97,1422.39 1892.6,1422.39 "/>
<path clip-path="url(#clip721)" d="M1918.97 1423.18 L1918.97 1423.18 L1945.34 1423.18 L1945.34 1423.18 L1918.97 1423.18 L1918.97 1423.18  Z" fill="#009af9" fill-rule="evenodd" fill-opacity="1"/>
<polyline clip-path="url(#clip721)" style="stroke:#000000; stroke-linecap:round; stroke-linejoin:round; stroke-width:4; stroke-opacity:1; fill:none" points="1918.97,1423.18 1918.97,1423.18 1945.34,1423.18 1918.97,1423.18 "/>
<path clip-path="url(#clip721)" d="M1945.34 1423.18 L1945.34 1423.18 L1971.71 1423.18 L1971.71 1423.18 L1945.34 1423.18 L1945.34 1423.18  Z" fill="#009af9" fill-rule="evenodd" fill-opacity="1"/>
<polyline clip-path="url(#clip721)" style="stroke:#000000; stroke-linecap:round; stroke-linejoin:round; stroke-width:4; stroke-opacity:1; fill:none" points="1945.34,1423.18 1945.34,1423.18 1971.71,1423.18 1945.34,1423.18 "/>
<path clip-path="url(#clip721)" d="M1971.71 1423.18 L1971.71 1423.18 L1998.08 1423.18 L1998.08 1423.18 L1971.71 1423.18 L1971.71 1423.18  Z" fill="#009af9" fill-rule="evenodd" fill-opacity="1"/>
<polyline clip-path="url(#clip721)" style="stroke:#000000; stroke-linecap:round; stroke-linejoin:round; stroke-width:4; stroke-opacity:1; fill:none" points="1971.71,1423.18 1971.71,1423.18 1998.08,1423.18 1971.71,1423.18 "/>
<path clip-path="url(#clip721)" d="M1998.08 1422.78 L1998.08 1423.18 L2024.45 1423.18 L2024.45 1422.78 L1998.08 1422.78 L1998.08 1422.78  Z" fill="#009af9" fill-rule="evenodd" fill-opacity="1"/>
<polyline clip-path="url(#clip721)" style="stroke:#000000; stroke-linecap:round; stroke-linejoin:round; stroke-width:4; stroke-opacity:1; fill:none" points="1998.08,1422.78 1998.08,1423.18 2024.45,1423.18 2024.45,1422.78 1998.08,1422.78 "/>
<path clip-path="url(#clip721)" d="M2024.45 1423.18 L2024.45 1423.18 L2050.82 1423.18 L2050.82 1423.18 L2024.45 1423.18 L2024.45 1423.18  Z" fill="#009af9" fill-rule="evenodd" fill-opacity="1"/>
<polyline clip-path="url(#clip721)" style="stroke:#000000; stroke-linecap:round; stroke-linejoin:round; stroke-width:4; stroke-opacity:1; fill:none" points="2024.45,1423.18 2024.45,1423.18 2050.82,1423.18 2024.45,1423.18 "/>
<path clip-path="url(#clip721)" d="M2050.82 1423.18 L2050.82 1423.18 L2077.19 1423.18 L2077.19 1423.18 L2050.82 1423.18 L2050.82 1423.18  Z" fill="#009af9" fill-rule="evenodd" fill-opacity="1"/>
<polyline clip-path="url(#clip721)" style="stroke:#000000; stroke-linecap:round; stroke-linejoin:round; stroke-width:4; stroke-opacity:1; fill:none" points="2050.82,1423.18 2050.82,1423.18 2077.19,1423.18 2050.82,1423.18 "/>
<path clip-path="url(#clip721)" d="M2077.19 1423.18 L2077.19 1423.18 L2103.56 1423.18 L2103.56 1423.18 L2077.19 1423.18 L2077.19 1423.18  Z" fill="#009af9" fill-rule="evenodd" fill-opacity="1"/>
<polyline clip-path="url(#clip721)" style="stroke:#000000; stroke-linecap:round; stroke-linejoin:round; stroke-width:4; stroke-opacity:1; fill:none" points="2077.19,1423.18 2077.19,1423.18 2103.56,1423.18 2077.19,1423.18 "/>
<path clip-path="url(#clip721)" d="M2103.56 1423.18 L2103.56 1423.18 L2129.93 1423.18 L2129.93 1423.18 L2103.56 1423.18 L2103.56 1423.18  Z" fill="#009af9" fill-rule="evenodd" fill-opacity="1"/>
<polyline clip-path="url(#clip721)" style="stroke:#000000; stroke-linecap:round; stroke-linejoin:round; stroke-width:4; stroke-opacity:1; fill:none" points="2103.56,1423.18 2103.56,1423.18 2129.93,1423.18 2103.56,1423.18 "/>
<path clip-path="url(#clip721)" d="M2129.93 1423.18 L2129.93 1423.18 L2156.3 1423.18 L2156.3 1423.18 L2129.93 1423.18 L2129.93 1423.18  Z" fill="#009af9" fill-rule="evenodd" fill-opacity="1"/>
<polyline clip-path="url(#clip721)" style="stroke:#000000; stroke-linecap:round; stroke-linejoin:round; stroke-width:4; stroke-opacity:1; fill:none" points="2129.93,1423.18 2129.93,1423.18 2156.3,1423.18 2129.93,1423.18 "/>
<path clip-path="url(#clip721)" d="M2156.3 1423.18 L2156.3 1423.18 L2182.67 1423.18 L2182.67 1423.18 L2156.3 1423.18 L2156.3 1423.18  Z" fill="#009af9" fill-rule="evenodd" fill-opacity="1"/>
<polyline clip-path="url(#clip721)" style="stroke:#000000; stroke-linecap:round; stroke-linejoin:round; stroke-width:4; stroke-opacity:1; fill:none" points="2156.3,1423.18 2156.3,1423.18 2182.67,1423.18 2156.3,1423.18 "/>
<path clip-path="url(#clip721)" d="M2182.67 1423.18 L2182.67 1423.18 L2209.05 1423.18 L2209.05 1423.18 L2182.67 1423.18 L2182.67 1423.18  Z" fill="#009af9" fill-rule="evenodd" fill-opacity="1"/>
<polyline clip-path="url(#clip721)" style="stroke:#000000; stroke-linecap:round; stroke-linejoin:round; stroke-width:4; stroke-opacity:1; fill:none" points="2182.67,1423.18 2182.67,1423.18 2209.05,1423.18 2182.67,1423.18 "/>
<path clip-path="url(#clip721)" d="M2209.05 1422.78 L2209.05 1423.18 L2235.42 1423.18 L2235.42 1422.78 L2209.05 1422.78 L2209.05 1422.78  Z" fill="#009af9" fill-rule="evenodd" fill-opacity="1"/>
<polyline clip-path="url(#clip721)" style="stroke:#000000; stroke-linecap:round; stroke-linejoin:round; stroke-width:4; stroke-opacity:1; fill:none" points="2209.05,1422.78 2209.05,1423.18 2235.42,1423.18 2235.42,1422.78 2209.05,1422.78 "/>
<circle clip-path="url(#clip721)" style="fill:#009af9; stroke:none; fill-opacity:0" cx="349.905" cy="47.2441" r="2"/>
<circle clip-path="url(#clip721)" style="fill:#009af9; stroke:none; fill-opacity:0" cx="376.276" cy="925.644" r="2"/>
<circle clip-path="url(#clip721)" style="fill:#009af9; stroke:none; fill-opacity:0" cx="402.647" cy="1065.25" r="2"/>
<circle clip-path="url(#clip721)" style="fill:#009af9; stroke:none; fill-opacity:0" cx="429.017" cy="1165.71" r="2"/>
<circle clip-path="url(#clip721)" style="fill:#009af9; stroke:none; fill-opacity:0" cx="455.388" cy="1197.75" r="2"/>
<circle clip-path="url(#clip721)" style="fill:#009af9; stroke:none; fill-opacity:0" cx="481.759" cy="1261.03" r="2"/>
<circle clip-path="url(#clip721)" style="fill:#009af9; stroke:none; fill-opacity:0" cx="508.13" cy="1281.2" r="2"/>
<circle clip-path="url(#clip721)" style="fill:#009af9; stroke:none; fill-opacity:0" cx="534.501" cy="1294.64" r="2"/>
<circle clip-path="url(#clip721)" style="fill:#009af9; stroke:none; fill-opacity:0" cx="560.871" cy="1321.14" r="2"/>
<circle clip-path="url(#clip721)" style="fill:#009af9; stroke:none; fill-opacity:0" cx="587.242" cy="1334.98" r="2"/>
<circle clip-path="url(#clip721)" style="fill:#009af9; stroke:none; fill-opacity:0" cx="613.613" cy="1340.92" r="2"/>
<circle clip-path="url(#clip721)" style="fill:#009af9; stroke:none; fill-opacity:0" cx="639.984" cy="1366.62" r="2"/>
<circle clip-path="url(#clip721)" style="fill:#009af9; stroke:none; fill-opacity:0" cx="666.354" cy="1369.39" r="2"/>
<circle clip-path="url(#clip721)" style="fill:#009af9; stroke:none; fill-opacity:0" cx="692.725" cy="1370.18" r="2"/>
<circle clip-path="url(#clip721)" style="fill:#009af9; stroke:none; fill-opacity:0" cx="719.096" cy="1377.7" r="2"/>
<circle clip-path="url(#clip721)" style="fill:#009af9; stroke:none; fill-opacity:0" cx="745.467" cy="1386.4" r="2"/>
<circle clip-path="url(#clip721)" style="fill:#009af9; stroke:none; fill-opacity:0" cx="771.838" cy="1394.31" r="2"/>
<circle clip-path="url(#clip721)" style="fill:#009af9; stroke:none; fill-opacity:0" cx="798.208" cy="1394.31" r="2"/>
<circle clip-path="url(#clip721)" style="fill:#009af9; stroke:none; fill-opacity:0" cx="824.579" cy="1395.1" r="2"/>
<circle clip-path="url(#clip721)" style="fill:#009af9; stroke:none; fill-opacity:0" cx="850.95" cy="1400.64" r="2"/>
<circle clip-path="url(#clip721)" style="fill:#009af9; stroke:none; fill-opacity:0" cx="877.321" cy="1403.8" r="2"/>
<circle clip-path="url(#clip721)" style="fill:#009af9; stroke:none; fill-opacity:0" cx="903.692" cy="1408.55" r="2"/>
<circle clip-path="url(#clip721)" style="fill:#009af9; stroke:none; fill-opacity:0" cx="930.062" cy="1410.92" r="2"/>
<circle clip-path="url(#clip721)" style="fill:#009af9; stroke:none; fill-opacity:0" cx="956.433" cy="1406.96" r="2"/>
<circle clip-path="url(#clip721)" style="fill:#009af9; stroke:none; fill-opacity:0" cx="982.804" cy="1406.57" r="2"/>
<circle clip-path="url(#clip721)" style="fill:#009af9; stroke:none; fill-opacity:0" cx="1009.17" cy="1411.71" r="2"/>
<circle clip-path="url(#clip721)" style="fill:#009af9; stroke:none; fill-opacity:0" cx="1035.55" cy="1411.71" r="2"/>
<circle clip-path="url(#clip721)" style="fill:#009af9; stroke:none; fill-opacity:0" cx="1061.92" cy="1416.46" r="2"/>
<circle clip-path="url(#clip721)" style="fill:#009af9; stroke:none; fill-opacity:0" cx="1088.29" cy="1415.67" r="2"/>
<circle clip-path="url(#clip721)" style="fill:#009af9; stroke:none; fill-opacity:0" cx="1114.66" cy="1418.43" r="2"/>
<circle clip-path="url(#clip721)" style="fill:#009af9; stroke:none; fill-opacity:0" cx="1141.03" cy="1415.67" r="2"/>
<circle clip-path="url(#clip721)" style="fill:#009af9; stroke:none; fill-opacity:0" cx="1167.4" cy="1415.67" r="2"/>
<circle clip-path="url(#clip721)" style="fill:#009af9; stroke:none; fill-opacity:0" cx="1193.77" cy="1420.41" r="2"/>
<circle clip-path="url(#clip721)" style="fill:#009af9; stroke:none; fill-opacity:0" cx="1220.14" cy="1419.62" r="2"/>
<circle clip-path="url(#clip721)" style="fill:#009af9; stroke:none; fill-opacity:0" cx="1246.51" cy="1418.83" r="2"/>
<circle clip-path="url(#clip721)" style="fill:#009af9; stroke:none; fill-opacity:0" cx="1272.88" cy="1421.2" r="2"/>
<circle clip-path="url(#clip721)" style="fill:#009af9; stroke:none; fill-opacity:0" cx="1299.25" cy="1417.64" r="2"/>
<circle clip-path="url(#clip721)" style="fill:#009af9; stroke:none; fill-opacity:0" cx="1325.62" cy="1421.99" r="2"/>
<circle clip-path="url(#clip721)" style="fill:#009af9; stroke:none; fill-opacity:0" cx="1352" cy="1419.22" r="2"/>
<circle clip-path="url(#clip721)" style="fill:#009af9; stroke:none; fill-opacity:0" cx="1378.37" cy="1420.41" r="2"/>
<circle clip-path="url(#clip721)" style="fill:#009af9; stroke:none; fill-opacity:0" cx="1404.74" cy="1421.2" r="2"/>
<circle clip-path="url(#clip721)" style="fill:#009af9; stroke:none; fill-opacity:0" cx="1431.11" cy="1418.83" r="2"/>
<circle clip-path="url(#clip721)" style="fill:#009af9; stroke:none; fill-opacity:0" cx="1457.48" cy="1421.99" r="2"/>
<circle clip-path="url(#clip721)" style="fill:#009af9; stroke:none; fill-opacity:0" cx="1483.85" cy="1423.18" r="2"/>
<circle clip-path="url(#clip721)" style="fill:#009af9; stroke:none; fill-opacity:0" cx="1510.22" cy="1422.39" r="2"/>
<circle clip-path="url(#clip721)" style="fill:#009af9; stroke:none; fill-opacity:0" cx="1536.59" cy="1423.18" r="2"/>
<circle clip-path="url(#clip721)" style="fill:#009af9; stroke:none; fill-opacity:0" cx="1562.96" cy="1421.6" r="2"/>
<circle clip-path="url(#clip721)" style="fill:#009af9; stroke:none; fill-opacity:0" cx="1589.33" cy="1422.39" r="2"/>
<circle clip-path="url(#clip721)" style="fill:#009af9; stroke:none; fill-opacity:0" cx="1615.7" cy="1422.39" r="2"/>
<circle clip-path="url(#clip721)" style="fill:#009af9; stroke:none; fill-opacity:0" cx="1642.07" cy="1422.78" r="2"/>
<circle clip-path="url(#clip721)" style="fill:#009af9; stroke:none; fill-opacity:0" cx="1668.44" cy="1421.6" r="2"/>
<circle clip-path="url(#clip721)" style="fill:#009af9; stroke:none; fill-opacity:0" cx="1694.82" cy="1423.18" r="2"/>
<circle clip-path="url(#clip721)" style="fill:#009af9; stroke:none; fill-opacity:0" cx="1721.19" cy="1421.99" r="2"/>
<circle clip-path="url(#clip721)" style="fill:#009af9; stroke:none; fill-opacity:0" cx="1747.56" cy="1422.39" r="2"/>
<circle clip-path="url(#clip721)" style="fill:#009af9; stroke:none; fill-opacity:0" cx="1773.93" cy="1422.78" r="2"/>
<circle clip-path="url(#clip721)" style="fill:#009af9; stroke:none; fill-opacity:0" cx="1800.3" cy="1422.78" r="2"/>
<circle clip-path="url(#clip721)" style="fill:#009af9; stroke:none; fill-opacity:0" cx="1826.67" cy="1422.39" r="2"/>
<circle clip-path="url(#clip721)" style="fill:#009af9; stroke:none; fill-opacity:0" cx="1853.04" cy="1422.78" r="2"/>
<circle clip-path="url(#clip721)" style="fill:#009af9; stroke:none; fill-opacity:0" cx="1879.41" cy="1422.78" r="2"/>
<circle clip-path="url(#clip721)" style="fill:#009af9; stroke:none; fill-opacity:0" cx="1905.78" cy="1422.39" r="2"/>
<circle clip-path="url(#clip721)" style="fill:#009af9; stroke:none; fill-opacity:0" cx="1932.15" cy="1423.18" r="2"/>
<circle clip-path="url(#clip721)" style="fill:#009af9; stroke:none; fill-opacity:0" cx="1958.52" cy="1423.18" r="2"/>
<circle clip-path="url(#clip721)" style="fill:#009af9; stroke:none; fill-opacity:0" cx="1984.89" cy="1423.18" r="2"/>
<circle clip-path="url(#clip721)" style="fill:#009af9; stroke:none; fill-opacity:0" cx="2011.26" cy="1422.78" r="2"/>
<circle clip-path="url(#clip721)" style="fill:#009af9; stroke:none; fill-opacity:0" cx="2037.64" cy="1423.18" r="2"/>
<circle clip-path="url(#clip721)" style="fill:#009af9; stroke:none; fill-opacity:0" cx="2064.01" cy="1423.18" r="2"/>
<circle clip-path="url(#clip721)" style="fill:#009af9; stroke:none; fill-opacity:0" cx="2090.38" cy="1423.18" r="2"/>
<circle clip-path="url(#clip721)" style="fill:#009af9; stroke:none; fill-opacity:0" cx="2116.75" cy="1423.18" r="2"/>
<circle clip-path="url(#clip721)" style="fill:#009af9; stroke:none; fill-opacity:0" cx="2143.12" cy="1423.18" r="2"/>
<circle clip-path="url(#clip721)" style="fill:#009af9; stroke:none; fill-opacity:0" cx="2169.49" cy="1423.18" r="2"/>
<circle clip-path="url(#clip721)" style="fill:#009af9; stroke:none; fill-opacity:0" cx="2195.86" cy="1423.18" r="2"/>
<circle clip-path="url(#clip721)" style="fill:#009af9; stroke:none; fill-opacity:0" cx="2222.23" cy="1422.78" r="2"/>
<polyline clip-path="url(#clip721)" style="stroke:#e26f46; stroke-linecap:round; stroke-linejoin:round; stroke-width:16; stroke-opacity:1; fill:none" points="349.905,473.955 368.796,856.664 387.687,1004.82 406.578,1090.54 425.469,1148.46 444.36,1190.97 463.251,1223.81 482.142,1250.07 501.033,1271.58 519.924,1289.54 538.815,1304.73 557.706,1317.74 576.597,1328.97 595.488,1338.75 614.379,1347.3 633.27,1354.84 652.161,1361.49 671.052,1367.41 689.943,1372.67 708.834,1377.37 727.724,1381.58 746.615,1385.36 765.506,1388.76 784.397,1391.82 803.288,1394.58 822.179,1397.08 841.07,1399.35 859.961,1401.4 878.852,1403.26 897.743,1404.95 916.634,1406.49 935.525,1407.89 954.416,1409.17 973.307,1410.33 992.198,1411.39 1011.09,1412.36 1029.98,1413.25 1048.87,1414.06 1067.76,1414.8 1086.65,1415.48 1105.54,1416.1 1124.43,1416.67 1143.33,1417.19 1162.22,1417.67 1181.11,1418.11 1200,1418.51 1218.89,1418.88 1237.78,1419.22 1256.67,1419.53 1275.56,1419.82 1294.45,1420.08 1313.34,1420.32 1332.24,1420.55 1351.13,1420.75 1370.02,1420.94 1388.91,1421.11 1407.8,1421.27 1426.69,1421.42 1445.58,1421.56 1464.47,1421.68 1483.36,1421.8 1502.25,1421.9 1521.15,1422 1540.04,1422.09 1558.93,1422.17 1577.82,1422.25 1596.71,1422.32 1615.6,1422.39 1634.49,1422.45 1653.38,1422.5 1672.27,1422.55 1691.16,1422.6 1710.06,1422.64 1728.95,1422.69 1747.84,1422.72 1766.73,1422.76 1785.62,1422.79 1804.51,1422.82 1823.4,1422.85 1842.29,1422.87 1861.18,1422.89 1880.07,1422.91 1898.96,1422.93 1917.86,1422.95 1936.75,1422.97 1955.64,1422.99 1974.53,1423 1993.42,1423.01 2012.31,1423.03 2031.2,1423.04 2050.09,1423.05 2068.98,1423.06 2087.87,1423.07 2106.77,1423.08 2125.66,1423.08 2144.55,1423.09 2163.44,1423.1 2182.33,1423.1 2201.22,1423.11 2220.11,1423.11 "/>
<path clip-path="url(#clip720)" d="M2015.88 248.629 L2281.64 248.629 L2281.64 93.1086 L2015.88 93.1086  Z" fill="#ffffff" fill-rule="evenodd" fill-opacity="1"/>
<polyline clip-path="url(#clip720)" style="stroke:#000000; stroke-linecap:round; stroke-linejoin:round; stroke-width:4; stroke-opacity:1; fill:none" points="2015.88,248.629 2281.64,248.629 2281.64,93.1086 2015.88,93.1086 2015.88,248.629 "/>
<path clip-path="url(#clip720)" d="M2039.58 165.685 L2181.8 165.685 L2181.8 124.213 L2039.58 124.213 L2039.58 165.685  Z" fill="#009af9" fill-rule="evenodd" fill-opacity="1"/>
<polyline clip-path="url(#clip720)" style="stroke:#000000; stroke-linecap:round; stroke-linejoin:round; stroke-width:4; stroke-opacity:1; fill:none" points="2039.58,165.685 2181.8,165.685 2181.8,124.213 2039.58,124.213 2039.58,165.685 "/>
<path clip-path="url(#clip720)" d="M2219.35 164.636 Q2217.55 169.266 2215.83 170.678 Q2214.12 172.09 2211.25 172.09 L2207.85 172.09 L2207.85 168.525 L2210.35 168.525 Q2212.11 168.525 2213.08 167.692 Q2214.05 166.858 2215.23 163.756 L2215.99 161.812 L2205.51 136.303 L2210.02 136.303 L2218.12 156.581 L2226.23 136.303 L2230.74 136.303 L2219.35 164.636 Z" fill="#000000" fill-rule="nonzero" fill-opacity="1" /><path clip-path="url(#clip720)" d="M2238.03 158.293 L2245.67 158.293 L2245.67 131.928 L2237.36 133.595 L2237.36 129.335 L2245.62 127.669 L2250.3 127.669 L2250.3 158.293 L2257.94 158.293 L2257.94 162.229 L2238.03 162.229 L2238.03 158.293 Z" fill="#000000" fill-rule="nonzero" fill-opacity="1" /><polyline clip-path="url(#clip720)" style="stroke:#e26f46; stroke-linecap:round; stroke-linejoin:round; stroke-width:16; stroke-opacity:1; fill:none" points="2039.58,196.789 2181.8,196.789 "/>
<path clip-path="url(#clip720)" d="M2219.35 216.476 Q2217.55 221.106 2215.83 222.518 Q2214.12 223.93 2211.25 223.93 L2207.85 223.93 L2207.85 220.365 L2210.35 220.365 Q2212.11 220.365 2213.08 219.532 Q2214.05 218.698 2215.23 215.596 L2215.99 213.652 L2205.51 188.143 L2210.02 188.143 L2218.12 208.421 L2226.23 188.143 L2230.74 188.143 L2219.35 216.476 Z" fill="#000000" fill-rule="nonzero" fill-opacity="1" /><path clip-path="url(#clip720)" d="M2241.25 210.133 L2257.57 210.133 L2257.57 214.069 L2235.62 214.069 L2235.62 210.133 Q2238.29 207.379 2242.87 202.749 Q2247.48 198.096 2248.66 196.754 Q2250.9 194.231 2251.78 192.495 Q2252.68 190.735 2252.68 189.046 Q2252.68 186.291 2250.74 184.555 Q2248.82 182.819 2245.72 182.819 Q2243.52 182.819 2241.06 183.583 Q2238.63 184.347 2235.86 185.897 L2235.86 181.175 Q2238.68 180.041 2241.13 179.462 Q2243.59 178.884 2245.62 178.884 Q2250.99 178.884 2254.19 181.569 Q2257.38 184.254 2257.38 188.745 Q2257.38 190.874 2256.57 192.796 Q2255.79 194.694 2253.68 197.286 Q2253.1 197.958 2250 201.175 Q2246.9 204.37 2241.25 210.133 Z" fill="#000000" fill-rule="nonzero" fill-opacity="1" /></svg>
