<?xml version="1.0" encoding="utf-8"?>
<svg xmlns="http://www.w3.org/2000/svg" xmlns:xlink="http://www.w3.org/1999/xlink" width="600" height="400" viewBox="0 0 2400 1600">
<defs>
  <clipPath id="clip230">
    <rect x="0" y="0" width="2400" height="1600"/>
  </clipPath>
</defs>
<path clip-path="url(#clip230)" d="M0 1600 L2400 1600 L2400 0 L0 0  Z" fill="#ffffff" fill-rule="evenodd" fill-opacity="1"/>
<defs>
  <clipPath id="clip231">
    <rect x="219" y="47" width="2134" height="1377"/>
  </clipPath>
</defs>
<path clip-path="url(#clip230)" d="M219.38 1423.18 L2352.76 1423.18 L2352.76 47.2441 L219.38 47.2441  Z" fill="#ffffff" fill-rule="evenodd" fill-opacity="1"/>
<polyline clip-path="url(#clip231)" style="stroke:#000000; stroke-linecap:round; stroke-linejoin:round; stroke-width:2; stroke-opacity:0.1; fill:none" points="336.72,1423.18 336.72,47.2441 "/>
<polyline clip-path="url(#clip231)" style="stroke:#000000; stroke-linecap:round; stroke-linejoin:round; stroke-width:2; stroke-opacity:0.1; fill:none" points="858.34,1423.18 858.34,47.2441 "/>
<polyline clip-path="url(#clip231)" style="stroke:#000000; stroke-linecap:round; stroke-linejoin:round; stroke-width:2; stroke-opacity:0.1; fill:none" points="1379.96,1423.18 1379.96,47.2441 "/>
<polyline clip-path="url(#clip231)" style="stroke:#000000; stroke-linecap:round; stroke-linejoin:round; stroke-width:2; stroke-opacity:0.1; fill:none" points="1901.58,1423.18 1901.58,47.2441 "/>
<polyline clip-path="url(#clip231)" style="stroke:#000000; stroke-linecap:round; stroke-linejoin:round; stroke-width:2; stroke-opacity:0.1; fill:none" points="219.38,1423.18 2352.76,1423.18 "/>
<polyline clip-path="url(#clip231)" style="stroke:#000000; stroke-linecap:round; stroke-linejoin:round; stroke-width:2; stroke-opacity:0.1; fill:none" points="219.38,1027.11 2352.76,1027.11 "/>
<polyline clip-path="url(#clip231)" style="stroke:#000000; stroke-linecap:round; stroke-linejoin:round; stroke-width:2; stroke-opacity:0.1; fill:none" points="219.38,631.046 2352.76,631.046 "/>
<polyline clip-path="url(#clip231)" style="stroke:#000000; stroke-linecap:round; stroke-linejoin:round; stroke-width:2; stroke-opacity:0.1; fill:none" points="219.38,234.98 2352.76,234.98 "/>
<polyline clip-path="url(#clip230)" style="stroke:#000000; stroke-linecap:round; stroke-linejoin:round; stroke-width:4; stroke-opacity:1; fill:none" points="219.38,1423.18 2352.76,1423.18 "/>
<polyline clip-path="url(#clip230)" style="stroke:#000000; stroke-linecap:round; stroke-linejoin:round; stroke-width:4; stroke-opacity:1; fill:none" points="336.72,1423.18 336.72,1404.28 "/>
<polyline clip-path="url(#clip230)" style="stroke:#000000; stroke-linecap:round; stroke-linejoin:round; stroke-width:4; stroke-opacity:1; fill:none" points="858.34,1423.18 858.34,1404.28 "/>
<polyline clip-path="url(#clip230)" style="stroke:#000000; stroke-linecap:round; stroke-linejoin:round; stroke-width:4; stroke-opacity:1; fill:none" points="1379.96,1423.18 1379.96,1404.28 "/>
<polyline clip-path="url(#clip230)" style="stroke:#000000; stroke-linecap:round; stroke-linejoin:round; stroke-width:4; stroke-opacity:1; fill:none" points="1901.58,1423.18 1901.58,1404.28 "/>
<path clip-path="url(#clip230)" d="M336.72 1454.1 Q333.109 1454.1 331.28 1457.66 Q329.474 1461.2 329.474 1468.33 Q329.474 1475.44 331.28 1479.01 Q333.109 1482.55 336.72 1482.55 Q340.354 1482.55 342.159 1479.01 Q343.988 1475.44 343.988 1468.33 Q343.988 1461.2 342.159 1457.66 Q340.354 1454.1 336.72 1454.1 M336.72 1450.39 Q342.53 1450.39 345.585 1455 Q348.664 1459.58 348.664 1468.33 Q348.664 1477.06 345.585 1481.67 Q342.53 1486.25 336.72 1486.25 Q330.909 1486.25 327.831 1481.67 Q324.775 1477.06 324.775 1468.33 Q324.775 1459.58 327.831 1455 Q330.909 1450.39 336.72 1450.39 Z" fill="#000000" fill-rule="nonzero" fill-opacity="1" /><path clip-path="url(#clip230)" d="M848.617 1451.02 L866.974 1451.02 L866.974 1454.96 L852.9 1454.96 L852.9 1463.43 Q853.918 1463.08 854.937 1462.92 Q855.955 1462.73 856.974 1462.73 Q862.761 1462.73 866.141 1465.9 Q869.52 1469.08 869.52 1474.49 Q869.52 1480.07 866.048 1483.17 Q862.576 1486.25 856.256 1486.25 Q854.08 1486.25 851.812 1485.88 Q849.567 1485.51 847.159 1484.77 L847.159 1480.07 Q849.242 1481.2 851.465 1481.76 Q853.687 1482.32 856.164 1482.32 Q860.168 1482.32 862.506 1480.21 Q864.844 1478.1 864.844 1474.49 Q864.844 1470.88 862.506 1468.77 Q860.168 1466.67 856.164 1466.67 Q854.289 1466.67 852.414 1467.08 Q850.562 1467.5 848.617 1468.38 L848.617 1451.02 Z" fill="#000000" fill-rule="nonzero" fill-opacity="1" /><path clip-path="url(#clip230)" d="M1354.65 1481.64 L1362.29 1481.64 L1362.29 1455.28 L1353.98 1456.95 L1353.98 1452.69 L1362.24 1451.02 L1366.92 1451.02 L1366.92 1481.64 L1374.55 1481.64 L1374.55 1485.58 L1354.65 1485.58 L1354.65 1481.64 Z" fill="#000000" fill-rule="nonzero" fill-opacity="1" /><path clip-path="url(#clip230)" d="M1394 1454.1 Q1390.39 1454.1 1388.56 1457.66 Q1386.75 1461.2 1386.75 1468.33 Q1386.75 1475.44 1388.56 1479.01 Q1390.39 1482.55 1394 1482.55 Q1397.63 1482.55 1399.44 1479.01 Q1401.27 1475.44 1401.27 1468.33 Q1401.27 1461.2 1399.44 1457.66 Q1397.63 1454.1 1394 1454.1 M1394 1450.39 Q1399.81 1450.39 1402.86 1455 Q1405.94 1459.58 1405.94 1468.33 Q1405.94 1477.06 1402.86 1481.67 Q1399.81 1486.25 1394 1486.25 Q1388.19 1486.25 1385.11 1481.67 Q1382.05 1477.06 1382.05 1468.33 Q1382.05 1459.58 1385.11 1455 Q1388.19 1450.39 1394 1450.39 Z" fill="#000000" fill-rule="nonzero" fill-opacity="1" /><path clip-path="url(#clip230)" d="M1876.76 1481.64 L1884.4 1481.64 L1884.4 1455.28 L1876.09 1456.95 L1876.09 1452.69 L1884.36 1451.02 L1889.03 1451.02 L1889.03 1481.64 L1896.67 1481.64 L1896.67 1485.58 L1876.76 1485.58 L1876.76 1481.64 Z" fill="#000000" fill-rule="nonzero" fill-opacity="1" /><path clip-path="url(#clip230)" d="M1906.16 1451.02 L1924.52 1451.02 L1924.52 1454.96 L1910.45 1454.96 L1910.45 1463.43 Q1911.46 1463.08 1912.48 1462.92 Q1913.5 1462.73 1914.52 1462.73 Q1920.31 1462.73 1923.69 1465.9 Q1927.07 1469.08 1927.07 1474.49 Q1927.07 1480.07 1923.59 1483.17 Q1920.12 1486.25 1913.8 1486.25 Q1911.63 1486.25 1909.36 1485.88 Q1907.11 1485.51 1904.7 1484.77 L1904.7 1480.07 Q1906.79 1481.2 1909.01 1481.76 Q1911.23 1482.32 1913.71 1482.32 Q1917.71 1482.32 1920.05 1480.21 Q1922.39 1478.1 1922.39 1474.49 Q1922.39 1470.88 1920.05 1468.77 Q1917.71 1466.67 1913.71 1466.67 Q1911.83 1466.67 1909.96 1467.08 Q1908.11 1467.5 1906.16 1468.38 L1906.16 1451.02 Z" fill="#000000" fill-rule="nonzero" fill-opacity="1" /><path clip-path="url(#clip230)" d="M1285.13 1522.27 L1285.13 1532.4 L1297.19 1532.4 L1297.19 1536.95 L1285.13 1536.95 L1285.13 1556.3 Q1285.13 1560.66 1286.31 1561.9 Q1287.52 1563.14 1291.18 1563.14 L1297.19 1563.14 L1297.19 1568.04 L1291.18 1568.04 Q1284.4 1568.04 1281.82 1565.53 Q1279.24 1562.98 1279.24 1556.3 L1279.24 1536.95 L1274.94 1536.95 L1274.94 1532.4 L1279.24 1532.4 L1279.24 1522.27 L1285.13 1522.27 Z" fill="#000000" fill-rule="nonzero" fill-opacity="1" /><polyline clip-path="url(#clip230)" style="stroke:#000000; stroke-linecap:round; stroke-linejoin:round; stroke-width:4; stroke-opacity:1; fill:none" points="219.38,1423.18 219.38,47.2441 "/>
<polyline clip-path="url(#clip230)" style="stroke:#000000; stroke-linecap:round; stroke-linejoin:round; stroke-width:4; stroke-opacity:1; fill:none" points="219.38,1423.18 238.278,1423.18 "/>
<polyline clip-path="url(#clip230)" style="stroke:#000000; stroke-linecap:round; stroke-linejoin:round; stroke-width:4; stroke-opacity:1; fill:none" points="219.38,1027.11 238.278,1027.11 "/>
<polyline clip-path="url(#clip230)" style="stroke:#000000; stroke-linecap:round; stroke-linejoin:round; stroke-width:4; stroke-opacity:1; fill:none" points="219.38,631.046 238.278,631.046 "/>
<polyline clip-path="url(#clip230)" style="stroke:#000000; stroke-linecap:round; stroke-linejoin:round; stroke-width:4; stroke-opacity:1; fill:none" points="219.38,234.98 238.278,234.98 "/>
<path clip-path="url(#clip230)" d="M126.205 1408.98 Q122.593 1408.98 120.765 1412.54 Q118.959 1416.08 118.959 1423.21 Q118.959 1430.32 120.765 1433.89 Q122.593 1437.43 126.205 1437.43 Q129.839 1437.43 131.644 1433.89 Q133.473 1430.32 133.473 1423.21 Q133.473 1416.08 131.644 1412.54 Q129.839 1408.98 126.205 1408.98 M126.205 1405.27 Q132.015 1405.27 135.07 1409.88 Q138.149 1414.46 138.149 1423.21 Q138.149 1431.94 135.07 1436.55 Q132.015 1441.13 126.205 1441.13 Q120.394 1441.13 117.316 1436.55 Q114.26 1431.94 114.26 1423.21 Q114.26 1414.46 117.316 1409.88 Q120.394 1405.27 126.205 1405.27 Z" fill="#000000" fill-rule="nonzero" fill-opacity="1" /><path clip-path="url(#clip230)" d="M146.366 1434.58 L151.251 1434.58 L151.251 1440.46 L146.366 1440.46 L146.366 1434.58 Z" fill="#000000" fill-rule="nonzero" fill-opacity="1" /><path clip-path="url(#clip230)" d="M171.436 1408.98 Q167.825 1408.98 165.996 1412.54 Q164.19 1416.08 164.19 1423.21 Q164.19 1430.32 165.996 1433.89 Q167.825 1437.43 171.436 1437.43 Q175.07 1437.43 176.876 1433.89 Q178.704 1430.32 178.704 1423.21 Q178.704 1416.08 176.876 1412.54 Q175.07 1408.98 171.436 1408.98 M171.436 1405.27 Q177.246 1405.27 180.301 1409.88 Q183.38 1414.46 183.38 1423.21 Q183.38 1431.94 180.301 1436.55 Q177.246 1441.13 171.436 1441.13 Q165.626 1441.13 162.547 1436.55 Q159.491 1431.94 159.491 1423.21 Q159.491 1414.46 162.547 1409.88 Q165.626 1405.27 171.436 1405.27 Z" fill="#000000" fill-rule="nonzero" fill-opacity="1" /><path clip-path="url(#clip230)" d="M127.2 1012.91 Q123.589 1012.91 121.76 1016.48 Q119.955 1020.02 119.955 1027.15 Q119.955 1034.25 121.76 1037.82 Q123.589 1041.36 127.2 1041.36 Q130.834 1041.36 132.64 1037.82 Q134.468 1034.25 134.468 1027.15 Q134.468 1020.02 132.64 1016.48 Q130.834 1012.91 127.2 1012.91 M127.2 1009.21 Q133.01 1009.21 136.066 1013.81 Q139.144 1018.4 139.144 1027.15 Q139.144 1035.87 136.066 1040.48 Q133.01 1045.06 127.2 1045.06 Q121.39 1045.06 118.311 1040.48 Q115.256 1035.87 115.256 1027.15 Q115.256 1018.4 118.311 1013.81 Q121.39 1009.21 127.2 1009.21 Z" fill="#000000" fill-rule="nonzero" fill-opacity="1" /><path clip-path="url(#clip230)" d="M147.362 1038.51 L152.246 1038.51 L152.246 1044.39 L147.362 1044.39 L147.362 1038.51 Z" fill="#000000" fill-rule="nonzero" fill-opacity="1" /><path clip-path="url(#clip230)" d="M162.477 1009.83 L180.834 1009.83 L180.834 1013.77 L166.76 1013.77 L166.76 1022.24 Q167.778 1021.89 168.797 1021.73 Q169.815 1021.55 170.834 1021.55 Q176.621 1021.55 180.001 1024.72 Q183.38 1027.89 183.38 1033.31 Q183.38 1038.88 179.908 1041.99 Q176.436 1045.06 170.116 1045.06 Q167.94 1045.06 165.672 1044.69 Q163.427 1044.32 161.019 1043.58 L161.019 1038.88 Q163.102 1040.02 165.325 1040.57 Q167.547 1041.13 170.024 1041.13 Q174.028 1041.13 176.366 1039.02 Q178.704 1036.92 178.704 1033.31 Q178.704 1029.69 176.366 1027.59 Q174.028 1025.48 170.024 1025.48 Q168.149 1025.48 166.274 1025.9 Q164.422 1026.31 162.477 1027.19 L162.477 1009.83 Z" fill="#000000" fill-rule="nonzero" fill-opacity="1" /><path clip-path="url(#clip230)" d="M117.015 644.391 L124.654 644.391 L124.654 618.026 L116.343 619.692 L116.343 615.433 L124.607 613.766 L129.283 613.766 L129.283 644.391 L136.922 644.391 L136.922 648.326 L117.015 648.326 L117.015 644.391 Z" fill="#000000" fill-rule="nonzero" fill-opacity="1" /><path clip-path="url(#clip230)" d="M146.366 642.447 L151.251 642.447 L151.251 648.326 L146.366 648.326 L146.366 642.447 Z" fill="#000000" fill-rule="nonzero" fill-opacity="1" /><path clip-path="url(#clip230)" d="M171.436 616.845 Q167.825 616.845 165.996 620.41 Q164.19 623.952 164.19 631.081 Q164.19 638.188 165.996 641.752 Q167.825 645.294 171.436 645.294 Q175.07 645.294 176.876 641.752 Q178.704 638.188 178.704 631.081 Q178.704 623.952 176.876 620.41 Q175.07 616.845 171.436 616.845 M171.436 613.141 Q177.246 613.141 180.301 617.748 Q183.38 622.331 183.38 631.081 Q183.38 639.808 180.301 644.414 Q177.246 648.998 171.436 648.998 Q165.626 648.998 162.547 644.414 Q159.491 639.808 159.491 631.081 Q159.491 622.331 162.547 617.748 Q165.626 613.141 171.436 613.141 Z" fill="#000000" fill-rule="nonzero" fill-opacity="1" /><path clip-path="url(#clip230)" d="M118.01 248.325 L125.649 248.325 L125.649 221.959 L117.339 223.626 L117.339 219.366 L125.603 217.7 L130.279 217.7 L130.279 248.325 L137.917 248.325 L137.917 252.26 L118.01 252.26 L118.01 248.325 Z" fill="#000000" fill-rule="nonzero" fill-opacity="1" /><path clip-path="url(#clip230)" d="M147.362 246.38 L152.246 246.38 L152.246 252.26 L147.362 252.26 L147.362 246.38 Z" fill="#000000" fill-rule="nonzero" fill-opacity="1" /><path clip-path="url(#clip230)" d="M162.477 217.7 L180.834 217.7 L180.834 221.635 L166.76 221.635 L166.76 230.107 Q167.778 229.76 168.797 229.598 Q169.815 229.413 170.834 229.413 Q176.621 229.413 180.001 232.584 Q183.38 235.755 183.38 241.172 Q183.38 246.75 179.908 249.852 Q176.436 252.931 170.116 252.931 Q167.94 252.931 165.672 252.561 Q163.427 252.19 161.019 251.45 L161.019 246.75 Q163.102 247.885 165.325 248.44 Q167.547 248.996 170.024 248.996 Q174.028 248.996 176.366 246.889 Q178.704 244.783 178.704 241.172 Q178.704 237.561 176.366 235.454 Q174.028 233.348 170.024 233.348 Q168.149 233.348 166.274 233.764 Q164.422 234.181 162.477 235.061 L162.477 217.7 Z" fill="#000000" fill-rule="nonzero" fill-opacity="1" /><path clip-path="url(#clip230)" d="M33.8307 800.206 Q33.2578 801.193 33.0032 802.37 Q32.7167 803.516 32.7167 804.916 Q32.7167 809.882 35.9632 812.555 Q39.1779 815.197 45.2253 815.197 L64.0042 815.197 L64.0042 821.085 L28.3562 821.085 L28.3562 815.197 L33.8944 815.197 Q30.6479 813.351 29.0883 810.391 Q27.4968 807.431 27.4968 803.198 Q27.4968 802.593 27.5923 801.861 Q27.656 801.129 27.8151 800.238 L33.8307 800.206 Z" fill="#000000" fill-rule="nonzero" fill-opacity="1" /><path clip-path="url(#clip230)" d="M42.4881 765.576 L64.0042 765.576 L64.0042 771.433 L42.679 771.433 Q37.6183 771.433 35.1038 773.406 Q32.5894 775.38 32.5894 779.326 Q32.5894 784.069 35.6131 786.806 Q38.6368 789.543 43.8567 789.543 L64.0042 789.543 L64.0042 795.432 L14.479 795.432 L14.479 789.543 L33.8944 789.543 Q30.6797 787.443 29.0883 784.61 Q27.4968 781.745 27.4968 778.021 Q27.4968 771.878 31.3163 768.727 Q35.1038 765.576 42.4881 765.576 Z" fill="#000000" fill-rule="nonzero" fill-opacity="1" /><path clip-path="url(#clip230)" d="M32.4621 740.082 Q32.4621 744.792 36.1542 747.53 Q39.8145 750.267 46.212 750.267 Q52.6095 750.267 56.3017 747.561 Q59.9619 744.824 59.9619 740.082 Q59.9619 735.403 56.2698 732.666 Q52.5777 729.928 46.212 729.928 Q39.8781 729.928 36.186 732.666 Q32.4621 735.403 32.4621 740.082 M27.4968 740.082 Q27.4968 732.443 32.4621 728.082 Q37.4273 723.722 46.212 723.722 Q54.9649 723.722 59.9619 728.082 Q64.9272 732.443 64.9272 740.082 Q64.9272 747.752 59.9619 752.113 Q54.9649 756.442 46.212 756.442 Q37.4273 756.442 32.4621 752.113 Q27.4968 747.752 27.4968 740.082 Z" fill="#000000" fill-rule="nonzero" fill-opacity="1" /><path clip-path="url(#clip230)" d="M14.5426 699.946 Q21.8632 704.211 29.0246 706.28 Q36.186 708.349 43.5384 708.349 Q50.8908 708.349 58.1159 706.28 Q65.3091 704.179 72.5979 699.946 L72.5979 705.039 Q65.1182 709.813 57.8931 712.2 Q50.668 714.555 43.5384 714.555 Q36.4406 714.555 29.2474 712.2 Q22.0542 709.845 14.5426 705.039 L14.5426 699.946 Z" fill="#000000" fill-rule="nonzero" fill-opacity="1" /><path clip-path="url(#clip230)" d="M18.2347 682.79 L28.3562 682.79 L28.3562 670.727 L32.9077 670.727 L32.9077 682.79 L52.2594 682.79 Q56.6199 682.79 57.8613 681.613 Q59.1026 680.403 59.1026 676.743 L59.1026 670.727 L64.0042 670.727 L64.0042 676.743 Q64.0042 683.522 61.4897 686.101 Q58.9434 688.679 52.2594 688.679 L32.9077 688.679 L32.9077 692.976 L28.3562 692.976 L28.3562 688.679 L18.2347 688.679 L18.2347 682.79 Z" fill="#000000" fill-rule="nonzero" fill-opacity="1" /><path clip-path="url(#clip230)" d="M14.5426 663.948 L14.5426 658.855 Q22.0542 654.081 29.2474 651.726 Q36.4406 649.339 43.5384 649.339 Q50.668 649.339 57.8931 651.726 Q65.1182 654.081 72.5979 658.855 L72.5979 663.948 Q65.3091 659.715 58.1159 657.646 Q50.8908 655.545 43.5384 655.545 Q36.186 655.545 29.0246 657.646 Q21.8632 659.715 14.5426 663.948 Z" fill="#000000" fill-rule="nonzero" fill-opacity="1" /><path clip-path="url(#clip231)" d="M336.72 47.2441 L336.72 1423.18 L357.584 1423.18 L357.584 47.2441 L336.72 47.2441 L336.72 47.2441  Z" fill="#009af9" fill-rule="evenodd" fill-opacity="1"/>
<polyline clip-path="url(#clip231)" style="stroke:#000000; stroke-linecap:round; stroke-linejoin:round; stroke-width:4; stroke-opacity:1; fill:none" points="336.72,47.2441 336.72,1423.18 357.584,1423.18 357.584,47.2441 336.72,47.2441 "/>
<path clip-path="url(#clip231)" d="M357.584 920.571 L357.584 1423.18 L378.449 1423.18 L378.449 920.571 L357.584 920.571 L357.584 920.571  Z" fill="#009af9" fill-rule="evenodd" fill-opacity="1"/>
<polyline clip-path="url(#clip231)" style="stroke:#000000; stroke-linecap:round; stroke-linejoin:round; stroke-width:4; stroke-opacity:1; fill:none" points="357.584,920.571 357.584,1423.18 378.449,1423.18 378.449,920.571 357.584,920.571 "/>
<path clip-path="url(#clip231)" d="M378.449 1069.49 L378.449 1423.18 L399.314 1423.18 L399.314 1069.49 L378.449 1069.49 L378.449 1069.49  Z" fill="#009af9" fill-rule="evenodd" fill-opacity="1"/>
<polyline clip-path="url(#clip231)" style="stroke:#000000; stroke-linecap:round; stroke-linejoin:round; stroke-width:4; stroke-opacity:1; fill:none" points="378.449,1069.49 378.449,1423.18 399.314,1423.18 399.314,1069.49 378.449,1069.49 "/>
<path clip-path="url(#clip231)" d="M399.314 1166.92 L399.314 1423.18 L420.179 1423.18 L420.179 1166.92 L399.314 1166.92 L399.314 1166.92  Z" fill="#009af9" fill-rule="evenodd" fill-opacity="1"/>
<polyline clip-path="url(#clip231)" style="stroke:#000000; stroke-linecap:round; stroke-linejoin:round; stroke-width:4; stroke-opacity:1; fill:none" points="399.314,1166.92 399.314,1423.18 420.179,1423.18 420.179,1166.92 399.314,1166.92 "/>
<path clip-path="url(#clip231)" d="M420.179 1211.68 L420.179 1423.18 L441.044 1423.18 L441.044 1211.68 L420.179 1211.68 L420.179 1211.68  Z" fill="#009af9" fill-rule="evenodd" fill-opacity="1"/>
<polyline clip-path="url(#clip231)" style="stroke:#000000; stroke-linecap:round; stroke-linejoin:round; stroke-width:4; stroke-opacity:1; fill:none" points="420.179,1211.68 420.179,1423.18 441.044,1423.18 441.044,1211.68 420.179,1211.68 "/>
<path clip-path="url(#clip231)" d="M441.044 1250.1 L441.044 1423.18 L461.908 1423.18 L461.908 1250.1 L441.044 1250.1 L441.044 1250.1  Z" fill="#009af9" fill-rule="evenodd" fill-opacity="1"/>
<polyline clip-path="url(#clip231)" style="stroke:#000000; stroke-linecap:round; stroke-linejoin:round; stroke-width:4; stroke-opacity:1; fill:none" points="441.044,1250.1 441.044,1423.18 461.908,1423.18 461.908,1250.1 441.044,1250.1 "/>
<path clip-path="url(#clip231)" d="M461.908 1279.01 L461.908 1423.18 L482.773 1423.18 L482.773 1279.01 L461.908 1279.01 L461.908 1279.01  Z" fill="#009af9" fill-rule="evenodd" fill-opacity="1"/>
<polyline clip-path="url(#clip231)" style="stroke:#000000; stroke-linecap:round; stroke-linejoin:round; stroke-width:4; stroke-opacity:1; fill:none" points="461.908,1279.01 461.908,1423.18 482.773,1423.18 482.773,1279.01 461.908,1279.01 "/>
<path clip-path="url(#clip231)" d="M482.773 1299.61 L482.773 1423.18 L503.638 1423.18 L503.638 1299.61 L482.773 1299.61 L482.773 1299.61  Z" fill="#009af9" fill-rule="evenodd" fill-opacity="1"/>
<polyline clip-path="url(#clip231)" style="stroke:#000000; stroke-linecap:round; stroke-linejoin:round; stroke-width:4; stroke-opacity:1; fill:none" points="482.773,1299.61 482.773,1423.18 503.638,1423.18 503.638,1299.61 482.773,1299.61 "/>
<path clip-path="url(#clip231)" d="M503.638 1323.37 L503.638 1423.18 L524.503 1423.18 L524.503 1323.37 L503.638 1323.37 L503.638 1323.37  Z" fill="#009af9" fill-rule="evenodd" fill-opacity="1"/>
<polyline clip-path="url(#clip231)" style="stroke:#000000; stroke-linecap:round; stroke-linejoin:round; stroke-width:4; stroke-opacity:1; fill:none" points="503.638,1323.37 503.638,1423.18 524.503,1423.18 524.503,1323.37 503.638,1323.37 "/>
<path clip-path="url(#clip231)" d="M524.503 1339.61 L524.503 1423.18 L545.368 1423.18 L545.368 1339.61 L524.503 1339.61 L524.503 1339.61  Z" fill="#009af9" fill-rule="evenodd" fill-opacity="1"/>
<polyline clip-path="url(#clip231)" style="stroke:#000000; stroke-linecap:round; stroke-linejoin:round; stroke-width:4; stroke-opacity:1; fill:none" points="524.503,1339.61 524.503,1423.18 545.368,1423.18 545.368,1339.61 524.503,1339.61 "/>
<path clip-path="url(#clip231)" d="M545.368 1343.17 L545.368 1423.18 L566.232 1423.18 L566.232 1343.17 L545.368 1343.17 L545.368 1343.17  Z" fill="#009af9" fill-rule="evenodd" fill-opacity="1"/>
<polyline clip-path="url(#clip231)" style="stroke:#000000; stroke-linecap:round; stroke-linejoin:round; stroke-width:4; stroke-opacity:1; fill:none" points="545.368,1343.17 545.368,1423.18 566.232,1423.18 566.232,1343.17 545.368,1343.17 "/>
<path clip-path="url(#clip231)" d="M566.232 1361.79 L566.232 1423.18 L587.097 1423.18 L587.097 1361.79 L566.232 1361.79 L566.232 1361.79  Z" fill="#009af9" fill-rule="evenodd" fill-opacity="1"/>
<polyline clip-path="url(#clip231)" style="stroke:#000000; stroke-linecap:round; stroke-linejoin:round; stroke-width:4; stroke-opacity:1; fill:none" points="566.232,1361.79 566.232,1423.18 587.097,1423.18 587.097,1361.79 566.232,1361.79 "/>
<path clip-path="url(#clip231)" d="M587.097 1371.3 L587.097 1423.18 L607.962 1423.18 L607.962 1371.3 L587.097 1371.3 L587.097 1371.3  Z" fill="#009af9" fill-rule="evenodd" fill-opacity="1"/>
<polyline clip-path="url(#clip231)" style="stroke:#000000; stroke-linecap:round; stroke-linejoin:round; stroke-width:4; stroke-opacity:1; fill:none" points="587.097,1371.3 587.097,1423.18 607.962,1423.18 607.962,1371.3 587.097,1371.3 "/>
<path clip-path="url(#clip231)" d="M607.962 1369.31 L607.962 1423.18 L628.827 1423.18 L628.827 1369.31 L607.962 1369.31 L607.962 1369.31  Z" fill="#009af9" fill-rule="evenodd" fill-opacity="1"/>
<polyline clip-path="url(#clip231)" style="stroke:#000000; stroke-linecap:round; stroke-linejoin:round; stroke-width:4; stroke-opacity:1; fill:none" points="607.962,1369.31 607.962,1423.18 628.827,1423.18 628.827,1369.31 607.962,1369.31 "/>
<path clip-path="url(#clip231)" d="M628.827 1374.46 L628.827 1423.18 L649.692 1423.18 L649.692 1374.46 L628.827 1374.46 L628.827 1374.46  Z" fill="#009af9" fill-rule="evenodd" fill-opacity="1"/>
<polyline clip-path="url(#clip231)" style="stroke:#000000; stroke-linecap:round; stroke-linejoin:round; stroke-width:4; stroke-opacity:1; fill:none" points="628.827,1374.46 628.827,1423.18 649.692,1423.18 649.692,1374.46 628.827,1374.46 "/>
<path clip-path="url(#clip231)" d="M649.692 1387.14 L649.692 1423.18 L670.556 1423.18 L670.556 1387.14 L649.692 1387.14 L649.692 1387.14  Z" fill="#009af9" fill-rule="evenodd" fill-opacity="1"/>
<polyline clip-path="url(#clip231)" style="stroke:#000000; stroke-linecap:round; stroke-linejoin:round; stroke-width:4; stroke-opacity:1; fill:none" points="649.692,1387.14 649.692,1423.18 670.556,1423.18 670.556,1387.14 649.692,1387.14 "/>
<path clip-path="url(#clip231)" d="M670.556 1393.87 L670.556 1423.18 L691.421 1423.18 L691.421 1393.87 L670.556 1393.87 L670.556 1393.87  Z" fill="#009af9" fill-rule="evenodd" fill-opacity="1"/>
<polyline clip-path="url(#clip231)" style="stroke:#000000; stroke-linecap:round; stroke-linejoin:round; stroke-width:4; stroke-opacity:1; fill:none" points="670.556,1393.87 670.556,1423.18 691.421,1423.18 691.421,1393.87 670.556,1393.87 "/>
<path clip-path="url(#clip231)" d="M691.421 1394.27 L691.421 1423.18 L712.286 1423.18 L712.286 1394.27 L691.421 1394.27 L691.421 1394.27  Z" fill="#009af9" fill-rule="evenodd" fill-opacity="1"/>
<polyline clip-path="url(#clip231)" style="stroke:#000000; stroke-linecap:round; stroke-linejoin:round; stroke-width:4; stroke-opacity:1; fill:none" points="691.421,1394.27 691.421,1423.18 712.286,1423.18 712.286,1394.27 691.421,1394.27 "/>
<path clip-path="url(#clip231)" d="M712.286 1395.46 L712.286 1423.18 L733.151 1423.18 L733.151 1395.46 L712.286 1395.46 L712.286 1395.46  Z" fill="#009af9" fill-rule="evenodd" fill-opacity="1"/>
<polyline clip-path="url(#clip231)" style="stroke:#000000; stroke-linecap:round; stroke-linejoin:round; stroke-width:4; stroke-opacity:1; fill:none" points="712.286,1395.46 712.286,1423.18 733.151,1423.18 733.151,1395.46 712.286,1395.46 "/>
<path clip-path="url(#clip231)" d="M733.151 1394.66 L733.151 1423.18 L754.016 1423.18 L754.016 1394.66 L733.151 1394.66 L733.151 1394.66  Z" fill="#009af9" fill-rule="evenodd" fill-opacity="1"/>
<polyline clip-path="url(#clip231)" style="stroke:#000000; stroke-linecap:round; stroke-linejoin:round; stroke-width:4; stroke-opacity:1; fill:none" points="733.151,1394.66 733.151,1423.18 754.016,1423.18 754.016,1394.66 733.151,1394.66 "/>
<path clip-path="url(#clip231)" d="M754.016 1397.44 L754.016 1423.18 L774.88 1423.18 L774.88 1397.44 L754.016 1397.44 L754.016 1397.44  Z" fill="#009af9" fill-rule="evenodd" fill-opacity="1"/>
<polyline clip-path="url(#clip231)" style="stroke:#000000; stroke-linecap:round; stroke-linejoin:round; stroke-width:4; stroke-opacity:1; fill:none" points="754.016,1397.44 754.016,1423.18 774.88,1423.18 774.88,1397.44 754.016,1397.44 "/>
<path clip-path="url(#clip231)" d="M774.88 1403.38 L774.88 1423.18 L795.745 1423.18 L795.745 1403.38 L774.88 1403.38 L774.88 1403.38  Z" fill="#009af9" fill-rule="evenodd" fill-opacity="1"/>
<polyline clip-path="url(#clip231)" style="stroke:#000000; stroke-linecap:round; stroke-linejoin:round; stroke-width:4; stroke-opacity:1; fill:none" points="774.88,1403.38 774.88,1423.18 795.745,1423.18 795.745,1403.38 774.88,1403.38 "/>
<path clip-path="url(#clip231)" d="M795.745 1402.98 L795.745 1423.18 L816.61 1423.18 L816.61 1402.98 L795.745 1402.98 L795.745 1402.98  Z" fill="#009af9" fill-rule="evenodd" fill-opacity="1"/>
<polyline clip-path="url(#clip231)" style="stroke:#000000; stroke-linecap:round; stroke-linejoin:round; stroke-width:4; stroke-opacity:1; fill:none" points="795.745,1402.98 795.745,1423.18 816.61,1423.18 816.61,1402.98 795.745,1402.98 "/>
<path clip-path="url(#clip231)" d="M816.61 1405.75 L816.61 1423.18 L837.475 1423.18 L837.475 1405.75 L816.61 1405.75 L816.61 1405.75  Z" fill="#009af9" fill-rule="evenodd" fill-opacity="1"/>
<polyline clip-path="url(#clip231)" style="stroke:#000000; stroke-linecap:round; stroke-linejoin:round; stroke-width:4; stroke-opacity:1; fill:none" points="816.61,1405.75 816.61,1423.18 837.475,1423.18 837.475,1405.75 816.61,1405.75 "/>
<path clip-path="url(#clip231)" d="M837.475 1413.28 L837.475 1423.18 L858.34 1423.18 L858.34 1413.28 L837.475 1413.28 L837.475 1413.28  Z" fill="#009af9" fill-rule="evenodd" fill-opacity="1"/>
<polyline clip-path="url(#clip231)" style="stroke:#000000; stroke-linecap:round; stroke-linejoin:round; stroke-width:4; stroke-opacity:1; fill:none" points="837.475,1413.28 837.475,1423.18 858.34,1423.18 858.34,1413.28 837.475,1413.28 "/>
<path clip-path="url(#clip231)" d="M858.34 1416.45 L858.34 1423.18 L879.204 1423.18 L879.204 1416.45 L858.34 1416.45 L858.34 1416.45  Z" fill="#009af9" fill-rule="evenodd" fill-opacity="1"/>
<polyline clip-path="url(#clip231)" style="stroke:#000000; stroke-linecap:round; stroke-linejoin:round; stroke-width:4; stroke-opacity:1; fill:none" points="858.34,1416.45 858.34,1423.18 879.204,1423.18 879.204,1416.45 858.34,1416.45 "/>
<path clip-path="url(#clip231)" d="M879.204 1412.88 L879.204 1423.18 L900.069 1423.18 L900.069 1412.88 L879.204 1412.88 L879.204 1412.88  Z" fill="#009af9" fill-rule="evenodd" fill-opacity="1"/>
<polyline clip-path="url(#clip231)" style="stroke:#000000; stroke-linecap:round; stroke-linejoin:round; stroke-width:4; stroke-opacity:1; fill:none" points="879.204,1412.88 879.204,1423.18 900.069,1423.18 900.069,1412.88 879.204,1412.88 "/>
<path clip-path="url(#clip231)" d="M900.069 1416.84 L900.069 1423.18 L920.934 1423.18 L920.934 1416.84 L900.069 1416.84 L900.069 1416.84  Z" fill="#009af9" fill-rule="evenodd" fill-opacity="1"/>
<polyline clip-path="url(#clip231)" style="stroke:#000000; stroke-linecap:round; stroke-linejoin:round; stroke-width:4; stroke-opacity:1; fill:none" points="900.069,1416.84 900.069,1423.18 920.934,1423.18 920.934,1416.84 900.069,1416.84 "/>
<path clip-path="url(#clip231)" d="M920.934 1412.88 L920.934 1423.18 L941.799 1423.18 L941.799 1412.88 L920.934 1412.88 L920.934 1412.88  Z" fill="#009af9" fill-rule="evenodd" fill-opacity="1"/>
<polyline clip-path="url(#clip231)" style="stroke:#000000; stroke-linecap:round; stroke-linejoin:round; stroke-width:4; stroke-opacity:1; fill:none" points="920.934,1412.88 920.934,1423.18 941.799,1423.18 941.799,1412.88 920.934,1412.88 "/>
<path clip-path="url(#clip231)" d="M941.799 1417.24 L941.799 1423.18 L962.664 1423.18 L962.664 1417.24 L941.799 1417.24 L941.799 1417.24  Z" fill="#009af9" fill-rule="evenodd" fill-opacity="1"/>
<polyline clip-path="url(#clip231)" style="stroke:#000000; stroke-linecap:round; stroke-linejoin:round; stroke-width:4; stroke-opacity:1; fill:none" points="941.799,1417.24 941.799,1423.18 962.664,1423.18 962.664,1417.24 941.799,1417.24 "/>
<path clip-path="url(#clip231)" d="M962.664 1418.03 L962.664 1423.18 L983.528 1423.18 L983.528 1418.03 L962.664 1418.03 L962.664 1418.03  Z" fill="#009af9" fill-rule="evenodd" fill-opacity="1"/>
<polyline clip-path="url(#clip231)" style="stroke:#000000; stroke-linecap:round; stroke-linejoin:round; stroke-width:4; stroke-opacity:1; fill:none" points="962.664,1418.03 962.664,1423.18 983.528,1423.18 983.528,1418.03 962.664,1418.03 "/>
<path clip-path="url(#clip231)" d="M983.528 1419.22 L983.528 1423.18 L1004.39 1423.18 L1004.39 1419.22 L983.528 1419.22 L983.528 1419.22  Z" fill="#009af9" fill-rule="evenodd" fill-opacity="1"/>
<polyline clip-path="url(#clip231)" style="stroke:#000000; stroke-linecap:round; stroke-linejoin:round; stroke-width:4; stroke-opacity:1; fill:none" points="983.528,1419.22 983.528,1423.18 1004.39,1423.18 1004.39,1419.22 983.528,1419.22 "/>
<path clip-path="url(#clip231)" d="M1004.39 1417.63 L1004.39 1423.18 L1025.26 1423.18 L1025.26 1417.63 L1004.39 1417.63 L1004.39 1417.63  Z" fill="#009af9" fill-rule="evenodd" fill-opacity="1"/>
<polyline clip-path="url(#clip231)" style="stroke:#000000; stroke-linecap:round; stroke-linejoin:round; stroke-width:4; stroke-opacity:1; fill:none" points="1004.39,1417.63 1004.39,1423.18 1025.26,1423.18 1025.26,1417.63 1004.39,1417.63 "/>
<path clip-path="url(#clip231)" d="M1025.26 1416.45 L1025.26 1423.18 L1046.12 1423.18 L1046.12 1416.45 L1025.26 1416.45 L1025.26 1416.45  Z" fill="#009af9" fill-rule="evenodd" fill-opacity="1"/>
<polyline clip-path="url(#clip231)" style="stroke:#000000; stroke-linecap:round; stroke-linejoin:round; stroke-width:4; stroke-opacity:1; fill:none" points="1025.26,1416.45 1025.26,1423.18 1046.12,1423.18 1046.12,1416.45 1025.26,1416.45 "/>
<path clip-path="url(#clip231)" d="M1046.12 1420.01 L1046.12 1423.18 L1066.99 1423.18 L1066.99 1420.01 L1046.12 1420.01 L1046.12 1420.01  Z" fill="#009af9" fill-rule="evenodd" fill-opacity="1"/>
<polyline clip-path="url(#clip231)" style="stroke:#000000; stroke-linecap:round; stroke-linejoin:round; stroke-width:4; stroke-opacity:1; fill:none" points="1046.12,1420.01 1046.12,1423.18 1066.99,1423.18 1066.99,1420.01 1046.12,1420.01 "/>
<path clip-path="url(#clip231)" d="M1066.99 1420.8 L1066.99 1423.18 L1087.85 1423.18 L1087.85 1420.8 L1066.99 1420.8 L1066.99 1420.8  Z" fill="#009af9" fill-rule="evenodd" fill-opacity="1"/>
<polyline clip-path="url(#clip231)" style="stroke:#000000; stroke-linecap:round; stroke-linejoin:round; stroke-width:4; stroke-opacity:1; fill:none" points="1066.99,1420.8 1066.99,1423.18 1087.85,1423.18 1087.85,1420.8 1066.99,1420.8 "/>
<path clip-path="url(#clip231)" d="M1087.85 1420.8 L1087.85 1423.18 L1108.72 1423.18 L1108.72 1420.8 L1087.85 1420.8 L1087.85 1420.8  Z" fill="#009af9" fill-rule="evenodd" fill-opacity="1"/>
<polyline clip-path="url(#clip231)" style="stroke:#000000; stroke-linecap:round; stroke-linejoin:round; stroke-width:4; stroke-opacity:1; fill:none" points="1087.85,1420.8 1087.85,1423.18 1108.72,1423.18 1108.72,1420.8 1087.85,1420.8 "/>
<path clip-path="url(#clip231)" d="M1108.72 1419.62 L1108.72 1423.18 L1129.58 1423.18 L1129.58 1419.62 L1108.72 1419.62 L1108.72 1419.62  Z" fill="#009af9" fill-rule="evenodd" fill-opacity="1"/>
<polyline clip-path="url(#clip231)" style="stroke:#000000; stroke-linecap:round; stroke-linejoin:round; stroke-width:4; stroke-opacity:1; fill:none" points="1108.72,1419.62 1108.72,1423.18 1129.58,1423.18 1129.58,1419.62 1108.72,1419.62 "/>
<path clip-path="url(#clip231)" d="M1129.58 1420.01 L1129.58 1423.18 L1150.45 1423.18 L1150.45 1420.01 L1129.58 1420.01 L1129.58 1420.01  Z" fill="#009af9" fill-rule="evenodd" fill-opacity="1"/>
<polyline clip-path="url(#clip231)" style="stroke:#000000; stroke-linecap:round; stroke-linejoin:round; stroke-width:4; stroke-opacity:1; fill:none" points="1129.58,1420.01 1129.58,1423.18 1150.45,1423.18 1150.45,1420.01 1129.58,1420.01 "/>
<path clip-path="url(#clip231)" d="M1150.45 1421.2 L1150.45 1423.18 L1171.31 1423.18 L1171.31 1421.2 L1150.45 1421.2 L1150.45 1421.2  Z" fill="#009af9" fill-rule="evenodd" fill-opacity="1"/>
<polyline clip-path="url(#clip231)" style="stroke:#000000; stroke-linecap:round; stroke-linejoin:round; stroke-width:4; stroke-opacity:1; fill:none" points="1150.45,1421.2 1150.45,1423.18 1171.31,1423.18 1171.31,1421.2 1150.45,1421.2 "/>
<path clip-path="url(#clip231)" d="M1171.31 1421.2 L1171.31 1423.18 L1192.18 1423.18 L1192.18 1421.2 L1171.31 1421.2 L1171.31 1421.2  Z" fill="#009af9" fill-rule="evenodd" fill-opacity="1"/>
<polyline clip-path="url(#clip231)" style="stroke:#000000; stroke-linecap:round; stroke-linejoin:round; stroke-width:4; stroke-opacity:1; fill:none" points="1171.31,1421.2 1171.31,1423.18 1192.18,1423.18 1192.18,1421.2 1171.31,1421.2 "/>
<path clip-path="url(#clip231)" d="M1192.18 1421.99 L1192.18 1423.18 L1213.04 1423.18 L1213.04 1421.99 L1192.18 1421.99 L1192.18 1421.99  Z" fill="#009af9" fill-rule="evenodd" fill-opacity="1"/>
<polyline clip-path="url(#clip231)" style="stroke:#000000; stroke-linecap:round; stroke-linejoin:round; stroke-width:4; stroke-opacity:1; fill:none" points="1192.18,1421.99 1192.18,1423.18 1213.04,1423.18 1213.04,1421.99 1192.18,1421.99 "/>
<path clip-path="url(#clip231)" d="M1213.04 1420.8 L1213.04 1423.18 L1233.91 1423.18 L1233.91 1420.8 L1213.04 1420.8 L1213.04 1420.8  Z" fill="#009af9" fill-rule="evenodd" fill-opacity="1"/>
<polyline clip-path="url(#clip231)" style="stroke:#000000; stroke-linecap:round; stroke-linejoin:round; stroke-width:4; stroke-opacity:1; fill:none" points="1213.04,1420.8 1213.04,1423.18 1233.91,1423.18 1233.91,1420.8 1213.04,1420.8 "/>
<path clip-path="url(#clip231)" d="M1233.91 1421.99 L1233.91 1423.18 L1254.77 1423.18 L1254.77 1421.99 L1233.91 1421.99 L1233.91 1421.99  Z" fill="#009af9" fill-rule="evenodd" fill-opacity="1"/>
<polyline clip-path="url(#clip231)" style="stroke:#000000; stroke-linecap:round; stroke-linejoin:round; stroke-width:4; stroke-opacity:1; fill:none" points="1233.91,1421.99 1233.91,1423.18 1254.77,1423.18 1254.77,1421.99 1233.91,1421.99 "/>
<path clip-path="url(#clip231)" d="M1254.77 1422.39 L1254.77 1423.18 L1275.64 1423.18 L1275.64 1422.39 L1254.77 1422.39 L1254.77 1422.39  Z" fill="#009af9" fill-rule="evenodd" fill-opacity="1"/>
<polyline clip-path="url(#clip231)" style="stroke:#000000; stroke-linecap:round; stroke-linejoin:round; stroke-width:4; stroke-opacity:1; fill:none" points="1254.77,1422.39 1254.77,1423.18 1275.64,1423.18 1275.64,1422.39 1254.77,1422.39 "/>
<path clip-path="url(#clip231)" d="M1275.64 1421.99 L1275.64 1423.18 L1296.5 1423.18 L1296.5 1421.99 L1275.64 1421.99 L1275.64 1421.99  Z" fill="#009af9" fill-rule="evenodd" fill-opacity="1"/>
<polyline clip-path="url(#clip231)" style="stroke:#000000; stroke-linecap:round; stroke-linejoin:round; stroke-width:4; stroke-opacity:1; fill:none" points="1275.64,1421.99 1275.64,1423.18 1296.5,1423.18 1296.5,1421.99 1275.64,1421.99 "/>
<path clip-path="url(#clip231)" d="M1296.5 1421.6 L1296.5 1423.18 L1317.37 1423.18 L1317.37 1421.6 L1296.5 1421.6 L1296.5 1421.6  Z" fill="#009af9" fill-rule="evenodd" fill-opacity="1"/>
<polyline clip-path="url(#clip231)" style="stroke:#000000; stroke-linecap:round; stroke-linejoin:round; stroke-width:4; stroke-opacity:1; fill:none" points="1296.5,1421.6 1296.5,1423.18 1317.37,1423.18 1317.37,1421.6 1296.5,1421.6 "/>
<path clip-path="url(#clip231)" d="M1317.37 1422.78 L1317.37 1423.18 L1338.23 1423.18 L1338.23 1422.78 L1317.37 1422.78 L1317.37 1422.78  Z" fill="#009af9" fill-rule="evenodd" fill-opacity="1"/>
<polyline clip-path="url(#clip231)" style="stroke:#000000; stroke-linecap:round; stroke-linejoin:round; stroke-width:4; stroke-opacity:1; fill:none" points="1317.37,1422.78 1317.37,1423.18 1338.23,1423.18 1338.23,1422.78 1317.37,1422.78 "/>
<path clip-path="url(#clip231)" d="M1338.23 1421.6 L1338.23 1423.18 L1359.09 1423.18 L1359.09 1421.6 L1338.23 1421.6 L1338.23 1421.6  Z" fill="#009af9" fill-rule="evenodd" fill-opacity="1"/>
<polyline clip-path="url(#clip231)" style="stroke:#000000; stroke-linecap:round; stroke-linejoin:round; stroke-width:4; stroke-opacity:1; fill:none" points="1338.23,1421.6 1338.23,1423.18 1359.09,1423.18 1359.09,1421.6 1338.23,1421.6 "/>
<path clip-path="url(#clip231)" d="M1359.09 1423.18 L1359.09 1423.18 L1379.96 1423.18 L1379.96 1423.18 L1359.09 1423.18 L1359.09 1423.18  Z" fill="#009af9" fill-rule="evenodd" fill-opacity="1"/>
<polyline clip-path="url(#clip231)" style="stroke:#000000; stroke-linecap:round; stroke-linejoin:round; stroke-width:4; stroke-opacity:1; fill:none" points="1359.09,1423.18 1359.09,1423.18 1379.96,1423.18 1359.09,1423.18 "/>
<path clip-path="url(#clip231)" d="M1379.96 1422.39 L1379.96 1423.18 L1400.82 1423.18 L1400.82 1422.39 L1379.96 1422.39 L1379.96 1422.39  Z" fill="#009af9" fill-rule="evenodd" fill-opacity="1"/>
<polyline clip-path="url(#clip231)" style="stroke:#000000; stroke-linecap:round; stroke-linejoin:round; stroke-width:4; stroke-opacity:1; fill:none" points="1379.96,1422.39 1379.96,1423.18 1400.82,1423.18 1400.82,1422.39 1379.96,1422.39 "/>
<path clip-path="url(#clip231)" d="M1400.82 1421.6 L1400.82 1423.18 L1421.69 1423.18 L1421.69 1421.6 L1400.82 1421.6 L1400.82 1421.6  Z" fill="#009af9" fill-rule="evenodd" fill-opacity="1"/>
<polyline clip-path="url(#clip231)" style="stroke:#000000; stroke-linecap:round; stroke-linejoin:round; stroke-width:4; stroke-opacity:1; fill:none" points="1400.82,1421.6 1400.82,1423.18 1421.69,1423.18 1421.69,1421.6 1400.82,1421.6 "/>
<path clip-path="url(#clip231)" d="M1421.69 1422.78 L1421.69 1423.18 L1442.55 1423.18 L1442.55 1422.78 L1421.69 1422.78 L1421.69 1422.78  Z" fill="#009af9" fill-rule="evenodd" fill-opacity="1"/>
<polyline clip-path="url(#clip231)" style="stroke:#000000; stroke-linecap:round; stroke-linejoin:round; stroke-width:4; stroke-opacity:1; fill:none" points="1421.69,1422.78 1421.69,1423.18 1442.55,1423.18 1442.55,1422.78 1421.69,1422.78 "/>
<path clip-path="url(#clip231)" d="M1442.55 1422.78 L1442.55 1423.18 L1463.42 1423.18 L1463.42 1422.78 L1442.55 1422.78 L1442.55 1422.78  Z" fill="#009af9" fill-rule="evenodd" fill-opacity="1"/>
<polyline clip-path="url(#clip231)" style="stroke:#000000; stroke-linecap:round; stroke-linejoin:round; stroke-width:4; stroke-opacity:1; fill:none" points="1442.55,1422.78 1442.55,1423.18 1463.42,1423.18 1463.42,1422.78 1442.55,1422.78 "/>
<path clip-path="url(#clip231)" d="M1463.42 1423.18 L1463.42 1423.18 L1484.28 1423.18 L1484.28 1423.18 L1463.42 1423.18 L1463.42 1423.18  Z" fill="#009af9" fill-rule="evenodd" fill-opacity="1"/>
<polyline clip-path="url(#clip231)" style="stroke:#000000; stroke-linecap:round; stroke-linejoin:round; stroke-width:4; stroke-opacity:1; fill:none" points="1463.42,1423.18 1463.42,1423.18 1484.28,1423.18 1463.42,1423.18 "/>
<path clip-path="url(#clip231)" d="M1484.28 1421.99 L1484.28 1423.18 L1505.15 1423.18 L1505.15 1421.99 L1484.28 1421.99 L1484.28 1421.99  Z" fill="#009af9" fill-rule="evenodd" fill-opacity="1"/>
<polyline clip-path="url(#clip231)" style="stroke:#000000; stroke-linecap:round; stroke-linejoin:round; stroke-width:4; stroke-opacity:1; fill:none" points="1484.28,1421.99 1484.28,1423.18 1505.15,1423.18 1505.15,1421.99 1484.28,1421.99 "/>
<path clip-path="url(#clip231)" d="M1505.15 1423.18 L1505.15 1423.18 L1526.01 1423.18 L1526.01 1423.18 L1505.15 1423.18 L1505.15 1423.18  Z" fill="#009af9" fill-rule="evenodd" fill-opacity="1"/>
<polyline clip-path="url(#clip231)" style="stroke:#000000; stroke-linecap:round; stroke-linejoin:round; stroke-width:4; stroke-opacity:1; fill:none" points="1505.15,1423.18 1505.15,1423.18 1526.01,1423.18 1505.15,1423.18 "/>
<path clip-path="url(#clip231)" d="M1526.01 1423.18 L1526.01 1423.18 L1546.88 1423.18 L1546.88 1423.18 L1526.01 1423.18 L1526.01 1423.18  Z" fill="#009af9" fill-rule="evenodd" fill-opacity="1"/>
<polyline clip-path="url(#clip231)" style="stroke:#000000; stroke-linecap:round; stroke-linejoin:round; stroke-width:4; stroke-opacity:1; fill:none" points="1526.01,1423.18 1526.01,1423.18 1546.88,1423.18 1526.01,1423.18 "/>
<path clip-path="url(#clip231)" d="M1546.88 1423.18 L1546.88 1423.18 L1567.74 1423.18 L1567.74 1423.18 L1546.88 1423.18 L1546.88 1423.18  Z" fill="#009af9" fill-rule="evenodd" fill-opacity="1"/>
<polyline clip-path="url(#clip231)" style="stroke:#000000; stroke-linecap:round; stroke-linejoin:round; stroke-width:4; stroke-opacity:1; fill:none" points="1546.88,1423.18 1546.88,1423.18 1567.74,1423.18 1546.88,1423.18 "/>
<path clip-path="url(#clip231)" d="M1567.74 1422.39 L1567.74 1423.18 L1588.61 1423.18 L1588.61 1422.39 L1567.74 1422.39 L1567.74 1422.39  Z" fill="#009af9" fill-rule="evenodd" fill-opacity="1"/>
<polyline clip-path="url(#clip231)" style="stroke:#000000; stroke-linecap:round; stroke-linejoin:round; stroke-width:4; stroke-opacity:1; fill:none" points="1567.74,1422.39 1567.74,1423.18 1588.61,1423.18 1588.61,1422.39 1567.74,1422.39 "/>
<path clip-path="url(#clip231)" d="M1588.61 1423.18 L1588.61 1423.18 L1609.47 1423.18 L1609.47 1423.18 L1588.61 1423.18 L1588.61 1423.18  Z" fill="#009af9" fill-rule="evenodd" fill-opacity="1"/>
<polyline clip-path="url(#clip231)" style="stroke:#000000; stroke-linecap:round; stroke-linejoin:round; stroke-width:4; stroke-opacity:1; fill:none" points="1588.61,1423.18 1588.61,1423.18 1609.47,1423.18 1588.61,1423.18 "/>
<path clip-path="url(#clip231)" d="M1609.47 1422.78 L1609.47 1423.18 L1630.34 1423.18 L1630.34 1422.78 L1609.47 1422.78 L1609.47 1422.78  Z" fill="#009af9" fill-rule="evenodd" fill-opacity="1"/>
<polyline clip-path="url(#clip231)" style="stroke:#000000; stroke-linecap:round; stroke-linejoin:round; stroke-width:4; stroke-opacity:1; fill:none" points="1609.47,1422.78 1609.47,1423.18 1630.34,1423.18 1630.34,1422.78 1609.47,1422.78 "/>
<path clip-path="url(#clip231)" d="M1630.34 1423.18 L1630.34 1423.18 L1651.2 1423.18 L1651.2 1423.18 L1630.34 1423.18 L1630.34 1423.18  Z" fill="#009af9" fill-rule="evenodd" fill-opacity="1"/>
<polyline clip-path="url(#clip231)" style="stroke:#000000; stroke-linecap:round; stroke-linejoin:round; stroke-width:4; stroke-opacity:1; fill:none" points="1630.34,1423.18 1630.34,1423.18 1651.2,1423.18 1630.34,1423.18 "/>
<path clip-path="url(#clip231)" d="M1651.2 1422.78 L1651.2 1423.18 L1672.07 1423.18 L1672.07 1422.78 L1651.2 1422.78 L1651.2 1422.78  Z" fill="#009af9" fill-rule="evenodd" fill-opacity="1"/>
<polyline clip-path="url(#clip231)" style="stroke:#000000; stroke-linecap:round; stroke-linejoin:round; stroke-width:4; stroke-opacity:1; fill:none" points="1651.2,1422.78 1651.2,1423.18 1672.07,1423.18 1672.07,1422.78 1651.2,1422.78 "/>
<path clip-path="url(#clip231)" d="M1672.07 1423.18 L1672.07 1423.18 L1692.93 1423.18 L1692.93 1423.18 L1672.07 1423.18 L1672.07 1423.18  Z" fill="#009af9" fill-rule="evenodd" fill-opacity="1"/>
<polyline clip-path="url(#clip231)" style="stroke:#000000; stroke-linecap:round; stroke-linejoin:round; stroke-width:4; stroke-opacity:1; fill:none" points="1672.07,1423.18 1672.07,1423.18 1692.93,1423.18 1672.07,1423.18 "/>
<path clip-path="url(#clip231)" d="M1692.93 1423.18 L1692.93 1423.18 L1713.8 1423.18 L1713.8 1423.18 L1692.93 1423.18 L1692.93 1423.18  Z" fill="#009af9" fill-rule="evenodd" fill-opacity="1"/>
<polyline clip-path="url(#clip231)" style="stroke:#000000; stroke-linecap:round; stroke-linejoin:round; stroke-width:4; stroke-opacity:1; fill:none" points="1692.93,1423.18 1692.93,1423.18 1713.8,1423.18 1692.93,1423.18 "/>
<path clip-path="url(#clip231)" d="M1713.8 1423.18 L1713.8 1423.18 L1734.66 1423.18 L1734.66 1423.18 L1713.8 1423.18 L1713.8 1423.18  Z" fill="#009af9" fill-rule="evenodd" fill-opacity="1"/>
<polyline clip-path="url(#clip231)" style="stroke:#000000; stroke-linecap:round; stroke-linejoin:round; stroke-width:4; stroke-opacity:1; fill:none" points="1713.8,1423.18 1713.8,1423.18 1734.66,1423.18 1713.8,1423.18 "/>
<path clip-path="url(#clip231)" d="M1734.66 1423.18 L1734.66 1423.18 L1755.53 1423.18 L1755.53 1423.18 L1734.66 1423.18 L1734.66 1423.18  Z" fill="#009af9" fill-rule="evenodd" fill-opacity="1"/>
<polyline clip-path="url(#clip231)" style="stroke:#000000; stroke-linecap:round; stroke-linejoin:round; stroke-width:4; stroke-opacity:1; fill:none" points="1734.66,1423.18 1734.66,1423.18 1755.53,1423.18 1734.66,1423.18 "/>
<path clip-path="url(#clip231)" d="M1755.53 1423.18 L1755.53 1423.18 L1776.39 1423.18 L1776.39 1423.18 L1755.53 1423.18 L1755.53 1423.18  Z" fill="#009af9" fill-rule="evenodd" fill-opacity="1"/>
<polyline clip-path="url(#clip231)" style="stroke:#000000; stroke-linecap:round; stroke-linejoin:round; stroke-width:4; stroke-opacity:1; fill:none" points="1755.53,1423.18 1755.53,1423.18 1776.39,1423.18 1755.53,1423.18 "/>
<path clip-path="url(#clip231)" d="M1776.39 1423.18 L1776.39 1423.18 L1797.26 1423.18 L1797.26 1423.18 L1776.39 1423.18 L1776.39 1423.18  Z" fill="#009af9" fill-rule="evenodd" fill-opacity="1"/>
<polyline clip-path="url(#clip231)" style="stroke:#000000; stroke-linecap:round; stroke-linejoin:round; stroke-width:4; stroke-opacity:1; fill:none" points="1776.39,1423.18 1776.39,1423.18 1797.26,1423.18 1776.39,1423.18 "/>
<path clip-path="url(#clip231)" d="M1797.26 1423.18 L1797.26 1423.18 L1818.12 1423.18 L1818.12 1423.18 L1797.26 1423.18 L1797.26 1423.18  Z" fill="#009af9" fill-rule="evenodd" fill-opacity="1"/>
<polyline clip-path="url(#clip231)" style="stroke:#000000; stroke-linecap:round; stroke-linejoin:round; stroke-width:4; stroke-opacity:1; fill:none" points="1797.26,1423.18 1797.26,1423.18 1818.12,1423.18 1797.26,1423.18 "/>
<path clip-path="url(#clip231)" d="M1818.12 1422.78 L1818.12 1423.18 L1838.99 1423.18 L1838.99 1422.78 L1818.12 1422.78 L1818.12 1422.78  Z" fill="#009af9" fill-rule="evenodd" fill-opacity="1"/>
<polyline clip-path="url(#clip231)" style="stroke:#000000; stroke-linecap:round; stroke-linejoin:round; stroke-width:4; stroke-opacity:1; fill:none" points="1818.12,1422.78 1818.12,1423.18 1838.99,1423.18 1838.99,1422.78 1818.12,1422.78 "/>
<path clip-path="url(#clip231)" d="M1838.99 1423.18 L1838.99 1423.18 L1859.85 1423.18 L1859.85 1423.18 L1838.99 1423.18 L1838.99 1423.18  Z" fill="#009af9" fill-rule="evenodd" fill-opacity="1"/>
<polyline clip-path="url(#clip231)" style="stroke:#000000; stroke-linecap:round; stroke-linejoin:round; stroke-width:4; stroke-opacity:1; fill:none" points="1838.99,1423.18 1838.99,1423.18 1859.85,1423.18 1838.99,1423.18 "/>
<path clip-path="url(#clip231)" d="M1859.85 1423.18 L1859.85 1423.18 L1880.71 1423.18 L1880.71 1423.18 L1859.85 1423.18 L1859.85 1423.18  Z" fill="#009af9" fill-rule="evenodd" fill-opacity="1"/>
<polyline clip-path="url(#clip231)" style="stroke:#000000; stroke-linecap:round; stroke-linejoin:round; stroke-width:4; stroke-opacity:1; fill:none" points="1859.85,1423.18 1859.85,1423.18 1880.71,1423.18 1859.85,1423.18 "/>
<path clip-path="url(#clip231)" d="M1880.71 1423.18 L1880.71 1423.18 L1901.58 1423.18 L1901.58 1423.18 L1880.71 1423.18 L1880.71 1423.18  Z" fill="#009af9" fill-rule="evenodd" fill-opacity="1"/>
<polyline clip-path="url(#clip231)" style="stroke:#000000; stroke-linecap:round; stroke-linejoin:round; stroke-width:4; stroke-opacity:1; fill:none" points="1880.71,1423.18 1880.71,1423.18 1901.58,1423.18 1880.71,1423.18 "/>
<path clip-path="url(#clip231)" d="M1901.58 1423.18 L1901.58 1423.18 L1922.44 1423.18 L1922.44 1423.18 L1901.58 1423.18 L1901.58 1423.18  Z" fill="#009af9" fill-rule="evenodd" fill-opacity="1"/>
<polyline clip-path="url(#clip231)" style="stroke:#000000; stroke-linecap:round; stroke-linejoin:round; stroke-width:4; stroke-opacity:1; fill:none" points="1901.58,1423.18 1901.58,1423.18 1922.44,1423.18 1901.58,1423.18 "/>
<path clip-path="url(#clip231)" d="M1922.44 1423.18 L1922.44 1423.18 L1943.31 1423.18 L1943.31 1423.18 L1922.44 1423.18 L1922.44 1423.18  Z" fill="#009af9" fill-rule="evenodd" fill-opacity="1"/>
<polyline clip-path="url(#clip231)" style="stroke:#000000; stroke-linecap:round; stroke-linejoin:round; stroke-width:4; stroke-opacity:1; fill:none" points="1922.44,1423.18 1922.44,1423.18 1943.31,1423.18 1922.44,1423.18 "/>
<path clip-path="url(#clip231)" d="M1943.31 1423.18 L1943.31 1423.18 L1964.17 1423.18 L1964.17 1423.18 L1943.31 1423.18 L1943.31 1423.18  Z" fill="#009af9" fill-rule="evenodd" fill-opacity="1"/>
<polyline clip-path="url(#clip231)" style="stroke:#000000; stroke-linecap:round; stroke-linejoin:round; stroke-width:4; stroke-opacity:1; fill:none" points="1943.31,1423.18 1943.31,1423.18 1964.17,1423.18 1943.31,1423.18 "/>
<path clip-path="url(#clip231)" d="M1964.17 1423.18 L1964.17 1423.18 L1985.04 1423.18 L1985.04 1423.18 L1964.17 1423.18 L1964.17 1423.18  Z" fill="#009af9" fill-rule="evenodd" fill-opacity="1"/>
<polyline clip-path="url(#clip231)" style="stroke:#000000; stroke-linecap:round; stroke-linejoin:round; stroke-width:4; stroke-opacity:1; fill:none" points="1964.17,1423.18 1964.17,1423.18 1985.04,1423.18 1964.17,1423.18 "/>
<path clip-path="url(#clip231)" d="M1985.04 1423.18 L1985.04 1423.18 L2005.9 1423.18 L2005.9 1423.18 L1985.04 1423.18 L1985.04 1423.18  Z" fill="#009af9" fill-rule="evenodd" fill-opacity="1"/>
<polyline clip-path="url(#clip231)" style="stroke:#000000; stroke-linecap:round; stroke-linejoin:round; stroke-width:4; stroke-opacity:1; fill:none" points="1985.04,1423.18 1985.04,1423.18 2005.9,1423.18 1985.04,1423.18 "/>
<path clip-path="url(#clip231)" d="M2005.9 1423.18 L2005.9 1423.18 L2026.77 1423.18 L2026.77 1423.18 L2005.9 1423.18 L2005.9 1423.18  Z" fill="#009af9" fill-rule="evenodd" fill-opacity="1"/>
<polyline clip-path="url(#clip231)" style="stroke:#000000; stroke-linecap:round; stroke-linejoin:round; stroke-width:4; stroke-opacity:1; fill:none" points="2005.9,1423.18 2005.9,1423.18 2026.77,1423.18 2005.9,1423.18 "/>
<path clip-path="url(#clip231)" d="M2026.77 1423.18 L2026.77 1423.18 L2047.63 1423.18 L2047.63 1423.18 L2026.77 1423.18 L2026.77 1423.18  Z" fill="#009af9" fill-rule="evenodd" fill-opacity="1"/>
<polyline clip-path="url(#clip231)" style="stroke:#000000; stroke-linecap:round; stroke-linejoin:round; stroke-width:4; stroke-opacity:1; fill:none" points="2026.77,1423.18 2026.77,1423.18 2047.63,1423.18 2026.77,1423.18 "/>
<path clip-path="url(#clip231)" d="M2047.63 1422.78 L2047.63 1423.18 L2068.5 1423.18 L2068.5 1422.78 L2047.63 1422.78 L2047.63 1422.78  Z" fill="#009af9" fill-rule="evenodd" fill-opacity="1"/>
<polyline clip-path="url(#clip231)" style="stroke:#000000; stroke-linecap:round; stroke-linejoin:round; stroke-width:4; stroke-opacity:1; fill:none" points="2047.63,1422.78 2047.63,1423.18 2068.5,1423.18 2068.5,1422.78 2047.63,1422.78 "/>
<path clip-path="url(#clip231)" d="M2068.5 1423.18 L2068.5 1423.18 L2089.36 1423.18 L2089.36 1423.18 L2068.5 1423.18 L2068.5 1423.18  Z" fill="#009af9" fill-rule="evenodd" fill-opacity="1"/>
<polyline clip-path="url(#clip231)" style="stroke:#000000; stroke-linecap:round; stroke-linejoin:round; stroke-width:4; stroke-opacity:1; fill:none" points="2068.5,1423.18 2068.5,1423.18 2089.36,1423.18 2068.5,1423.18 "/>
<path clip-path="url(#clip231)" d="M2089.36 1423.18 L2089.36 1423.18 L2110.23 1423.18 L2110.23 1423.18 L2089.36 1423.18 L2089.36 1423.18  Z" fill="#009af9" fill-rule="evenodd" fill-opacity="1"/>
<polyline clip-path="url(#clip231)" style="stroke:#000000; stroke-linecap:round; stroke-linejoin:round; stroke-width:4; stroke-opacity:1; fill:none" points="2089.36,1423.18 2089.36,1423.18 2110.23,1423.18 2089.36,1423.18 "/>
<path clip-path="url(#clip231)" d="M2110.23 1423.18 L2110.23 1423.18 L2131.09 1423.18 L2131.09 1423.18 L2110.23 1423.18 L2110.23 1423.18  Z" fill="#009af9" fill-rule="evenodd" fill-opacity="1"/>
<polyline clip-path="url(#clip231)" style="stroke:#000000; stroke-linecap:round; stroke-linejoin:round; stroke-width:4; stroke-opacity:1; fill:none" points="2110.23,1423.18 2110.23,1423.18 2131.09,1423.18 2110.23,1423.18 "/>
<path clip-path="url(#clip231)" d="M2131.09 1423.18 L2131.09 1423.18 L2151.96 1423.18 L2151.96 1423.18 L2131.09 1423.18 L2131.09 1423.18  Z" fill="#009af9" fill-rule="evenodd" fill-opacity="1"/>
<polyline clip-path="url(#clip231)" style="stroke:#000000; stroke-linecap:round; stroke-linejoin:round; stroke-width:4; stroke-opacity:1; fill:none" points="2131.09,1423.18 2131.09,1423.18 2151.96,1423.18 2131.09,1423.18 "/>
<path clip-path="url(#clip231)" d="M2151.96 1423.18 L2151.96 1423.18 L2172.82 1423.18 L2172.82 1423.18 L2151.96 1423.18 L2151.96 1423.18  Z" fill="#009af9" fill-rule="evenodd" fill-opacity="1"/>
<polyline clip-path="url(#clip231)" style="stroke:#000000; stroke-linecap:round; stroke-linejoin:round; stroke-width:4; stroke-opacity:1; fill:none" points="2151.96,1423.18 2151.96,1423.18 2172.82,1423.18 2151.96,1423.18 "/>
<path clip-path="url(#clip231)" d="M2172.82 1423.18 L2172.82 1423.18 L2193.69 1423.18 L2193.69 1423.18 L2172.82 1423.18 L2172.82 1423.18  Z" fill="#009af9" fill-rule="evenodd" fill-opacity="1"/>
<polyline clip-path="url(#clip231)" style="stroke:#000000; stroke-linecap:round; stroke-linejoin:round; stroke-width:4; stroke-opacity:1; fill:none" points="2172.82,1423.18 2172.82,1423.18 2193.69,1423.18 2172.82,1423.18 "/>
<path clip-path="url(#clip231)" d="M2193.69 1423.18 L2193.69 1423.18 L2214.55 1423.18 L2214.55 1423.18 L2193.69 1423.18 L2193.69 1423.18  Z" fill="#009af9" fill-rule="evenodd" fill-opacity="1"/>
<polyline clip-path="url(#clip231)" style="stroke:#000000; stroke-linecap:round; stroke-linejoin:round; stroke-width:4; stroke-opacity:1; fill:none" points="2193.69,1423.18 2193.69,1423.18 2214.55,1423.18 2193.69,1423.18 "/>
<path clip-path="url(#clip231)" d="M2214.55 1422.78 L2214.55 1423.18 L2235.42 1423.18 L2235.42 1422.78 L2214.55 1422.78 L2214.55 1422.78  Z" fill="#009af9" fill-rule="evenodd" fill-opacity="1"/>
<polyline clip-path="url(#clip231)" style="stroke:#000000; stroke-linecap:round; stroke-linejoin:round; stroke-width:4; stroke-opacity:1; fill:none" points="2214.55,1422.78 2214.55,1423.18 2235.42,1423.18 2235.42,1422.78 2214.55,1422.78 "/>
<circle clip-path="url(#clip231)" style="fill:#009af9; stroke:none; fill-opacity:0" cx="347.152" cy="47.2441" r="2"/>
<circle clip-path="url(#clip231)" style="fill:#009af9; stroke:none; fill-opacity:0" cx="368.017" cy="920.571" r="2"/>
<circle clip-path="url(#clip231)" style="fill:#009af9; stroke:none; fill-opacity:0" cx="388.882" cy="1069.49" r="2"/>
<circle clip-path="url(#clip231)" style="fill:#009af9; stroke:none; fill-opacity:0" cx="409.746" cy="1166.92" r="2"/>
<circle clip-path="url(#clip231)" style="fill:#009af9; stroke:none; fill-opacity:0" cx="430.611" cy="1211.68" r="2"/>
<circle clip-path="url(#clip231)" style="fill:#009af9; stroke:none; fill-opacity:0" cx="451.476" cy="1250.1" r="2"/>
<circle clip-path="url(#clip231)" style="fill:#009af9; stroke:none; fill-opacity:0" cx="472.341" cy="1279.01" r="2"/>
<circle clip-path="url(#clip231)" style="fill:#009af9; stroke:none; fill-opacity:0" cx="493.206" cy="1299.61" r="2"/>
<circle clip-path="url(#clip231)" style="fill:#009af9; stroke:none; fill-opacity:0" cx="514.07" cy="1323.37" r="2"/>
<circle clip-path="url(#clip231)" style="fill:#009af9; stroke:none; fill-opacity:0" cx="534.935" cy="1339.61" r="2"/>
<circle clip-path="url(#clip231)" style="fill:#009af9; stroke:none; fill-opacity:0" cx="555.8" cy="1343.17" r="2"/>
<circle clip-path="url(#clip231)" style="fill:#009af9; stroke:none; fill-opacity:0" cx="576.665" cy="1361.79" r="2"/>
<circle clip-path="url(#clip231)" style="fill:#009af9; stroke:none; fill-opacity:0" cx="597.53" cy="1371.3" r="2"/>
<circle clip-path="url(#clip231)" style="fill:#009af9; stroke:none; fill-opacity:0" cx="618.394" cy="1369.31" r="2"/>
<circle clip-path="url(#clip231)" style="fill:#009af9; stroke:none; fill-opacity:0" cx="639.259" cy="1374.46" r="2"/>
<circle clip-path="url(#clip231)" style="fill:#009af9; stroke:none; fill-opacity:0" cx="660.124" cy="1387.14" r="2"/>
<circle clip-path="url(#clip231)" style="fill:#009af9; stroke:none; fill-opacity:0" cx="680.989" cy="1393.87" r="2"/>
<circle clip-path="url(#clip231)" style="fill:#009af9; stroke:none; fill-opacity:0" cx="701.854" cy="1394.27" r="2"/>
<circle clip-path="url(#clip231)" style="fill:#009af9; stroke:none; fill-opacity:0" cx="722.718" cy="1395.46" r="2"/>
<circle clip-path="url(#clip231)" style="fill:#009af9; stroke:none; fill-opacity:0" cx="743.583" cy="1394.66" r="2"/>
<circle clip-path="url(#clip231)" style="fill:#009af9; stroke:none; fill-opacity:0" cx="764.448" cy="1397.44" r="2"/>
<circle clip-path="url(#clip231)" style="fill:#009af9; stroke:none; fill-opacity:0" cx="785.313" cy="1403.38" r="2"/>
<circle clip-path="url(#clip231)" style="fill:#009af9; stroke:none; fill-opacity:0" cx="806.178" cy="1402.98" r="2"/>
<circle clip-path="url(#clip231)" style="fill:#009af9; stroke:none; fill-opacity:0" cx="827.042" cy="1405.75" r="2"/>
<circle clip-path="url(#clip231)" style="fill:#009af9; stroke:none; fill-opacity:0" cx="847.907" cy="1413.28" r="2"/>
<circle clip-path="url(#clip231)" style="fill:#009af9; stroke:none; fill-opacity:0" cx="868.772" cy="1416.45" r="2"/>
<circle clip-path="url(#clip231)" style="fill:#009af9; stroke:none; fill-opacity:0" cx="889.637" cy="1412.88" r="2"/>
<circle clip-path="url(#clip231)" style="fill:#009af9; stroke:none; fill-opacity:0" cx="910.502" cy="1416.84" r="2"/>
<circle clip-path="url(#clip231)" style="fill:#009af9; stroke:none; fill-opacity:0" cx="931.366" cy="1412.88" r="2"/>
<circle clip-path="url(#clip231)" style="fill:#009af9; stroke:none; fill-opacity:0" cx="952.231" cy="1417.24" r="2"/>
<circle clip-path="url(#clip231)" style="fill:#009af9; stroke:none; fill-opacity:0" cx="973.096" cy="1418.03" r="2"/>
<circle clip-path="url(#clip231)" style="fill:#009af9; stroke:none; fill-opacity:0" cx="993.961" cy="1419.22" r="2"/>
<circle clip-path="url(#clip231)" style="fill:#009af9; stroke:none; fill-opacity:0" cx="1014.83" cy="1417.63" r="2"/>
<circle clip-path="url(#clip231)" style="fill:#009af9; stroke:none; fill-opacity:0" cx="1035.69" cy="1416.45" r="2"/>
<circle clip-path="url(#clip231)" style="fill:#009af9; stroke:none; fill-opacity:0" cx="1056.56" cy="1420.01" r="2"/>
<circle clip-path="url(#clip231)" style="fill:#009af9; stroke:none; fill-opacity:0" cx="1077.42" cy="1420.8" r="2"/>
<circle clip-path="url(#clip231)" style="fill:#009af9; stroke:none; fill-opacity:0" cx="1098.28" cy="1420.8" r="2"/>
<circle clip-path="url(#clip231)" style="fill:#009af9; stroke:none; fill-opacity:0" cx="1119.15" cy="1419.62" r="2"/>
<circle clip-path="url(#clip231)" style="fill:#009af9; stroke:none; fill-opacity:0" cx="1140.01" cy="1420.01" r="2"/>
<circle clip-path="url(#clip231)" style="fill:#009af9; stroke:none; fill-opacity:0" cx="1160.88" cy="1421.2" r="2"/>
<circle clip-path="url(#clip231)" style="fill:#009af9; stroke:none; fill-opacity:0" cx="1181.74" cy="1421.2" r="2"/>
<circle clip-path="url(#clip231)" style="fill:#009af9; stroke:none; fill-opacity:0" cx="1202.61" cy="1421.99" r="2"/>
<circle clip-path="url(#clip231)" style="fill:#009af9; stroke:none; fill-opacity:0" cx="1223.47" cy="1420.8" r="2"/>
<circle clip-path="url(#clip231)" style="fill:#009af9; stroke:none; fill-opacity:0" cx="1244.34" cy="1421.99" r="2"/>
<circle clip-path="url(#clip231)" style="fill:#009af9; stroke:none; fill-opacity:0" cx="1265.2" cy="1422.39" r="2"/>
<circle clip-path="url(#clip231)" style="fill:#009af9; stroke:none; fill-opacity:0" cx="1286.07" cy="1421.99" r="2"/>
<circle clip-path="url(#clip231)" style="fill:#009af9; stroke:none; fill-opacity:0" cx="1306.93" cy="1421.6" r="2"/>
<circle clip-path="url(#clip231)" style="fill:#009af9; stroke:none; fill-opacity:0" cx="1327.8" cy="1422.78" r="2"/>
<circle clip-path="url(#clip231)" style="fill:#009af9; stroke:none; fill-opacity:0" cx="1348.66" cy="1421.6" r="2"/>
<circle clip-path="url(#clip231)" style="fill:#009af9; stroke:none; fill-opacity:0" cx="1369.53" cy="1423.18" r="2"/>
<circle clip-path="url(#clip231)" style="fill:#009af9; stroke:none; fill-opacity:0" cx="1390.39" cy="1422.39" r="2"/>
<circle clip-path="url(#clip231)" style="fill:#009af9; stroke:none; fill-opacity:0" cx="1411.26" cy="1421.6" r="2"/>
<circle clip-path="url(#clip231)" style="fill:#009af9; stroke:none; fill-opacity:0" cx="1432.12" cy="1422.78" r="2"/>
<circle clip-path="url(#clip231)" style="fill:#009af9; stroke:none; fill-opacity:0" cx="1452.99" cy="1422.78" r="2"/>
<circle clip-path="url(#clip231)" style="fill:#009af9; stroke:none; fill-opacity:0" cx="1473.85" cy="1423.18" r="2"/>
<circle clip-path="url(#clip231)" style="fill:#009af9; stroke:none; fill-opacity:0" cx="1494.72" cy="1421.99" r="2"/>
<circle clip-path="url(#clip231)" style="fill:#009af9; stroke:none; fill-opacity:0" cx="1515.58" cy="1423.18" r="2"/>
<circle clip-path="url(#clip231)" style="fill:#009af9; stroke:none; fill-opacity:0" cx="1536.45" cy="1423.18" r="2"/>
<circle clip-path="url(#clip231)" style="fill:#009af9; stroke:none; fill-opacity:0" cx="1557.31" cy="1423.18" r="2"/>
<circle clip-path="url(#clip231)" style="fill:#009af9; stroke:none; fill-opacity:0" cx="1578.18" cy="1422.39" r="2"/>
<circle clip-path="url(#clip231)" style="fill:#009af9; stroke:none; fill-opacity:0" cx="1599.04" cy="1423.18" r="2"/>
<circle clip-path="url(#clip231)" style="fill:#009af9; stroke:none; fill-opacity:0" cx="1619.9" cy="1422.78" r="2"/>
<circle clip-path="url(#clip231)" style="fill:#009af9; stroke:none; fill-opacity:0" cx="1640.77" cy="1423.18" r="2"/>
<circle clip-path="url(#clip231)" style="fill:#009af9; stroke:none; fill-opacity:0" cx="1661.63" cy="1422.78" r="2"/>
<circle clip-path="url(#clip231)" style="fill:#009af9; stroke:none; fill-opacity:0" cx="1682.5" cy="1423.18" r="2"/>
<circle clip-path="url(#clip231)" style="fill:#009af9; stroke:none; fill-opacity:0" cx="1703.36" cy="1423.18" r="2"/>
<circle clip-path="url(#clip231)" style="fill:#009af9; stroke:none; fill-opacity:0" cx="1724.23" cy="1423.18" r="2"/>
<circle clip-path="url(#clip231)" style="fill:#009af9; stroke:none; fill-opacity:0" cx="1745.09" cy="1423.18" r="2"/>
<circle clip-path="url(#clip231)" style="fill:#009af9; stroke:none; fill-opacity:0" cx="1765.96" cy="1423.18" r="2"/>
<circle clip-path="url(#clip231)" style="fill:#009af9; stroke:none; fill-opacity:0" cx="1786.82" cy="1423.18" r="2"/>
<circle clip-path="url(#clip231)" style="fill:#009af9; stroke:none; fill-opacity:0" cx="1807.69" cy="1423.18" r="2"/>
<circle clip-path="url(#clip231)" style="fill:#009af9; stroke:none; fill-opacity:0" cx="1828.55" cy="1422.78" r="2"/>
<circle clip-path="url(#clip231)" style="fill:#009af9; stroke:none; fill-opacity:0" cx="1849.42" cy="1423.18" r="2"/>
<circle clip-path="url(#clip231)" style="fill:#009af9; stroke:none; fill-opacity:0" cx="1870.28" cy="1423.18" r="2"/>
<circle clip-path="url(#clip231)" style="fill:#009af9; stroke:none; fill-opacity:0" cx="1891.15" cy="1423.18" r="2"/>
<circle clip-path="url(#clip231)" style="fill:#009af9; stroke:none; fill-opacity:0" cx="1912.01" cy="1423.18" r="2"/>
<circle clip-path="url(#clip231)" style="fill:#009af9; stroke:none; fill-opacity:0" cx="1932.88" cy="1423.18" r="2"/>
<circle clip-path="url(#clip231)" style="fill:#009af9; stroke:none; fill-opacity:0" cx="1953.74" cy="1423.18" r="2"/>
<circle clip-path="url(#clip231)" style="fill:#009af9; stroke:none; fill-opacity:0" cx="1974.61" cy="1423.18" r="2"/>
<circle clip-path="url(#clip231)" style="fill:#009af9; stroke:none; fill-opacity:0" cx="1995.47" cy="1423.18" r="2"/>
<circle clip-path="url(#clip231)" style="fill:#009af9; stroke:none; fill-opacity:0" cx="2016.34" cy="1423.18" r="2"/>
<circle clip-path="url(#clip231)" style="fill:#009af9; stroke:none; fill-opacity:0" cx="2037.2" cy="1423.18" r="2"/>
<circle clip-path="url(#clip231)" style="fill:#009af9; stroke:none; fill-opacity:0" cx="2058.07" cy="1422.78" r="2"/>
<circle clip-path="url(#clip231)" style="fill:#009af9; stroke:none; fill-opacity:0" cx="2078.93" cy="1423.18" r="2"/>
<circle clip-path="url(#clip231)" style="fill:#009af9; stroke:none; fill-opacity:0" cx="2099.8" cy="1423.18" r="2"/>
<circle clip-path="url(#clip231)" style="fill:#009af9; stroke:none; fill-opacity:0" cx="2120.66" cy="1423.18" r="2"/>
<circle clip-path="url(#clip231)" style="fill:#009af9; stroke:none; fill-opacity:0" cx="2141.52" cy="1423.18" r="2"/>
<circle clip-path="url(#clip231)" style="fill:#009af9; stroke:none; fill-opacity:0" cx="2162.39" cy="1423.18" r="2"/>
<circle clip-path="url(#clip231)" style="fill:#009af9; stroke:none; fill-opacity:0" cx="2183.25" cy="1423.18" r="2"/>
<circle clip-path="url(#clip231)" style="fill:#009af9; stroke:none; fill-opacity:0" cx="2204.12" cy="1423.18" r="2"/>
<circle clip-path="url(#clip231)" style="fill:#009af9; stroke:none; fill-opacity:0" cx="2224.98" cy="1422.78" r="2"/>
<polyline clip-path="url(#clip231)" style="stroke:#e26f46; stroke-linecap:round; stroke-linejoin:round; stroke-width:16; stroke-opacity:1; fill:none" points="347.152,472.589 366.046,905.296 384.939,1054.27 403.833,1137.55 422.727,1192.71 441.62,1232.56 460.514,1262.9 479.408,1286.81 498.302,1306.13 517.195,1322.01 536.089,1335.26 554.983,1346.43 573.876,1355.92 592.77,1364.05 611.664,1371.06 630.557,1377.13 649.451,1382.41 668.345,1387.01 687.238,1391.05 706.132,1394.59 725.026,1397.71 743.92,1400.46 762.813,1402.89 781.707,1405.05 800.601,1406.96 819.494,1408.65 838.388,1410.16 857.282,1411.51 876.175,1412.71 895.069,1413.78 913.963,1414.73 932.856,1415.59 951.75,1416.35 970.644,1417.04 989.538,1417.65 1008.43,1418.2 1027.32,1418.69 1046.22,1419.14 1065.11,1419.54 1084.01,1419.89 1102.9,1420.22 1121.79,1420.5 1140.69,1420.77 1159.58,1421 1178.47,1421.21 1197.37,1421.4 1216.26,1421.57 1235.16,1421.73 1254.05,1421.87 1272.94,1421.99 1291.84,1422.11 1310.73,1422.21 1329.62,1422.3 1348.52,1422.38 1367.41,1422.46 1386.31,1422.53 1405.2,1422.59 1424.09,1422.65 1442.99,1422.7 1461.88,1422.74 1480.77,1422.78 1499.67,1422.82 1518.56,1422.85 1537.45,1422.88 1556.35,1422.91 1575.24,1422.94 1594.14,1422.96 1613.03,1422.98 1631.92,1423 1650.82,1423.02 1669.71,1423.03 1688.6,1423.05 1707.5,1423.06 1726.39,1423.07 1745.29,1423.08 1764.18,1423.09 1783.07,1423.1 1801.97,1423.1 1820.86,1423.11 1839.75,1423.12 1858.65,1423.12 1877.54,1423.13 1896.43,1423.13 1915.33,1423.14 1934.22,1423.14 1953.12,1423.15 1972.01,1423.15 1990.9,1423.15 2009.8,1423.15 2028.69,1423.16 2047.58,1423.16 2066.48,1423.16 2085.37,1423.16 2104.27,1423.16 2123.16,1423.17 2142.05,1423.17 2160.95,1423.17 2179.84,1423.17 2198.73,1423.17 2217.63,1423.17 "/>
<path clip-path="url(#clip230)" d="M2015.88 248.629 L2281.64 248.629 L2281.64 93.1086 L2015.88 93.1086  Z" fill="#ffffff" fill-rule="evenodd" fill-opacity="1"/>
<polyline clip-path="url(#clip230)" style="stroke:#000000; stroke-linecap:round; stroke-linejoin:round; stroke-width:4; stroke-opacity:1; fill:none" points="2015.88,248.629 2281.64,248.629 2281.64,93.1086 2015.88,93.1086 2015.88,248.629 "/>
<path clip-path="url(#clip230)" d="M2039.58 165.685 L2181.8 165.685 L2181.8 124.213 L2039.58 124.213 L2039.58 165.685  Z" fill="#009af9" fill-rule="evenodd" fill-opacity="1"/>
<polyline clip-path="url(#clip230)" style="stroke:#000000; stroke-linecap:round; stroke-linejoin:round; stroke-width:4; stroke-opacity:1; fill:none" points="2039.58,165.685 2181.8,165.685 2181.8,124.213 2039.58,124.213 2039.58,165.685 "/>
<path clip-path="url(#clip230)" d="M2219.35 164.636 Q2217.55 169.266 2215.83 170.678 Q2214.12 172.09 2211.25 172.09 L2207.85 172.09 L2207.85 168.525 L2210.35 168.525 Q2212.11 168.525 2213.08 167.692 Q2214.05 166.858 2215.23 163.756 L2215.99 161.812 L2205.51 136.303 L2210.02 136.303 L2218.12 156.581 L2226.23 136.303 L2230.74 136.303 L2219.35 164.636 Z" fill="#000000" fill-rule="nonzero" fill-opacity="1" /><path clip-path="url(#clip230)" d="M2238.03 158.293 L2245.67 158.293 L2245.67 131.928 L2237.36 133.595 L2237.36 129.335 L2245.62 127.669 L2250.3 127.669 L2250.3 158.293 L2257.94 158.293 L2257.94 162.229 L2238.03 162.229 L2238.03 158.293 Z" fill="#000000" fill-rule="nonzero" fill-opacity="1" /><polyline clip-path="url(#clip230)" style="stroke:#e26f46; stroke-linecap:round; stroke-linejoin:round; stroke-width:16; stroke-opacity:1; fill:none" points="2039.58,196.789 2181.8,196.789 "/>
<path clip-path="url(#clip230)" d="M2219.35 216.476 Q2217.55 221.106 2215.83 222.518 Q2214.12 223.93 2211.25 223.93 L2207.85 223.93 L2207.85 220.365 L2210.35 220.365 Q2212.11 220.365 2213.08 219.532 Q2214.05 218.698 2215.23 215.596 L2215.99 213.652 L2205.51 188.143 L2210.02 188.143 L2218.12 208.421 L2226.23 188.143 L2230.74 188.143 L2219.35 216.476 Z" fill="#000000" fill-rule="nonzero" fill-opacity="1" /><path clip-path="url(#clip230)" d="M2241.25 210.133 L2257.57 210.133 L2257.57 214.069 L2235.62 214.069 L2235.62 210.133 Q2238.29 207.379 2242.87 202.749 Q2247.48 198.096 2248.66 196.754 Q2250.9 194.231 2251.78 192.495 Q2252.68 190.735 2252.68 189.046 Q2252.68 186.291 2250.74 184.555 Q2248.82 182.819 2245.72 182.819 Q2243.52 182.819 2241.06 183.583 Q2238.63 184.347 2235.86 185.897 L2235.86 181.175 Q2238.68 180.041 2241.13 179.462 Q2243.59 178.884 2245.62 178.884 Q2250.99 178.884 2254.19 181.569 Q2257.38 184.254 2257.38 188.745 Q2257.38 190.874 2256.57 192.796 Q2255.79 194.694 2253.68 197.286 Q2253.1 197.958 2250 201.175 Q2246.9 204.37 2241.25 210.133 Z" fill="#000000" fill-rule="nonzero" fill-opacity="1" /></svg>
